<?xml version="1.0" standalone="no"?>
<!DOCTYPE svg PUBLIC "-//W3C//DTD SVG 1.1//EN" "http://www.w3.org/Graphics/SVG/1.1/DTD/svg11.dtd" >
<svg>
<metadata>
Created by FontForge 20090622 at Tue May 10 19:44:46 2016
 By deploy user
Copyright (c) 2008 by Jan-Christian Bruun, JC Design. All rights reserved.
</metadata>
<defs>
<font id="Centuma" horiz-adv-x="1164" >
  <font-face 
    font-family="Centuma"
    font-weight="400"
    font-stretch="normal"
    units-per-em="2048"
    panose-1="2 0 0 0 0 0 0 0 0 0"
    ascent="1536"
    descent="-512"
    x-height="1082"
    cap-height="1456"
    bbox="-980 -496 2396 2163"
    underline-thickness="100"
    underline-position="-100"
    unicode-range="U+0009-U+FB04"
  />
<missing-glyph horiz-adv-x="509" 
 />
    <glyph glyph-name="fi" unicode="fi" horiz-adv-x="1140" 
d="M395 0h-197v936h-170v146h170v117q0 182 106 282t296 100q107 0 285 -61l-34 -160q-129 51 -236 51q-116 0 -168 -51.5t-52 -160.5v-117h215v-146h-215v-936zM981 1082v-1082h-198v1082h198z" />
    <glyph glyph-name=".notdef" horiz-adv-x="509" 
 />
    <glyph glyph-name=".null" horiz-adv-x="0" 
 />
    <glyph glyph-name="nonmarkingreturn" horiz-adv-x="682" 
 />
    <glyph glyph-name="uni0002" horiz-adv-x="0" 
 />
    <glyph glyph-name="uni0002" horiz-adv-x="0" 
 />
    <glyph glyph-name="uni0009" unicode="&#x9;" horiz-adv-x="0" 
 />
    <glyph glyph-name="CR" unicode="&#xd;" horiz-adv-x="509" 
 />
    <glyph glyph-name="space" unicode=" " horiz-adv-x="509" 
 />
    <glyph glyph-name="exclam" unicode="!" horiz-adv-x="539" 
d="M368 1456v-978h-197v978h197zM369 204v-204h-198v204h198z" />
    <glyph glyph-name="quotedbl" unicode="&#x22;" horiz-adv-x="733" 
d="M633 1456v-270l-101 -250h-97v520h198zM324 1456v-270l-101 -250h-97l1 240v280h197z" />
    <glyph glyph-name="numbersign" unicode="#" horiz-adv-x="1276" 
d="M632 0l80 410h-255l-80 -410h-151l80 410h-236v140h264l68 348h-256v142h284l82 416h151l-82 -416h255l82 416h151l-82 -416h199v-142h-226l-68 -348h219v-140h-247l-80 -410h-152zM553 898l-68 -348h255l68 348h-255z" />
    <glyph glyph-name="dollar" unicode="$" horiz-adv-x="1193" 
d="M1112 373q0 -94 -34.5 -166.5t-96 -118t-137.5 -70.5t-168 -32v-204h-157v204q-244 11 -434 104l30 169q226 -118 491 -118q57 0 109 12t98.5 37.5t74 72.5t27.5 109q0 49 -21 91t-52 70.5t-77.5 52.5t-88 38t-92.5 27q-228 57 -349.5 165t-121.5 267q0 175 121.5 278.5
t304.5 117.5v204h158v-206q215 -23 331 -110l-48 -173q-148 120 -385 120q-285 0 -285 -228q0 -49 23 -90t55 -67.5t83.5 -50t89 -36t91.5 -26.5q230 -60 345 -164t115 -279z" />
    <glyph glyph-name="percent" unicode="%" horiz-adv-x="1498" 
d="M104 1099v77q0 128 82 214q82 87 219 87t219 -87q82 -85 82 -214v-77q0 -128 -82 -213q-81 -86 -217 -86q-138 0 -221 86q-82 85 -82 213zM250 1176v-77q0 -74 40 -126q40 -51 117 -51q73 0 113 51q40 50 40 126v77q0 73 -41 126t-114 53q-74 0 -115 -53
q-40 -52 -40 -126zM809 279v78q0 128 82 213q83 87 219 87t218 -87q83 -86 83 -213v-78q0 -129 -82 -214q-83 -86 -217 -86q-138 0 -221 86q-82 85 -82 214zM955 357v-78q0 -75 40 -127q41 -51 117 -51q72 0 113 51q40 52 40 127v78q0 73 -41 126q-40 52 -114 52
q-75 0 -115 -52t-40 -126zM1169 1248l-711 -1138l-109 67l711 1138z" />
    <glyph glyph-name="ampersand" unicode="&#x26;" horiz-adv-x="1276" 
d="M860 829l333 10v-161h-132v-589v-1q-67 -51 -184 -80t-219 -29q-142 0 -267 49.5t-206.5 149t-81.5 229.5q0 126 58 216t168 133q-96 48 -149.5 132t-53.5 186q0 98 44 176t119.5 127t171.5 74.5t204 25.5q253 0 398 -116l-74 -142q-149 102 -324 102q-82 0 -158 -26
t-130 -83.5t-54 -133.5q0 -112 73 -178t196 -71v-154q-131 -5 -211.5 -75t-80.5 -197q0 -75 54.5 -138.5t136 -97.5t167.5 -34q105 0 202 38v658z" />
    <glyph glyph-name="quotesingle" unicode="'" horiz-adv-x="445" 
d="M324 1456v-223l-101 -282h-97l1 265v240h197z" />
    <glyph glyph-name="parenleft" unicode="(" horiz-adv-x="679" 
d="M132 582v9q0 394 159 673t334 372l6 -1l38 -116q-137 -107 -239 -343q-101 -237 -101 -583v-13q0 -346 101 -583q101 -236 239 -352l-38 -108h-6q-175 93 -334 372q-159 278 -159 673z" />
    <glyph glyph-name="parenright" unicode=")" horiz-adv-x="687" 
d="M543 591v-9q0 -396 -160 -673q-159 -279 -333 -372h-6l-38 108q135 105 237 346q103 239 103 589v13q0 343 -106 583q-106 243 -234 352l38 108h6q174 -93 333 -372q160 -278 160 -673z" />
    <glyph glyph-name="asterisk" unicode="*" horiz-adv-x="884" 
d="M166 490l158 206l-236 67l49 154l236 -90l-10 254h161l-10 -260l233 89l48 -156l-242 -68l153 -200l-132 -96l-140 218l-135 -210z" />
    <glyph glyph-name="plus" unicode="+" horiz-adv-x="1162" 
d="M677 1206v-423h399v-178h-399v-459h-197v459h-402v178h402v423h197z" />
    <glyph glyph-name="comma" unicode="," horiz-adv-x="404" 
d="M315 221v-173l-150 -306h-117l70 316v163h197z" />
    <glyph glyph-name="hyphen" unicode="-" horiz-adv-x="923" 
d="M757 692v-154h-590v154h590z" />
    <glyph glyph-name="period" unicode="." horiz-adv-x="548" 
d="M358 202v-202h-197v202h197z" />
    <glyph glyph-name="slash" unicode="/" horiz-adv-x="850" 
d="M791 1456l-607 -1581h-168l608 1581h167z" />
    <glyph glyph-name="zero" unicode="0" horiz-adv-x="1153" 
d="M1040 942v-428q0 -247 -126 -391q-124 -144 -337 -144q-211 0 -338 144q-126 144 -126 391v428q0 244 125 390q126 145 337 145q212 0 338 -145q127 -145 127 -390zM843 474v509q0 157 -70 248t-198 91q-127 0 -196 -91t-69 -248v-509q0 -158 70 -249q71 -92 197 -92
q128 0 197 91q69 92 69 250z" />
    <glyph glyph-name="one" unicode="1" horiz-adv-x="723" 
d="M583 1477v-1477h-198v1305l-317 -34v152z" />
    <glyph glyph-name="two" unicode="2" horiz-adv-x="1153" 
d="M391 154h663v-154h-904v135l457 545l57 70.5l53 67t39 57t34.5 65t17.5 66t8 83.5q0 99 -73.5 162t-182.5 63q-92 0 -181.5 -25t-149.5 -76l-76 135q143 129 407 129q199 0 326 -104.5t127 -282.5q0 -61 -11.5 -112t-40.5 -103t-52.5 -85.5t-74 -98l-78.5 -102.5
l-367 -430z" />
    <glyph glyph-name="three" unicode="3" horiz-adv-x="1118" 
d="M772 756q110 -44 168 -133.5t58 -216.5q0 -199 -131 -313t-344 -114q-106 0 -234 29t-194 80l53 165q54 -43 158 -81.5t217 -38.5q126 0 202 75t76 194q0 136 -73 204.5t-210 68.5h-147v153h147q129 0 194.5 64.5t65.5 184.5q0 119 -71 181.5t-191 62.5
q-103 0 -196 -24.5t-146 -75.5l-74 140q60 54 182.5 85t233.5 31q217 0 338 -102.5t121 -301.5q0 -102 -53.5 -186t-149.5 -131z" />
    <glyph glyph-name="four" unicode="4" horiz-adv-x="1012" 
d="M696 490l26 280h170v-770h-196v336h-631v111l619 1009h215l-602 -966h399z" />
    <glyph glyph-name="five" unicode="5" horiz-adv-x="1153" 
d="M612 943q211 -1 321 -131.5t110 -347.5q0 -239 -117.5 -362t-342.5 -123q-145 0 -263 27t-179 77l78 152q61 -44 158 -71t206 -27q135 0 199 86t64 239q0 137 -64.5 224t-198.5 87q-84 0 -137 -26t-103 -88l-159 72l75 725h729l-11 -175h-552l-47 -419q79 79 234 81z" />
    <glyph glyph-name="six" unicode="6" horiz-adv-x="1153" 
d="M641 1477q83 0 192 -20q104 -19 187 -55l-47 -165q-167 78 -332 77q-150 7 -229 -109t-79 -296v-105q64 56 148 89.5t176 33.5q187 0 297 -126q110 -127 110 -331q0 -224 -123 -358q-121 -133 -330 -133q-202 0 -338 153q-136 154 -136 420v335q0 276 145 433t359 157z
M594 780q-93 0 -160 -40t-101 -84v-123q0 -184 80 -293q81 -107 198 -107q123 0 189 93q67 94 67 244q0 142 -72 226q-71 84 -201 84z" />
    <glyph glyph-name="seven" unicode="7" horiz-adv-x="1153" 
d="M1063 1456v-155q-275 -327 -373 -579q-97 -249 -97 -563v-159h-197v159q0 331 121 594q119 260 352 548h-772v155h966z" />
    <glyph glyph-name="eight" unicode="8" horiz-adv-x="1153" 
d="M824 740q99 -50 162.5 -140.5t63.5 -199.5q0 -195 -129 -308t-334 -113q-229 0 -357 105.5t-128 315.5q0 52 17 103t38.5 86t57.5 75.5t55.5 58l52.5 45.5q-84 49 -132 134t-48 182q0 188 122 290.5t320 102.5q191 0 308 -102.5t117 -290.5q0 -33 -6 -64.5t-14 -56.5
t-24 -52.5t-27 -44t-31.5 -40t-29.5 -33t-30 -30zM585 1322q-116 0 -180.5 -60t-64.5 -181q0 -127 112 -193q54 -32 200 -76q14 -4 22 -7q139 137 139 276q0 117 -58.5 179t-169.5 62zM587 133q125 0 196 72.5t71 198.5q0 53 -21.5 97.5t-55 75t-86 57t-101.5 43.5t-115 34
q-34 -29 -60.5 -56.5t-55 -66.5t-44.5 -86.5t-16 -97.5q0 -134 74 -202.5t214 -68.5z" />
    <glyph glyph-name="nine" unicode="9" horiz-adv-x="1153" 
d="M501 133q142 0 229 98q88 97 88 278v140q-50 -59 -122 -94.5t-154 -35.5q-210 0 -330 129q-119 131 -119 330q0 219 119 359q120 140 322 140q482 0 482 -524v-442q0 -251 -144 -392q-145 -140 -371 -140q-77 0 -157 15q-76 14 -199 59l33 165q104 -53 170 -69
q65 -16 153 -16zM542 673q102 0 173 47q72 47 103 83v179q0 340 -278 340q-125 0 -188 -96q-62 -95 -62 -248q0 -149 65.5 -227t186.5 -78z" />
    <glyph glyph-name="colon" unicode=":" horiz-adv-x="517" 
d="M358 202v-202h-197v202h197zM358 1078v-202h-197v202h197z" />
    <glyph glyph-name="semicolon" unicode=";" horiz-adv-x="525" 
d="M359 1078v-202h-197v202h197zM366 221v-173l-150 -306h-117l70 316v163h197z" />
    <glyph glyph-name="less" unicode="&#x3c;" horiz-adv-x="1040" 
d="M887 812l-559 -233l-85 -18v-6l85 -19l559 -228v-201l-816 379v149l816 378v-201z" />
    <glyph glyph-name="equal" unicode="=" horiz-adv-x="1153" 
d="M986 987v-164h-834v164h834zM986 571v-164h-834v164h834z" />
    <glyph glyph-name="greater" unicode="&#x3e;" horiz-adv-x="1072" 
d="M734 564l-598 234v195l856 -378v-149l-856 -379v196l598 238l85 17v6z" />
    <glyph glyph-name="question" unicode="?" horiz-adv-x="974" 
d="M559 0v208h-206v-208h206zM471 1476q119 0 211 -40.5t148 -128t56 -212.5q0 -68 -19.5 -130t-60 -120.5t-78 -101t-99.5 -103.5q-53 -52 -66 -96q-11 -47 -11 -135h-197q2 148 25 202q26 58 126 148l49 53.5l46 50.5t35 45.5t30 52.5t16 56.5t7 72.5q0 106 -56.5 163
t-161.5 57q-54 0 -139.5 -29.5t-128.5 -74.5l-82 152q60 50 158 84t192 34z" />
    <glyph glyph-name="at" unicode="@" horiz-adv-x="1833" 
d="M1732 502q-9 -214 -120 -369q-111 -154 -332 -154q-73 0 -126 41.5t-76 117.5q-100 -159 -290 -159q-125 0 -194 120q-69 121 -51 317q22 258 137 415t280 157q103 0 169 -26q62 -24 139 -80l-4 -4h6l-51 -585q-9 -110 21 -152q32 -41 82 -41q123 0 197 113
q75 116 82 289q16 382 -144 595q-160 214 -496 214q-309 0 -496 -231q-187 -230 -202 -602q-18 -376 150 -594q168 -219 482 -219q90 0 178 22q90 21 153 56l38 -107q-69 -43 -171 -65q-103 -24 -202 -24q-380 0 -588 250q-207 249 -189 681q19 422 249 688q229 265 602 265
q379 0 581 -250t186 -679zM720 416q-11 -142 21.5 -216t106.5 -74q135 0 214 112q-2 29 2 55l47 538q-57 26 -114 26q-124 0 -190 -108t-87 -333z" />
    <glyph glyph-name="A" unicode="A" horiz-adv-x="1295" 
d="M1050 0l-128 375h-548l-130 -375h-201l525 1456h169l514 -1456h-201zM648 1165l-217 -625h435l-212 625h-6z" />
    <glyph glyph-name="B" unicode="B" horiz-adv-x="1302" 
d="M747 0h-577v1456h475q228 0 357 -99q129 -97 129 -295q0 -93 -57.5 -167.5t-154.5 -114.5q143 -20 226 -124q84 -104 84 -245q0 -200 -130 -306q-131 -105 -352 -105zM737 683h-370v-529h380q135 0 209.5 66.5t74.5 188.5t-76 195q-78 75 -205 79h-13zM367 1301v-464h319
q110 0 179 60q69 61 69 169q0 117 -74 176t-215 59h-278z" />
    <glyph glyph-name="C" unicode="C" horiz-adv-x="1226" 
d="M696 133q104 0 204 34t152 88l97 -138q-71 -66 -197.5 -102t-255.5 -36q-261 0 -419.5 161.5t-158.5 457.5v259q0 304 157 462t421 158q280 0 450 -132l-112 -130q-55 44 -155.5 75.5t-182.5 31.5q-188 0 -284.5 -117t-96.5 -346v-261q0 -213 100.5 -339t280.5 -126z" />
    <glyph glyph-name="D" unicode="D" horiz-adv-x="1387" 
d="M628 0h-458v1456h458q286 0 458 -141q174 -139 174 -488v-199q0 -353 -174 -491q-173 -137 -458 -137zM628 1301h-261v-1147h261q202 0 318 90q117 92 117 384v201q0 259 -117 365q-116 107 -318 107z" />
    <glyph glyph-name="E" unicode="E" horiz-adv-x="1130" 
d="M965 830v-155h-598v-521h669v-154h-866v1456h855v-155h-658v-471h598z" />
    <glyph glyph-name="F" unicode="F" horiz-adv-x="1130" 
d="M981 799v-155h-614v-644h-197v1456h913v-155h-716v-502h614z" />
    <glyph glyph-name="G" unicode="G" horiz-adv-x="1387" 
d="M690 727h527v-532q-87 -113 -211.5 -164.5t-302.5 -51.5q-272 0 -431.5 158.5t-150.5 439.5v301q0 598 569 598q290 0 450 -125l-42 -180q-145 145 -408 145q-204 0 -287.5 -103.5t-83.5 -333.5v-302q-5 -208 94 -326t290 -118q226 0 317 113v327h-330v154z" />
    <glyph glyph-name="H" unicode="H" horiz-adv-x="1441" 
d="M1271 1456v-1456h-197v643h-707v-643h-197v1456h197v-658h707v658h197z" />
    <glyph glyph-name="I" unicode="I" horiz-adv-x="579" 
d="M388 1456v-1456h-198v1456h198z" />
    <glyph glyph-name="J" unicode="J" horiz-adv-x="1123" 
d="M759 1456h197v-1034q0 -215 -118 -329t-326 -114q-103 0 -209 29.5t-171 90.5l89 149q47 -51 125.5 -83t165.5 -32q115 0 183 84t64 205v1034z" />
    <glyph glyph-name="K" unicode="K" horiz-adv-x="1302" 
d="M495 658l-128 9v-667h-197v1456h197v-652l108 8l543 644h214v-23l-583 -671l625 -742v-20h-234z" />
    <glyph glyph-name="L" unicode="L" horiz-adv-x="1126" 
d="M367 1456v-1302h710v-154h-907v1456h197z" />
    <glyph glyph-name="M" unicode="M" horiz-adv-x="1779" 
d="M425 1456l465 -909h10l468 909h240v-1456h-197v1125l-6 1l-441 -826h-137l-454 828l-6 -1v-1127h-197v1456h255z" />
    <glyph glyph-name="N" unicode="N" horiz-adv-x="1442" 
d="M1271 1456v-1456h-197l-701 1112l-6 -2v-1110h-197v1456h197l701 -1111l6 2v1109h197z" />
    <glyph glyph-name="O" unicode="O" horiz-adv-x="1396" 
d="M1282 857v-259q0 -312 -151.5 -465.5t-443.5 -153.5q-270 0 -422 151q-152 152 -152 468v259q0 323 149 472q149 148 425 148q286 0 440 -148q155 -149 155 -472zM1085 598v261q0 261 -108 358q-109 98 -290 95q-171 3 -275 -95q-102 -97 -102 -358v-261q0 -244 102 -351
q104 -107 275 -107q183 0 290 107q108 107 108 351z" />
    <glyph glyph-name="P" unicode="P" horiz-adv-x="1302" 
d="M727 584h-360v-584h-197v1456h557q233 0 362 -120q130 -120 130 -316q0 -199 -130 -317q-130 -119 -362 -119zM367 1301v-563h360q148 0 221 79t73 201q0 120 -74 202q-74 81 -220 81h-360z" />
    <glyph glyph-name="Q" unicode="Q" horiz-adv-x="1427" 
d="M1282 857v-259q0 -186 -32 -258q-31 -70 -97 -143l217 -211l-135 -129l-222 213q-73 -46 -139 -68q-69 -23 -187 -23q-255 0 -415 145q-159 146 -159 474v259q0 343 159 481q160 139 415 139q263 0 429 -140q166 -139 166 -480zM1085 598v261q0 249 -108 353
q-107 103 -290 103q-171 0 -275 -102q-102 -101 -102 -354v-261q0 -252 102 -355q103 -103 275 -103q183 0 290 101q108 102 108 357z" />
    <glyph glyph-name="R" unicode="R" horiz-adv-x="1303" 
d="M1220 1020q0 -151 -82.5 -261t-235.5 -155l280 -547v-57h-212l-275 584h-327v-584h-197v1456h557q216 5 354 -113t138 -323zM368 1301v-563h360q135 -4 214.5 73t79.5 207q0 129 -80 208t-214 75h-360z" />
    <glyph glyph-name="S" unicode="S" horiz-adv-x="1252" 
d="M689 811q230 -60 345 -163.5t115 -278.5q0 -83 -27.5 -149.5t-74.5 -111t-112 -74t-137.5 -42.5t-154.5 -13q-168 0 -289.5 26.5t-231.5 79.5l30 169q224 -117 491 -117q57 0 109 12t98.5 37.5t74 72t27.5 108.5q0 50 -21 91.5t-52 70t-78 52.5t-88 38.5t-92 27.5
q-227 56 -349 164t-122 267q0 96 39.5 173.5t106.5 126t153 74t183 25.5q123 0 239.5 -28.5t193.5 -86.5l-48 -173q-150 121 -385 121q-285 0 -285 -229q0 -49 23 -90t55 -67.5t83.5 -50t89 -36t91.5 -26.5z" />
    <glyph glyph-name="T" unicode="T" horiz-adv-x="1225" 
d="M1188 1456v-155h-480v-1301h-197v1301h-474v155h1151z" />
    <glyph glyph-name="U" unicode="U" horiz-adv-x="1386" 
d="M1047 1456h197v-967q0 -272 -143 -391t-415 -119t-405 121q-134 122 -134 389v967h197v-967q0 -203 95 -280q95 -76 247 -76q160 0 260 76q101 77 101 280v967z" />
    <glyph glyph-name="V" unicode="V" horiz-adv-x="1295" 
d="M236 1456l376 -1074l33 -121h6l33 121l376 1074h213l-541 -1456h-169l-541 1456h214z" />
    <glyph glyph-name="W" unicode="W" horiz-adv-x="1763" 
d="M1512 1456h215l-353 -1456h-175l-313 885h-10l-313 -885h-175l-351 1456h213l240 -1132l7 -1l293 841h182l296 -844h6z" />
    <glyph glyph-name="X" unicode="X" horiz-adv-x="1295" 
d="M312 1456l338 -568l340 568h238l-462 -722l472 -734h-235l-349 578l-350 -578h-238l472 734l-462 722h236z" />
    <glyph glyph-name="Y" unicode="Y" horiz-adv-x="1295" 
d="M265 1456l380 -740l380 740h225l-511 -944v-512h-196v527l-503 929h225z" />
    <glyph glyph-name="Z" unicode="Z" horiz-adv-x="1225" 
d="M1100 1315l-781 -1161h814v-154h-1036v146l778 1155h-767v155h992v-141z" />
    <glyph glyph-name="bracketleft" unicode="[" horiz-adv-x="552" 
d="M528 1664v-155h-188v-1666h188v-155h-385v1976h385z" />
    <glyph glyph-name="backslash" unicode="\" horiz-adv-x="846" 
d="M647 -125l-608 1581h186l608 -1581h-186z" />
    <glyph glyph-name="bracketright" unicode="]" horiz-adv-x="552" 
d="M11 1509v155h386v-1976h-386v155h189v1666h-189z" />
    <glyph glyph-name="asciicircum" unicode="^" horiz-adv-x="856" 
d="M407 1148l-163 -419h-183l299 727h134l298 -727h-181l-166 419l-16 70h-6z" />
    <glyph glyph-name="underscore" unicode="_" horiz-adv-x="931" 
d="M927 0v-154h-923v154h923z" />
    <glyph glyph-name="grave" unicode="`" horiz-adv-x="641" 
d="M315 1518l175 -266h-158l-250 260l3 6h230z" />
    <glyph glyph-name="a" unicode="a" horiz-adv-x="1126" 
d="M982 217q0 -38 0.5 -108t0.5 -109h-165q-5 29 -15 70.5t-15 72.5q-66 -72 -155.5 -118.5t-181.5 -46.5q-167 0 -257 85.5t-90 239.5q0 160 120.5 249.5t346.5 81.5q55 -2 108.5 -14t79.5 -23l26 -11v155q0 109 -55.5 154.5t-166.5 45.5q-171 0 -343 -55l-34 155
q179 61 387 61q95 0 168 -19.5t129 -61t85 -113t27 -169.5v-522zM785 254v200q-9 4 -26.5 10.5t-75 17.5t-119.5 11q-116 0 -189 -45.5t-73 -142.5q0 -78 45.5 -120t132.5 -42q68 0 155.5 34.5t149.5 76.5z" />
    <glyph glyph-name="b" unicode="b" 
d="M1067 521v-21q0 -233 -113 -378q-113 -143 -309 -143q-96 0 -169 43q-64 38 -155 109l-27 -131h-151v1560h197v-558q67 43 145 70q83 30 158 30q200 0 312 -160t112 -421zM870 500v21q0 186 -69 303q-67 118 -208 118q-67 0 -144 -36q-68 -31 -109 -58v-573
q51 -45 134 -90q85 -46 154 -46q106 0 174 99q68 100 68 262z" />
    <glyph glyph-name="c" unicode="c" horiz-adv-x="1072" 
d="M623 136q59 0 133 20.5t116 62.5l106 -132q-52 -51 -152.5 -79.5t-202.5 -28.5q-245 0 -385.5 141t-140.5 400v42q0 247 139.5 393.5t386.5 146.5q104 0 204.5 -29.5t152.5 -82.5l-109 -133q-40 39 -116.5 64.5t-131.5 25.5q-155 0 -241 -106t-87 -279v-42
q1 -165 86.5 -274.5t241.5 -109.5z" />
    <glyph glyph-name="d" unicode="d" 
d="M98 500v21q0 261 111 421q112 160 313 160q95 0 170 -36q73 -34 124 -71v565h197v-1560h-151l-27 118q-57 -48 -133 -92q-80 -47 -182 -47q-197 0 -310 143q-112 143 -112 378zM295 521v-21q0 -165 67 -263q68 -98 188 -98q76 4 149 40q71 35 117 72v587q-34 28 -105 66
t-139 38q-142 0 -210 -117q-67 -116 -67 -304z" />
    <glyph glyph-name="e" unicode="e" horiz-adv-x="1072" 
d="M591 -21q-233 0 -364 149q-130 148 -130 392v44q0 264 129 400q129 138 334 138q232 0 333 -135q101 -136 101 -359v-98h-695v-11q0 -163 72 -265q72 -101 220 -101q116 0 193 16q81 17 177 69l44 -157q-55 -30 -166 -56q-116 -26 -248 -26zM560 947q-103 0 -171 -80
q-67 -79 -82 -203v-5h490v16q0 119 -58 195q-59 77 -179 77z" />
    <glyph glyph-name="f" unicode="f" horiz-adv-x="674" 
d="M422 0h-197v936h-169v146h169v137q0 173 90 267.5t253 94.5q60 0 124 -6v-161q-50 6 -100 6q-170 0 -170 -201v-137h196v-146h-196v-936z" />
    <glyph glyph-name="g" unicode="g" horiz-adv-x="1143" 
d="M807 713q0 223 -264 223q-276 0 -276 -223q4 -227 278 -227q130 0 196 54.5t66 172.5zM1073 1080v-154l-159 5q83 -69 83 -218q-1 -123 -62 -210t-160.5 -128t-229.5 -41q-40 0 -64 -0.5t-57.5 -3t-53 -8.5t-39 -15.5t-28.5 -25t-9 -36.5q0 -58 52.5 -73.5t232.5 -15.5
q153 0 245 -12t148.5 -45t76 -83.5t19.5 -134.5q0 -74 -42 -129t-115.5 -86t-161 -46t-188.5 -15q-255 0 -369.5 68t-114.5 228q0 87 51.5 132t145.5 45q-83 16 -113 49t-30 118q0 65 41.5 107t119.5 43q-110 47 -160 122.5t-55 195.5q1 100 37 175t101 118.5t146.5 64.5
t181.5 21q107 0 182 -16zM571 -1q-172 0 -239 -21.5t-67 -80.5q0 -72 64 -102t236 -30q321 0 321 122q0 34 -8 51.5t-39.5 33.5t-95 21.5t-172.5 5.5z" />
    <glyph glyph-name="h" unicode="h" 
d="M340 1560v-583q52 48 135 86q84 39 183 39q177 0 271.5 -106t94.5 -318v-678h-197v680q0 262 -229 262q-88 0 -153 -35t-105 -60v-847h-197v1560h197z" />
    <glyph glyph-name="i" unicode="i" horiz-adv-x="516" 
d="M356 1082v-1082h-197v1082h197zM356 1560v-236h-197v236h197z" />
    <glyph glyph-name="j" unicode="j" horiz-adv-x="530" 
d="M173 1082h197v-1171q0 -166 -85.5 -257t-239.5 -90q-81 0 -103 2v157q27 1 89 1q142 0 142 187v1171zM370 1560v-236h-197v236h197z" />
    <glyph glyph-name="k" unicode="k" horiz-adv-x="1050" 
d="M1029 0h-227l-360 499l-101 13v-512h-197v1560h197v-916l99 12l325 426h231v-13l-388 -486l421 -566v-17z" />
    <glyph glyph-name="l" unicode="l" horiz-adv-x="516" 
d="M356 1560v-1560h-197v1560h197z" />
    <glyph glyph-name="m" unicode="m" horiz-adv-x="1790" 
d="M143 1082h168l19 -120q54 54 137 97q82 43 190 43q107 0 185 -50t112 -138q132 188 336 188q168 0 262.5 -115.5t94.5 -339.5v-647h-197v649q0 161 -55 226q-55 67 -164 67q-93 0 -151 -57q-46 -45 -86 -89v-109v-687h-198v649q0 293 -219 293q-90 0 -148 -37
q-56 -36 -89 -69v-836h-197v1082z" />
    <glyph glyph-name="n" unicode="n" 
d="M143 1082h176l11 -138q58 64 138 110q82 48 186 48q178 0 272.5 -104.5t94.5 -314.5v-683h-197v679q0 141 -55.5 202t-173.5 61q-91 0 -155 -37q-61 -35 -100 -80v-825h-197v1082z" />
    <glyph glyph-name="o" unicode="o" 
d="M97 529v22q0 241 130 395q131 156 353 156q224 0 355 -155t131 -396v-22q0 -242 -130 -396t-354 -154q-225 0 -355 154t-130 396zM294 551v-22q0 -171 72 -284q73 -112 216 -112q141 0 214 112t73 284v22q0 170 -74 283t-215 113q-140 0 -214 -113q-72 -112 -72 -283z
" />
    <glyph glyph-name="p" unicode="p" 
d="M1065 521v-21q0 -235 -112 -378q-113 -143 -309 -143q-100 0 -176 33q-82 38 -128 64v-492h-197v1498h151l23 -116q64 56 140 95q80 41 184 41q201 0 312 -160q112 -158 112 -421zM868 500v21q0 184 -73 302q-72 119 -213 119q-85 0 -145 -39q-55 -34 -97 -68v-604
q44 -28 103 -60q64 -34 141 -34q140 -5 212 98t72 265z" />
    <glyph glyph-name="q" unicode="q" 
d="M98 500v21q0 261 111 421q112 160 313 160q175 0 303 -131l26 111h151v-1498h-197v492q-53 -34 -123 -66q-69 -31 -162 -31q-197 0 -310 143q-112 143 -112 378zM295 521v-21q0 -165 67 -266q68 -101 208 -101q81 0 138 36q54 33 97 68v601q-41 41 -97 74q-58 35 -136 35
q-142 0 -209 -120q-68 -119 -68 -306z" />
    <glyph glyph-name="r" unicode="r" horiz-adv-x="717" 
d="M682 1091l-27 -183q-140 6 -209 -15q-70 -22 -106 -42v-851h-197v1082h176l13 -132q54 60 119 105q68 47 156 47q38 0 75 -11z" />
    <glyph glyph-name="s" unicode="s" horiz-adv-x="1071" 
d="M564 625q203 -43 304 -120.5t101 -199.5q0 -86 -34.5 -150.5t-94.5 -102t-133 -55.5t-159 -18q-118 0 -236 27t-186 73l53 154q89 -51 170.5 -75t198.5 -24q104 0 164 42.5t60 114.5q0 34 -15 61.5t-36.5 45t-56.5 32.5t-62.5 22.5t-66.5 16.5q-202 44 -299 115t-97 198
q0 79 34 141.5t91.5 100.5t128.5 58t150 20q119 0 218.5 -25t157.5 -72l-67 -143q-121 85 -309 85q-102 0 -154.5 -41.5t-52.5 -117.5q0 -31 15 -56.5t36 -42t54.5 -30t60 -20.5t62.5 -14z" />
    <glyph glyph-name="t" unicode="t" horiz-adv-x="660" 
d="M158 1293l197 50v-261h205v-146h-205v-657q0 -138 115 -138q35 0 73 14l27 -135q-22 -18 -65 -29.5t-85 -11.5q-124 0 -193 74.5t-69 225.5v1014z" />
    <glyph glyph-name="u" unicode="u" 
d="M858 0l-25 135q-48 -48 -132 -103q-83 -53 -187 -53q-181 0 -278 115.5t-97 349.5v638h197v-640q0 -174 51 -238q51 -65 159 -65q105 0 167 44q66 46 110 81v818h197v-1082h-162z" />
    <glyph glyph-name="v" unicode="v" horiz-adv-x="1030" 
d="M248 1082l256 -763l17 -76h6l19 76l249 763h201l-398 -1082h-149l-403 1082h202z" />
    <glyph glyph-name="w" unicode="w" horiz-adv-x="1550" 
d="M415 394l25 -130h7l26 67l222 535h148l220 -535l29 -83h5l33 146l160 688h206l-314 -1082h-155l-259 626h-6l-252 -626h-156l-313 1082h204z" />
    <glyph glyph-name="x" unicode="x" horiz-adv-x="1030" 
d="M283 1082l227 -399l230 399h230l-351 -535l361 -547h-226l-240 409l-240 -409h-228l361 547l-351 535h227z" />
    <glyph glyph-name="y" unicode="y" horiz-adv-x="1030" 
d="M246 1082l228 -681l35 -136h6l266 817h219l-455 -1248q-40 -107 -118 -190q-77 -81 -206 -81q-23 0 -61 6q-28 3 -57 10l20 155l25 -1h1h1h1l1 -1h1h1h1h1h1h1q42 -3 53 -3q62 0 103 56q39 53 67 124l47 113l-402 1060h220z" />
    <glyph glyph-name="z" unicode="z" horiz-adv-x="1030" 
d="M920 948l-591 -794h625v-154h-860v138l585 788h-578v156h819v-134z" />
    <glyph glyph-name="braceleft" unicode="{" horiz-adv-x="696" 
d="M671 -246l-40 -118q-195 55 -277 175q-82 119 -82 290v205q0 114 -52.5 175.5t-156.5 61.5v147q104 0 156.5 60.5t52.5 175.5v206q0 172 82 290q82 120 277 175l40 -117q-202 -65 -202 -348v-206q0 -106 -43 -185.5t-127 -124.5q84 -45 127 -125.5t43 -184.5v-205
q0 -281 202 -347z" />
    <glyph glyph-name="bar" unicode="|" horiz-adv-x="507" 
d="M342 1456v-1726h-197v1726h197z" />
    <glyph glyph-name="braceright" unicode="}" horiz-adv-x="696" 
d="M62 -364l-41 118q203 67 203 347v205q0 226 184 310q-184 81 -184 310v206q0 282 -203 348l41 117q194 -56 276 -175q83 -119 83 -290v-206q0 -236 209 -236v-147q-209 0 -209 -237v-205q0 -169 -83 -290q-82 -119 -276 -175z" />
    <glyph glyph-name="asciitilde" unicode="~" horiz-adv-x="1391" 
d="M1123 758l141 -18q0 -138 -87 -238q-87 -101 -217 -101q-90 0 -164 33q-70 32 -158 107q-118 96 -207 96q-67 0 -115 -53q-47 -53 -47 -128l-141 18q0 137 85 232q85 97 218 97q85 0 160 -33.5t163 -105.5q110 -97 206 -97q66 0 114 57q49 56 49 134z" />
    <glyph glyph-name="nbspace" unicode="&#xa0;" horiz-adv-x="509" 
 />
    <glyph glyph-name="exclamdown" unicode="&#xa1;" horiz-adv-x="507" 
d="M341 604v-978h-197v978h197zM341 1082v-206h-197v206h197z" />
    <glyph glyph-name="cent" unicode="&#xa2;" horiz-adv-x="1122" 
d="M926 232l62 -149q-86 -84 -279 -104v-224h-199v230q-190 34 -296.5 170.5t-106.5 360.5v42q0 214 105.5 354t297.5 176v230h199v-224q87 -9 163 -36.5t118 -71.5l-62 -152q-54 54 -136 81.5t-159 27.5q-155 0 -241 -106t-87 -279v-42q1 -165 86.5 -272.5t241.5 -107.5
q78 0 159 24t134 72z" />
    <glyph glyph-name="sterling" unicode="&#xa3;" horiz-adv-x="1194" 
d="M376 154h735l-1 -154h-976v154h10q88 46 96 312l-7 149h-163v155h158l-10 270q-5 195 108 316t304 121q124 0 218.5 -34.5t153.5 -91.5l-74 -151q-47 54 -127.5 88t-170.5 34q-100 0 -157.5 -75t-57.5 -207l9 -270h419v-155h-413l6 -149q0 -190 -60 -312z" />
    <glyph glyph-name="currency" unicode="&#xa4;" horiz-adv-x="1456" 
d="M1230 -27l-133 135q-159 -128 -363 -128q-205 0 -361 126l-130 -132l-139 138l138 140q-103 155 -103 356q0 208 111 368l-146 149l139 139l143 -146q157 116 348 116q193 0 350 -118l146 149l140 -140l-150 -153q109 -164 109 -364q0 -194 -101 -353l142 -143zM321 608
q0 -188 120 -321q121 -132 293 -132q170 0 290 132q121 133 121 321q0 187 -121 318q-120 132 -290 132q-172 0 -293 -132q-120 -132 -120 -318z" />
    <glyph glyph-name="yen" unicode="&#xa5;" horiz-adv-x="1243" 
d="M256 1456l359 -663l360 663h224l-418 -718h312v-123h-383v-167h383v-122h-383v-326h-197v326h-375v122h375v167h-375v123h311l-419 718h226z" />
    <glyph glyph-name="brokenbar" unicode="&#xa6;" horiz-adv-x="499" 
d="M342 -270h-197v792h197v-792zM342 1456v-758h-197v758h197z" />
    <glyph glyph-name="section" unicode="&#xa7;" horiz-adv-x="1259" 
d="M980 157q71 -52 105 -120.5t34 -164.5t-41 -168.5t-111.5 -115t-155.5 -63t-183 -20.5q-87 0 -160.5 12.5t-132 37t-96.5 45.5t-85 53l97 156q59 -62 179.5 -105.5t197.5 -43.5q56 0 106.5 12t93.5 36.5t68.5 66t25.5 95.5q0 39 -9.5 70t-30 53t-42 38t-58 30t-63 22
t-72.5 20.5t-73 21.5q-68 19 -109 31.5t-96.5 34t-88 42t-69.5 52.5t-56.5 68.5t-32.5 87t-13 110.5q0 91 47 161.5t134 111.5q-136 99 -136 286q0 94 42 166.5t113 115t156.5 64t180.5 21.5q113 0 239.5 -43t193.5 -101l-83 -158q-46 57 -160 102t-190 45q-59 0 -110 -11.5
t-93.5 -35.5t-67 -65.5t-24.5 -97.5q0 -23 5 -43.5t11 -36.5t21 -31.5l26 -26t35 -23.5t38.5 -20t46.5 -19l48.5 -18t55.5 -19l58 -19q190 -65 256 -98q141 -71 186 -181q25 -63 25 -146q0 -93 -48 -163.5t-135 -110.5zM815 240q72 20 111.5 69.5t39.5 118.5q0 30 -8.5 56
t-20.5 45t-36 37.5t-42.5 30t-54.5 26.5t-57 22.5t-65 22l-64 21.5q-106 27 -166 52q-72 -18 -109.5 -68t-37.5 -120q0 -44 18 -80.5t46 -61.5t76.5 -48t93.5 -38t113 -34q145 -45 163 -51z" />
    <glyph glyph-name="dieresis" unicode="&#xa8;" horiz-adv-x="1021" 
d="M859 1456v-200h-219v200h219zM389 1456v-200h-219v200h219z" />
    <glyph glyph-name="copyright" unicode="&#xa9;" horiz-adv-x="1604" 
d="M209 729q0 -265 171 -447q173 -182 418 -182q244 0 417 182q172 181 172 447q0 263 -172 444t-417 181q-246 0 -418 -181q-171 -181 -171 -444zM88 729q0 315 207 531t503 216q295 0 502 -216t207 -531q0 -316 -208 -533q-207 -217 -501 -217q-296 0 -503 217
q-207 218 -207 533zM809 1042q-120 0 -187 -82t-68 -216v-33q1 -128 67 -211.5t188 -83.5q60 0 122.5 19t103.5 56l49 -115q-67 -67 -217 -81q-40 -4 -74 -3.5t-57 4.5l-23 3q-148 26 -230 132t-82 280v33q0 165 82 273.5t230 136.5q9 2 23 3.5t56.5 4t74.5 -2.5
q153 -16 218 -84l-48 -118q-41 42 -105 63.5t-123 21.5z" />
    <glyph glyph-name="ordfeminine" unicode="&#xaa;" horiz-adv-x="917" 
d="M768 864q0 -26 0.5 -74t0.5 -75h-113q-4 22 -11 50.5t-10 47.5q-45 -49 -106.5 -81t-123.5 -32q-114 0 -176 59t-62 164q0 109 82.5 170.5t237.5 56.5q38 -2 74.5 -10t54.5 -16l17 -7v106q0 74 -38 105.5t-114 31.5q-115 0 -235 -38l-23 106q122 42 265 42
q134 0 208.5 -59t71.5 -190v-357zM633 889v137q-56 27 -151 27q-80 0 -129.5 -31t-49.5 -98q0 -53 31 -82t90 -29q47 0 107.5 24t101.5 52z" />
    <glyph glyph-name="guillemotleft" unicode="&#xab;" horiz-adv-x="966" 
d="M540 914l-255 -399l255 -398h-148l-295 389v19l295 389h148zM875 914l-255 -399l255 -398h-148l-295 389v19l295 389h148z" />
    <glyph glyph-name="logicalnot" unicode="&#xac;" horiz-adv-x="1137" 
d="M962 802v-427h-198v262h-637v165h835z" />
    <glyph glyph-name="uni00AD" unicode="&#xad;" horiz-adv-x="923" 
d="M757 692v-154h-590v154h590z" />
    <glyph glyph-name="registered" unicode="&#xae;" horiz-adv-x="1604" 
d="M88 729q0 315 207 531t503 216q295 0 502 -216t207 -531q0 -316 -208 -533q-207 -217 -501 -217q-296 0 -503 217q-207 218 -207 533zM209 729q0 -267 171 -448q172 -181 418 -181q243 0 416 182q172 181 172 447q0 265 -172 444q-171 181 -416 181q-246 0 -418 -181
q-171 -180 -171 -444zM959 690l165 -333v-41h-145l-157 338h-159v-338h-149v850h280q154 0 239.5 -66t85.5 -191q0 -68 -40.5 -129t-119.5 -90zM925 816q46 31 46 88q0 73 -39.5 102.5t-137.5 29.5h-131v-252h152q66 2 110 32z" />
    <glyph glyph-name="macron" unicode="&#xaf;" horiz-adv-x="950" 
d="M844 1456v-146h-721v146h721z" />
    <glyph glyph-name="macron" unicode="&#x2c9;" horiz-adv-x="950" 
d="M844 1456v-146h-721v146h721z" />
    <glyph glyph-name="degree" unicode="&#xb0;" horiz-adv-x="763" 
d="M128 1216q0 107 76 183q76 78 181 78q103 0 177 -78q75 -77 75 -183q0 -107 -74 -183q-74 -74 -178 -74q-105 0 -182 74q-75 75 -75 183zM259 1216q0 -55 36 -91q37 -36 90 -36q52 0 87.5 36.5t35.5 90.5t-36 92t-87 38q-52 0 -90 -38q-36 -38 -36 -92z" />
    <glyph glyph-name="plusminus" unicode="&#xb1;" horiz-adv-x="1097" 
d="M657 1267v-411h358v-154h-358v-413h-177v413h-381v154h381v411h177zM971 159v-155h-835v155h835z" />
    <glyph glyph-name="twosuperior" unicode="&#xb2;" horiz-adv-x="765" 
d="M319 791h326v-123h-535v105l247 279q3 4 9 11q33 40 48.5 61t30 55t14.5 66q0 50 -32 77.5t-90 27.5q-108 0 -172 -70l-63 125q97 72 235 72t210 -58.5t72 -172.5q0 -28 -7.5 -56t-15.5 -47t-29.5 -49.5t-32 -43.5l-42.5 -50.5l-42 -49.5l-132 -156z" />
    <glyph glyph-name="threesuperior" unicode="&#xb3;" horiz-adv-x="734" 
d="M524 1073q131 -50 131 -190q0 -76 -46 -132t-114 -81t-147 -25q-62 0 -134.5 16t-110.5 44l48 125q24 -22 74.5 -41.5t122.5 -19.5q56 0 101 32.5t45 83.5q0 62 -38 93.5t-102 31.5h-85v122h85q58 0 92.5 30.5t34.5 83.5q0 47 -40.5 76.5t-92.5 29.5q-22 0 -42 -2
t-34.5 -4.5t-29.5 -7.5t-24 -8.5t-20 -10l-15.5 -9t-13.5 -9.5t-11 -8l-56 122q34 29 106 45.5t140 16.5q136 0 215.5 -60t79.5 -169q0 -55 -32 -102t-87 -73z" />
    <glyph glyph-name="acute" unicode="&#xb4;" horiz-adv-x="654" 
d="M131 1252l185 266h230l2 -6l-269 -260h-148z" />
    <glyph glyph-name="mu" unicode="&#xb5;" 
d="M153 1082h196v-642q1 -178 57 -243q55 -64 156 -64q185 0 251 142v807h197v-1082h-177l-9 108q-91 -129 -254 -129q-144 0 -221 68v-463h-196v1498z" />
    <glyph glyph-name="paragraph" unicode="&#xb6;" horiz-adv-x="1006" 
d="M836 0h-197v520h-84q-233 0 -363 129q-129 131 -129 339q0 206 129 337q131 131 363 131h281v-1456z" />
    <glyph glyph-name="periodcentered" unicode="&#xb7;" horiz-adv-x="540" 
d="M359 836v-212h-198v212h198z" />
    <glyph glyph-name="cedilla" unicode="&#xb8;" horiz-adv-x="509" 
d="M152 0h140l-12 -52q151 -26 151 -173q0 -97 -80 -153.5t-225 -56.5l-7 109q74 0 117 25t43 73q0 47 -35 66.5t-124 26.5z" />
    <glyph glyph-name="onesuperior" unicode="&#xb9;" horiz-adv-x="557" 
d="M396 1477v-812h-174v655h-127v134z" />
    <glyph glyph-name="ordmasculine" unicode="&#xba;" horiz-adv-x="933" 
d="M120 1025v117q0 148 94 241q94 94 251 94q158 0 252 -94q94 -93 94 -241v-117q0 -149 -94 -242q-94 -92 -250 -92q-158 0 -253 92q-94 93 -94 242zM293 1142v-117q0 -90 44.5 -141.5t129.5 -51.5q82 0 127 52t45 141v117q0 86 -46 138.5t-128 52.5t-127 -52.5t-45 -138.5
z" />
    <glyph glyph-name="guillemotright" unicode="&#xbb;" horiz-adv-x="966" 
d="M116 170l231 380l-231 380h148l278 -357h5l1 -9l5 -5l-2 -9l2 -9l-5 -6l-1 -7h-4l-279 -358h-148zM462 170l231 380l-231 380h148l278 -357h5l1 -9l5 -5l-2 -9l2 -9l-5 -6l-1 -7h-4l-279 -358h-148z" />
    <glyph glyph-name="questiondown" unicode="&#xbf;" horiz-adv-x="1013" 
d="M441 874v209h206v-209h-206zM529 -393q-119 0 -211 40.5t-148 128t-56 212.5q0 68 19.5 130t60 120.5t78 101t99.5 103.5q53 53 66 96q11 47 11 135h197q-2 -148 -25 -202q-26 -58 -126 -148l-49 -53.5l-46 -50.5t-35 -45.5t-30 -52.5t-16 -56.5t-7 -72.5
q0 -106 56.5 -163t161.5 -57q54 0 139.5 29.5t128.5 74.5l82 -152q-60 -50 -158 -84t-192 -34z" />
    <glyph glyph-name="Agrave" unicode="&#xc0;" horiz-adv-x="1295" 
d="M1050 0l-128 375h-548l-130 -375h-201l525 1456h169l514 -1456h-201zM648 1165l-217 -625h435l-212 625h-6zM556 1867l175 -266h-158l-250 260l3 6h230z" />
    <glyph glyph-name="Aacute" unicode="&#xc1;" horiz-adv-x="1295" 
d="M1050 0l-128 375h-548l-130 -375h-201l525 1456h169l514 -1456h-201zM648 1165l-217 -625h435l-212 625h-6zM558 1597l185 266h230l2 -6l-269 -260h-148z" />
    <glyph glyph-name="Acircumflex" unicode="&#xc2;" horiz-adv-x="1295" 
d="M1050 0l-128 375h-548l-130 -375h-201l525 1456h169l514 -1456h-201zM648 1165l-217 -625h435l-212 625h-6zM708 1864l248 -238v-25h-161l-147 148l-146 -148h-160v26l246 237h120z" />
    <glyph glyph-name="Atilde" unicode="&#xc3;" horiz-adv-x="1295" 
d="M1050 0l-128 375h-548l-130 -375h-201l525 1456h169l514 -1456h-201zM648 1165l-217 -625h435l-212 625h-6zM887 1876l108 -32q0 -94 -60 -159q-59 -65 -149 -65q-72 0 -148 46q-77 47 -128 47q-42 0 -71.5 -32.5t-29.5 -78.5l-108 26q0 93 59 161q58 69 150 69
q55 0 140 -47t136 -47q42 0 71.5 32.5t29.5 79.5z" />
    <glyph glyph-name="Adieresis" unicode="&#xc4;" horiz-adv-x="1295" 
d="M1050 0l-128 375h-548l-130 -375h-201l525 1456h169l514 -1456h-201zM648 1165l-217 -625h435l-212 625h-6zM993 1805v-200h-219v200h219zM523 1805v-200h-219v200h219z" />
    <glyph glyph-name="Aring" unicode="&#xc5;" horiz-adv-x="1295" 
d="M1050 0l-128 375h-548l-130 -375h-201l525 1456h169l514 -1456h-201zM648 1165l-217 -625h435l-212 625h-6zM471 1734q0 72 51 120q52 49 125 49t122 -49q51 -48 51 -120t-51 -119q-49 -45 -122 -45q-75 0 -125 46q-51 46 -51 118zM571 1734q0 -31 22.5 -52.5t53.5 -21.5
q30 0 51.5 21t21.5 53t-21.5 54.5t-51.5 22.5q-32 0 -54 -22.5t-22 -54.5z" />
    <glyph glyph-name="AE" unicode="&#xc6;" horiz-adv-x="1999" 
d="M1924 154v-154h-895l-15 350h-557l-201 -350h-242l881 1456h967v-155h-691l20 -466h590v-155h-584l22 -526h705zM971 1241l-411 -712h447l-31 710z" />
    <glyph glyph-name="Ccedilla" unicode="&#xc7;" horiz-adv-x="1297" 
d="M696 133q104 0 204 34t152 88l97 -138q-71 -66 -197.5 -102t-255.5 -36q-261 0 -419.5 161.5t-158.5 457.5v259q0 304 157 462t421 158q280 0 450 -132l-112 -130q-55 44 -155.5 75.5t-182.5 31.5q-188 0 -284.5 -117t-96.5 -346v-261q0 -213 100.5 -339t280.5 -126z
M754 -9h-140l-32 -135q89 -7 124 -26.5t35 -66.5q0 -48 -43 -73t-117 -25l7 -109q145 0 225 56.5t80 153.5q0 147 -151 173z" />
    <glyph glyph-name="Egrave" unicode="&#xc8;" horiz-adv-x="1130" 
d="M965 830v-155h-598v-521h669v-154h-866v1456h855v-155h-658v-471h598zM527 1867l175 -266h-158l-250 260l3 6h230z" />
    <glyph glyph-name="Eacute" unicode="&#xc9;" horiz-adv-x="1130" 
d="M965 830v-155h-598v-521h669v-154h-866v1456h855v-155h-658v-471h598zM529 1597l185 266h230l2 -6l-269 -260h-148z" />
    <glyph glyph-name="Ecircumflex" unicode="&#xca;" horiz-adv-x="1130" 
d="M965 830v-155h-598v-521h669v-154h-866v1456h855v-155h-658v-471h598zM679 1864l248 -238v-25h-161l-147 148l-146 -148h-160v26l246 237h120z" />
    <glyph glyph-name="Edieresis" unicode="&#xcb;" horiz-adv-x="1130" 
d="M965 830v-155h-598v-521h669v-154h-866v1456h855v-155h-658v-471h598zM964 1805v-200h-219v200h219zM494 1805v-200h-219v200h219z" />
    <glyph glyph-name="Igrave" unicode="&#xcc;" horiz-adv-x="579" 
d="M388 1456v-1456h-198v1456h198zM198 1867l175 -266h-158l-250 260l3 6h230z" />
    <glyph glyph-name="Iacute" unicode="&#xcd;" horiz-adv-x="579" 
d="M388 1456v-1456h-198v1456h198zM199 1597l185 266h230l2 -6l-269 -260h-148z" />
    <glyph glyph-name="Icircumflex" unicode="&#xce;" horiz-adv-x="579" 
d="M388 1456v-1456h-198v1456h198zM350 1864l248 -238v-25h-161l-147 148l-146 -148h-160v26l246 237h120z" />
    <glyph glyph-name="Idieresis" unicode="&#xcf;" horiz-adv-x="579" 
d="M388 1456v-1456h-198v1456h198zM635 1805v-200h-219v200h219zM165 1805v-200h-219v200h219z" />
    <glyph glyph-name="Eth" unicode="&#xd0;" horiz-adv-x="1387" 
d="M628 0h-458v663h-168v155h168v638h458q285 0 458 -176q174 -176 174 -453v-199q0 -278 -174 -454q-172 -174 -458 -174zM643 818v-155h-276v-509h261q203 0 318 133q117 133 117 341v201q0 205 -117 339q-115 133 -318 133h-261v-483h276z" />
    <glyph glyph-name="Ntilde" unicode="&#xd1;" horiz-adv-x="1442" 
d="M1271 1456v-1456h-197l-701 1112l-6 -2v-1110h-197v1456h197l701 -1111l6 2v1109h197zM958 1876l108 -32q0 -94 -60 -159q-59 -65 -149 -65q-72 0 -148 46q-77 47 -128 47q-42 0 -71.5 -32.5t-29.5 -78.5l-108 26q0 93 59 161q59 69 150 69q55 0 140 -47t136 -47
q42 0 71.5 32.5t29.5 79.5z" />
    <glyph glyph-name="Ograve" unicode="&#xd2;" horiz-adv-x="1396" 
d="M1282 857v-259q0 -312 -151.5 -465.5t-443.5 -153.5q-270 0 -422 151q-152 152 -152 468v259q0 323 149 472q149 148 425 148q286 0 440 -148q155 -149 155 -472zM1085 598v261q0 261 -108 358q-109 98 -290 95q-171 3 -275 -95q-102 -97 -102 -358v-261q0 -244 102 -351
q104 -107 275 -107q183 0 290 107q108 107 108 351zM606 1888l175 -266h-158l-250 260l3 6h230z" />
    <glyph glyph-name="Oacute" unicode="&#xd3;" horiz-adv-x="1396" 
d="M1282 857v-259q0 -312 -151.5 -465.5t-443.5 -153.5q-270 0 -422 151q-152 152 -152 468v259q0 323 149 472q149 148 425 148q286 0 440 -148q155 -149 155 -472zM1085 598v261q0 261 -108 358q-109 98 -290 95q-171 3 -275 -95q-102 -97 -102 -358v-261q0 -244 102 -351
q104 -107 275 -107q183 0 290 107q108 107 108 351zM608 1618l185 266h230l2 -6l-269 -260h-148z" />
    <glyph glyph-name="Ocircumflex" unicode="&#xd4;" horiz-adv-x="1396" 
d="M1282 857v-259q0 -312 -151.5 -465.5t-443.5 -153.5q-270 0 -422 151q-152 152 -152 468v259q0 323 149 472q149 148 425 148q286 0 440 -148q155 -149 155 -472zM1085 598v261q0 261 -108 358q-109 98 -290 95q-171 3 -275 -95q-102 -97 -102 -358v-261q0 -244 102 -351
q104 -107 275 -107q183 0 290 107q108 107 108 351zM758 1885l248 -238v-25h-161l-147 148l-146 -148h-160v26l246 237h120z" />
    <glyph glyph-name="Otilde" unicode="&#xd5;" horiz-adv-x="1396" 
d="M1282 857v-259q0 -312 -151.5 -465.5t-443.5 -153.5q-270 0 -422 151q-152 152 -152 468v259q0 323 149 472q149 148 425 148q286 0 440 -148q155 -149 155 -472zM1085 598v261q0 261 -108 358q-109 98 -290 95q-171 3 -275 -95q-102 -97 -102 -358v-261q0 -244 102 -351
q104 -107 275 -107q183 0 290 107q108 107 108 351zM937 1897l108 -32q0 -95 -60 -159q-59 -65 -149 -65q-72 0 -148 46q-77 47 -128 47q-42 0 -71.5 -32.5t-29.5 -78.5l-108 26q0 93 59 161q58 69 150 69q55 0 140 -47t136 -47q42 0 71.5 32.5t29.5 79.5z" />
    <glyph glyph-name="Odieresis" unicode="&#xd6;" horiz-adv-x="1396" 
d="M1282 857v-259q0 -312 -151.5 -465.5t-443.5 -153.5q-270 0 -422 151q-152 152 -152 468v259q0 323 149 472q149 148 425 148q286 0 440 -148q155 -149 155 -472zM1085 598v261q0 261 -108 358q-109 98 -290 95q-171 3 -275 -95q-102 -97 -102 -358v-261q0 -244 102 -351
q104 -107 275 -107q183 0 290 107q108 107 108 351zM1043 1826v-200h-219v200h219zM573 1826v-200h-219v200h219z" />
    <glyph glyph-name="multiply" unicode="&#xd7;" horiz-adv-x="1096" 
d="M214 225l-126 126l327 334l-327 334l126 126l326 -333l327 333l126 -126l-328 -334l328 -334l-126 -126l-327 332z" />
    <glyph glyph-name="Oslash" unicode="&#xd8;" horiz-adv-x="1396" 
d="M1282 857v-259q0 -268 -166 -443q-165 -176 -429 -176q-87 0 -193 34q-105 34 -191 106q-83 71 -137 206q-53 136 -53 273v259q0 266 159 443q161 177 415 177q92 0 203 -35q107 -34 208 -133q184 -180 184 -452zM310 859v-261q0 -82 18.5 -156t46.5 -112l6 -1l552 901
q-104 85 -246 85q-171 0 -275 -128q-102 -127 -102 -328zM1085 598v261q0 73 -16 140.5t-40 105.5l-6 1l-548 -898q89 -68 212 -68q184 0 290 127q108 127 108 331z" />
    <glyph glyph-name="Ugrave" unicode="&#xd9;" horiz-adv-x="1386" 
d="M1047 1456h197v-967q0 -272 -143 -391t-415 -119t-405 121q-134 122 -134 389v967h197v-967q0 -203 95 -280q95 -76 247 -76q160 0 260 76q101 77 101 280v967zM605 1867l175 -266h-158l-250 260l3 6h230z" />
    <glyph glyph-name="Uacute" unicode="&#xda;" horiz-adv-x="1386" 
d="M1047 1456h197v-967q0 -272 -143 -391t-415 -119t-405 121q-134 122 -134 389v967h197v-967q0 -203 95 -280q95 -76 247 -76q160 0 260 76q101 77 101 280v967zM607 1597l185 266h230l2 -6l-269 -260h-148z" />
    <glyph glyph-name="Ucircumflex" unicode="&#xdb;" horiz-adv-x="1386" 
d="M1047 1456h197v-967q0 -272 -143 -391t-415 -119t-405 121q-134 122 -134 389v967h197v-967q0 -203 95 -280q95 -76 247 -76q160 0 260 76q101 77 101 280v967zM757 1864l248 -238v-25h-161l-147 148l-146 -148h-160v26l246 237h120z" />
    <glyph glyph-name="Udieresis" unicode="&#xdc;" horiz-adv-x="1386" 
d="M1047 1456h197v-967q0 -272 -143 -391t-415 -119t-405 121q-134 122 -134 389v967h197v-967q0 -203 95 -280q95 -76 247 -76q160 0 260 76q101 77 101 280v967zM1042 1805v-200h-219v200h219zM572 1805v-200h-219v200h219z" />
    <glyph glyph-name="Yacute" unicode="&#xdd;" horiz-adv-x="1295" 
d="M265 1456l380 -740l380 740h225l-511 -944v-512h-196v527l-503 929h225zM556 1596l185 266h230l2 -6l-269 -260h-148z" />
    <glyph glyph-name="Thorn" unicode="&#xde;" horiz-adv-x="1209" 
d="M163 1456h197v-293h269q232 0 362 -118t130 -307q0 -190 -130 -308q-131 -117 -362 -117h-269v-313h-197v1456zM629 1009h-269v-542h269q147 0 220 78q74 79 74 191q0 113 -74 193t-220 80z" />
    <glyph glyph-name="germandbls" unicode="&#xdf;" horiz-adv-x="1221" 
d="M333 1082v-1082h-196v1082q0 224 117 348q119 125 301 125q161 0 262 -86t101 -253q0 -118 -65 -228q-64 -109 -64 -167q0 -81 173 -224q174 -142 174 -281q0 -166 -105 -252q-103 -85 -282 -85q-85 0 -173 21q-86 19 -125 50l44 159q42 -27 108 -52q65 -24 126 -24
q105 0 157.5 46t52.5 127q0 84 -174 227q-173 144 -173 290q0 81 70 190q71 112 71 187q0 93 -51 147t-117 54q-103 0 -168 -84q-64 -82 -64 -235z" />
    <glyph glyph-name="agrave" unicode="&#xe0;" horiz-adv-x="1126" 
d="M982 217q0 -38 0.5 -108t0.5 -109h-165q-5 29 -15 70.5t-15 72.5q-66 -72 -155.5 -118.5t-181.5 -46.5q-167 0 -257 85.5t-90 239.5q0 160 120.5 249.5t346.5 81.5q55 -2 108.5 -14t79.5 -23l26 -11v155q0 109 -55.5 154.5t-166.5 45.5q-171 0 -343 -55l-34 155
q179 61 387 61q95 0 168 -19.5t129 -61t85 -113t27 -169.5v-522zM785 254v200q-9 4 -26.5 10.5t-75 17.5t-119.5 11q-116 0 -189 -45.5t-73 -142.5q0 -78 45.5 -120t132.5 -42q68 0 155.5 34.5t149.5 76.5zM463 1545l175 -266h-158l-250 260l3 6h230z" />
    <glyph glyph-name="aacute" unicode="&#xe1;" horiz-adv-x="1126" 
d="M982 217q0 -38 0.5 -108t0.5 -109h-165q-5 29 -15 70.5t-15 72.5q-66 -72 -155.5 -118.5t-181.5 -46.5q-167 0 -257 85.5t-90 239.5q0 160 120.5 249.5t346.5 81.5q55 -2 108.5 -14t79.5 -23l26 -11v155q0 109 -55.5 154.5t-166.5 45.5q-171 0 -343 -55l-34 155
q179 61 387 61q95 0 168 -19.5t129 -61t85 -113t27 -169.5v-522zM785 254v200q-9 4 -26.5 10.5t-75 17.5t-119.5 11q-116 0 -189 -45.5t-73 -142.5q0 -78 45.5 -120t132.5 -42q68 0 155.5 34.5t149.5 76.5zM465 1275l185 266h230l2 -6l-269 -260h-148z" />
    <glyph glyph-name="acircumflex" unicode="&#xe2;" horiz-adv-x="1126" 
d="M982 217q0 -38 0.5 -108t0.5 -109h-165q-5 29 -15 70.5t-15 72.5q-66 -72 -155.5 -118.5t-181.5 -46.5q-167 0 -257 85.5t-90 239.5q0 160 120.5 249.5t346.5 81.5q55 -2 108.5 -14t79.5 -23l26 -11v155q0 109 -55.5 154.5t-166.5 45.5q-171 0 -343 -55l-34 155
q179 61 387 61q95 0 168 -19.5t129 -61t85 -113t27 -169.5v-522zM785 254v200q-9 4 -26.5 10.5t-75 17.5t-119.5 11q-116 0 -189 -45.5t-73 -142.5q0 -78 45.5 -120t132.5 -42q68 0 155.5 34.5t149.5 76.5zM615 1542l248 -238v-25h-161l-147 148l-146 -148h-160v26l246 237
h120z" />
    <glyph glyph-name="atilde" unicode="&#xe3;" horiz-adv-x="1126" 
d="M982 217q0 -38 0.5 -108t0.5 -109h-165q-5 29 -15 70.5t-15 72.5q-66 -72 -155.5 -118.5t-181.5 -46.5q-167 0 -257 85.5t-90 239.5q0 160 120.5 249.5t346.5 81.5q55 -2 108.5 -14t79.5 -23l26 -11v155q0 109 -55.5 154.5t-166.5 45.5q-171 0 -343 -55l-34 155
q179 61 387 61q95 0 168 -19.5t129 -61t85 -113t27 -169.5v-522zM785 254v200q-9 4 -26.5 10.5t-75 17.5t-119.5 11q-116 0 -189 -45.5t-73 -142.5q0 -78 45.5 -120t132.5 -42q68 0 155.5 34.5t149.5 76.5zM794 1554l108 -32q0 -94 -60 -159q-59 -65 -149 -65q-72 0 -148 46
q-77 47 -128 47q-42 0 -71.5 -32.5t-29.5 -78.5l-108 26q0 93 59 161q59 69 150 69q55 0 140 -47t136 -47q42 0 71.5 32.5t29.5 79.5z" />
    <glyph glyph-name="adieresis" unicode="&#xe4;" horiz-adv-x="1126" 
d="M982 217q0 -38 0.5 -108t0.5 -109h-165q-5 29 -15 70.5t-15 72.5q-66 -72 -155.5 -118.5t-181.5 -46.5q-167 0 -257 85.5t-90 239.5q0 160 120.5 249.5t346.5 81.5q55 -2 108.5 -14t79.5 -23l26 -11v155q0 109 -55.5 154.5t-166.5 45.5q-171 0 -343 -55l-34 155
q179 61 387 61q95 0 168 -19.5t129 -61t85 -113t27 -169.5v-522zM785 254v200q-9 4 -26.5 10.5t-75 17.5t-119.5 11q-116 0 -189 -45.5t-73 -142.5q0 -78 45.5 -120t132.5 -42q68 0 155.5 34.5t149.5 76.5zM900 1483v-200h-219v200h219zM430 1483v-200h-219v200h219z" />
    <glyph glyph-name="aring" unicode="&#xe5;" horiz-adv-x="1126" 
d="M982 217q0 -38 0.5 -108t0.5 -109h-165q-5 29 -15 70.5t-15 72.5q-66 -72 -155.5 -118.5t-181.5 -46.5q-167 0 -257 85.5t-90 239.5q0 160 120.5 249.5t346.5 81.5q55 -2 108.5 -14t79.5 -23l26 -11v155q0 109 -55.5 154.5t-166.5 45.5q-171 0 -343 -55l-34 155
q179 61 387 61q95 0 168 -19.5t129 -61t85 -113t27 -169.5v-522zM785 254v200q-9 4 -26.5 10.5t-75 17.5t-119.5 11q-116 0 -189 -45.5t-73 -142.5q0 -78 45.5 -120t132.5 -42q68 0 155.5 34.5t149.5 76.5zM378 1412q0 72 51 120q52 49 125 49t122 -49q51 -48 51 -120
t-51 -119q-50 -45 -122 -45q-75 0 -125 46q-51 46 -51 118zM478 1412q0 -31 22.5 -52.5t53.5 -21.5q30 0 51.5 21t21.5 53t-21.5 54.5t-51.5 22.5q-32 0 -54 -22.5t-22 -54.5z" />
    <glyph glyph-name="ae" unicode="&#xe6;" horiz-adv-x="1789" 
d="M1687 495h-709l-2 -5q0 -160 79.5 -258.5t233.5 -98.5q96 0 167.5 27t168.5 88l67 -139q-78 -62 -184 -96t-219 -34q-272 0 -410 186q-145 -186 -439 -186q-163 0 -259 83.5t-96 241.5t116 243.5t334 85.5h229v86q0 107 -52.5 167.5t-148.5 60.5q-168 0 -324 -97l-93 132
q91 58 204 89t213 31q114 0 201.5 -40.5t137.5 -117.5q64 76 152 117t188 41q220 0 332.5 -125t112.5 -364v-118zM1242 947q-78 0 -135.5 -43.5t-87.5 -109.5t-39 -149l2 -5h508v31q-1 127 -63 201.5t-185 74.5zM764 277v214h-227q-102 3 -178.5 -48.5t-76.5 -142.5
q0 -76 51 -121.5t146 -45.5q72 0 158.5 43t126.5 101z" />
    <glyph glyph-name="ccedilla" unicode="&#xe7;" horiz-adv-x="1072" 
d="M623 136q59 0 133 20.5t116 62.5l106 -132q-52 -51 -152.5 -79.5t-202.5 -28.5q-245 0 -385.5 141t-140.5 400v42q0 247 139.5 393.5t386.5 146.5q104 0 204.5 -29.5t152.5 -82.5l-109 -133q-40 39 -116.5 64.5t-131.5 25.5q-155 0 -241 -106t-87 -279v-42
q1 -165 86.5 -274.5t241.5 -109.5zM623 -9h-140l-32 -135q89 -7 124 -26.5t35 -66.5q0 -48 -43 -73t-117 -25l7 -109q145 0 225 56.5t80 153.5q0 147 -151 173z" />
    <glyph glyph-name="egrave" unicode="&#xe8;" horiz-adv-x="1072" 
d="M591 -21q-233 0 -364 149q-130 148 -130 392v44q0 264 129 400q129 138 334 138q232 0 333 -135q101 -136 101 -359v-98h-695v-11q0 -163 72 -265q72 -101 220 -101q116 0 193 16q81 17 177 69l44 -157q-55 -30 -166 -56q-116 -26 -248 -26zM560 947q-103 0 -171 -80
q-67 -79 -82 -203v-5h490v16q0 119 -58 195q-59 77 -179 77zM447 1546l175 -266h-158l-250 260l3 6h230z" />
    <glyph glyph-name="eacute" unicode="&#xe9;" horiz-adv-x="1072" 
d="M591 -21q-233 0 -364 149q-130 148 -130 392v44q0 264 129 400q129 138 334 138q232 0 333 -135q101 -136 101 -359v-98h-695v-11q0 -163 72 -265q72 -101 220 -101q116 0 193 16q81 17 177 69l44 -157q-55 -30 -166 -56q-116 -26 -248 -26zM560 947q-103 0 -171 -80
q-67 -79 -82 -203v-5h490v16q0 119 -58 195q-59 77 -179 77zM449 1276l185 266h230l2 -6l-269 -260h-148z" />
    <glyph glyph-name="ecircumflex" unicode="&#xea;" horiz-adv-x="1072" 
d="M591 -21q-233 0 -364 149q-130 148 -130 392v44q0 264 129 400q129 138 334 138q232 0 333 -135q101 -136 101 -359v-98h-695v-11q0 -163 72 -265q72 -101 220 -101q116 0 193 16q81 17 177 69l44 -157q-55 -30 -166 -56q-116 -26 -248 -26zM560 947q-103 0 -171 -80
q-67 -79 -82 -203v-5h490v16q0 119 -58 195q-59 77 -179 77zM599 1543l248 -238v-25h-161l-147 148l-146 -148h-160v26l246 237h120z" />
    <glyph glyph-name="edieresis" unicode="&#xeb;" horiz-adv-x="1072" 
d="M591 -21q-233 0 -364 149q-130 148 -130 392v44q0 264 129 400q129 138 334 138q232 0 333 -135q101 -136 101 -359v-98h-695v-11q0 -163 72 -265q72 -101 220 -101q116 0 193 16q81 17 177 69l44 -157q-55 -30 -166 -56q-116 -26 -248 -26zM560 947q-103 0 -171 -80
q-67 -79 -82 -203v-5h490v16q0 119 -58 195q-59 77 -179 77zM884 1484v-200h-219v200h219zM414 1484v-200h-219v200h219z" />
    <glyph glyph-name="igrave" unicode="&#xec;" horiz-adv-x="515" 
d="M350 1082v-1082h-197v1082h197zM161 1524l175 -266h-158l-250 260l3 6h230z" />
    <glyph glyph-name="iacute" unicode="&#xed;" horiz-adv-x="515" 
d="M350 1082v-1082h-197v1082h197zM162 1254l185 266h230l2 -6l-269 -260h-148z" />
    <glyph glyph-name="icircumflex" unicode="&#xee;" horiz-adv-x="515" 
d="M350 1082v-1082h-197v1082h197zM313 1521l248 -238v-25h-161l-147 148l-146 -148h-160v26l246 237h120z" />
    <glyph glyph-name="idieresis" unicode="&#xef;" horiz-adv-x="515" 
d="M350 1082v-1082h-197v1082h197zM598 1462v-200h-219v200h219zM128 1462v-200h-219v200h219z" />
    <glyph glyph-name="eth" unicode="&#xf0;" horiz-adv-x="1202" 
d="M1068 1409l-195 -112q199 -218 199 -542v-220q0 -245 -144 -401q-144 -155 -359 -155q-218 0 -358 140q-139 139 -139 347q0 228 138 370t351 142q88 0 168 -36.5t133 -97.5l4 5q-17 211 -162 351l-290 -165l-77 102l256 146q-70 39 -166 70l60 164q157 -37 286 -131
l218 125zM573 133q133 0 217 114q85 113 85 288v148q-37 62 -119 101t-195 39q-131 0 -212 -104q-80 -104 -80 -253q0 -133 82 -233t222 -100z" />
    <glyph glyph-name="ntilde" unicode="&#xf1;" 
d="M143 1082h176l11 -138q58 64 138 110q82 48 186 48q178 0 272.5 -104.5t94.5 -314.5v-683h-197v679q0 141 -55.5 202t-173.5 61q-91 0 -155 -37q-61 -35 -100 -80v-825h-197v1082zM817 1554l108 -32q0 -94 -60 -159q-59 -65 -149 -65q-72 0 -148 46q-77 47 -128 47
q-42 0 -71.5 -32.5t-29.5 -78.5l-108 26q0 93 59 161q58 69 150 69q55 0 140 -47t136 -47q42 0 71.5 32.5t29.5 79.5z" />
    <glyph glyph-name="ograve" unicode="&#xf2;" 
d="M97 529v22q0 241 130 395q131 156 353 156q224 0 355 -155t131 -396v-22q0 -242 -130 -396t-354 -154q-225 0 -355 154t-130 396zM294 551v-22q0 -171 72 -284q73 -112 216 -112q141 0 214 112t73 284v22q0 170 -74 283t-215 113q-140 0 -214 -113q-72 -112 -72 -283z
M490 1545l175 -266h-158l-250 260l3 6h230z" />
    <glyph glyph-name="oacute" unicode="&#xf3;" 
d="M97 529v22q0 241 130 395q131 156 353 156q224 0 355 -155t131 -396v-22q0 -242 -130 -396t-354 -154q-225 0 -355 154t-130 396zM294 551v-22q0 -171 72 -284q73 -112 216 -112q141 0 214 112t73 284v22q0 170 -74 283t-215 113q-140 0 -214 -113q-72 -112 -72 -283z
M492 1275l185 266h230l2 -6l-269 -260h-148z" />
    <glyph glyph-name="ocircumflex" unicode="&#xf4;" 
d="M97 529v22q0 241 130 395q131 156 353 156q224 0 355 -155t131 -396v-22q0 -242 -130 -396t-354 -154q-225 0 -355 154t-130 396zM294 551v-22q0 -171 72 -284q73 -112 216 -112q141 0 214 112t73 284v22q0 170 -74 283t-215 113q-140 0 -214 -113q-72 -112 -72 -283z
M642 1542l248 -238v-25h-161l-147 148l-146 -148h-160v26l246 237h120z" />
    <glyph glyph-name="otilde" unicode="&#xf5;" 
d="M97 529v22q0 241 130 395q131 156 353 156q224 0 355 -155t131 -396v-22q0 -242 -130 -396t-354 -154q-225 0 -355 154t-130 396zM294 551v-22q0 -171 72 -284q73 -112 216 -112q141 0 214 112t73 284v22q0 170 -74 283t-215 113q-140 0 -214 -113q-72 -112 -72 -283z
M821 1554l108 -32q0 -94 -60 -159q-59 -65 -149 -65q-72 0 -148 46q-77 47 -128 47q-42 0 -71.5 -32.5t-29.5 -78.5l-108 26q0 93 59 161q58 69 150 69q55 0 140 -47t136 -47q42 0 71.5 32.5t29.5 79.5z" />
    <glyph glyph-name="odieresis" unicode="&#xf6;" 
d="M97 529v22q0 241 130 395q131 156 353 156q224 0 355 -155t131 -396v-22q0 -242 -130 -396t-354 -154q-225 0 -355 154t-130 396zM294 551v-22q0 -171 72 -284q73 -112 216 -112q141 0 214 112t73 284v22q0 170 -74 283t-215 113q-140 0 -214 -113q-72 -112 -72 -283z
M927 1483v-200h-219v200h219zM457 1483v-200h-219v200h219z" />
    <glyph glyph-name="divide" unicode="&#xf7;" horiz-adv-x="1170" 
d="M1069 785v-188h-998v188h998zM670 1202v-203h-198v203h198zM670 383v-203h-198v203h198z" />
    <glyph glyph-name="oslash" unicode="&#xf8;" 
d="M97 529v22q0 241 130 395q131 156 353 156q58 0 143 -22q88 -21 168 -89q82 -68 128 -183q47 -117 47 -257v-22q0 -242 -130 -396t-354 -154q-158 0 -271 80q-214 156 -214 470zM294 551v-22q0 -196 81 -290h6l332 674q-63 34 -133 34q-140 0 -214 -113
q-72 -112 -72 -283zM869 529v22q0 170 -67 268h-6l-327 -663q46 -23 113 -23q141 0 214 112t73 284z" />
    <glyph glyph-name="ugrave" unicode="&#xf9;" 
d="M858 0l-25 135q-48 -48 -132 -103q-83 -53 -187 -53q-181 0 -278 115.5t-97 349.5v638h197v-640q0 -174 51 -238q51 -65 159 -65q105 0 167 44q66 46 110 81v818h197v-1082h-162zM488 1524l175 -266h-158l-250 260l3 6h230z" />
    <glyph glyph-name="uacute" unicode="&#xfa;" 
d="M858 0l-25 135q-48 -48 -132 -103q-83 -53 -187 -53q-181 0 -278 115.5t-97 349.5v638h197v-640q0 -174 51 -238q51 -65 159 -65q105 0 167 44q66 46 110 81v818h197v-1082h-162zM490 1254l185 266h230l2 -6l-269 -260h-148z" />
    <glyph glyph-name="ucircumflex" unicode="&#xfb;" 
d="M858 0l-25 135q-48 -48 -132 -103q-83 -53 -187 -53q-181 0 -278 115.5t-97 349.5v638h197v-640q0 -174 51 -238q51 -65 159 -65q105 0 167 44q66 46 110 81v818h197v-1082h-162zM640 1521l248 -238v-25h-161l-147 148l-146 -148h-160v26l246 237h120z" />
    <glyph glyph-name="udieresis" unicode="&#xfc;" 
d="M858 0l-25 135q-48 -48 -132 -103q-83 -53 -187 -53q-181 0 -278 115.5t-97 349.5v638h197v-640q0 -174 51 -238q51 -65 159 -65q105 0 167 44q66 46 110 81v818h197v-1082h-162zM925 1462v-200h-219v200h219zM455 1462v-200h-219v200h219z" />
    <glyph glyph-name="yacute" unicode="&#xfd;" horiz-adv-x="1030" 
d="M246 1082l228 -681l35 -136h6l266 817h219l-455 -1248q-40 -107 -118 -190q-77 -81 -206 -81q-23 0 -61 6q-28 3 -57 10l20 155l25 -1h1h1h1l1 -1h1h1h1h1h1h1q42 -3 53 -3q62 0 103 56q39 53 67 124l47 113l-402 1060h220zM424 1254l185 266h230l2 -6l-269 -260h-148z
" />
    <glyph glyph-name="thorn" unicode="&#xfe;" horiz-adv-x="1186" 
d="M1075 521v-21q0 -235 -112 -378q-113 -143 -309 -143q-197 0 -304 134v-529h-197v1976h197v-598q109 140 301 140q201 0 312 -160q112 -158 112 -421zM878 500v21q0 184 -73 302q-72 119 -213 119q-163 0 -242 -144v-523q78 -142 244 -142q140 0 212 102q72 103 72 265z
" />
    <glyph glyph-name="ydieresis" unicode="&#xff;" horiz-adv-x="1030" 
d="M246 1082l228 -681l35 -136h6l266 817h219l-455 -1248q-40 -107 -118 -190q-77 -81 -206 -81q-23 0 -61 6q-28 3 -57 10l20 155l25 -1h1h1h1l1 -1h1h1h1h1h1h1q42 -3 53 -3q62 0 103 56q39 53 67 124l47 113l-402 1060h220zM859 1462v-200h-219v200h219zM389 1462v-200
h-219v200h219z" />
    <glyph glyph-name="Amacron" unicode="&#x100;" horiz-adv-x="1295" 
d="M1050 0l-128 375h-548l-130 -375h-201l525 1456h169l514 -1456h-201zM648 1165l-217 -625h435l-212 625h-6zM1014 1786v-146h-721v146h721z" />
    <glyph glyph-name="amacron" unicode="&#x101;" horiz-adv-x="1126" 
d="M982 217q0 -38 0.5 -108t0.5 -109h-165q-5 29 -15 70.5t-15 72.5q-66 -72 -155.5 -118.5t-181.5 -46.5q-167 0 -257 85.5t-90 239.5q0 160 120.5 249.5t346.5 81.5q55 -2 108.5 -14t79.5 -23l26 -11v155q0 109 -55.5 154.5t-166.5 45.5q-171 0 -343 -55l-34 155
q179 61 387 61q95 0 168 -19.5t129 -61t85 -113t27 -169.5v-522zM785 254v200q-9 4 -26.5 10.5t-75 17.5t-119.5 11q-116 0 -189 -45.5t-73 -142.5q0 -78 45.5 -120t132.5 -42q68 0 155.5 34.5t149.5 76.5zM921 1464v-146h-721v146h721z" />
    <glyph glyph-name="Abreve" unicode="&#x102;" horiz-adv-x="1295" 
d="M1050 0l-128 375h-548l-130 -375h-201l525 1456h169l514 -1456h-201zM648 1165l-217 -625h435l-212 625h-6zM791 1870h151l2 -6q4 -115 -77 -189q-80 -73 -218 -73q-139 0 -219 73q-81 73 -76 189l2 6h151q0 -69 35 -108.5t107 -39.5q70 0 106 40t36 108z" />
    <glyph glyph-name="abreve" unicode="&#x103;" horiz-adv-x="1126" 
d="M982 217q0 -38 0.5 -108t0.5 -109h-165q-5 29 -15 70.5t-15 72.5q-66 -72 -155.5 -118.5t-181.5 -46.5q-167 0 -257 85.5t-90 239.5q0 160 120.5 249.5t346.5 81.5q55 -2 108.5 -14t79.5 -23l26 -11v155q0 109 -55.5 154.5t-166.5 45.5q-171 0 -343 -55l-34 155
q179 61 387 61q95 0 168 -19.5t129 -61t85 -113t27 -169.5v-522zM785 254v200q-9 4 -26.5 10.5t-75 17.5t-119.5 11q-116 0 -189 -45.5t-73 -142.5q0 -78 45.5 -120t132.5 -42q68 0 155.5 34.5t149.5 76.5zM698 1548h151l2 -6q4 -115 -77 -189q-80 -73 -218 -73
q-139 0 -219 73q-81 73 -76 189l2 6h151q0 -69 35 -108.5t107 -39.5q70 0 106 40t36 108z" />
    <glyph glyph-name="Aogonek" unicode="&#x104;" horiz-adv-x="1295" 
d="M1050 0l-128 375h-548l-130 -375h-201l525 1456h169l514 -1456h-201zM648 1165l-217 -625h435l-212 625h-6zM1155 57l72 -57q-75 -56 -112 -103t-37 -98q0 -90 96 -90q38 0 99 26l33 -123q-84 -44 -183 -44q-95 0 -156 55q-60 56 -60 154q0 170 248 280z" />
    <glyph glyph-name="aogonek" unicode="&#x105;" horiz-adv-x="1126" 
d="M785 254v200q-9 4 -26.5 10.5t-75 17.5t-119.5 11q-116 0 -189 -45.5t-73 -142.5q0 -78 45.5 -120t132.5 -42q68 0 155.5 34.5t149.5 76.5zM1033 -265l33 -123q-84 -44 -183 -44q-95 0 -156 55q-60 56 -60 154q0 131 150 228q-5 25 -14.5 66.5t-14.5 71.5
q-66 -72 -155.5 -118.5t-181.5 -46.5q-167 0 -257 85.5t-90 239.5q0 160 120.5 249.5t346.5 81.5q55 -2 108.5 -14t79.5 -23l26 -11v155q0 109 -55.5 154.5t-166.5 45.5q-171 0 -343 -55l-34 155q179 61 387 61q95 0 168 -19.5t129 -61t85 -113t27 -169.5v-522
q0 -37 0.5 -106.5t0.5 -107.5v-3q-74 -55 -109.5 -102t-35.5 -99q0 -90 96 -90q38 0 99 26z" />
    <glyph glyph-name="Cacute" unicode="&#x106;" horiz-adv-x="1297" 
d="M696 133q104 0 204 34t152 88l97 -138q-71 -66 -197.5 -102t-255.5 -36q-261 0 -419.5 161.5t-158.5 457.5v259q0 304 157 462t421 158q280 0 450 -132l-112 -130q-55 44 -155.5 75.5t-182.5 31.5q-188 0 -284.5 -117t-96.5 -346v-261q0 -213 100.5 -339t280.5 -126z
M588 1618l185 266h230l2 -6l-269 -260h-148z" />
    <glyph glyph-name="cacute" unicode="&#x107;" horiz-adv-x="1072" 
d="M623 136q59 0 133 20.5t116 62.5l106 -132q-52 -51 -152.5 -79.5t-202.5 -28.5q-245 0 -385.5 141t-140.5 400v42q0 247 139.5 393.5t386.5 146.5q104 0 204.5 -29.5t152.5 -82.5l-109 -133q-40 39 -116.5 64.5t-131.5 25.5q-155 0 -241 -106t-87 -279v-42
q1 -165 86.5 -274.5t241.5 -109.5zM457 1275l185 266h230l2 -6l-269 -260h-148z" />
    <glyph glyph-name="Ccircumflex" unicode="&#x108;" horiz-adv-x="1297" 
d="M696 133q104 0 204 34t152 88l97 -138q-71 -66 -197.5 -102t-255.5 -36q-261 0 -419.5 161.5t-158.5 457.5v259q0 304 157 462t421 158q280 0 450 -132l-112 -130q-55 44 -155.5 75.5t-182.5 31.5q-188 0 -284.5 -117t-96.5 -346v-261q0 -213 100.5 -339t280.5 -126z
M738 1885l248 -238v-25h-161l-147 148l-146 -148h-160v26l246 237h120z" />
    <glyph glyph-name="ccircumflex" unicode="&#x109;" horiz-adv-x="1072" 
d="M623 136q59 0 133 20.5t116 62.5l106 -132q-52 -51 -152.5 -79.5t-202.5 -28.5q-245 0 -385.5 141t-140.5 400v42q0 247 139.5 393.5t386.5 146.5q104 0 204.5 -29.5t152.5 -82.5l-109 -133q-40 39 -116.5 64.5t-131.5 25.5q-155 0 -241 -106t-87 -279v-42
q1 -165 86.5 -274.5t241.5 -109.5zM607 1542l248 -238v-25h-161l-147 148l-146 -148h-160v26l246 237h120z" />
    <glyph glyph-name="uni010A" unicode="&#x10a;" horiz-adv-x="1297" 
d="M696 133q104 0 204 34t152 88l97 -138q-71 -66 -197.5 -102t-255.5 -36q-261 0 -419.5 161.5t-158.5 457.5v259q0 304 157 462t421 158q280 0 450 -132l-112 -130q-55 44 -155.5 75.5t-182.5 31.5q-188 0 -284.5 -117t-96.5 -346v-261q0 -213 100.5 -339t280.5 -126z
M787 1826v-201h-218v201h218z" />
    <glyph glyph-name="uni010B" unicode="&#x10b;" horiz-adv-x="1072" 
d="M623 136q59 0 133 20.5t116 62.5l106 -132q-52 -51 -152.5 -79.5t-202.5 -28.5q-245 0 -385.5 141t-140.5 400v42q0 247 139.5 393.5t386.5 146.5q104 0 204.5 -29.5t152.5 -82.5l-109 -133q-40 39 -116.5 64.5t-131.5 25.5q-155 0 -241 -106t-87 -279v-42
q1 -165 86.5 -274.5t241.5 -109.5zM656 1483v-201h-218v201h218z" />
    <glyph glyph-name="Ccaron" unicode="&#x10c;" horiz-adv-x="1297" 
d="M696 133q104 0 204 34t152 88l97 -138q-71 -66 -197.5 -102t-255.5 -36q-261 0 -419.5 161.5t-158.5 457.5v259q0 304 157 462t421 158q280 0 450 -132l-112 -130q-55 44 -155.5 75.5t-182.5 31.5q-188 0 -284.5 -117t-96.5 -346v-261q0 -213 100.5 -339t280.5 -126z
M530 1886l147 -148l147 148h170v-18l-257 -245h-119l-254 243v20h166z" />
    <glyph glyph-name="ccaron" unicode="&#x10d;" horiz-adv-x="1072" 
d="M623 136q59 0 133 20.5t116 62.5l106 -132q-52 -51 -152.5 -79.5t-202.5 -28.5q-245 0 -385.5 141t-140.5 400v42q0 247 139.5 393.5t386.5 146.5q104 0 204.5 -29.5t152.5 -82.5l-109 -133q-40 39 -116.5 64.5t-131.5 25.5q-155 0 -241 -106t-87 -279v-42
q1 -165 86.5 -274.5t241.5 -109.5zM399 1543l147 -148l147 148h170v-18l-257 -245h-119l-254 243v20h166z" />
    <glyph glyph-name="Dcaron" unicode="&#x10e;" horiz-adv-x="1387" 
d="M628 0h-458v1456h458q286 0 458 -141q174 -139 174 -488v-199q0 -353 -174 -491q-173 -137 -458 -137zM628 1301h-261v-1147h261q202 0 318 90q117 92 117 384v201q0 259 -117 365q-116 107 -318 107zM463 1865l147 -148l147 148h170v-18l-257 -245h-119l-254 243v20h166
z" />
    <glyph glyph-name="dcaron" unicode="&#x10f;" 
d="M98 500v21q0 261 111 421q112 160 313 160q95 0 170 -36q73 -34 124 -71v565h197v-1560h-151l-27 118q-57 -48 -133 -92q-80 -47 -182 -47q-197 0 -310 143q-112 143 -112 378zM295 521v-21q0 -165 67 -263q68 -98 188 -98q76 4 149 40q71 35 117 72v587q-34 28 -105 66
t-139 38q-142 0 -210 -117q-67 -116 -67 -304zM1309 1560v-140l-122 -237h-97l61 246v131h158z" />
    <glyph glyph-name="Dcroat" unicode="&#x110;" horiz-adv-x="1387" 
d="M628 0h-458v663h-168v155h168v638h458q285 0 458 -176q174 -176 174 -453v-199q0 -278 -174 -454q-172 -174 -458 -174zM643 818v-155h-276v-509h261q203 0 318 133q117 133 117 341v201q0 205 -117 339q-115 133 -318 133h-261v-483h276z" />
    <glyph glyph-name="dcroat" unicode="&#x111;" 
d="M1210 1386v-155h-197v-1231h-151l-30 137q-108 -158 -312 -158q-197 0 -310 143q-112 143 -112 378v21q0 261 111 421q112 160 313 160q188 0 294 -137v266h-247v155h247v174h197v-174h197zM295 521v-21q0 -165 67 -263q68 -98 208 -98q165 0 246 152v505
q-84 146 -244 146q-142 0 -210 -117q-67 -116 -67 -304z" />
    <glyph glyph-name="Emacron" unicode="&#x112;" horiz-adv-x="1130" 
d="M965 830v-155h-598v-521h669v-154h-866v1456h855v-155h-658v-471h598zM985 1786v-146h-721v146h721z" />
    <glyph glyph-name="emacron" unicode="&#x113;" horiz-adv-x="1072" 
d="M591 -21q-233 0 -364 149q-130 148 -130 392v44q0 264 129 400q129 138 334 138q232 0 333 -135q101 -136 101 -359v-98h-695v-11q0 -163 72 -265q72 -101 220 -101q116 0 193 16q81 17 177 69l44 -157q-55 -30 -166 -56q-116 -26 -248 -26zM560 947q-103 0 -171 -80
q-67 -79 -82 -203v-5h490v16q0 119 -58 195q-59 77 -179 77zM905 1465v-146h-721v146h721z" />
    <glyph glyph-name="Ebreve" unicode="&#x114;" horiz-adv-x="1130" 
d="M965 830v-155h-598v-521h669v-154h-866v1456h855v-155h-658v-471h598zM762 1870h151l2 -6q4 -115 -77 -189q-80 -73 -218 -73q-139 0 -219 73q-81 73 -76 189l2 6h151q0 -69 35 -108.5t107 -39.5q70 0 106 40t36 108z" />
    <glyph glyph-name="ebreve" unicode="&#x115;" horiz-adv-x="1072" 
d="M591 -21q-233 0 -364 149q-130 148 -130 392v44q0 264 129 400q129 138 334 138q232 0 333 -135q101 -136 101 -359v-98h-695v-11q0 -163 72 -265q72 -101 220 -101q116 0 193 16q81 17 177 69l44 -157q-55 -30 -166 -56q-116 -26 -248 -26zM560 947q-103 0 -171 -80
q-67 -79 -82 -203v-5h490v16q0 119 -58 195q-59 77 -179 77zM682 1549h151l2 -6q4 -115 -77 -189q-80 -73 -218 -73q-139 0 -219 73q-81 73 -76 189l2 6h151q0 -69 35 -108.5t107 -39.5q70 0 106 40t36 108z" />
    <glyph glyph-name="Edotaccent" unicode="&#x116;" horiz-adv-x="1130" 
d="M965 830v-155h-598v-521h669v-154h-866v1456h855v-155h-658v-471h598zM728 1805v-201h-218v201h218z" />
    <glyph glyph-name="edotaccent" unicode="&#x117;" horiz-adv-x="1072" 
d="M591 -21q-233 0 -364 149q-130 148 -130 392v44q0 264 129 400q129 138 334 138q232 0 333 -135q101 -136 101 -359v-98h-695v-11q0 -163 72 -265q72 -101 220 -101q116 0 193 16q81 17 177 69l44 -157q-55 -30 -166 -56q-116 -26 -248 -26zM560 947q-103 0 -171 -80
q-67 -79 -82 -203v-5h490v16q0 119 -58 195q-59 77 -179 77zM648 1484v-201h-218v201h218z" />
    <glyph glyph-name="Eogonek" unicode="&#x118;" horiz-adv-x="1130" 
d="M965 830v-155h-598v-521h669v-154h-866v1456h855v-155h-658v-471h598zM613 57l72 -57q-75 -56 -112 -103t-37 -98q0 -90 96 -90q38 0 99 26l33 -123q-84 -44 -183 -44q-95 0 -156 55q-60 56 -60 154q0 170 248 280z" />
    <glyph glyph-name="eogonek" unicode="&#x119;" horiz-adv-x="1072" 
d="M591 -21q-233 0 -364 149q-130 148 -130 392v44q0 264 129 400q129 138 334 138q232 0 333 -135q101 -136 101 -359v-98h-695v-11q0 -163 72 -265q72 -101 220 -101q116 0 193 16q81 17 177 69l44 -157q-55 -30 -166 -56q-116 -26 -248 -26zM560 947q-103 0 -171 -80
q-67 -79 -82 -203v-5h490v16q0 119 -58 195q-59 77 -179 77zM812 117l72 -57q-75 -56 -112 -103t-37 -98q0 -90 96 -90q38 0 99 26l33 -123q-84 -44 -183 -44q-95 0 -156 55q-60 55 -60 154q0 170 248 280z" />
    <glyph glyph-name="Ecaron" unicode="&#x11a;" horiz-adv-x="1130" 
d="M965 830v-155h-598v-521h669v-154h-866v1456h855v-155h-658v-471h598zM471 1865l147 -148l147 148h170v-18l-257 -245h-119l-254 243v20h166z" />
    <glyph glyph-name="ecaron" unicode="&#x11b;" horiz-adv-x="1072" 
d="M591 -21q-233 0 -364 149q-130 148 -130 392v44q0 264 129 400q129 138 334 138q232 0 333 -135q101 -136 101 -359v-98h-695v-11q0 -163 72 -265q72 -101 220 -101q116 0 193 16q81 17 177 69l44 -157q-55 -30 -166 -56q-116 -26 -248 -26zM560 947q-103 0 -171 -80
q-67 -79 -82 -203v-5h490v16q0 119 -58 195q-59 77 -179 77zM391 1544l147 -148l147 148h170v-18l-257 -245h-119l-254 243v20h166z" />
    <glyph glyph-name="Gcircumflex" unicode="&#x11c;" horiz-adv-x="1387" 
d="M690 727h527v-532q-87 -113 -211.5 -164.5t-302.5 -51.5q-272 0 -431.5 158.5t-150.5 439.5v301q0 598 569 598q290 0 450 -125l-42 -180q-145 145 -408 145q-204 0 -287.5 -103.5t-83.5 -333.5v-302q-5 -208 94 -326t290 -118q226 0 317 113v327h-330v154zM729 1885
l248 -238v-25h-161l-147 148l-146 -148h-160v26l246 237h120z" />
    <glyph glyph-name="gcircumflex" unicode="&#x11d;" 
d="M807 713q0 223 -264 223q-276 0 -276 -223q4 -227 278 -227q130 0 196 54.5t66 172.5zM1073 1080v-154l-159 5q83 -69 83 -218q-1 -123 -62 -210t-160.5 -128t-229.5 -41q-40 0 -64 -0.5t-57.5 -3t-53 -8.5t-39 -15.5t-28.5 -25t-9 -36.5q0 -58 52.5 -73.5t232.5 -15.5
q153 0 245 -12t148.5 -45t76 -83.5t19.5 -134.5q0 -74 -42 -129t-115.5 -86t-161 -46t-188.5 -15q-255 0 -369.5 68t-114.5 228q0 87 51.5 132t145.5 45q-83 16 -113 49t-30 118q0 65 41.5 107t119.5 43q-110 47 -160 122.5t-55 195.5q1 100 37 175t101 118.5t146.5 64.5
t181.5 21q107 0 182 -16zM571 -1q-172 0 -239 -21.5t-67 -80.5q0 -72 64 -102t236 -30q321 0 321 122q0 34 -8 51.5t-39.5 33.5t-95 21.5t-172.5 5.5zM627 1542l248 -238v-25h-161l-147 148l-146 -148h-160v26l246 237h120z" />
    <glyph glyph-name="Gbreve" unicode="&#x11e;" horiz-adv-x="1387" 
d="M690 727h527v-532q-87 -113 -211.5 -164.5t-302.5 -51.5q-272 0 -431.5 158.5t-150.5 439.5v301q0 598 569 598q290 0 450 -125l-42 -180q-145 145 -408 145q-204 0 -287.5 -103.5t-83.5 -333.5v-302q-5 -208 94 -326t290 -118q226 0 317 113v327h-330v154zM812 1891h151
l2 -6q4 -115 -77 -189q-80 -73 -218 -73q-139 0 -219 73q-81 73 -76 189l2 6h151q0 -69 35 -108.5t107 -39.5q70 0 106 40t36 108z" />
    <glyph glyph-name="gbreve" unicode="&#x11f;" 
d="M807 713q0 223 -264 223q-276 0 -276 -223q4 -227 278 -227q130 0 196 54.5t66 172.5zM1073 1080v-154l-159 5q83 -69 83 -218q-1 -123 -62 -210t-160.5 -128t-229.5 -41q-40 0 -64 -0.5t-57.5 -3t-53 -8.5t-39 -15.5t-28.5 -25t-9 -36.5q0 -58 52.5 -73.5t232.5 -15.5
q153 0 245 -12t148.5 -45t76 -83.5t19.5 -134.5q0 -74 -42 -129t-115.5 -86t-161 -46t-188.5 -15q-255 0 -369.5 68t-114.5 228q0 87 51.5 132t145.5 45q-83 16 -113 49t-30 118q0 65 41.5 107t119.5 43q-110 47 -160 122.5t-55 195.5q1 100 37 175t101 118.5t146.5 64.5
t181.5 21q107 0 182 -16zM571 -1q-172 0 -239 -21.5t-67 -80.5q0 -72 64 -102t236 -30q321 0 321 122q0 34 -8 51.5t-39.5 33.5t-95 21.5t-172.5 5.5zM710 1548h151l2 -6q4 -115 -77 -189q-80 -73 -218 -73q-139 0 -219 73q-81 73 -76 189l2 6h151q0 -69 35 -108.5
t107 -39.5q70 0 106 40t36 108z" />
    <glyph glyph-name="uni0120" unicode="&#x120;" horiz-adv-x="1387" 
d="M690 727h527v-532q-87 -113 -211.5 -164.5t-302.5 -51.5q-272 0 -431.5 158.5t-150.5 439.5v301q0 598 569 598q290 0 450 -125l-42 -180q-145 145 -408 145q-204 0 -287.5 -103.5t-83.5 -333.5v-302q-5 -208 94 -326t290 -118q226 0 317 113v327h-330v154zM778 1826
v-201h-218v201h218z" />
    <glyph glyph-name="uni0121" unicode="&#x121;" 
d="M807 713q0 223 -264 223q-276 0 -276 -223q4 -227 278 -227q130 0 196 54.5t66 172.5zM1073 1080v-154l-159 5q83 -69 83 -218q-1 -123 -62 -210t-160.5 -128t-229.5 -41q-40 0 -64 -0.5t-57.5 -3t-53 -8.5t-39 -15.5t-28.5 -25t-9 -36.5q0 -58 52.5 -73.5t232.5 -15.5
q153 0 245 -12t148.5 -45t76 -83.5t19.5 -134.5q0 -74 -42 -129t-115.5 -86t-161 -46t-188.5 -15q-255 0 -369.5 68t-114.5 228q0 87 51.5 132t145.5 45q-83 16 -113 49t-30 118q0 65 41.5 107t119.5 43q-110 47 -160 122.5t-55 195.5q1 100 37 175t101 118.5t146.5 64.5
t181.5 21q107 0 182 -16zM571 -1q-172 0 -239 -21.5t-67 -80.5q0 -72 64 -102t236 -30q321 0 321 122q0 34 -8 51.5t-39.5 33.5t-95 21.5t-172.5 5.5zM676 1483v-201h-218v201h218z" />
    <glyph glyph-name="Gcommaaccent" unicode="&#x122;" horiz-adv-x="1387" 
d="M690 727h527v-532q-87 -113 -211.5 -164.5t-302.5 -51.5q-272 0 -431.5 158.5t-150.5 439.5v301q0 598 569 598q290 0 450 -125l-42 -180q-145 145 -408 145q-204 0 -287.5 -103.5t-83.5 -333.5v-302q-5 -208 94 -326t290 -118q226 0 317 113v327h-330v154zM741 -258v140
h-158v-131l-61 -246h97z" />
    <glyph glyph-name="gcommaaccent" unicode="&#x123;" 
d="M807 713q0 223 -264 223q-276 0 -276 -223q4 -227 278 -227q130 0 196 54.5t66 172.5zM1073 1080v-154l-159 5q83 -69 83 -218q-1 -123 -62 -210t-160.5 -128t-229.5 -41q-40 0 -64 -0.5t-57.5 -3t-53 -8.5t-39 -15.5t-28.5 -25t-9 -36.5q0 -58 52.5 -73.5t232.5 -15.5
q153 0 245 -12t148.5 -45t76 -83.5t19.5 -134.5q0 -74 -42 -129t-115.5 -86t-161 -46t-188.5 -15q-255 0 -369.5 68t-114.5 228q0 87 51.5 132t145.5 45q-83 16 -113 49t-30 118q0 65 41.5 107t119.5 43q-110 47 -160 122.5t-55 195.5q1 100 37 175t101 118.5t146.5 64.5
t181.5 21q107 0 182 -16zM571 -1q-172 0 -239 -21.5t-67 -80.5q0 -72 64 -102t236 -30q321 0 321 122q0 34 -8 51.5t-39.5 33.5t-95 21.5t-172.5 5.5zM462 1253v148l121 247h97l-21 -257v-138h-197z" />
    <glyph glyph-name="Hcircumflex" unicode="&#x124;" horiz-adv-x="1441" 
d="M1271 1456v-1456h-197v643h-707v-643h-197v1456h197v-658h707v658h197zM772 1864l248 -238v-25h-161l-147 148l-146 -148h-160v26l246 237h120z" />
    <glyph glyph-name="hcircumflex" unicode="&#x125;" 
d="M340 1560v-583q52 48 135 86q84 39 183 39q177 0 271.5 -106t94.5 -318v-678h-197v680q0 262 -229 262q-88 0 -153 -35t-105 -60v-847h-197v1560h197zM569 1863l248 -238v-25h-161l-147 148l-146 -148h-160v26l246 237h120z" />
    <glyph glyph-name="Hbar" unicode="&#x126;" horiz-adv-x="1439" 
d="M1279 1456v-287h144v-145h-144v-1024h-197v643h-707v-643h-197v1024h-147v145h147v287h197v-287h707v287h197zM375 1024v-226h707v226h-707z" />
    <glyph glyph-name="hbar" unicode="&#x127;" 
d="M613 1386v-155h-273v-294q57 79 138.5 122t179.5 43q177 0 271.5 -106t94.5 -318v-678h-197v680q0 262 -229 262q-174 0 -258 -131v-811h-197v1231h-171v155h171v174h197v-174h273z" />
    <glyph glyph-name="Itilde" unicode="&#x128;" horiz-adv-x="579" 
d="M388 1456v-1456h-198v1456h198zM529 1876l108 -32q0 -94 -60 -159q-59 -65 -149 -65q-72 0 -148 46q-77 47 -128 47q-42 0 -71.5 -32.5t-29.5 -78.5l-108 26q0 93 59 161q58 69 150 69q55 0 140 -47t136 -47q42 0 71.5 32.5t29.5 79.5z" />
    <glyph glyph-name="itilde" unicode="&#x129;" horiz-adv-x="515" 
d="M350 1082v-1082h-197v1082h197zM492 1533l108 -32q0 -95 -60 -159q-59 -65 -149 -65q-72 0 -148 46q-77 47 -128 47q-42 0 -71.5 -32.5t-29.5 -78.5l-108 26q0 93 59 161q59 69 150 69q55 0 140 -47t136 -47q42 0 71.5 32.5t29.5 79.5z" />
    <glyph glyph-name="Imacron" unicode="&#x12a;" horiz-adv-x="579" 
d="M388 1456v-1456h-198v1456h198zM656 1786v-146h-721v146h721z" />
    <glyph glyph-name="imacron" unicode="&#x12b;" horiz-adv-x="515" 
d="M350 1082v-1082h-197v1082h197zM619 1444v-146h-721v146h721z" />
    <glyph glyph-name="Ibreve" unicode="&#x12c;" horiz-adv-x="579" 
d="M388 1456v-1456h-198v1456h198zM433 1870h151l2 -6q4 -115 -77 -189q-80 -73 -218 -73q-139 0 -219 73q-81 73 -76 189l2 6h151q0 -69 35 -108.5t107 -39.5q70 0 106 40t36 108z" />
    <glyph glyph-name="ibreve" unicode="&#x12d;" horiz-adv-x="515" 
d="M350 1082v-1082h-197v1082h197zM396 1527h151l2 -6q4 -115 -77 -189q-80 -73 -218 -73q-139 0 -219 73q-81 73 -76 189l2 6h151q0 -69 35 -108.5t107 -39.5q70 0 106 40t36 108z" />
    <glyph glyph-name="Iogonek" unicode="&#x12e;" horiz-adv-x="579" 
d="M388 1456v-1456h-198v1456h198zM293 57l72 -57q-75 -56 -112 -103t-37 -98q0 -90 96 -90q38 0 99 26l33 -123q-84 -44 -183 -44q-95 0 -156 55q-60 56 -60 154q0 170 248 280z" />
    <glyph glyph-name="iogonek" unicode="&#x12f;" horiz-adv-x="516" 
d="M356 1082v-1082h-197v1082h197zM356 1560v-236h-197v236h197zM261 57l72 -57q-75 -56 -112 -103t-37 -98q0 -90 96 -90q38 0 99 26l33 -123q-84 -44 -183 -44q-95 0 -156 55q-60 56 -60 154q0 170 248 280z" />
    <glyph glyph-name="Idotaccent" unicode="&#x130;" horiz-adv-x="579" 
d="M388 1456v-1456h-198v1456h198zM398 1805v-201h-218v201h218z" />
    <glyph glyph-name="dotlessi" unicode="&#x131;" horiz-adv-x="515" 
d="M350 1082v-1082h-197v1082h197z" />
    <glyph glyph-name="IJ" unicode="&#x132;" horiz-adv-x="1702" 
d="M388 1456v-1456h-198v1456h198zM1338 1456h197v-1034q0 -215 -118 -329t-326 -114q-103 0 -209 29.5t-171 90.5l89 149q47 -51 125.5 -83t165.5 -32q115 0 183 84t64 205v1034z" />
    <glyph glyph-name="ij" unicode="&#x133;" horiz-adv-x="1046" 
d="M356 1082v-1082h-197v1082h197zM356 1560v-236h-197v236h197zM689 1082h197v-1171q0 -166 -85.5 -257t-239.5 -90q-81 0 -103 2v157q27 1 89 1q142 0 142 187v1171zM886 1560v-236h-197v236h197z" />
    <glyph glyph-name="Jcircumflex" unicode="&#x134;" horiz-adv-x="1123" 
d="M759 1456h197v-1034q0 -215 -118 -329t-326 -114q-103 0 -209 29.5t-171 90.5l89 149q47 -51 125.5 -83t165.5 -32q115 0 183 84t64 205v1034zM909 1852l248 -238v-25h-161l-147 148l-146 -148h-160v26l246 237h120z" />
    <glyph glyph-name="jcircumflex" unicode="&#x135;" horiz-adv-x="523" 
d="M171 1082h197v-1171q0 -166 -85.5 -257t-239.5 -91q-53 0 -111 18l14 150q13 -4 47 -9q28 -4 50 -4q59 0 93.5 51.5t34.5 141.5v1171zM331 1502l248 -238v-25h-161l-147 148l-146 -148h-160v26l246 237h120z" />
    <glyph glyph-name="Kcommaaccent" unicode="&#x136;" horiz-adv-x="1302" 
d="M495 658l-128 9v-667h-197v1456h197v-652l108 8l543 644h214v-23l-583 -671l625 -742v-20h-234zM696 -101v-140l-122 -237h-97l61 246v131h158z" />
    <glyph glyph-name="kcommaaccent" unicode="&#x137;" horiz-adv-x="1050" 
d="M1029 0h-227l-360 499l-101 13v-512h-197v1560h197v-916l99 12l325 426h231v-13l-388 -486l421 -566v-17zM607 -99v-140l-122 -237h-97l61 246v131h158z" />
    <glyph glyph-name="kgreenlandic" unicode="&#x138;" horiz-adv-x="1144" 
d="M845 0l-394 459l-101 17v-476h-197v1082h197v-474l84 17l388 457h231l2 -5l-450 -514l483 -558l-2 -5h-241z" />
    <glyph glyph-name="Lacute" unicode="&#x139;" horiz-adv-x="1126" 
d="M367 1456v-1302h710v-154h-907v1456h197zM176 1534l185 266h230l2 -6l-269 -260h-148z" />
    <glyph glyph-name="lacute" unicode="&#x13a;" horiz-adv-x="516" 
d="M356 1560v-1560h-197v1560h197zM168 1609l185 266h230l2 -6l-269 -260h-148z" />
    <glyph glyph-name="Lcommaaccent" unicode="&#x13b;" horiz-adv-x="1126" 
d="M367 1456v-1302h710v-154h-907v1456h197zM690 -99v-140l-122 -237h-97l61 246v131h158z" />
    <glyph glyph-name="lcommaaccent" unicode="&#x13c;" horiz-adv-x="516" 
d="M356 1560v-1560h-197v1560h197zM329 -99v-140l-122 -237h-97l61 246v131h158z" />
    <glyph glyph-name="Lcaron" unicode="&#x13d;" horiz-adv-x="1126" 
d="M367 1456v-1302h710v-154h-907v1456h197zM792 1457v-140l-122 -237h-97l61 246v131h158z" />
    <glyph glyph-name="lcaron" unicode="&#x13e;" horiz-adv-x="516" 
d="M356 1560v-1560h-197v1560h197zM685 1560v-140l-122 -237h-97l61 246v131h158z" />
    <glyph glyph-name="Ldot" unicode="&#x13f;" horiz-adv-x="1126" 
d="M367 1456v-1302h710v-154h-907v1456h197zM822 888v-201h-218v201h218z" />
    <glyph glyph-name="ldot" unicode="&#x140;" horiz-adv-x="516" 
d="M356 1560v-1560h-197v1560h197zM617 871v-201h-218v201h218z" />
    <glyph glyph-name="Lslash" unicode="&#x141;" horiz-adv-x="1077" 
d="M360 1456v-613l269 86v-166l-269 -86v-523h710v-154h-907v615l-123 -39v166l123 39v675h197z" />
    <glyph glyph-name="lslash" unicode="&#x142;" horiz-adv-x="558" 
d="M376 1560v-688l150 58v-165l-150 -58v-707h-197v632l-142 -54v165l142 54v763h197z" />
    <glyph glyph-name="Nacute" unicode="&#x143;" horiz-adv-x="1442" 
d="M1271 1456v-1456h-197l-701 1112l-6 -2v-1110h-197v1456h197l701 -1111l6 2v1109h197zM629 1597l185 266h230l2 -6l-269 -260h-148z" />
    <glyph glyph-name="nacute" unicode="&#x144;" 
d="M143 1082h176l11 -138q58 64 138 110q82 48 186 48q178 0 272.5 -104.5t94.5 -314.5v-683h-197v679q0 141 -55.5 202t-173.5 61q-91 0 -155 -37q-61 -35 -100 -80v-825h-197v1082zM488 1275l185 266h230l2 -6l-269 -260h-148z" />
    <glyph glyph-name="Ncommaaccent" unicode="&#x145;" horiz-adv-x="1442" 
d="M1271 1456v-1456h-197l-701 1112l-6 -2v-1110h-197v1456h197l701 -1111l6 2v1109h197zM790 -99v-140l-122 -237h-97l61 246v131h158z" />
    <glyph glyph-name="ncommaaccent" unicode="&#x146;" 
d="M143 1082h176l11 -138q58 64 138 110q82 48 186 48q178 0 272.5 -104.5t94.5 -314.5v-683h-197v679q0 141 -55.5 202t-173.5 61q-91 0 -155 -37q-61 -35 -100 -80v-825h-197v1082zM649 -99v-140l-122 -237h-97l61 246v131h158z" />
    <glyph glyph-name="Ncaron" unicode="&#x147;" horiz-adv-x="1442" 
d="M1271 1456v-1456h-197l-701 1112l-6 -2v-1110h-197v1456h197l701 -1111l6 2v1109h197zM571 1865l147 -148l147 148h170v-18l-257 -245h-119l-254 243v20h166z" />
    <glyph glyph-name="ncaron" unicode="&#x148;" 
d="M143 1082h176l11 -138q58 64 138 110q82 48 186 48q178 0 272.5 -104.5t94.5 -314.5v-683h-197v679q0 141 -55.5 202t-173.5 61q-91 0 -155 -37q-61 -35 -100 -80v-825h-197v1082zM430 1543l147 -148l147 148h170v-18l-257 -245h-119l-254 243v20h166z" />
    <glyph glyph-name="napostrophe" unicode="&#x149;" 
d="M143 1082h176l11 -138q58 64 138 110q82 48 186 48q178 0 272.5 -104.5t94.5 -314.5v-683h-197v679q0 141 -55.5 202t-173.5 61q-91 0 -155 -37q-61 -35 -100 -80v-825h-197v1082zM186 1560v-140l-122 -237h-97l61 246v131h158z" />
    <glyph glyph-name="Eng" unicode="&#x14a;" horiz-adv-x="1416" 
d="M1065 1456h197v-1545q0 -166 -86 -257t-240 -91q-54 0 -112 18l14 150q14 -5 47 -9q31 -4 51 -4q60 0 94.5 51.5t34.5 141.5v89l-701 1112l-6 -2v-1110h-197v1456h197l701 -1112l6 2v1110z" />
    <glyph glyph-name="eng" unicode="&#x14b;" 
d="M143 1082h176l13 -150q113 170 315 170q177 0 271.5 -104.5t94.5 -314.5v-772q0 -166 -86 -257t-240 -91q-57 0 -112 18l14 160q16 -5 46 -8q31 -4 52 -4q61 0 95 47.5t34 134.5v768q0 141 -55.5 202t-174.5 61q-165 0 -246 -125v-817h-197v1082z" />
    <glyph glyph-name="Omacron" unicode="&#x14c;" horiz-adv-x="1396" 
d="M1282 857v-259q0 -312 -151.5 -465.5t-443.5 -153.5q-270 0 -422 151q-152 152 -152 468v259q0 323 149 472q149 148 425 148q286 0 440 -148q155 -149 155 -472zM1085 598v261q0 261 -108 358q-109 98 -290 95q-171 3 -275 -95q-102 -97 -102 -358v-261q0 -244 102 -351
q104 -107 275 -107q183 0 290 107q108 107 108 351zM1064 1807v-146h-721v146h721z" />
    <glyph glyph-name="omacron" unicode="&#x14d;" 
d="M97 529v22q0 241 130 395q131 156 353 156q224 0 355 -155t131 -396v-22q0 -242 -130 -396t-354 -154q-225 0 -355 154t-130 396zM294 551v-22q0 -171 72 -284q73 -112 216 -112q141 0 214 112t73 284v22q0 170 -74 283t-215 113q-140 0 -214 -113q-72 -112 -72 -283z
M948 1464v-146h-721v146h721z" />
    <glyph glyph-name="Obreve" unicode="&#x14e;" horiz-adv-x="1396" 
d="M1282 857v-259q0 -312 -151.5 -465.5t-443.5 -153.5q-270 0 -422 151q-152 152 -152 468v259q0 323 149 472q149 148 425 148q286 0 440 -148q155 -149 155 -472zM1085 598v261q0 261 -108 358q-109 98 -290 95q-171 3 -275 -95q-102 -97 -102 -358v-261q0 -244 102 -351
q104 -107 275 -107q183 0 290 107q108 107 108 351zM841 1891h151l2 -6q4 -115 -77 -189q-80 -73 -218 -73q-139 0 -219 73q-81 73 -76 189l2 6h151q0 -69 35 -108.5t107 -39.5q70 0 106 40t36 108z" />
    <glyph glyph-name="obreve" unicode="&#x14f;" 
d="M97 529v22q0 241 130 395q131 156 353 156q224 0 355 -155t131 -396v-22q0 -242 -130 -396t-354 -154q-225 0 -355 154t-130 396zM294 551v-22q0 -171 72 -284q73 -112 216 -112q141 0 214 112t73 284v22q0 170 -74 283t-215 113q-140 0 -214 -113q-72 -112 -72 -283z
M725 1548h151l2 -6q4 -115 -77 -189q-80 -73 -218 -73q-139 0 -219 73q-81 73 -76 189l2 6h151q0 -69 35 -108.5t107 -39.5q70 0 106 40t36 108z" />
    <glyph glyph-name="Ohungarumlaut" unicode="&#x150;" horiz-adv-x="1396" 
d="M1282 857v-259q0 -312 -151.5 -465.5t-443.5 -153.5q-270 0 -422 151q-152 152 -152 468v259q0 323 149 472q149 148 425 148q286 0 440 -148q155 -149 155 -472zM1085 598v261q0 261 -108 358q-109 98 -290 95q-171 3 -275 -95q-102 -97 -102 -358v-261q0 -244 102 -351
q104 -107 275 -107q183 0 290 107q108 107 108 351zM731 1627l241 261h229l3 -6l-300 -260h-171zM462 1622l184 266h211l2 -5l-240 -261h-157z" />
    <glyph glyph-name="ohungarumlaut" unicode="&#x151;" 
d="M97 529v22q0 241 130 395q131 156 353 156q224 0 355 -155t131 -396v-22q0 -242 -130 -396t-354 -154q-225 0 -355 154t-130 396zM294 551v-22q0 -171 72 -284q73 -112 216 -112q141 0 214 112t73 284v22q0 170 -74 283t-215 113q-140 0 -214 -113q-72 -112 -72 -283z
M615 1284l241 261h229l3 -6l-300 -260h-171zM346 1279l184 266h211l2 -5l-240 -261h-157z" />
    <glyph glyph-name="OE" unicode="&#x152;" horiz-adv-x="1960" 
d="M1802 154v-154h-849q-90 -10 -157 -15q-64 -6 -132 -6q-249 0 -405 166q-155 167 -155 431v304q0 265 154 431t404 166q107 0 291 -21h838v-155h-689v-471h598v-155h-598v-521h700zM664 134q126 0 241 18v1151q-140 19 -243 19q-169 0 -265 -114q-96 -112 -96 -326v-306
q0 -215 97 -328q98 -114 266 -114z" />
    <glyph glyph-name="oe" unicode="&#x153;" horiz-adv-x="1854" 
d="M1371 -21q-271 0 -402 198q-65 -95 -164 -146.5t-223 -51.5q-225 0 -355 154t-130 396v22q0 241 130 395q131 156 353 156q126 0 226.5 -53.5t165.5 -150.5q64 96 160.5 150t207.5 54q217 0 325 -135q109 -134 109 -359v-104h-692l-3 -5q0 -163 72 -265q72 -101 220 -101
q190 0 305 107l77 -128q-137 -133 -382 -133zM294 551v-22q0 -171 72 -284q73 -112 216 -112q141 0 214 112t73 284v22q0 170 -74 283t-215 113q-140 0 -214 -113q-72 -112 -72 -283zM1340 947q-103 0 -171 -80q-67 -79 -82 -203l2 -5h488v16q0 119 -58 195q-59 77 -179 77z
" />
    <glyph glyph-name="Racute" unicode="&#x154;" horiz-adv-x="1303" 
d="M1220 1020q0 -151 -82.5 -261t-235.5 -155l280 -547v-57h-212l-275 584h-327v-584h-197v1456h557q216 5 354 -113t138 -323zM368 1301v-563h360q135 -4 214.5 73t79.5 207q0 129 -80 208t-214 75h-360zM520 1597l185 266h230l2 -6l-269 -260h-148z" />
    <glyph glyph-name="racute" unicode="&#x155;" horiz-adv-x="717" 
d="M682 1091l-27 -183q-140 6 -209 -15q-70 -22 -106 -42v-851h-197v1082h176l13 -132q54 60 119 105q68 47 156 47q38 0 75 -11zM323 1275l185 266h230l2 -6l-269 -260h-148z" />
    <glyph glyph-name="Rcommaaccent" unicode="&#x156;" horiz-adv-x="1303" 
d="M1220 1020q0 -151 -82.5 -261t-235.5 -155l280 -547v-57h-212l-275 584h-327v-584h-197v1456h557q216 5 354 -113t138 -323zM368 1301v-563h360q135 -4 214.5 73t79.5 207q0 129 -80 208t-214 75h-360zM681 -239v140h-158v-131l-61 -246h97z" />
    <glyph glyph-name="rcommaaccent" unicode="&#x157;" horiz-adv-x="717" 
d="M682 1091l-27 -183q-140 6 -209 -15q-70 -22 -106 -42v-851h-197v1082h176l13 -132q54 60 119 105q68 47 156 47q38 0 75 -11zM326 -99v-140l-122 -237h-97l61 246v131h158z" />
    <glyph glyph-name="Rcaron" unicode="&#x158;" horiz-adv-x="1303" 
d="M1220 1020q0 -151 -82.5 -261t-235.5 -155l280 -547v-57h-212l-275 584h-327v-584h-197v1456h557q216 5 354 -113t138 -323zM368 1301v-563h360q135 -4 214.5 73t79.5 207q0 129 -80 208t-214 75h-360zM462 1865l147 -148l147 148h170v-18l-257 -245h-119l-254 243v20
h166z" />
    <glyph glyph-name="rcaron" unicode="&#x159;" horiz-adv-x="717" 
d="M682 1091l-27 -183q-140 6 -209 -15q-70 -22 -106 -42v-851h-197v1082h176l13 -132q54 60 119 105q68 47 156 47q38 0 75 -11zM266 1543l147 -148l147 148h170v-18l-257 -245h-119l-254 243v20h166z" />
    <glyph glyph-name="Sacute" unicode="&#x15a;" horiz-adv-x="1252" 
d="M689 811q230 -60 345 -163.5t115 -278.5q0 -83 -27.5 -149.5t-74.5 -111t-112 -74t-137.5 -42.5t-154.5 -13q-168 0 -289.5 26.5t-231.5 79.5l30 169q224 -117 491 -117q57 0 109 12t98.5 37.5t74 72t27.5 108.5q0 50 -21 91.5t-52 70t-78 52.5t-88 38.5t-92 27.5
q-227 56 -349 164t-122 267q0 96 39.5 173.5t106.5 126t153 74t183 25.5q123 0 239.5 -28.5t193.5 -86.5l-48 -173q-150 121 -385 121q-285 0 -285 -229q0 -49 23 -90t55 -67.5t83.5 -50t89 -36t91.5 -26.5zM535 1618l185 266h230l2 -6l-269 -260h-148z" />
    <glyph glyph-name="sacute" unicode="&#x15b;" horiz-adv-x="1071" 
d="M564 625q203 -43 304 -120.5t101 -199.5q0 -86 -34.5 -150.5t-94.5 -102t-133 -55.5t-159 -18q-118 0 -236 27t-186 73l53 154q89 -51 170.5 -75t198.5 -24q104 0 164 42.5t60 114.5q0 34 -15 61.5t-36.5 45t-56.5 32.5t-62.5 22.5t-66.5 16.5q-202 44 -299 115t-97 198
q0 79 34 141.5t91.5 100.5t128.5 58t150 20q119 0 218.5 -25t157.5 -72l-67 -143q-121 85 -309 85q-102 0 -154.5 -41.5t-52.5 -117.5q0 -31 15 -56.5t36 -42t54.5 -30t60 -20.5t62.5 -14zM445 1275l185 266h230l2 -6l-269 -260h-148z" />
    <glyph glyph-name="Scircumflex" unicode="&#x15c;" horiz-adv-x="1252" 
d="M689 811q230 -60 345 -163.5t115 -278.5q0 -83 -27.5 -149.5t-74.5 -111t-112 -74t-137.5 -42.5t-154.5 -13q-168 0 -289.5 26.5t-231.5 79.5l30 169q224 -117 491 -117q57 0 109 12t98.5 37.5t74 72t27.5 108.5q0 50 -21 91.5t-52 70t-78 52.5t-88 38.5t-92 27.5
q-227 56 -349 164t-122 267q0 96 39.5 173.5t106.5 126t153 74t183 25.5q123 0 239.5 -28.5t193.5 -86.5l-48 -173q-150 121 -385 121q-285 0 -285 -229q0 -49 23 -90t55 -67.5t83.5 -50t89 -36t91.5 -26.5zM685 1885l248 -238v-25h-161l-147 148l-146 -148h-160v26l246 237
h120z" />
    <glyph glyph-name="scircumflex" unicode="&#x15d;" horiz-adv-x="1071" 
d="M564 625q203 -43 304 -120.5t101 -199.5q0 -86 -34.5 -150.5t-94.5 -102t-133 -55.5t-159 -18q-118 0 -236 27t-186 73l53 154q89 -51 170.5 -75t198.5 -24q104 0 164 42.5t60 114.5q0 34 -15 61.5t-36.5 45t-56.5 32.5t-62.5 22.5t-66.5 16.5q-202 44 -299 115t-97 198
q0 79 34 141.5t91.5 100.5t128.5 58t150 20q119 0 218.5 -25t157.5 -72l-67 -143q-121 85 -309 85q-102 0 -154.5 -41.5t-52.5 -117.5q0 -31 15 -56.5t36 -42t54.5 -30t60 -20.5t62.5 -14zM595 1542l248 -238v-25h-161l-147 148l-146 -148h-160v26l246 237h120z" />
    <glyph glyph-name="Scedilla" unicode="&#x15e;" horiz-adv-x="1252" 
d="M1149 369q0 -96 -36 -169.5t-99.5 -118.5t-142.5 -70t-173 -30l-9 -41q151 -28 151 -173q0 -97 -80 -154t-225 -57l-7 110q74 0 117 25t43 72q0 48 -34.5 67t-124.5 26l29 125q-245 12 -436 104l30 170q226 -118 491 -118q57 0 109 12t98.5 37.5t74 72t27.5 108.5
q0 61 -29 109.5t-82.5 81.5t-103.5 52.5t-116 37.5q-227 55 -349 163t-122 267q0 96 39.5 173.5t106.5 126t153 74t183 25.5q123 0 239.5 -28.5t193.5 -85.5l-48 -174q-149 122 -385 122q-285 0 -285 -229q0 -41 14.5 -76t43.5 -61.5t59 -46.5t74 -37.5t75.5 -27.5t75.5 -22
q230 -60 345 -163.5t115 -278.5z" />
    <glyph glyph-name="scedilla" unicode="&#x15f;" horiz-adv-x="1071" 
d="M969 305q0 -78 -28.5 -138.5t-79.5 -98.5t-114 -59t-139 -27l-9 -42q151 -26 151 -173q0 -97 -80 -153.5t-225 -56.5l-7 109q74 0 117 25t43 73q0 47 -35 66.5t-124 26.5l29 126q-102 8 -194 33t-148 63l53 154q89 -51 170.5 -75t198.5 -24q104 0 164 42.5t60 114.5
q0 34 -15 61.5t-36.5 45t-56.5 32.5t-62.5 22.5t-66.5 16.5q-202 44 -299 115t-97 198q0 79 34 141.5t91.5 100.5t128.5 58t150 20q119 0 218.5 -25t157.5 -72l-67 -143q-121 85 -309 85q-102 0 -154.5 -41.5t-52.5 -117.5q0 -31 15 -56.5t36 -42t54.5 -30t60 -20.5
t62.5 -14q203 -43 304 -120.5t101 -199.5z" />
    <glyph glyph-name="Scaron" unicode="&#x160;" horiz-adv-x="1252" 
d="M689 811q230 -60 345 -163.5t115 -278.5q0 -83 -27.5 -149.5t-74.5 -111t-112 -74t-137.5 -42.5t-154.5 -13q-168 0 -289.5 26.5t-231.5 79.5l30 169q224 -117 491 -117q57 0 109 12t98.5 37.5t74 72t27.5 108.5q0 50 -21 91.5t-52 70t-78 52.5t-88 38.5t-92 27.5
q-227 56 -349 164t-122 267q0 96 39.5 173.5t106.5 126t153 74t183 25.5q123 0 239.5 -28.5t193.5 -86.5l-48 -173q-150 121 -385 121q-285 0 -285 -229q0 -49 23 -90t55 -67.5t83.5 -50t89 -36t91.5 -26.5zM477 1886l147 -148l147 148h170v-18l-257 -245h-119l-254 243v20
h166z" />
    <glyph glyph-name="scaron" unicode="&#x161;" horiz-adv-x="1071" 
d="M564 625q203 -43 304 -120.5t101 -199.5q0 -86 -34.5 -150.5t-94.5 -102t-133 -55.5t-159 -18q-118 0 -236 27t-186 73l53 154q89 -51 170.5 -75t198.5 -24q104 0 164 42.5t60 114.5q0 34 -15 61.5t-36.5 45t-56.5 32.5t-62.5 22.5t-66.5 16.5q-202 44 -299 115t-97 198
q0 79 34 141.5t91.5 100.5t128.5 58t150 20q119 0 218.5 -25t157.5 -72l-67 -143q-121 85 -309 85q-102 0 -154.5 -41.5t-52.5 -117.5q0 -31 15 -56.5t36 -42t54.5 -30t60 -20.5t62.5 -14zM387 1543l147 -148l147 148h170v-18l-257 -245h-119l-254 243v20h166z" />
    <glyph glyph-name="Tcommaaccent" unicode="&#x162;" horiz-adv-x="1225" 
d="M1188 1456v-155h-480v-1301h-197v1301h-474v155h1151zM684 -99v-140l-122 -237h-97l61 246v131h158z" />
    <glyph glyph-name="tcommaaccent" unicode="&#x163;" horiz-adv-x="690" 
d="M513 1293l197 50v-261h205v-146h-205v-657q0 -138 115 -138q35 0 73 14l27 -135q-22 -18 -65 -29.5t-85 -11.5q-124 0 -193 74.5t-69 225.5v1014zM541 -109v-140l-122 -237h-97l61 246v131h158z" />
    <glyph glyph-name="Tcaron" unicode="&#x164;" horiz-adv-x="1225" 
d="M1188 1456v-155h-480v-1301h-197v1301h-474v155h1151zM465 1864l147 -148l147 148h170v-18l-257 -245h-119l-254 243v20h166z" />
    <glyph glyph-name="tcaron" unicode="&#x165;" horiz-adv-x="690" 
d="M513 1293l197 50v-261h205v-146h-205v-657q0 -138 115 -138q35 0 73 14l27 -135q-22 -18 -65 -29.5t-85 -11.5q-124 0 -193 74.5t-69 225.5v1014zM777 1587v-140l-122 -237h-97l61 246v131h158z" />
    <glyph glyph-name="Tbar" unicode="&#x166;" horiz-adv-x="1225" 
d="M928 975v-155h-220v-820h-197v820h-224v155h224v326h-474v155h1151v-155h-480v-326h220z" />
    <glyph glyph-name="tbar" unicode="&#x167;" horiz-adv-x="690" 
d="M220 1343h197v-261h205v-146h-205v-181h230v-155h-230v-321q0 -138 115 -138q35 0 73 14l27 -135q-22 -18 -65 -29.5t-85 -11.5q-124 0 -193 74.5t-69 225.5v321h-214v155h214v181h-172v146h172v261z" />
    <glyph glyph-name="Utilde" unicode="&#x168;" horiz-adv-x="1386" 
d="M1047 1456h197v-967q0 -272 -143 -391t-415 -119t-405 121q-134 122 -134 389v967h197v-967q0 -203 95 -280q95 -76 247 -76q160 0 260 76q101 77 101 280v967zM936 1876l108 -32q0 -94 -60 -159q-59 -65 -149 -65q-72 0 -148 46q-77 47 -128 47q-42 0 -71.5 -32.5
t-29.5 -78.5l-108 26q0 93 59 161q59 69 150 69q55 0 140 -47t136 -47q42 0 71.5 32.5t29.5 79.5z" />
    <glyph glyph-name="utilde" unicode="&#x169;" 
d="M858 0l-25 135q-48 -48 -132 -103q-83 -53 -187 -53q-181 0 -278 115.5t-97 349.5v638h197v-640q0 -174 51 -238q51 -65 159 -65q105 0 167 44q66 46 110 81v818h197v-1082h-162zM819 1533l108 -32q0 -95 -60 -159q-59 -65 -149 -65q-72 0 -148 46q-77 47 -128 47
q-42 0 -71.5 -32.5t-29.5 -78.5l-108 26q0 93 59 161q58 69 150 69q55 0 140 -47t136 -47q42 0 71.5 32.5t29.5 79.5z" />
    <glyph glyph-name="Umacron" unicode="&#x16a;" horiz-adv-x="1386" 
d="M1047 1456h197v-967q0 -272 -143 -391t-415 -119t-405 121q-134 122 -134 389v967h197v-967q0 -203 95 -280q95 -76 247 -76q160 0 260 76q101 77 101 280v967zM1063 1786v-146h-721v146h721z" />
    <glyph glyph-name="umacron" unicode="&#x16b;" 
d="M858 0l-25 135q-48 -48 -132 -103q-83 -53 -187 -53q-181 0 -278 115.5t-97 349.5v638h197v-640q0 -174 51 -238q51 -65 159 -65q105 0 167 44q66 46 110 81v818h197v-1082h-162zM946 1444v-146h-721v146h721z" />
    <glyph glyph-name="Ubreve" unicode="&#x16c;" horiz-adv-x="1386" 
d="M1047 1456h197v-967q0 -272 -143 -391t-415 -119t-405 121q-134 122 -134 389v967h197v-967q0 -203 95 -280q95 -76 247 -76q160 0 260 76q101 77 101 280v967zM840 1870h151l2 -6q4 -115 -77 -189q-80 -73 -218 -73q-139 0 -219 73q-81 73 -76 189l2 6h151
q0 -69 35 -108.5t107 -39.5q70 0 106 40t36 108z" />
    <glyph glyph-name="ubreve" unicode="&#x16d;" 
d="M858 0l-25 135q-48 -48 -132 -103q-83 -53 -187 -53q-181 0 -278 115.5t-97 349.5v638h197v-640q0 -174 51 -238q51 -65 159 -65q105 0 167 44q66 46 110 81v818h197v-1082h-162zM723 1527h151l2 -6q4 -115 -77 -189q-80 -73 -218 -73q-139 0 -219 73q-81 73 -76 189l2 6
h151q0 -69 35 -108.5t107 -39.5q70 0 106 40t36 108z" />
    <glyph glyph-name="Uring" unicode="&#x16e;" horiz-adv-x="1386" 
d="M1047 1456h197v-967q0 -272 -143 -391t-415 -119t-405 121q-134 122 -134 389v967h197v-967q0 -203 95 -280q95 -76 247 -76q160 0 260 76q101 77 101 280v967zM520 1734q0 72 51 120q52 49 125 49t122 -49q51 -48 51 -120t-51 -119q-49 -45 -122 -45q-75 0 -125 46
q-51 46 -51 118zM620 1734q0 -31 22.5 -52.5t53.5 -21.5q30 0 51.5 21t21.5 53t-21.5 54.5t-51.5 22.5q-32 0 -54 -22.5t-22 -54.5z" />
    <glyph glyph-name="uring" unicode="&#x16f;" 
d="M858 0l-25 135q-48 -48 -132 -103q-83 -53 -187 -53q-181 0 -278 115.5t-97 349.5v638h197v-640q0 -174 51 -238q51 -65 159 -65q105 0 167 44q66 46 110 81v818h197v-1082h-162zM403 1391q0 72 51 120q52 49 125 49t122 -49q51 -48 51 -120q0 -73 -51 -119
q-49 -45 -122 -45q-75 0 -125 46q-51 47 -51 118zM503 1391q0 -31 22.5 -52.5t53.5 -21.5q30 0 51.5 21t21.5 53t-21.5 54.5t-51.5 22.5q-32 0 -54 -22.5t-22 -54.5z" />
    <glyph glyph-name="Uhungarumlaut" unicode="&#x170;" horiz-adv-x="1386" 
d="M1047 1456h197v-967q0 -272 -143 -391t-415 -119t-405 121q-134 122 -134 389v967h197v-967q0 -203 95 -280q95 -76 247 -76q160 0 260 76q101 77 101 280v967zM730 1606l241 261h229l3 -6l-300 -260h-171zM461 1601l184 266h211l2 -5l-240 -261h-157z" />
    <glyph glyph-name="uhungarumlaut" unicode="&#x171;" 
d="M858 0l-25 135q-48 -48 -132 -103q-83 -53 -187 -53q-181 0 -278 115.5t-97 349.5v638h197v-640q0 -174 51 -238q51 -65 159 -65q105 0 167 44q66 46 110 81v818h197v-1082h-162zM613 1263l241 261h229l3 -6l-300 -260h-171zM344 1258l184 266h211l2 -5l-240 -261h-157z
" />
    <glyph glyph-name="Uogonek" unicode="&#x172;" horiz-adv-x="1386" 
d="M1047 1456h197v-967q0 -272 -143 -391t-415 -119t-405 121q-134 122 -134 389v967h197v-967q0 -203 95 -280q95 -76 247 -76q160 0 260 76q101 77 101 280v967zM741 57l72 -57q-75 -56 -112 -103t-37 -98q0 -90 96 -90q38 0 99 26l33 -123q-84 -44 -183 -44
q-95 0 -156 55q-60 56 -60 154q0 170 248 280z" />
    <glyph glyph-name="uogonek" unicode="&#x173;" 
d="M858 0l-25 135q-48 -48 -132 -103q-83 -53 -187 -53q-181 0 -278 115.5t-97 349.5v638h197v-640q0 -174 51 -238q51 -65 159 -65q105 0 167 44q66 46 110 81v818h197v-1082h-162zM923 57l72 -57q-75 -56 -112 -103t-37 -98q0 -90 96 -90q38 0 99 26l33 -123
q-84 -44 -183 -44q-95 0 -156 55q-60 56 -60 154q0 170 248 280z" />
    <glyph glyph-name="Wcircumflex" unicode="&#x174;" horiz-adv-x="1763" 
d="M1592 1456h215l-353 -1456h-175l-313 885h-10l-313 -885h-175l-351 1456h213l240 -1132l7 -1l293 841h182l296 -844h6zM941 1864l248 -238v-25h-161l-147 148l-146 -148h-160v26l246 237h120z" />
    <glyph glyph-name="wcircumflex" unicode="&#x175;" horiz-adv-x="1550" 
d="M415 394l25 -130h7l26 67l222 535h148l220 -535l29 -83h5l33 146l160 688h206l-314 -1082h-155l-259 626h-6l-252 -626h-156l-313 1082h204zM833 1521l248 -238v-25h-161l-147 148l-146 -148h-160v26l246 237h120z" />
    <glyph glyph-name="Ycircumflex" unicode="&#x176;" horiz-adv-x="1295" 
d="M265 1456l380 -740l380 740h225l-511 -944v-512h-196v527l-503 929h225zM706 1863l248 -238v-25h-161l-147 148l-146 -148h-160v26l246 237h120z" />
    <glyph glyph-name="ycircumflex" unicode="&#x177;" horiz-adv-x="1030" 
d="M246 1082l228 -681l35 -136h6l266 817h219l-455 -1248q-40 -107 -118 -190q-77 -81 -206 -81q-23 0 -61 6q-28 3 -57 10l20 155l25 -1h1h1h1l1 -1h1h1h1h1h1h1q42 -3 53 -3q62 0 103 56q39 53 67 124l47 113l-402 1060h220zM574 1521l248 -238v-25h-161l-147 148
l-146 -148h-160v26l246 237h120z" />
    <glyph glyph-name="Ydieresis" unicode="&#x178;" horiz-adv-x="1295" 
d="M265 1456l380 -740l380 740h225l-511 -944v-512h-196v527l-503 929h225zM991 1804v-200h-219v200h219zM521 1804v-200h-219v200h219z" />
    <glyph glyph-name="Zacute" unicode="&#x179;" horiz-adv-x="1225" 
d="M1100 1315l-781 -1161h814v-154h-1036v146l778 1155h-767v155h992v-141zM519 1597l185 266h230l2 -6l-269 -260h-148z" />
    <glyph glyph-name="zacute" unicode="&#x17a;" horiz-adv-x="1030" 
d="M920 948l-591 -794h625v-154h-860v138l585 788h-578v156h819v-134zM434 1254l185 266h230l2 -6l-269 -260h-148z" />
    <glyph glyph-name="Zdotaccent" unicode="&#x17b;" horiz-adv-x="1225" 
d="M1100 1315l-781 -1161h814v-154h-1036v146l778 1155h-767v155h992v-141zM718 1805v-201h-218v201h218z" />
    <glyph glyph-name="zdotaccent" unicode="&#x17c;" horiz-adv-x="1030" 
d="M920 948l-591 -794h625v-154h-860v138l585 788h-578v156h819v-134zM633 1462v-201h-218v201h218z" />
    <glyph glyph-name="Zcaron" unicode="&#x17d;" horiz-adv-x="1225" 
d="M1100 1315l-781 -1161h814v-154h-1036v146l778 1155h-767v155h992v-141zM461 1865l147 -148l147 148h170v-18l-257 -245h-119l-254 243v20h166z" />
    <glyph glyph-name="zcaron" unicode="&#x17e;" horiz-adv-x="1030" 
d="M920 948l-591 -794h625v-154h-860v138l585 788h-578v156h819v-134zM376 1522l147 -148l147 148h170v-18l-257 -245h-119l-254 243v20h166z" />
    <glyph glyph-name="longs" unicode="&#x17f;" horiz-adv-x="516" 
d="M356 0h-197v1219q0 173 90.5 267.5t253.5 94.5q54 0 144 -21l-24 -145q-42 11 -89 11q-86 0 -132 -54t-46 -153v-1219z" />
    <glyph glyph-name="florin" unicode="&#x192;" horiz-adv-x="702" 
d="M609 1082v-146h-196v-1025q0 -167 -85.5 -257.5t-239.5 -90.5q-57 0 -111 18l14 150q12 -5 45 -9q31 -4 52 -4q60 0 94 51.5t34 141.5v1025h-169v146h169v137q0 173 90 267.5t253 94.5q55 0 145 -21l-24 -150q-48 10 -96 10q-171 0 -171 -201v-137h196z" />
    <glyph glyph-name="Ohorn" unicode="&#x1a0;" horiz-adv-x="1403" 
d="M1277 857v-259q0 -268 -166 -443q-165 -176 -429 -176q-254 0 -415 176q-159 176 -159 443v259q0 266 159 443q161 177 415 177q239 0 405 -153q122 11 186.5 96t64.5 233h197q0 -191 -88 -313t-250 -158q80 -149 80 -325zM1080 598v261q0 201 -108 328
q-108 128 -290 128q-171 0 -275 -128q-102 -127 -102 -328v-261q0 -202 102 -330q104 -128 275 -128q184 0 290 127q108 127 108 331z" />
    <glyph glyph-name="ohorn" unicode="&#x1a1;" horiz-adv-x="1175" 
d="M97 529v22q0 241 130 395q131 156 353 156q201 0 336 -133q162 36 162 254h178q0 -144 -67 -237.5t-195 -125.5q72 -135 72 -309v-22q0 -242 -130 -396t-354 -154q-225 0 -355 154t-130 396zM294 551v-22q0 -171 72 -284q73 -112 216 -112q141 0 214 112t73 284v22
q0 170 -74 283t-215 113q-140 0 -214 -113q-72 -112 -72 -283z" />
    <glyph glyph-name="Uhorn" unicode="&#x1af;" horiz-adv-x="1430" 
d="M1047 1456h197v-178l6 -2q86 27 132 108.5t46 206.5h190l3 -5q2 -192 -96 -314t-281 -156v-627q0 -240 -156 -375t-402 -135q-236 0 -388 135q-151 136 -151 375v967h197v-967q0 -167 95 -262q95 -94 247 -94q160 0 260 94q101 95 101 262v967z" />
    <glyph glyph-name="uhorn" unicode="&#x1b0;" horiz-adv-x="1204" 
d="M1211 1227h169l3 -6q3 -178 -86 -273.5t-277 -109.5v-838h-177l-13 160q-106 -181 -316 -181q-181 0 -278 115.5t-97 349.5v638h197v-640q0 -174 51 -238q51 -65 159 -65q203 0 277 163v780h197v-114l6 -2q98 7 141.5 70t43.5 191z" />
    <glyph glyph-name="uni01F0" unicode="&#x1f0;" horiz-adv-x="523" 
d="M171 1082h197v-1171q0 -166 -85.5 -257t-239.5 -91q-53 0 -111 18l14 150q13 -4 47 -9q28 -4 50 -4q59 0 93.5 51.5t34.5 141.5v1171zM123 1503l147 -148l147 148h170v-18l-257 -245h-119l-254 243v20h166z" />
    <glyph glyph-name="Aringacute" unicode="&#x1fa;" horiz-adv-x="1295" 
d="M1050 0l-128 375h-548l-130 -375h-201l525 1456h169l514 -1456h-201zM648 1165l-217 -625h435l-212 625h-6zM604 1900l144 185h199l2 -6l-216 -179h-129zM476 1684q0 72 51 119q51 48 124 48q71 0 120 -48q50 -47 50 -119q0 -71 -50 -118q-49 -46 -120 -46q-74 0 -124 46
q-51 46 -51 118zM564 1684q0 -35 25.5 -59.5t61.5 -24.5q34 0 58.5 24t24.5 60q0 37 -24.5 62.5t-58.5 25.5q-36 0 -61.5 -25.5t-25.5 -62.5z" />
    <glyph glyph-name="aringacute" unicode="&#x1fb;" horiz-adv-x="1126" 
d="M982 217q0 -38 0.5 -108t0.5 -109h-165q-5 29 -15 70.5t-15 72.5q-66 -72 -155.5 -118.5t-181.5 -46.5q-167 0 -257 85.5t-90 239.5q0 160 120.5 249.5t346.5 81.5q55 -2 108.5 -14t79.5 -23l26 -11v155q0 109 -55.5 154.5t-166.5 45.5q-171 0 -343 -55l-34 155
q179 61 387 61q95 0 168 -19.5t129 -61t85 -113t27 -169.5v-522zM785 254v200q-9 4 -26.5 10.5t-75 17.5t-119.5 11q-116 0 -189 -45.5t-73 -142.5q0 -78 45.5 -120t132.5 -42q68 0 155.5 34.5t149.5 76.5zM511 1578l144 185h199l2 -6l-216 -179h-129zM383 1362q0 72 51 119
q51 48 124 48q70 0 120 -48q50 -47 50 -119q0 -71 -50 -118q-49 -46 -120 -46q-74 0 -124 46q-51 46 -51 118zM471 1362q0 -35 25.5 -59.5t61.5 -24.5q34 0 58.5 24t24.5 60q0 37 -24.5 62.5t-58.5 25.5q-36 0 -61.5 -25.5t-25.5 -62.5z" />
    <glyph glyph-name="AEacute" unicode="&#x1fc;" horiz-adv-x="1999" 
d="M1924 154v-154h-895l-15 350h-557l-201 -350h-242l881 1456h967v-155h-691l20 -466h590v-155h-584l22 -526h705zM971 1241l-411 -712h447l-31 710zM881 1597l185 266h230l2 -6l-269 -260h-148z" />
    <glyph glyph-name="aeacute" unicode="&#x1fd;" horiz-adv-x="1789" 
d="M1687 495h-709l-2 -5q0 -160 79.5 -258.5t233.5 -98.5q96 0 167.5 27t168.5 88l67 -139q-78 -62 -184 -96t-219 -34q-272 0 -410 186q-145 -186 -439 -186q-163 0 -259 83.5t-96 241.5t116 243.5t334 85.5h229v86q0 107 -52.5 167.5t-148.5 60.5q-168 0 -324 -97l-93 132
q91 58 204 89t213 31q114 0 201.5 -40.5t137.5 -117.5q64 76 152 117t188 41q220 0 332.5 -125t112.5 -364v-118zM1242 947q-78 0 -135.5 -43.5t-87.5 -109.5t-39 -149l2 -5h508v31q-1 127 -63 201.5t-185 74.5zM764 277v214h-227q-102 3 -178.5 -48.5t-76.5 -142.5
q0 -76 51 -121.5t146 -45.5q72 0 158.5 43t126.5 101zM799 1276l185 266h230l2 -6l-269 -260h-148z" />
    <glyph glyph-name="Oslashacute" unicode="&#x1fe;" horiz-adv-x="1396" 
d="M1282 857v-259q0 -268 -166 -443q-165 -176 -429 -176q-87 0 -193 34q-105 34 -191 106q-83 71 -137 206q-53 136 -53 273v259q0 266 159 443q161 177 415 177q92 0 203 -35q107 -34 208 -133q184 -180 184 -452zM310 859v-261q0 -82 18.5 -156t46.5 -112l6 -1l552 901
q-104 85 -246 85q-171 0 -275 -128q-102 -127 -102 -328zM1085 598v261q0 73 -16 140.5t-40 105.5l-6 1l-548 -898q89 -68 212 -68q184 0 290 127q108 127 108 331zM608 1659l185 266h230l2 -6l-269 -260h-148z" />
    <glyph glyph-name="oslashacute" unicode="&#x1ff;" 
d="M97 529v22q0 241 130 395q131 156 353 156q58 0 143 -22q88 -21 168 -89q82 -68 128 -183q47 -117 47 -257v-22q0 -242 -130 -396t-354 -154q-158 0 -271 80q-214 156 -214 470zM294 551v-22q0 -196 81 -290h6l332 674q-63 34 -133 34q-140 0 -214 -113
q-72 -112 -72 -283zM869 529v22q0 170 -67 268h-6l-327 -663q46 -23 113 -23q141 0 214 112t73 284zM449 1274l185 266h230l2 -6l-269 -260h-148z" />
    <glyph glyph-name="Scommaaccent" unicode="&#x218;" horiz-adv-x="1252" 
d="M689 811q230 -60 345 -163.5t115 -278.5q0 -83 -27.5 -149.5t-74.5 -111t-112 -74t-137.5 -42.5t-154.5 -13q-168 0 -289.5 26.5t-231.5 79.5l30 169q224 -117 491 -117q57 0 109 12t98.5 37.5t74 72t27.5 108.5q0 50 -21 91.5t-52 70t-78 52.5t-88 38.5t-92 27.5
q-227 56 -349 164t-122 267q0 96 39.5 173.5t106.5 126t153 74t183 25.5q123 0 239.5 -28.5t193.5 -86.5l-48 -173q-150 121 -385 121q-285 0 -285 -229q0 -49 23 -90t55 -67.5t83.5 -50t89 -36t91.5 -26.5zM696 -259v140h-158v-131l-61 -246h97z" />
    <glyph glyph-name="scommaaccent" unicode="&#x219;" horiz-adv-x="1071" 
d="M564 625q203 -43 304 -120.5t101 -199.5q0 -86 -34.5 -150.5t-94.5 -102t-133 -55.5t-159 -18q-118 0 -236 27t-186 73l53 154q89 -51 170.5 -75t198.5 -24q104 0 164 42.5t60 114.5q0 34 -15 61.5t-36.5 45t-56.5 32.5t-62.5 22.5t-66.5 16.5q-202 44 -299 115t-97 198
q0 79 34 141.5t91.5 100.5t128.5 58t150 20q119 0 218.5 -25t157.5 -72l-67 -143q-121 85 -309 85q-102 0 -154.5 -41.5t-52.5 -117.5q0 -31 15 -56.5t36 -42t54.5 -30t60 -20.5t62.5 -14zM606 -258v140h-158v-131l-61 -246h97z" />
    <glyph glyph-name="uni0237" unicode="&#x237;" horiz-adv-x="523" 
d="M171 1082h197v-1171q0 -166 -85.5 -257t-239.5 -91q-53 0 -111 18l14 150q13 -4 47 -9q28 -4 50 -4q59 0 93.5 51.5t34.5 141.5v1171z" />
    <glyph glyph-name="uni02BC" unicode="&#x2bc;" horiz-adv-x="516" 
d="M358 1456v-193l-101 -346h-97l1 343v196h197z" />
    <glyph glyph-name="circumflex" unicode="&#x2c6;" horiz-adv-x="979" 
d="M537 1515l248 -238v-25h-161l-147 148l-146 -148h-160v26l246 237h120z" />
    <glyph glyph-name="caron" unicode="&#x2c7;" horiz-adv-x="922" 
d="M306 1515l147 -148l147 148h170v-18l-257 -245h-119l-254 243v20h166z" />
    <glyph glyph-name="breve" unicode="&#x2d8;" horiz-adv-x="876" 
d="M571 1456h151l2 -6q4 -115 -77 -189q-80 -73 -218 -73q-139 0 -219 73q-81 73 -76 189l2 6h151q0 -69 35 -108.5t107 -39.5q70 0 106 40t36 108z" />
    <glyph glyph-name="dotaccent" unicode="&#x2d9;" horiz-adv-x="556" 
d="M378 1456v-201h-218v201h218z" />
    <glyph glyph-name="ring" unicode="&#x2da;" horiz-adv-x="696" 
d="M165 1308q0 72 51 120q52 49 125 49t122 -49q51 -48 51 -120t-51 -119q-49 -45 -122 -45q-75 0 -125 46q-51 46 -51 118zM265 1308q0 -31 22.5 -52.5t53.5 -21.5q30 0 51.5 21t21.5 53t-21.5 54.5t-51.5 22.5q-32 0 -54 -22.5t-22 -54.5z" />
    <glyph glyph-name="ogonek" unicode="&#x2db;" horiz-adv-x="562" 
d="M316 57l72 -57q-75 -56 -112 -103t-37 -98q0 -90 96 -90q38 0 99 26l33 -123q-84 -44 -183 -44q-95 0 -156 55q-60 56 -60 154q0 170 248 280z" />
    <glyph glyph-name="tilde" unicode="&#x2dc;" horiz-adv-x="979" 
d="M721 1523l108 -32q0 -95 -60 -159q-59 -65 -149 -65q-72 0 -148 46q-77 47 -128 47q-42 0 -71.5 -32.5t-29.5 -78.5l-108 26q0 93 59 161q58 69 150 69q55 0 140 -47t136 -47q42 0 71.5 32.5t29.5 79.5z" />
    <glyph glyph-name="hungarumlaut" unicode="&#x2dd;" horiz-adv-x="762" 
d="M369 1257l241 261h229l3 -6l-300 -260h-171zM100 1252l184 266h211l2 -5l-240 -261h-157z" />
    <glyph glyph-name="uni02F3" unicode="&#x2f3;" horiz-adv-x="672" 
d="M182 -234q0 64 45 108q47 42 112 42q63 0 108 -42q45 -44 45 -108t-45 -104q-44 -41 -108 -41q-65 0 -112 41q-45 40 -45 104zM271 -234q0 -26 20 -45t48 -19q26 0 45 18.5t19 45.5q0 30 -18.5 49.5t-45.5 19.5q-28 0 -48 -20t-20 -49z" />
    <glyph glyph-name="gravecomb" unicode="&#x300;" horiz-adv-x="0" 
d="M-631 1615l122 -351h-111l-174 343l2 8h161z" />
    <glyph glyph-name="acutecomb" unicode="&#x301;" horiz-adv-x="0" 
d="M-639 1264l127 352h157l1 -8l-184 -344h-101z" />
    <glyph glyph-name="tildecomb" unicode="&#x303;" horiz-adv-x="0" 
d="M-298 1523l108 -32q0 -94 -59 -159q-60 -65 -150 -65q-72 0 -148 46q-77 47 -128 47q-42 0 -71.5 -32.5t-29.5 -78.5l-108 26q0 93 59 161q59 69 150 69q55 0 140 -47t136 -47q42 0 71.5 32.5t29.5 79.5z" />
    <glyph glyph-name="hook" unicode="&#x309;" horiz-adv-x="0" 
d="M-517 1242h-140l-1 154q76 4 108.5 20.5t32.5 52.5q0 38 -42.5 57.5t-117.5 19.5l7 108q145 0 225 -51t80 -138q0 -67 -41 -104.5t-110 -47.5z" />
    <glyph glyph-name="uni030F" unicode="&#x30f;" horiz-adv-x="0" 
d="M-748 1518l241 -261l-2 -5h-171l-300 260l3 6h229zM-422 1518l184 -266h-157l-241 261l2 5h212z" />
    <glyph glyph-name="dotbelow" unicode="&#x323;" horiz-adv-x="0" 
d="M-490 -137v-200h-218v200h218z" />
    <glyph glyph-name="tonos" unicode="&#x384;" horiz-adv-x="526" 
d="M206 1272l30 271h208l-155 -271h-83z" />
    <glyph glyph-name="dieresistonos" unicode="&#x385;" horiz-adv-x="1045" 
d="M869 1456v-200h-199v200h199zM359 1456v-200h-198v200h198zM446 1468l51 262h218l-127 -262h-142z" />
    <glyph glyph-name="Alphatonos" unicode="&#x386;" horiz-adv-x="1295" 
d="M1050 0l-128 375h-548l-130 -375h-201l525 1456h169l514 -1456h-201zM648 1165l-217 -625h435l-212 625h-6zM199 1272l30 271h208l-155 -271h-83z" />
    <glyph glyph-name="anoteleia" unicode="&#x387;" horiz-adv-x="541" 
d="M359 836v-212h-198v212h198z" />
    <glyph glyph-name="Epsilontonos" unicode="&#x388;" horiz-adv-x="1130" 
d="M965 830v-155h-598v-521h669v-154h-866v1456h855v-155h-658v-471h598zM-128 1274l30 271h208l-155 -271h-83z" />
    <glyph glyph-name="Etatonos" unicode="&#x389;" horiz-adv-x="1441" 
d="M1271 1456v-1456h-197v643h-707v-643h-197v1456h197v-658h707v658h197zM-79 1274l30 271h208l-155 -271h-83z" />
    <glyph glyph-name="Iotatonos" unicode="&#x38a;" horiz-adv-x="579" 
d="M388 1456v-1456h-198v1456h198zM-65 1273l30 271h208l-155 -271h-83z" />
    <glyph glyph-name="Omicrontonos" unicode="&#x38c;" horiz-adv-x="1396" 
d="M1282 857v-259q0 -312 -151.5 -465.5t-443.5 -153.5q-270 0 -422 151q-152 152 -152 468v259q0 323 149 472q149 148 425 148q286 0 440 -148q155 -149 155 -472zM1085 598v261q0 261 -108 358q-109 98 -290 95q-171 3 -275 -95q-102 -97 -102 -358v-261q0 -244 102 -351
q104 -107 275 -107q183 0 290 107q108 107 108 351zM60 1272l30 271h208l-155 -271h-83z" />
    <glyph glyph-name="Upsilontonos" unicode="&#x38e;" horiz-adv-x="1295" 
d="M265 1456l380 -740l380 740h225l-511 -944v-512h-196v527l-503 929h225zM-196 1272l30 271h208l-155 -271h-83z" />
    <glyph glyph-name="Omegatonos" unicode="&#x38f;" horiz-adv-x="1366" 
d="M735 0v159q142 25 220 169.5t78 393.5v118q0 233 -97 357q-96 125 -266 125q-169 0 -265 -125t-96 -357v-118q0 -249 79.5 -394t224.5 -169v-159h-495v154h253q-119 91 -190 246q-69 154 -69 322v116q0 285 154 461q154 178 404 178t404 -178q156 -177 156 -461v-116
q0 -168 -70 -321q-69 -154 -187 -247h259v-154h-497zM51 1272l30 271h208l-155 -271h-83z" />
    <glyph glyph-name="iotadieresistonos" unicode="&#x390;" horiz-adv-x="672" 
d="M197 1081h197v-813q0 -70 25 -99.5t73 -29.5q49 0 91 26l44 -133q-78 -53 -187 -53q-122 0 -182.5 72t-60.5 228v802zM656 1383v-200h-199v200h199zM146 1383v-200h-198v200h198zM233 1395l51 262h218l-127 -262h-142z" />
    <glyph glyph-name="Alpha" unicode="&#x391;" horiz-adv-x="1295" 
d="M1050 0l-128 375h-548l-130 -375h-201l525 1456h169l514 -1456h-201zM648 1165l-217 -625h435l-212 625h-6z" />
    <glyph glyph-name="Beta" unicode="&#x392;" horiz-adv-x="1302" 
d="M747 0h-577v1456h475q228 0 357 -99q129 -97 129 -295q0 -93 -57.5 -167.5t-154.5 -114.5q143 -20 226 -124q84 -104 84 -245q0 -200 -130 -306q-131 -105 -352 -105zM737 683h-370v-529h380q135 0 209.5 66.5t74.5 188.5t-76 195q-78 75 -205 79h-13zM367 1301v-464h319
q110 0 179 60q69 61 69 169q0 117 -74 176t-215 59h-278z" />
    <glyph glyph-name="Gamma" unicode="&#x393;" horiz-adv-x="1123" 
d="M1056 1456v-155h-696v-1301h-197v1456h893z" />
    <glyph glyph-name="Delta" unicode="&#x394;" horiz-adv-x="1447" 
d="M30 0l617 1456h169l576 -1456h-1362zM726 1204l-432 -1050h838l-400 1050h-6z" />
    <glyph glyph-name="Delta" unicode="&#x2206;" horiz-adv-x="1447" 
d="M30 0l617 1456h169l576 -1456h-1362zM726 1204l-432 -1050h838l-400 1050h-6z" />
    <glyph glyph-name="Epsilon" unicode="&#x395;" horiz-adv-x="1130" 
d="M965 830v-155h-598v-521h669v-154h-866v1456h855v-155h-658v-471h598z" />
    <glyph glyph-name="Zeta" unicode="&#x396;" horiz-adv-x="1225" 
d="M1100 1315l-781 -1161h814v-154h-1036v146l778 1155h-767v155h992v-141z" />
    <glyph glyph-name="Eta" unicode="&#x397;" horiz-adv-x="1441" 
d="M1271 1456v-1456h-197v643h-707v-643h-197v1456h197v-658h707v658h197z" />
    <glyph glyph-name="Theta" unicode="&#x398;" horiz-adv-x="1396" 
d="M959 813v-154h-509v154h509zM1282 857v-259q0 -268 -166 -443q-165 -176 -429 -176q-254 0 -415 176q-159 176 -159 443v259q0 266 159 443q161 177 415 177q264 0 429 -177q166 -175 166 -443zM1085 598v261q0 201 -108 328q-108 128 -290 128q-171 0 -275 -128
q-102 -127 -102 -328v-261q0 -202 102 -330q104 -128 275 -128q184 0 290 127q108 127 108 331z" />
    <glyph glyph-name="Iota" unicode="&#x399;" horiz-adv-x="579" 
d="M388 1456v-1456h-198v1456h198z" />
    <glyph glyph-name="Kappa" unicode="&#x39a;" horiz-adv-x="1302" 
d="M495 658l-128 9v-667h-197v1456h197v-652l108 8l543 644h214v-23l-583 -671l625 -742v-20h-234z" />
    <glyph glyph-name="Lambda" unicode="&#x39b;" horiz-adv-x="1345" 
d="M1086 0l-415 1171h-6l-415 -1171h-201l534 1456h170l534 -1456h-201z" />
    <glyph glyph-name="Mu" unicode="&#x39c;" horiz-adv-x="1779" 
d="M425 1456l465 -909h10l468 909h240v-1456h-197v1125l-6 1l-441 -826h-137l-454 828l-6 -1v-1127h-197v1456h255z" />
    <glyph glyph-name="Nu" unicode="&#x39d;" horiz-adv-x="1442" 
d="M1271 1456v-1456h-197l-701 1112l-6 -2v-1110h-197v1456h197l701 -1111l6 2v1109h197z" />
    <glyph glyph-name="Xi" unicode="&#x39e;" horiz-adv-x="1173" 
d="M123 0v154h937v-154h-937zM206 678v155h761v-155h-761zM124 1301v155h924v-155h-924z" />
    <glyph glyph-name="Omicron" unicode="&#x39f;" horiz-adv-x="1396" 
d="M1282 857v-259q0 -312 -151.5 -465.5t-443.5 -153.5q-270 0 -422 151q-152 152 -152 468v259q0 323 149 472q149 148 425 148q286 0 440 -148q155 -149 155 -472zM1085 598v261q0 261 -108 358q-109 98 -290 95q-171 3 -275 -95q-102 -97 -102 -358v-261q0 -244 102 -351
q104 -107 275 -107q183 0 290 107q108 107 108 351z" />
    <glyph glyph-name="Pi" unicode="&#x3a0;" horiz-adv-x="1439" 
d="M1271 1456v-1456h-197v1301h-709v-1301h-197v1456h1103z" />
    <glyph glyph-name="Rho" unicode="&#x3a1;" horiz-adv-x="1302" 
d="M727 584h-360v-584h-197v1456h557q233 0 362 -120q130 -120 130 -316q0 -199 -130 -317q-130 -119 -362 -119zM367 1301v-563h360q148 0 221 79t73 201q0 120 -74 202q-74 81 -220 81h-360z" />
    <glyph glyph-name="Sigma" unicode="&#x3a3;" horiz-adv-x="1173" 
d="M758 739v-24l-445 -555l3 -5h780v-155h-1026v147l480 581l-480 581v147h976v-155h-730l-3 -5z" />
    <glyph glyph-name="Tau" unicode="&#x3a4;" horiz-adv-x="1225" 
d="M1188 1456v-155h-480v-1301h-197v1301h-474v155h1151z" />
    <glyph glyph-name="Upsilon" unicode="&#x3a5;" horiz-adv-x="1295" 
d="M265 1456l380 -740l380 740h225l-511 -944v-512h-196v527l-503 929h225z" />
    <glyph glyph-name="Phi" unicode="&#x3a6;" horiz-adv-x="1439" 
d="M820 1456v-227q230 -5 383 -147q154 -141 154 -359q0 -222 -154 -364q-152 -141 -383 -146v-213h-197v213q-232 3 -386 145q-153 142 -153 363q0 220 153 362q155 143 386 147v226h197zM279 721q0 -161 88 -255q89 -94 250 -92l6 2v691l-6 2q-160 1 -249 -94t-89 -254z
M1161 723q0 158 -89 252q-88 94 -246 94l-6 -2v-691l6 -2q158 -2 246 93q89 95 89 256z" />
    <glyph glyph-name="Chi" unicode="&#x3a7;" horiz-adv-x="1295" 
d="M312 1456l338 -568l340 568h238l-462 -722l472 -734h-235l-349 578l-350 -578h-238l472 734l-462 722h236z" />
    <glyph glyph-name="Psi" unicode="&#x3a8;" horiz-adv-x="1416" 
d="M787 1456v-971l6 -2q145 20 230 124q87 107 87 278v571h197v-571q0 -245 -143 -394q-142 -148 -377 -172v-319h-198v320q-228 24 -365 172q-137 149 -137 393v571h196v-571q0 -171 82 -275q83 -106 218 -125l6 1v970h198z" />
    <glyph glyph-name="Omega" unicode="&#x3a9;" horiz-adv-x="1366" 
d="M735 0v159q142 25 220 169.5t78 393.5v118q0 233 -97 357q-96 125 -266 125q-169 0 -265 -125t-96 -357v-118q0 -249 79.5 -394t224.5 -169v-159h-495v154h253q-119 91 -190 246q-69 154 -69 322v116q0 285 154 461q154 178 404 178t404 -178q156 -177 156 -461v-116
q0 -168 -70 -321q-69 -154 -187 -247h259v-154h-497z" />
    <glyph glyph-name="Omega" unicode="&#x2126;" horiz-adv-x="1366" 
d="M735 0v159q142 25 220 169.5t78 393.5v118q0 233 -97 357q-96 125 -266 125q-169 0 -265 -125t-96 -357v-118q0 -249 79.5 -394t224.5 -169v-159h-495v154h253q-119 91 -190 246q-69 154 -69 322v116q0 285 154 461q154 178 404 178t404 -178q156 -177 156 -461v-116
q0 -168 -70 -321q-69 -154 -187 -247h259v-154h-497z" />
    <glyph glyph-name="Iotadieresis" unicode="&#x3aa;" horiz-adv-x="579" 
d="M388 1456v-1456h-198v1456h198zM635 1805v-200h-219v200h219zM165 1805v-200h-219v200h219z" />
    <glyph glyph-name="Upsilondieresis" unicode="&#x3ab;" horiz-adv-x="1295" 
d="M265 1456l380 -740l380 740h225l-511 -944v-512h-196v527l-503 929h225zM991 1804v-200h-219v200h219zM521 1804v-200h-219v200h219z" />
    <glyph glyph-name="alphatonos" unicode="&#x3ac;" horiz-adv-x="1158" 
d="M884 1081h117v-805q0 -128 76 -128q31 0 52 7l23 -142q-49 -34 -126 -34q-153 0 -199 133q-110 -133 -307 -133t-310 143q-112 143 -112 378v21q0 261 111 421q112 160 313 160q199 0 311 -140zM295 521v-21q0 -165 67 -266q68 -101 208 -101q80 0 138 35q55 35 96 71
v593q-100 115 -232 115q-142 0 -209 -120q-68 -119 -68 -306zM579 1279l30 271h208l-155 -271h-83z" />
    <glyph glyph-name="epsilontonos" unicode="&#x3ad;" horiz-adv-x="1103" 
d="M338 558q-72 35 -112 97.5t-40 138.5q0 148 90.5 224.5t251.5 76.5q83 0 174 -23t136 -63l-55 -139q-39 38 -108.5 56.5t-146.5 18.5q-83 0 -117 -38t-34 -110q0 -85 34 -126.5t116 -41.5h109v-156h-109q-80 0 -123.5 -41t-43.5 -138q0 -73 44.5 -118t118.5 -45
q84 0 161 28.5t119 60.5l39 -160q-49 -38 -144.5 -59.5t-174.5 -21.5q-159 0 -256.5 85t-97.5 233q0 193 169 261zM505 1278l30 271h208l-155 -271h-83z" />
    <glyph glyph-name="etatonos" unicode="&#x3ae;" 
d="M143 1082h176l13 -150q113 170 315 170q176 0 271 -98t95 -321v-1098h-197v1094q0 141 -56 204.5t-174 63.5q-165 0 -246 -127v-820h-197v1082zM532 1279l30 271h208l-155 -271h-83z" />
    <glyph glyph-name="iotatonos" unicode="&#x3af;" horiz-adv-x="672" 
d="M197 1081h197v-813q0 -70 25 -99.5t73 -29.5q49 0 91 26l44 -133q-78 -53 -187 -53q-122 0 -182.5 72t-60.5 228v802zM256 1259l30 271h208l-155 -271h-83z" />
    <glyph glyph-name="upsilondieresistonos" unicode="&#x3b0;" 
d="M141 1082h197v-612q0 -170 67 -253.5t188 -83.5q137 0 204 126q68 128 68 303q-5 226 -124 520h206q115 -242 115 -520q0 -256 -111 -419q-111 -164 -348 -164q-225 0 -343.5 122.5t-118.5 370.5v610zM953 1383v-200h-199v200h199zM443 1383v-200h-198v200h198zM530 1395
l51 262h218l-127 -262h-142z" />
    <glyph glyph-name="alpha" unicode="&#x3b1;" horiz-adv-x="1158" 
d="M884 1081h117v-805q0 -128 76 -128q31 0 52 7l23 -142q-49 -34 -126 -34q-153 0 -199 133q-110 -133 -307 -133t-310 143q-112 143 -112 378v21q0 261 111 421q112 160 313 160q199 0 311 -140zM295 521v-21q0 -165 67 -266q68 -101 208 -101q80 0 138 35q55 35 96 71
v593q-100 115 -232 115q-142 0 -209 -120q-68 -119 -68 -306z" />
    <glyph glyph-name="beta" unicode="&#x3b2;" horiz-adv-x="1213" 
d="M607 1477q194 0 313 -110q118 -109 118 -284q0 -90 -50 -167t-137 -122q118 -43 185 -142q67 -97 67 -227q0 -210 -127 -328q-125 -118 -328 -118q-176 0 -294 91v-453h-197v1456q0 166 133 284q134 120 317 120zM521 860h82q119 0 178.5 59t59.5 168q0 95 -63 165
q-61 70 -171 70q-107 0 -180 -72q-73 -70 -73 -177v-830q94 -110 274 -110q129 0 203 80q75 79 75 208q0 113 -66 198q-65 86 -176 86h-143v155z" />
    <glyph glyph-name="gamma" unicode="&#x3b3;" horiz-adv-x="1031" 
d="M546 319l249 763h201l-375 -1020v-479h-197v484l-378 1015h202l256 -763l17 -76h6z" />
    <glyph glyph-name="delta" unicode="&#x3b4;" 
d="M205 1456h733v-151h-454l-2 -6l371 -277q101 -75 157 -198t56 -273v-22q0 -242 -130 -396t-354 -154q-225 0 -355 154t-130 396v22q0 216 105 364q106 150 291 180l7 1l2 6l-297 236v118zM580 947q-140 0 -214 -113q-72 -112 -72 -283v-22q0 -171 72 -284
q73 -112 216 -112q141 0 214 112t73 284v22q0 170 -74 283t-215 113z" />
    <glyph glyph-name="epsilon" unicode="&#x3b5;" horiz-adv-x="996" 
d="M338 558q-72 35 -112 97.5t-40 138.5q0 148 90.5 224.5t251.5 76.5q83 0 174 -23t136 -63l-55 -139q-39 38 -108.5 56.5t-146.5 18.5q-83 0 -117 -38t-34 -110q0 -85 34 -126.5t116 -41.5h109v-156h-109q-80 0 -123.5 -41t-43.5 -138q0 -73 44.5 -118t118.5 -45
q84 0 161 28.5t119 60.5l39 -160q-49 -38 -144.5 -59.5t-174.5 -21.5q-159 0 -256.5 85t-97.5 233q0 193 169 261z" />
    <glyph glyph-name="zeta" unicode="&#x3b6;" horiz-adv-x="1071" 
d="M115 1456h855v-112l-342 -432q-129 -153 -186 -267q-56 -114 -56 -258q0 -233 207 -233h32q162 0 250.5 -64.5t88.5 -190.5q-1 -110 -80 -193q-78 -84 -186 -130l-81 127q69 33 113 74q47 44 47 113q0 110 -172 110h-52q-179 0 -272 107q-92 107 -92 275q0 120 69 280
q71 162 214 330l268 304l-2 5h-623v155z" />
    <glyph glyph-name="eta" unicode="&#x3b7;" 
d="M143 1082h176l13 -150q113 170 315 170q176 0 271 -98t95 -321v-1098h-197v1094q0 141 -56 204.5t-174 63.5q-165 0 -246 -127v-820h-197v1082z" />
    <glyph glyph-name="theta" unicode="&#x3b8;" horiz-adv-x="1165" 
d="M1046 942v-428q0 -247 -126 -391q-125 -144 -337 -144q-211 0 -338 144q-126 144 -126 391v428q0 244 125 390q126 145 337 145q212 0 338 -145q127 -145 127 -390zM316 983v-180h533v180q0 157 -70 248t-198 91q-127 0 -196 -91t-69 -248zM849 474v174h-533v-174
q0 -158 70 -249q71 -92 197 -92q128 0 197 91q69 92 69 250z" />
    <glyph glyph-name="iota" unicode="&#x3b9;" horiz-adv-x="672" 
d="M197 1081h197v-813q0 -70 25 -99.5t73 -29.5q49 0 91 26l44 -133q-78 -53 -187 -53q-122 0 -182.5 72t-60.5 228v802z" />
    <glyph glyph-name="kappa" unicode="&#x3ba;" horiz-adv-x="1144" 
d="M845 0l-394 459l-101 17v-476h-197v1082h197v-474l84 17l388 457h231l2 -5l-450 -514l483 -558l-2 -5h-241z" />
    <glyph glyph-name="lambda" unicode="&#x3bb;" 
d="M505 670l-230 -670h-219l391 1028l-55 145q-73 190 -179 190q-10 0 -37 -3q-8 0 -15 -0.5t-11 -1t-5 -0.5v145q58 15 107 15q128 0 205 -81t117 -189l360 -946q22 -73 57.5 -114t79.5 -41h18q1 0 5 1t10.5 2l13.5 2l-3 -154q-32 -15 -59 -15q-117 0 -190 65
q-71 65 -124 205l-202 531l-6 -1z" />
    <glyph glyph-name="uni03BC" unicode="&#x3bc;" 
d="M153 1082h196v-642q1 -178 57 -243q55 -64 156 -64q185 0 251 142v807h197v-1082h-177l-9 108q-91 -129 -254 -129q-144 0 -221 68v-463h-196v1498z" />
    <glyph glyph-name="nu" unicode="&#x3bd;" horiz-adv-x="1030" 
d="M248 1082l256 -763l17 -76h6l19 76l249 763h201l-398 -1082h-149l-403 1082h202z" />
    <glyph glyph-name="xi" unicode="&#x3be;" horiz-adv-x="1043" 
d="M86 1456h836v-155h-296q-122 -7 -186 -73q-62 -65 -62 -161t74 -147.5t225 -51.5h143v-155h-143q-187 0 -284.5 -78t-97.5 -231q0 -120 80 -195q79 -75 221 -75h60q164 0 251.5 -64.5t87.5 -191.5q-1 -110 -80 -193q-77 -83 -186 -129l-79 127q69 34 112 74q47 42 47 112
q0 112 -145 112h-68q-221 0 -360 113q-138 114 -138 314q0 145 79.5 243.5t231.5 142.5q-108 40 -168 110.5t-60 158.5q0 157 120 238h-215v155z" />
    <glyph glyph-name="omicron" unicode="&#x3bf;" 
d="M97 529v22q0 241 130 395q131 156 353 156q224 0 355 -155t131 -396v-22q0 -242 -130 -396t-354 -154q-225 0 -355 154t-130 396zM294 551v-22q0 -171 72 -284q73 -112 216 -112q141 0 214 112t73 284v22q0 170 -74 283t-215 113q-140 0 -214 -113q-72 -112 -72 -283z
" />
    <glyph glyph-name="pi" unicode="&#x3c0;" horiz-adv-x="1189" 
d="M1118 1082v-156h-123v-658q0 -70 25 -99.5t73 -29.5q49 0 91 26l44 -133q-78 -53 -187 -53q-122 0 -182.5 72t-60.5 228v647h-367v-926h-197v926h-155v156h1039z" />
    <glyph glyph-name="rho" unicode="&#x3c1;" 
d="M1060 521v-21q0 -235 -110 -378t-306 -143q-192 0 -304 118v-513h-197v992v1q0 246 128 386q129 139 321 139q227 0 347 -159q121 -157 121 -422zM863 500v21q0 189 -66 307q-66 119 -205 119q-123 0 -188 -116q-64 -115 -64 -255v-301q78 -142 244 -142q138 0 209 102
q70 101 70 265z" />
    <glyph glyph-name="sigma1" unicode="&#x3c2;" horiz-adv-x="1102" 
d="M573 1102q187 0 303 -105q117 -104 113 -282l-2 -6h-178q0 103 -61 170q-62 68 -175 68q-138 0 -208 -115t-70 -270v-42q0 -144 82 -244t248 -124q178 -25 264 -79q84 -53 84 -176q-1 -110 -80 -193q-77 -82 -186 -129l-81 127q69 33 113 74q47 42 47 112q0 47 -43 73
t-140 39q-249 35 -377 169t-128 351v42q0 228 127 383q127 157 348 157z" />
    <glyph glyph-name="sigma" unicode="&#x3c3;" 
d="M1148 1082v-156h-277q94 -72 144.5 -178.5t50.5 -235.5v-22q0 -210 -132 -361q-132 -150 -352 -150q-225 0 -355 154t-130 396v22q0 231 129 380q130 150 353 151h569zM294 551v-22q0 -171 72 -284q73 -112 216 -112q141 0 214 112t73 284v22q0 161 -74 268t-215 107
q-140 0 -214 -107q-72 -107 -72 -268z" />
    <glyph glyph-name="tau" unicode="&#x3c4;" horiz-adv-x="1072" 
d="M988 1082v-153h-358v-929h-197v929h-352v153h907z" />
    <glyph glyph-name="upsilon" unicode="&#x3c5;" 
d="M141 1082h197v-612q0 -170 67 -253.5t188 -83.5q137 0 204 126q68 128 68 303q-5 226 -124 520h206q115 -242 115 -520q0 -256 -111 -419q-111 -164 -348 -164q-225 0 -343.5 122.5t-118.5 370.5v610z" />
    <glyph glyph-name="phi" unicode="&#x3c6;" horiz-adv-x="1450" 
d="M617 1082h197q227 0 390 -161q163 -160 163 -397q0 -219 -136 -368q-136 -150 -417 -172v-462h-197v462q-274 25 -404 185t-130 395q0 276 116 518h206q-121 -285 -125 -518q0 -156 81 -274q83 -120 250 -142l6 2v932zM1170 524q-4 163 -97 281q-94 119 -253 115l-6 -2
v-771l6 -2q178 21 263 129q87 109 87 250z" />
    <glyph glyph-name="chi" unicode="&#x3c7;" 
d="M202 1097q129 0 204 -80q75 -78 118 -188l92 -222h6l233 475h198l-341 -707l204 -492q35 -80 66 -117t71 -37q16 0 19 1q2 1 27 4l-3 -156q-24 -15 -59 -15q-115 0 -186 65q-70 65 -122 207l-127 300h-6l-265 -550h-209l383 782l-163 386q-75 189 -179 189q-10 0 -37 -3
q-8 0 -15 -0.5t-11 -1t-5 -0.5v145q58 15 107 15z" />
    <glyph glyph-name="psi" unicode="&#x3c8;" horiz-adv-x="1440" 
d="M607 1081h198v-932l6 -2q177 23 263 143q86 122 86 277q-6 233 -125 515h207q115 -238 115 -515q0 -241 -133 -401q-134 -161 -419 -183v-457h-198v459q-251 25 -383.5 178t-132.5 433v486h197v-488q0 -202 82.5 -314t230.5 -131l6 2v930z" />
    <glyph glyph-name="omega" unicode="&#x3c9;" horiz-adv-x="1741" 
d="M263 1082h206q-157 -284 -164 -520q0 -189 56 -310q56 -119 176 -119q111 0 172.5 83.5t61.5 253.5v300h198v-300q0 -170 61.5 -253.5t172.5 -83.5q121 0 176 118q56 120 56 311q-10 235 -164 520h207q154 -239 154 -520q0 -255 -101 -419t-317 -164q-259 0 -344 241
q-43 -119 -130 -180t-213 -61q-217 0 -318 164t-101 419q0 287 155 520z" />
    <glyph glyph-name="iotadieresis" unicode="&#x3ca;" horiz-adv-x="672" 
d="M197 1081h197v-813q0 -70 25 -99.5t73 -29.5q49 0 91 26l44 -133q-78 -53 -187 -53q-122 0 -182.5 72t-60.5 228v802zM648 1462v-200h-219v200h219zM178 1462v-200h-219v200h219z" />
    <glyph glyph-name="upsilondieresis" unicode="&#x3cb;" 
d="M141 1082h197v-612q0 -170 67 -253.5t188 -83.5q137 0 204 126q68 128 68 303q-5 226 -124 520h206q115 -242 115 -520q0 -256 -111 -419q-111 -164 -348 -164q-225 0 -343.5 122.5t-118.5 370.5v610zM945 1462v-200h-219v200h219zM475 1462v-200h-219v200h219z" />
    <glyph glyph-name="omicrontonos" unicode="&#x3cc;" 
d="M97 529v22q0 241 130 395q131 156 353 156q224 0 355 -155t131 -396v-22q0 -242 -130 -396t-354 -154q-225 0 -355 154t-130 396zM294 551v-22q0 -171 72 -284q73 -112 216 -112q141 0 214 112t73 284v22q0 170 -74 283t-215 113q-140 0 -214 -113q-72 -112 -72 -283z
M536 1279l30 271h208l-155 -271h-83z" />
    <glyph glyph-name="upsilontonos" unicode="&#x3cd;" 
d="M141 1082h197v-612q0 -170 67 -253.5t188 -83.5q137 0 204 126q68 128 68 303q-5 226 -124 520h206q115 -242 115 -520q0 -256 -111 -419q-111 -164 -348 -164q-225 0 -343.5 122.5t-118.5 370.5v610zM554 1259l30 271h208l-155 -271h-83z" />
    <glyph glyph-name="omegatonos" unicode="&#x3ce;" horiz-adv-x="1741" 
d="M263 1082h206q-157 -284 -164 -520q0 -189 56 -310q56 -119 176 -119q111 0 172.5 83.5t61.5 253.5v300h198v-300q0 -170 61.5 -253.5t172.5 -83.5q121 0 176 118q56 120 56 311q-10 235 -164 520h207q154 -239 154 -520q0 -255 -101 -419t-317 -164q-259 0 -344 241
q-43 -119 -130 -180t-213 -61q-217 0 -318 164t-101 419q0 287 155 520zM824 1259l30 271h208l-155 -271h-83z" />
    <glyph glyph-name="uni03D1" unicode="&#x3d1;" horiz-adv-x="1265" 
d="M521 1036v62q0 172 94 275q95 104 246 104q156 0 248 -101q91 -100 91 -278v-506q0 -278 -153 -446q-152 -167 -400 -167q-237 0 -386 174q-148 173 -148 439v660l197 2v-662q0 -201 91 -326q91 -126 246 -126q166 0 260 118q96 120 97 327q-216 7 -351 133
q-132 126 -132 318zM1004 754v344q0 217 -143 217q-67 0 -105 -55.5t-38 -161.5v-64q0 -120 75 -199q74 -78 205 -83z" />
    <glyph glyph-name="uni03D2" unicode="&#x3d2;" horiz-adv-x="1089" 
d="M564 833l178 406q50 121 111 174.5t144 53.5q66 0 110 -24l-23 -152q-14 8 -40 8q-74 0 -104 -74l-300 -647v-578h-196v578l-300 647q-33 74 -104 74q-26 0 -40 -8l-22 152q40 24 109 24q82 0 143 -53.5t112 -174.5l178 -406l19 -70h6z" />
    <glyph glyph-name="uni03D6" unicode="&#x3d6;" horiz-adv-x="1608" 
d="M1561 1082v-156h-133q62 -172 62 -364q0 -254 -87 -419q-87 -164 -271 -164q-119 0 -201.5 60.5t-122.5 176.5q-84 -237 -323 -237q-185 0 -272 164q-86 166 -86 419q0 197 62 364h-111v156h1483zM1293 562q-6 167 -77 364h-815q-73 -193 -77 -364q0 -189 41 -310
q42 -119 131 -119q101 0 157.5 83.5t56.5 253.5v250h198v-250q0 -170 56 -253.5t158 -83.5q87 0 129 119q42 118 42 310z" />
    <glyph glyph-name="uni0400" unicode="&#x400;" horiz-adv-x="1130" 
d="M965 830v-155h-598v-521h669v-154h-866v1456h855v-155h-658v-471h598zM527 1867l175 -266h-158l-250 260l3 6h230z" />
    <glyph glyph-name="uni0401" unicode="&#x401;" horiz-adv-x="1130" 
d="M965 830v-155h-598v-521h669v-154h-866v1456h855v-155h-658v-471h598zM964 1805v-200h-219v200h219zM494 1805v-200h-219v200h219z" />
    <glyph glyph-name="uni0402" unicode="&#x402;" horiz-adv-x="1514" 
d="M1208 1456v-155h-480v-421h181q234 0 383 -128q148 -127 148 -348q-1 -137 -100 -279q-97 -141 -287 -175l-51 148q240 63 240 306q-2 147 -92 229q-91 82 -241 82h-181v-715h-197v1301h-474v155h1151z" />
    <glyph glyph-name="uni0403" unicode="&#x403;" horiz-adv-x="1123" 
d="M1056 1456v-155h-696v-1301h-197v1456h893zM520 1597l185 266h230l2 -6l-269 -260h-148z" />
    <glyph glyph-name="uni0404" unicode="&#x404;" horiz-adv-x="1386" 
d="M1037 467h189l2 -6q4 -205 -144 -343t-391 -138q-247 0 -403 175q-155 176 -155 444v259q0 268 155 444q156 176 403 176t393 -132q146 -131 142 -348l-2 -6h-189q0 154 -90 242q-91 89 -254 89q-166 0 -263 -133q-98 -134 -98 -330v-47h562v-154h-562v-60
q0 -198 98 -332q97 -133 263 -133q165 0 254 88q90 88 90 245z" />
    <glyph glyph-name="uni0405" unicode="&#x405;" horiz-adv-x="1252" 
d="M689 811q230 -60 345 -163.5t115 -278.5q0 -83 -27.5 -149.5t-74.5 -111t-112 -74t-137.5 -42.5t-154.5 -13q-168 0 -289.5 26.5t-231.5 79.5l30 169q224 -117 491 -117q57 0 109 12t98.5 37.5t74 72t27.5 108.5q0 50 -21 91.5t-52 70t-78 52.5t-88 38.5t-92 27.5
q-227 56 -349 164t-122 267q0 96 39.5 173.5t106.5 126t153 74t183 25.5q123 0 239.5 -28.5t193.5 -86.5l-48 -173q-150 121 -385 121q-285 0 -285 -229q0 -49 23 -90t55 -67.5t83.5 -50t89 -36t91.5 -26.5z" />
    <glyph glyph-name="uni0406" unicode="&#x406;" horiz-adv-x="579" 
d="M388 1456v-1456h-198v1456h198z" />
    <glyph glyph-name="uni0407" unicode="&#x407;" horiz-adv-x="579" 
d="M388 1456v-1456h-198v1456h198zM635 1805v-200h-219v200h219zM165 1805v-200h-219v200h219z" />
    <glyph glyph-name="uni0408" unicode="&#x408;" horiz-adv-x="1123" 
d="M759 1456h197v-1034q0 -215 -118 -329t-326 -114q-103 0 -209 29.5t-171 90.5l89 149q47 -51 125.5 -83t165.5 -32q115 0 183 84t64 205v1034z" />
    <glyph glyph-name="uni0409" unicode="&#x409;" horiz-adv-x="2201" 
d="M373 1456h898v-567h359q233 0 361 -124q130 -123 130 -321t-130 -321q-129 -123 -361 -123h-556v1301h-504l-1 -531q-2 -402 -109 -586q-106 -184 -358 -184h-52v154h40q150 0 216 142q65 141 67 474v686zM1630 735h-359v-581h359q147 0 220 84q74 86 74 208
q0 120 -74 205q-73 84 -220 84z" />
    <glyph glyph-name="uni040A" unicode="&#x40a;" horiz-adv-x="2201" 
d="M365 1456v-629h709v629h197v-616h359q233 0 362 -114t129 -302q0 -189 -130 -307q-129 -117 -361 -117h-556v673h-709v-673h-197v1456h197zM1630 685h-359v-520h359q147 0 221 74q73 73 73 187q0 112 -73 185q-74 74 -221 74z" />
    <glyph glyph-name="uni040B" unicode="&#x40b;" horiz-adv-x="1670" 
d="M1224 1456v-155h-480v-340h294q242 0 365.5 -112.5t123.5 -347.5v-501h-197v501q0 169 -70 236q-70 69 -222 69h-294v-806h-197v1301h-474v155h1151z" />
    <glyph glyph-name="uni040C" unicode="&#x40c;" horiz-adv-x="1302" 
d="M495 658l-128 9v-667h-197v1456h197v-652l108 8l543 644h214v-23l-583 -671l625 -742v-20h-234zM514 1509l185 266h230l2 -6l-269 -260h-148z" />
    <glyph glyph-name="uni040D" unicode="&#x40d;" horiz-adv-x="1440" 
d="M376 345l701 1111h197v-1456h-197v1110l-6 2l-701 -1112h-197v1456h197v-1109zM634 1867l175 -266h-158l-250 260l3 6h230z" />
    <glyph glyph-name="uni040E" unicode="&#x40e;" horiz-adv-x="1297" 
d="M287 1456l281 -681l74 -191h6l348 872h228l-529 -1217q-55 -123 -136 -192q-80 -68 -234 -68q-130 0 -211 37l25 144q29 -9 81 -19q51 -8 84 -8q142 0 210 152l39 83l-487 1088h221zM789 1870h151l2 -6q4 -115 -77 -189q-80 -73 -218 -73q-139 0 -219 73q-81 73 -76 189
l2 6h151q0 -69 35 -108.5t107 -39.5q70 0 106 40t36 108z" />
    <glyph glyph-name="uni040F" unicode="&#x40f;" horiz-adv-x="1439" 
d="M168 0v1456h197v-1302h709v1302h197v-1456h-446v-359h-197v359h-460z" />
    <glyph glyph-name="uni0410" unicode="&#x410;" horiz-adv-x="1295" 
d="M1050 0l-128 375h-548l-130 -375h-201l525 1456h169l514 -1456h-201zM648 1165l-217 -625h435l-212 625h-6z" />
    <glyph glyph-name="uni0411" unicode="&#x411;" horiz-adv-x="1292" 
d="M1056 1456v-155h-696v-421h359q233 0 362 -120q130 -118 130 -316t-130 -321q-131 -123 -362 -123h-556v1456h893zM719 725h-359v-571h359q147 0 221 84q74 86 74 208q0 119 -74 199t-221 80z" />
    <glyph glyph-name="uni0412" unicode="&#x412;" horiz-adv-x="1302" 
d="M747 0h-577v1456h475q228 0 357 -99q129 -97 129 -295q0 -93 -57.5 -167.5t-154.5 -114.5q143 -20 226 -124q84 -104 84 -245q0 -200 -130 -306q-131 -105 -352 -105zM737 683h-370v-529h380q135 0 209.5 66.5t74.5 188.5t-76 195q-78 75 -205 79h-13zM367 1301v-464h319
q110 0 179 60q69 61 69 169q0 117 -74 176t-215 59h-278z" />
    <glyph glyph-name="uni0413" unicode="&#x413;" horiz-adv-x="1123" 
d="M1056 1456v-155h-696v-1301h-197v1456h893z" />
    <glyph glyph-name="uni0414" unicode="&#x414;" horiz-adv-x="1575" 
d="M1518 154v-511h-197v357h-1070v-359h-197v513h104q129 0 196 177t85 536l33 589h847v-1302h199zM661 1301l-23 -434q-26 -512 -171 -713h655v1147h-461z" />
    <glyph glyph-name="uni0415" unicode="&#x415;" horiz-adv-x="1130" 
d="M965 830v-155h-598v-521h669v-154h-866v1456h855v-155h-658v-471h598z" />
    <glyph glyph-name="uni0416" unicode="&#x416;" horiz-adv-x="1687" 
d="M1415 0l-416 668h-54v-668h-196v668h-63l-415 -668h-245l495 770l-455 686h230l388 -633h65v633h196v-633h57l388 633h230l-455 -685l495 -771h-245z" />
    <glyph glyph-name="uni0417" unicode="&#x417;" horiz-adv-x="1223" 
d="M835 756q110 -44 168 -133.5t58 -216.5q0 -199 -131 -313t-344 -114q-106 0 -234 29t-194 80l53 165q54 -43 158 -81.5t217 -38.5q126 0 202 75t76 194q0 136 -73 204.5t-210 68.5h-147v153h147q129 0 194.5 64.5t65.5 184.5q0 119 -71 181.5t-191 62.5
q-103 0 -196 -24.5t-146 -75.5l-74 140q60 54 182.5 85t233.5 31q217 0 338 -102.5t121 -301.5q0 -102 -53.5 -186t-149.5 -131z" />
    <glyph glyph-name="uni0418" unicode="&#x418;" horiz-adv-x="1440" 
d="M376 345l701 1111h197v-1456h-197v1110l-6 2l-701 -1112h-197v1456h197v-1109z" />
    <glyph glyph-name="uni0419" unicode="&#x419;" horiz-adv-x="1440" 
d="M376 345l701 1111h197v-1456h-197v1110l-6 2l-701 -1112h-197v1456h197v-1109zM869 1870h151l2 -6q4 -115 -77 -189q-80 -73 -218 -73q-139 0 -219 73q-81 73 -76 189l2 6h151q0 -69 35 -108.5t107 -39.5q70 0 106 40t36 108z" />
    <glyph glyph-name="uni041A" unicode="&#x41a;" horiz-adv-x="1302" 
d="M495 658l-128 9v-667h-197v1456h197v-652l108 8l543 644h214v-23l-583 -671l625 -742v-20h-234z" />
    <glyph glyph-name="uni041B" unicode="&#x41b;" horiz-adv-x="1439" 
d="M352 1456h919v-1456h-197v1301h-526l-1 -531q0 -401 -103 -585q-104 -185 -342 -185h-53v154h41q138 0 199 142q60 140 62 474z" />
    <glyph glyph-name="uni041C" unicode="&#x41c;" horiz-adv-x="1779" 
d="M425 1456l465 -909h10l468 909h240v-1456h-197v1125l-6 1l-441 -826h-137l-454 828l-6 -1v-1127h-197v1456h255z" />
    <glyph glyph-name="uni041D" unicode="&#x41d;" horiz-adv-x="1441" 
d="M1271 1456v-1456h-197v643h-707v-643h-197v1456h197v-658h707v658h197z" />
    <glyph glyph-name="uni041E" unicode="&#x41e;" horiz-adv-x="1396" 
d="M1282 857v-259q0 -312 -151.5 -465.5t-443.5 -153.5q-270 0 -422 151q-152 152 -152 468v259q0 323 149 472q149 148 425 148q286 0 440 -148q155 -149 155 -472zM1085 598v261q0 261 -108 358q-109 98 -290 95q-171 3 -275 -95q-102 -97 -102 -358v-261q0 -244 102 -351
q104 -107 275 -107q183 0 290 107q108 107 108 351z" />
    <glyph glyph-name="uni041F" unicode="&#x41f;" horiz-adv-x="1439" 
d="M1271 1456v-1456h-197v1301h-709v-1301h-197v1456h1103z" />
    <glyph glyph-name="uni0420" unicode="&#x420;" horiz-adv-x="1302" 
d="M727 584h-360v-584h-197v1456h557q233 0 362 -120q130 -120 130 -316q0 -199 -130 -317q-130 -119 -362 -119zM367 1301v-563h360q148 0 221 79t73 201q0 120 -74 202q-74 81 -220 81h-360z" />
    <glyph glyph-name="uni0421" unicode="&#x421;" horiz-adv-x="1297" 
d="M696 133q104 0 204 34t152 88l97 -138q-71 -66 -197.5 -102t-255.5 -36q-261 0 -419.5 161.5t-158.5 457.5v259q0 304 157 462t421 158q280 0 450 -132l-112 -130q-55 44 -155.5 75.5t-182.5 31.5q-188 0 -284.5 -117t-96.5 -346v-261q0 -213 100.5 -339t280.5 -126z" />
    <glyph glyph-name="uni0422" unicode="&#x422;" horiz-adv-x="1225" 
d="M1188 1456v-155h-480v-1301h-197v1301h-474v155h1151z" />
    <glyph glyph-name="uni0423" unicode="&#x423;" horiz-adv-x="1297" 
d="M287 1456l281 -681l74 -191h6l348 872h228l-529 -1217q-55 -123 -136 -192q-80 -68 -234 -68q-130 0 -211 37l25 144q29 -9 81 -19q51 -8 84 -8q142 0 210 152l39 83l-487 1088h221z" />
    <glyph glyph-name="uni0424" unicode="&#x424;" horiz-adv-x="1439" 
d="M820 1456v-227q230 -5 383 -147q154 -141 154 -359q0 -222 -154 -364q-152 -141 -383 -146v-213h-197v213q-232 3 -386 145q-153 142 -153 363q0 220 153 362q155 143 386 147v226h197zM279 721q0 -161 88 -255q89 -94 250 -92l6 2v691l-6 2q-160 1 -249 -94t-89 -254z
M1161 723q0 158 -89 252q-88 94 -246 94l-6 -2v-691l6 -2q158 -2 246 93q89 95 89 256z" />
    <glyph glyph-name="uni0425" unicode="&#x425;" horiz-adv-x="1295" 
d="M312 1456l338 -568l340 568h238l-462 -722l472 -734h-235l-349 578l-350 -578h-238l472 734l-462 722h236z" />
    <glyph glyph-name="uni0426" unicode="&#x426;" horiz-adv-x="1533" 
d="M161 0v1456h197v-1301h709v1301h197v-1296h189v-519h-197v359h-1095z" />
    <glyph glyph-name="uni0427" unicode="&#x427;" horiz-adv-x="1397" 
d="M1031 1456h197v-1456h-197v603q-93 -28 -184 -42q-85 -13 -211 -13q-245 0 -367 107.5t-122 340.5v460h198v-460q0 -164 69 -229q69 -63 222 -63q193 0 395 55v697z" />
    <glyph glyph-name="uni0428" unicode="&#x428;" horiz-adv-x="2079" 
d="M164 1456h197v-1302h592v1302h196v-1302h589v1302h197v-1456h-1771v1456z" />
    <glyph glyph-name="uni0429" unicode="&#x429;" horiz-adv-x="2148" 
d="M164 1456h197v-1302h592v1302h196v-1302h589v1302h197v-1299h170v-517h-197v360h-1744v1456z" />
    <glyph glyph-name="uni042A" unicode="&#x42a;" horiz-adv-x="1458" 
d="M0 1301v155h523v-576h359q233 0 362 -120q130 -118 130 -316t-130 -321t-362 -123h-556v1301h-326zM882 725h-359v-571h359q148 0 221 84q74 86 74 208q0 119 -74 199t-221 80z" />
    <glyph glyph-name="uni042B" unicode="&#x42b;" horiz-adv-x="1749" 
d="M360 1456v-576h359q233 0 362 -120q130 -118 130 -316t-130 -321q-131 -123 -362 -123h-556v1456h197zM719 725h-359v-571h359q147 0 221 84q74 86 74 208q0 119 -74 199t-221 80zM1586 1456v-1456h-198v1456h198z" />
    <glyph glyph-name="uni042C" unicode="&#x42c;" horiz-adv-x="1290" 
d="M360 1456v-576h359q233 0 362 -120q130 -118 130 -316t-130 -321q-131 -123 -362 -123h-556v1456h197zM719 725h-359v-571h359q147 0 221 84q74 86 74 208q0 119 -74 199t-221 80z" />
    <glyph glyph-name="uni042D" unicode="&#x42d;" horiz-adv-x="1385" 
d="M377 990h-189l-2 6q-5 203 143 342q149 140 391 140q247 0 403 -176t156 -444v-259q0 -269 -156 -445q-156 -174 -403 -174q-248 0 -393 130q-146 131 -141 349l2 6h189q0 -154 89 -243q88 -88 254 -88q164 0 262 132q99 134 99 331v81h-574v155h574v25q0 198 -99 331
q-98 134 -262 134q-165 0 -254 -89t-89 -244z" />
    <glyph glyph-name="uni042E" unicode="&#x42e;" horiz-adv-x="1825" 
d="M1762 857v-259q0 -268 -166 -443q-165 -176 -429 -176q-254 0 -415 176q-159 176 -159 443v34h-205v-632h-198v1456h198v-670h205v71q0 266 159 443q160 177 415 177q264 0 429 -177q166 -175 166 -443zM1565 598v261q0 201 -108 328q-108 128 -290 128q-171 0 -275 -128
q-102 -127 -102 -328v-261q0 -202 102 -330q104 -128 275 -128q184 0 290 127q108 127 108 331z" />
    <glyph glyph-name="uni042F" unicode="&#x42f;" horiz-adv-x="1211" 
d="M558 609l-305 -609h-209l342 661q-289 104 -289 377q0 198 137 308t378 110h466v-1456h-197v609h-323zM881 765v536h-269q-154 0 -236 -68.5t-82 -192.5q0 -122 81 -199q82 -76 235 -76h271z" />
    <glyph glyph-name="uni0430" unicode="&#x430;" horiz-adv-x="1126" 
d="M982 217q0 -38 0.5 -108t0.5 -109h-165q-5 29 -15 70.5t-15 72.5q-66 -72 -155.5 -118.5t-181.5 -46.5q-167 0 -257 85.5t-90 239.5q0 160 120.5 249.5t346.5 81.5q55 -2 108.5 -14t79.5 -23l26 -11v155q0 109 -55.5 154.5t-166.5 45.5q-171 0 -343 -55l-34 155
q179 61 387 61q95 0 168 -19.5t129 -61t85 -113t27 -169.5v-522zM785 254v200q-9 4 -26.5 10.5t-75 17.5t-119.5 11q-116 0 -189 -45.5t-73 -142.5q0 -78 45.5 -120t132.5 -42q68 0 155.5 34.5t149.5 76.5z" />
    <glyph glyph-name="uni0431" unicode="&#x431;" horiz-adv-x="1133" 
d="M619 1102q207 0 327 -155t120 -396v-22q0 -242 -130 -396t-354 -154q-225 0 -355 154t-130 396v22q0 17 1 26v235q0 308 123 453q125 146 364 159q146 7 217 36t71 93h151l2 -6q4 -157 -105 -222q-109 -62 -319 -67q-153 -5 -244 -84q-92 -80 -89 -237l3 -5
q58 75 151 122q91 48 196 48zM580 947q-141 0 -213 -113q-72 -112 -72 -283v-22q0 -171 72 -284q72 -112 215 -112q141 0 214 112t73 284v22q0 170 -74 283t-215 113z" />
    <glyph glyph-name="uni0432" unicode="&#x432;" 
d="M640 0h-496v1082h427q217 0 333.5 -75.5t116.5 -222.5q0 -76 -46 -135.5t-130 -90.5q100 -24 157 -92.5t57 -157.5q0 -151 -109.5 -229.5t-309.5 -78.5zM640 474h-299v-322h299q108 0 164.5 41.5t56.5 119.5t-56.5 119.5t-164.5 41.5zM341 929v-304h231q252 0 252 149
q0 155 -253 155h-230z" />
    <glyph glyph-name="uni0433" unicode="&#x433;" horiz-adv-x="849" 
d="M831 1082v-156h-491v-926h-197v1082h688z" />
    <glyph glyph-name="uni0434" unicode="&#x434;" horiz-adv-x="1297" 
d="M69 154h106q75 0 112 123t53 398l26 407h718v-928h143v-512h-197v358h-764v-358h-197v512zM552 907l-14 -232q-13 -201 -33.5 -322t-60.5 -199h443v753h-335z" />
    <glyph glyph-name="uni0435" unicode="&#x435;" horiz-adv-x="1072" 
d="M591 -21q-233 0 -364 149q-130 148 -130 392v44q0 264 129 400q129 138 334 138q232 0 333 -135q101 -136 101 -359v-98h-695v-11q0 -163 72 -265q72 -101 220 -101q116 0 193 16q81 17 177 69l44 -157q-55 -30 -166 -56q-116 -26 -248 -26zM560 947q-103 0 -171 -80
q-67 -79 -82 -203v-5h490v16q0 119 -58 195q-59 77 -179 77z" />
    <glyph glyph-name="uni0436" unicode="&#x436;" horiz-adv-x="1473" 
d="M1198 0l-306 469h-58v-469h-197v469h-58l-305 -469h-248l404 572l-370 510h238l286 -446h53v446h197v-446h54l287 446h237l-370 -510l404 -572h-248z" />
    <glyph glyph-name="uni0437" unicode="&#x437;" horiz-adv-x="1017" 
d="M673 558q169 -68 169 -261q0 -148 -97.5 -233t-256.5 -85q-79 0 -174.5 21.5t-144.5 59.5l39 160q42 -32 119 -60.5t161 -28.5q74 0 118.5 45t44.5 118q0 97 -43.5 138t-123.5 41h-109v156h109q82 0 116 41.5t34 126.5q0 72 -34 110t-117 38q-77 0 -146.5 -18.5
t-108.5 -56.5l-55 139q45 40 136 63t174 23q161 0 251.5 -76.5t90.5 -224.5q0 -76 -40 -138.5t-112 -97.5z" />
    <glyph glyph-name="uni0438" unicode="&#x438;" 
d="M345 312l478 770h197v-1082h-197v768l-6 2l-478 -770h-196v1082h196v-768z" />
    <glyph glyph-name="uni0439" unicode="&#x439;" 
d="M345 312l478 770h197v-1082h-197v768l-6 2l-478 -770h-196v1082h196v-768zM724 1527h151l2 -6q4 -115 -77 -189q-80 -73 -218 -73q-139 0 -219 73q-81 73 -76 189l2 6h151q0 -69 35 -108.5t107 -39.5q70 0 106 40t36 108z" />
    <glyph glyph-name="uni043A" unicode="&#x43a;" horiz-adv-x="1120" 
d="M844 0l-393 459l-101 14v-473h-197v1082h197v-472l84 15l387 457h231l2 -5l-449 -514l483 -558l-2 -5h-242z" />
    <glyph glyph-name="uni043B" unicode="&#x43b;" horiz-adv-x="1133" 
d="M259 1082h761v-1082h-197v926h-366v-306q0 -321 -85 -470q-86 -150 -290 -150h-56l4 168l41 1q105 0 146 102q42 103 42 349v462z" />
    <glyph glyph-name="uni043C" unicode="&#x43c;" horiz-adv-x="1528" 
d="M407 1082l352 -610h6l354 610h246v-1082h-197v796l-6 2l-332 -547h-136l-338 541l-6 -2v-790h-197v1082h254z" />
    <glyph glyph-name="uni043D" unicode="&#x43d;" 
d="M1019 1082v-1082h-197v460h-482v-460h-197v1082h197v-468h482v468h197z" />
    <glyph glyph-name="uni043E" unicode="&#x43e;" 
d="M97 529v22q0 241 130 395q131 156 353 156q224 0 355 -155t131 -396v-22q0 -242 -130 -396t-354 -154q-225 0 -355 154t-130 396zM294 551v-22q0 -171 72 -284q73 -112 216 -112q141 0 214 112t73 284v22q0 170 -74 283t-215 113q-140 0 -214 -113q-72 -112 -72 -283z
" />
    <glyph glyph-name="uni043F" unicode="&#x43f;" 
d="M1020 1082v-1082h-197v926h-483v-926h-197v1082h877z" />
    <glyph glyph-name="uni0440" unicode="&#x440;" 
d="M1065 521v-21q0 -235 -112 -378q-113 -143 -309 -143q-100 0 -176 33q-82 38 -128 64v-492h-197v1498h151l23 -116q64 56 140 95q80 41 184 41q201 0 312 -160q112 -158 112 -421zM868 500v21q0 184 -73 302q-72 119 -213 119q-85 0 -145 -39q-55 -34 -97 -68v-604
q44 -28 103 -60q64 -34 141 -34q140 -5 212 98t72 265z" />
    <glyph glyph-name="uni0441" unicode="&#x441;" horiz-adv-x="1072" 
d="M623 136q59 0 133 20.5t116 62.5l106 -132q-52 -51 -152.5 -79.5t-202.5 -28.5q-245 0 -385.5 141t-140.5 400v42q0 247 139.5 393.5t386.5 146.5q104 0 204.5 -29.5t152.5 -82.5l-109 -133q-40 39 -116.5 64.5t-131.5 25.5q-155 0 -241 -106t-87 -279v-42
q1 -165 86.5 -274.5t241.5 -109.5z" />
    <glyph glyph-name="uni0442" unicode="&#x442;" horiz-adv-x="1048" 
d="M977 1082v-153h-357v-929h-197v929h-352v153h906z" />
    <glyph glyph-name="uni0443" unicode="&#x443;" horiz-adv-x="1030" 
d="M246 1082l228 -681l35 -136h6l266 817h219l-455 -1248q-40 -107 -118 -190q-77 -81 -206 -81q-23 0 -61 6q-28 3 -57 10l20 155l25 -1h1h1h1l1 -1h1h1h1h1h1h1q42 -3 53 -3q62 0 103 56q39 53 67 124l47 113l-402 1060h220z" />
    <glyph glyph-name="uni0444" unicode="&#x444;" horiz-adv-x="1826" 
d="M98 500v21q0 261 111 421q112 160 313 160q175 0 283 -108v566h197v-582q112 124 302 124q200 0 311 -160q112 -158 112 -421v-21q0 -235 -112 -378q-113 -143 -309 -143q-192 0 -304 118v-513h-197v503q-108 -108 -285 -108q-197 0 -310 143q-112 143 -112 378z
M1530 500v21q0 186 -73 305q-72 121 -213 121q-163 0 -242 -147v-525q78 -142 244 -142q140 0 212 102t72 265zM295 521v-21q0 -165 67 -266q68 -101 208 -101q153 0 235 137v546q-84 131 -233 131q-142 0 -209 -120q-68 -119 -68 -306z" />
    <glyph glyph-name="uni0445" unicode="&#x445;" horiz-adv-x="1030" 
d="M283 1082l227 -399l230 399h230l-351 -535l361 -547h-226l-240 409l-240 -409h-228l361 547l-351 535h227z" />
    <glyph glyph-name="uni0446" unicode="&#x446;" horiz-adv-x="1218" 
d="M143 0v1082h197v-928h483v928h197v-928h132v-508h-197v354h-812z" />
    <glyph glyph-name="uni0447" unicode="&#x447;" horiz-adv-x="1131" 
d="M988 1082v-1082h-197v387q-114 -30 -245 -30q-196 0 -308 103q-111 104 -111 305v318h197v-318q0 -129 55.5 -190.5t166.5 -61.5q126 0 245 30v539h197z" />
    <glyph glyph-name="uni0448" unicode="&#x448;" horiz-adv-x="1645" 
d="M143 1082h197v-928h381v928h197v-928h381v928h197v-1082h-1353v1082z" />
    <glyph glyph-name="uni0449" unicode="&#x449;" horiz-adv-x="1732" 
d="M143 1082h197v-928h381v928h197v-928h381v928h197v-937h176v-483h-195v338h-1334v1082z" />
    <glyph glyph-name="uni044A" unicode="&#x44a;" horiz-adv-x="1274" 
d="M45 927v155h503v-412h269q191 0 298 -92t107 -239q0 -148 -108 -244q-107 -95 -297 -95h-466v927h-306zM817 516h-269v-362h269q107 0 156 51q51 51 51 127q0 74 -51 129t-156 55z" />
    <glyph glyph-name="uni044B" unicode="&#x44b;" horiz-adv-x="1617" 
d="M370 1082v-412h269q191 0 298 -92t107 -239q0 -148 -108 -244q-107 -95 -297 -95h-466v1082h197zM1432 1082v-1082h-197v1082h197zM639 516h-269v-362h269q107 0 156 51q51 51 51 127q0 74 -51 129t-156 55z" />
    <glyph glyph-name="uni044C" unicode="&#x44c;" horiz-adv-x="1113" 
d="M350 1082v-412h269q191 0 298 -92t107 -239q0 -148 -108 -244q-107 -95 -297 -95h-466v1082h197zM619 516h-269v-362h269q107 0 156 51q51 51 51 127q0 74 -51 129t-156 55z" />
    <glyph glyph-name="uni044D" unicode="&#x44d;" horiz-adv-x="1102" 
d="M520 947q-93 0 -164 -61q-71 -62 -71 -148h-178l-2 6q-6 139 121 248q128 110 294 110q220 0 347 -157q128 -157 128 -383v-42q0 -227 -128 -385q-127 -156 -347 -156q-184 0 -302 111q-118 112 -114 275l2 6h179q0 -99 67 -169q68 -69 168 -69q126 0 195 98t77 238l-3 5
h-385v154h383l2 5q-11 131 -79 222q-68 92 -190 92z" />
    <glyph glyph-name="uni044E" unicode="&#x44e;" horiz-adv-x="1671" 
d="M350 1082v-457h256q20 212 147 344q127 133 333 133q224 0 355 -155t131 -396v-22q0 -242 -130 -396t-354 -154q-210 0 -339 136q-127 136 -144 356h-255v-471h-197v1082h197zM800 551v-22q0 -171 72 -284q73 -112 216 -112q141 0 214 112t73 284v22q0 170 -74 283
t-215 113q-140 0 -214 -113q-72 -112 -72 -283z" />
    <glyph glyph-name="uni044F" unicode="&#x44f;" horiz-adv-x="1163" 
d="M553 1082h457v-1082h-197v420h-267l-256 -420h-212l274 449q-102 36 -158 116t-56 186q0 146 110 238q111 93 305 93zM336 749q0 -73 49 -123q49 -51 147 -51h281v354h-260q-107 0 -162 -54q-55 -52 -55 -126z" />
    <glyph glyph-name="uni0450" unicode="&#x450;" horiz-adv-x="1072" 
d="M591 -21q-233 0 -364 149q-130 148 -130 392v44q0 264 129 400q129 138 334 138q232 0 333 -135q101 -136 101 -359v-98h-695v-11q0 -163 72 -265q72 -101 220 -101q116 0 193 16q81 17 177 69l44 -157q-55 -30 -166 -56q-116 -26 -248 -26zM560 947q-103 0 -171 -80
q-67 -79 -82 -203v-5h490v16q0 119 -58 195q-59 77 -179 77zM447 1546l175 -266h-158l-250 260l3 6h230z" />
    <glyph glyph-name="uni0451" unicode="&#x451;" horiz-adv-x="1072" 
d="M591 -21q-233 0 -364 149q-130 148 -130 392v44q0 264 129 400q129 138 334 138q232 0 333 -135q101 -136 101 -359v-98h-695v-11q0 -163 72 -265q72 -101 220 -101q116 0 193 16q81 17 177 69l44 -157q-55 -30 -166 -56q-116 -26 -248 -26zM560 947q-103 0 -171 -80
q-67 -79 -82 -203v-5h490v16q0 119 -58 195q-59 77 -179 77zM884 1484v-200h-219v200h219zM414 1484v-200h-219v200h219z" />
    <glyph glyph-name="uni0452" unicode="&#x452;" 
d="M576 1352v-124h-236v-291q57 79 138.5 122t179.5 43q177 0 271.5 -106t94.5 -318v-222h1v-545q0 -166 -86 -257t-240 -91q-61 0 -113 17l15 151q14 -5 47 -9q31 -4 51 -4q60 0 94 51.5t34 141.5v769q0 262 -229 262q-174 0 -258 -131v-811h-197v1228h-157v124h157v208
h197v-208h236z" />
    <glyph glyph-name="uni0453" unicode="&#x453;" horiz-adv-x="849" 
d="M831 1082v-156h-491v-926h-197v1082h688zM332 1254l185 266h230l2 -6l-269 -260h-148z" />
    <glyph glyph-name="uni0454" unicode="&#x454;" horiz-adv-x="1103" 
d="M573 133q91 0 159 60q68 62 68 149h178l3 -6q5 -140 -120 -249q-125 -108 -288 -108q-227 0 -352 155q-124 154 -124 386v42q0 230 124 384q125 156 352 156q181 0 296 -112q116 -113 112 -275l-2 -6h-179q0 98 -65 168q-64 70 -162 70q-132 0 -199 -94q-66 -95 -72 -231
l2 -5h386v-154h-386l-2 -5q4 -138 71 -232q66 -93 200 -93z" />
    <glyph glyph-name="uni0455" unicode="&#x455;" horiz-adv-x="1071" 
d="M564 625q203 -43 304 -120.5t101 -199.5q0 -86 -34.5 -150.5t-94.5 -102t-133 -55.5t-159 -18q-118 0 -236 27t-186 73l53 154q89 -51 170.5 -75t198.5 -24q104 0 164 42.5t60 114.5q0 34 -15 61.5t-36.5 45t-56.5 32.5t-62.5 22.5t-66.5 16.5q-202 44 -299 115t-97 198
q0 79 34 141.5t91.5 100.5t128.5 58t150 20q119 0 218.5 -25t157.5 -72l-67 -143q-121 85 -309 85q-102 0 -154.5 -41.5t-52.5 -117.5q0 -31 15 -56.5t36 -42t54.5 -30t60 -20.5t62.5 -14z" />
    <glyph glyph-name="uni0456" unicode="&#x456;" horiz-adv-x="516" 
d="M356 1082v-1082h-197v1082h197zM356 1560v-236h-197v236h197z" />
    <glyph glyph-name="uni0457" unicode="&#x457;" horiz-adv-x="515" 
d="M350 1082v-1082h-197v1082h197zM598 1462v-200h-219v200h219zM128 1462v-200h-219v200h219z" />
    <glyph glyph-name="uni0458" unicode="&#x458;" horiz-adv-x="530" 
d="M173 1082h197v-1171q0 -166 -85.5 -257t-239.5 -90q-81 0 -103 2v157q27 1 89 1q142 0 142 187v1171zM370 1560v-236h-197v236h197z" />
    <glyph glyph-name="uni0459" unicode="&#x459;" horiz-adv-x="1782" 
d="M308 1082h712v-411h269q191 0 298 -93q107 -92 107 -239q0 -148 -108 -244q-107 -95 -297 -95h-466v926h-318v-306q0 -317 -89 -469q-88 -151 -295 -151h-56l4 158l41 1q106 0 152 109q46 108 46 352v462zM1289 517h-269v-365h269q105 0 156 56t51 133q0 73 -51 124
q-49 52 -156 52z" />
    <glyph glyph-name="uni045A" unicode="&#x45a;" horiz-adv-x="1781" 
d="M340 1082v-408h482v408h197v-412h269q191 0 298 -92t107 -239q0 -148 -108 -244q-107 -95 -297 -95h-466v521h-482v-521h-197v1082h197zM1288 517h-269v-365h269q105 0 156 56t51 133q0 73 -51 124q-49 52 -156 52z" />
    <glyph glyph-name="uni045B" unicode="&#x45b;" 
d="M660 1366v-155h-320v-274q57 79 138.5 122t179.5 43q177 0 271.5 -106t94.5 -318v-678h-197v680q0 262 -229 262q-174 0 -258 -131v-811h-197v1211h-124v155h124v194h197v-194h320z" />
    <glyph glyph-name="uni045C" unicode="&#x45c;" horiz-adv-x="1120" 
d="M844 0l-393 459l-101 14v-473h-197v1082h197v-472l84 15l387 457h231l2 -5l-449 -514l483 -558l-2 -5h-242zM449 1253l185 266h230l2 -6l-269 -260h-148z" />
    <glyph glyph-name="uni045D" unicode="&#x45d;" 
d="M345 312l478 770h197v-1082h-197v768l-6 2l-478 -770h-196v1082h196v-768zM489 1524l175 -266h-158l-250 260l3 6h230z" />
    <glyph glyph-name="uni045E" unicode="&#x45e;" horiz-adv-x="1030" 
d="M246 1082l228 -681l35 -136h6l266 817h219l-455 -1248q-40 -107 -118 -190q-77 -81 -206 -81q-23 0 -61 6q-28 3 -57 10l20 155l25 -1h1h1h1l1 -1h1h1h1h1h1h1q42 -3 53 -3q62 0 103 56q39 53 67 124l47 113l-402 1060h220zM657 1527h151l2 -6q4 -115 -77 -189
q-80 -73 -218 -73q-139 0 -219 73q-81 73 -76 189l2 6h151q0 -69 35 -108.5t107 -39.5q70 0 106 40t36 108z" />
    <glyph glyph-name="uni045F" unicode="&#x45f;" 
d="M143 1082h197v-928h483v928h197v-1082h-337v-356h-197v356h-343v1082z" />
    <glyph glyph-name="uni0460" unicode="&#x460;" horiz-adv-x="1934" 
d="M1159 1278l-58 156q113 43 242 43q215 0 352 -168q137 -167 137 -431v-300q0 -266 -142 -432q-143 -167 -360 -167t-354 106q-139 -106 -354 -106q-218 0 -361 167q-141 166 -141 432v300q0 265 136 431q136 168 353 168q127 0 242 -43l-58 -156q-77 44 -184 44
q-131 0 -212 -125q-80 -125 -80 -317v-302q0 -192 86 -319q85 -126 219 -126q181 0 255 109v332h-198v154h594v-154h-198v-332q68 -109 255 -109q131 0 218 126t87 319v302q0 192 -81 317t-211 125q-107 0 -184 -44z" />
    <glyph glyph-name="uni0461" unicode="&#x461;" horiz-adv-x="1410" 
d="M248 1082l256 -763l17 -76h6l19 76l133 393l-116 370h201l196 -763l26 -113l6 -1l11 34q91 141 125 372q34 233 24 471h201q6 -599 -299 -1082h-149l-143 451h-6l-158 -451h-149l-403 1082h202z" />
    <glyph glyph-name="uni0462" unicode="&#x462;" horiz-adv-x="1290" 
d="M590 1256v-155h-230v-221h359q233 0 362 -120q130 -118 130 -316t-130 -321q-131 -123 -362 -123h-556v1101h-214v155h214v200h197v-200h230zM719 725h-359v-571h359q147 0 221 84q74 86 74 208q0 119 -74 199t-221 80z" />
    <glyph glyph-name="uni0463" unicode="&#x463;" horiz-adv-x="1113" 
d="M671 1233v-155h-321v-408h269q191 0 298 -92t107 -239q0 -148 -108 -244q-107 -95 -297 -95h-466v1078h-190v155h190v329h197v-329h321zM619 516h-269v-362h269q107 0 156 51q51 51 51 127q0 74 -51 129t-156 55z" />
    <glyph glyph-name="uni0464" unicode="&#x464;" horiz-adv-x="1837" 
d="M1261 793v-154h-479v-40q0 -198 98 -332q97 -133 263 -133q165 0 254 88q90 88 90 245h189l2 -6q4 -205 -144 -343q-149 -138 -391 -138q-247 0 -403 175q-155 176 -155 444v40h-196v-639h-198v1456h198v-663h196v65q0 268 155 444q156 176 403 176t393 -132
q146 -131 142 -348l-2 -6h-189q0 154 -90 242q-91 89 -254 89q-166 0 -263 -133q-98 -134 -98 -330v-67h479z" />
    <glyph glyph-name="uni0465" unicode="&#x465;" horiz-adv-x="1530" 
d="M1049 616v-155h-319l-2 -5q6 -140 72 -231q66 -92 199 -92q91 0 159 60q68 62 68 149h178l3 -6q5 -140 -120 -249q-125 -108 -288 -108q-213 0 -336 136q-123 137 -138 346h-177v-461h-197v1082h197v-466h177q15 210 138 348t336 138q181 0 296 -112q116 -113 112 -275
l-2 -6h-179q0 98 -65 168q-64 70 -162 70q-132 0 -200 -95q-67 -95 -71 -231l2 -5h319z" />
    <glyph glyph-name="uni0466" unicode="&#x466;" horiz-adv-x="1235" 
d="M1050 0l-149 438h-161v-438h-196v438h-148l-152 -438h-201l525 1456h169l514 -1456h-201zM648 1165l-195 -563h392l-191 563h-6z" />
    <glyph glyph-name="uni0467" unicode="&#x467;" horiz-adv-x="1097" 
d="M864 0l-119 294h-106v-294h-196v294h-113l-116 -294h-201l440 1082h169l443 -1082h-201zM515 761l-124 -312h292l-126 312l-18 68h-6z" />
    <glyph glyph-name="uni0468" unicode="&#x468;" horiz-adv-x="1805" 
d="M407 1456v-853h382l308 853h169l514 -1456h-201l-149 438h-161v-438h-196v438h-148l-152 -438h-201l158 439h-323v-439h-198v1456h198zM1177 1165l-195 -563h392l-191 563h-6z" />
    <glyph glyph-name="uni0469" unicode="&#x469;" horiz-adv-x="1549" 
d="M383 1082v-633h259l258 633h169l443 -1082h-201l-119 294h-106v-294h-196v294h-113l-116 -294h-201l119 293h-196v-293h-197v1082h197zM962 761l-124 -312h292l-126 312l-18 68h-6z" />
    <glyph glyph-name="uni046A" unicode="&#x46a;" horiz-adv-x="1759" 
d="M1491 1456l-391 -642h22q239 0 364 -105q125 -104 125 -338v-371h-197v371q0 162 -70 225q-69 63 -222 63h-116l-25 -42v-617h-197v632l-17 27h-131q-153 0 -222 -63q-68 -63 -68 -225v-371h-197v371q0 230 121.5 336.5t365.5 106.5h37l-391 642h226l5 -9l6 2v7h972z
M598 1301l284 -487h10l284 487h-578z" />
    <glyph glyph-name="uni046B" unicode="&#x46b;" horiz-adv-x="1516" 
d="M1123 1083v-1h123l-285 -479q202 -10 304 -117t102 -324v-162h-198v162q0 164 -60 225q-59 63 -191 63h-47l-11 -19v-431h-197v440l-6 10h-60q-133 0 -192 -63q-59 -62 -59 -225v-162h-197v162q0 222 104 328t313 113l-284 479h158v1h683zM588 927l176 -320l176 320h-352
z" />
    <glyph glyph-name="uni046C" unicode="&#x46c;" horiz-adv-x="2326" 
d="M2053 709q125 -104 125 -338v-371h-197v371q0 162 -70 225q-69 63 -222 63h-116l-25 -42v-617h-197v632l-17 27h-131q-153 0 -222 -63q-68 -63 -68 -225v-371h-197v371q0 184 78 289h-406v-660h-198v1456h198v-642h815h37l-391 642h1209l-391 -642h22q239 0 364 -105z
M1459 814l284 487h-578l284 -487h10z" />
    <glyph glyph-name="uni046D" unicode="&#x46d;" horiz-adv-x="2019" 
d="M1467 603q202 -10 304 -117t102 -324v-162h-198v162q0 164 -60 225q-58 63 -191 63h-47l-11 -19v-431h-197v440l-6 10h-60q-133 0 -192 -63q-59 -62 -59 -225v-162h-197v162q0 184 71 288h-376v-450h-197v1082h197v-477h721l-283 477h964zM1270 607l176 320h-352z" />
    <glyph glyph-name="uni046E" unicode="&#x46e;" horiz-adv-x="1061" 
d="M269 825h143q151 0 225.5 62.5t74.5 178.5q0 102 -72 168q-70 67 -208 67h-304v155h304q210 0 344 -107t134 -287q0 -102 -65 -184.5t-180 -126.5q129 -41 198 -129.5t69 -214.5q0 -200 -133 -314q-133 -113 -343 -113h-50q-145 0 -145 -112q0 -70 46 -112
q45 -42 113 -73l-79 -127q-111 46 -189 129q-77 83 -78 193q0 127 88 192t252 65h42q129 0 203 74q75 75 75 194q0 132 -81.5 199.5t-240.5 67.5h-143v155zM388 1906l147 -148l147 148h170v-18l-257 -245h-119l-254 243v20h166z" />
    <glyph glyph-name="uni046F" unicode="&#x46f;" horiz-adv-x="986" 
d="M267 618h143q259 0 259 158q0 67 -63 108.5t-176 41.5h-303v156h303q192 0 314 -84q123 -84 123 -226q0 -72 -51.5 -132t-142.5 -95q216 -68 216 -241q0 -151 -122 -238q-122 -86 -313 -86h-49q-145 0 -145 -112q0 -69 47 -113q46 -43 113 -72l-80 -127q-111 46 -189 129
q-77 83 -78 193q0 127 88 192t252 65h41q109 0 173 45t64 120q0 163 -281 163h-143v155zM316 1562l147 -148l147 148h170v-18l-257 -245h-119l-254 243v20h166z" />
    <glyph glyph-name="uni0470" unicode="&#x470;" horiz-adv-x="1416" 
d="M787 1456v-971l6 -2q145 20 230 124q87 107 87 278v571h197v-571q0 -245 -143 -394q-142 -148 -377 -172v-319h-198v320q-228 24 -365 172q-137 149 -137 393v571h196v-571q0 -171 82 -275q83 -106 218 -125l6 1v970h198z" />
    <glyph glyph-name="uni0471" unicode="&#x471;" horiz-adv-x="1440" 
d="M607 1081h198v-932l6 -2q177 23 263 143q86 122 86 277q-6 233 -125 515h207q115 -238 115 -515q0 -241 -133 -401q-134 -161 -419 -183v-457h-198v459q-251 25 -383.5 178t-132.5 433v486h197v-488q0 -202 82.5 -314t230.5 -131l6 2v930z" />
    <glyph glyph-name="uni0472" unicode="&#x472;" horiz-adv-x="1396" 
d="M1282 857v-259q0 -268 -166 -443q-165 -176 -429 -176q-254 0 -415 176q-159 176 -159 443v259q0 266 159 443q161 177 415 177q264 0 429 -177q166 -175 166 -443zM908 717q54 0 102 20.5t75 53.5v68q0 201 -108 328q-108 128 -290 128q-171 0 -275 -128
q-102 -127 -102 -328v-68q78 60 172 60q88 0 216 -67t210 -67zM1085 598v20q-76 -56 -177 -56q-110 0 -228 66q-118 67 -198 67q-53 0 -100 -23t-72 -59v-15q0 -202 102 -330q104 -128 275 -128q184 0 290 127q108 127 108 331z" />
    <glyph glyph-name="uni0473" unicode="&#x473;" horiz-adv-x="1165" 
d="M97 529v22q0 241 130 395q131 156 353 156q224 0 355 -155t131 -396v-22q0 -242 -130 -396t-354 -154q-225 0 -355 154t-130 396zM737 556q43 0 80 25t46 63q-20 136 -91 219q-70 84 -192 84q-134 0 -205 -101q-72 -102 -73 -249l4 -5q47 54 131 54q61 0 153 -45t147 -45
zM418 512q-38 0 -71.5 -20t-47.5 -50q16 -138 87 -224q72 -85 196 -85q132 0 202 96q71 98 75 245l-3 4q-46 -57 -139 -57q-76 0 -160 45q-82 46 -139 46z" />
    <glyph glyph-name="uni0474" unicode="&#x474;" horiz-adv-x="1295" 
d="M236 1456l365 -1074l32 -120h6l33 120l224 805q46 144 123 216.5t175 72.5q66 0 109 -26l-22 -151q-19 7 -40 7q-52 0 -87 -33t-61 -110l-373 -1163h-168l-530 1456h214z" />
    <glyph glyph-name="uni0475" unicode="&#x475;" horiz-adv-x="1031" 
d="M248 1082l235 -763l17 -76h6l19 76l149 535q40 124 105.5 185.5t149.5 61.5q69 0 109 -25l-22 -151q-14 8 -40 8q-33 0 -62 -26t-42 -68l-296 -839h-149l-381 1082h202z" />
    <glyph glyph-name="uni0476" unicode="&#x476;" horiz-adv-x="1295" 
d="M236 1456l365 -1074l32 -120h6l33 120l224 805q46 144 123 216.5t175 72.5q66 0 109 -26l-22 -151q-19 7 -40 7q-52 0 -87 -33t-61 -110l-373 -1163h-168l-530 1456h214zM332 1864l241 -261l-2 -5h-171l-300 260l3 6h229zM658 1864l184 -266h-157l-241 261l2 5h212z" />
    <glyph glyph-name="uni0477" unicode="&#x477;" horiz-adv-x="1031" 
d="M248 1082l235 -763l17 -76h6l19 76l149 535q40 124 105.5 185.5t149.5 61.5q69 0 109 -25l-22 -151q-14 8 -40 8q-33 0 -62 -26t-42 -68l-296 -839h-149l-381 1082h202zM230 1568l241 -261l-2 -5h-171l-300 260l3 6h229zM556 1568l184 -266h-157l-241 261l2 5h212z" />
    <glyph glyph-name="uni0478" unicode="&#x478;" horiz-adv-x="2426" 
d="M1282 857v-259q0 -312 -151.5 -465.5t-443.5 -153.5q-270 0 -422 151q-152 152 -152 468v259q0 323 149 472q149 148 425 148q286 0 440 -148q155 -149 155 -472zM1085 598v261q0 261 -108 358q-109 98 -290 95q-171 3 -275 -95q-102 -97 -102 -358v-261q0 -244 102 -351
q104 -107 275 -107q183 0 290 107q108 107 108 351zM1642 1082l228 -681l35 -136h6l266 817h219l-455 -1248q-40 -107 -118 -190q-77 -81 -206 -81q-23 0 -61 6q-28 3 -57 10l20 155l25 -1h1h1h1l1 -1h1h1h1h1h1h1q42 -3 53 -3q62 0 103 56q39 53 67 124l47 113l-402 1060
h220z" />
    <glyph glyph-name="uni0479" unicode="&#x479;" horiz-adv-x="2194" 
d="M97 529v22q0 241 130 395q131 156 353 156q224 0 355 -155t131 -396v-22q0 -242 -130 -396t-354 -154q-225 0 -355 154t-130 396zM294 551v-22q0 -171 72 -284q73 -112 216 -112q141 0 214 112t73 284v22q0 170 -74 283t-215 113q-140 0 -214 -113q-72 -112 -72 -283z
M1410 1082l228 -681l35 -136h6l266 817h219l-455 -1248q-40 -107 -118 -190q-77 -81 -206 -81q-23 0 -61 6q-28 3 -57 10l20 155l25 -1h1h1h1l1 -1h1h1h1h1h1h1q42 -3 53 -3q62 0 103 56q39 53 67 124l47 113l-402 1060h220z" />
    <glyph glyph-name="uni047A" unicode="&#x47a;" horiz-adv-x="1396" 
d="M1120 1304q166 -175 166 -443v-259q0 -268 -166 -443q-129 -138 -319 -168v-128h-197v125q-196 25 -328 171q-159 175 -159 443v259q0 266 159 443q132 146 328 171v118h197v-121q190 -30 319 -168zM1089 602v261q0 201 -108 328q-72 85 -180 114v-101h-197v105
q-110 -24 -188 -118q-102 -127 -102 -328v-261q0 -202 102 -330q76 -94 188 -119v108h197v-104q108 27 180 114q108 128 108 331z" />
    <glyph glyph-name="uni047B" unicode="&#x47b;" 
d="M929 947q131 -155 131 -396v-22q0 -242 -130 -396q-101 -119 -255 -146v-105h-197v105q-158 27 -257 146q-130 154 -130 396v22q0 241 130 395q101 121 257 148v112h197v-113q155 -29 254 -146zM863 529v22q0 170 -74 283q-45 68 -114 95v-93h-197v95q-72 -27 -118 -97
q-72 -112 -72 -283v-22q0 -171 72 -284q45 -70 118 -96v102h197v-101q69 25 115 95q73 112 73 284z" />
    <glyph glyph-name="uni047C" unicode="&#x47c;" horiz-adv-x="1934" 
d="M1161 1278l-58 156q113 43 241 43q216 0 352 -168q137 -167 137 -431v-300q0 -266 -142 -432q-143 -167 -360 -167q-216 0 -355 106q-141 -106 -354 -106q-218 0 -361 167q-141 166 -141 432v300q0 265 136 431q136 168 353 168q126 0 241 -43l-58 -156q-77 44 -183 44
q-131 0 -212 -125q-80 -125 -80 -317v-302q0 -192 86 -319q85 -126 219 -126q182 0 256 111v33h197v-33q72 -111 256 -111q131 0 218 126t87 319v302q0 192 -81 317t-211 125q-108 0 -183 -44zM1423 1906h44v-130h-46q-130 0 -281 62q-150 62 -191 62q-52 0 -80 -27t-28 -80
v-18h-134v37q0 107 61.5 162t176.5 55q71 0 218 -62q144 -61 260 -61zM1147 1666l-165 -199l-80 66l58 116l-1 140h188v-123z" />
    <glyph glyph-name="uni047D" unicode="&#x47d;" horiz-adv-x="1654" 
d="M1000 899l-58 156q89 42 202 42q178 0 293 -151q115 -149 115 -386v-63q0 -229 -120 -374q-118 -144 -302 -144q-177 0 -294 112q-119 -112 -294 -112q-184 0 -303 144q-119 146 -119 374v63q0 236 114 386q115 151 295 151q109 0 201 -42l-58 -156q-64 43 -143 43
q-95 0 -154 -107q-58 -106 -58 -273v-65q0 -157 63 -261q64 -103 162 -103q75 0 121 29t75 82v33h197v-33q56 -111 195 -111q97 0 161 103t64 261v65q0 166 -59 273t-152 107q-80 0 -144 -43zM1283 1556h44v-129h-46q-132 0 -281 61q-150 62 -191 62q-51 0 -79.5 -27.5
t-28.5 -78.5v-18h-134v36q0 107 61.5 162.5t176.5 55.5q71 0 218 -62t260 -62zM1007 1316l-165 -198l-80 66l58 115l-1 140h188v-123z" />
    <glyph glyph-name="uni047E" unicode="&#x47e;" horiz-adv-x="1934" 
d="M858 1688h-139v-126l-175 1l1 234h821v-235h-176v126h-154v-126h-178v126zM1159 1278l-58 156q113 43 242 43q215 0 352 -168q137 -167 137 -431v-300q0 -266 -142 -432q-143 -167 -360 -167t-354 106q-139 -106 -354 -106q-218 0 -361 167q-141 166 -141 432v300
q0 265 136 431q136 168 353 168q127 0 242 -43l-58 -156q-77 44 -184 44q-131 0 -212 -125q-80 -125 -80 -317v-302q0 -192 86 -319q85 -126 219 -126q181 0 255 109v332h-198v154h594v-154h-198v-332q68 -109 255 -109q131 0 218 126t87 319v302q0 192 -81 317t-211 125
q-107 0 -184 -44z" />
    <glyph glyph-name="uni047F" unicode="&#x47f;" horiz-adv-x="1410" 
d="M622 1352h-138v-127l-176 1l1 235h822v-236h-177v127h-153v-127h-179v127zM248 1082l256 -763l17 -76h6l19 76l133 393l-116 370h201l196 -763l26 -113l6 -1l11 34q91 141 125 372q34 233 24 471h201q6 -599 -299 -1082h-149l-143 451h-6l-158 -451h-149l-403 1082h202z
" />
    <glyph glyph-name="uni0480" unicode="&#x480;" horiz-adv-x="1336" 
d="M791 133v-516h-196v368q-216 29 -346 198q-131 170 -131 415v259q0 268 155 444q156 176 403 176q248 0 393 -132q146 -131 142 -348l-2 -6h-189q0 153 -90 242q-91 89 -254 89q-166 0 -263 -133q-98 -134 -98 -330v-261q0 -198 98 -332q97 -133 263 -133h115z" />
    <glyph glyph-name="uni0481" unicode="&#x481;" horiz-adv-x="1099" 
d="M679 133v-516h-197v370q-180 31 -283 181q-101 149 -101 352v42q0 228 127 383q127 157 348 157q183 0 301 -112q119 -113 115 -275l-2 -6h-178q0 97 -69 168q-67 70 -167 70q-138 0 -208 -115t-70 -270v-42q0 -159 69 -273q70 -114 209 -114h106z" />
    <glyph glyph-name="uni0482" unicode="&#x482;" horiz-adv-x="1282" 
d="M809 810l-205 -363l289 -172l-71 -125l-291 170l-181 -320h-174l225 398l-289 171l71 124l293 -171l202 364l-290 171l73 126l291 -171l185 330h171l-229 -407l293 -171l-75 -124z" />
    <glyph glyph-name="uni0483" unicode="&#x483;" horiz-adv-x="1165" 
d="M931 1314h-544v-126l-175 1l1 235h544l-1 108l175 -1v-217z" />
    <glyph glyph-name="uni0484" unicode="&#x484;" horiz-adv-x="1209" 
d="M251 1433h44q112 0 259 62t219 62q114 0 176 -55.5t62 -162.5v-36h-134v18q0 51 -29 78.5t-79 27.5q-42 0 -193 -62q-150 -62 -279 -62h-46v130z" />
    <glyph glyph-name="uni0485" unicode="&#x485;" horiz-adv-x="787" 
d="M420 1301l-164 199v123h187l-1 -140l59 -116z" />
    <glyph glyph-name="uni0486" unicode="&#x486;" horiz-adv-x="847" 
d="M545 1500l-165 -199l-80 66l58 116l-1 140h188v-123z" />
    <glyph glyph-name="uni048A" unicode="&#x48a;" horiz-adv-x="1440" 
d="M376 345l701 1111h197v-1456h-197v1110l-6 2l-701 -1112h-197v1456h197v-1109zM869 1870h151l2 -6q4 -115 -77 -189q-80 -73 -218 -73q-139 0 -219 73q-81 73 -76 189l2 6h151q0 -69 35 -108.5t107 -39.5q70 0 106 40t36 108zM1438 182v-173l-150 -306h-117l70 316v163
h197z" />
    <glyph glyph-name="uni048B" unicode="&#x48b;" 
d="M345 312l478 770h197v-1082h-197v768l-6 2l-478 -770h-196v1082h196v-768zM724 1527h151l2 -6q4 -115 -77 -189q-80 -73 -218 -73q-139 0 -219 73q-81 73 -76 189l2 6h151q0 -69 35 -108.5t107 -39.5q70 0 106 40t36 108zM1184 182v-173l-150 -306h-117l70 316v163h197z
" />
    <glyph glyph-name="uni048C" unicode="&#x48c;" horiz-adv-x="1290" 
d="M590 1256v-155h-230v-221h359q233 0 362 -120q130 -118 130 -316t-130 -321q-131 -123 -362 -123h-556v1101h-214v155h214v200h197v-200h230zM719 725h-359v-571h359q147 0 221 84q74 86 74 208q0 119 -74 199t-221 80z" />
    <glyph glyph-name="uni048D" unicode="&#x48d;" horiz-adv-x="1113" 
d="M571 954v-155h-221v-129h269q191 0 298 -92t107 -239q0 -148 -108 -244q-107 -95 -297 -95h-466v799h-223v155h223v128h197v-128h221zM619 516h-269v-362h269q107 0 156 51q51 51 51 127q0 74 -51 129t-156 55z" />
    <glyph glyph-name="uni048E" unicode="&#x48e;" horiz-adv-x="1293" 
d="M1081 1335q130 -118 130 -316q0 -199 -130 -316q-44 -43 -105 -70l89 -171l-140 -70l-103 198q-48 -6 -102 -6h-360v-584h-198v1455h558q234 0 361 -120zM941 817q72 79 72 201q0 119 -74 202q-71 80 -219 80h-360v-563h360q4 0 12.5 0.5t12.5 0.5l-74 142l140 71
l88 -169q23 14 42 35z" />
    <glyph glyph-name="uni048F" unicode="&#x48f;" horiz-adv-x="1163" 
d="M953 942q112 -156 112 -421v-21q0 -237 -112 -378q-48 -63 -118 -100l58 -158l-146 -55l-64 171q-13 -1 -38 -1q-198 0 -305 134v-529h-197v1498h151l31 -140q111 160 316 160q201 0 312 -160zM868 500v21q0 184 -73 302q-72 119 -213 119q-163 0 -242 -144v-523
q78 -142 245 -142q27 0 41 2l-55 147l148 55l50 -135q15 15 27 33q72 103 72 265z" />
    <glyph glyph-name="uni0490" unicode="&#x490;" horiz-adv-x="1124" 
d="M1060 1790v-490h-197v1h-503v-1301h-197v1456h700v334h197z" />
    <glyph glyph-name="uni0491" unicode="&#x491;" horiz-adv-x="915" 
d="M836 1397v-471h-496v-926h-197v1082h496v315h197z" />
    <glyph glyph-name="uni0492" unicode="&#x492;" horiz-adv-x="1123" 
d="M620 836v-155h-260v-681h-197v681h-184v155h184v620h893v-155h-696v-465h260z" />
    <glyph glyph-name="uni0493" unicode="&#x493;" horiz-adv-x="849" 
d="M628 631v-155h-288v-476h-197v476h-156v155h156v451h688v-156h-491v-295h288z" />
    <glyph glyph-name="uni0494" unicode="&#x494;" horiz-adv-x="1238" 
d="M1056 1456v-155h-696v-426h249q234 0 383 -128q148 -127 148 -348q-1 -137 -100 -279q-97 -141 -287 -175l-51 148q240 63 240 306q-2 147 -92 229q-91 82 -241 82h-249v-710h-197v1456h893z" />
    <glyph glyph-name="uni0495" unicode="&#x495;" horiz-adv-x="1032" 
d="M831 1082v-156h-491v-253h93q234 0 383 -128q148 -127 148 -348q-1 -137 -100 -279q-97 -141 -287 -175l-51 148q240 66 240 306q-2 147 -92 229q-91 82 -241 82h-93v-508h-197v1082h688z" />
    <glyph glyph-name="uni0496" unicode="&#x496;" horiz-adv-x="1687" 
d="M1415 0l-416 668h-54v-668h-196v668h-63l-415 -668h-245l495 770l-455 686h230l388 -633h65v633h196v-633h57l388 633h230l-455 -685l495 -771h-245zM1731 157v-516h-197v516h197z" />
    <glyph glyph-name="uni0497" unicode="&#x497;" horiz-adv-x="1473" 
d="M1198 0l-306 469h-58v-469h-197v469h-58l-305 -469h-248l404 572l-370 510h238l286 -446h53v446h197v-446h54l287 446h237l-370 -510l404 -572h-248zM1482 157v-516h-197v516h197z" />
    <glyph glyph-name="uni0498" unicode="&#x498;" horiz-adv-x="1385" 
d="M1061 405q0 -152 -78.5 -256t-216.5 -146q121 -93 121 -216q0 -100 -67 -154q-65 -56 -168 -56q-109 0 -203 45l33 123q65 -26 119 -26q115 0 115 89q0 78 -114 171q-2 0 -8 -0.5t-8 -0.5q-105 0 -233.5 29.5t-194.5 79.5l53 165q54 -43 158 -81.5t217 -38.5
q126 0 202 75.5t76 194.5q0 135 -73 204t-210 69h-147v153h147q129 0 194.5 64.5t65.5 183.5t-71 182t-191 63q-102 0 -195.5 -25t-146.5 -75l-74 139q60 54 182.5 85.5t233.5 31.5q216 0 337.5 -103t121.5 -301q0 -102 -53.5 -186t-149.5 -132q110 -44 168 -133.5
t58 -216.5z" />
    <glyph glyph-name="uni0499" unicode="&#x499;" horiz-adv-x="1016" 
d="M842 297q0 -109 -54.5 -185t-150.5 -110q118 -94 118 -214q0 -99 -67 -154q-65 -55 -168 -55q-111 0 -203 44l33 123q69 -26 119 -26q115 0 115 90q0 77 -113 169q-79 3 -167 24t-135 57l39 160q42 -32 119 -60.5t161 -28.5q74 0 118.5 45t44.5 118q0 97 -43.5 138
t-123.5 41h-109v156h109q82 0 116 41.5t34 126.5q0 72 -34 110t-117 38q-77 0 -146.5 -18.5t-108.5 -56.5l-55 139q45 40 136 63t174 23q161 0 251.5 -76.5t90.5 -224.5q0 -76 -40 -138.5t-112 -97.5q169 -68 169 -261z" />
    <glyph glyph-name="uni049A" unicode="&#x49a;" horiz-adv-x="1302" 
d="M495 658l-128 9v-667h-197v1456h197v-652l108 8l543 644h214v-23l-583 -671l625 -742v-20h-234zM1345 157v-516h-197v516h197z" />
    <glyph glyph-name="uni049B" unicode="&#x49b;" horiz-adv-x="1120" 
d="M844 0l-393 459l-101 14v-473h-197v1082h197v-472l84 15l387 457h231l2 -5l-449 -514l483 -558l-2 -5h-242zM1138 157v-516h-197v516h197z" />
    <glyph glyph-name="uni049C" unicode="&#x49c;" horiz-adv-x="1295" 
d="M1008 1456h229l-398 -689l440 -767h-246l-340 658h-78v-243h-157v243h-98v-658h-197v1456h197v-644h98v255h157v-255h76z" />
    <glyph glyph-name="uni049D" unicode="&#x49d;" horiz-adv-x="1128" 
d="M852 1082h236l-339 -512l374 -570h-249l-269 459h-23v-191h-157v191h-75v-459h-197v1082h197v-457h75v211h157v-211h15z" />
    <glyph glyph-name="uni049E" unicode="&#x49e;" horiz-adv-x="1302" 
d="M1040 0l-545 658h-128v-658h-197v1154h-211v155h211v147h197v-147h233v-155h-233v-342h108l540 644h222l2 -5l-590 -689l632 -757l-2 -5h-239z" />
    <glyph glyph-name="uni049F" unicode="&#x49f;" horiz-adv-x="1050" 
d="M802 0l-360 499h-101v-499h-197v1214h-213v155h213v191h197v-191h231v-155h-231v-558h99l325 426h236l-393 -499l427 -583h-233z" />
    <glyph glyph-name="uni04A0" unicode="&#x4a0;" horiz-adv-x="1747" 
d="M1479 0l-545 658h-128v-658h-197v1301h-535v155h732v-644h108l540 644h222l2 -5l-590 -689l632 -757l-2 -5h-239z" />
    <glyph glyph-name="uni04A1" unicode="&#x4a1;" horiz-adv-x="1478" 
d="M1224 0l-393 459h-101v-459h-197v926h-483v156h680v-457h84l387 457h231l2 -5l-449 -514l483 -558l-2 -5h-242z" />
    <glyph glyph-name="uni04A2" unicode="&#x4a2;" horiz-adv-x="1441" 
d="M1271 1456v-1456h-197v643h-707v-643h-197v1456h197v-658h707v658h197zM1416 157v-516h-197v516h197z" />
    <glyph glyph-name="uni04A3" unicode="&#x4a3;" 
d="M1019 1082v-1082h-197v460h-482v-460h-197v1082h197v-468h482v468h197zM1164 157v-516h-197v516h197z" />
    <glyph glyph-name="uni04A4" unicode="&#x4a4;" horiz-adv-x="1977" 
d="M366 1456v-658h707v658h830v-155h-633v-1301h-197v643h-707v-643h-197v1456h197z" />
    <glyph glyph-name="uni04A5" unicode="&#x4a5;" horiz-adv-x="1456" 
d="M340 1082v-468h482v468h559v-156h-362v-926h-197v460h-482v-460h-197v1082h197z" />
    <glyph glyph-name="uni04A6" unicode="&#x4a6;" horiz-adv-x="2086" 
d="M1271 1456v-575h217q234 0 383 -129q148 -127 148 -348q-1 -138 -99 -279t-288 -175l-51 149q241 62 241 305q-1 146 -93 229t-241 83h-217v-716h-197v1301h-709v-1301h-197v1456h1103z" />
    <glyph glyph-name="uni04A7" unicode="&#x4a7;" horiz-adv-x="1788" 
d="M1020 1082v-406h169q234 0 383 -128q148 -127 148 -348q-1 -137 -100 -279q-97 -141 -287 -175l-51 148q240 66 240 306q-2 147 -92 229q-91 82 -241 82h-169v-511h-197v926h-483v-926h-197v1082h877z" />
    <glyph glyph-name="uni04A8" unicode="&#x4a8;" horiz-adv-x="1396" 
d="M541 657v59q0 176 103 291q104 116 268 116q165 0 267 -115q103 -113 103 -292v-80q0 -283 -166 -470q-165 -187 -429 -187q-253 0 -414 176q-160 175 -160 442v262q0 265 159 440q160 176 409 172l6 -2v-154q-171 0 -275 -129q-102 -128 -102 -325v-264q0 -201 102 -329
q104 -128 275 -128q126 0 217 68q-169 42 -266 162q-97 121 -97 287zM1085 636v83q0 107 -47 175t-126 68q-80 0 -127 -69q-47 -70 -47 -174v-64q0 -122 75 -206q78 -84 210 -97q62 122 62 284z" />
    <glyph glyph-name="uni04A9" unicode="&#x4a9;" 
d="M466 489v37q0 132 84 219q86 87 215 87q130 0 215 -94q86 -94 86 -233v-33q0 -212 -136 -352q-136 -141 -339 -141q-219 0 -357 146q-137 146 -137 368v54q0 239 136 396q137 158 352 153l6 -2v-153q-136 0 -217 -110q-80 -110 -80 -282v-56q0 -154 80 -254
q80 -99 217 -99q59 0 109 24q-108 34 -172 122q-62 88 -62 203zM869 472v36q0 68 -31 115q-32 48 -73 48q-44 0 -73 -41t-29 -102v-41q0 -83 46 -133t125 -50q35 80 35 168z" />
    <glyph glyph-name="uni04AA" unicode="&#x4aa;" horiz-adv-x="1297" 
d="M785 -17q97 -87 97 -196q0 -99 -67 -154q-65 -55 -168 -55q-111 0 -203 44l33 123q69 -26 119 -26q115 0 115 90q0 82 -124 178q-216 32 -342.5 190t-126.5 421v259q0 304 157 462t421 158q280 0 450 -132l-112 -130q-55 44 -155.5 75.5t-182.5 31.5q-188 0 -284.5 -117
t-96.5 -346v-261q0 -213 100.5 -339t280.5 -126q104 0 204 34t152 88l97 -138q-58 -54 -155.5 -88.5t-208.5 -45.5z" />
    <glyph glyph-name="uni04AB" unicode="&#x4ab;" horiz-adv-x="1072" 
d="M873 219l105 -132q-47 -46 -135.5 -74t-183.5 -33q93 -87 93 -193q0 -98 -67 -154q-65 -55 -169 -55q-111 0 -203 44l33 123q71 -26 119 -26q116 0 116 90q0 85 -135 193q-166 46 -257.5 178.5t-91.5 339.5v42q0 247 139.5 393.5t387.5 146.5q104 0 204.5 -29.5
t151.5 -82.5l-108 -133q-40 39 -117 64.5t-131 25.5q-155 0 -241.5 -106t-87.5 -279v-42q1 -107 36.5 -192.5t111.5 -138.5t181 -53q59 0 132.5 20.5t116.5 62.5z" />
    <glyph glyph-name="uni04AC" unicode="&#x4ac;" horiz-adv-x="1225" 
d="M1188 1456v-155h-480v-1301h-197v1301h-474v155h1151zM853 157v-516h-197v516h197z" />
    <glyph glyph-name="uni04AD" unicode="&#x4ad;" horiz-adv-x="1048" 
d="M977 1082v-153h-357v-929h-197v929h-352v153h906zM765 157v-516h-197v516h197z" />
    <glyph glyph-name="uni04AE" unicode="&#x4ae;" horiz-adv-x="1295" 
d="M265 1456l380 -740l380 740h225l-511 -944v-512h-196v527l-503 929h225z" />
    <glyph glyph-name="uni04AF" unicode="&#x4af;" horiz-adv-x="1031" 
d="M546 319l249 763h201l-375 -1020v-479h-197v484l-378 1015h202l256 -763l17 -76h6z" />
    <glyph glyph-name="uni04B0" unicode="&#x4b0;" horiz-adv-x="1295" 
d="M265 1456l380 -740l380 740h225l-419 -774h120v-155h-204l-8 -15v-512h-196v527h-233v155h149l-419 774h225z" />
    <glyph glyph-name="uni04B1" unicode="&#x4b1;" horiz-adv-x="1031" 
d="M849 142v-155h-228v-404h-197v404h-216v155h188l-350 940h202l256 -763l17 -76h6l19 76l249 763h201l-346 -940h199z" />
    <glyph glyph-name="uni04B2" unicode="&#x4b2;" horiz-adv-x="1295" 
d="M312 1456l338 -568l340 568h238l-462 -722l472 -734h-235l-349 578l-350 -578h-238l472 734l-462 722h236zM1264 157v-516h-197v516h197z" />
    <glyph glyph-name="uni04B3" unicode="&#x4b3;" horiz-adv-x="1030" 
d="M283 1082l227 -399l230 399h230l-351 -535l361 -547h-226l-240 409l-240 -409h-228l361 547l-351 535h227zM1035 157v-516h-197v516h197z" />
    <glyph glyph-name="uni04B4" unicode="&#x4b4;" horiz-adv-x="1847" 
d="M420 0v1299h-365v155h365v2h197v-2h392v-155h-392v-1144h709v1301h197v-1295h169v-516h-197v355h-1075z" />
    <glyph glyph-name="uni04B5" unicode="&#x4b5;" horiz-adv-x="1427" 
d="M300 0v928h-268v155h708v-155h-243v-774h483v928h197v-928h132v-508h-197v354h-812z" />
    <glyph glyph-name="uni04B6" unicode="&#x4b6;" horiz-adv-x="1397" 
d="M1031 1456h197v-1456h-197v603q-93 -28 -184 -42q-85 -13 -211 -13q-245 0 -367 107.5t-122 340.5v460h198v-460q0 -164 69 -229q69 -63 222 -63q193 0 395 55v697zM1373 157v-516h-197v516h197z" />
    <glyph glyph-name="uni04B7" unicode="&#x4b7;" horiz-adv-x="1131" 
d="M988 1082v-1082h-197v387q-114 -30 -245 -30q-196 0 -308 103q-111 104 -111 305v318h197v-318q0 -129 55.5 -190.5t166.5 -61.5q126 0 245 30v539h197zM1133 157v-516h-197v516h197z" />
    <glyph glyph-name="uni04B8" unicode="&#x4b8;" horiz-adv-x="1398" 
d="M798 1017v-701h-158v701h158zM1031 1456h197v-1456h-197v603q-93 -28 -184 -42q-85 -13 -211 -13q-245 0 -367 107.5t-122 340.5v460h198v-460q0 -164 69 -229q69 -63 222 -63q193 0 395 55v697z" />
    <glyph glyph-name="uni04B9" unicode="&#x4b9;" horiz-adv-x="1132" 
d="M647 795v-566h-158v566h158zM988 1082v-1082h-197v387q-114 -30 -245 -30q-196 0 -308 103q-111 104 -111 305v318h197v-318q0 -129 55.5 -190.5t166.5 -61.5q126 0 245 30v539h197z" />
    <glyph glyph-name="uni04BA" unicode="&#x4ba;" horiz-adv-x="1398" 
d="M335 0h-197v1456h197v-603q100 28 184 41q92 14 211 14q245 0 367 -108t122 -340v-460h-198v460q0 164 -70 228q-68 64 -221 64q-191 0 -395 -56v-696z" />
    <glyph glyph-name="uni04BB" unicode="&#x4bb;" horiz-adv-x="1132" 
d="M148 2v1082h197v-387q114 30 245 30q197 0 307 -103q112 -103 112 -305v-318h-197v318q0 129 -55.5 190.5t-166.5 61.5q-126 0 -245 -30v-539h-197z" />
    <glyph glyph-name="uni04BC" unicode="&#x4bc;" horiz-adv-x="1739" 
d="M1095 -23q-329 0 -514 198q-183 199 -183 526v6q-157 19 -240 118q-81 98 -77 252l2 5h151q0 -95 42.5 -156.5t125.5 -79.5q27 278 195 454q169 175 402 175q284 0 432 -178q149 -178 149 -488v-108h-978l-2 -5q-5 -250 118 -407q125 -158 377 -158q106 0 184 23
q73 21 152 61l48 -139q-58 -42 -156 -70.5t-228 -28.5zM999 1320q-171 0 -276 -135t-120 -344l3 -5h777v31q0 207 -91 329q-90 124 -293 124z" />
    <glyph glyph-name="uni04BD" unicode="&#x4bd;" horiz-adv-x="1215" 
d="M702 -21q-233 0 -364 149q-130 148 -130 392v8q-119 29 -180 116t-61 223h157q0 -144 93 -192q31 190 158 308q128 119 296 119q217 0 325 -135q109 -134 109 -359v-104h-692l-3 -5q0 -163 72 -265q72 -101 220 -101q190 0 305 107l77 -128q-137 -133 -382 -133zM671 947
q-103 0 -171 -80q-67 -79 -82 -203l2 -5h488v16q0 119 -58 195q-59 77 -179 77z" />
    <glyph glyph-name="uni04BE" unicode="&#x4be;" horiz-adv-x="1739" 
d="M1095 -23q-329 0 -514 198q-183 199 -183 526v6q-157 19 -240 118q-81 98 -77 252l2 5h151q0 -95 42.5 -156.5t125.5 -79.5q27 278 195 454q169 175 402 175q284 0 432 -178q149 -178 149 -488v-108h-978l-2 -5q-5 -250 118 -407q125 -158 377 -158q106 0 184 23
q73 21 152 61l48 -139q-58 -42 -156 -70.5t-228 -28.5zM999 1320q-171 0 -276 -135t-120 -344l3 -5h777v31q0 207 -91 329q-90 124 -293 124zM918 57l72 -57q-75 -56 -112 -103t-37 -98q0 -90 96 -90q38 0 99 26l33 -123q-84 -44 -183 -44q-95 0 -156 55q-60 56 -60 154
q0 170 248 280z" />
    <glyph glyph-name="uni04BF" unicode="&#x4bf;" horiz-adv-x="1215" 
d="M702 -21q-233 0 -364 149q-130 148 -130 392v8q-119 29 -180 116t-61 223h157q0 -144 93 -192q31 190 158 308q128 119 296 119q217 0 325 -135q109 -134 109 -359v-104h-692l-3 -5q0 -163 72 -265q72 -101 220 -101q190 0 305 107l77 -128q-137 -133 -382 -133zM671 947
q-103 0 -171 -80q-67 -79 -82 -203l2 -5h488v16q0 119 -58 195q-59 77 -179 77zM656 57l72 -57q-75 -56 -112 -103t-37 -98q0 -90 96 -90q38 0 99 26l33 -123q-84 -44 -183 -44q-95 0 -156 55q-60 56 -60 154q0 170 248 280z" />
    <glyph glyph-name="uni04C0" unicode="&#x4c0;" horiz-adv-x="579" 
d="M388 1456v-1456h-198v1456h198z" />
    <glyph glyph-name="uni04C1" unicode="&#x4c1;" horiz-adv-x="1687" 
d="M1415 0l-416 668h-54v-668h-196v668h-63l-415 -668h-245l495 770l-455 686h230l388 -633h65v633h196v-633h57l388 633h230l-455 -685l495 -771h-245zM987 1870h151l2 -6q4 -115 -77 -189q-80 -73 -218 -73q-139 0 -219 73q-81 73 -76 189l2 6h151q0 -69 35 -108.5
t107 -39.5q70 0 106 40t36 108z" />
    <glyph glyph-name="uni04C2" unicode="&#x4c2;" horiz-adv-x="1473" 
d="M1198 0l-306 469h-58v-469h-197v469h-58l-305 -469h-248l404 572l-370 510h238l286 -446h53v446h197v-446h54l287 446h237l-370 -510l404 -572h-248zM879 1527h151l2 -6q4 -115 -77 -189q-80 -73 -218 -73q-139 0 -219 73q-81 73 -76 189l2 6h151q0 -69 35 -108.5
t107 -39.5q70 0 106 40t36 108z" />
    <glyph glyph-name="uni04C3" unicode="&#x4c3;" horiz-adv-x="1295" 
d="M1233 1451l-526 -640q231 -4 372 -130q141 -125 141 -357q-1 -142 -115 -292q-112 -146 -333 -184l-51 150q302 64 302 326q-2 162 -89.5 243t-244.5 81h-329v-648h-197v1456h197v-644h128l520 644h222z" />
    <glyph glyph-name="uni04C4" unicode="&#x4c4;" horiz-adv-x="1120" 
d="M1054 1077l-405 -464q185 -30 291 -141q108 -111 108 -296q-1 -132 -99 -266t-287 -168l-51 150q241 61 241 284q-2 141 -89.5 212t-244.5 71h-168v-459h-197v1082h197v-457h84l387 457h231z" />
    <glyph glyph-name="uni04C5" unicode="&#x4c5;" horiz-adv-x="1439" 
d="M352 1456h919v-1456h-197v1301h-526l-1 -531q0 -401 -103 -585q-104 -185 -342 -185h-53v154h41q138 0 199 142q60 140 62 474zM1435 182v-173l-150 -306h-117l70 316v163h197z" />
    <glyph glyph-name="uni04C6" unicode="&#x4c6;" horiz-adv-x="1133" 
d="M259 1082h761v-1082h-197v926h-366v-306q0 -321 -85 -470q-86 -150 -290 -150h-56l4 168l41 1q105 0 146 102q42 103 42 349v462zM1184 182v-173l-150 -306h-117l70 316v163h197z" />
    <glyph glyph-name="uni04C7" unicode="&#x4c7;" horiz-adv-x="1439" 
d="M169 1456h197v-658h707v658h197v-1545q0 -166 -86 -257t-240 -91q-56 0 -112 18l14 150q13 -4 47 -9q31 -4 51 -4q60 0 94.5 51.5t34.5 141.5v732h-707v-643h-197v1456z" />
    <glyph glyph-name="uni04C8" unicode="&#x4c8;" 
d="M143 1082h197v-468h482v468h197v-1171q0 -166 -86 -257t-240 -91q-57 0 -112 18l15 150q14 -5 46 -9q31 -4 51 -4q60 0 94.5 51.5t34.5 141.5v549h-482v-460h-197v1082z" />
    <glyph glyph-name="uni04C9" unicode="&#x4c9;" horiz-adv-x="1441" 
d="M1271 1456v-1456h-197v643h-707v-643h-197v1456h197v-658h707v658h197zM1435 182v-173l-150 -306h-117l70 316v163h197z" />
    <glyph glyph-name="uni04CA" unicode="&#x4ca;" 
d="M1019 1082v-1082h-197v460h-482v-460h-197v1082h197v-468h482v468h197zM1183 182v-173l-150 -306h-117l70 316v163h197z" />
    <glyph glyph-name="uni04CB" unicode="&#x4cb;" horiz-adv-x="1397" 
d="M1031 1456h197v-1456h-197v603q-93 -28 -184 -42q-85 -13 -211 -13q-245 0 -367 107.5t-122 340.5v460h198v-460q0 -164 69 -229q69 -63 222 -63q193 0 395 55v697zM1082 157v-516h-197v516h197z" />
    <glyph glyph-name="uni04CC" unicode="&#x4cc;" horiz-adv-x="1131" 
d="M988 1082v-1082h-197v387q-114 -30 -245 -30q-196 0 -308 103q-111 104 -111 305v318h197v-318q0 -129 55.5 -190.5t166.5 -61.5q126 0 245 30v539h197zM841 157v-516h-197v516h197z" />
    <glyph glyph-name="uni04CD" unicode="&#x4cd;" horiz-adv-x="1779" 
d="M425 1456l465 -909h10l468 909h240v-1456h-197v1125l-6 1l-441 -826h-137l-454 828l-6 -1v-1127h-197v1456h255zM1772 182v-173l-150 -306h-117l70 316v163h197z" />
    <glyph glyph-name="uni04CE" unicode="&#x4ce;" horiz-adv-x="1528" 
d="M407 1082l352 -610h6l354 610h246v-1082h-197v796l-6 2l-332 -547h-136l-338 541l-6 -2v-790h-197v1082h254zM1529 182v-173l-150 -306h-117l70 316v163h197z" />
    <glyph glyph-name="uni04CF" unicode="&#x4cf;" horiz-adv-x="579" 
d="M388 1456v-1456h-198v1456h198z" />
    <glyph glyph-name="uni04D0" unicode="&#x4d0;" horiz-adv-x="1295" 
d="M1050 0l-128 375h-548l-130 -375h-201l525 1456h169l514 -1456h-201zM648 1165l-217 -625h435l-212 625h-6zM791 1870h151l2 -6q4 -115 -77 -189q-80 -73 -218 -73q-139 0 -219 73q-81 73 -76 189l2 6h151q0 -69 35 -108.5t107 -39.5q70 0 106 40t36 108z" />
    <glyph glyph-name="uni04D1" unicode="&#x4d1;" horiz-adv-x="1126" 
d="M982 217q0 -38 0.5 -108t0.5 -109h-165q-5 29 -15 70.5t-15 72.5q-66 -72 -155.5 -118.5t-181.5 -46.5q-167 0 -257 85.5t-90 239.5q0 160 120.5 249.5t346.5 81.5q55 -2 108.5 -14t79.5 -23l26 -11v155q0 109 -55.5 154.5t-166.5 45.5q-171 0 -343 -55l-34 155
q179 61 387 61q95 0 168 -19.5t129 -61t85 -113t27 -169.5v-522zM785 254v200q-9 4 -26.5 10.5t-75 17.5t-119.5 11q-116 0 -189 -45.5t-73 -142.5q0 -78 45.5 -120t132.5 -42q68 0 155.5 34.5t149.5 76.5zM698 1548h151l2 -6q4 -115 -77 -189q-80 -73 -218 -73
q-139 0 -219 73q-81 73 -76 189l2 6h151q0 -69 35 -108.5t107 -39.5q70 0 106 40t36 108z" />
    <glyph glyph-name="uni04D2" unicode="&#x4d2;" horiz-adv-x="1295" 
d="M1050 0l-128 375h-548l-130 -375h-201l525 1456h169l514 -1456h-201zM648 1165l-217 -625h435l-212 625h-6zM993 1805v-200h-219v200h219zM523 1805v-200h-219v200h219z" />
    <glyph glyph-name="uni04D3" unicode="&#x4d3;" horiz-adv-x="1126" 
d="M982 217q0 -38 0.5 -108t0.5 -109h-165q-5 29 -15 70.5t-15 72.5q-66 -72 -155.5 -118.5t-181.5 -46.5q-167 0 -257 85.5t-90 239.5q0 160 120.5 249.5t346.5 81.5q55 -2 108.5 -14t79.5 -23l26 -11v155q0 109 -55.5 154.5t-166.5 45.5q-171 0 -343 -55l-34 155
q179 61 387 61q95 0 168 -19.5t129 -61t85 -113t27 -169.5v-522zM785 254v200q-9 4 -26.5 10.5t-75 17.5t-119.5 11q-116 0 -189 -45.5t-73 -142.5q0 -78 45.5 -120t132.5 -42q68 0 155.5 34.5t149.5 76.5zM900 1483v-200h-219v200h219zM430 1483v-200h-219v200h219z" />
    <glyph glyph-name="uni04D4" unicode="&#x4d4;" horiz-adv-x="1999" 
d="M1924 154v-154h-895l-15 350h-557l-201 -350h-242l881 1456h967v-155h-691l20 -466h590v-155h-584l22 -526h705zM971 1241l-411 -712h447l-31 710z" />
    <glyph glyph-name="uni04D5" unicode="&#x4d5;" horiz-adv-x="1789" 
d="M1687 495h-709l-2 -5q0 -160 79.5 -258.5t233.5 -98.5q96 0 167.5 27t168.5 88l67 -139q-78 -62 -184 -96t-219 -34q-272 0 -410 186q-145 -186 -439 -186q-163 0 -259 83.5t-96 241.5t116 243.5t334 85.5h229v86q0 107 -52.5 167.5t-148.5 60.5q-168 0 -324 -97l-93 132
q91 58 204 89t213 31q114 0 201.5 -40.5t137.5 -117.5q64 76 152 117t188 41q220 0 332.5 -125t112.5 -364v-118zM1242 947q-78 0 -135.5 -43.5t-87.5 -109.5t-39 -149l2 -5h508v31q-1 127 -63 201.5t-185 74.5zM764 277v214h-227q-102 3 -178.5 -48.5t-76.5 -142.5
q0 -76 51 -121.5t146 -45.5q72 0 158.5 43t126.5 101z" />
    <glyph glyph-name="uni04D6" unicode="&#x4d6;" horiz-adv-x="1130" 
d="M965 830v-155h-598v-521h669v-154h-866v1456h855v-155h-658v-471h598zM762 1870h151l2 -6q4 -115 -77 -189q-80 -73 -218 -73q-139 0 -219 73q-81 73 -76 189l2 6h151q0 -69 35 -108.5t107 -39.5q70 0 106 40t36 108z" />
    <glyph glyph-name="uni04D7" unicode="&#x4d7;" horiz-adv-x="1072" 
d="M591 -21q-233 0 -364 149q-130 148 -130 392v44q0 264 129 400q129 138 334 138q232 0 333 -135q101 -136 101 -359v-98h-695v-11q0 -163 72 -265q72 -101 220 -101q116 0 193 16q81 17 177 69l44 -157q-55 -30 -166 -56q-116 -26 -248 -26zM560 947q-103 0 -171 -80
q-67 -79 -82 -203v-5h490v16q0 119 -58 195q-59 77 -179 77zM682 1549h151l2 -6q4 -115 -77 -189q-80 -73 -218 -73q-139 0 -219 73q-81 73 -76 189l2 6h151q0 -69 35 -108.5t107 -39.5q70 0 106 40t36 108z" />
    <glyph glyph-name="uni04D8" unicode="&#x4d8;" horiz-adv-x="1425" 
d="M614 1477q329 0 514 -200t185 -525v-49q0 -317 -175 -520q-176 -204 -427 -204q-304 0 -463 176q-159 177 -159 489v108h1020l2 5q4 247 -121 406q-124 159 -376 159q-108 0 -185 -24q-77 -22 -150 -60l-49 139q51 36 145 67q96 33 239 33zM711 133q170 0 275 134
q106 136 122 345l-3 5h-819v-31q0 -207 99 -330q101 -123 326 -123z" />
    <glyph glyph-name="uni04D9" unicode="&#x4d9;" horiz-adv-x="1090" 
d="M532 1103q232 0 363 -149t131 -392v-44q0 -263 -129 -401q-129 -137 -334 -137q-233 0 -334 135q-100 134 -100 359v98h695v11q0 163 -72 264q-72 102 -220 102q-115 0 -194 -16q-80 -17 -176 -69l-44 157q56 30 166 55q114 27 248 27zM563 135q103 0 170 79
q68 80 83 204v5h-490v-16q0 -119 58 -195q59 -77 179 -77z" />
    <glyph glyph-name="uni04DA" unicode="&#x4da;" horiz-adv-x="1425" 
d="M614 1477q329 0 514 -200t185 -525v-49q0 -317 -175 -520q-176 -204 -427 -204q-304 0 -463 176q-159 177 -159 489v108h1020l2 5q4 247 -121 406q-124 159 -376 159q-108 0 -185 -24q-77 -22 -150 -60l-49 139q51 36 145 67q96 33 239 33zM711 133q170 0 275 134
q106 136 122 345l-3 5h-819v-31q0 -207 99 -330q101 -123 326 -123zM974 1759v-200h-219v200h219zM504 1759v-200h-219v200h219z" />
    <glyph glyph-name="uni04DB" unicode="&#x4db;" horiz-adv-x="1090" 
d="M532 1103q232 0 363 -149t131 -392v-44q0 -263 -129 -401q-129 -137 -334 -137q-233 0 -334 135q-100 134 -100 359v98h695v11q0 163 -72 264q-72 102 -220 102q-115 0 -194 -16q-80 -17 -176 -69l-44 157q56 30 166 55q114 27 248 27zM563 135q103 0 170 79
q68 80 83 204v5h-490v-16q0 -119 58 -195q59 -77 179 -77zM913 1483v-200h-219v200h219zM443 1483v-200h-219v200h219z" />
    <glyph glyph-name="uni04DC" unicode="&#x4dc;" horiz-adv-x="1687" 
d="M1415 0l-416 668h-54v-668h-196v668h-63l-415 -668h-245l495 770l-455 686h230l388 -633h65v633h196v-633h57l388 633h230l-455 -685l495 -771h-245zM1189 1805v-200h-219v200h219zM719 1805v-200h-219v200h219z" />
    <glyph glyph-name="uni04DD" unicode="&#x4dd;" horiz-adv-x="1473" 
d="M1198 0l-306 469h-58v-469h-197v469h-58l-305 -469h-248l404 572l-370 510h238l286 -446h53v446h197v-446h54l287 446h237l-370 -510l404 -572h-248zM1081 1462v-200h-219v200h219zM611 1462v-200h-219v200h219z" />
    <glyph glyph-name="uni04DE" unicode="&#x4de;" horiz-adv-x="1385" 
d="M835 756q110 -44 168 -133.5t58 -216.5q0 -199 -131 -313t-344 -114q-106 0 -234 29t-194 80l53 165q54 -43 158 -81.5t217 -38.5q126 0 202 75t76 194q0 136 -73 204.5t-210 68.5h-147v153h147q129 0 194.5 64.5t65.5 184.5q0 119 -71 181.5t-191 62.5
q-103 0 -196 -24.5t-146 -75.5l-74 140q60 54 182.5 85t233.5 31q217 0 338 -102.5t121 -301.5q0 -102 -53.5 -186t-149.5 -131zM1028 1826v-200h-219v200h219zM558 1826v-200h-219v200h219z" />
    <glyph glyph-name="uni04DF" unicode="&#x4df;" horiz-adv-x="1103" 
d="M673 558q169 -68 169 -261q0 -148 -97.5 -233t-256.5 -85q-79 0 -174.5 21.5t-144.5 59.5l39 160q42 -32 119 -60.5t161 -28.5q74 0 118.5 45t44.5 118q0 97 -43.5 138t-123.5 41h-109v156h109q82 0 116 41.5t34 126.5q0 72 -34 110t-117 38q-77 0 -146.5 -18.5
t-108.5 -56.5l-55 139q45 40 136 63t174 23q161 0 251.5 -76.5t90.5 -224.5q0 -76 -40 -138.5t-112 -97.5zM896 1482v-200h-219v200h219zM426 1482v-200h-219v200h219z" />
    <glyph glyph-name="uni04E0" unicode="&#x4e0;" horiz-adv-x="1194" 
d="M405 852l376 444l-2 5h-631v155h869l1 -120l-409 -491q220 -13 340 -127t120 -312q0 -200 -137 -314q-137 -113 -358 -113q-191 0 -331 107q-138 106 -133 312l2 6h189q0 -114 76 -193q77 -78 197 -78q138 0 218 74q80 75 80 195q0 152 -80 224t-241 72h-146v154z" />
    <glyph glyph-name="uni04E1" unicode="&#x4e1;" horiz-adv-x="1194" 
d="M403 477l357 444l-3 5h-609v156h869l1 -120l-396 -493q214 -16 330.5 -129.5t116.5 -308.5q0 -198 -138 -312q-137 -114 -357 -114q-190 0 -330 108q-139 106 -134 310l2 6h189q0 -113 76 -190q76 -79 197 -79q138 0 218 75q80 74 80 192q0 152 -80 224t-242 72h-147v154
z" />
    <glyph glyph-name="uni04E2" unicode="&#x4e2;" horiz-adv-x="1440" 
d="M376 345l701 1111h197v-1456h-197v1110l-6 2l-701 -1112h-197v1456h197v-1109zM1092 1786v-146h-721v146h721z" />
    <glyph glyph-name="uni04E3" unicode="&#x4e3;" 
d="M345 312l478 770h197v-1082h-197v768l-6 2l-478 -770h-196v1082h196v-768zM947 1444v-146h-721v146h721z" />
    <glyph glyph-name="uni04E4" unicode="&#x4e4;" horiz-adv-x="1440" 
d="M376 345l701 1111h197v-1456h-197v1110l-6 2l-701 -1112h-197v1456h197v-1109zM1071 1805v-200h-219v200h219zM601 1805v-200h-219v200h219z" />
    <glyph glyph-name="uni04E5" unicode="&#x4e5;" 
d="M345 312l478 770h197v-1082h-197v768l-6 2l-478 -770h-196v1082h196v-768zM926 1462v-200h-219v200h219zM456 1462v-200h-219v200h219z" />
    <glyph glyph-name="uni04E6" unicode="&#x4e6;" horiz-adv-x="1396" 
d="M1282 857v-259q0 -312 -151.5 -465.5t-443.5 -153.5q-270 0 -422 151q-152 152 -152 468v259q0 323 149 472q149 148 425 148q286 0 440 -148q155 -149 155 -472zM1085 598v261q0 261 -108 358q-109 98 -290 95q-171 3 -275 -95q-102 -97 -102 -358v-261q0 -244 102 -351
q104 -107 275 -107q183 0 290 107q108 107 108 351zM1043 1826v-200h-219v200h219zM573 1826v-200h-219v200h219z" />
    <glyph glyph-name="uni04E7" unicode="&#x4e7;" 
d="M97 529v22q0 241 130 395q131 156 353 156q224 0 355 -155t131 -396v-22q0 -242 -130 -396t-354 -154q-225 0 -355 154t-130 396zM294 551v-22q0 -171 72 -284q73 -112 216 -112q141 0 214 112t73 284v22q0 170 -74 283t-215 113q-140 0 -214 -113q-72 -112 -72 -283z
M927 1483v-200h-219v200h219zM457 1483v-200h-219v200h219z" />
    <glyph glyph-name="uni04E8" unicode="&#x4e8;" horiz-adv-x="1396" 
d="M1282 857v-259q0 -268 -166 -443q-165 -176 -429 -176q-254 0 -415 176q-159 176 -159 443v259q0 266 159 443q161 177 415 177q264 0 429 -177q166 -175 166 -443zM908 717q54 0 102 20.5t75 53.5v68q0 201 -108 328q-108 128 -290 128q-171 0 -275 -128
q-102 -127 -102 -328v-68q78 60 172 60q88 0 216 -67t210 -67zM1085 598v20q-76 -56 -177 -56q-110 0 -228 66q-118 67 -198 67q-53 0 -100 -23t-72 -59v-15q0 -202 102 -330q104 -128 275 -128q184 0 290 127q108 127 108 331z" />
    <glyph glyph-name="uni04E9" unicode="&#x4e9;" horiz-adv-x="1165" 
d="M97 529v22q0 241 130 395q131 156 353 156q224 0 355 -155t131 -396v-22q0 -242 -130 -396t-354 -154q-225 0 -355 154t-130 396zM737 556q43 0 80 25t46 63q-20 136 -91 219q-70 84 -192 84q-134 0 -205 -101q-72 -102 -73 -249l4 -5q47 54 131 54q61 0 153 -45t147 -45
zM418 512q-38 0 -71.5 -20t-47.5 -50q16 -138 87 -224q72 -85 196 -85q132 0 202 96q71 98 75 245l-3 4q-46 -57 -139 -57q-76 0 -160 45q-82 46 -139 46z" />
    <glyph glyph-name="uni04EA" unicode="&#x4ea;" horiz-adv-x="1396" 
d="M1282 857v-259q0 -268 -166 -443q-165 -176 -429 -176q-254 0 -415 176q-159 176 -159 443v259q0 266 159 443q161 177 415 177q264 0 429 -177q166 -175 166 -443zM908 717q54 0 102 20.5t75 53.5v68q0 201 -108 328q-108 128 -290 128q-171 0 -275 -128
q-102 -127 -102 -328v-68q78 60 172 60q88 0 216 -67t210 -67zM1085 598v20q-76 -56 -177 -56q-110 0 -228 66q-118 67 -198 67q-53 0 -100 -23t-72 -59v-15q0 -202 102 -330q104 -128 275 -128q184 0 290 127q108 127 108 331zM1065 1800v-200h-219v200h219zM595 1800v-200
h-219v200h219z" />
    <glyph glyph-name="uni04EB" unicode="&#x4eb;" horiz-adv-x="1165" 
d="M97 529v22q0 241 130 395q131 156 353 156q224 0 355 -155t131 -396v-22q0 -242 -130 -396t-354 -154q-225 0 -355 154t-130 396zM737 556q43 0 80 25t46 63q-20 136 -91 219q-70 84 -192 84q-134 0 -205 -101q-72 -102 -73 -249l4 -5q47 54 131 54q61 0 153 -45t147 -45
zM418 512q-38 0 -71.5 -20t-47.5 -50q16 -138 87 -224q72 -85 196 -85q132 0 202 96q71 98 75 245l-3 4q-46 -57 -139 -57q-76 0 -160 45q-82 46 -139 46zM904 1511v-200h-219v200h219zM434 1511v-200h-219v200h219z" />
    <glyph glyph-name="uni04EC" unicode="&#x4ec;" horiz-adv-x="1385" 
d="M377 990h-189l-2 6q-5 203 143 342q149 140 391 140q247 0 403 -176t156 -444v-259q0 -269 -156 -445q-156 -174 -403 -174q-248 0 -393 130q-146 131 -141 349l2 6h189q0 -154 89 -243q88 -88 254 -88q164 0 262 132q99 134 99 331v81h-574v155h574v25q0 198 -99 331
q-98 134 -262 134q-165 0 -254 -89t-89 -244zM1037 1827v-200h-219v200h219zM567 1827v-200h-219v200h219z" />
    <glyph glyph-name="uni04ED" unicode="&#x4ed;" horiz-adv-x="1102" 
d="M520 947q-93 0 -164 -61q-71 -62 -71 -148h-178l-2 6q-6 139 121 248q128 110 294 110q220 0 347 -157q128 -157 128 -383v-42q0 -227 -128 -385q-127 -156 -347 -156q-184 0 -302 111q-118 112 -114 275l2 6h179q0 -99 67 -169q68 -69 168 -69q126 0 195 98t77 238l-3 5
h-385v154h383l2 5q-11 131 -79 222q-68 92 -190 92zM892 1483v-200h-219v200h219zM422 1483v-200h-219v200h219z" />
    <glyph glyph-name="uni04EE" unicode="&#x4ee;" horiz-adv-x="1297" 
d="M287 1456l281 -681l74 -191h6l348 872h228l-529 -1217q-55 -123 -136 -192q-80 -68 -234 -68q-130 0 -211 37l25 144q29 -9 81 -19q51 -8 84 -8q142 0 210 152l39 83l-487 1088h221zM1012 1786v-146h-721v146h721z" />
    <glyph glyph-name="uni04EF" unicode="&#x4ef;" horiz-adv-x="1030" 
d="M246 1082l228 -681l35 -136h6l266 817h219l-455 -1248q-40 -107 -118 -190q-77 -81 -206 -81q-23 0 -61 6q-28 3 -57 10l20 155l25 -1h1h1h1l1 -1h1h1h1h1h1h1q42 -3 53 -3q62 0 103 56q39 53 67 124l47 113l-402 1060h220zM880 1444v-146h-721v146h721z" />
    <glyph glyph-name="uni04F0" unicode="&#x4f0;" horiz-adv-x="1297" 
d="M287 1456l281 -681l74 -191h6l348 872h228l-529 -1217q-55 -123 -136 -192q-80 -68 -234 -68q-130 0 -211 37l25 144q29 -9 81 -19q51 -8 84 -8q142 0 210 152l39 83l-487 1088h221zM991 1805v-200h-219v200h219zM521 1805v-200h-219v200h219z" />
    <glyph glyph-name="uni04F1" unicode="&#x4f1;" horiz-adv-x="1030" 
d="M246 1082l228 -681l35 -136h6l266 817h219l-455 -1248q-40 -107 -118 -190q-77 -81 -206 -81q-23 0 -61 6q-28 3 -57 10l20 155l25 -1h1h1h1l1 -1h1h1h1h1h1h1q42 -3 53 -3q62 0 103 56q39 53 67 124l47 113l-402 1060h220zM859 1462v-200h-219v200h219zM389 1462v-200
h-219v200h219z" />
    <glyph glyph-name="uni04F2" unicode="&#x4f2;" horiz-adv-x="1297" 
d="M287 1456l281 -681l74 -191h6l348 872h228l-529 -1217q-55 -123 -136 -192q-80 -68 -234 -68q-130 0 -211 37l25 144q29 -9 81 -19q51 -8 84 -8q142 0 210 152l39 83l-487 1088h221zM679 1606l241 261h229l3 -6l-300 -260h-171zM410 1601l184 266h211l2 -5l-240 -261
h-157z" />
    <glyph glyph-name="uni04F3" unicode="&#x4f3;" horiz-adv-x="1030" 
d="M246 1082l228 -681l35 -136h6l266 817h219l-455 -1248q-40 -107 -118 -190q-77 -81 -206 -81q-23 0 -61 6q-28 3 -57 10l20 155l25 -1h1h1h1l1 -1h1h1h1h1h1h1q42 -3 53 -3q62 0 103 56q39 53 67 124l47 113l-402 1060h220zM547 1263l241 261h229l3 -6l-300 -260h-171z
M278 1258l184 266h211l2 -5l-240 -261h-157z" />
    <glyph glyph-name="uni04F4" unicode="&#x4f4;" horiz-adv-x="1397" 
d="M1031 1456h197v-1456h-197v603q-93 -28 -184 -42q-85 -13 -211 -13q-245 0 -367 107.5t-122 340.5v460h198v-460q0 -164 69 -229q69 -63 222 -63q193 0 395 55v697zM1033 1805v-200h-219v200h219zM563 1805v-200h-219v200h219z" />
    <glyph glyph-name="uni04F5" unicode="&#x4f5;" horiz-adv-x="1131" 
d="M988 1082v-1082h-197v387q-114 -30 -245 -30q-196 0 -308 103q-111 104 -111 305v318h197v-318q0 -129 55.5 -190.5t166.5 -61.5q126 0 245 30v539h197zM897 1462v-200h-219v200h219zM427 1462v-200h-219v200h219z" />
    <glyph glyph-name="uni04F6" unicode="&#x4f6;" horiz-adv-x="1123" 
d="M1056 1456v-155h-696v-1301h-197v1456h893zM505 157v-516h-197v516h197z" />
    <glyph glyph-name="uni04F7" unicode="&#x4f7;" horiz-adv-x="849" 
d="M831 1082v-156h-491v-926h-197v1082h688zM452 157v-516h-197v516h197z" />
    <glyph glyph-name="uni04F8" unicode="&#x4f8;" horiz-adv-x="1749" 
d="M360 1456v-576h359q233 0 362 -120q130 -118 130 -316t-130 -321q-131 -123 -362 -123h-556v1456h197zM719 725h-359v-571h359q147 0 221 84q74 86 74 208q0 119 -74 199t-221 80zM1586 1456v-1456h-198v1456h198zM1220 1805v-200h-219v200h219zM750 1805v-200h-219v200
h219z" />
    <glyph glyph-name="uni04F9" unicode="&#x4f9;" horiz-adv-x="1617" 
d="M370 1082v-412h269q191 0 298 -92t107 -239q0 -148 -108 -244q-107 -95 -297 -95h-466v1082h197zM639 516h-269v-362h269q107 0 156 51q51 51 51 127q0 74 -51 129t-156 55zM1432 1082v-1082h-197v1082h197zM1149 1462v-200h-219v200h219zM679 1462v-200h-219v200h219z
" />
    <glyph glyph-name="uni04FA" unicode="&#x4fa;" horiz-adv-x="1215" 
d="M1149 1456v-155h-696v-1301h-197v1456h893zM705 866v-155h-641v155h641zM435 154h197v-243q0 -166 -85.5 -257t-239.5 -91q-53 0 -111 18l14 160q15 -5 46 -8q28 -4 51 -4q60 0 94 47.5t34 134.5v243z" />
    <glyph glyph-name="uni04FB" unicode="&#x4fb;" horiz-adv-x="841" 
d="M929 1082v-156h-491v-926h-197v1082h688zM706 691v-155h-641v155h641zM419 154h197v-243q0 -166 -85.5 -257t-239.5 -91q-53 0 -111 18l14 160q15 -5 46 -8q28 -4 51 -4q60 0 94 47.5t34 134.5v243z" />
    <glyph glyph-name="uni04FC" unicode="&#x4fc;" horiz-adv-x="1295" 
d="M312 1456l338 -568l340 568h238l-462 -722l472 -734h-235l-349 578l-350 -578h-238l472 734l-462 722h236zM1118 154h197v-243q0 -166 -85.5 -257t-239.5 -91q-52 0 -111 18l14 160q15 -5 46 -8q28 -4 51 -4q60 0 94 47.5t34 134.5v243z" />
    <glyph glyph-name="uni04FD" unicode="&#x4fd;" horiz-adv-x="1030" 
d="M283 1082l227 -399l230 399h230l-351 -535l361 -547h-226l-240 409l-240 -409h-228l361 547l-351 535h227zM889 154h197v-243q0 -166 -85.5 -257t-239.5 -91q-53 0 -111 18l14 160q15 -5 46 -8q28 -4 51 -4q60 0 94 47.5t34 134.5v243z" />
    <glyph glyph-name="uni04FE" unicode="&#x4fe;" horiz-adv-x="1295" 
d="M981 822v-155h-172l429 -667h-235l-349 578l-350 -578h-238l429 667h-155v155h141l-405 634h236l338 -568l340 568h238l-406 -634h159z" />
    <glyph glyph-name="uni04FF" unicode="&#x4ff;" horiz-adv-x="1030" 
d="M824 633v-155h-160l316 -478h-226l-240 409l-240 -409h-228l315 478h-178v155h167l-294 449h227l227 -399l230 399h230l-295 -449h149z" />
    <glyph glyph-name="uni0500" unicode="&#x500;" horiz-adv-x="1287" 
d="M582 880h359v576h197v-1456h-556q-233 0 -362 123t-129 321q0 197 128 316q129 120 363 120zM582 154h359v571h-359q-147 0 -221 -80q-73 -79 -73 -199q0 -123 73 -208q73 -84 221 -84z" />
    <glyph glyph-name="uni0501" unicode="&#x501;" 
d="M98 500v21q0 261 111 421q112 160 313 160q95 0 170 -36q73 -34 124 -71v565h197v-1560h-151l-27 118q-57 -48 -133 -92q-80 -47 -182 -47q-197 0 -310 143q-112 143 -112 378zM295 521v-21q0 -165 67 -263q68 -98 188 -98q76 4 149 40q71 35 117 72v587q-34 28 -105 66
t-139 38q-142 0 -210 -117q-67 -116 -67 -304z" />
    </font>
</defs>
</svg>
