<?xml version="1.0" standalone="no"?>
<!DOCTYPE svg PUBLIC "-//W3C//DTD SVG 1.1//EN" "http://www.w3.org/Graphics/SVG/1.1/DTD/svg11.dtd" >
<svg>
<metadata>
Created by FontForge 20090622 at Tue May 10 19:43:08 2016
 By deploy user
Copyright (c) 2014 by Jan-Christian Bruun, JC Design. All rights reserved.
</metadata>
<defs>
<font id="Centuma-Bold" horiz-adv-x="1156" >
  <font-face 
    font-family="Centuma"
    font-weight="700"
    font-stretch="normal"
    units-per-em="2048"
    panose-1="2 0 0 0 0 0 0 0 0 0"
    ascent="1536"
    descent="-512"
    x-height="1082"
    cap-height="1456"
    bbox="-1035 -528 2450 2172"
    underline-thickness="100"
    underline-position="-100"
    unicode-range="U+0009-U+FEFF"
  />
<missing-glyph horiz-adv-x="510" 
 />
    <glyph glyph-name="fi" unicode="fi" horiz-adv-x="1249" 
d="M473 0h-292v877h-161v205h161v74q0 205 124 314q125 111 351 111q80 0 154 -16q68 -13 176 -44l-42 -230q-70 21 -133 34q-58 12 -136 12q-202 0 -202 -181v-74h213v-205h-213v-877zM1121 1082v-1082h-292v1082h292z" />
    <glyph glyph-name=".notdef" horiz-adv-x="510" 
 />
    <glyph glyph-name=".null" horiz-adv-x="0" 
 />
    <glyph glyph-name="nonmarkingreturn" horiz-adv-x="682" 
 />
    <glyph glyph-name="uni0002" horiz-adv-x="0" 
 />
    <glyph glyph-name="uni0002" horiz-adv-x="0" 
 />
    <glyph glyph-name="uni0009" unicode="&#x9;" horiz-adv-x="0" 
 />
    <glyph glyph-name="CR" unicode="&#xd;" horiz-adv-x="510" 
 />
    <glyph glyph-name="space" unicode=" " horiz-adv-x="510" 
 />
    <glyph glyph-name="exclam" unicode="!" horiz-adv-x="557" 
d="M426 1456v-954h-292v954h292zM426 256v-256h-292v256h292z" />
    <glyph glyph-name="quotedbl" unicode="&#x22;" horiz-adv-x="832" 
d="M372 1456v-275l-102 -249h-129v524h231zM713 1456v-275l-102 -249h-128v524h230z" />
    <glyph glyph-name="numbersign" unicode="#" horiz-adv-x="1219" 
d="M578 0l72 410h-192l-71 -410h-184l72 410h-227v169h256l51 290h-232v171h262l73 416h183l-73 -416h192l74 416h183l-73 -416h220v-171h-250l-51 -290h225v-169h-254l-72 -410h-184zM538 869l-50 -290h191l51 290h-192z" />
    <glyph glyph-name="dollar" unicode="$" horiz-adv-x="1216" 
d="M1163 390q0 -94 -38.5 -168.5t-104.5 -121.5t-146 -74t-172 -35v-205h-159v204q-277 16 -491 126l58 256q214 -146 520 -146q240 0 240 162q0 86 -69 139t-194 92q-57 17 -99.5 32t-99 39t-98 49t-85 61t-71 75.5t-45 92t-17.5 111.5q0 91 40 166.5t107.5 124.5
t149.5 77.5t173 35.5v205h160v-207q196 -14 367 -93l-72 -252q-204 114 -406 114q-108 0 -167 -45.5t-59 -126.5q0 -26 9.5 -50t23.5 -41.5t38.5 -35t44 -28.5t52 -24.5t50.5 -19.5l50 -17l18 -6q86 -24 152 -49.5t133 -65t110 -87t70 -115t27 -149.5z" />
    <glyph glyph-name="percent" unicode="%" horiz-adv-x="1513" 
d="M95 1099v77q0 129 83 215q84 86 233 86q151 0 234 -86t83 -215v-77q0 -128 -83 -214q-82 -85 -232 -85t-234 85t-84 214zM289 1176v-77q0 -60 33 -98.5t91 -38.5q56 0 88.5 38.5t32.5 98.5v77q0 60 -33 99.5t-90 39.5t-89.5 -39.5t-32.5 -99.5zM791 280v77q0 129 84 214
q84 86 233 86q150 0 233 -86q84 -86 84 -214v-77q0 -129 -83 -215q-82 -85 -232 -85t-235 85q-84 85 -84 215zM985 357v-77q0 -58 34 -98t91 -40q121 0 121 138v77q0 59 -33 98.5t-90 39.5q-58 0 -90.5 -39t-32.5 -99zM1172 1247l-711 -1138l-142 75l711 1138z" />
    <glyph glyph-name="ampersand" unicode="&#x26;" horiz-adv-x="1346" 
d="M845 856l407 13v-233h-124v-548q-69 -50 -199.5 -79.5t-240.5 -29.5q-84 0 -165.5 16.5t-156 52t-131 85t-90 120.5t-33.5 155q0 123 61.5 211t175.5 131q-99 47 -157.5 131.5t-58.5 183.5q0 194 154 303t401 109q121 0 241 -27.5t202 -83.5l-100 -220q-29 20 -51 32.5
t-67 32.5t-102 31t-123 11q-96 0 -179 -54t-83 -137q0 -87 49.5 -139.5t136.5 -63.5v-225q-97 -9 -153 -65.5t-56 -156.5q0 -60 45.5 -109.5t110 -74t129.5 -24.5q87 0 157 17v635z" />
    <glyph glyph-name="quotesingle" unicode="'" horiz-adv-x="442" 
d="M352 1456v-269l-102 -283h-159v552h261z" />
    <glyph glyph-name="parenleft" unicode="(" horiz-adv-x="711" 
d="M124 570v22q0 391 152 665q151 274 344 355h6l53 -146q-131 -98 -220 -316q-89 -219 -89 -556v-26q0 -338 89 -557q88 -216 220 -318l-53 -143h-6q-193 81 -344 354q-152 274 -152 666z" />
    <glyph glyph-name="parenright" unicode=")" horiz-adv-x="713" 
d="M602 592v-22q0 -383 -159 -661q-158 -279 -352 -359h-6l-54 143q129 97 219 317q90 219 90 558v26q0 337 -91 556q-92 222 -218 320l54 142h6q194 -80 352 -359q159 -279 159 -661z" />
    <glyph glyph-name="asterisk" unicode="*" horiz-adv-x="857" 
d="M133 455l145 210l-229 76l54 170l240 -79l2 249h176l7 -257l230 78l53 -171l-233 -79l138 -202l-144 -106l-149 208l-145 -199z" />
    <glyph glyph-name="plus" unicode="+" horiz-adv-x="1117" 
d="M694 1206v-394h360v-252h-360v-414h-276v414h-362v252h362v394h276z" />
    <glyph glyph-name="comma" unicode="," horiz-adv-x="528" 
d="M417 250v-237l-159 -315h-195l70 324v228h284z" />
    <glyph glyph-name="hyphen" unicode="-" horiz-adv-x="892" 
d="M735 735v-225h-589v225h589z" />
    <glyph glyph-name="period" unicode="." horiz-adv-x="596" 
d="M436 256v-256h-292v256h292z" />
    <glyph glyph-name="slash" unicode="/" horiz-adv-x="825" 
d="M804 1456l-534 -1581h-284l534 1581h284z" />
    <glyph glyph-name="zero" unicode="0" horiz-adv-x="1175" 
d="M1080 928v-401q0 -257 -135 -402q-134 -146 -356 -146q-224 0 -359 146q-135 145 -135 402v401q0 254 134 402q135 147 358 147q222 0 357 -147q136 -146 136 -402zM789 499v459q0 140 -53 217t-149 77t-148.5 -77t-52.5 -217v-459q0 -143 53 -219.5t150 -76.5
q96 0 148 76.5t52 219.5z" />
    <glyph glyph-name="one" unicode="1" horiz-adv-x="851" 
d="M648 1477v-1477h-291v1202l-280 -27v250z" />
    <glyph glyph-name="two" unicode="2" horiz-adv-x="1175" 
d="M499 224h595v-224h-977v191l451 510q99 120 130 171q56 93 56 182q0 90 -59 141t-164 51q-44 0 -90.5 -8t-111.5 -38.5t-112 -81.5l-115 227q177 132 429 132q251 0 383 -107t132 -315q0 -44 -7.5 -84.5t-26.5 -81.5t-35.5 -72t-50.5 -75.5l-55 -70l-66.5 -78.5
l-67.5 -79l-240 -284z" />
    <glyph glyph-name="three" unicode="3" horiz-adv-x="1175" 
d="M861 749q114 -42 175.5 -130t61.5 -212q0 -104 -47.5 -187.5t-126.5 -135t-176.5 -78.5t-202.5 -27q-111 0 -241.5 29t-199.5 79l87 226q40 -39 132 -74.5t222 -35.5q100 0 181 58.5t81 149.5q0 111 -68 168t-183 57h-154v220h154q105 0 166.5 54.5t61.5 151.5
q0 84 -72.5 137t-166.5 53q-40 0 -76 -3.5t-62 -8t-53.5 -13.5t-43 -15t-36.5 -18.5t-28 -17t-24.5 -17.5t-19.5 -14l-100 221q61 52 191 81.5t252 29.5q244 0 387.5 -108.5t143.5 -304.5q0 -99 -58 -183t-157 -132z" />
    <glyph glyph-name="four" unicode="4" horiz-adv-x="1081" 
d="M653 569l22 200h285v-769h-307v307h-599l1 239l598 907v3h336l-604 -887h268z" />
    <glyph glyph-name="five" unicode="5" horiz-adv-x="1175" 
d="M660 953q105 1 187 -34.5t134 -101.5t78.5 -154.5t26.5 -195.5q0 -225 -139 -356.5t-383 -131.5q-304 0 -467 122l94 233q54 -37 84 -55.5t76.5 -39t97 -28.5t115.5 -8q107 0 168.5 66.5t61.5 195.5t-53 202t-153 73q-64 0 -129 -24.5t-106 -56.5l-203 106l73 691h812
l-13 -234h-560l-40 -340q91 66 238 71z" />
    <glyph glyph-name="six" unicode="6" horiz-adv-x="1175" 
d="M669 1477q85 0 189 -18q101 -16 191 -49l-56 -221q-177 59 -322 59q-127 0 -207 -98q-78 -98 -78 -273v-35q139 108 318 108q187 0 292 -133q105 -132 105 -345q0 -220 -136 -356q-137 -137 -355 -137q-228 0 -372 156q-143 157 -143 427v305q0 277 162 443
q164 167 412 167zM607 729q-50 0 -110 -28q-60 -26 -111 -68v-78q0 -169 61 -260q62 -92 163 -92q91 0 145 76t54 193q0 120 -54.5 188.5t-147.5 68.5z" />
    <glyph glyph-name="seven" unicode="7" horiz-adv-x="1175" 
d="M1095 1456v-225q-248 -290 -336 -521q-89 -232 -89 -530v-180h-292v180q0 304 111 554q114 253 325 497h-743v225h1024z" />
    <glyph glyph-name="eight" unicode="8" horiz-adv-x="1175" 
d="M889 736q96 -51 156 -137t60 -193q0 -109 -39.5 -192.5t-109 -134t-158 -75.5t-193.5 -25q-80 0 -153 13t-141.5 44.5t-118.5 79t-80 122t-30 168.5q0 66 22 126.5t58.5 105.5t70.5 76t72 56q-84 50 -129 130.5t-45 178.5q0 103 37 181t103 124.5t149.5 69.5t182.5 23
q98 0 178 -22.5t143 -69t97.5 -124.5t34.5 -182q0 -101 -51 -189.5t-116 -153.5zM603 1252q-85 0 -132.5 -46t-47.5 -141q0 -28 8 -53.5t18 -43.5t32.5 -37t37 -29.5t48.5 -26.5l49 -23t55 -23q40 44 63.5 103t27.5 96l3 37q0 94 -43.5 140.5t-118.5 46.5zM605 203
q95 0 151.5 54.5t56.5 162.5q0 27 -9 52t-21 44t-35 38t-41 31.5t-49.5 28.5t-50 24l-53 22.5t-47.5 20.5q-56 -43 -89 -108t-38 -109l-5 -44q0 -104 62.5 -159.5t167.5 -57.5z" />
    <glyph glyph-name="nine" unicode="9" horiz-adv-x="1175" 
d="M532 203q108 0 177 81q69 82 69 228v67q-53 -39 -116 -68q-69 -32 -144 -32q-204 0 -319 132q-115 131 -115 359q0 218 137 363q136 144 350 144q220 0 359 -148t139 -410v-392q0 -251 -152 -400q-151 -148 -385 -148q-124 0 -231 24q-105 24 -173 53l60 235
q107 -54 187 -71q83 -17 157 -17zM567 693q122 0 211 91v186q0 135 -55.5 208.5t-150.5 73.5q-88 0 -142 -82q-54 -81 -54 -200q0 -125 49 -201t142 -76z" />
    <glyph glyph-name="colon" unicode=":" horiz-adv-x="582" 
d="M436 256v-256h-292v256h292zM436 1132v-256h-292v256h292z" />
    <glyph glyph-name="semicolon" unicode=";" horiz-adv-x="562" 
d="M437 1132v-256h-292v256h292zM468 250v-237l-159 -315h-195l70 324v228h284z" />
    <glyph glyph-name="less" unicode="&#x3c;" horiz-adv-x="1043" 
d="M916 757l-577 -207v-6l577 -203v-272l-862 367v227l862 366v-272z" />
    <glyph glyph-name="equal" unicode="=" horiz-adv-x="1181" 
d="M1032 992v-229h-896v229h896zM1032 561v-229h-896v229h896z" />
    <glyph glyph-name="greater" unicode="&#x3e;" horiz-adv-x="1058" 
d="M119 330l586 209v6l-586 206v269l872 -366v-227l-872 -367v270z" />
    <glyph glyph-name="question" unicode="?" horiz-adv-x="1021" 
d="M617 0v250h-294v-250h294zM496 1476q221 0 349.5 -106.5t128.5 -315.5q0 -123 -73 -233t-187 -182q-59 -45 -81 -95q-18 -48 -18 -131h-291q2 143 41 206q27 42 86 97l107 97.5t86.5 106t38.5 131.5q0 93 -49 145t-138 52q-165 0 -241 -100l-173 207q62 55 182 88t232 33
z" />
    <glyph glyph-name="at" unicode="@" horiz-adv-x="1817" 
d="M1730 513q-9 -218 -128 -376t-356 -158q-78 0 -135 44t-81 123q-89 -164 -263 -164q-140 0 -217 119q-75 118 -55 315q26 256 143 407q118 153 288 153q114 0 186 -26q70 -25 155 -80l-3 -4h5l-51 -573q-8 -95 14 -130q21 -35 57 -35q115 0 184 109q71 109 78 276
q16 352 -137 551q-152 198 -471 198q-303 0 -484 -213q-181 -212 -196 -571q-17 -356 146 -560q163 -205 469 -205q83 0 175 20q90 19 156 50l38 -147q-69 -43 -171 -65q-103 -24 -202 -24q-396 0 -611 249q-214 248 -197 682q18 426 255 683q239 257 626 257t593 -243
t190 -662zM720 416q-10 -126 18.5 -192t92.5 -66q60 0 104.5 27.5t78.5 94.5q0 8 1 13l44 496q-52 15 -94 15q-110 0 -168.5 -95t-76.5 -293z" />
    <glyph glyph-name="A" unicode="A" horiz-adv-x="1303" 
d="M992 0l-99 314h-472l-98 -314h-305l491 1456h299l489 -1456h-305zM655 1056l-162 -513h329l-161 513h-6z" />
    <glyph glyph-name="B" unicode="B" horiz-adv-x="1305" 
d="M697 0h-563v1456h477q256 0 401 -101q144 -100 144 -298q0 -101 -53 -180t-151 -118q136 -25 205 -118t69 -217q0 -208 -137 -316t-392 -108zM694 644h-268v-420h271q117 0 177.5 50.5t60.5 149.5q0 107 -60.5 163.5t-180.5 56.5zM426 1231v-385h195q118 0 180.5 48
t62.5 140q0 197 -253 197h-185z" />
    <glyph glyph-name="C" unicode="C" horiz-adv-x="1281" 
d="M1151 318l48 -233q-189 -106 -440 -106q-123 0 -220.5 17.5t-181.5 60t-139.5 111t-87 173t-31.5 242.5v289q0 128 32 229.5t88.5 171t138.5 116t178.5 67.5t211.5 21q268 0 439 -102l-50 -231q-73 48 -178.5 75t-210.5 27q-181 0 -272.5 -92.5t-85.5 -279.5v-291
q0 -96 31 -169t85 -115t117.5 -63t135.5 -23q95 -2 205.5 27.5t186.5 77.5z" />
    <glyph glyph-name="D" unicode="D" horiz-adv-x="1355" 
d="M642 0h-508v1456h508q320 0 466 -171q147 -169 147 -437v-241q0 -269 -136 -438q-135 -169 -477 -169zM642 1231h-216v-1007h216q144 0 232 94t88 289v243q0 202 -88 291q-88 90 -232 90z" />
    <glyph glyph-name="E" unicode="E" horiz-adv-x="1139" 
d="M966 865v-225h-540v-416h642l1 -224h-935v1456h932v-225h-640v-366h540z" />
    <glyph glyph-name="F" unicode="F" horiz-adv-x="1139" 
d="M985 830v-225h-559v-605h-292v1456h953v-225h-661v-401h559z" />
    <glyph glyph-name="G" unicode="G" horiz-adv-x="1364" 
d="M677 774h573v-575q-98 -116 -233.5 -168t-317.5 -52q-171 0 -309 75t-216.5 212.5t-74.5 309.5v304q-7 256 161 426.5t422 170.5q313 0 502 -127l-93 -234q-171 125 -403 125q-152 0 -225 -93.5t-73 -265.5v-306q-4 -154 80 -263.5t229 -109.5q183 0 259 74v282h-281v215
z" />
    <glyph glyph-name="H" unicode="H" horiz-adv-x="1445" 
d="M1311 1456v-1456h-292v605h-593v-605h-292v1456h292v-626h593v626h292z" />
    <glyph glyph-name="I" unicode="I" horiz-adv-x="601" 
d="M446 1456v-1456h-292v1456h292z" />
    <glyph glyph-name="J" unicode="J" horiz-adv-x="1137" 
d="M714 1456h291v-1005q1 -218 -126.5 -345t-346.5 -127q-273 0 -401 119l140 222q65 -56 126 -77.5t135 -21.5q94 0 138 52.5t44 177.5v1005z" />
    <glyph glyph-name="K" unicode="K" horiz-adv-x="1305" 
d="M1282 35v-35h-347l-402 608l-107 18v-626h-292v1456h292v-609l82 14l399 595h344v-22l-487 -655z" />
    <glyph glyph-name="L" unicode="L" horiz-adv-x="1138" 
d="M426 1456v-1232h652v-224h-944v1456h292z" />
    <glyph glyph-name="M" unicode="M" horiz-adv-x="1782" 
d="M508 1456l373 -801h15l381 801h371v-1456h-292v994l-6 1l-360 -702h-198l-360 704l-6 -1v-996h-292v1456h374z" />
    <glyph glyph-name="N" unicode="N" horiz-adv-x="1445" 
d="M1311 1456v-1456h-292l-587 982l-6 -1v-981h-292v1456h292l587 -981l6 1v980h292z" />
    <glyph glyph-name="O" unicode="O" horiz-adv-x="1409" 
d="M1312 859v-262q0 -323 -146 -471q-146 -147 -463 -147q-321 0 -464 147q-142 146 -142 471v262q0 327 141 472q143 146 463 146q323 0 467 -150q144 -149 144 -468zM1021 597v264q0 198 -73 292q-72 96 -247 96q-165 0 -239 -94t-74 -294v-264q0 -209 76 -300t239 -91
q170 0 244 89t74 302z" />
    <glyph glyph-name="P" unicode="P" horiz-adv-x="1305" 
d="M691 528h-265v-528h-292v1456h557q250 0 395 -128q144 -128 144 -337t-144 -336q-143 -127 -395 -127zM426 1231v-478h265q122 0 185 66q63 67 63 170q0 105 -63 173q-61 69 -185 69h-265z" />
    <glyph glyph-name="Q" unicode="Q" horiz-adv-x="1441" 
d="M1312 859v-262q0 -220 -117 -382l217 -217l-191 -156l-213 210q-135 -73 -305 -73q-270 0 -438 175q-168 176 -168 443v262q0 266 167 442q168 176 437 176q271 0 441 -176t170 -442zM1021 597v264q0 170 -85 279t-235 109q-149 0 -231 -109t-82 -279v-264
q0 -172 83 -282q82 -109 232 -109t234 109t84 282z" />
    <glyph glyph-name="R" unicode="R" horiz-adv-x="1305" 
d="M1195 990q0 -316 -278 -418l262 -496v-77h-287l-260 529h-202v-528h-293v1456h519q152 4 273.5 -49t193.5 -161t72 -256zM430 1231v-478h226q114 -4 181.5 61t67.5 174q0 111 -67.5 178.5t-181.5 64.5h-226z" />
    <glyph glyph-name="S" unicode="S" horiz-adv-x="1266" 
d="M695 848q86 -24 152 -49.5t133 -65t110 -87t70 -115t27 -149.5q0 -103 -46 -182.5t-123.5 -126t-169.5 -70t-194 -23.5q-327 0 -578 128l59 256q213 -146 519 -146q240 0 240 162q0 86 -69 139t-194 92q-57 17 -99.5 32t-99 39t-97.5 49t-84.5 61t-71 75.5t-45 92
t-17.5 111.5q0 79 30 146.5t81 114.5t118.5 80t141.5 49t151 16q263 0 475 -97l-73 -252q-204 114 -406 114q-108 0 -167 -45.5t-59 -126.5q0 -108 161 -177q32 -13 125 -45z" />
    <glyph glyph-name="T" unicode="T" horiz-adv-x="1175" 
d="M1149 1456v-225h-416v-1231h-292v1231h-410v225h1118z" />
    <glyph glyph-name="U" unicode="U" horiz-adv-x="1407" 
d="M995 1456h293v-953q0 -246 -163 -385t-423 -139t-421 139q-161 140 -161 385v953h293v-953q0 -144 77 -222t212 -78q137 0 215 78t78 222v953z" />
    <glyph glyph-name="V" unicode="V" horiz-adv-x="1303" 
d="M315 1456l315 -1061l18 -80h6l17 77l317 1064h308l-495 -1456h-300l-494 1456h308z" />
    <glyph glyph-name="W" unicode="W" horiz-adv-x="1804" 
d="M1021 1183l262 -715h6l193 988h301l-340 -1456h-265l-270 747h-14l-269 -747h-265l-340 1456h301l194 -987h6l260 714h240z" />
    <glyph glyph-name="X" unicode="X" horiz-adv-x="1303" 
d="M380 1456l269 -516l273 516h340l-432 -722l457 -734h-353l-281 525l-281 -525h-341l443 734l-432 722h338z" />
    <glyph glyph-name="Y" unicode="Y" horiz-adv-x="1303" 
d="M330 1456l318 -671h6l318 671h320l-499 -944v-512h-292v527l-491 929h320z" />
    <glyph glyph-name="Z" unicode="Z" horiz-adv-x="1163" 
d="M1072 1310l-651 -1086h668v-224h-1012v152l648 1079h-647v225h994v-146z" />
    <glyph glyph-name="bracketleft" unicode="[" horiz-adv-x="570" 
d="M553 1691v-216h-141v-1595h141v-216h-434v2027h434z" />
    <glyph glyph-name="backslash" unicode="\" horiz-adv-x="863" 
d="M610 -125l-608 1581h289l608 -1581h-289z" />
    <glyph glyph-name="bracketright" unicode="]" horiz-adv-x="570" 
d="M13 1475v216h434v-2027h-434v216h142v1595h-142z" />
    <glyph glyph-name="asciicircum" unicode="^" horiz-adv-x="896" 
d="M437 1142l-162 -413h-231l299 727h212l299 -727h-231l-165 413l-8 34h-6z" />
    <glyph glyph-name="underscore" unicode="_" horiz-adv-x="914" 
d="M911 0v-219h-910v219h910z" />
    <glyph glyph-name="grave" unicode="`" horiz-adv-x="678" 
d="M381 1518l196 -266h-251l-272 260l2 6h325z" />
    <glyph glyph-name="a" unicode="a" horiz-adv-x="1100" 
d="M993 723l1 -723h-254q-17 72 -24 111q-41 -61 -122.5 -96.5t-181.5 -35.5q-162 0 -258.5 84t-96.5 241q0 163 124 253t357 82q48 -2 89 -8t58 -11l17 -5v110q0 147 -161 147q-177 0 -368 -72l-46 224q205 78 431 78q102 0 179 -19.5t136 -62t89.5 -117.5t30.5 -180z
M702 241v200q-70 25 -164 25q-96 0 -142 -30.5t-46 -101.5q0 -140 133 -140q135 0 219 47z" />
    <glyph glyph-name="b" unicode="b" 
d="M1088 532v-21q0 -241 -108 -387q-108 -145 -312 -145q-96 0 -166 40q-69 40 -124 93l-21 -112h-245v1560h291v-567q46 39 112 74q67 35 151 35q206 0 314 -156q108 -154 108 -414zM797 511v21q0 158 -47 250q-46 93 -158 93q-68 0 -115 -29q-50 -31 -74 -48v-517
q30 -25 74 -49q49 -26 117 -26q113 0 158 79t45 226z" />
    <glyph glyph-name="c" unicode="c" horiz-adv-x="1028" 
d="M571 212q170 0 321 88l49 -232q-169 -89 -370 -89q-509 0 -509 546v30q0 287 126.5 417t381.5 130q105 0 192 -17t175 -67l-40 -225q-133 77 -327 77q-123 0 -169.5 -76t-46.5 -239v-30q0 -67 9.5 -118.5t32 -97t67 -71t108.5 -26.5z" />
    <glyph glyph-name="d" unicode="d" 
d="M67 511v21q0 255 110 413q111 157 312 157q155 0 260 -131v589h293v-1560h-247l-19 116q-141 -137 -289 -137q-199 0 -310 146q-110 146 -110 386zM358 532v-21q0 -305 204 -305q64 0 110 25q40 22 77 46v515q-29 24 -77 54q-47 29 -108 29q-107 0 -157 -95
q-49 -94 -49 -248z" />
    <glyph glyph-name="e" unicode="e" horiz-adv-x="1071" 
d="M581 -21q-242 0 -378 148t-136 383v40q0 243 132 398q133 155 363 154q218 0 334 -134q117 -133 117 -359v-151h-648v-6q8 -112 67 -180q62 -69 180 -69q189 0 343 83l67 -221q-73 -29 -201 -59q-121 -27 -240 -27zM562 877q-85 0 -134 -59t-59 -162v-15h358v32
q0 204 -165 204z" />
    <glyph glyph-name="f" unicode="f" horiz-adv-x="714" 
d="M480 0h-292v877h-161v205h161v120q0 182 105 280q105 99 295 99q49 0 143 -2l-16 -231q-28 4 -47 4q-9 1 -44 1q-71 0 -107.5 -39t-36.5 -112v-120h208v-205h-208v-877z" />
    <glyph glyph-name="g" unicode="g" 
d="M1110 1077v-226l-130 8q18 -44 24 -73t6 -82q-7 -190 -124.5 -290t-343.5 -100q-86 0 -118.5 -12t-32.5 -43q0 -33 33 -44t122 -11q119 0 200 -6.5t154 -24.5t115.5 -51.5t66.5 -87t24 -130.5q0 -154 -129 -224t-399 -70q-287 0 -407 71t-120 234q0 85 64 139t171 54
q-51 7 -84 20.5t-48 35.5t-19.5 43t-4.5 53q0 99 118 125q-100 39 -150 131t-50 188q9 393 486 393q135 0 214 -25zM579 -9q-264 0 -264 -80q0 -93 266 -93q261 0 261 88q0 28 -19.5 45.5t-79.5 28.5t-164 11zM726 704q0 96 -55.5 141.5t-146.5 45.5q-95 0 -145.5 -40
t-51.5 -147q14 -185 212 -185q92 0 135 48t52 137z" />
    <glyph glyph-name="h" unicode="h" 
d="M397 1560v-615q108 157 289 157q169 0 265 -113q97 -112 97 -347v-642h-292v644q0 123 -39.5 177t-122.5 54q-133 0 -197 -83v-792h-292v1560h292z" />
    <glyph glyph-name="i" unicode="i" horiz-adv-x="547" 
d="M419 1082v-1082h-292v1082h292zM419 1560v-262h-292v262h292z" />
    <glyph glyph-name="j" unicode="j" horiz-adv-x="543" 
d="M134 1082h293v-1122q0 -189 -101 -293t-281 -104q-74 0 -143 17l14 223q47 -12 95 -12q123 0 123 169v1122zM426 1560v-262h-292v262h292z" />
    <glyph glyph-name="k" unicode="k" horiz-adv-x="1097" 
d="M1098 18v-18h-320l-300 453l-74 11v-464h-292v1560h292v-895l65 10l259 407h321v-18l-335 -475z" />
    <glyph glyph-name="l" unicode="l" horiz-adv-x="547" 
d="M419 1560v-1560h-292v1560h292z" />
    <glyph glyph-name="m" unicode="m" horiz-adv-x="1772" 
d="M112 1082h267l16 -128q122 148 312 148q214 0 290 -185q107 185 318 185q164 0 254.5 -116t90.5 -344v-642h-292v643q0 131 -40 181q-40 51 -119 51q-62 0 -108 -28q-44 -26 -73 -54q3 -41 3 -82v-711h-291v643q0 124 -39 178t-121 54q-91 0 -177 -68v-807h-291v1082z
" />
    <glyph glyph-name="n" unicode="n" 
d="M107 1082h250l28 -126q61 59 139 102q80 44 178 44q165 0 256 -106q92 -106 92 -333v-663h-293v662q0 114 -39.5 163.5t-122.5 49.5q-95 0 -196 -66v-809h-292v1082z" />
    <glyph glyph-name="o" unicode="o" 
d="M67 530v21q0 293 135 422t374 129t376 -132q136 -132 136 -419v-21q0 -290 -136 -420q-136 -131 -374 -131q-239 0 -376 131q-135 130 -135 420zM358 551v-21q0 -179 52 -253q53 -74 168 -74q112 0 165 74q53 76 53 253v21q0 184 -53 255t-167 71q-113 0 -166 -71
q-52 -70 -52 -255z" />
    <glyph glyph-name="p" unicode="p" 
d="M1088 532v-21q0 -241 -111 -386q-111 -146 -310 -146q-86 0 -151 31q-64 30 -113 67v-493h-291v1498h257l19 -104q57 51 119 85q67 39 158 39q201 0 312 -157t111 -413zM796 511v21q0 154 -51 248q-51 95 -156 95q-67 0 -113 -27q-45 -26 -73 -48v-532q100 -65 188 -65
q103 0 154 81t51 227z" />
    <glyph glyph-name="q" unicode="q" 
d="M67 511v21q0 255 110 413q111 157 312 157q155 0 277 -135l25 115h248v-1498h-292v496q-51 -38 -114 -69q-64 -32 -146 -32q-199 0 -310 146q-110 146 -110 386zM358 532v-21q0 -143 48 -225q48 -83 156 -83q63 0 110 24q46 24 75 42v533q-33 26 -75 49q-46 26 -108 26
q-108 0 -157 -96q-49 -95 -49 -249z" />
    <glyph glyph-name="r" unicode="r" horiz-adv-x="721" 
d="M704 1090l-1 -258q-60 3 -144 -1q-86 -3 -156 -20v-811h-291v1082h271l13 -123q37 47 94 95t136 48q35 0 78 -12z" />
    <glyph glyph-name="s" unicode="s" horiz-adv-x="1056" 
d="M586 642q202 -40 298 -118.5t96 -212.5q0 -84 -39.5 -149.5t-105 -104t-144.5 -58.5t-166 -20q-85 0 -159.5 10.5t-131 30.5t-88.5 34t-69 35l79 217q85 -59 188.5 -83t186.5 -24q166 0 166 101q0 33 -21 59t-59.5 42t-68 25t-70.5 17q-194 39 -290.5 117t-96.5 207
q0 111 61 188.5t156.5 112t214.5 34.5q129 0 242 -29.5t184 -73.5l-113 -204q-146 87 -313 87q-71 0 -111.5 -26t-40.5 -76q0 -34 19 -59.5t52 -39.5t64 -22t67 -15q9 -1 13 -2z" />
    <glyph glyph-name="t" unicode="t" horiz-adv-x="713" 
d="M149 1301l291 46v-265h183v-205h-183v-551q0 -70 46.5 -95t139.5 -13l14 -217q-16 -2 -43 -7t-44.5 -7.5t-42 -5t-47.5 -2.5q-314 0 -314 346v976z" />
    <glyph glyph-name="u" unicode="u" 
d="M816 0l-29 111q-63 -49 -139 -90q-76 -42 -179 -42q-175 0 -269.5 118.5t-94.5 357.5v627h291v-629q0 -142 38 -195q39 -52 120 -52q72 0 120 22q43 19 82 40v814h292v-1082h-232z" />
    <glyph glyph-name="v" unicode="v" horiz-adv-x="1046" 
d="M321 1082l182 -679l19 -100h6l20 100l178 679h305l-368 -1082h-279l-368 1082h305z" />
    <glyph glyph-name="w" unicode="w" horiz-adv-x="1507" 
d="M852 894l201 -492h6l131 680h284l-275 -1082h-223l-219 533h-13l-219 -533h-221l-275 1082h284l133 -677h6l199 489h201z" />
    <glyph glyph-name="x" unicode="x" horiz-adv-x="1046" 
d="M357 1082l162 -344h6l166 344h330l-326 -535l337 -547h-329l-177 359l-177 -359h-330l337 547l-327 535h328z" />
    <glyph glyph-name="y" unicode="y" horiz-adv-x="1046" 
d="M319 1082l183 -628l12 -60h6l207 688h314l-439 -1244q-47 -117 -125 -195q-80 -80 -237 -80q-33 0 -150 9l8 229q64 -8 86 -8q122 0 171 124l34 84l-384 1081h314z" />
    <glyph glyph-name="z" unicode="z" horiz-adv-x="1046" 
d="M957 915l-519 -691h536v-224h-899v172l515 684h-499v226h866v-167z" />
    <glyph glyph-name="braceleft" unicode="{" horiz-adv-x="676" 
d="M641 -202l-56 -158q-196 56 -278 175t-82 291v203q0 101 -44.5 155t-132.5 54v201q177 0 177 210v203q0 172 82 290q82 119 278 175l56 -157q-155 -56 -155 -308v-203q0 -106 -45 -186t-134 -124q89 -47 134 -126.5t45 -183.5v-203q0 -252 155 -308z" />
    <glyph glyph-name="bar" unicode="|" horiz-adv-x="519" 
d="M374 1456v-1726h-231v1726h231z" />
    <glyph glyph-name="braceright" unicode="}" horiz-adv-x="676" 
d="M90 -360l-56 158q155 56 155 308v203q0 106 47 185.5t139 123.5q-92 44 -139 124t-47 187v203q0 252 -155 308l56 157q195 -56 277 -175q83 -119 83 -290v-203q0 -210 178 -210v-201q-178 0 -178 -209v-203q0 -170 -83 -291q-82 -119 -277 -175z" />
    <glyph glyph-name="asciitilde" unicode="~" horiz-adv-x="1327" 
d="M1017 785l203 -27q0 -161 -89 -271q-88 -109 -223 -109q-84 0 -156.5 31.5t-150.5 101.5q-54 46 -91 65t-80 19q-52 0 -88 -51q-35 -52 -35 -122l-202 26q0 162 86 269q87 108 224 108q157 0 310 -133q50 -46 87.5 -65t80.5 -19q50 0 87 52t37 125z" />
    <glyph glyph-name="nbspace" unicode="&#xa0;" horiz-adv-x="510" 
 />
    <glyph glyph-name="exclamdown" unicode="&#xa1;" horiz-adv-x="580" 
d="M434 579v-953h-292v953h292zM434 1082v-257h-292v257h292z" />
    <glyph glyph-name="cent" unicode="&#xa2;" horiz-adv-x="1181" 
d="M1026 64q-126 -66 -272 -83v-226h-200v226q-406 52 -406 540v30q0 257 101.5 387.5t304.5 154.5v225h200v-224q150 -12 269 -89l-67 -218q-111 86 -300 86q-216 0 -216 -322v-30q0 -64 11 -117.5t35 -99t67.5 -71t103.5 -25.5q179 0 302 77z" />
    <glyph glyph-name="sterling" unicode="&#xa3;" horiz-adv-x="1216" 
d="M439 224h713v-224h-996v224h10q89 39 94 266l-4 98h-164v225h155l-8 214q-4 205 118 327.5t325 122.5q257 0 390 -126l-116 -213q-111 114 -275 114q-70 0 -110 -59t-40 -166l10 -214h355v-225h-345l4 -85q0 -161 -116 -279z" />
    <glyph glyph-name="currency" unicode="&#xa4;" horiz-adv-x="1417" 
d="M1204 -27l-132 134q-158 -127 -361 -127q-205 0 -361 126l-129 -132l-141 144l135 137q-100 155 -100 353q0 205 109 365l-144 147l141 144l142 -145q156 115 348 115q193 0 349 -117l144 148l142 -145l-148 -151q107 -164 107 -361q0 -193 -98 -349l139 -141zM301 608
q0 -184 119 -312q118 -127 291 -127q171 0 289 127q120 128 120 312q0 182 -120 310q-118 127 -289 127q-173 0 -291 -127q-119 -128 -119 -310z" />
    <glyph glyph-name="yen" unicode="&#xa5;" horiz-adv-x="1253" 
d="M343 1456l280 -608h6l281 608h320l-382 -714h244v-165h-324v-125h324v-164h-324v-288h-292v288h-339v164h339v125h-339v165h267l-382 714h321z" />
    <glyph glyph-name="brokenbar" unicode="&#xa6;" horiz-adv-x="517" 
d="M389 -270h-262v795h262v-795zM389 1456v-758h-262v758h262z" />
    <glyph glyph-name="section" unicode="&#xa7;" horiz-adv-x="1287" 
d="M1018 204q137 -102 137 -289q0 -100 -43.5 -175t-118.5 -118t-164 -63.5t-191 -20.5q-250 0 -487 153l114 204q59 -48 161 -89.5t212 -41.5q106 0 166 41t60 109q0 67 -61 107q-65 43 -230 91q-64 17 -109.5 31t-99 35t-90 43t-73 54t-58 68.5t-35 85.5t-13.5 106
q0 179 163 271q-137 100 -137 289q0 79 29.5 144t79.5 108.5t117.5 73t141 42.5t152.5 13q276 0 458 -143l-150 -205q-61 57 -144 90t-164 33q-110 0 -169 -42.5t-59 -111.5q0 -75 55 -114q56 -38 233 -86q91 -24 152 -44t128.5 -55t107.5 -76.5t66 -104.5t26 -143
q0 -182 -163 -270zM812 305q82 46 82 144q0 43 -15.5 73t-47.5 49t-63.5 30.5t-82.5 28t-85 32.5q-65 16 -139 43q-75 -43 -75 -144q0 -24 4 -44t14.5 -37t19 -29t29 -24l33 -19.5t41.5 -17t44 -14l51 -15l52 -15.5q101 -29 138 -41z" />
    <glyph glyph-name="dieresis" unicode="&#xa8;" horiz-adv-x="1090" 
d="M922 1456v-204h-266v204h266zM422 1456v-204h-266v204h266z" />
    <glyph glyph-name="copyright" unicode="&#xa9;" horiz-adv-x="1606" 
d="M209 729q0 -265 171 -447q173 -182 418 -182q244 0 417 182q172 181 172 447q0 263 -172 444t-417 181q-246 0 -418 -181q-171 -181 -171 -444zM88 729q0 315 207 531t503 216q295 0 502 -216t207 -531q0 -316 -208 -533q-207 -217 -501 -217q-296 0 -503 217
q-207 218 -207 533zM809 1042q-120 0 -187 -82t-68 -216v-33q1 -128 67 -211.5t188 -83.5q60 0 122.5 19t103.5 56l49 -115q-67 -67 -217 -81q-40 -4 -74 -3.5t-57 4.5l-23 3q-148 26 -230 132t-82 280v33q0 165 82 273.5t230 136.5q9 2 23 3.5t56.5 4t74.5 -2.5
q153 -16 218 -84l-48 -118q-41 42 -105 63.5t-123 21.5z" />
    <glyph glyph-name="ordfeminine" unicode="&#xaa;" horiz-adv-x="909" 
d="M776 1212l1 -504h-177q-12 50 -17 77q-29 -42 -85.5 -67t-126.5 -25q-113 0 -180.5 59t-67.5 168q0 114 86.5 176.5t249.5 57.5q33 -1 61.5 -5.5t40.5 -8.5l12 -3v77q0 102 -112 102q-126 0 -257 -50l-32 157q144 54 301 54q147 0 225 -61t78 -204zM573 876v140
q-49 17 -114 17q-67 0 -99 -21t-32 -71q0 -98 92 -98q95 0 153 33z" />
    <glyph glyph-name="guillemotleft" unicode="&#xab;" horiz-adv-x="1025" 
d="M564 915l-240 -400l240 -399h-187l-280 390v19l280 390h187zM899 915l-240 -400l240 -399h-187l-280 390v19l280 390h187z" />
    <glyph glyph-name="logicalnot" unicode="&#xac;" horiz-adv-x="1129" 
d="M961 805v-431h-200v260h-635v171h835z" />
    <glyph glyph-name="uni00AD" unicode="&#xad;" horiz-adv-x="892" 
d="M735 735v-225h-589v225h589z" />
    <glyph glyph-name="registered" unicode="&#xae;" horiz-adv-x="1606" 
d="M88 729q0 315 207 531t503 216q295 0 502 -216t207 -531q0 -316 -208 -533q-207 -217 -501 -217q-296 0 -503 217q-207 218 -207 533zM209 729q0 -267 171 -448q172 -181 418 -181q243 0 416 182q172 181 172 447q0 265 -172 444q-171 181 -416 181q-246 0 -418 -181
q-171 -180 -171 -444zM959 690l165 -333v-41h-145l-157 338h-159v-338h-149v850h280q154 0 239.5 -66t85.5 -191q0 -68 -40.5 -129t-119.5 -90zM925 816q46 31 46 88q0 73 -39.5 102.5t-137.5 29.5h-131v-252h152q66 2 110 32z" />
    <glyph glyph-name="macron" unicode="&#xaf;" horiz-adv-x="1028" 
d="M879 1457v-165h-731v165h731z" />
    <glyph glyph-name="macron" unicode="&#x2c9;" horiz-adv-x="1028" 
d="M879 1457v-165h-731v165h731z" />
    <glyph glyph-name="degree" unicode="&#xb0;" horiz-adv-x="796" 
d="M126 1203q0 111 80 193q81 81 193 81q109 0 189 -81q79 -80 79 -193t-79 -192t-189 -79q-114 0 -193 79q-80 80 -80 192zM273 1203q0 -53 37 -89q38 -35 89 -35t86 35t35 89t-35 91t-86 37q-52 0 -89 -37t-37 -91z" />
    <glyph glyph-name="plusminus" unicode="&#xb1;" horiz-adv-x="1101" 
d="M679 1310v-363h327v-232h-327v-383h-256v383h-333v232h333v363h256zM948 185v-228h-834v228h834z" />
    <glyph glyph-name="twosuperior" unicode="&#xb2;" horiz-adv-x="782" 
d="M325 794h325v-122h-533v104l246 278l52.5 65t32 56.5t16.5 70.5q0 50 -31.5 77.5t-89.5 27.5q-106 0 -171 -70l-63 124q97 72 234 72t209 -58.5t72 -171.5q0 -28 -7.5 -55.5t-15.5 -46.5t-29.5 -49.5t-32 -43.5l-42.5 -50.5l-42 -49.5l-131 -155z" />
    <glyph glyph-name="threesuperior" unicode="&#xb3;" horiz-adv-x="771" 
d="M517 1079q130 -49 130 -187q0 -111 -90 -172.5t-213 -61.5q-61 0 -132 15.5t-109 43.5l48 123q21 -21 71.5 -40.5t121.5 -19.5q55 0 99.5 32t44.5 82q0 61 -37.5 92t-100.5 31h-84v120h84q58 0 91.5 30t33.5 83q0 46 -39.5 75t-91.5 29q-54 0 -97 -12.5t-54.5 -20.5
t-35.5 -26l-55 121q34 29 104.5 45t137.5 16q134 0 212.5 -59.5t78.5 -166.5q0 -54 -32 -100t-86 -72z" />
    <glyph glyph-name="acute" unicode="&#xb4;" horiz-adv-x="727" 
d="M115 1252l199 266h325l2 -6l-277 -260h-249z" />
    <glyph glyph-name="mu" unicode="&#xb5;" horiz-adv-x="1264" 
d="M139 1082h291v-620q0 -149 45 -203q45 -53 135 -53q146 0 203 107v769h292v-1082h-272l-6 67q-91 -88 -224 -88q-106 0 -173 44v-439h-291v1498z" />
    <glyph glyph-name="paragraph" unicode="&#xb6;" horiz-adv-x="1078" 
d="M928 0h-292v520h-83q-233 0 -363 129q-129 131 -129 339q0 206 129 337q131 131 363 131h375v-1456z" />
    <glyph glyph-name="periodcentered" unicode="&#xb7;" horiz-adv-x="619" 
d="M451 828v-260h-292v260h292z" />
    <glyph glyph-name="cedilla" unicode="&#xb8;" horiz-adv-x="549" 
d="M128 6h219l-11 -57q69 -12 109.5 -54.5t40.5 -118.5q0 -106 -92 -171q-91 -64 -259 -64l-7 161q52 0 81.5 21t29.5 62q0 40 -31 57t-111 22z" />
    <glyph glyph-name="onesuperior" unicode="&#xb9;" horiz-adv-x="573" 
d="M416 1477v-812h-211v630h-127v159z" />
    <glyph glyph-name="ordmasculine" unicode="&#xba;" horiz-adv-x="937" 
d="M118 1025v117q0 148 94 241q94 94 252 94t252 -94q95 -93 95 -241v-117q0 -149 -94 -242q-95 -92 -251 -92q-159 0 -254 92q-94 93 -94 242zM293 1142v-117q0 -87 45 -137.5t128 -50.5q81 0 125.5 51t44.5 137v117q0 85 -45 136t-127 51t-126.5 -51t-44.5 -136z" />
    <glyph glyph-name="guillemotright" unicode="&#xbb;" horiz-adv-x="1025" 
d="M102 151l239 399l-239 400h188l280 -390v-19l-280 -390h-188zM448 151l239 399l-239 400h188l280 -390v-19l-280 -390h-188z" />
    <glyph glyph-name="questiondown" unicode="&#xbf;" horiz-adv-x="1037" 
d="M433 831v251h294v-251h-294zM554 -394q-221 0 -349.5 106.5t-128.5 315.5q0 123 73 233t187 182q59 45 81 95q18 48 18 131h291q-2 -143 -41 -206q-27 -42 -86 -97l-107 -97.5t-86.5 -106t-38.5 -131.5q0 -93 49 -145t138 -52q165 0 241 100l173 -207q-62 -55 -182 -88
t-232 -33z" />
    <glyph glyph-name="Agrave" unicode="&#xc0;" horiz-adv-x="1303" 
d="M992 0l-99 314h-472l-98 -314h-305l491 1456h299l489 -1456h-305zM655 1056l-162 -513h329l-161 513h-6zM597 1866l196 -266h-251l-272 260l2 6h325z" />
    <glyph glyph-name="Aacute" unicode="&#xc1;" horiz-adv-x="1303" 
d="M992 0l-99 314h-472l-98 -314h-305l491 1456h299l489 -1456h-305zM655 1056l-162 -513h329l-161 513h-6zM512 1600l199 266h325l2 -6l-277 -260h-249z" />
    <glyph glyph-name="Acircumflex" unicode="&#xc2;" horiz-adv-x="1303" 
d="M992 0l-99 314h-472l-98 -314h-305l491 1456h299l489 -1456h-305zM655 1056l-162 -513h329l-161 513h-6zM738 1858l287 -243v-23h-232l-140 133l-139 -133h-227v26l282 240h169z" />
    <glyph glyph-name="Atilde" unicode="&#xc3;" horiz-adv-x="1303" 
d="M992 0l-99 314h-472l-98 -314h-305l491 1456h299l489 -1456h-305zM655 1056l-162 -513h329l-161 513h-6zM873 1901l154 -45q0 -96 -60 -164q-58 -67 -150 -67q-72 0 -159 43q-90 44 -140 44q-36 0 -60 -32t-24 -78l-156 42q0 93 59 163q60 70 150 70q55 0 152 -44
q95 -43 148 -43q34 0 60 32.5t26 78.5z" />
    <glyph glyph-name="Adieresis" unicode="&#xc4;" horiz-adv-x="1303" 
d="M992 0l-99 314h-472l-98 -314h-305l491 1456h299l489 -1456h-305zM655 1056l-162 -513h329l-161 513h-6zM1036 1805v-204h-266v204h266zM536 1805v-204h-266v204h266z" />
    <glyph glyph-name="Aring" unicode="&#xc5;" horiz-adv-x="1303" 
d="M992 0l-99 314h-472l-98 -314h-305l491 1456h299l489 -1456h-305zM655 1056l-162 -513h329l-161 513h-6zM466 1746q0 72 54 122q55 50 134 50q78 0 131 -50q54 -49 54 -122q0 -74 -54 -122q-53 -47 -131 -47q-79 0 -134 47q-54 48 -54 122zM582 1746q0 -31 20.5 -51.5
t51.5 -20.5q30 0 49.5 20t19.5 52t-19.5 52.5t-49.5 20.5q-31 0 -51.5 -20.5t-20.5 -52.5z" />
    <glyph glyph-name="AE" unicode="&#xc6;" horiz-adv-x="1945" 
d="M1874 227v-227h-898l-14 335h-440l-168 -335h-342l784 1456h1016v-228h-596l16 -366h499v-227h-490l17 -408h616zM923 1135l-281 -560h310l-23 559z" />
    <glyph glyph-name="Ccedilla" unicode="&#xc7;" horiz-adv-x="1303" 
d="M1151 318l48 -233q-189 -106 -440 -106q-123 0 -220.5 17.5t-181.5 60t-139.5 111t-87 173t-31.5 242.5v289q0 128 32 229.5t88.5 171t138.5 116t178.5 67.5t211.5 21q268 0 439 -102l-50 -231q-73 48 -178.5 75t-210.5 27q-181 0 -272.5 -92.5t-85.5 -279.5v-291
q0 -96 31 -169t85 -115t117.5 -63t135.5 -23q95 -2 205.5 27.5t186.5 77.5zM780 4h-219l-31 -142q80 -5 111 -22t31 -57q0 -41 -29.5 -62t-81.5 -21l7 -161q168 0 259 64q92 65 92 171q0 76 -40.5 118.5t-109.5 54.5z" />
    <glyph glyph-name="Egrave" unicode="&#xc8;" horiz-adv-x="1139" 
d="M966 865v-225h-540v-416h642l1 -224h-935v1456h932v-225h-640v-366h540zM545 1866l196 -266h-251l-272 260l2 6h325z" />
    <glyph glyph-name="Eacute" unicode="&#xc9;" horiz-adv-x="1139" 
d="M966 865v-225h-540v-416h642l1 -224h-935v1456h932v-225h-640v-366h540zM460 1600l199 266h325l2 -6l-277 -260h-249z" />
    <glyph glyph-name="Ecircumflex" unicode="&#xca;" horiz-adv-x="1139" 
d="M966 865v-225h-540v-416h642l1 -224h-935v1456h932v-225h-640v-366h540zM686 1858l287 -243v-23h-232l-140 133l-139 -133h-227v26l282 240h169z" />
    <glyph glyph-name="Edieresis" unicode="&#xcb;" horiz-adv-x="1139" 
d="M966 865v-225h-540v-416h642l1 -224h-935v1456h932v-225h-640v-366h540zM984 1805v-204h-266v204h266zM484 1805v-204h-266v204h266z" />
    <glyph glyph-name="Igrave" unicode="&#xcc;" horiz-adv-x="601" 
d="M446 1456v-1456h-292v1456h292zM245 1866l196 -266h-251l-272 260l2 6h325z" />
    <glyph glyph-name="Iacute" unicode="&#xcd;" horiz-adv-x="601" 
d="M446 1456v-1456h-292v1456h292zM159 1600l199 266h325l2 -6l-277 -260h-249z" />
    <glyph glyph-name="Icircumflex" unicode="&#xce;" horiz-adv-x="601" 
d="M446 1456v-1456h-292v1456h292zM386 1858l287 -243v-23h-232l-140 133l-139 -133h-227v26l282 240h169z" />
    <glyph glyph-name="Idieresis" unicode="&#xcf;" horiz-adv-x="601" 
d="M446 1456v-1456h-292v1456h292zM684 1805v-204h-266v204h266zM184 1805v-204h-266v204h266z" />
    <glyph glyph-name="Eth" unicode="&#xd0;" horiz-adv-x="1355" 
d="M642 0h-508v652h-136v181h136v623h508q268 0 440 -171q173 -170 173 -437v-241q0 -268 -173 -438q-172 -169 -440 -169zM669 833v-181h-243v-428h216q143 0 232 107q88 107 88 276v243q0 168 -88 274q-89 107 -232 107h-216v-398h243z" />
    <glyph glyph-name="Ntilde" unicode="&#xd1;" horiz-adv-x="1445" 
d="M1311 1456v-1456h-292l-587 982l-6 -1v-981h-292v1456h292l587 -981l6 1v980h292zM942 1901l154 -45q0 -96 -60 -164q-58 -67 -150 -67q-72 0 -159 43q-90 44 -140 44q-36 0 -60 -32t-24 -78l-156 42q0 93 59 163q60 70 150 70q55 0 152 -44q95 -43 148 -43q34 0 60 32.5
t26 78.5z" />
    <glyph glyph-name="Ograve" unicode="&#xd2;" horiz-adv-x="1409" 
d="M1312 859v-262q0 -323 -146 -471q-146 -147 -463 -147q-321 0 -464 147q-142 146 -142 471v262q0 327 141 472q143 146 463 146q323 0 467 -150q144 -149 144 -468zM1021 597v264q0 198 -73 292q-72 96 -247 96q-165 0 -239 -94t-74 -294v-264q0 -209 76 -300t239 -91
q170 0 244 89t74 302zM649 1887l196 -266h-251l-272 260l2 6h325z" />
    <glyph glyph-name="Oacute" unicode="&#xd3;" horiz-adv-x="1409" 
d="M1312 859v-262q0 -323 -146 -471q-146 -147 -463 -147q-321 0 -464 147q-142 146 -142 471v262q0 327 141 472q143 146 463 146q323 0 467 -150q144 -149 144 -468zM1021 597v264q0 198 -73 292q-72 96 -247 96q-165 0 -239 -94t-74 -294v-264q0 -209 76 -300t239 -91
q170 0 244 89t74 302zM564 1621l199 266h325l2 -6l-277 -260h-249z" />
    <glyph glyph-name="Ocircumflex" unicode="&#xd4;" horiz-adv-x="1409" 
d="M1312 859v-262q0 -323 -146 -471q-146 -147 -463 -147q-321 0 -464 147q-142 146 -142 471v262q0 327 141 472q143 146 463 146q323 0 467 -150q144 -149 144 -468zM1021 597v264q0 198 -73 292q-72 96 -247 96q-165 0 -239 -94t-74 -294v-264q0 -209 76 -300t239 -91
q170 0 244 89t74 302zM790 1879l287 -243v-23h-232l-140 133l-139 -133h-227v26l282 240h169z" />
    <glyph glyph-name="Otilde" unicode="&#xd5;" horiz-adv-x="1409" 
d="M1312 859v-262q0 -323 -146 -471q-146 -147 -463 -147q-321 0 -464 147q-142 146 -142 471v262q0 327 141 472q143 146 463 146q323 0 467 -150q144 -149 144 -468zM1021 597v264q0 198 -73 292q-72 96 -247 96q-165 0 -239 -94t-74 -294v-264q0 -209 76 -300t239 -91
q170 0 244 89t74 302zM925 1922l154 -45q0 -97 -60 -164q-58 -67 -150 -67q-72 0 -159 43q-90 44 -140 44q-36 0 -60 -32.5t-24 -77.5l-156 42q0 93 59 163q60 70 150 70q55 0 152 -44q95 -43 148 -43q34 0 60 32.5t26 78.5z" />
    <glyph glyph-name="Odieresis" unicode="&#xd6;" horiz-adv-x="1409" 
d="M1312 859v-262q0 -323 -146 -471q-146 -147 -463 -147q-321 0 -464 147q-142 146 -142 471v262q0 327 141 472q143 146 463 146q323 0 467 -150q144 -149 144 -468zM1021 597v264q0 198 -73 292q-72 96 -247 96q-165 0 -239 -94t-74 -294v-264q0 -209 76 -300t239 -91
q170 0 244 89t74 302zM1088 1826v-204h-266v204h266zM588 1826v-204h-266v204h266z" />
    <glyph glyph-name="multiply" unicode="&#xd7;" horiz-adv-x="1088" 
d="M236 207l-172 164l309 315l-309 315l172 164l303 -310l304 310l172 -164l-309 -315l309 -315l-172 -164l-304 309z" />
    <glyph glyph-name="Oslash" unicode="&#xd8;" horiz-adv-x="1410" 
d="M1312 859v-262q0 -340 -157 -479q-155 -139 -452 -139q-242 0 -415 139q-173 140 -191 479v262q0 315 141 467q142 151 463 151q291 0 451 -151t160 -467zM388 861v-264q0 -125 28 -168l6 -1l498 730q-88 91 -219 91q-150 0 -231.5 -99t-81.5 -289zM1021 597v264
q0 70 -12 103l-5 1l-468 -711q68 -48 167 -48q152 0 235 99t83 292z" />
    <glyph glyph-name="Ugrave" unicode="&#xd9;" horiz-adv-x="1407" 
d="M995 1456h293v-953q0 -246 -163 -385t-423 -139t-421 139q-161 140 -161 385v953h293v-953q0 -144 77 -222t212 -78q137 0 215 78t78 222v953zM648 1866l196 -266h-251l-272 260l2 6h325z" />
    <glyph glyph-name="Uacute" unicode="&#xda;" horiz-adv-x="1407" 
d="M995 1456h293v-953q0 -246 -163 -385t-423 -139t-421 139q-161 140 -161 385v953h293v-953q0 -144 77 -222t212 -78q137 0 215 78t78 222v953zM563 1600l199 266h325l2 -6l-277 -260h-249z" />
    <glyph glyph-name="Ucircumflex" unicode="&#xdb;" horiz-adv-x="1407" 
d="M995 1456h293v-953q0 -246 -163 -385t-423 -139t-421 139q-161 140 -161 385v953h293v-953q0 -144 77 -222t212 -78q137 0 215 78t78 222v953zM789 1858l287 -243v-23h-232l-140 133l-139 -133h-227v26l282 240h169z" />
    <glyph glyph-name="Udieresis" unicode="&#xdc;" horiz-adv-x="1407" 
d="M995 1456h293v-953q0 -246 -163 -385t-423 -139t-421 139q-161 140 -161 385v953h293v-953q0 -144 77 -222t212 -78q137 0 215 78t78 222v953zM1087 1805v-204h-266v204h266zM587 1805v-204h-266v204h266z" />
    <glyph glyph-name="Yacute" unicode="&#xdd;" horiz-adv-x="1303" 
d="M330 1456l318 -671h6l318 671h320l-499 -944v-512h-292v527l-491 929h320zM516 1600l199 266h325l2 -6l-277 -260h-249z" />
    <glyph glyph-name="Thorn" unicode="&#xde;" horiz-adv-x="1247" 
d="M132 1456h292v-270h221q254 0 396 -124t142 -324q0 -201 -142 -325t-396 -124h-221v-289h-292v1456zM645 961h-221v-447h221q123 0 184 63q62 65 62 159q0 95 -62 160t-184 65z" />
    <glyph glyph-name="germandbls" unicode="&#xdf;" horiz-adv-x="1294" 
d="M426 1097v-1097h-291v1101q0 226 129 349t352 123q181 0 299 -96q119 -95 119 -271q0 -108 -54 -206q-53 -98 -53 -165q0 -55 150 -198q150 -141 150 -281q0 -187 -114 -282t-333 -95q-82 0 -161 15q-78 15 -118 41l55 223q99 -55 218 -55q76 0 119 38t43 103
q0 72 -150 205q-150 135 -150 277q0 90 54 190q55 100 55 175q0 68 -45 113t-103 45q-77 0 -124 -68t-47 -184z" />
    <glyph glyph-name="agrave" unicode="&#xe0;" horiz-adv-x="1100" 
d="M993 723l1 -723h-254q-17 72 -24 111q-41 -61 -122.5 -96.5t-181.5 -35.5q-162 0 -258.5 84t-96.5 241q0 163 124 253t357 82q48 -2 89 -8t58 -11l17 -5v110q0 147 -161 147q-177 0 -368 -72l-46 224q205 78 431 78q102 0 179 -19.5t136 -62t89.5 -117.5t30.5 -180z
M702 241v200q-70 25 -164 25q-96 0 -142 -30.5t-46 -101.5q0 -140 133 -140q135 0 219 47zM490 1544l196 -266h-251l-272 260l2 6h325z" />
    <glyph glyph-name="aacute" unicode="&#xe1;" horiz-adv-x="1100" 
d="M993 723l1 -723h-254q-17 72 -24 111q-41 -61 -122.5 -96.5t-181.5 -35.5q-162 0 -258.5 84t-96.5 241q0 163 124 253t357 82q48 -2 89 -8t58 -11l17 -5v110q0 147 -161 147q-177 0 -368 -72l-46 224q205 78 431 78q102 0 179 -19.5t136 -62t89.5 -117.5t30.5 -180z
M702 241v200q-70 25 -164 25q-96 0 -142 -30.5t-46 -101.5q0 -140 133 -140q135 0 219 47zM405 1278l199 266h325l2 -6l-277 -260h-249z" />
    <glyph glyph-name="acircumflex" unicode="&#xe2;" horiz-adv-x="1100" 
d="M993 723l1 -723h-254q-17 72 -24 111q-41 -61 -122.5 -96.5t-181.5 -35.5q-162 0 -258.5 84t-96.5 241q0 163 124 253t357 82q48 -2 89 -8t58 -11l17 -5v110q0 147 -161 147q-177 0 -368 -72l-46 224q205 78 431 78q102 0 179 -19.5t136 -62t89.5 -117.5t30.5 -180z
M702 241v200q-70 25 -164 25q-96 0 -142 -30.5t-46 -101.5q0 -140 133 -140q135 0 219 47zM631 1536l287 -243v-23h-232l-140 133l-139 -133h-227v26l282 240h169z" />
    <glyph glyph-name="atilde" unicode="&#xe3;" horiz-adv-x="1100" 
d="M993 723l1 -723h-254q-17 72 -24 111q-41 -61 -122.5 -96.5t-181.5 -35.5q-162 0 -258.5 84t-96.5 241q0 163 124 253t357 82q48 -2 89 -8t58 -11l17 -5v110q0 147 -161 147q-177 0 -368 -72l-46 224q205 78 431 78q102 0 179 -19.5t136 -62t89.5 -117.5t30.5 -180z
M702 241v200q-70 25 -164 25q-96 0 -142 -30.5t-46 -101.5q0 -140 133 -140q135 0 219 47zM766 1579l154 -45q0 -96 -60 -164q-58 -67 -150 -67q-72 0 -159 43q-90 44 -140 44q-36 0 -60 -32t-24 -78l-156 42q0 93 59 163q60 70 150 70q55 0 152 -44q95 -43 148 -43
q34 0 60 32.5t26 78.5z" />
    <glyph glyph-name="adieresis" unicode="&#xe4;" horiz-adv-x="1100" 
d="M993 723l1 -723h-254q-17 72 -24 111q-41 -61 -122.5 -96.5t-181.5 -35.5q-162 0 -258.5 84t-96.5 241q0 163 124 253t357 82q48 -2 89 -8t58 -11l17 -5v110q0 147 -161 147q-177 0 -368 -72l-46 224q205 78 431 78q102 0 179 -19.5t136 -62t89.5 -117.5t30.5 -180z
M702 241v200q-70 25 -164 25q-96 0 -142 -30.5t-46 -101.5q0 -140 133 -140q135 0 219 47zM929 1483v-204h-266v204h266zM429 1483v-204h-266v204h266z" />
    <glyph glyph-name="aring" unicode="&#xe5;" horiz-adv-x="1100" 
d="M993 723l1 -723h-254q-17 72 -24 111q-41 -61 -122.5 -96.5t-181.5 -35.5q-162 0 -258.5 84t-96.5 241q0 163 124 253t357 82q48 -2 89 -8t58 -11l17 -5v110q0 147 -161 147q-177 0 -368 -72l-46 224q205 78 431 78q102 0 179 -19.5t136 -62t89.5 -117.5t30.5 -180z
M702 241v200q-70 25 -164 25q-96 0 -142 -30.5t-46 -101.5q0 -140 133 -140q135 0 219 47zM359 1424q0 72 54 122q55 50 134 50q78 0 131 -50q54 -50 54 -122q0 -74 -54 -122q-53 -47 -131 -47q-79 0 -134 47q-54 48 -54 122zM475 1424q0 -31 20.5 -51.5t51.5 -20.5
q30 0 49.5 20t19.5 52t-19.5 52.5t-49.5 20.5q-31 0 -51.5 -20.5t-20.5 -52.5z" />
    <glyph glyph-name="ae" unicode="&#xe6;" horiz-adv-x="1771" 
d="M1713 454h-651l-2 -6q4 -114 67.5 -179.5t184.5 -65.5q79 0 146 24.5t148 80.5l98 -208q-156 -121 -423 -121q-259 0 -396 158q-63 -73 -166 -115.5t-236 -42.5q-180 0 -290.5 85t-110.5 252q0 160 127 246t369 86h181v59q0 153 -155 153q-88 0 -162.5 -17.5
t-170.5 -68.5l-109 217q184 111 445 111q205 0 329 -107q127 107 322 107q221 0 338 -121.5t117 -368.5v-158zM1258 866q-182 0 -196 -217l2 -5h362v28q0 94 -42.5 144t-125.5 50zM759 288v175h-179q-81 3 -144 -37.5t-63 -112.5q0 -60 42.5 -94t122.5 -34q55 0 120.5 30.5
t100.5 72.5z" />
    <glyph glyph-name="ccedilla" unicode="&#xe7;" horiz-adv-x="1056" 
d="M571 212q170 0 321 88l49 -232q-169 -89 -370 -89q-509 0 -509 546v30q0 287 126.5 417t381.5 130q105 0 192 -17t175 -67l-40 -225q-133 77 -327 77q-123 0 -169.5 -76t-46.5 -239v-30q0 -67 9.5 -118.5t32 -97t67 -71t108.5 -26.5zM667 4h-219l-31 -142q80 -5 111 -22
t31 -57q0 -41 -29.5 -62t-81.5 -21l7 -161q168 0 259 64q92 65 92 171q0 76 -40.5 118.5t-109.5 54.5z" />
    <glyph glyph-name="egrave" unicode="&#xe8;" horiz-adv-x="1071" 
d="M581 -21q-242 0 -378 148t-136 383v40q0 243 132 398q133 155 363 154q218 0 334 -134q117 -133 117 -359v-151h-648v-6q8 -112 67 -180q62 -69 180 -69q189 0 343 83l67 -221q-73 -29 -201 -59q-121 -27 -240 -27zM562 877q-85 0 -134 -59t-59 -162v-15h358v32
q0 204 -165 204zM483 1545l196 -266h-251l-272 260l2 6h325z" />
    <glyph glyph-name="eacute" unicode="&#xe9;" horiz-adv-x="1071" 
d="M581 -21q-242 0 -378 148t-136 383v40q0 243 132 398q133 155 363 154q218 0 334 -134q117 -133 117 -359v-151h-648v-6q8 -112 67 -180q62 -69 180 -69q189 0 343 83l67 -221q-73 -29 -201 -59q-121 -27 -240 -27zM562 877q-85 0 -134 -59t-59 -162v-15h358v32
q0 204 -165 204zM398 1279l199 266h325l2 -6l-277 -260h-249z" />
    <glyph glyph-name="ecircumflex" unicode="&#xea;" horiz-adv-x="1071" 
d="M581 -21q-242 0 -378 148t-136 383v40q0 243 132 398q133 155 363 154q218 0 334 -134q117 -133 117 -359v-151h-648v-6q8 -112 67 -180q62 -69 180 -69q189 0 343 83l67 -221q-73 -29 -201 -59q-121 -27 -240 -27zM562 877q-85 0 -134 -59t-59 -162v-15h358v32
q0 204 -165 204zM624 1537l287 -243v-23h-232l-140 133l-139 -133h-227v26l282 240h169z" />
    <glyph glyph-name="edieresis" unicode="&#xeb;" horiz-adv-x="1071" 
d="M581 -21q-242 0 -378 148t-136 383v40q0 243 132 398q133 155 363 154q218 0 334 -134q117 -133 117 -359v-151h-648v-6q8 -112 67 -180q62 -69 180 -69q189 0 343 83l67 -221q-73 -29 -201 -59q-121 -27 -240 -27zM562 877q-85 0 -134 -59t-59 -162v-15h358v32
q0 204 -165 204zM922 1484v-204h-266v204h266zM422 1484v-204h-266v204h266z" />
    <glyph glyph-name="igrave" unicode="&#xec;" horiz-adv-x="562" 
d="M425 1082v-1082h-292v1082h292zM225 1523l196 -266h-251l-272 260l2 6h325z" />
    <glyph glyph-name="iacute" unicode="&#xed;" horiz-adv-x="562" 
d="M425 1082v-1082h-292v1082h292zM139 1257l199 266h325l2 -6l-277 -260h-249z" />
    <glyph glyph-name="icircumflex" unicode="&#xee;" horiz-adv-x="562" 
d="M425 1082v-1082h-292v1082h292zM366 1516l287 -243v-23h-232l-140 133l-139 -133h-227v26l282 240h169z" />
    <glyph glyph-name="idieresis" unicode="&#xef;" horiz-adv-x="562" 
d="M425 1082v-1082h-292v1082h292zM664 1462v-204h-266v204h266zM164 1462v-204h-266v204h266z" />
    <glyph glyph-name="eth" unicode="&#xf0;" horiz-adv-x="1218" 
d="M1083 1380l-162 -90q215 -223 215 -548v-196q0 -251 -157 -409q-158 -158 -392 -158q-237 0 -389 140q-150 141 -150 349q0 225 134 362q135 137 366 137q167 0 277 -96l4 4q-28 164 -154 279l-245 -136l-78 113l192 106l-1 6q-58 30 -145 56l92 218q180 -38 318 -133
l198 109zM591 203q117 0 184 96q69 97 69 247v118q-37 41 -102 66t-148 25q-122 0 -188 -79t-66 -208q0 -112 68 -189q67 -76 183 -76z" />
    <glyph glyph-name="ntilde" unicode="&#xf1;" 
d="M107 1082h250l28 -126q61 59 139 102q80 44 178 44q165 0 256 -106q92 -106 92 -333v-663h-293v662q0 114 -39.5 163.5t-122.5 49.5q-95 0 -196 -66v-809h-292v1082zM797 1579l154 -45q0 -96 -60 -164q-58 -67 -150 -67q-72 0 -159 43q-90 44 -140 44q-36 0 -60 -32
t-24 -78l-156 42q0 93 59 163q60 70 150 70q55 0 152 -44q95 -43 148 -43q34 0 60 32.5t26 78.5z" />
    <glyph glyph-name="ograve" unicode="&#xf2;" 
d="M67 530v21q0 293 135 422t374 129t376 -132q136 -132 136 -419v-21q0 -290 -136 -420q-136 -131 -374 -131q-239 0 -376 131q-135 130 -135 420zM358 551v-21q0 -179 52 -253q53 -74 168 -74q112 0 165 74q53 76 53 253v21q0 184 -53 255t-167 71q-113 0 -166 -71
q-52 -70 -52 -255zM521 1544l196 -266h-251l-272 260l2 6h325z" />
    <glyph glyph-name="oacute" unicode="&#xf3;" 
d="M67 530v21q0 293 135 422t374 129t376 -132q136 -132 136 -419v-21q0 -290 -136 -420q-136 -131 -374 -131q-239 0 -376 131q-135 130 -135 420zM358 551v-21q0 -179 52 -253q53 -74 168 -74q112 0 165 74q53 76 53 253v21q0 184 -53 255t-167 71q-113 0 -166 -71
q-52 -70 -52 -255zM436 1278l199 266h325l2 -6l-277 -260h-249z" />
    <glyph glyph-name="ocircumflex" unicode="&#xf4;" 
d="M67 530v21q0 293 135 422t374 129t376 -132q136 -132 136 -419v-21q0 -290 -136 -420q-136 -131 -374 -131q-239 0 -376 131q-135 130 -135 420zM358 551v-21q0 -179 52 -253q53 -74 168 -74q112 0 165 74q53 76 53 253v21q0 184 -53 255t-167 71q-113 0 -166 -71
q-52 -70 -52 -255zM662 1536l287 -243v-23h-232l-140 133l-139 -133h-227v26l282 240h169z" />
    <glyph glyph-name="otilde" unicode="&#xf5;" 
d="M67 530v21q0 293 135 422t374 129t376 -132q136 -132 136 -419v-21q0 -290 -136 -420q-136 -131 -374 -131q-239 0 -376 131q-135 130 -135 420zM358 551v-21q0 -179 52 -253q53 -74 168 -74q112 0 165 74q53 76 53 253v21q0 184 -53 255t-167 71q-113 0 -166 -71
q-52 -70 -52 -255zM797 1579l154 -45q0 -96 -60 -164q-58 -67 -150 -67q-72 0 -159 43q-90 44 -140 44q-36 0 -60 -32t-24 -78l-156 42q0 93 59 163q60 70 150 70q55 0 152 -44q95 -43 148 -43q34 0 60 32.5t26 78.5z" />
    <glyph glyph-name="odieresis" unicode="&#xf6;" 
d="M67 530v21q0 293 135 422t374 129t376 -132q136 -132 136 -419v-21q0 -290 -136 -420q-136 -131 -374 -131q-239 0 -376 131q-135 130 -135 420zM358 551v-21q0 -179 52 -253q53 -74 168 -74q112 0 165 74q53 76 53 253v21q0 184 -53 255t-167 71q-113 0 -166 -71
q-52 -70 -52 -255zM960 1483v-204h-266v204h266zM460 1483v-204h-266v204h266z" />
    <glyph glyph-name="divide" unicode="&#xf7;" horiz-adv-x="1168" 
d="M1092 800v-227h-1029v227h1029zM725 1206v-233h-293v233h293zM725 397v-233h-293v233h293z" />
    <glyph glyph-name="oslash" unicode="&#xf8;" 
d="M67 530v21q0 241 135 396t374 155q53 0 139 -19q92 -20 180 -86q91 -67 142 -185q51 -117 51 -261v-21q0 -244 -136 -398q-135 -153 -374 -153q-51 0 -125 13q-75 13 -179 81q-101 68 -154 186.5t-53 270.5zM358 551v-21q0 -134 35 -200l6 -1l260 531q-39 17 -83 17
q-113 0 -166 -92q-52 -91 -52 -234zM796 530v21q0 113 -30 184l-6 1l-255 -521q27 -12 73 -12q112 0 165 90q53 91 53 237z" />
    <glyph glyph-name="ugrave" unicode="&#xf9;" 
d="M816 0l-29 111q-63 -49 -139 -90q-76 -42 -179 -42q-175 0 -269.5 118.5t-94.5 357.5v627h291v-629q0 -142 38 -195q39 -52 120 -52q72 0 120 22q43 19 82 40v814h292v-1082h-232zM520 1523l196 -266h-251l-272 260l2 6h325z" />
    <glyph glyph-name="uacute" unicode="&#xfa;" 
d="M816 0l-29 111q-63 -49 -139 -90q-76 -42 -179 -42q-175 0 -269.5 118.5t-94.5 357.5v627h291v-629q0 -142 38 -195q39 -52 120 -52q72 0 120 22q43 19 82 40v814h292v-1082h-232zM435 1257l199 266h325l2 -6l-277 -260h-249z" />
    <glyph glyph-name="ucircumflex" unicode="&#xfb;" 
d="M816 0l-29 111q-63 -49 -139 -90q-76 -42 -179 -42q-175 0 -269.5 118.5t-94.5 357.5v627h291v-629q0 -142 38 -195q39 -52 120 -52q72 0 120 22q43 19 82 40v814h292v-1082h-232zM661 1516l287 -243v-23h-232l-140 133l-139 -133h-227v26l282 240h169z" />
    <glyph glyph-name="udieresis" unicode="&#xfc;" 
d="M816 0l-29 111q-63 -49 -139 -90q-76 -42 -179 -42q-175 0 -269.5 118.5t-94.5 357.5v627h291v-629q0 -142 38 -195q39 -52 120 -52q72 0 120 22q43 19 82 40v814h292v-1082h-232zM959 1462v-204h-266v204h266zM459 1462v-204h-266v204h266z" />
    <glyph glyph-name="yacute" unicode="&#xfd;" horiz-adv-x="1046" 
d="M319 1082l183 -628l12 -60h6l207 688h314l-439 -1244q-47 -117 -125 -195q-80 -80 -237 -80q-33 0 -150 9l8 229q64 -8 86 -8q122 0 171 124l34 84l-384 1081h314zM382 1257l199 266h325l2 -6l-277 -260h-249z" />
    <glyph glyph-name="thorn" unicode="&#xfe;" horiz-adv-x="1162" 
d="M1098 532v-21q0 -241 -111 -386q-111 -146 -310 -146q-168 0 -264 124v-519h-291v416h-1v1560h292v-591q99 133 262 133q201 0 312 -157t111 -413zM806 511v21q0 154 -51 248q-51 95 -156 95q-130 0 -186 -104v-474q55 -94 188 -94q103 0 154 81t51 227z" />
    <glyph glyph-name="ydieresis" unicode="&#xff;" horiz-adv-x="1046" 
d="M319 1082l183 -628l12 -60h6l207 688h314l-439 -1244q-47 -117 -125 -195q-80 -80 -237 -80q-33 0 -150 9l8 229q64 -8 86 -8q122 0 171 124l34 84l-384 1081h314zM907 1462v-204h-266v204h266zM407 1462v-204h-266v204h266z" />
    <glyph glyph-name="Amacron" unicode="&#x100;" horiz-adv-x="1303" 
d="M992 0l-99 314h-472l-98 -314h-305l491 1456h299l489 -1456h-305zM655 1056l-162 -513h329l-161 513h-6zM1020 1778v-165h-731v165h731z" />
    <glyph glyph-name="amacron" unicode="&#x101;" horiz-adv-x="1100" 
d="M993 723l1 -723h-254q-17 72 -24 111q-41 -61 -122.5 -96.5t-181.5 -35.5q-162 0 -258.5 84t-96.5 241q0 163 124 253t357 82q48 -2 89 -8t58 -11l17 -5v110q0 147 -161 147q-177 0 -368 -72l-46 224q205 78 431 78q102 0 179 -19.5t136 -62t89.5 -117.5t30.5 -180z
M702 241v200q-70 25 -164 25q-96 0 -142 -30.5t-46 -101.5q0 -140 133 -140q135 0 219 47zM913 1457v-165h-731v165h731z" />
    <glyph glyph-name="Abreve" unicode="&#x102;" horiz-adv-x="1303" 
d="M992 0l-99 314h-472l-98 -314h-305l491 1456h299l489 -1456h-305zM655 1056l-162 -513h329l-161 513h-6zM778 1896h214l2 -6q5 -128 -89 -208t-251 -80q-158 0 -253 80q-94 81 -88 208l2 6h213q0 -56 31.5 -88.5t94.5 -32.5q61 0 92.5 33t31.5 88z" />
    <glyph glyph-name="abreve" unicode="&#x103;" horiz-adv-x="1100" 
d="M993 723l1 -723h-254q-17 72 -24 111q-41 -61 -122.5 -96.5t-181.5 -35.5q-162 0 -258.5 84t-96.5 241q0 163 124 253t357 82q48 -2 89 -8t58 -11l17 -5v110q0 147 -161 147q-177 0 -368 -72l-46 224q205 78 431 78q102 0 179 -19.5t136 -62t89.5 -117.5t30.5 -180z
M702 241v200q-70 25 -164 25q-96 0 -142 -30.5t-46 -101.5q0 -140 133 -140q135 0 219 47zM671 1574h214l2 -6q5 -128 -89 -208t-251 -80q-158 0 -253 80q-94 81 -88 208l2 6h213q0 -56 31.5 -88.5t94.5 -32.5q61 0 92.5 33t31.5 88z" />
    <glyph glyph-name="Aogonek" unicode="&#x104;" horiz-adv-x="1303" 
d="M992 0l-99 314h-472l-98 -314h-305l491 1456h299l489 -1456h-305zM655 1056l-162 -513h329l-161 513h-6zM1081 60l132 -60q-53 -51 -79 -90q-25 -37 -25 -86q0 -70 86 -70q38 0 94 20l35 -154q-84 -44 -186 -44q-108 0 -178 57q-69 55 -69 157q0 166 190 270z" />
    <glyph glyph-name="aogonek" unicode="&#x105;" horiz-adv-x="1100" 
d="M702 241v200q-70 25 -164 25q-96 0 -142 -30.5t-46 -101.5q0 -140 133 -140q135 0 219 47zM1032 -226l35 -154q-83 -44 -186 -44q-108 0 -177 57q-70 55 -70 157q0 122 106 213q-17 67 -24 108q-40 -60 -121.5 -96t-182.5 -36q-162 0 -258.5 84t-96.5 241q0 163 124 253
t357 82q48 -2 89 -8t58 -11l17 -5v110q0 147 -160 147q-177 0 -369 -72l-46 224q203 78 432 78q102 0 179 -19.5t136 -62t89.5 -117.5t30.5 -180l1 -723h-39q-53 -51 -79 -90q-25 -37 -25 -86q0 -70 86 -70q38 0 94 20z" />
    <glyph glyph-name="Cacute" unicode="&#x106;" horiz-adv-x="1303" 
d="M1151 318l48 -233q-189 -106 -440 -106q-123 0 -220.5 17.5t-181.5 60t-139.5 111t-87 173t-31.5 242.5v289q0 128 32 229.5t88.5 171t138.5 116t178.5 67.5t211.5 21q268 0 439 -102l-50 -231q-73 48 -178.5 75t-210.5 27q-181 0 -272.5 -92.5t-85.5 -279.5v-291
q0 -96 31 -169t85 -115t117.5 -63t135.5 -23q95 -2 205.5 27.5t186.5 77.5zM538 1621l199 266h325l2 -6l-277 -260h-249z" />
    <glyph glyph-name="cacute" unicode="&#x107;" horiz-adv-x="1056" 
d="M571 212q170 0 321 88l49 -232q-169 -89 -370 -89q-509 0 -509 546v30q0 287 126.5 417t381.5 130q105 0 192 -17t175 -67l-40 -225q-133 77 -327 77q-123 0 -169.5 -76t-46.5 -239v-30q0 -67 9.5 -118.5t32 -97t67 -71t108.5 -26.5zM393 1278l199 266h325l2 -6
l-277 -260h-249z" />
    <glyph glyph-name="Ccircumflex" unicode="&#x108;" horiz-adv-x="1303" 
d="M1151 318l48 -233q-189 -106 -440 -106q-123 0 -220.5 17.5t-181.5 60t-139.5 111t-87 173t-31.5 242.5v289q0 128 32 229.5t88.5 171t138.5 116t178.5 67.5t211.5 21q268 0 439 -102l-50 -231q-73 48 -178.5 75t-210.5 27q-181 0 -272.5 -92.5t-85.5 -279.5v-291
q0 -96 31 -169t85 -115t117.5 -63t135.5 -23q95 -2 205.5 27.5t186.5 77.5zM764 1879l287 -243v-23h-232l-140 133l-139 -133h-227v26l282 240h169z" />
    <glyph glyph-name="ccircumflex" unicode="&#x109;" horiz-adv-x="1056" 
d="M571 212q170 0 321 88l49 -232q-169 -89 -370 -89q-509 0 -509 546v30q0 287 126.5 417t381.5 130q105 0 192 -17t175 -67l-40 -225q-133 77 -327 77q-123 0 -169.5 -76t-46.5 -239v-30q0 -67 9.5 -118.5t32 -97t67 -71t108.5 -26.5zM619 1536l287 -243v-23h-232
l-140 133l-139 -133h-227v26l282 240h169z" />
    <glyph glyph-name="uni010A" unicode="&#x10a;" horiz-adv-x="1303" 
d="M1151 318l48 -233q-189 -106 -440 -106q-123 0 -220.5 17.5t-181.5 60t-139.5 111t-87 173t-31.5 242.5v289q0 128 32 229.5t88.5 171t138.5 116t178.5 67.5t211.5 21q268 0 439 -102l-50 -231q-73 48 -178.5 75t-210.5 27q-181 0 -272.5 -92.5t-85.5 -279.5v-291
q0 -96 31 -169t85 -115t117.5 -63t135.5 -23q95 -2 205.5 27.5t186.5 77.5zM843 1863v-241h-327v241h327z" />
    <glyph glyph-name="uni010B" unicode="&#x10b;" horiz-adv-x="1056" 
d="M571 212q170 0 321 88l49 -232q-169 -89 -370 -89q-509 0 -509 546v30q0 287 126.5 417t381.5 130q105 0 192 -17t175 -67l-40 -225q-133 77 -327 77q-123 0 -169.5 -76t-46.5 -239v-30q0 -67 9.5 -118.5t32 -97t67 -71t108.5 -26.5zM698 1520v-241h-327v241h327z" />
    <glyph glyph-name="Ccaron" unicode="&#x10c;" horiz-adv-x="1303" 
d="M1151 318l48 -233q-189 -106 -440 -106q-123 0 -220.5 17.5t-181.5 60t-139.5 111t-87 173t-31.5 242.5v289q0 128 32 229.5t88.5 171t138.5 116t178.5 67.5t211.5 21q268 0 439 -102l-50 -231q-73 48 -178.5 75t-210.5 27q-181 0 -272.5 -92.5t-85.5 -279.5v-291
q0 -96 31 -169t85 -115t117.5 -63t135.5 -23q95 -2 205.5 27.5t186.5 77.5zM562 1894l116 -127l117 127h264v-17l-281 -255h-199l-281 256v16h264z" />
    <glyph glyph-name="ccaron" unicode="&#x10d;" horiz-adv-x="1056" 
d="M571 212q170 0 321 88l49 -232q-169 -89 -370 -89q-509 0 -509 546v30q0 287 126.5 417t381.5 130q105 0 192 -17t175 -67l-40 -225q-133 77 -327 77q-123 0 -169.5 -76t-46.5 -239v-30q0 -67 9.5 -118.5t32 -97t67 -71t108.5 -26.5zM417 1551l116 -127l117 127h264v-17
l-281 -255h-199l-281 256v16h264z" />
    <glyph glyph-name="Dcaron" unicode="&#x10e;" horiz-adv-x="1355" 
d="M642 0h-508v1456h508q320 0 466 -171q147 -169 147 -437v-241q0 -269 -136 -438q-135 -169 -477 -169zM642 1231h-216v-1007h216q144 0 232 94t88 289v243q0 202 -88 291q-88 90 -232 90zM473 1873l116 -127l117 127h264v-17l-281 -255h-199l-281 256v16h264z" />
    <glyph glyph-name="dcaron" unicode="&#x10f;" 
d="M67 511v21q0 255 110 413q111 157 312 157q155 0 260 -131v589h293v-1560h-247l-19 116q-141 -137 -289 -137q-199 0 -310 146q-110 146 -110 386zM358 532v-21q0 -305 204 -305q64 0 110 25q40 22 77 46v515q-29 24 -77 54q-47 29 -108 29q-107 0 -157 -95
q-49 -94 -49 -248zM1368 1559v-161l-129 -235h-122l61 245v151h190z" />
    <glyph glyph-name="Dcroat" unicode="&#x110;" horiz-adv-x="1355" 
d="M642 0h-508v652h-136v181h136v623h508q268 0 440 -171q173 -170 173 -437v-241q0 -268 -173 -438q-172 -169 -440 -169zM669 833v-181h-243v-428h216q143 0 232 107q88 107 88 276v243q0 168 -88 274q-89 107 -232 107h-216v-398h243z" />
    <glyph glyph-name="dcroat" unicode="&#x111;" 
d="M1186 1401v-181h-144v-1220h-249l-25 133q-105 -154 -281 -154q-199 0 -310 146q-110 146 -110 386v21q0 255 110 413q111 157 312 157q159 0 260 -135v253h-234v181h234v159h293v-159h144zM358 532v-21q0 -305 204 -305q125 0 187 100v461q-64 108 -185 108
q-107 0 -157 -95q-49 -94 -49 -248z" />
    <glyph glyph-name="Emacron" unicode="&#x112;" horiz-adv-x="1139" 
d="M966 865v-225h-540v-416h642l1 -224h-935v1456h932v-225h-640v-366h540zM968 1778v-165h-731v165h731z" />
    <glyph glyph-name="emacron" unicode="&#x113;" horiz-adv-x="1071" 
d="M581 -21q-242 0 -378 148t-136 383v40q0 243 132 398q133 155 363 154q218 0 334 -134q117 -133 117 -359v-151h-648v-6q8 -112 67 -180q62 -69 180 -69q189 0 343 83l67 -221q-73 -29 -201 -59q-121 -27 -240 -27zM562 877q-85 0 -134 -59t-59 -162v-15h358v32
q0 204 -165 204zM906 1457v-165h-731v165h731z" />
    <glyph glyph-name="Ebreve" unicode="&#x114;" horiz-adv-x="1139" 
d="M966 865v-225h-540v-416h642l1 -224h-935v1456h932v-225h-640v-366h540zM726 1896h214l2 -6q5 -128 -89 -208t-251 -80q-158 0 -253 80q-94 81 -88 208l2 6h213q0 -56 31.5 -88.5t94.5 -32.5q61 0 92.5 33t31.5 88z" />
    <glyph glyph-name="ebreve" unicode="&#x115;" horiz-adv-x="1071" 
d="M581 -21q-242 0 -378 148t-136 383v40q0 243 132 398q133 155 363 154q218 0 334 -134q117 -133 117 -359v-151h-648v-6q8 -112 67 -180q62 -69 180 -69q189 0 343 83l67 -221q-73 -29 -201 -59q-121 -27 -240 -27zM562 877q-85 0 -134 -59t-59 -162v-15h358v32
q0 204 -165 204zM664 1575h214l2 -6q5 -128 -89 -208t-251 -80q-158 0 -253 80q-94 81 -88 208l2 6h213q0 -56 31.5 -88.5t94.5 -32.5q61 0 92.5 33t31.5 88z" />
    <glyph glyph-name="Edotaccent" unicode="&#x116;" horiz-adv-x="1139" 
d="M966 865v-225h-540v-416h642l1 -224h-935v1456h932v-225h-640v-366h540zM765 1842v-241h-327v241h327z" />
    <glyph glyph-name="edotaccent" unicode="&#x117;" horiz-adv-x="1071" 
d="M581 -21q-242 0 -378 148t-136 383v40q0 243 132 398q133 155 363 154q218 0 334 -134q117 -133 117 -359v-151h-648v-6q8 -112 67 -180q62 -69 180 -69q189 0 343 83l67 -221q-73 -29 -201 -59q-121 -27 -240 -27zM562 877q-85 0 -134 -59t-59 -162v-15h358v32
q0 204 -165 204zM703 1521v-241h-327v241h327z" />
    <glyph glyph-name="Eogonek" unicode="&#x118;" horiz-adv-x="1139" 
d="M966 865v-225h-540v-416h642l1 -224h-935v1456h932v-225h-640v-366h540zM543 60l132 -60q-53 -51 -79 -90q-25 -37 -25 -86q0 -70 86 -70q38 0 94 20l35 -154q-84 -44 -186 -44q-108 0 -178 57q-69 55 -69 157q0 166 190 270z" />
    <glyph glyph-name="eogonek" unicode="&#x119;" horiz-adv-x="1071" 
d="M581 -21q-242 0 -378 148t-136 383v40q0 243 132 398q133 155 363 154q218 0 334 -134q117 -133 117 -359v-151h-648v-6q8 -112 67 -180q62 -69 180 -69q189 0 343 83l67 -221q-73 -29 -201 -59q-121 -27 -240 -27zM562 877q-85 0 -134 -59t-59 -162v-15h358v32
q0 204 -165 204zM744 102l132 -60q-53 -51 -79 -90q-25 -37 -25 -86q0 -70 86 -70q38 0 94 20l35 -154q-84 -44 -186 -44q-107 0 -178 57q-69 55 -69 157q0 166 190 270z" />
    <glyph glyph-name="Ecaron" unicode="&#x11a;" horiz-adv-x="1139" 
d="M966 865v-225h-540v-416h642l1 -224h-935v1456h932v-225h-640v-366h540zM484 1873l116 -127l117 127h264v-17l-281 -255h-199l-281 256v16h264z" />
    <glyph glyph-name="ecaron" unicode="&#x11b;" horiz-adv-x="1071" 
d="M581 -21q-242 0 -378 148t-136 383v40q0 243 132 398q133 155 363 154q218 0 334 -134q117 -133 117 -359v-151h-648v-6q8 -112 67 -180q62 -69 180 -69q189 0 343 83l67 -221q-73 -29 -201 -59q-121 -27 -240 -27zM562 877q-85 0 -134 -59t-59 -162v-15h358v32
q0 204 -165 204zM422 1552l116 -127l117 127h264v-17l-281 -255h-199l-281 256v16h264z" />
    <glyph glyph-name="Gcircumflex" unicode="&#x11c;" horiz-adv-x="1364" 
d="M677 774h573v-575q-98 -116 -233.5 -168t-317.5 -52q-171 0 -309 75t-216.5 212.5t-74.5 309.5v304q-7 256 161 426.5t422 170.5q313 0 502 -127l-93 -234q-171 125 -403 125q-152 0 -225 -93.5t-73 -265.5v-306q-4 -154 80 -263.5t229 -109.5q183 0 259 74v282h-281v215
zM759 1879l287 -243v-23h-232l-140 133l-139 -133h-227v26l282 240h169z" />
    <glyph glyph-name="gcircumflex" unicode="&#x11d;" 
d="M1104 1077v-226l-130 8q18 -44 24 -73t6 -82q-7 -190 -124.5 -290t-343.5 -100q-86 0 -118.5 -12t-32.5 -43q0 -33 33 -44t122 -11q119 0 200 -6.5t154 -24.5t115.5 -51.5t66.5 -87t24 -130.5q0 -154 -129 -224t-399 -70q-287 0 -407 71t-120 234q0 85 64 139t171 54
q-51 7 -84 20.5t-48 35.5t-19.5 43t-4.5 53q0 99 118 125q-100 39 -150 131t-50 188q9 393 486 393q135 0 214 -25zM573 -9q-264 0 -264 -80q0 -93 266 -93q261 0 261 88q0 28 -19.5 45.5t-79.5 28.5t-164 11zM720 704q0 96 -55.5 141.5t-146.5 45.5q-95 0 -145.5 -40
t-51.5 -147q14 -185 212 -185q92 0 135 48t52 137zM642 1536l287 -243v-23h-232l-140 133l-139 -133h-227v26l282 240h169z" />
    <glyph glyph-name="Gbreve" unicode="&#x11e;" horiz-adv-x="1364" 
d="M677 774h573v-575q-98 -116 -233.5 -168t-317.5 -52q-171 0 -309 75t-216.5 212.5t-74.5 309.5v304q-7 256 161 426.5t422 170.5q313 0 502 -127l-93 -234q-171 125 -403 125q-152 0 -225 -93.5t-73 -265.5v-306q-4 -154 80 -263.5t229 -109.5q183 0 259 74v282h-281v215
zM799 1917h214l2 -6q5 -128 -89 -208t-251 -80q-158 0 -253 80q-94 81 -88 208l2 6h213q0 -56 31.5 -88.5t94.5 -32.5q61 0 92.5 33t31.5 88z" />
    <glyph glyph-name="gbreve" unicode="&#x11f;" 
d="M1111 1077v-226l-130 8q18 -44 24 -73t6 -82q-7 -190 -124.5 -290t-343.5 -100q-86 0 -118.5 -12t-32.5 -43q0 -33 33 -44t122 -11q119 0 200 -6.5t154 -24.5t115.5 -51.5t66.5 -87t24 -130.5q0 -154 -129 -224t-399 -70q-287 0 -407 71t-120 234q0 85 64 139t171 54
q-51 7 -84 20.5t-48 35.5t-19.5 43t-4.5 53q0 99 118 125q-100 39 -150 131t-50 188q9 393 486 393q135 0 214 -25zM580 -9q-264 0 -264 -80q0 -93 266 -93q261 0 261 88q0 28 -19.5 45.5t-79.5 28.5t-164 11zM727 704q0 96 -55.5 141.5t-146.5 45.5q-95 0 -145.5 -40
t-51.5 -147q14 -185 212 -185q92 0 135 48t52 137zM682 1574h214l2 -6q5 -128 -89 -208t-251 -80q-158 0 -253 80q-94 81 -88 208l2 6h213q0 -56 31.5 -88.5t94.5 -32.5q61 0 92.5 33t31.5 88z" />
    <glyph glyph-name="uni0120" unicode="&#x120;" horiz-adv-x="1364" 
d="M677 774h573v-575q-98 -116 -233.5 -168t-317.5 -52q-171 0 -309 75t-216.5 212.5t-74.5 309.5v304q-7 256 161 426.5t422 170.5q313 0 502 -127l-93 -234q-171 125 -403 125q-152 0 -225 -93.5t-73 -265.5v-306q-4 -154 80 -263.5t229 -109.5q183 0 259 74v282h-281v215
zM838 1863v-241h-327v241h327z" />
    <glyph glyph-name="uni0121" unicode="&#x121;" 
d="M1100 1077v-226l-130 8q18 -44 24 -73t6 -82q-7 -190 -124.5 -290t-343.5 -100q-86 0 -118.5 -12t-32.5 -43q0 -33 33 -44t122 -11q119 0 200 -6.5t154 -24.5t115.5 -51.5t66.5 -87t24 -130.5q0 -154 -129 -224t-399 -70q-287 0 -407 71t-120 234q0 85 64 139t171 54
q-51 7 -84 20.5t-48 35.5t-19.5 43t-4.5 53q0 99 118 125q-100 39 -150 131t-50 188q9 393 486 393q135 0 214 -25zM569 -9q-264 0 -264 -80q0 -93 266 -93q261 0 261 88q0 28 -19.5 45.5t-79.5 28.5t-164 11zM716 704q0 96 -55.5 141.5t-146.5 45.5q-95 0 -145.5 -40
t-51.5 -147q14 -185 212 -185q92 0 135 48t52 137zM721 1520v-241h-327v241h327z" />
    <glyph glyph-name="Gcommaaccent" unicode="&#x122;" horiz-adv-x="1364" 
d="M677 774h573v-575q-98 -116 -233.5 -168t-317.5 -52q-171 0 -309 75t-216.5 212.5t-74.5 309.5v304q-7 256 161 426.5t422 170.5q313 0 502 -127l-93 -234q-171 125 -403 125q-152 0 -225 -93.5t-73 -265.5v-306q-4 -154 80 -263.5t229 -109.5q183 0 259 74v282h-281v215
zM778 -267v161h-190v-151l-61 -245h122z" />
    <glyph glyph-name="gcommaaccent" unicode="&#x123;" 
d="M1105 1077v-226l-130 8q18 -44 24 -73t6 -82q-7 -190 -124.5 -290t-343.5 -100q-86 0 -118.5 -12t-32.5 -43q0 -33 33 -44t122 -11q119 0 200 -6.5t154 -24.5t115.5 -51.5t66.5 -87t24 -130.5q0 -154 -129 -224t-399 -70q-287 0 -407 71t-120 234q0 85 64 139t171 54
q-51 7 -84 20.5t-48 35.5t-19.5 43t-4.5 53q0 99 118 125q-100 39 -150 131t-50 188q9 393 486 393q135 0 214 -25zM574 -9q-264 0 -264 -80q0 -93 266 -93q261 0 261 88q0 28 -19.5 45.5t-79.5 28.5t-164 11zM721 704q0 96 -55.5 141.5t-146.5 45.5q-95 0 -145.5 -40
t-51.5 -147q14 -185 212 -185q92 0 135 48t52 137zM432 1258v175l115 260h159l-35 -270v-165h-239z" />
    <glyph glyph-name="Hcircumflex" unicode="&#x124;" horiz-adv-x="1445" 
d="M1311 1456v-1456h-292v605h-593v-605h-292v1456h292v-626h593v626h292zM805 1858l287 -243v-23h-232l-140 133l-139 -133h-227v26l282 240h169z" />
    <glyph glyph-name="hcircumflex" unicode="&#x125;" 
d="M397 1560v-615q108 157 289 157q169 0 265 -113q97 -112 97 -347v-642h-292v644q0 123 -39.5 177t-122.5 54q-133 0 -197 -83v-792h-292v1560h292zM603 1859l287 -243v-23h-232l-140 133l-139 -133h-227v26l282 240h169z" />
    <glyph glyph-name="Hbar" unicode="&#x126;" horiz-adv-x="1445" 
d="M1319 1456v-257h119v-171h-119v-1028h-292v605h-593v-605h-292v1028h-126v171h126v257h292v-257h593v257h292zM434 1028v-198h593v198h-593z" />
    <glyph glyph-name="hbar" unicode="&#x127;" 
d="M658 1398v-181h-261v-272q108 157 289 157q169 0 265 -113q97 -112 97 -347v-642h-292v644q0 123 -39.5 177t-122.5 54q-133 0 -197 -83v-792h-292v1217h-118v181h118v162h292v-162h261z" />
    <glyph glyph-name="Itilde" unicode="&#x128;" horiz-adv-x="601" 
d="M446 1456v-1456h-292v1456h292zM521 1901l154 -45q0 -96 -60 -164q-58 -67 -150 -67q-72 0 -159 43q-90 44 -140 44q-36 0 -60 -32t-24 -78l-156 42q0 94 60 163q58 70 149 70q55 0 152 -44q95 -43 148 -43q34 0 60 32.5t26 78.5z" />
    <glyph glyph-name="itilde" unicode="&#x129;" horiz-adv-x="562" 
d="M425 1082v-1082h-292v1082h292zM501 1558l154 -45q0 -97 -60 -164q-58 -67 -150 -67q-72 0 -159 43q-90 44 -140 44q-36 0 -60 -32.5t-24 -77.5l-156 42q0 94 60 163q58 70 149 70q55 0 152 -44q95 -43 148 -43q34 0 60 32.5t26 78.5z" />
    <glyph glyph-name="Imacron" unicode="&#x12a;" horiz-adv-x="601" 
d="M446 1456v-1456h-292v1456h292zM668 1778v-165h-731v165h731z" />
    <glyph glyph-name="imacron" unicode="&#x12b;" horiz-adv-x="562" 
d="M425 1082v-1082h-292v1082h292zM648 1436v-165h-731v165h731z" />
    <glyph glyph-name="Ibreve" unicode="&#x12c;" horiz-adv-x="601" 
d="M446 1456v-1456h-292v1456h292zM426 1896h214l2 -6q5 -128 -89 -208t-251 -80q-158 0 -253 80q-94 81 -88 208l2 6h213q0 -56 31.5 -88.5t94.5 -32.5q61 0 92.5 33t31.5 88z" />
    <glyph glyph-name="ibreve" unicode="&#x12d;" horiz-adv-x="562" 
d="M425 1082v-1082h-292v1082h292zM406 1553h214l2 -6q5 -128 -89 -208t-251 -80q-158 0 -253 80q-94 81 -88 208l2 6h213q0 -56 31.5 -88.5t94.5 -32.5q61 0 92.5 33t31.5 88z" />
    <glyph glyph-name="Iogonek" unicode="&#x12e;" horiz-adv-x="601" 
d="M446 1456v-1456h-292v1456h292zM230 60l132 -60q-53 -51 -79 -90q-25 -37 -25 -86q0 -70 86 -70q38 0 94 20l35 -154q-84 -44 -186 -44q-108 0 -178 57q-69 55 -69 157q0 166 190 270z" />
    <glyph glyph-name="iogonek" unicode="&#x12f;" horiz-adv-x="547" 
d="M419 1082v-1082h-292v1082h292zM419 1560v-262h-292v262h292zM203 60l132 -60q-53 -51 -79 -90q-25 -37 -25 -86q0 -70 86 -70q38 0 94 20l35 -154q-84 -44 -186 -44q-108 0 -178 57q-69 55 -69 157q0 166 190 270z" />
    <glyph glyph-name="Idotaccent" unicode="&#x130;" horiz-adv-x="601" 
d="M446 1456v-1456h-292v1456h292zM465 1842v-241h-327v241h327z" />
    <glyph glyph-name="dotlessi" unicode="&#x131;" horiz-adv-x="562" 
d="M425 1082v-1082h-292v1082h292z" />
    <glyph glyph-name="IJ" unicode="&#x132;" horiz-adv-x="1738" 
d="M446 1456v-1456h-292v1456h292zM1315 1456h291v-1005q1 -218 -126.5 -345t-346.5 -127q-273 0 -401 119l140 222q65 -56 126 -77.5t135 -21.5q94 0 138 52.5t44 177.5v1005z" />
    <glyph glyph-name="ij" unicode="&#x133;" horiz-adv-x="1090" 
d="M419 1082v-1082h-292v1082h292zM419 1560v-262h-292v262h292zM681 1082h293v-1122q0 -189 -101 -293t-281 -104q-74 0 -143 17l14 223q46 -12 95 -12q123 0 123 169v1122zM973 1560v-262h-292v262h292z" />
    <glyph glyph-name="Jcircumflex" unicode="&#x134;" horiz-adv-x="1137" 
d="M714 1456h291v-1005q1 -218 -126.5 -345t-346.5 -127q-273 0 -401 119l140 222q65 -56 126 -77.5t135 -21.5q94 0 138 52.5t44 177.5v1005zM927 1854l287 -243v-23h-232l-140 133l-139 -133h-227v26l282 240h169z" />
    <glyph glyph-name="jcircumflex" unicode="&#x135;" horiz-adv-x="578" 
d="M150 1082h291v-1122q0 -189 -101 -293t-280 -104q-72 0 -144 17l15 221q50 -13 98 -13q57 0 89 45t32 127v1122zM360 1508l287 -243v-23h-232l-140 133l-139 -133h-227v26l282 240h169z" />
    <glyph glyph-name="Kcommaaccent" unicode="&#x136;" horiz-adv-x="1305" 
d="M1282 35v-35h-347l-402 608l-107 18v-626h-292v1456h292v-609l82 14l399 595h344v-22l-487 -655zM732 -255v161h-190v-151l-61 -245h122z" />
    <glyph glyph-name="kcommaaccent" unicode="&#x137;" horiz-adv-x="1097" 
d="M1098 18v-18h-320l-300 453l-74 11v-464h-292v1560h292v-895l65 10l259 407h321v-18l-335 -475zM654 -254v161h-190v-151l-61 -245h122z" />
    <glyph glyph-name="kgreenlandic" unicode="&#x138;" horiz-adv-x="1210" 
d="M798 0l-261 405l-116 18v-423h-292v1082h292v-434l87 22l279 412h368l-384 -507l401 -575h-374z" />
    <glyph glyph-name="Lacute" unicode="&#x139;" horiz-adv-x="1138" 
d="M426 1456v-1232h652v-224h-944v1456h292zM141 1577l199 266h325l2 -6l-277 -260h-249z" />
    <glyph glyph-name="lacute" unicode="&#x13a;" horiz-adv-x="547" 
d="M419 1560v-1560h-292v1560h292zM132 1628l199 266h325l2 -6l-277 -260h-249z" />
    <glyph glyph-name="Lcommaaccent" unicode="&#x13b;" horiz-adv-x="1138" 
d="M426 1456v-1232h652v-224h-944v1456h292zM693 -93v-161l-129 -235h-122l61 245v151h190z" />
    <glyph glyph-name="lcommaaccent" unicode="&#x13c;" horiz-adv-x="547" 
d="M419 1560v-1560h-292v1560h292zM361 -93v-161l-129 -235h-122l61 245v151h190z" />
    <glyph glyph-name="Lcaron" unicode="&#x13d;" horiz-adv-x="1138" 
d="M426 1456v-1232h652v-224h-944v1456h292zM864 1458v-161l-129 -235h-122l61 245v151h190z" />
    <glyph glyph-name="lcaron" unicode="&#x13e;" horiz-adv-x="547" 
d="M419 1560v-1560h-292v1560h292zM762 1559v-161l-129 -235h-122l61 245v151h190z" />
    <glyph glyph-name="Ldot" unicode="&#x13f;" horiz-adv-x="1138" 
d="M426 1456v-1232h652v-224h-944v1456h292zM925 921v-241h-327v241h327z" />
    <glyph glyph-name="ldot" unicode="&#x140;" horiz-adv-x="547" 
d="M419 1560v-1560h-292v1560h292zM720 869v-241h-327v241h327z" />
    <glyph glyph-name="Lslash" unicode="&#x141;" horiz-adv-x="1040" 
d="M419 1456v-572l243 70v-195l-243 -70v-465h652v-224h-944v605l-115 -33v195l115 33v656h292z" />
    <glyph glyph-name="lslash" unicode="&#x142;" horiz-adv-x="594" 
d="M439 1560v-653l141 47v-195l-141 -47v-712h-292v615l-132 -43v195l132 43v750h292z" />
    <glyph glyph-name="Nacute" unicode="&#x143;" horiz-adv-x="1445" 
d="M1311 1456v-1456h-292l-587 982l-6 -1v-981h-292v1456h292l587 -981l6 1v980h292zM581 1600l199 266h325l2 -6l-277 -260h-249z" />
    <glyph glyph-name="nacute" unicode="&#x144;" 
d="M107 1082h250l28 -126q61 59 139 102q80 44 178 44q165 0 256 -106q92 -106 92 -333v-663h-293v662q0 114 -39.5 163.5t-122.5 49.5q-95 0 -196 -66v-809h-292v1082zM436 1278l199 266h325l2 -6l-277 -260h-249z" />
    <glyph glyph-name="Ncommaaccent" unicode="&#x145;" horiz-adv-x="1445" 
d="M1311 1456v-1456h-292l-587 982l-6 -1v-981h-292v1456h292l587 -981l6 1v980h292zM810 -93v-161l-129 -235h-122l61 245v151h190z" />
    <glyph glyph-name="ncommaaccent" unicode="&#x146;" 
d="M107 1082h250l28 -126q61 59 139 102q80 44 178 44q165 0 256 -106q92 -106 92 -333v-663h-293v662q0 114 -39.5 163.5t-122.5 49.5q-95 0 -196 -66v-809h-292v1082zM665 -93v-161l-129 -235h-122l61 245v151h190z" />
    <glyph glyph-name="Ncaron" unicode="&#x147;" horiz-adv-x="1445" 
d="M1311 1456v-1456h-292l-587 982l-6 -1v-981h-292v1456h292l587 -981l6 1v980h292zM605 1873l116 -127l117 127h264v-17l-281 -255h-199l-281 256v16h264z" />
    <glyph glyph-name="ncaron" unicode="&#x148;" 
d="M107 1082h250l28 -126q61 59 139 102q80 44 178 44q165 0 256 -106q92 -106 92 -333v-663h-293v662q0 114 -39.5 163.5t-122.5 49.5q-95 0 -196 -66v-809h-292v1082zM460 1551l116 -127l117 127h264v-17l-281 -255h-199l-281 256v16h264z" />
    <glyph glyph-name="napostrophe" unicode="&#x149;" 
d="M107 1082h250l28 -126q61 59 139 102q80 44 178 44q165 0 256 -106q92 -106 92 -333v-663h-293v662q0 114 -39.5 163.5t-122.5 49.5q-95 0 -196 -66v-809h-292v1082zM224 1559v-161l-129 -235h-122l61 245v151h190z" />
    <glyph glyph-name="Eng" unicode="&#x14a;" horiz-adv-x="1438" 
d="M1017 1456h291v-1496q0 -189 -101 -293t-280 -104q-77 0 -145 17l14 221q50 -13 100 -13q57 0 89 45t32 127v40l-587 982l-6 -1v-981h-293v1456h293l587 -981l6 1v980z" />
    <glyph glyph-name="eng" unicode="&#x14b;" 
d="M107 1082h272l13 -152q54 82 133 127t175 45q165 0 256 -106q92 -106 92 -333v-703q0 -189 -101 -293t-281 -104q-76 0 -144 17l14 224q44 -12 99 -12q58 0 89 43t31 125v702q0 114 -39.5 163.5t-122.5 49.5q-126 0 -194 -89v-786h-292v1082z" />
    <glyph glyph-name="Omacron" unicode="&#x14c;" horiz-adv-x="1409" 
d="M1312 859v-262q0 -323 -146 -471q-146 -147 -463 -147q-321 0 -464 147q-142 146 -142 471v262q0 327 141 472q143 146 463 146q323 0 467 -150q144 -149 144 -468zM1021 597v264q0 198 -73 292q-72 96 -247 96q-165 0 -239 -94t-74 -294v-264q0 -209 76 -300t239 -91
q170 0 244 89t74 302zM1072 1799v-165h-731v165h731z" />
    <glyph glyph-name="omacron" unicode="&#x14d;" 
d="M67 530v21q0 293 135 422t374 129t376 -132q136 -132 136 -419v-21q0 -290 -136 -420q-136 -131 -374 -131q-239 0 -376 131q-135 130 -135 420zM358 551v-21q0 -179 52 -253q53 -74 168 -74q112 0 165 74q53 76 53 253v21q0 184 -53 255t-167 71q-113 0 -166 -71
q-52 -70 -52 -255zM944 1457v-165h-731v165h731z" />
    <glyph glyph-name="Obreve" unicode="&#x14e;" horiz-adv-x="1409" 
d="M1312 859v-262q0 -323 -146 -471q-146 -147 -463 -147q-321 0 -464 147q-142 146 -142 471v262q0 327 141 472q143 146 463 146q323 0 467 -150q144 -149 144 -468zM1021 597v264q0 198 -73 292q-72 96 -247 96q-165 0 -239 -94t-74 -294v-264q0 -209 76 -300t239 -91
q170 0 244 89t74 302zM830 1917h214l2 -6q5 -128 -89 -208t-251 -80q-158 0 -253 80q-94 81 -88 208l2 6h213q0 -56 31.5 -88.5t94.5 -32.5q61 0 92.5 33t31.5 88z" />
    <glyph glyph-name="obreve" unicode="&#x14f;" 
d="M67 530v21q0 293 135 422t374 129t376 -132q136 -132 136 -419v-21q0 -290 -136 -420q-136 -131 -374 -131q-239 0 -376 131q-135 130 -135 420zM358 551v-21q0 -179 52 -253q53 -74 168 -74q112 0 165 74q53 76 53 253v21q0 184 -53 255t-167 71q-113 0 -166 -71
q-52 -70 -52 -255zM702 1574h214l2 -6q5 -128 -89 -208t-251 -80q-158 0 -253 80q-94 81 -88 208l2 6h213q0 -56 31.5 -88.5t94.5 -32.5q61 0 92.5 33t31.5 88z" />
    <glyph glyph-name="Ohungarumlaut" unicode="&#x150;" horiz-adv-x="1409" 
d="M1312 859v-262q0 -323 -146 -471q-146 -147 -463 -147q-321 0 -464 147q-142 146 -142 471v262q0 327 141 472q143 146 463 146q323 0 467 -150q144 -149 144 -468zM1021 597v264q0 198 -73 292q-72 96 -247 96q-165 0 -239 -94t-74 -294v-264q0 -209 76 -300t239 -91
q170 0 244 89t74 302zM742 1627l240 261h279l2 -6l-285 -260h-234zM396 1622l198 266h275l2 -5l-240 -261h-235z" />
    <glyph glyph-name="ohungarumlaut" unicode="&#x151;" 
d="M67 530v21q0 293 135 422t374 129t376 -132q136 -132 136 -419v-21q0 -290 -136 -420q-136 -131 -374 -131q-239 0 -376 131q-135 130 -135 420zM358 551v-21q0 -179 52 -253q53 -74 168 -74q112 0 165 74q53 76 53 253v21q0 184 -53 255t-167 71q-113 0 -166 -71
q-52 -70 -52 -255zM614 1284l240 261h279l2 -6l-285 -260h-234zM268 1279l198 266h275l2 -5l-240 -261h-235z" />
    <glyph glyph-name="OE" unicode="&#x152;" horiz-adv-x="1984" 
d="M1803 224v-224h-812q-90 -10 -157 -15q-64 -6 -131 -6q-270 0 -438 165q-168 166 -168 432v304q0 264 167 431q166 166 437 166q106 0 290 -21h810v-225h-640v-366h540v-225h-540v-416h642zM703 204q98 0 166 9v1029q-118 10 -168 10q-149 0 -231 -95.5t-82 -274.5v-306
q0 -180 83 -276t232 -96z" />
    <glyph glyph-name="oe" unicode="&#x153;" horiz-adv-x="1848" 
d="M1361 -21q-258 0 -396 169q-139 -169 -387 -169q-240 0 -376 153q-135 154 -135 398v21q0 241 135 396t374 155q250 0 390 -170q133 170 376 170q218 0 334 -134q117 -133 117 -359v-151h-645l-3 -6q8 -112 67 -180q62 -69 180 -69q97 0 166 20q64 18 142 61l79 -180
q-65 -53 -176 -89t-242 -36zM358 551v-21q0 -149 52 -238q53 -89 168 -89q112 0 165 90q53 91 53 237v21q0 143 -53 235q-52 91 -167 91q-113 0 -166 -92q-52 -91 -52 -234zM1342 877q-85 0 -134 -59t-59 -162l2 -5h356v22q0 204 -165 204z" />
    <glyph glyph-name="Racute" unicode="&#x154;" horiz-adv-x="1305" 
d="M1195 990q0 -316 -278 -418l262 -496v-77h-287l-260 529h-202v-528h-293v1456h519q152 4 273.5 -49t193.5 -161t72 -256zM430 1231v-478h226q114 -4 181.5 61t67.5 174q0 111 -67.5 178.5t-181.5 64.5h-226zM487 1600l199 266h325l2 -6l-277 -260h-249z" />
    <glyph glyph-name="racute" unicode="&#x155;" horiz-adv-x="721" 
d="M704 1090l-1 -258q-60 3 -144 -1q-86 -3 -156 -20v-811h-291v1082h271l13 -123q37 47 94 95t136 48q35 0 78 -12zM271 1278l199 266h325l2 -6l-277 -260h-249z" />
    <glyph glyph-name="Rcommaaccent" unicode="&#x156;" horiz-adv-x="1305" 
d="M1195 990q0 -316 -278 -418l262 -496v-77h-287l-260 529h-202v-528h-293v1456h519q152 4 273.5 -49t193.5 -161t72 -256zM430 1231v-478h226q114 -4 181.5 61t67.5 174q0 111 -67.5 178.5t-181.5 64.5h-226zM716 -254v161h-190v-151l-61 -245h122z" />
    <glyph glyph-name="rcommaaccent" unicode="&#x157;" horiz-adv-x="721" 
d="M704 1090l-1 -258q-60 3 -144 -1q-86 -3 -156 -20v-811h-291v1082h271l13 -123q37 47 94 95t136 48q35 0 78 -12zM359 -93v-161l-129 -235h-122l61 245v151h190z" />
    <glyph glyph-name="Rcaron" unicode="&#x158;" horiz-adv-x="1305" 
d="M1195 990q0 -316 -278 -418l262 -496v-77h-287l-260 529h-202v-528h-293v1456h519q152 4 273.5 -49t193.5 -161t72 -256zM430 1231v-478h226q114 -4 181.5 61t67.5 174q0 111 -67.5 178.5t-181.5 64.5h-226zM511 1873l116 -127l117 127h264v-17l-281 -255h-199l-281 256
v16h264z" />
    <glyph glyph-name="rcaron" unicode="&#x159;" horiz-adv-x="721" 
d="M704 1090l-1 -258q-60 3 -144 -1q-86 -3 -156 -20v-811h-291v1082h271l13 -123q37 47 94 95t136 48q35 0 78 -12zM296 1551l116 -127l117 127h264v-17l-281 -255h-199l-281 256v16h264z" />
    <glyph glyph-name="Sacute" unicode="&#x15a;" horiz-adv-x="1266" 
d="M695 848q86 -24 152 -49.5t133 -65t110 -87t70 -115t27 -149.5q0 -103 -46 -182.5t-123.5 -126t-169.5 -70t-194 -23.5q-327 0 -578 128l59 256q213 -146 519 -146q240 0 240 162q0 86 -69 139t-194 92q-57 17 -99.5 32t-99 39t-97.5 49t-84.5 61t-71 75.5t-45 92
t-17.5 111.5q0 79 30 146.5t81 114.5t118.5 80t141.5 49t151 16q263 0 475 -97l-73 -252q-204 114 -406 114q-108 0 -167 -45.5t-59 -126.5q0 -108 161 -177q32 -13 125 -45zM491 1621l199 266h325l2 -6l-277 -260h-249z" />
    <glyph glyph-name="sacute" unicode="&#x15b;" horiz-adv-x="1056" 
d="M586 642q202 -40 298 -118.5t96 -212.5q0 -84 -39.5 -149.5t-105 -104t-144.5 -58.5t-166 -20q-85 0 -159.5 10.5t-131 30.5t-88.5 34t-69 35l79 217q85 -59 188.5 -83t186.5 -24q166 0 166 101q0 33 -21 59t-59.5 42t-68 25t-70.5 17q-194 39 -290.5 117t-96.5 207
q0 111 61 188.5t156.5 112t214.5 34.5q129 0 242 -29.5t184 -73.5l-113 -204q-146 87 -313 87q-71 0 -111.5 -26t-40.5 -76q0 -34 19 -59.5t52 -39.5t64 -22t67 -15q9 -1 13 -2zM379 1278l199 266h325l2 -6l-277 -260h-249z" />
    <glyph glyph-name="Scircumflex" unicode="&#x15c;" horiz-adv-x="1266" 
d="M695 848q86 -24 152 -49.5t133 -65t110 -87t70 -115t27 -149.5q0 -103 -46 -182.5t-123.5 -126t-169.5 -70t-194 -23.5q-327 0 -578 128l59 256q213 -146 519 -146q240 0 240 162q0 86 -69 139t-194 92q-57 17 -99.5 32t-99 39t-97.5 49t-84.5 61t-71 75.5t-45 92
t-17.5 111.5q0 79 30 146.5t81 114.5t118.5 80t141.5 49t151 16q263 0 475 -97l-73 -252q-204 114 -406 114q-108 0 -167 -45.5t-59 -126.5q0 -108 161 -177q32 -13 125 -45zM717 1879l287 -243v-23h-232l-140 133l-139 -133h-227v26l282 240h169z" />
    <glyph glyph-name="scircumflex" unicode="&#x15d;" horiz-adv-x="1056" 
d="M586 642q202 -40 298 -118.5t96 -212.5q0 -84 -39.5 -149.5t-105 -104t-144.5 -58.5t-166 -20q-85 0 -159.5 10.5t-131 30.5t-88.5 34t-69 35l79 217q85 -59 188.5 -83t186.5 -24q166 0 166 101q0 33 -21 59t-59.5 42t-68 25t-70.5 17q-194 39 -290.5 117t-96.5 207
q0 111 61 188.5t156.5 112t214.5 34.5q129 0 242 -29.5t184 -73.5l-113 -204q-146 87 -313 87q-71 0 -111.5 -26t-40.5 -76q0 -34 19 -59.5t52 -39.5t64 -22t67 -15q9 -1 13 -2zM605 1536l287 -243v-23h-232l-140 133l-139 -133h-227v26l282 240h169z" />
    <glyph glyph-name="Scedilla" unicode="&#x15e;" horiz-adv-x="1266" 
d="M695 848q86 -24 152 -49.5t133 -65t110 -87t70 -115t27 -149.5q0 -103 -46 -182.5t-123.5 -126t-169.5 -70t-194 -23.5q-327 0 -578 128l59 256q213 -146 519 -146q240 0 240 162q0 86 -69 139t-194 92q-57 17 -99.5 32t-99 39t-97.5 49t-84.5 61t-71 75.5t-45 92
t-17.5 111.5q0 79 30 146.5t81 114.5t118.5 80t141.5 49t151 16q263 0 475 -97l-73 -252q-204 114 -406 114q-108 0 -167 -45.5t-59 -126.5q0 -108 161 -177q32 -13 125 -45zM745 -3h-219l-31 -142q80 -5 111 -22t31 -57q0 -41 -29.5 -62t-81.5 -21l7 -161q168 0 259 64
q92 65 92 171q0 76 -40.5 118.5t-109.5 54.5z" />
    <glyph glyph-name="scedilla" unicode="&#x15f;" horiz-adv-x="1056" 
d="M586 642q202 -40 298 -118.5t96 -212.5q0 -84 -39.5 -149.5t-105 -104t-144.5 -58.5t-166 -20q-85 0 -159.5 10.5t-131 30.5t-88.5 34t-69 35l79 217q85 -59 188.5 -83t186.5 -24q166 0 166 101q0 33 -21 59t-59.5 42t-68 25t-70.5 17q-194 39 -290.5 117t-96.5 207
q0 111 61 188.5t156.5 112t214.5 34.5q129 0 242 -29.5t184 -73.5l-113 -204q-146 87 -313 87q-71 0 -111.5 -26t-40.5 -76q0 -34 19 -59.5t52 -39.5t64 -22t67 -15q9 -1 13 -2zM633 -3h-219l-31 -142q80 -5 111 -22t31 -57q0 -41 -29.5 -62t-81.5 -21l7 -161q168 0 259 64
q92 65 92 171q0 76 -40.5 118.5t-109.5 54.5z" />
    <glyph glyph-name="Scaron" unicode="&#x160;" horiz-adv-x="1266" 
d="M695 848q86 -24 152 -49.5t133 -65t110 -87t70 -115t27 -149.5q0 -103 -46 -182.5t-123.5 -126t-169.5 -70t-194 -23.5q-327 0 -578 128l59 256q213 -146 519 -146q240 0 240 162q0 86 -69 139t-194 92q-57 17 -99.5 32t-99 39t-97.5 49t-84.5 61t-71 75.5t-45 92
t-17.5 111.5q0 79 30 146.5t81 114.5t118.5 80t141.5 49t151 16q263 0 475 -97l-73 -252q-204 114 -406 114q-108 0 -167 -45.5t-59 -126.5q0 -108 161 -177q32 -13 125 -45zM515 1894l116 -127l117 127h264v-17l-281 -255h-199l-281 256v16h264z" />
    <glyph glyph-name="scaron" unicode="&#x161;" horiz-adv-x="1056" 
d="M586 642q202 -40 298 -118.5t96 -212.5q0 -84 -39.5 -149.5t-105 -104t-144.5 -58.5t-166 -20q-85 0 -159.5 10.5t-131 30.5t-88.5 34t-69 35l79 217q85 -59 188.5 -83t186.5 -24q166 0 166 101q0 33 -21 59t-59.5 42t-68 25t-70.5 17q-194 39 -290.5 117t-96.5 207
q0 111 61 188.5t156.5 112t214.5 34.5q129 0 242 -29.5t184 -73.5l-113 -204q-146 87 -313 87q-71 0 -111.5 -26t-40.5 -76q0 -34 19 -59.5t52 -39.5t64 -22t67 -15q9 -1 13 -2zM403 1551l116 -127l117 127h264v-17l-281 -255h-199l-281 256v16h264z" />
    <glyph glyph-name="Tcommaaccent" unicode="&#x162;" horiz-adv-x="1175" 
d="M1149 1456v-225h-416v-1231h-292v1231h-410v225h1118zM677 -93v-161l-129 -235h-122l61 245v151h190z" />
    <glyph glyph-name="tcommaaccent" unicode="&#x163;" horiz-adv-x="713" 
d="M149 1301l291 46v-265h183v-205h-183v-551q0 -70 46.5 -95t139.5 -13l14 -217q-16 -2 -43 -7t-44.5 -7.5t-42 -5t-47.5 -2.5q-314 0 -314 346v976zM523 -103v-161l-129 -235h-122l61 245v151h190z" />
    <glyph glyph-name="Tcaron" unicode="&#x164;" horiz-adv-x="1175" 
d="M1149 1456v-225h-416v-1231h-292v1231h-410v225h1118zM472 1873l116 -127l117 127h264v-17l-281 -255h-199l-281 256v16h264z" />
    <glyph glyph-name="tcaron" unicode="&#x165;" horiz-adv-x="713" 
d="M149 1301l291 46v-265h183v-205h-183v-551q0 -70 46.5 -95t139.5 -13l14 -217q-16 -2 -43 -7t-44.5 -7.5t-42 -5t-47.5 -2.5q-314 0 -314 346v976zM838 1589v-161l-129 -235h-122l61 245v151h190z" />
    <glyph glyph-name="Tbar" unicode="&#x166;" horiz-adv-x="1175" 
d="M930 938v-181h-197v-757h-292v757h-182v181h182v293h-410v225h1118v-225h-416v-293h197z" />
    <glyph glyph-name="tbar" unicode="&#x167;" horiz-adv-x="713" 
d="M171 1347h291v-265h183v-205h-183v-157h199v-181h-199v-213q0 -117 96 -117q39 0 79 11l24 -211q-89 -30 -176 -30q-314 0 -314 346v214h-181v181h181v157h-158v205h158v265z" />
    <glyph glyph-name="Utilde" unicode="&#x168;" horiz-adv-x="1407" 
d="M995 1456h293v-953q0 -246 -163 -385t-423 -139t-421 139q-161 140 -161 385v953h293v-953q0 -144 77 -222t212 -78q137 0 215 78t78 222v953zM924 1901l154 -45q0 -96 -60 -164q-58 -67 -150 -67q-72 0 -159 43q-90 44 -140 44q-36 0 -60 -32t-24 -78l-156 42
q0 93 59 163q60 70 150 70q55 0 152 -44q95 -43 148 -43q34 0 60 32.5t26 78.5z" />
    <glyph glyph-name="utilde" unicode="&#x169;" 
d="M816 0l-29 111q-63 -49 -139 -90q-76 -42 -179 -42q-175 0 -269.5 118.5t-94.5 357.5v627h291v-629q0 -142 38 -195q39 -52 120 -52q72 0 120 22q43 19 82 40v814h292v-1082h-232zM796 1558l154 -45q0 -97 -60 -164q-58 -67 -150 -67q-72 0 -159 43q-90 44 -140 44
q-36 0 -60 -32.5t-24 -77.5l-156 42q0 93 59 163q60 70 150 70q55 0 152 -44q95 -43 148 -43q34 0 60 32.5t26 78.5z" />
    <glyph glyph-name="Umacron" unicode="&#x16a;" horiz-adv-x="1407" 
d="M995 1456h293v-953q0 -246 -163 -385t-423 -139t-421 139q-161 140 -161 385v953h293v-953q0 -144 77 -222t212 -78q137 0 215 78t78 222v953zM1071 1778v-165h-731v165h731z" />
    <glyph glyph-name="umacron" unicode="&#x16b;" 
d="M816 0l-29 111q-63 -49 -139 -90q-76 -42 -179 -42q-175 0 -269.5 118.5t-94.5 357.5v627h291v-629q0 -142 38 -195q39 -52 120 -52q72 0 120 22q43 19 82 40v814h292v-1082h-232zM943 1436v-165h-731v165h731z" />
    <glyph glyph-name="Ubreve" unicode="&#x16c;" horiz-adv-x="1407" 
d="M995 1456h293v-953q0 -246 -163 -385t-423 -139t-421 139q-161 140 -161 385v953h293v-953q0 -144 77 -222t212 -78q137 0 215 78t78 222v953zM829 1896h214l2 -6q5 -128 -89 -208t-251 -80q-158 0 -253 80q-94 81 -88 208l2 6h213q0 -56 31.5 -88.5t94.5 -32.5
q61 0 92.5 33t31.5 88z" />
    <glyph glyph-name="ubreve" unicode="&#x16d;" 
d="M816 0l-29 111q-63 -49 -139 -90q-76 -42 -179 -42q-175 0 -269.5 118.5t-94.5 357.5v627h291v-629q0 -142 38 -195q39 -52 120 -52q72 0 120 22q43 19 82 40v814h292v-1082h-232zM701 1553h214l2 -6q5 -128 -89 -208t-251 -80q-158 0 -253 80q-94 81 -88 208l2 6h213
q0 -56 31.5 -88.5t94.5 -32.5q61 0 92.5 33t31.5 88z" />
    <glyph glyph-name="Uring" unicode="&#x16e;" horiz-adv-x="1407" 
d="M995 1456h293v-953q0 -246 -163 -385t-423 -139t-421 139q-161 140 -161 385v953h293v-953q0 -144 77 -222t212 -78q137 0 215 78t78 222v953zM517 1746q0 72 54 122q55 50 134 50q78 0 131 -50q54 -49 54 -122q0 -74 -54 -122q-53 -47 -131 -47q-79 0 -134 47
q-54 48 -54 122zM633 1746q0 -31 20.5 -51.5t51.5 -20.5q30 0 49.5 20t19.5 52t-19.5 52.5t-49.5 20.5q-31 0 -51.5 -20.5t-20.5 -52.5z" />
    <glyph glyph-name="uring" unicode="&#x16f;" 
d="M816 0l-29 111q-63 -49 -139 -90q-76 -42 -179 -42q-175 0 -269.5 118.5t-94.5 357.5v627h291v-629q0 -142 38 -195q39 -52 120 -52q72 0 120 22q43 19 82 40v814h292v-1082h-232zM389 1403q0 73 54 122q55 50 134 50q78 0 131 -50q54 -50 54 -122q0 -74 -54 -122
q-53 -47 -131 -47q-79 0 -134 47q-54 48 -54 122zM505 1403q0 -31 20.5 -51.5t51.5 -20.5q30 0 49.5 20t19.5 52t-19.5 52.5t-49.5 20.5q-31 0 -51.5 -20.5t-20.5 -52.5z" />
    <glyph glyph-name="Uhungarumlaut" unicode="&#x170;" horiz-adv-x="1407" 
d="M995 1456h293v-953q0 -246 -163 -385t-423 -139t-421 139q-161 140 -161 385v953h293v-953q0 -144 77 -222t212 -78q137 0 215 78t78 222v953zM741 1606l240 261h279l2 -6l-285 -260h-234zM395 1601l198 266h275l2 -5l-240 -261h-235z" />
    <glyph glyph-name="uhungarumlaut" unicode="&#x171;" 
d="M816 0l-29 111q-63 -49 -139 -90q-76 -42 -179 -42q-175 0 -269.5 118.5t-94.5 357.5v627h291v-629q0 -142 38 -195q39 -52 120 -52q72 0 120 22q43 19 82 40v814h292v-1082h-232zM613 1263l240 261h279l2 -6l-285 -260h-234zM267 1258l198 266h275l2 -5l-240 -261h-235z
" />
    <glyph glyph-name="Uogonek" unicode="&#x172;" horiz-adv-x="1407" 
d="M995 1456h293v-953q0 -246 -163 -385t-423 -139t-421 139q-161 140 -161 385v953h293v-953q0 -144 77 -222t212 -78q137 0 215 78t78 222v953zM677 60l132 -60q-53 -51 -79 -90q-25 -37 -25 -86q0 -70 86 -70q38 0 94 20l35 -154q-84 -44 -186 -44q-108 0 -178 57
q-69 55 -69 157q0 166 190 270z" />
    <glyph glyph-name="uogonek" unicode="&#x173;" 
d="M816 0l-29 111q-63 -49 -139 -90q-76 -42 -179 -42q-175 0 -269.5 118.5t-94.5 357.5v627h291v-629q0 -142 38 -195q39 -52 120 -52q72 0 120 22q43 19 82 40v814h292v-1082h-232zM830 60l132 -60q-53 -51 -79 -90q-25 -37 -25 -86q0 -70 86 -70q38 0 94 20l35 -154
q-84 -44 -186 -44q-107 0 -178 57q-69 55 -69 157q0 166 190 270z" />
    <glyph glyph-name="Wcircumflex" unicode="&#x174;" horiz-adv-x="1804" 
d="M1021 1183l262 -715h6l193 988h301l-340 -1456h-265l-270 747h-14l-269 -747h-265l-340 1456h301l194 -987h6l260 714h240zM987 1858l287 -243v-23h-232l-140 133l-139 -133h-227v26l282 240h169z" />
    <glyph glyph-name="wcircumflex" unicode="&#x175;" horiz-adv-x="1507" 
d="M852 894l201 -492h6l131 680h284l-275 -1082h-223l-219 533h-13l-219 -533h-221l-275 1082h284l133 -677h6l199 489h201zM837 1516l287 -243v-23h-232l-140 133l-139 -133h-227v26l282 240h169z" />
    <glyph glyph-name="Ycircumflex" unicode="&#x176;" horiz-adv-x="1303" 
d="M330 1456l318 -671h6l318 671h320l-499 -944v-512h-292v527l-491 929h320zM742 1858l287 -243v-23h-232l-140 133l-139 -133h-227v26l282 240h169z" />
    <glyph glyph-name="ycircumflex" unicode="&#x177;" horiz-adv-x="1046" 
d="M319 1082l183 -628l12 -60h6l207 688h314l-439 -1244q-47 -117 -125 -195q-80 -80 -237 -80q-33 0 -150 9l8 229q64 -8 86 -8q122 0 171 124l34 84l-384 1081h314zM608 1516l287 -243v-23h-232l-140 133l-139 -133h-227v26l282 240h169z" />
    <glyph glyph-name="Ydieresis" unicode="&#x178;" horiz-adv-x="1303" 
d="M330 1456l318 -671h6l318 671h320l-499 -944v-512h-292v527l-491 929h320zM1040 1805v-204h-266v204h266zM540 1805v-204h-266v204h266z" />
    <glyph glyph-name="Zacute" unicode="&#x179;" horiz-adv-x="1163" 
d="M1072 1310l-651 -1086h668v-224h-1012v152l648 1079h-647v225h994v-146zM460 1601l199 266h325l2 -6l-277 -260h-249z" />
    <glyph glyph-name="zacute" unicode="&#x17a;" horiz-adv-x="1046" 
d="M957 915l-519 -691h536v-224h-899v172l515 684h-499v226h866v-167zM383 1257l199 266h325l2 -6l-277 -260h-249z" />
    <glyph glyph-name="Zdotaccent" unicode="&#x17b;" horiz-adv-x="1163" 
d="M1072 1310l-651 -1086h668v-224h-1012v152l648 1079h-647v225h994v-146zM765 1843v-241h-327v241h327z" />
    <glyph glyph-name="zdotaccent" unicode="&#x17c;" horiz-adv-x="1046" 
d="M957 915l-519 -691h536v-224h-899v172l515 684h-499v226h866v-167zM688 1499v-241h-327v241h327z" />
    <glyph glyph-name="Zcaron" unicode="&#x17d;" horiz-adv-x="1163" 
d="M1072 1310l-651 -1086h668v-224h-1012v152l648 1079h-647v225h994v-146zM484 1874l116 -127l117 127h264v-17l-281 -255h-199l-281 256v16h264z" />
    <glyph glyph-name="zcaron" unicode="&#x17e;" horiz-adv-x="1046" 
d="M957 915l-519 -691h536v-224h-899v172l515 684h-499v226h866v-167zM407 1530l116 -127l117 127h264v-17l-281 -255h-199l-281 256v16h264z" />
    <glyph glyph-name="longs" unicode="&#x17f;" horiz-adv-x="532" 
d="M407 0h-291v1202q0 182 105 280q105 99 295 99q57 0 160 -21l-25 -215q-55 11 -97 11q-71 0 -109 -40.5t-38 -113.5v-1202z" />
    <glyph glyph-name="florin" unicode="&#x192;" horiz-adv-x="740" 
d="M683 1082v-205h-207l-1 -917q0 -189 -101 -293t-281 -104q-74 0 -143 17l15 221q50 -13 98 -13q57 0 88.5 45t31.5 127v917h-160v205h160v120q0 182 104.5 280.5t296.5 98.5q57 0 160 -21l-25 -217q-62 10 -99 10q-71 0 -107.5 -39t-36.5 -112v-120h207z" />
    <glyph glyph-name="Ohorn" unicode="&#x1a0;" horiz-adv-x="1435" 
d="M1307 859v-262q0 -269 -169 -444q-170 -174 -440 -174t-438 175q-168 176 -168 443v262q0 266 167 442q168 176 437 176q132 0 245.5 -46t196.5 -131q102 28 155 109.5t53 207.5h216q0 -190 -79 -317t-227 -179q51 -124 51 -262zM1016 597v264q0 170 -85 279t-235 109
q-149 0 -231 -109t-82 -279v-264q0 -172 83 -282q82 -109 232 -109t234 109t84 282z" />
    <glyph glyph-name="ohorn" unicode="&#x1a1;" horiz-adv-x="1191" 
d="M67 530v21q0 241 135 396t374 155q220 0 361 -139q114 71 114 268h211q0 -146 -60 -247.5t-174 -150.5q60 -128 60 -282v-21q0 -244 -136 -398q-135 -153 -374 -153q-240 0 -376 153q-135 154 -135 398zM358 551v-21q0 -149 52 -238q53 -89 168 -89q112 0 165 90
q53 91 53 237v21q0 143 -53 235q-52 91 -167 91q-113 0 -166 -92q-52 -91 -52 -234z" />
    <glyph glyph-name="Uhorn" unicode="&#x1af;" horiz-adv-x="1460" 
d="M995 1456h293v-181l6 -1q81 20 118 102.5t37 230.5h215q0 -471 -376 -525v-579q0 -246 -163 -385t-423 -139t-421 139q-161 140 -161 385v953h293v-953q0 -144 77 -222t212 -78q137 0 215 78t78 222v953z" />
    <glyph glyph-name="uhorn" unicode="&#x1b0;" horiz-adv-x="1166" 
d="M1207 1196h187l2 -5q3 -178 -82 -275.5t-266 -119.5v-796h-242l-31 160q-105 -181 -306 -181q-175 0 -269.5 118.5t-94.5 357.5v627h291v-629q0 -142 38 -195q39 -52 120 -52q137 0 202 89v787h292v-124l6 -2q81 13 117 70.5t36 169.5z" />
    <glyph glyph-name="uni01F0" unicode="&#x1f0;" horiz-adv-x="578" 
d="M150 1082h291v-1122q0 -189 -101 -293t-280 -104q-72 0 -144 17l15 221q50 -13 98 -13q57 0 89 45t32 127v1122zM158 1523l116 -127l117 127h264v-17l-281 -255h-199l-281 256v16h264z" />
    <glyph glyph-name="Aringacute" unicode="&#x1fa;" horiz-adv-x="1303" 
d="M992 0l-99 314h-472l-98 -314h-305l491 1456h299l489 -1456h-305zM655 1056l-162 -513h329l-161 513h-6zM571 1934l184 206h256l2 -6l-263 -205h-177zM451 1696q0 79 58 131q59 53 145 53q83 0 141 -53q58 -52 58 -131q0 -80 -58 -131q-57 -51 -141 -51q-86 0 -145 51
q-58 52 -58 131zM564 1696q0 -39 25.5 -63.5t64.5 -24.5q37 0 61.5 24.5t24.5 63.5t-24.5 64.5t-61.5 25.5q-39 0 -64.5 -25.5t-25.5 -64.5z" />
    <glyph glyph-name="aringacute" unicode="&#x1fb;" horiz-adv-x="1100" 
d="M993 723l1 -723h-254q-17 72 -24 111q-41 -61 -122.5 -96.5t-181.5 -35.5q-162 0 -258.5 84t-96.5 241q0 163 124 253t357 82q48 -2 89 -8t58 -11l17 -5v110q0 147 -161 147q-177 0 -368 -72l-46 224q205 78 431 78q102 0 179 -19.5t136 -62t89.5 -117.5t30.5 -180z
M702 241v200q-70 25 -164 25q-96 0 -142 -30.5t-46 -101.5q0 -140 133 -140q135 0 219 47zM464 1612l184 206h256l2 -6l-263 -205h-177zM344 1374q0 79 58 131q59 53 145 53q83 0 141 -53q58 -52 58 -131q0 -80 -58 -131q-57 -51 -141 -51q-87 0 -145 51q-58 52 -58 131z
M457 1374q0 -39 25.5 -63.5t64.5 -24.5q37 0 61.5 24.5t24.5 63.5t-24.5 64.5t-61.5 25.5q-39 0 -64.5 -25.5t-25.5 -64.5z" />
    <glyph glyph-name="AEacute" unicode="&#x1fc;" horiz-adv-x="1945" 
d="M1874 227v-227h-898l-14 335h-440l-168 -335h-342l784 1456h1016v-228h-596l16 -366h499v-227h-490l17 -408h616zM923 1135l-281 -560h310l-23 559zM802 1600l199 266h325l2 -6l-277 -260h-249z" />
    <glyph glyph-name="aeacute" unicode="&#x1fd;" horiz-adv-x="1771" 
d="M1713 454h-651l-2 -6q4 -114 67.5 -179.5t184.5 -65.5q79 0 146 24.5t148 80.5l98 -208q-156 -121 -423 -121q-259 0 -396 158q-63 -73 -166 -115.5t-236 -42.5q-180 0 -290.5 85t-110.5 252q0 160 127 246t369 86h181v59q0 153 -155 153q-88 0 -162.5 -17.5
t-170.5 -68.5l-109 217q184 111 445 111q205 0 329 -107q127 107 322 107q221 0 338 -121.5t117 -368.5v-158zM1258 866q-182 0 -196 -217l2 -5h362v28q0 94 -42.5 144t-125.5 50zM759 288v175h-179q-81 3 -144 -37.5t-63 -112.5q0 -60 42.5 -94t122.5 -34q55 0 120.5 30.5
t100.5 72.5zM755 1279l199 266h325l2 -6l-277 -260h-249z" />
    <glyph glyph-name="Oslashacute" unicode="&#x1fe;" horiz-adv-x="1410" 
d="M1312 859v-262q0 -340 -157 -479q-155 -139 -452 -139q-242 0 -415 139q-173 140 -191 479v262q0 315 141 467q142 151 463 151q291 0 451 -151t160 -467zM388 861v-264q0 -125 28 -168l6 -1l498 730q-88 91 -219 91q-150 0 -231.5 -99t-81.5 -289zM1021 597v264
q0 70 -12 103l-5 1l-468 -711q68 -48 167 -48q152 0 235 99t83 292zM572 1662l199 266h325l2 -6l-277 -260h-249z" />
    <glyph glyph-name="oslashacute" unicode="&#x1ff;" 
d="M67 530v21q0 241 135 396t374 155q53 0 139 -19q92 -20 180 -86q91 -67 142 -185q51 -117 51 -261v-21q0 -244 -136 -398q-135 -153 -374 -153q-51 0 -125 13q-75 13 -179 81q-101 68 -154 186.5t-53 270.5zM358 551v-21q0 -134 35 -200l6 -1l260 531q-39 17 -83 17
q-113 0 -166 -92q-52 -91 -52 -234zM796 530v21q0 113 -30 184l-6 1l-255 -521q27 -12 73 -12q112 0 165 90q53 91 53 237zM398 1274l199 266h325l2 -6l-277 -260h-249z" />
    <glyph glyph-name="Scommaaccent" unicode="&#x218;" horiz-adv-x="1266" 
d="M695 848q86 -24 152 -49.5t133 -65t110 -87t70 -115t27 -149.5q0 -103 -46 -182.5t-123.5 -126t-169.5 -70t-194 -23.5q-327 0 -578 128l59 256q213 -146 519 -146q240 0 240 162q0 86 -69 139t-194 92q-57 17 -99.5 32t-99 39t-97.5 49t-84.5 61t-71 75.5t-45 92
t-17.5 111.5q0 79 30 146.5t81 114.5t118.5 80t141.5 49t151 16q263 0 475 -97l-73 -252q-204 114 -406 114q-108 0 -167 -45.5t-59 -126.5q0 -108 161 -177q32 -13 125 -45zM720 -274v161h-190v-151l-61 -245h122z" />
    <glyph glyph-name="scommaaccent" unicode="&#x219;" horiz-adv-x="1056" 
d="M586 642q202 -40 298 -118.5t96 -212.5q0 -84 -39.5 -149.5t-105 -104t-144.5 -58.5t-166 -20q-85 0 -159.5 10.5t-131 30.5t-88.5 34t-69 35l79 217q85 -59 188.5 -83t186.5 -24q166 0 166 101q0 33 -21 59t-59.5 42t-68 25t-70.5 17q-194 39 -290.5 117t-96.5 207
q0 111 61 188.5t156.5 112t214.5 34.5q129 0 242 -29.5t184 -73.5l-113 -204q-146 87 -313 87q-71 0 -111.5 -26t-40.5 -76q0 -34 19 -59.5t52 -39.5t64 -22t67 -15q9 -1 13 -2zM608 -274v161h-190v-151l-61 -245h122z" />
    <glyph glyph-name="uni0237" unicode="&#x237;" horiz-adv-x="578" 
d="M150 1082h291v-1122q0 -189 -101 -293t-280 -104q-72 0 -144 17l15 221q50 -13 98 -13q57 0 89 45t32 127v1122z" />
    <glyph glyph-name="uni02BC" unicode="&#x2bc;" horiz-adv-x="557" 
d="M405 1456v-259l-102 -285h-144v544h246z" />
    <glyph glyph-name="circumflex" unicode="&#x2c6;" horiz-adv-x="1016" 
d="M588 1518l287 -243v-23h-232l-140 133l-139 -133h-227v26l282 240h169z" />
    <glyph glyph-name="caron" unicode="&#x2c7;" horiz-adv-x="965" 
d="M363 1524l116 -127l117 127h264v-17l-281 -255h-199l-281 256v16h264z" />
    <glyph glyph-name="breve" unicode="&#x2d8;" horiz-adv-x="910" 
d="M577 1456h214l2 -6q5 -128 -89 -208t-251 -80q-158 0 -253 80q-94 81 -88 208l2 6h213q0 -56 31.5 -88.5t94.5 -32.5q61 0 92.5 33t31.5 88z" />
    <glyph glyph-name="dotaccent" unicode="&#x2d9;" horiz-adv-x="629" 
d="M465 1468v-241h-327v241h327z" />
    <glyph glyph-name="ring" unicode="&#x2da;" horiz-adv-x="682" 
d="M154 1305q0 73 54 122q55 50 134 50q78 0 131 -50q54 -49 54 -122q0 -74 -54 -122q-53 -47 -131 -47q-79 0 -134 47q-54 48 -54 122zM270 1305q0 -31 20.5 -51.5t51.5 -20.5q30 0 49.5 20t19.5 52t-19.5 52.5t-49.5 20.5q-31 0 -51.5 -20.5t-20.5 -52.5z" />
    <glyph glyph-name="ogonek" unicode="&#x2db;" horiz-adv-x="618" 
d="M273 60l132 -60q-53 -51 -79 -90q-25 -37 -25 -86q0 -70 86 -70q38 0 94 20l35 -154q-84 -44 -186 -44q-108 0 -178 57q-69 55 -69 157q0 166 190 270z" />
    <glyph glyph-name="tilde" unicode="&#x2dc;" horiz-adv-x="986" 
d="M714 1529l154 -45q0 -96 -60 -164q-58 -67 -150 -67q-72 0 -159 43q-90 44 -140 44q-36 0 -60 -32t-24 -78l-156 42q0 93 59 163q60 70 150 70q55 0 152 -44q95 -43 148 -43q34 0 60 32.5t26 78.5z" />
    <glyph glyph-name="hungarumlaut" unicode="&#x2dd;" horiz-adv-x="876" 
d="M487 1257l240 261h279l2 -6l-285 -260h-234zM141 1252l198 266h275l2 -5l-240 -261h-235z" />
    <glyph glyph-name="uni02F3" unicode="&#x2f3;" horiz-adv-x="664" 
d="M158 -228q0 71 53 118t131 47q75 0 128 -47q52 -46 52 -118q0 -70 -52 -116t-128 -46q-80 0 -132 46t-52 116zM272 -228q0 -29 19.5 -48.5t50.5 -19.5q29 0 47.5 19t18.5 49q0 32 -18.5 51.5t-47.5 19.5q-31 0 -50.5 -19.5t-19.5 -51.5z" />
    <glyph glyph-name="gravecomb" unicode="&#x300;" horiz-adv-x="0" 
d="M-585 1615l136 -351h-175l-189 343l1 8h227z" />
    <glyph glyph-name="acutecomb" unicode="&#x301;" horiz-adv-x="0" 
d="M-649 1264l135 352h222l2 -8l-190 -344h-169z" />
    <glyph glyph-name="tildecomb" unicode="&#x303;" horiz-adv-x="0" 
d="M-305 1529l154 -45q0 -96 -59 -164q-60 -67 -151 -67q-71 0 -158 43q-90 44 -141 44q-36 0 -60 -32t-24 -78l-156 42q0 94 60 163q58 70 149 70q55 0 152 -44q95 -43 148 -43q34 0 60 32.5t26 78.5z" />
    <glyph glyph-name="hook" unicode="&#x309;" horiz-adv-x="0" 
d="M-501 1264h-218l-16 137q74 3 105.5 18t26.5 45v6q5 34 -30.5 50t-105.5 16l7 133q183 0 282 -51.5t99 -143.5q0 -61 -41.5 -98.5t-108.5 -46.5v-65z" />
    <glyph glyph-name="uni030F" unicode="&#x30f;" horiz-adv-x="0" 
d="M-755 1518l240 -261l-2 -5h-233l-285 260l2 6h278zM-367 1518l199 -266h-236l-240 261l2 5h275z" />
    <glyph glyph-name="dotbelow" unicode="&#x323;" horiz-adv-x="0" 
d="M-435 -113v-241h-327v241h327z" />
    <glyph glyph-name="tonos" unicode="&#x384;" horiz-adv-x="695" 
d="M241 1270l61 283h278l-197 -283h-142z" />
    <glyph glyph-name="dieresistonos" unicode="&#x385;" horiz-adv-x="1125" 
d="M955 1456v-204h-254v204h254zM406 1456v-204h-253v204h253zM478 1478l42 279h282l-176 -279h-148z" />
    <glyph glyph-name="Alphatonos" unicode="&#x386;" horiz-adv-x="1303" 
d="M992 0l-99 314h-472l-98 -314h-305l491 1456h299l489 -1456h-305zM655 1056l-162 -513h329l-161 513h-6zM92 1270l61 283h278l-197 -283h-142z" />
    <glyph glyph-name="anoteleia" unicode="&#x387;" horiz-adv-x="619" 
d="M451 828v-260h-292v260h292z" />
    <glyph glyph-name="Epsilontonos" unicode="&#x388;" horiz-adv-x="1139" 
d="M966 865v-225h-540v-416h642l1 -224h-935v1456h932v-225h-640v-366h540zM-239 1272l61 283h278l-197 -283h-142z" />
    <glyph glyph-name="Etatonos" unicode="&#x389;" horiz-adv-x="1445" 
d="M1311 1456v-1456h-292v605h-593v-605h-292v1456h292v-626h593v626h292zM-197 1269l61 283h278l-197 -283h-142z" />
    <glyph glyph-name="Iotatonos" unicode="&#x38a;" horiz-adv-x="601" 
d="M446 1456v-1456h-292v1456h292zM-186 1272l61 283h278l-197 -283h-142z" />
    <glyph glyph-name="Omicrontonos" unicode="&#x38c;" horiz-adv-x="1409" 
d="M1312 859v-262q0 -323 -146 -471q-146 -147 -463 -147q-321 0 -464 147q-142 146 -142 471v262q0 327 141 472q143 146 463 146q323 0 467 -150q144 -149 144 -468zM1021 597v264q0 198 -73 292q-72 96 -247 96q-165 0 -239 -94t-74 -294v-264q0 -209 76 -300t239 -91
q170 0 244 89t74 302zM-28 1270l61 283h278l-197 -283h-142z" />
    <glyph glyph-name="Upsilontonos" unicode="&#x38e;" horiz-adv-x="1303" 
d="M330 1456l318 -671h6l318 671h320l-499 -944v-512h-292v527l-491 929h320zM-287 1270l61 283h278l-197 -283h-142z" />
    <glyph glyph-name="Omegatonos" unicode="&#x38f;" horiz-adv-x="1376" 
d="M735 0v231q95 34 146.5 167.5t51.5 365.5v94q0 189 -67 290t-188 101q-120 0 -186 -101t-66 -290v-94q0 -463 204 -533v-231h-504v227h251q-123 90 -198 232q-75 143 -75 305v92q0 273 159 447q160 174 415 174q256 0 416 -174q161 -175 161 -447v-92q0 -163 -76 -305
q-75 -142 -196 -232h257v-227h-505zM-44 1270l61 283h278l-197 -283h-142z" />
    <glyph glyph-name="iotadieresistonos" unicode="&#x390;" horiz-adv-x="681" 
d="M137 1081h292v-760q0 -63 21.5 -89t69.5 -26q30 0 46 3q26 7 52 15l30 -210q-82 -35 -187 -35q-158 0 -241 86.5t-83 259.5v756zM688 1392v-204h-254v204h254zM139 1392v-204h-253v204h253zM211 1414l42 279h282l-176 -279h-148z" />
    <glyph glyph-name="Alpha" unicode="&#x391;" horiz-adv-x="1303" 
d="M992 0l-99 314h-472l-98 -314h-305l491 1456h299l489 -1456h-305zM655 1056l-162 -513h329l-161 513h-6z" />
    <glyph glyph-name="Beta" unicode="&#x392;" horiz-adv-x="1305" 
d="M697 0h-563v1456h477q256 0 401 -101q144 -100 144 -298q0 -101 -53 -180t-151 -118q136 -25 205 -118t69 -217q0 -208 -137 -316t-392 -108zM694 644h-268v-420h271q117 0 177.5 50.5t60.5 149.5q0 107 -60.5 163.5t-180.5 56.5zM426 1231v-385h195q118 0 180.5 48
t62.5 140q0 197 -253 197h-185z" />
    <glyph glyph-name="Gamma" unicode="&#x393;" horiz-adv-x="1137" 
d="M1081 1456v-225h-657v-1231h-292v1456h949z" />
    <glyph glyph-name="Delta" unicode="&#x394;" horiz-adv-x="1494" 
d="M22 0l583 1456h300l572 -1456h-1455zM751 1109l-339 -885h676l-331 885h-6z" />
    <glyph glyph-name="Delta" unicode="&#x2206;" horiz-adv-x="1494" 
d="M22 0l583 1456h300l572 -1456h-1455zM751 1109l-339 -885h676l-331 885h-6z" />
    <glyph glyph-name="Epsilon" unicode="&#x395;" horiz-adv-x="1139" 
d="M966 865v-225h-540v-416h642l1 -224h-935v1456h932v-225h-640v-366h540z" />
    <glyph glyph-name="Zeta" unicode="&#x396;" horiz-adv-x="1163" 
d="M1072 1310l-651 -1086h668v-224h-1012v152l648 1079h-647v225h994v-146z" />
    <glyph glyph-name="Eta" unicode="&#x397;" horiz-adv-x="1445" 
d="M1311 1456v-1456h-292v605h-593v-605h-292v1456h292v-626h593v626h292z" />
    <glyph glyph-name="Theta" unicode="&#x398;" horiz-adv-x="1410" 
d="M900 837v-224h-380v224h380zM1312 859v-262q0 -269 -169 -444q-169 -174 -440 -174q-270 0 -438 175q-168 176 -168 443v262q0 266 167 442q168 176 437 176q271 0 441 -176t170 -442zM1021 597v264q0 170 -85 279t-235 109q-149 0 -231 -109t-82 -279v-264
q0 -172 83 -282q82 -109 232 -109t234 109t84 282z" />
    <glyph glyph-name="Iota" unicode="&#x399;" horiz-adv-x="601" 
d="M446 1456v-1456h-292v1456h292z" />
    <glyph glyph-name="Kappa" unicode="&#x39a;" horiz-adv-x="1305" 
d="M1282 35v-35h-347l-402 608l-107 18v-626h-292v1456h292v-609l82 14l399 595h344v-22l-487 -655z" />
    <glyph glyph-name="Lambda" unicode="&#x39b;" horiz-adv-x="1328" 
d="M1001 0l-335 1136h-6l-335 -1136h-306l494 1456h299l494 -1456h-305z" />
    <glyph glyph-name="Mu" unicode="&#x39c;" horiz-adv-x="1782" 
d="M508 1456l373 -801h15l381 801h371v-1456h-292v994l-6 1l-360 -702h-198l-360 704l-6 -1v-996h-292v1456h374z" />
    <glyph glyph-name="Nu" unicode="&#x39d;" horiz-adv-x="1445" 
d="M1311 1456v-1456h-292l-587 982l-6 -1v-981h-292v1456h292l587 -981l6 1v980h292z" />
    <glyph glyph-name="Xi" unicode="&#x39e;" horiz-adv-x="1163" 
d="M98 0v224h981v-224h-981zM210 632v217h756v-217h-756zM120 1231v225h918v-225h-918z" />
    <glyph glyph-name="Omicron" unicode="&#x39f;" horiz-adv-x="1409" 
d="M1312 859v-262q0 -323 -146 -471q-146 -147 -463 -147q-321 0 -464 147q-142 146 -142 471v262q0 327 141 472q143 146 463 146q323 0 467 -150q144 -149 144 -468zM1021 597v264q0 198 -73 292q-72 96 -247 96q-165 0 -239 -94t-74 -294v-264q0 -209 76 -300t239 -91
q170 0 244 89t74 302z" />
    <glyph glyph-name="Pi" unicode="&#x3a0;" horiz-adv-x="1444" 
d="M1311 1456v-1456h-292v1231h-594v-1231h-292v1456h1178z" />
    <glyph glyph-name="Rho" unicode="&#x3a1;" horiz-adv-x="1305" 
d="M691 528h-265v-528h-292v1456h557q250 0 395 -128q144 -128 144 -337t-144 -336q-143 -127 -395 -127zM426 1231v-478h265q122 0 185 66q63 67 63 170q0 105 -63 173q-61 69 -185 69h-265z" />
    <glyph glyph-name="Sigma" unicode="&#x3a3;" horiz-adv-x="1163" 
d="M824 741v-17l-364 -499h645v-225h-1033v152l443 581l-443 572v151h1006v-225h-616z" />
    <glyph glyph-name="Tau" unicode="&#x3a4;" horiz-adv-x="1175" 
d="M1149 1456v-225h-416v-1231h-292v1231h-410v225h1118z" />
    <glyph glyph-name="Upsilon" unicode="&#x3a5;" horiz-adv-x="1303" 
d="M330 1456l318 -671h6l318 671h320l-499 -944v-512h-292v527l-491 929h320z" />
    <glyph glyph-name="Phi" unicode="&#x3a6;" horiz-adv-x="1507" 
d="M909 1456v-201q249 -17 401 -161q154 -145 154 -374q0 -226 -154 -368t-401 -157v-195h-292v195q-251 14 -404 155q-154 142 -154 368q0 232 154 377q156 147 404 160v201h292zM345 718q0 -124 71 -197.5t195 -79.5l6 2v564l-6 2q-124 -8 -195 -84.5t-71 -206.5z
M1177 720q0 128 -70 204t-192 85l-6 -2v-564l6 -2q122 8 192 81.5t70 197.5z" />
    <glyph glyph-name="Chi" unicode="&#x3a7;" horiz-adv-x="1303" 
d="M380 1456l269 -516l273 516h340l-432 -722l457 -734h-353l-281 525l-281 -525h-341l443 734l-432 722h338z" />
    <glyph glyph-name="Psi" unicode="&#x3a8;" horiz-adv-x="1483" 
d="M888 1456v-875l6 -1q115 15 175 106t60 253v517h293v-517q0 -261 -144 -415q-145 -156 -390 -181v-343h-291v342q-250 21 -396 176q-145 155 -145 421v517h291v-517q0 -157 63.5 -249t180.5 -110l6 2v874h291z" />
    <glyph glyph-name="Omega" unicode="&#x3a9;" horiz-adv-x="1376" 
d="M735 0v231q95 34 146.5 167.5t51.5 365.5v94q0 189 -67 290t-188 101q-120 0 -186 -101t-66 -290v-94q0 -463 204 -533v-231h-504v227h251q-123 90 -198 232q-75 143 -75 305v92q0 273 159 447q160 174 415 174q256 0 416 -174q161 -175 161 -447v-92q0 -163 -76 -305
q-75 -142 -196 -232h257v-227h-505z" />
    <glyph glyph-name="Omega" unicode="&#x2126;" horiz-adv-x="1376" 
d="M735 0v231q95 34 146.5 167.5t51.5 365.5v94q0 189 -67 290t-188 101q-120 0 -186 -101t-66 -290v-94q0 -463 204 -533v-231h-504v227h251q-123 90 -198 232q-75 143 -75 305v92q0 273 159 447q160 174 415 174q256 0 416 -174q161 -175 161 -447v-92q0 -163 -76 -305
q-75 -142 -196 -232h257v-227h-505z" />
    <glyph glyph-name="Iotadieresis" unicode="&#x3aa;" horiz-adv-x="601" 
d="M446 1456v-1456h-292v1456h292zM684 1805v-204h-266v204h266zM184 1805v-204h-266v204h266z" />
    <glyph glyph-name="Upsilondieresis" unicode="&#x3ab;" horiz-adv-x="1303" 
d="M330 1456l318 -671h6l318 671h320l-499 -944v-512h-292v527l-491 929h320zM1040 1805v-204h-266v204h266zM540 1805v-204h-266v204h266z" />
    <glyph glyph-name="alphatonos" unicode="&#x3ac;" horiz-adv-x="1154" 
d="M811 1082h218v-757q0 -62 17 -88.5t54 -26.5q23 0 41 7l25 -210q-63 -28 -141 -28q-190 0 -255 154q-100 -154 -276 -154q-200 0 -311 146q-110 146 -110 386v21q0 256 111 413t312 157q168 0 269 -154zM365 532v-21q0 -143 47 -226q48 -82 156 -82q89 0 170 68l-1 529
q-77 77 -167 77q-106 0 -156 -96q-49 -94 -49 -249zM509 1223l61 283h278l-197 -283h-142z" />
    <glyph glyph-name="epsilontonos" unicode="&#x3ad;" horiz-adv-x="1140" 
d="M369 556q-83 35 -131 98.5t-48 136.5q0 147 119.5 228.5t322.5 81.5q102 0 211 -22t160 -61l-84 -209q-126 80 -287 80q-77 0 -115 -27t-38 -90q0 -70 40 -103t105 -33h128v-183h-128q-164 0 -164 -137q0 -60 46.5 -92t125.5 -32q174 0 275 88l94 -220
q-58 -38 -166.5 -59.5t-202.5 -21.5q-119 0 -221 34t-171 108.5t-69 177.5q0 93 51.5 159t146.5 98zM475 1222l61 283h278l-197 -283h-142z" />
    <glyph glyph-name="etatonos" unicode="&#x3ae;" 
d="M107 1082h272l13 -152q54 82 133 127t175 45q164 0 256 -104t92 -335v-1078h-293v1077q0 114 -39.5 164.5t-122.5 50.5q-126 0 -194 -90v-787h-292v1082zM467 1223l61 283h278l-197 -283h-142z" />
    <glyph glyph-name="iotatonos" unicode="&#x3af;" horiz-adv-x="681" 
d="M137 1081h292v-760q0 -63 21.5 -89t69.5 -26q30 0 46 3q26 7 52 15l30 -210q-82 -35 -187 -35q-158 0 -241 86.5t-83 259.5v756zM188 1201l61 283h278l-197 -283h-142z" />
    <glyph glyph-name="upsilondieresistonos" unicode="&#x3b0;" 
d="M113 1082h291v-612q0 -137 48.5 -202t136.5 -65q105 0 153 105q48 106 48 258q-6 241 -101 516h278q114 -238 114 -516q0 -268 -114 -428q-113 -159 -368 -159q-228 0 -358 122q-128 122 -128 371v610zM987 1393v-204h-254v204h254zM438 1393v-204h-253v204h253z
M510 1415l42 279h282l-176 -279h-148z" />
    <glyph glyph-name="alpha" unicode="&#x3b1;" horiz-adv-x="1154" 
d="M811 1082h218v-757q0 -62 17 -88.5t54 -26.5q23 0 41 7l25 -210q-63 -28 -141 -28q-190 0 -255 154q-100 -154 -276 -154q-200 0 -311 146q-110 146 -110 386v21q0 256 111 413t312 157q168 0 269 -154zM365 532v-21q0 -143 47 -226q48 -82 156 -82q89 0 170 68l-1 529
q-77 77 -167 77q-106 0 -156 -96q-49 -94 -49 -249z" />
    <glyph glyph-name="beta" unicode="&#x3b2;" horiz-adv-x="1233" 
d="M627 1477q215 0 342 -105q128 -105 128 -290q0 -98 -50.5 -179.5t-140.5 -129.5q121 -43 187.5 -136t66.5 -222q0 -207 -120 -322q-118 -114 -326 -114q-160 0 -281 76v-458h-291v1440q0 193 140 316q140 124 345 124zM558 859h65q182 0 182 204q0 78 -47 134
q-46 55 -131 55q-86 0 -140 -59t-54 -156v-773q79 -61 215 -61q102 0 160 60q60 61 60 155q0 109 -56.5 172t-157.5 63h-96v206z" />
    <glyph glyph-name="gamma" unicode="&#x3b3;" horiz-adv-x="1046" 
d="M548 403l178 679h305l-362 -1065v-434h-292v437l-361 1062h305l182 -679l19 -100h6z" />
    <glyph glyph-name="delta" unicode="&#x3b4;" 
d="M170 1456h809v-224h-404l-2 -6l244 -188q117 -86 194 -210q77 -122 77 -277v-21q0 -244 -136 -398q-135 -153 -374 -153t-376 146q-135 145 -135 379v21q0 201 108 340q109 140 277 170l8 1l1 6l-291 237v177zM576 877q-113 0 -166 -92q-52 -91 -52 -234v-21
q0 -149 52 -238q53 -89 168 -89q112 0 165 90q53 91 53 237v21q0 143 -53 235q-52 91 -167 91z" />
    <glyph glyph-name="epsilon" unicode="&#x3b5;" horiz-adv-x="1140" 
d="M369 556q-83 35 -131 98.5t-48 136.5q0 147 119.5 228.5t322.5 81.5q102 0 211 -22t160 -61l-84 -209q-126 80 -287 80q-77 0 -115 -27t-38 -90q0 -70 40 -103t105 -33h128v-183h-128q-164 0 -164 -137q0 -60 46.5 -92t125.5 -32q174 0 275 88l94 -220
q-58 -38 -166.5 -59.5t-202.5 -21.5q-119 0 -221 34t-171 108.5t-69 177.5q0 93 51.5 159t146.5 98z" />
    <glyph glyph-name="zeta" unicode="&#x3b6;" horiz-adv-x="1034" 
d="M75 1456h893v-156l-360 -432q-107 -126 -155 -225q-46 -93 -46 -221q0 -102 48.5 -151.5t150.5 -49.5h54q148 0 232.5 -73.5t84.5 -206.5q-1 -123 -91 -225q-89 -101 -238 -143l-97 193q71 30 107.5 65.5t36.5 85.5q0 83 -135 83h-49q-193 0 -294 110q-100 109 -100 272
q0 154 66 293q68 143 205 310l205 242l-2 5h-516v224z" />
    <glyph glyph-name="eta" unicode="&#x3b7;" 
d="M107 1082h272l13 -152q54 82 133 127t175 45q164 0 256 -104t92 -335v-1078h-293v1077q0 114 -39.5 164.5t-122.5 50.5q-126 0 -194 -90v-787h-292v1082z" />
    <glyph glyph-name="theta" unicode="&#x3b8;" horiz-adv-x="1209" 
d="M1086 928v-401q0 -257 -135 -402q-134 -146 -356 -146q-224 0 -359 146q-135 145 -135 402v401q0 254 134 402q135 147 358 147q222 0 357 -147q136 -146 136 -402zM795 499v124h-403v-124q0 -143 53 -219.5t150 -76.5q96 0 148 76.5t52 219.5zM392 958v-118h403v118
q0 140 -53 217t-149 77t-148.5 -77t-52.5 -217z" />
    <glyph glyph-name="iota" unicode="&#x3b9;" horiz-adv-x="681" 
d="M137 1081h292v-760q0 -63 21.5 -89t69.5 -26q30 0 46 3q26 7 52 15l30 -210q-82 -35 -187 -35q-158 0 -241 86.5t-83 259.5v756z" />
    <glyph glyph-name="kappa" unicode="&#x3ba;" horiz-adv-x="1210" 
d="M798 0l-261 405l-116 18v-423h-292v1082h292v-434l87 22l279 412h368l-384 -507l401 -575h-374z" />
    <glyph glyph-name="lambda" unicode="&#x3bb;" horiz-adv-x="1102" 
d="M509 623l-182 -623h-315l376 1059l-54 108q-25 57 -65.5 91t-91.5 34q-36 0 -66 -6l-6 209q84 23 143 23q158 0 237 -79q80 -80 125 -195l363 -899q39 -115 118 -128q15 -3 52 -1l-19 -219q-71 -13 -132 -9q-127 9 -202 100q-75 93 -118 223l-142 392h-6z" />
    <glyph glyph-name="uni03BC" unicode="&#x3bc;" horiz-adv-x="1264" 
d="M139 1082h291v-620q0 -149 45 -203q45 -53 135 -53q146 0 203 107v769h292v-1082h-272l-6 67q-91 -88 -224 -88q-106 0 -173 44v-439h-291v1498z" />
    <glyph glyph-name="nu" unicode="&#x3bd;" horiz-adv-x="1046" 
d="M321 1082l182 -679l19 -100h6l20 100l178 679h305l-368 -1082h-279l-368 1082h305z" />
    <glyph glyph-name="xi" unicode="&#x3be;" horiz-adv-x="1097" 
d="M122 1456h859v-232h-280q-107 -3 -161.5 -45t-54.5 -116q0 -77 55 -119.5t166 -42.5h151v-232h-143q-157 0 -238.5 -64.5t-81.5 -188.5q0 -93 63.5 -149t172.5 -56h121q155 0 241 -71t86 -206q-2 -140 -86 -236.5t-242 -145.5l-82 172q59 26 101 63q43 36 43 96
q0 96 -128 96h-70q-233 0 -373 116q-138 117 -138 325q0 132 75 224.5t220 139.5q-100 34 -152.5 94t-52.5 141q0 137 142 205h-213v232z" />
    <glyph glyph-name="omicron" unicode="&#x3bf;" 
d="M67 530v21q0 293 135 422t374 129t376 -132q136 -132 136 -419v-21q0 -290 -136 -420q-136 -131 -374 -131q-239 0 -376 131q-135 130 -135 420zM358 551v-21q0 -179 52 -253q53 -74 168 -74q112 0 165 74q53 76 53 253v21q0 184 -53 255t-167 71q-113 0 -166 -71
q-52 -70 -52 -255z" />
    <glyph glyph-name="pi" unicode="&#x3c0;" horiz-adv-x="1356" 
d="M1223 1082v-214h-193v-547q0 -63 21.5 -89t69.5 -26q29 0 46 3q26 7 52 15l30 -210q-82 -35 -187 -35q-158 0 -241 86.5t-83 259.5v543h-209v-868h-292v868h-159v214h1145z" />
    <glyph glyph-name="rho" unicode="&#x3c1;" 
d="M1086 532v-21q0 -240 -110 -386t-309 -146q-167 0 -264 120v-515h-291v993q0 235 133 380t362 145q230 0 354 -157q125 -157 125 -413zM795 511v21q0 155 -49 249q-49 96 -154 96q-95 0 -142 -92t-47 -231l-1 -1h1v-256q55 -94 188 -94q103 0 153.5 81t50.5 227z" />
    <glyph glyph-name="sigma1" unicode="&#x3c2;" horiz-adv-x="1052" 
d="M562 1102q200 0 321 -112q122 -111 117 -302l-2 -6h-266q0 87 -44.5 141t-125.5 54q-112 0 -160 -91q-48 -92 -48 -231v-30q0 -137 65.5 -210.5t209.5 -94.5q190 -30 275 -94q87 -64 87 -198q-1 -124 -91 -226q-88 -100 -237 -142l-97 193q72 32 107.5 66t35.5 85
q0 39 -36.5 61.5t-117.5 37.5q-493 71 -493 522v30q0 237 131 392q132 155 369 155z" />
    <glyph glyph-name="sigma" unicode="&#x3c3;" horiz-adv-x="1172" 
d="M1149 1082v-226h-258q83 -68 131.5 -159t48.5 -187v-21q0 -221 -132 -366q-132 -144 -362 -144q-241 0 -377 153q-135 154 -135 398v21q0 233 135 382q137 149 375 149h574zM357 551v-21q0 -149 52 -238q53 -89 168 -89q105 0 154 90q49 89 49 237v21q0 134 -50 220
q-49 85 -155 85q-113 0 -166 -86q-52 -85 -52 -219z" />
    <glyph glyph-name="tau" unicode="&#x3c4;" horiz-adv-x="1076" 
d="M1031 1082v-223h-347v-859h-292v859h-341v223h980z" />
    <glyph glyph-name="upsilon" unicode="&#x3c5;" 
d="M113 1082h291v-612q0 -137 48.5 -202t136.5 -65q105 0 153 105q48 106 48 258q-6 241 -101 516h278q114 -238 114 -516q0 -268 -114 -428q-113 -159 -368 -159q-228 0 -358 122q-128 122 -128 371v610z" />
    <glyph glyph-name="phi" unicode="&#x3c6;" horiz-adv-x="1529" 
d="M610 1082h291q265 0 414 -165q148 -163 148 -380q0 -219 -135 -371t-427 -180v-464h-291v466q-290 34 -424 200q-133 166 -133 404q0 267 129 490h271q-107 -279 -108 -490q0 -144 60 -242q62 -96 199 -123l6 2v853zM1171 537q-1 138 -71 227q-69 89 -193 85l-6 -2v-624
l6 -2q135 21 199.5 103t64.5 213z" />
    <glyph glyph-name="chi" unicode="&#x3c7;" horiz-adv-x="1102" 
d="M166 1098q158 0 238 -80q81 -81 124 -193l62 -145l6 -1l196 403h296l-358 -729l184 -426q44 -113 118 -128q10 -2 52 -2l-19 -220q-63 -14 -132 -8q-112 11 -179 100q-67 90 -117 224l-59 136l-6 1l-219 -446h-289l374 770l-170 394q-23 58 -69.5 91.5t-103.5 33.5
q-36 0 -66 -6l-6 209q88 22 143 22z" />
    <glyph glyph-name="psi" unicode="&#x3c8;" horiz-adv-x="1526" 
d="M607 1082h292v-854l6 -2q133 26 198.5 121.5t65.5 244.5q-5 214 -109 490h271q129 -224 129 -490q0 -240 -134 -407q-133 -166 -427 -198v-465h-292v467q-258 32 -398 179q-141 148 -141 422v492h292v-495q0 -157 63 -246.5t178 -111.5l6 1v852z" />
    <glyph glyph-name="omega" unicode="&#x3c9;" horiz-adv-x="1760" 
d="M234 1082h278q-134 -272 -141 -516q0 -156 41 -261q40 -102 135 -102q84 0 131.5 71t47.5 216v346h308v-346q0 -145 47 -216t131 -71q94 0 134 102q42 102 42 261q-7 244 -141 516h278q154 -229 154 -516q0 -267 -107 -428q-106 -159 -349 -159q-240 0 -343 216
q-51 -106 -139 -161t-204 -55q-243 0 -350 159q-107 161 -107 428q0 286 154 516z" />
    <glyph glyph-name="iotadieresis" unicode="&#x3ca;" horiz-adv-x="681" 
d="M137 1081h292v-760q0 -63 21.5 -89t69.5 -26q30 0 46 3q26 7 52 15l30 -210q-82 -35 -187 -35q-158 0 -241 86.5t-83 259.5v756zM681 1461v-204h-266v204h266zM181 1461v-204h-266v204h266z" />
    <glyph glyph-name="upsilondieresis" unicode="&#x3cb;" 
d="M113 1082h291v-612q0 -137 48.5 -202t136.5 -65q105 0 153 105q48 106 48 258q-6 241 -101 516h278q114 -238 114 -516q0 -268 -114 -428q-113 -159 -368 -159q-228 0 -358 122q-128 122 -128 371v610zM980 1462v-204h-266v204h266zM480 1462v-204h-266v204h266z" />
    <glyph glyph-name="omicrontonos" unicode="&#x3cc;" 
d="M67 530v21q0 293 135 422t374 129t376 -132q136 -132 136 -419v-21q0 -290 -136 -420q-136 -131 -374 -131q-239 0 -376 131q-135 130 -135 420zM358 551v-21q0 -179 52 -253q53 -74 168 -74q112 0 165 74q53 76 53 253v21q0 184 -53 255t-167 71q-113 0 -166 -71
q-52 -70 -52 -255zM467 1223l61 283h278l-197 -283h-142z" />
    <glyph glyph-name="upsilontonos" unicode="&#x3cd;" 
d="M113 1082h291v-612q0 -137 48.5 -202t136.5 -65q105 0 153 105q48 106 48 258q-6 241 -101 516h278q114 -238 114 -516q0 -268 -114 -428q-113 -159 -368 -159q-228 0 -358 122q-128 122 -128 371v610zM487 1202l61 283h278l-197 -283h-142z" />
    <glyph glyph-name="omegatonos" unicode="&#x3ce;" horiz-adv-x="1760" 
d="M234 1082h278q-134 -272 -141 -516q0 -156 41 -261q40 -102 135 -102q84 0 131.5 71t47.5 216v346h308v-346q0 -145 47 -216t131 -71q94 0 134 102q42 102 42 261q-7 244 -141 516h278q154 -229 154 -516q0 -267 -107 -428q-106 -159 -349 -159q-240 0 -343 216
q-51 -106 -139 -161t-204 -55q-243 0 -350 159q-107 161 -107 428q0 286 154 516zM769 1202l61 283h278l-197 -283h-142z" />
    <glyph glyph-name="uni03D1" unicode="&#x3d1;" horiz-adv-x="1396" 
d="M546 968v103q0 185 107 295q108 111 280 111q171 0 271 -109q100 -107 100 -297v-515q0 -261 -161 -419t-424 -158q-265 0 -432 164q-165 163 -165 413v696l308 2v-698q0 -151 77 -248q78 -95 212 -95q127 0 200.5 88t77.5 244q-194 14 -323 132q-128 119 -128 291z
M997 763v335q0 131 -80 131q-43 0 -68.5 -34t-25.5 -97v-132q0 -84 45.5 -140.5t122.5 -64.5z" />
    <glyph glyph-name="uni03D2" unicode="&#x3d2;" horiz-adv-x="1202" 
d="M622 825l148 378q62 154 136 215q77 62 206 62q68 0 103 -19l-24 -222q-25 5 -51 5q-71 0 -111 -95l-286 -672v-477h-291v489l-280 660q-45 95 -112 95q-30 0 -50 -5l-23 222q32 19 102 19q130 0 206 -59q74 -58 135 -211l149 -385l18 -90h6z" />
    <glyph glyph-name="uni03D6" unicode="&#x3d6;" horiz-adv-x="1696" 
d="M1688 1082v-182h-133q58 -161 58 -334q0 -268 -100 -428q-101 -159 -326 -159q-116 0 -202.5 55t-135.5 161q-51 -106 -137.5 -161t-200.5 -55q-227 0 -327 159q-99 160 -99 428q0 177 58 334h-124v182h1669zM1322 566q-6 158 -62 334h-822q-58 -176 -62 -334
q0 -159 33 -261q35 -102 112 -102q82 0 128.5 71t46.5 216v205h307v-205q0 -145 46 -216t127 -71q76 0 111 102q35 103 35 261z" />
    <glyph glyph-name="uni0400" unicode="&#x400;" horiz-adv-x="1139" 
d="M966 865v-225h-540v-416h642l1 -224h-935v1456h932v-225h-640v-366h540zM545 1866l196 -266h-251l-272 260l2 6h325z" />
    <glyph glyph-name="uni0401" unicode="&#x401;" horiz-adv-x="1139" 
d="M966 865v-225h-540v-416h642l1 -224h-935v1456h932v-225h-640v-366h540zM984 1805v-204h-266v204h266zM484 1805v-204h-266v204h266z" />
    <glyph glyph-name="uni0402" unicode="&#x402;" horiz-adv-x="1560" 
d="M1169 1456v-225h-416v-314h175q266 0 426 -126q160 -124 160 -361q2 -134 -94 -270q-96 -135 -277 -192l-123 188q202 90 203 274q0 125 -77.5 191.5t-217.5 66.5h-175v-688h-292v1231h-410v225h1118z" />
    <glyph glyph-name="uni0403" unicode="&#x403;" horiz-adv-x="1137" 
d="M1081 1456v-225h-657v-1231h-292v1456h949zM466 1600l199 266h325l2 -6l-277 -260h-249z" />
    <glyph glyph-name="uni0404" unicode="&#x404;" horiz-adv-x="1290" 
d="M960 483h283l2 -6q4 -232 -142 -365q-145 -132 -403 -132q-262 0 -423 168q-161 170 -161 436v289q0 266 157 435q158 170 412 170q267 0 416 -130q150 -131 146 -366l-2 -6h-284q0 141 -67.5 209t-208.5 68q-132 0 -205 -106q-73 -104 -73 -272v-31h431v-226h-431v-34
q0 -167 77 -274q78 -106 216 -106q131 0 195.5 68.5t64.5 210.5z" />
    <glyph glyph-name="uni0405" unicode="&#x405;" horiz-adv-x="1266" 
d="M695 848q86 -24 152 -49.5t133 -65t110 -87t70 -115t27 -149.5q0 -103 -46 -182.5t-123.5 -126t-169.5 -70t-194 -23.5q-327 0 -578 128l59 256q213 -146 519 -146q240 0 240 162q0 86 -69 139t-194 92q-57 17 -99.5 32t-99 39t-97.5 49t-84.5 61t-71 75.5t-45 92
t-17.5 111.5q0 79 30 146.5t81 114.5t118.5 80t141.5 49t151 16q263 0 475 -97l-73 -252q-204 114 -406 114q-108 0 -167 -45.5t-59 -126.5q0 -108 161 -177q32 -13 125 -45z" />
    <glyph glyph-name="uni0406" unicode="&#x406;" horiz-adv-x="601" 
d="M446 1456v-1456h-292v1456h292z" />
    <glyph glyph-name="uni0407" unicode="&#x407;" horiz-adv-x="601" 
d="M446 1456v-1456h-292v1456h292zM684 1805v-204h-266v204h266zM184 1805v-204h-266v204h266z" />
    <glyph glyph-name="uni0408" unicode="&#x408;" horiz-adv-x="1137" 
d="M714 1456h291v-1005q1 -218 -126.5 -345t-346.5 -127q-273 0 -401 119l140 222q65 -56 126 -77.5t135 -21.5q94 0 138 52.5t44 177.5v1005z" />
    <glyph glyph-name="uni0409" unicode="&#x409;" horiz-adv-x="2169" 
d="M341 1456h970v-509h250q250 0 398 -133q148 -132 148 -340q0 -210 -148 -342q-149 -132 -398 -132h-542v1231h-386v-438q0 -422 -136 -607q-135 -186 -412 -186h-43v224h40q150 0 204 123q55 123 55 446v663zM1561 722h-250v-498h250q122 0 188 73q67 73 67 179
q0 103 -67 174q-66 72 -188 72z" />
    <glyph glyph-name="uni040A" unicode="&#x40a;" horiz-adv-x="2168" 
d="M425 1456v-615h593v615h292v-527h250q250 0 399 -129q148 -129 148 -334t-149 -336q-148 -130 -398 -130h-542v616h-593v-616h-292v1456h292zM1560 704h-250v-476h250q123 0 189 69t66 171q0 100 -66 167q-66 69 -189 69z" />
    <glyph glyph-name="uni040B" unicode="&#x40b;" horiz-adv-x="1634" 
d="M1185 1456v-225h-416v-253h195q267 0 406.5 -119t139.5 -360v-499h-292v499q0 143 -58 198q-59 56 -196 56h-195v-753h-292v1231h-410v225h1118z" />
    <glyph glyph-name="uni040C" unicode="&#x40c;" horiz-adv-x="1305" 
d="M1282 35v-35h-347l-402 608l-107 18v-626h-292v1456h292v-609l82 14l399 595h344v-22l-487 -655zM458 1512l199 266h325l2 -6l-277 -260h-249z" />
    <glyph glyph-name="uni040D" unicode="&#x40d;" horiz-adv-x="1431" 
d="M421 483l588 973h292v-1456h-292v973l-6 1l-588 -974h-291v1456h291v-972zM657 1866l196 -266h-251l-272 260l2 6h325z" />
    <glyph glyph-name="uni040E" unicode="&#x40e;" horiz-adv-x="1310" 
d="M339 1456l298 -647l26 -88l6 -1l306 736h309l-531 -1180q-63 -140 -152 -219q-89 -78 -249 -78q-58 0 -107 11q-47 10 -108 30l34 209q92 -26 149 -26q79 0 124 34.5t71 106.5l22 55l-513 1057h315zM779 1896h214l2 -6q5 -128 -89 -208t-251 -80q-158 0 -253 80
q-94 81 -88 208l2 6h213q0 -56 31.5 -88.5t94.5 -32.5q61 0 92.5 33t31.5 88z" />
    <glyph glyph-name="uni040F" unicode="&#x40f;" horiz-adv-x="1431" 
d="M120 0v1456h291v-1232h594v1232h292v-1456h-430v-360h-292v360h-455z" />
    <glyph glyph-name="uni0410" unicode="&#x410;" horiz-adv-x="1303" 
d="M992 0l-99 314h-472l-98 -314h-305l491 1456h299l489 -1456h-305zM655 1056l-162 -513h329l-161 513h-6z" />
    <glyph glyph-name="uni0411" unicode="&#x411;" horiz-adv-x="1283" 
d="M1081 1456v-225h-657v-287h250q250 0 399 -131q148 -130 148 -339q0 -210 -149 -342q-148 -132 -398 -132h-542v1456h949zM674 719h-250v-495h250q123 0 189 73q67 73 67 179q0 102 -67 172q-66 71 -189 71z" />
    <glyph glyph-name="uni0412" unicode="&#x412;" horiz-adv-x="1305" 
d="M697 0h-563v1456h477q256 0 401 -101q144 -100 144 -298q0 -101 -53 -180t-151 -118q136 -25 205 -118t69 -217q0 -208 -137 -316t-392 -108zM694 644h-268v-420h271q117 0 177.5 50.5t60.5 149.5q0 107 -60.5 163.5t-180.5 56.5zM426 1231v-385h195q118 0 180.5 48
t62.5 140q0 197 -253 197h-185z" />
    <glyph glyph-name="uni0413" unicode="&#x413;" horiz-adv-x="1137" 
d="M1081 1456v-225h-657v-1231h-292v1456h949z" />
    <glyph glyph-name="uni0414" unicode="&#x414;" horiz-adv-x="1465" 
d="M1473 224v-582h-292v358h-876v-358h-291v582h85q114 0 164 152q50 153 65 484l33 596h939v-1232h173zM640 1231l-20 -371q-20 -422 -144 -636h533v1007h-369z" />
    <glyph glyph-name="uni0415" unicode="&#x415;" horiz-adv-x="1139" 
d="M966 865v-225h-540v-416h642l1 -224h-935v1456h932v-225h-640v-366h540z" />
    <glyph glyph-name="uni0416" unicode="&#x416;" horiz-adv-x="1870" 
d="M1500 0l-322 608h-92v-608h-291v608h-97l-328 -608h-364l459 785l-435 671h361l330 -595h74v595h291v-595h70l323 595h360l-429 -670l453 -786h-363z" />
    <glyph glyph-name="uni0417" unicode="&#x417;" horiz-adv-x="1345" 
d="M931 749q114 -42 175.5 -130t61.5 -212q0 -104 -47.5 -187.5t-126.5 -135t-176.5 -78.5t-202.5 -27q-111 0 -241.5 29t-199.5 79l87 226q40 -39 132 -74.5t222 -35.5q100 0 181 58.5t81 149.5q0 111 -68 168t-183 57h-154v220h154q105 0 166.5 54.5t61.5 151.5
q0 84 -72.5 137t-166.5 53q-40 0 -76 -3.5t-62 -8t-53.5 -13.5t-43 -15t-36.5 -18.5t-28 -17t-24.5 -17.5t-19.5 -14l-100 221q61 52 191 81.5t252 29.5q244 0 387.5 -108.5t143.5 -304.5q0 -99 -58 -183t-157 -132z" />
    <glyph glyph-name="uni0418" unicode="&#x418;" horiz-adv-x="1431" 
d="M421 483l588 973h292v-1456h-292v973l-6 1l-588 -974h-291v1456h291v-972z" />
    <glyph glyph-name="uni0419" unicode="&#x419;" horiz-adv-x="1431" 
d="M421 483l588 973h292v-1456h-292v973l-6 1l-588 -974h-291v1456h291v-972zM838 1896h214l2 -6q5 -128 -89 -208t-251 -80q-158 0 -253 80q-94 81 -88 208l2 6h213q0 -56 31.5 -88.5t94.5 -32.5q61 0 92.5 33t31.5 88z" />
    <glyph glyph-name="uni041A" unicode="&#x41a;" horiz-adv-x="1305" 
d="M1282 35v-35h-347l-402 608l-107 18v-626h-292v1456h292v-609l82 14l399 595h344v-22l-487 -655z" />
    <glyph glyph-name="uni041B" unicode="&#x41b;" horiz-adv-x="1444" 
d="M313 1456h998v-1456h-292v1231h-414v-438q0 -421 -128 -608q-128 -185 -392 -185h-43v224h40q137 0 184 122q47 123 47 447v663z" />
    <glyph glyph-name="uni041C" unicode="&#x41c;" horiz-adv-x="1782" 
d="M508 1456l373 -801h15l381 801h371v-1456h-292v994l-6 1l-360 -702h-198l-360 704l-6 -1v-996h-292v1456h374z" />
    <glyph glyph-name="uni041D" unicode="&#x41d;" horiz-adv-x="1445" 
d="M1311 1456v-1456h-292v605h-593v-605h-292v1456h292v-626h593v626h292z" />
    <glyph glyph-name="uni041E" unicode="&#x41e;" horiz-adv-x="1409" 
d="M1312 859v-262q0 -323 -146 -471q-146 -147 -463 -147q-321 0 -464 147q-142 146 -142 471v262q0 327 141 472q143 146 463 146q323 0 467 -150q144 -149 144 -468zM1021 597v264q0 198 -73 292q-72 96 -247 96q-165 0 -239 -94t-74 -294v-264q0 -209 76 -300t239 -91
q170 0 244 89t74 302z" />
    <glyph glyph-name="uni041F" unicode="&#x41f;" horiz-adv-x="1444" 
d="M1311 1456v-1456h-292v1231h-594v-1231h-292v1456h1178z" />
    <glyph glyph-name="uni0420" unicode="&#x420;" horiz-adv-x="1305" 
d="M691 528h-265v-528h-292v1456h557q250 0 395 -128q144 -128 144 -337t-144 -336q-143 -127 -395 -127zM426 1231v-478h265q122 0 185 66q63 67 63 170q0 105 -63 173q-61 69 -185 69h-265z" />
    <glyph glyph-name="uni0421" unicode="&#x421;" horiz-adv-x="1303" 
d="M1151 318l48 -233q-189 -106 -440 -106q-123 0 -220.5 17.5t-181.5 60t-139.5 111t-87 173t-31.5 242.5v289q0 128 32 229.5t88.5 171t138.5 116t178.5 67.5t211.5 21q268 0 439 -102l-50 -231q-73 48 -178.5 75t-210.5 27q-181 0 -272.5 -92.5t-85.5 -279.5v-291
q0 -96 31 -169t85 -115t117.5 -63t135.5 -23q95 -2 205.5 27.5t186.5 77.5z" />
    <glyph glyph-name="uni0422" unicode="&#x422;" horiz-adv-x="1175" 
d="M1149 1456v-225h-416v-1231h-292v1231h-410v225h1118z" />
    <glyph glyph-name="uni0423" unicode="&#x423;" horiz-adv-x="1310" 
d="M339 1456l298 -647l26 -88l6 -1l306 736h309l-531 -1180q-63 -140 -152 -219q-89 -78 -249 -78q-58 0 -107 11q-47 10 -108 30l34 209q92 -26 149 -26q79 0 124 34.5t71 106.5l22 55l-513 1057h315z" />
    <glyph glyph-name="uni0424" unicode="&#x424;" horiz-adv-x="1507" 
d="M909 1456v-201q249 -17 401 -161q154 -145 154 -374q0 -226 -154 -368t-401 -157v-195h-292v195q-251 14 -404 155q-154 142 -154 368q0 232 154 377q156 147 404 160v201h292zM345 718q0 -124 71 -197.5t195 -79.5l6 2v564l-6 2q-124 -8 -195 -84.5t-71 -206.5z
M1177 720q0 128 -70 204t-192 85l-6 -2v-564l6 -2q122 8 192 81.5t70 197.5z" />
    <glyph glyph-name="uni0425" unicode="&#x425;" horiz-adv-x="1303" 
d="M380 1456l269 -516l273 516h340l-432 -722l457 -734h-353l-281 525l-281 -525h-341l443 734l-432 722h338z" />
    <glyph glyph-name="uni0426" unicode="&#x426;" horiz-adv-x="1558" 
d="M121 0v1456h292v-1231h594v1231h292v-1231h195v-584h-292v359h-1081z" />
    <glyph glyph-name="uni0427" unicode="&#x427;" horiz-adv-x="1420" 
d="M995 1456h293v-1456h-293v561q-63 -16 -148 -25q-88 -8 -147 -8q-267 0 -415 116q-146 116 -146 359v453h292v-453q0 -142 63 -196q65 -54 206 -54q57 0 145 8q88 9 150 25v670z" />
    <glyph glyph-name="uni0428" unicode="&#x428;" horiz-adv-x="2119" 
d="M129 1456h292v-1232h497v1232h291v-1232h493v1232h292v-1456h-1865v1456z" />
    <glyph glyph-name="uni0429" unicode="&#x429;" horiz-adv-x="2275" 
d="M129 1456h292v-1232h497v1232h291v-1232h493v1232h292v-1248h226v-557h-292v349h-1799v1456z" />
    <glyph glyph-name="uni042A" unicode="&#x42a;" horiz-adv-x="1474" 
d="M6 1231v225h581v-512h250q250 0 399 -131q148 -130 148 -339q0 -210 -149 -342t-398 -132h-542v1231h-289zM837 719h-250v-495h250q123 0 189 73q67 73 67 179q0 102 -67 172q-66 71 -189 71z" />
    <glyph glyph-name="uni042B" unicode="&#x42b;" horiz-adv-x="1777" 
d="M424 1456v-512h250q250 0 399 -131q148 -130 148 -339q0 -210 -149 -342q-148 -132 -398 -132h-542v1456h292zM1644 1456v-1456h-292v1456h292zM674 719h-250v-495h250q123 0 189 73q67 73 67 179q0 102 -67 172q-66 71 -189 71z" />
    <glyph glyph-name="uni042C" unicode="&#x42c;" horiz-adv-x="1283" 
d="M424 1456v-512h250q250 0 399 -131q148 -130 148 -339q0 -210 -149 -342q-148 -132 -398 -132h-542v1456h292zM674 719h-250v-495h250q123 0 189 73q67 73 67 179q0 102 -67 172q-66 71 -189 71z" />
    <glyph glyph-name="uni042D" unicode="&#x42d;" horiz-adv-x="1288" 
d="M378 974h-284l-2 6q-4 232 137 365q142 133 400 133q253 0 407 -169q155 -170 155 -436v-289q0 -267 -155 -436q-154 -168 -407 -168q-258 0 -401 128q-142 128 -137 367l2 6h283q0 -142 61 -209.5t192 -67.5q128 0 199 104q70 104 70 274v43h-447v225h447v23
q0 168 -70 274t-199 106q-130 0 -190.5 -68t-60.5 -211z" />
    <glyph glyph-name="uni042E" unicode="&#x42e;" horiz-adv-x="1935" 
d="M1792 859v-262q0 -269 -169 -444q-169 -174 -440 -174q-270 0 -438 175q-168 176 -168 443v7h-131v-604h-292v1456h292v-627h131v30q0 266 167 442q168 176 437 176q271 0 441 -176t170 -442zM1501 597v264q0 170 -85 279t-235 109q-149 0 -231 -109t-82 -279v-264
q0 -172 83 -282q82 -109 232 -109t234 109t84 282z" />
    <glyph glyph-name="uni042F" unicode="&#x42f;" horiz-adv-x="1203" 
d="M554 561l-270 -561h-316l315 650q-230 120 -230 373q0 207 142 319q143 114 393 114h505v-1456h-292v561h-247zM801 774v457h-213q-119 0 -181.5 -57.5t-62.5 -163.5q0 -107 64 -171.5t180 -64.5h213z" />
    <glyph glyph-name="uni0430" unicode="&#x430;" horiz-adv-x="1100" 
d="M993 723l1 -723h-254q-17 72 -24 111q-41 -61 -122.5 -96.5t-181.5 -35.5q-162 0 -258.5 84t-96.5 241q0 163 124 253t357 82q48 -2 89 -8t58 -11l17 -5v110q0 147 -161 147q-177 0 -368 -72l-46 224q205 78 431 78q102 0 179 -19.5t136 -62t89.5 -117.5t30.5 -180z
M702 241v200q-70 25 -164 25q-96 0 -142 -30.5t-46 -101.5q0 -140 133 -140q135 0 219 47z" />
    <glyph glyph-name="uni0431" unicode="&#x431;" horiz-adv-x="1148" 
d="M600 1102q228 0 357 -154q129 -155 129 -397v-21q0 -244 -136 -398q-135 -153 -373 -153q-241 0 -377 153q-135 154 -135 398v21q0 13 1 20v231q0 335 121 481q121 147 382 155q135 3 196 30t61 89h226l1 -6q5 -192 -108 -267q-113 -74 -351 -78q-147 -3 -224 -63.5
t-70 -164.5l3 -5q53 58 131.5 93.5t165.5 35.5zM575 877q-114 0 -166 -91t-52 -235v-21q0 -149 52 -238q53 -89 168 -89q113 0 165 90q53 91 53 237v21q0 143 -53 235q-52 91 -167 91z" />
    <glyph glyph-name="uni0432" unicode="&#x432;" 
d="M649 0h-522v1082h452q219 0 338 -77t119 -225q0 -76 -50.5 -135t-143.5 -90q121 -24 185.5 -89.5t64.5 -156.5q0 -152 -114 -230.5t-329 -78.5zM649 451h-230v-229h230q151 0 151 113q0 116 -151 116zM419 859v-218h168q158 0 158 104q0 59 -40.5 86.5t-125.5 27.5h-160z
" />
    <glyph glyph-name="uni0433" unicode="&#x433;" horiz-adv-x="855" 
d="M846 1082v-226h-447v-856h-292v1082h739z" />
    <glyph glyph-name="uni0434" unicode="&#x434;" horiz-adv-x="1365" 
d="M73 224h69v1h31q79 0 111 95q34 96 44 319l22 443h801v-858h149v-582h-292v358h-643v-358h-292v582zM630 849l-11 -210q-14 -271 -77 -415h318v625h-230z" />
    <glyph glyph-name="uni0435" unicode="&#x435;" horiz-adv-x="1071" 
d="M581 -21q-242 0 -378 148t-136 383v40q0 243 132 398q133 155 363 154q218 0 334 -134q117 -133 117 -359v-151h-648v-6q8 -112 67 -180q62 -69 180 -69q189 0 343 83l67 -221q-73 -29 -201 -59q-121 -27 -240 -27zM562 877q-85 0 -134 -59t-59 -162v-15h358v32
q0 204 -165 204z" />
    <glyph glyph-name="uni0436" unicode="&#x436;" horiz-adv-x="1661" 
d="M1269 0l-214 408h-81v-408h-290v408h-79l-214 -408h-374l354 586l-336 496h368l223 -408h58v408h290v-408h61l222 408h369l-337 -497l353 -585h-373z" />
    <glyph glyph-name="uni0437" unicode="&#x437;" horiz-adv-x="1140" 
d="M780 556q85 -32 131.5 -98t46.5 -159q0 -103 -62 -177.5t-153.5 -108.5t-198.5 -34q-84 0 -181.5 21.5t-149.5 59.5l85 220q88 -88 246 -88q72 0 113.5 32t41.5 92q0 137 -147 137h-115v183h115q58 0 94 33.5t36 102.5q0 63 -34.5 90t-103.5 27q-143 0 -257 -80l-75 209
q46 39 143.5 61t188.5 22q183 0 290 -81.5t107 -228.5q0 -73 -43.5 -136.5t-117.5 -98.5z" />
    <glyph glyph-name="uni0438" unicode="&#x438;" 
d="M405 423l353 659h291v-1082h-291v660l-6 1l-353 -661h-292v1082h292v-658z" />
    <glyph glyph-name="uni0439" unicode="&#x439;" 
d="M405 423l353 659h291v-1082h-291v660l-6 1l-353 -661h-292v1082h292v-658zM703 1553h214l2 -6q5 -128 -89 -208t-251 -80q-158 0 -253 80q-94 81 -88 208l2 6h213q0 -56 31.5 -88.5t94.5 -32.5q61 0 92.5 33t31.5 88z" />
    <glyph glyph-name="uni043A" unicode="&#x43a;" horiz-adv-x="1167" 
d="M768 0l-235 405l-112 20v-425h-292v1082h292v-427l87 15l248 412h369l-358 -502l390 -580h-389z" />
    <glyph glyph-name="uni043B" unicode="&#x43b;" horiz-adv-x="1149" 
d="M206 1082h843v-1082h-291v856h-260v-235q0 -319 -98 -471q-98 -150 -335 -150h-47l-3 230l31 1q100 0 130 82t30 308v461z" />
    <glyph glyph-name="uni043C" unicode="&#x43c;" horiz-adv-x="1557" 
d="M491 1082l275 -477h6l279 477h365v-1082h-291v706l-6 1l-251 -415h-196l-245 421l-6 -1v-712h-292v1082h362z" />
    <glyph glyph-name="uni043D" unicode="&#x43d;" 
d="M1047 1082v-1082h-292v420h-356v-420h-292v1082h292v-438h356v438h292z" />
    <glyph glyph-name="uni043E" unicode="&#x43e;" 
d="M67 530v21q0 293 135 422t374 129t376 -132q136 -132 136 -419v-21q0 -290 -136 -420q-136 -131 -374 -131q-239 0 -376 131q-135 130 -135 420zM358 551v-21q0 -179 52 -253q53 -74 168 -74q112 0 165 74q53 76 53 253v21q0 184 -53 255t-167 71q-113 0 -166 -71
q-52 -70 -52 -255z" />
    <glyph glyph-name="uni043F" unicode="&#x43f;" 
d="M1049 1082v-1082h-292v856h-358v-856h-292v1082h942z" />
    <glyph glyph-name="uni0440" unicode="&#x440;" 
d="M1088 532v-21q0 -241 -111 -386q-111 -146 -310 -146q-86 0 -151 31q-64 30 -113 67v-493h-291v1498h257l19 -104q57 51 119 85q67 39 158 39q201 0 312 -157t111 -413zM796 511v21q0 154 -51 248q-51 95 -156 95q-67 0 -113 -27q-45 -26 -73 -48v-532q100 -65 188 -65
q103 0 154 81t51 227z" />
    <glyph glyph-name="uni0441" unicode="&#x441;" horiz-adv-x="1056" 
d="M570 202q155 0 334 93l47 -228q-170 -88 -369 -88q-506 0 -506 544v29q0 286 126 415.5t379 129.5q105 0 192 -17t174 -67l-39 -225q-156 90 -333 90q-120 0 -164.5 -80t-44.5 -246v-29q0 -54 4 -96t17 -86t34.5 -73t59.5 -47.5t89 -18.5z" />
    <glyph glyph-name="uni0442" unicode="&#x442;" horiz-adv-x="1070" 
d="M1028 1082v-223h-346v-859h-293v859h-341v223h980z" />
    <glyph glyph-name="uni0443" unicode="&#x443;" horiz-adv-x="1046" 
d="M319 1082l183 -628l12 -60h6l207 688h314l-439 -1244q-47 -117 -125 -195q-80 -80 -237 -80q-33 0 -150 9l8 229q64 -8 86 -8q122 0 171 124l34 84l-384 1081h314z" />
    <glyph glyph-name="uni0444" unicode="&#x444;" horiz-adv-x="1790" 
d="M62 511v21q0 256 111 413t312 157q157 0 257 -123v581h292v-585q99 127 261 127q201 0 312 -157q112 -157 112 -413v-21q0 -241 -111 -386q-111 -146 -311 -146q-164 0 -263 119v-514h-292v512q-99 -117 -259 -117q-199 0 -310 146t-111 386zM1426 511v21q0 153 -51 249
q-49 96 -156 96q-129 0 -185 -104v-476q55 -94 187 -94q104 0 154.5 80.5t50.5 227.5zM354 532v-21q0 -143 47 -226q48 -82 156 -82q126 0 185 93v481q-61 100 -183 100q-107 0 -156 -96q-49 -94 -49 -249z" />
    <glyph glyph-name="uni0445" unicode="&#x445;" horiz-adv-x="1046" 
d="M357 1082l162 -344h6l166 344h330l-326 -535l337 -547h-329l-177 359l-177 -359h-330l337 547l-327 535h328z" />
    <glyph glyph-name="uni0446" unicode="&#x446;" horiz-adv-x="1247" 
d="M107 0v1082h292v-858h358v858h292v-858h156v-582h-291v358h-807z" />
    <glyph glyph-name="uni0447" unicode="&#x447;" horiz-adv-x="1147" 
d="M1041 1082v-1082h-292v343q-67 -15 -148 -15q-243 0 -370.5 103.5t-127.5 310.5v340h292v-340q0 -107 47 -148t159 -41q74 0 148 16v513h292z" />
    <glyph glyph-name="uni0448" unicode="&#x448;" horiz-adv-x="1691" 
d="M107 1082h292v-858h294v858h293v-858h294v858h292v-1082h-1465v1082z" />
    <glyph glyph-name="uni0449" unicode="&#x449;" horiz-adv-x="1855" 
d="M107 1082h292v-858h294v858h293v-858h294v858h292v-853h223v-589h-292v360h-1396v1082z" />
    <glyph glyph-name="uni044A" unicode="&#x44a;" horiz-adv-x="1302" 
d="M620 1082v-350h203q218 0 343 -101t125 -263q0 -165 -125 -267q-125 -101 -343 -101h-496v856h-313v226h606zM823 508h-203v-285h203q87 0 132 39t45 104q0 63 -45.5 102.5t-131.5 39.5z" />
    <glyph glyph-name="uni044B" unicode="&#x44b;" horiz-adv-x="1703" 
d="M442 1082v-350h203q218 0 343 -101t125 -263q0 -165 -125 -267q-125 -101 -343 -101h-496v1082h293zM1507 1082v-1082h-292v1082h292zM645 508h-203v-285h203q87 0 132 39t45 104q0 63 -45.5 102.5t-131.5 39.5z" />
    <glyph glyph-name="uni044C" unicode="&#x44c;" horiz-adv-x="1143" 
d="M422 1082v-350h203q218 0 343 -101t125 -263q0 -165 -125 -267q-125 -101 -343 -101h-496v1082h293zM625 508h-203v-285h203q87 0 132 39t45 104q0 63 -45.5 102.5t-131.5 39.5z" />
    <glyph glyph-name="uni044D" unicode="&#x44d;" horiz-adv-x="1064" 
d="M505 877q-77 0 -123 -45.5t-46 -120.5h-266l-2 6q-5 164 122 274q128 111 315 111q237 0 369 -155q132 -154 132 -392v-30q0 -237 -132 -392q-132 -154 -368 -154q-199 0 -321 113q-121 114 -117 301l2 6h266q0 -85 45 -141q45 -55 125 -55q96 0 144 69q50 71 57 181
l-3 5h-281v175h280l2 5q-7 106 -57 172q-48 67 -143 67z" />
    <glyph glyph-name="uni044E" unicode="&#x44e;" horiz-adv-x="1662" 
d="M425 1082v-419h156q30 197 161 318q130 121 340 121q240 0 376 -154t136 -397v-21q0 -244 -136 -398q-135 -153 -374 -153q-215 0 -349 125q-132 126 -157 334h-153v-438h-292v1082h292zM864 551v-21q0 -149 52 -238q53 -89 168 -89q112 0 165 90q53 91 53 237v21
q0 143 -53 235q-52 91 -167 91q-113 0 -166 -92q-52 -91 -52 -234z" />
    <glyph glyph-name="uni044F" unicode="&#x44f;" 
d="M548 1082h476v-1082h-290v379h-176l-212 -379h-295l239 427q-99 44 -152.5 121t-53.5 175q0 157 125 258q127 101 339 101zM376 715q0 -56 43 -98q44 -41 124 -41h191v283h-186q-81 0 -127 -44q-45 -43 -45 -100z" />
    <glyph glyph-name="uni0450" unicode="&#x450;" horiz-adv-x="1071" 
d="M581 -21q-242 0 -378 148t-136 383v40q0 243 132 398q133 155 363 154q218 0 334 -134q117 -133 117 -359v-151h-648v-6q8 -112 67 -180q62 -69 180 -69q189 0 343 83l67 -221q-73 -29 -201 -59q-121 -27 -240 -27zM562 877q-85 0 -134 -59t-59 -162v-15h358v32
q0 204 -165 204zM483 1545l196 -266h-251l-272 260l2 6h325z" />
    <glyph glyph-name="uni0451" unicode="&#x451;" horiz-adv-x="1071" 
d="M581 -21q-242 0 -378 148t-136 383v40q0 243 132 398q133 155 363 154q218 0 334 -134q117 -133 117 -359v-151h-648v-6q8 -112 67 -180q62 -69 180 -69q189 0 343 83l67 -221q-73 -29 -201 -59q-121 -27 -240 -27zM562 877q-85 0 -134 -59t-59 -162v-15h358v32
q0 204 -165 204zM922 1484v-204h-266v204h266zM422 1484v-204h-266v204h266z" />
    <glyph glyph-name="uni0452" unicode="&#x452;" 
d="M554 1386v-180h-157v-261q108 157 289 157q169 0 265 -113q97 -112 97 -347v-172h1v-511q0 -189 -101 -293q-100 -103 -281 -103q-76 0 -144 17l14 220q43 -12 99 -12q57 0 88.5 44.5t31.5 126.5v685q0 123 -39.5 177t-122.5 54q-133 0 -197 -83v-792h-292v1206h-140v180
h140v174h292v-174h157z" />
    <glyph glyph-name="uni0453" unicode="&#x453;" horiz-adv-x="855" 
d="M846 1082v-226h-447v-856h-292v1082h739zM281 1257l199 266h325l2 -6l-277 -260h-249z" />
    <glyph glyph-name="uni0454" unicode="&#x454;" horiz-adv-x="1064" 
d="M564 203q76 0 121 45.5t45 121.5h266l2 -6q5 -164 -122 -275q-127 -110 -312 -110q-240 0 -371 153q-131 155 -131 393v30q0 238 130 392q131 155 370 155q198 0 319 -114t117 -300l-2 -6h-266q0 84 -45 139q-44 56 -123 56q-100 0 -149 -72q-48 -70 -57 -188h304v-175
h-295l-2 -5q7 -110 56.5 -172t144.5 -62z" />
    <glyph glyph-name="uni0455" unicode="&#x455;" horiz-adv-x="1056" 
d="M586 642q202 -40 298 -118.5t96 -212.5q0 -84 -39.5 -149.5t-105 -104t-144.5 -58.5t-166 -20q-85 0 -159.5 10.5t-131 30.5t-88.5 34t-69 35l79 217q85 -59 188.5 -83t186.5 -24q166 0 166 101q0 33 -21 59t-59.5 42t-68 25t-70.5 17q-194 39 -290.5 117t-96.5 207
q0 111 61 188.5t156.5 112t214.5 34.5q129 0 242 -29.5t184 -73.5l-113 -204q-146 87 -313 87q-71 0 -111.5 -26t-40.5 -76q0 -34 19 -59.5t52 -39.5t64 -22t67 -15q9 -1 13 -2z" />
    <glyph glyph-name="uni0456" unicode="&#x456;" horiz-adv-x="547" 
d="M419 1082v-1082h-292v1082h292zM419 1560v-262h-292v262h292z" />
    <glyph glyph-name="uni0457" unicode="&#x457;" horiz-adv-x="562" 
d="M425 1082v-1082h-292v1082h292zM664 1462v-204h-266v204h266zM164 1462v-204h-266v204h266z" />
    <glyph glyph-name="uni0458" unicode="&#x458;" horiz-adv-x="543" 
d="M134 1082h293v-1122q0 -189 -101 -293t-281 -104q-74 0 -143 17l14 223q47 -12 95 -12q123 0 123 169v1122zM426 1560v-262h-292v262h292z" />
    <glyph glyph-name="uni0459" unicode="&#x459;" horiz-adv-x="1771" 
d="M234 1082h816v-349h203q218 0 343 -101q126 -100 126 -264q0 -165 -126 -267q-125 -101 -343 -101h-495v856h-232v-235q0 -317 -106 -469q-107 -152 -345 -152h-47l-3 227h31q90 0 134 96.5t44 297.5v461zM1253 508h-203v-286h203q87 0 132.5 40.5t45.5 107.5
q0 62 -45.5 100t-132.5 38z" />
    <glyph glyph-name="uni045A" unicode="&#x45a;" horiz-adv-x="1768" 
d="M399 1082v-417h356v417h292v-350h203q218 0 343 -101t125 -263q0 -165 -125 -267q-125 -101 -343 -101h-495v441h-356v-441h-292v1082h292zM1250 508h-203v-286h203q86 0 131.5 41t45.5 107q0 62 -45.5 100t-131.5 38z" />
    <glyph glyph-name="uni045B" unicode="&#x45b;" 
d="M700 1392v-181h-303v-266q108 157 289 157q169 0 265 -113q97 -112 97 -347v-642h-292v644q0 123 -39.5 177t-122.5 54q-133 0 -197 -83v-792h-292v1211h-76v181h76v168h292v-168h303z" />
    <glyph glyph-name="uni045C" unicode="&#x45c;" horiz-adv-x="1167" 
d="M768 0l-235 405l-112 20v-425h-292v1082h292v-427l87 15l248 412h369l-358 -502l390 -580h-389zM429 1256l199 266h325l2 -6l-277 -260h-249z" />
    <glyph glyph-name="uni045D" unicode="&#x45d;" 
d="M405 423l353 659h291v-1082h-291v660l-6 1l-353 -661h-292v1082h292v-658zM522 1523l196 -266h-251l-272 260l2 6h325z" />
    <glyph glyph-name="uni045E" unicode="&#x45e;" horiz-adv-x="1046" 
d="M319 1082l183 -628l12 -60h6l207 688h314l-439 -1244q-47 -117 -125 -195q-80 -80 -237 -80q-33 0 -150 9l8 229q64 -8 86 -8q122 0 171 124l34 84l-384 1081h314zM648 1553h214l2 -6q5 -128 -89 -208t-251 -80q-158 0 -253 80q-94 81 -88 208l2 6h213q0 -56 31.5 -88.5
t94.5 -32.5q61 0 92.5 33t31.5 88z" />
    <glyph glyph-name="uni045F" unicode="&#x45f;" 
d="M107 1082h292v-858h358v858h292v-1082h-325v-358h-291v358h-326v1082z" />
    <glyph glyph-name="uni0460" unicode="&#x460;" horiz-adv-x="1964" 
d="M1158 1222l-61 213q118 42 259 42q225 0 371 -167t146 -430v-304q0 -265 -150 -431t-385 -166q-210 0 -353 85q-143 -85 -351 -85q-236 0 -386 166q-149 167 -149 431v304q0 264 145 430q146 167 372 167q139 0 259 -42l-62 -213q-82 30 -190 30q-104 0 -169 -104
q-64 -103 -64 -266v-306q0 -166 66 -269q68 -104 178 -104q144 0 206 74v276h-188v202h668v-202h-188v-276q61 -74 206 -74q110 0 176 104q67 103 67 269v306q0 163 -64 266q-65 104 -168 104q-109 0 -191 -30z" />
    <glyph glyph-name="uni0461" unicode="&#x461;" horiz-adv-x="1461" 
d="M321 1082l182 -679l28 -148h6l41 148l78 300l-110 379h290l144 -679l15 -77h6l2 10q131 280 123 746h305q-45 -539 -297 -1082h-272l-96 327l-6 1l-112 -328h-264l-368 1082h305z" />
    <glyph glyph-name="uni0462" unicode="&#x462;" horiz-adv-x="1283" 
d="M677 1271v-181h-253v-146h250q250 0 399 -131q148 -130 148 -339q0 -210 -149 -342q-148 -132 -398 -132h-542v1090h-126v181h126v185h292v-185h253zM674 719h-250v-495h250q123 0 189 73q67 73 67 179q0 102 -67 172q-66 71 -189 71z" />
    <glyph glyph-name="uni0463" unicode="&#x463;" horiz-adv-x="1143" 
d="M677 1286v-181h-255v-373h203q218 0 343 -101t125 -263q0 -165 -125 -267q-125 -101 -343 -101h-496v1105h-140v181h140v276h293v-276h255zM625 508h-203v-285h203q87 0 132 39t45 104q0 63 -45.5 102.5t-131.5 39.5z" />
    <glyph glyph-name="uni0464" unicode="&#x464;" horiz-adv-x="1828" 
d="M1226 836v-225h-369v-27q0 -167 77 -274q78 -106 216 -106q131 0 195.5 68.5t64.5 210.5h283l2 -6q4 -232 -142 -365q-145 -132 -403 -132q-262 0 -423 168q-161 170 -161 436v27h-119v-611h-292v1456h292v-620h119v37q0 266 157 435q158 170 412 170q267 0 416 -130
q150 -131 146 -366l-2 -6h-284q0 141 -67.5 209t-208.5 68q-132 0 -205 -106q-73 -104 -73 -272v-39h369z" />
    <glyph glyph-name="uni0465" unicode="&#x465;" horiz-adv-x="1546" 
d="M1097 642v-181h-308l-3 -5q5 -119 55.5 -186t148.5 -67q76 0 121 45.5t45 121.5h266l2 -6q5 -164 -122 -275q-127 -110 -312 -110q-224 0 -353 133q-129 134 -146 349h-68v-461h-292v1082h292v-440h70q22 203 151 332q128 128 344 128q198 0 319 -114t117 -300l-2 -6
h-266q0 84 -45 139q-44 56 -123 56q-92 0 -141 -61.5t-58 -168.5l2 -5h306z" />
    <glyph glyph-name="uni0466" unicode="&#x466;" horiz-adv-x="1346" 
d="M1037 0l-129 390h-111v-390h-245v390h-100l-129 -390h-305l514 1456h300l511 -1456h-306zM677 1071l-159 -480h324l-159 480h-6z" />
    <glyph glyph-name="uni0467" unicode="&#x467;" horiz-adv-x="1146" 
d="M827 0l-94 271h-77v-271h-191v271h-69l-92 -271h-297l408 1082h300l409 -1082h-297zM534 677l-75 -221h211l-76 221l-27 113h-6z" />
    <glyph glyph-name="uni0468" unicode="&#x468;" horiz-adv-x="1919" 
d="M465 1456v-865h291l305 865h300l511 -1456h-306l-129 390h-111v-390h-245v390h-100l-129 -390h-305l137 389h-219v-389h-292v1456h292zM1206 1071l-159 -480h324l-159 480h-6z" />
    <glyph glyph-name="uni0469" unicode="&#x469;" horiz-adv-x="1638" 
d="M458 1082v-627h167l237 627h300l409 -1082h-297l-94 271h-77v-271h-191v271h-69l-92 -271h-585v1082h292zM981 677l-75 -221h211l-76 221l-27 113h-6zM556 272h-98v-245l6 -1z" />
    <glyph glyph-name="uni046A" unicode="&#x46a;" horiz-adv-x="1784" 
d="M1550 1456l-375 -652q248 -8 372 -119t124 -341v-344h-292v344q0 131 -58 182q-59 51 -186 51h-84v-577h-292v577h-110q-129 0 -187 -51q-57 -51 -57 -182v-344h-292v344q0 238 131.5 348.5t397.5 112.5l-374 651h1282zM707 1228l202 -389l202 389h-404z" />
    <glyph glyph-name="uni046B" unicode="&#x46b;" horiz-adv-x="1501" 
d="M401 0h-291v179q0 203 97.5 307.5t293.5 122.5l-275 473h1065l-276 -474q187 -21 281.5 -125.5t94.5 -303.5v-179h-291v179q0 123 -45 171q-43 48 -143 48h-11v-398h-292v398h-20q-101 0 -144 -48q-44 -49 -44 -171v-179zM632 894l123 -259h6l123 259h-252z" />
    <glyph glyph-name="uni046C" unicode="&#x46c;" horiz-adv-x="2383" 
d="M1302 806v-228h-970v228h970zM446 1456v-1456h-292v1456h292zM2117 1456l-375 -652q248 -8 372 -119t124 -341v-344h-292v344q0 131 -58 182t-186 51h-84v-577h-292v577h-110q-128 0 -187 -51q-57 -51 -57 -182v-344h-292v344q0 238 131.5 348.5t397.5 112.5l-374 651
h1282zM1274 1228l202 -389l202 389h-404z" />
    <glyph glyph-name="uni046D" unicode="&#x46d;" horiz-adv-x="2062" 
d="M1228 613v-207h-996v207h996zM425 1082v-1082h-292v1082h292zM907 0h-291v179q0 203 97.5 307.5t293.5 122.5l-275 473h1065l-276 -474q187 -21 281.5 -125.5t94.5 -303.5v-179h-291v179q0 123 -45 171q-43 48 -143 48h-11v-398h-292v398h-20q-101 0 -144 -48
q-44 -49 -44 -171v-179zM1138 894l123 -259h6l123 259h-252z" />
    <glyph glyph-name="uni046E" unicode="&#x46e;" horiz-adv-x="1052" 
d="M238 862h150q111 0 166.5 50t55.5 139q0 82 -58.5 128t-170.5 46h-260v231h260q241 0 381 -96t140 -285q0 -117 -60 -200.5t-171 -126.5q135 -43 205.5 -130t70.5 -210q0 -202 -138 -316q-137 -113 -367 -113h-58q-113 0 -113 -96q0 -55 38 -92.5t106 -67.5l-82 -171
q-158 36 -242.5 131.5t-85.5 236.5q0 142 93.5 216.5t263.5 74.5h64q105 0 167 53q62 54 62 140q0 110 -70 168t-204 58h-143v232zM445 1915l116 -127l117 127h264v-17l-281 -255h-199l-281 256v16h264z" />
    <glyph glyph-name="uni046F" unicode="&#x46f;" horiz-adv-x="1033" 
d="M238 626h166q90 0 135.5 35t45.5 99q0 54 -52.5 85.5t-151.5 31.5h-260v205h260q231 0 362 -76q133 -75 133 -223q0 -168 -180 -242q110 -33 167.5 -93.5t57.5 -143.5q0 -152 -127 -239q-127 -86 -337 -86h-49q-129 0 -129 -96q0 -56 34 -93t95 -67l-82 -157
q-132 43 -214 136t-84 218q0 130 85.5 197t241.5 67h56q100 0 159.5 35.5t59.5 93.5q0 66 -60 101t-173 35h-159v177zM373 1571l116 -127l117 127h264v-17l-281 -255h-199l-281 256v16h264z" />
    <glyph glyph-name="uni0470" unicode="&#x470;" horiz-adv-x="1483" 
d="M888 1456v-875l6 -1q115 15 175 106t60 253v517h293v-517q0 -261 -144 -415q-145 -156 -390 -181v-343h-291v342q-250 21 -396 176q-145 155 -145 421v517h291v-517q0 -157 63.5 -249t180.5 -110l6 2v874h291z" />
    <glyph glyph-name="uni0471" unicode="&#x471;" horiz-adv-x="1526" 
d="M607 1082h292v-854l6 -2q133 26 198.5 121.5t65.5 244.5q-5 214 -109 490h271q129 -224 129 -490q0 -240 -134 -407q-133 -166 -427 -198v-465h-292v467q-258 32 -398 179q-141 148 -141 422v492h292v-495q0 -157 63 -246.5t178 -111.5l6 1v852z" />
    <glyph glyph-name="uni0472" unicode="&#x472;" horiz-adv-x="1410" 
d="M1312 859v-262q0 -269 -169 -444q-169 -174 -440 -174q-270 0 -438 175q-168 176 -168 443v262q0 266 167 442q168 176 437 176q271 0 441 -176t170 -442zM889 754q34 0 71 19.5t61 51.5v36q0 170 -85 279t-235 109q-149 0 -231 -109t-82 -279v-75q64 83 172 83
q67 0 167 -58q101 -57 162 -57zM1021 597v21q-65 -65 -163 -65q-84 0 -175 58t-153 58q-43 0 -86 -32q-41 -31 -55 -76q8 -160 90 -257q83 -98 224 -98q150 0 234 109t84 282z" />
    <glyph glyph-name="uni0473" unicode="&#x473;" 
d="M67 530v21q0 241 135 396t374 155q240 0 376 -154t136 -397v-21q0 -244 -136 -398q-135 -153 -374 -153q-240 0 -376 153q-135 154 -135 398zM712 567q25 0 46.5 17t32.5 46q-13 116 -67 181.5t-148 65.5q-106 0 -159 -80q-51 -80 -50 -201l4 -4q13 24 42 40t62 16
q47 0 120 -41q73 -40 117 -40zM451 493q-30 0 -53.5 -24t-29.5 -59q37 -207 210 -207q94 0 147 66t58 178l-3 5q-28 -41 -91 -41q-59 0 -127 41t-111 41z" />
    <glyph glyph-name="uni0474" unicode="&#x474;" horiz-adv-x="1315" 
d="M321 1456l313 -1061l18 -81h6l17 78l203 743q51 172 135.5 256t214.5 84q67 0 103 -20l-23 -221q-3 0 -23.5 2t-27.5 2q-43 0 -75 -32t-47 -88l-330 -1118h-300l-492 1456h308z" />
    <glyph glyph-name="uni0475" unicode="&#x475;" horiz-adv-x="1046" 
d="M321 1082l161 -679l17 -88h6l16 88l92 374q48 164 132.5 244.5t212.5 80.5q68 0 103 -19l-24 -221q-20 4 -51 4q-37 0 -68 -29t-43 -73l-232 -764h-279l-348 1082h305z" />
    <glyph glyph-name="uni0476" unicode="&#x476;" horiz-adv-x="1315" 
d="M321 1456l313 -1061l18 -81h6l17 78l203 743q51 172 135.5 256t214.5 84q67 0 103 -20l-23 -221q-3 0 -23.5 2t-27.5 2q-43 0 -75 -32t-47 -88l-330 -1118h-300l-492 1456h308zM332 1856l240 -261l-2 -5h-233l-285 260l2 6h278zM720 1856l199 -266h-236l-240 261l2 5h275
z" />
    <glyph glyph-name="uni0477" unicode="&#x477;" horiz-adv-x="1046" 
d="M321 1082l161 -679l17 -88h6l16 88l92 374q48 164 132.5 244.5t212.5 80.5q68 0 103 -19l-24 -221q-20 4 -51 4q-37 0 -68 -29t-43 -73l-232 -764h-279l-348 1082h305zM233 1600l240 -261l-2 -5h-233l-285 260l2 6h278zM621 1600l199 -266h-236l-240 261l2 5h275z" />
    <glyph glyph-name="uni0478" unicode="&#x478;" horiz-adv-x="2455" 
d="M1312 859v-262q0 -323 -146 -471q-146 -147 -463 -147q-321 0 -464 147q-142 146 -142 471v262q0 327 141 472q143 146 463 146q323 0 467 -150q144 -149 144 -468zM1021 597v264q0 198 -73 292q-72 96 -247 96q-165 0 -239 -94t-74 -294v-264q0 -209 76 -300t239 -91
q170 0 244 89t74 302zM1728 1082l183 -628l12 -60h6l207 688h314l-439 -1244q-47 -117 -125 -195q-80 -80 -237 -80q-33 0 -150 9l8 229q64 -8 86 -8q122 0 171 124l34 84l-384 1081h314z" />
    <glyph glyph-name="uni0479" unicode="&#x479;" horiz-adv-x="2202" 
d="M67 530v21q0 293 135 422t374 129t376 -132q136 -132 136 -419v-21q0 -290 -136 -420q-136 -131 -374 -131q-239 0 -376 131q-135 130 -135 420zM358 551v-21q0 -179 52 -253q53 -74 168 -74q112 0 165 74q53 76 53 253v21q0 184 -53 255t-167 71q-113 0 -166 -71
q-52 -70 -52 -255zM1475 1082l183 -628l12 -60h6l207 688h314l-439 -1244q-47 -117 -125 -195q-80 -80 -237 -80q-33 0 -150 9l8 229q64 -8 86 -8q122 0 171 124l34 84l-384 1081h314z" />
    <glyph glyph-name="uni047A" unicode="&#x47a;" horiz-adv-x="1410" 
d="M802 1577v-454h-195v454h195zM804 328v-464h-195v464h195zM1312 859v-262q0 -269 -169 -444q-169 -174 -440 -174q-270 0 -438 175q-168 176 -168 443v262q0 266 167 442q168 176 437 176q271 0 441 -176t170 -442zM1021 597v264q0 170 -85 279t-235 109
q-149 0 -231 -109t-82 -279v-264q0 -172 83 -282q82 -109 232 -109t234 109t84 282z" />
    <glyph glyph-name="uni047B" unicode="&#x47b;" 
d="M679 1204v-441h-196v441h196zM673 331v-454h-195v454h195zM67 530v21q0 241 135 396t374 155q240 0 376 -154t136 -397v-21q0 -244 -136 -398q-135 -153 -374 -153q-240 0 -376 153q-135 154 -135 398zM358 551v-21q0 -149 52 -238q53 -89 168 -89q112 0 165 90
q53 91 53 237v21q0 143 -53 235q-52 91 -167 91q-113 0 -166 -92q-52 -91 -52 -234z" />
    <glyph glyph-name="uni047C" unicode="&#x47c;" horiz-adv-x="1964" 
d="M1189 1222l-62 213q106 42 229 42q226 0 371 -178q146 -179 146 -458v-214q0 -288 -150 -468t-385 -180q-211 0 -352 101q-146 -101 -352 -101q-236 0 -386 180q-149 181 -149 468v214q0 280 145 458t372 178q122 0 229 -42l-62 -213q-69 30 -160 30q-105 0 -169 -115
q-64 -113 -64 -294v-216q0 -187 66 -306q67 -118 178 -118q143 0 206 87v41h292v-41q61 -87 206 -87q110 0 177 118t67 306v216q0 179 -65 294q-64 115 -168 115q-92 0 -160 -30zM1437 1877h22v-134h-23q-130 0 -287 60t-198 60q-49 0 -76 -26t-27 -76v-18h-133v37
q0 108 59.5 162.5t172.5 54.5q69 0 224 -60t266 -60zM1118 1630l-158 -182l-82 55l59 109l-1 146h182v-128z" />
    <glyph glyph-name="uni047D" unicode="&#x47d;" horiz-adv-x="1682" 
d="M1014 848l-62 213q93 42 204 42q197 0 324 -151q128 -151 128 -386v-45q0 -239 -132 -391q-132 -151 -338 -151q-174 0 -292 88q-119 -88 -292 -88q-207 0 -339 151q-131 152 -131 391v45q0 237 127 386q127 151 325 151q109 0 204 -42l-62 -213q-58 30 -135 30
q-75 0 -122 -87q-46 -85 -46 -223v-47q0 -141 49 -229q50 -89 130 -89q101 0 146 74v60h292v-60q42 -74 146 -74q79 0 129 89t50 229v47q0 137 -47 223q-46 87 -121 87q-78 0 -135 -30zM1322 1496h21v-134h-23q-128 0 -286 60q-157 60 -199 60q-49 0 -76 -26t-27 -76v-18
h-133v37q0 108 60 162.5t173 54.5q70 0 224 -60t266 -60zM1003 1262l-158 -182l-82 55l59 109l-1 133h182v-115z" />
    <glyph glyph-name="uni047E" unicode="&#x47e;" horiz-adv-x="1965" 
d="M882 1687h-167v-127l-178 1l1 238h885v-239h-179v127h-181v-127h-181v127zM1158 1222l-61 213q118 42 259 42q225 0 371 -167t146 -430v-304q0 -265 -150 -431t-385 -166q-210 0 -353 85q-143 -85 -351 -85q-236 0 -386 166q-149 167 -149 431v304q0 264 145 430
q146 167 372 167q139 0 259 -42l-62 -213q-82 30 -190 30q-104 0 -169 -104q-64 -103 -64 -266v-306q0 -166 66 -269q68 -104 178 -104q144 0 206 74v276h-188v202h668v-202h-188v-276q61 -74 206 -74q110 0 176 104q67 103 67 269v306q0 163 -64 266q-65 104 -168 104
q-109 0 -191 -30z" />
    <glyph glyph-name="uni047F" unicode="&#x47f;" horiz-adv-x="1461" 
d="M648 1345h-136v-127l-178 1l1 238h824v-239h-179v127h-151v-127h-181v127zM321 1082l182 -679l28 -148h6l41 148l78 300l-110 379h290l144 -679l15 -77h6l2 10q131 280 123 746h305q-45 -539 -297 -1082h-272l-96 327l-6 1l-112 -328h-264l-368 1082h305z" />
    <glyph glyph-name="uni0480" unicode="&#x480;" horiz-adv-x="1277" 
d="M842 203v-569h-291v353q-211 33 -336 195q-123 162 -123 401v289q0 266 153 436q154 169 409 169q259 0 399 -130q143 -129 138 -366l-2 -6h-283q0 142 -61 209.5t-191 67.5t-200 -105q-70 -104 -70 -273v-291q0 -169 70 -275q70 -105 200 -105h188z" />
    <glyph glyph-name="uni0481" unicode="&#x481;" horiz-adv-x="1095" 
d="M776 203v-570h-292v355q-191 32 -295 179q-103 146 -103 358v30q0 237 131 392t368 155q199 0 320 -114q122 -115 118 -300l-2 -6h-266q0 84 -46 139q-45 56 -124 56q-111 0 -160 -91q-48 -92 -48 -231v-30q0 -143 48 -233q48 -89 162 -89h189z" />
    <glyph glyph-name="uni0482" unicode="&#x482;" horiz-adv-x="1275" 
d="M805 809l-204 -360l289 -172l-72 -128l-291 170l-181 -319h-175l225 398l-289 171l71 128l293 -171l202 360l-290 171l73 130l291 -171l185 326h172l-228 -405l293 -171l-76 -127z" />
    <glyph glyph-name="uni0483" unicode="&#x483;" horiz-adv-x="912" 
d="M815 1312h-546v-126l-177 1l1 238h546l-1 108l177 -1v-220z" />
    <glyph glyph-name="uni0484" unicode="&#x484;" horiz-adv-x="952" 
d="M102 1437h21q114 0 271 60q159 60 232 60q115 0 176.5 -55t61.5 -162v-37h-136v18q0 50 -28.5 76t-77.5 26q-43 0 -205 -60q-161 -60 -292 -60h-23v134z" />
    <glyph glyph-name="uni0485" unicode="&#x485;" horiz-adv-x="476" 
d="M291 1305l-166 195v141h190l-1 -159l58 -109z" />
    <glyph glyph-name="uni0486" unicode="&#x486;" horiz-adv-x="491" 
d="M354 1500l-166 -195l-81 68l58 109l-1 159h190v-141z" />
    <glyph glyph-name="uni048A" unicode="&#x48a;" horiz-adv-x="1431" 
d="M838 1896h214l2 -6q5 -128 -89 -208t-251 -80q-158 0 -253 80q-94 81 -88 208l2 6h213q0 -56 31.5 -88.5t94.5 -32.5q61 0 92.5 33t31.5 88zM1567 210v-237l-159 -315h-195l70 324v18h-274v973l-6 1l-588 -974h-291v1456h291v-972l6 -1l588 973h292v-1246h266z" />
    <glyph glyph-name="uni048B" unicode="&#x48b;" 
d="M1315 210v-237l-159 -315h-195l70 324v18h-273v660l-6 1l-353 -661h-292v1082h292v-658l6 -1l353 659h291v-872h266zM703 1553h214l2 -6q5 -128 -89 -208t-251 -80q-158 0 -253 80q-94 81 -88 208l2 6h213q0 -56 31.5 -88.5t94.5 -32.5q61 0 92.5 33t31.5 88z" />
    <glyph glyph-name="uni048C" unicode="&#x48c;" horiz-adv-x="1283" 
d="M677 1271v-181h-253v-146h250q250 0 399 -131q148 -130 148 -339q0 -210 -149 -342q-148 -132 -398 -132h-542v1090h-126v181h126v185h292v-185h253zM674 719h-250v-495h250q123 0 189 73q67 73 67 179q0 102 -67 172q-66 71 -189 71z" />
    <glyph glyph-name="uni048D" unicode="&#x48d;" horiz-adv-x="1143" 
d="M658 991v-181h-236v-78h203q218 0 343 -101t125 -263q0 -165 -125 -267q-125 -101 -343 -101h-496v810h-142v181h142v91h293v-91h236zM625 508h-203v-285h203q87 0 132 39t45 104q0 63 -45.5 102.5t-131.5 39.5z" />
    <glyph glyph-name="uni048E" unicode="&#x48e;" horiz-adv-x="1284" 
d="M684 528h-265v-528h-292v1456h557q250 0 395 -128q144 -128 144 -337t-144 -336q-55 -48 -120 -76l94 -178l-120 -64l-107 202q-69 -11 -142 -11zM419 1231v-478h265q20 0 29 1l-82 157l121 63l92 -177q14 10 25 22q63 67 63 170q0 105 -63 173q-61 69 -185 69h-265z" />
    <glyph glyph-name="uni048F" unicode="&#x48f;" horiz-adv-x="1154" 
d="M1088 532v-21q0 -241 -111 -386q-65 -85 -156 -119l51 -141l-128 -48l-58 163q-7 -1 -19 -1q-168 0 -264 124v-519h-291v1498h263l17 -128q100 148 273 148q201 0 312 -157t111 -413zM796 511v21q0 154 -51 248q-51 95 -156 95q-130 0 -186 -104v-474q55 -94 188 -94h14
l-60 170l128 49l57 -160q8 9 16 24q50 83 50 225z" />
    <glyph glyph-name="uni0490" unicode="&#x490;" horiz-adv-x="1138" 
d="M1095 1824v-593h-671v-1231h-292v1456h671v368h292z" />
    <glyph glyph-name="uni0491" unicode="&#x491;" horiz-adv-x="946" 
d="M887 1397v-540h-41v-1h-447v-856h-292v1082h489v315h291z" />
    <glyph glyph-name="uni0492" unicode="&#x492;" horiz-adv-x="1137" 
d="M655 845v-181h-231v-664h-292v664h-148v181h148v611h949v-225h-657v-386h231z" />
    <glyph glyph-name="uni0493" unicode="&#x493;" horiz-adv-x="855" 
d="M625 636v-181h-226v-455h-292v455h-153v181h153v446h739v-226h-447v-220h226z" />
    <glyph glyph-name="uni0494" unicode="&#x494;" horiz-adv-x="1145" 
d="M1081 1456v-225h-657v-319h204q266 0 426 -126q160 -124 160 -361q2 -134 -94 -270q-96 -135 -277 -192l-123 188q202 90 203 274q0 125 -77.5 191.5t-217.5 66.5h-204v-683h-292v1456h949z" />
    <glyph glyph-name="uni0495" unicode="&#x495;" horiz-adv-x="1208" 
d="M846 1082v-226h-447v-146h53q266 0 426 -126q160 -124 160 -361q2 -135 -94 -269q-96 -135 -277 -193l-123 188q202 92 203 274q0 125 -77.5 191.5t-217.5 66.5h-53v-481h-292v1082h739z" />
    <glyph glyph-name="uni0496" unicode="&#x496;" horiz-adv-x="1870" 
d="M1978 234v-591h-292v357h-186l-322 608h-92v-608h-291v608h-97l-328 -608h-364l459 785l-435 671h361l330 -595h74v595h291v-595h70l323 595h360l-429 -670l318 -552h250z" />
    <glyph glyph-name="uni0497" unicode="&#x497;" horiz-adv-x="1661" 
d="M1713 234v-591h-292v357h-152l-214 408h-81v-408h-290v408h-79l-214 -408h-374l354 586l-336 496h368l223 -408h58v408h290v-408h61l222 408h369l-337 -497l212 -351h212z" />
    <glyph glyph-name="uni0498" unicode="&#x498;" horiz-adv-x="1345" 
d="M1168 407q0 -85 -31.5 -156.5t-87 -121.5t-126 -84t-153.5 -51q98 -89 98 -206q0 -102 -72 -157q-72 -57 -181 -57q-106 0 -190 44l35 154q56 -20 99 -20q90 0 90 70q0 47 -24 83q-21 30 -64 76q-108 7 -217 34.5t-170 71.5l87 226q40 -39 132 -74.5t222 -35.5
q100 0 181 58.5t81 149.5q0 111 -68 168t-183 57h-154v220h154q105 0 166.5 54.5t61.5 151.5q0 84 -72.5 137t-166.5 53q-40 0 -76 -3.5t-62 -8t-53.5 -13.5t-43 -15t-36.5 -18.5t-28 -17t-24.5 -17.5t-19.5 -14l-100 221q61 52 191 81.5t252 29.5q244 0 387.5 -108.5
t143.5 -304.5q0 -99 -58 -183t-157 -132q114 -42 175.5 -130t61.5 -212z" />
    <glyph glyph-name="uni0499" unicode="&#x499;" horiz-adv-x="1140" 
d="M958 299q0 -121 -80.5 -199.5t-205.5 -106.5q95 -90 95 -204q0 -101 -72 -157q-72 -57 -181 -57q-106 0 -190 44l35 154q56 -20 99 -20q90 0 90 70q0 47 -24 83q-19 27 -67 78q-168 21 -244 76l85 220q88 -88 246 -88q72 0 113.5 32t41.5 92q0 137 -147 137h-115v183h115
q58 0 94 33.5t36 102.5q0 63 -34.5 90t-103.5 27q-143 0 -257 -80l-75 209q46 39 143.5 61t188.5 22q183 0 290 -81.5t107 -228.5q0 -73 -43.5 -136.5t-117.5 -98.5q85 -32 131.5 -98t46.5 -159z" />
    <glyph glyph-name="uni049A" unicode="&#x49a;" horiz-adv-x="1305" 
d="M1144 234h229v-591h-292v357h-146l-402 608l-107 18v-626h-292v1456h292v-609l82 14l399 595h344v-22l-487 -655z" />
    <glyph glyph-name="uni049B" unicode="&#x49b;" horiz-adv-x="1167" 
d="M768 0l-235 405l-112 20v-425h-292v1082h292v-427l87 15l248 412h369l-358 -502l390 -580h-389zM1235 234v-591h-292v591h292z" />
    <glyph glyph-name="uni049C" unicode="&#x49c;" horiz-adv-x="1351" 
d="M974 1456h361l-381 -663l420 -793h-372l-274 604h-54v-229h-167v229h-83v-604h-292v1456h292v-599h83v256h167v-256h40z" />
    <glyph glyph-name="uni049D" unicode="&#x49d;" horiz-adv-x="1184" 
d="M810 1082h369l-293 -510l309 -572h-373l-165 405h-26v-172h-151v172h-59v-405h-292v1082h292v-412h59v191h151v-191h25z" />
    <glyph glyph-name="uni049E" unicode="&#x49e;" horiz-adv-x="1305" 
d="M935 0l-402 608h-107v-608h-292v1140h-218v181h218v135h292v-135h161v-181h-161v-279h82l399 595h361l-504 -677l543 -779h-372z" />
    <glyph glyph-name="uni049F" unicode="&#x49f;" horiz-adv-x="1097" 
d="M778 0l-300 453h-74v-453h-292v1208h-197v181h197v171h292v-171h182v-181h-182v-533h65l259 407h338l-352 -493l400 -589h-336z" />
    <glyph glyph-name="uni04A0" unicode="&#x4a0;" horiz-adv-x="1753" 
d="M1374 0l-402 608h-107v-608h-292v1230h-489v226h781v-595h82l399 595h361l-504 -677l543 -779h-372z" />
    <glyph glyph-name="uni04A1" unicode="&#x4a1;" horiz-adv-x="1513" 
d="M1148 0l-235 405h-112v-405h-292v856h-437v226h729v-412h87l248 412h369l-358 -502l390 -580h-389z" />
    <glyph glyph-name="uni04A2" unicode="&#x4a2;" horiz-adv-x="1445" 
d="M1311 1456v-1456h-292v605h-593v-605h-292v1456h292v-626h593v626h292zM1494 234v-591h-292v591h292z" />
    <glyph glyph-name="uni04A3" unicode="&#x4a3;" 
d="M1047 1082v-1082h-292v420h-356v-420h-292v1082h292v-438h356v438h292zM1230 234v-591h-292v591h292z" />
    <glyph glyph-name="uni04A4" unicode="&#x4a4;" horiz-adv-x="2016" 
d="M425 1456v-626h593v626h918v-225h-626v-1231h-292v605h-593v-605h-292v1456h292z" />
    <glyph glyph-name="uni04A5" unicode="&#x4a5;" horiz-adv-x="1446" 
d="M399 1082v-438h356v438h631v-225h-339v-857h-292v420h-356v-420h-292v1082h292z" />
    <glyph glyph-name="uni04A6" unicode="&#x4a6;" horiz-adv-x="2119" 
d="M1311 1456v-539h174q265 0 425 -125q160 -124 160 -361q3 -133 -94 -269q-96 -137 -277 -195l-122 189q101 45 151 111.5t51 163.5q0 125 -77.5 191.5t-216.5 66.5h-174v-689h-292v1231h-594v-1231h-292v1456h1178z" />
    <glyph glyph-name="uni04A7" unicode="&#x4a7;" horiz-adv-x="1773" 
d="M1049 1082v-369h159q266 0 426 -126q160 -124 160 -361q2 -135 -94 -269q-96 -135 -277 -193l-123 188q202 92 203 274q0 125 -77.5 191.5t-217.5 66.5h-159v-484h-292v856h-358v-856h-292v1082h942z" />
    <glyph glyph-name="uni04A8" unicode="&#x4a8;" horiz-adv-x="1472" 
d="M571 648v92q0 165 107 274q106 109 280 109q185 0 301 -116t116 -294v-88q0 -277 -179 -462q-178 -184 -463 -184q-281 0 -459 176q-177 175 -177 442v262q0 265 172 440q173 176 443 172l6 -2v-227q-143 0 -229 -107q-85 -106 -85 -274v-264q0 -171 88 -277
q89 -107 241 -107q64 0 121 22q-134 55 -208.5 163t-74.5 250zM1068 625v91q0 77 -30 125t-80 48t-80.5 -48.5t-30.5 -124.5v-70q0 -94 44.5 -160t122.5 -86l6 1q48 98 48 224z" />
    <glyph glyph-name="uni04A9" unicode="&#x4a9;" horiz-adv-x="1178" 
d="M496 495v26q0 128 85 212q85 85 222 85q135 0 221 -93q87 -93 87 -233v-34q0 -206 -137 -343q-136 -136 -352 -136q-246 0 -401 149q-154 150 -154 378v41q0 239 153 396q154 157 396 153l6 -2v-225q-114 -9 -182 -96q-66 -85 -66 -224v-43q0 -130 67 -212
q67 -81 181 -81h6q-63 46 -97.5 119t-34.5 163zM834 472v36q0 50 -17.5 83.5t-44.5 33.5t-44 -32t-17 -80v-31q0 -62 22.5 -104.5t60.5 -50.5l6 1q34 56 34 144z" />
    <glyph glyph-name="uni04AA" unicode="&#x4aa;" horiz-adv-x="1303" 
d="M1199 85q-178 -98 -408 -105q76 -83 76 -185q0 -101 -72 -157q-72 -57 -181 -57q-106 0 -190 44l35 154q56 -20 99 -20q90 0 90 70q0 47 -24 83q-20 29 -71 83q-108 18 -189 58t-141.5 109t-92 175t-31.5 246v289q0 128 32 229.5t88.5 171t138.5 116t178.5 67.5t211.5 21
q268 0 439 -102l-50 -231q-73 48 -178.5 75t-210.5 27q-181 0 -272.5 -92.5t-85.5 -279.5v-291q0 -96 31 -169t85 -115t117.5 -63t135.5 -23q95 -2 205.5 27.5t186.5 77.5z" />
    <glyph glyph-name="uni04AB" unicode="&#x4ab;" horiz-adv-x="1056" 
d="M941 68q-118 -63 -268 -83q82 -85 82 -190q0 -101 -72 -157q-72 -57 -181 -57q-106 0 -190 44l35 154q55 -20 99 -20q90 0 90 70q0 47 -24 83q-19 27 -65 76q-385 62 -385 537v30q0 287 127 417t382 130q105 0 192 -17t175 -67l-40 -225q-133 77 -327 77
q-123 0 -169.5 -76t-46.5 -239v-30q0 -67 9.5 -118.5t32 -97t67 -71t108.5 -26.5q170 0 321 88z" />
    <glyph glyph-name="uni04AC" unicode="&#x4ac;" horiz-adv-x="1175" 
d="M1149 1456v-225h-416v-1231h-292v1231h-410v225h1118zM916 234v-591h-292v591h292z" />
    <glyph glyph-name="uni04AD" unicode="&#x4ad;" horiz-adv-x="1070" 
d="M1028 1082v-223h-346v-859h-293v859h-341v223h980zM865 234v-591h-292v591h292z" />
    <glyph glyph-name="uni04AE" unicode="&#x4ae;" horiz-adv-x="1303" 
d="M330 1456l318 -671h6l318 671h320l-499 -944v-512h-292v527l-491 929h320z" />
    <glyph glyph-name="uni04AF" unicode="&#x4af;" horiz-adv-x="1046" 
d="M548 403l178 679h305l-362 -1065v-434h-292v437l-361 1062h305l182 -679l19 -100h6z" />
    <glyph glyph-name="uni04B0" unicode="&#x4b0;" horiz-adv-x="1303" 
d="M330 1456l317 -671h6l319 671h320l-401 -757h104v-181h-199l-3 -6v-512h-292v518h-177v181h86l-400 757h320z" />
    <glyph glyph-name="uni04B1" unicode="&#x4b1;" horiz-adv-x="1046" 
d="M867 190v-181h-198v-426h-292v426h-181v181h123l-303 892h305l182 -679l19 -100h6l20 100l178 679h305l-304 -892h140z" />
    <glyph glyph-name="uni04B2" unicode="&#x4b2;" horiz-adv-x="1303" 
d="M380 1456l269 -516l273 516h340l-432 -722l457 -734h-353l-281 525l-281 -525h-341l443 734l-432 722h338zM1315 234v-591h-292v591h292z" />
    <glyph glyph-name="uni04B3" unicode="&#x4b3;" horiz-adv-x="1046" 
d="M357 1082l162 -344h6l166 344h330l-326 -535l337 -547h-329l-177 359l-177 -359h-330l337 547l-327 535h328zM1074 234v-591h-292v591h292z" />
    <glyph glyph-name="uni04B4" unicode="&#x4b4;" horiz-adv-x="1841" 
d="M380 0v1230h-337v225h337v1h292v-1h331v-225h-331v-1005h594v1231h292v-1218h223v-591h-292v353h-1109z" />
    <glyph glyph-name="uni04B5" unicode="&#x4b5;" horiz-adv-x="1420" 
d="M264 0v857h-218v225h707v-225h-197v-633h358v858h292v-858h156v-582h-291v358h-807z" />
    <glyph glyph-name="uni04B6" unicode="&#x4b6;" horiz-adv-x="1420" 
d="M995 1456h293v-1456h-293v561q-63 -16 -148 -25q-88 -8 -147 -8q-267 0 -415 116q-146 116 -146 359v453h292v-453q0 -142 63 -196q65 -54 206 -54q57 0 145 8q88 9 150 25v670zM1471 234v-591h-292v591h292z" />
    <glyph glyph-name="uni04B7" unicode="&#x4b7;" horiz-adv-x="1147" 
d="M1041 1082v-1082h-292v343q-67 -15 -148 -15q-243 0 -370.5 103.5t-127.5 310.5v340h292v-340q0 -107 47 -148t159 -41q74 0 148 16v513h292zM1224 234v-591h-292v591h292z" />
    <glyph glyph-name="uni04B8" unicode="&#x4b8;" horiz-adv-x="1394" 
d="M831 1047v-756h-167v756h167zM995 1456h293v-1456h-293v561q-63 -16 -148 -25q-88 -8 -147 -8q-267 0 -415 116q-146 116 -146 359v453h292v-453q0 -142 63 -196q65 -54 206 -54q57 0 145 8q88 9 150 25v670z" />
    <glyph glyph-name="uni04B9" unicode="&#x4b9;" horiz-adv-x="1148" 
d="M659 825v-641h-167v641h167zM1041 1082v-1082h-292v343q-67 -15 -148 -15q-243 0 -370.5 103.5t-127.5 310.5v340h292v-340q0 -107 47 -148t159 -41q74 0 148 16v513h292z" />
    <glyph glyph-name="uni04BA" unicode="&#x4ba;" horiz-adv-x="1433" 
d="M371 0h-293v1456h293v-561q72 15 148 23q79 10 147 10q267 0 414 -117q147 -116 147 -358v-453h-292v453q0 141 -64 195q-64 55 -205 55q-66 0 -146 -10q-78 -9 -149 -23v-670z" />
    <glyph glyph-name="uni04BB" unicode="&#x4bb;" horiz-adv-x="1148" 
d="M95 2v1082h292v-343q67 15 148 15q243 0 370.5 -103.5t127.5 -310.5v-340h-292v340q0 107 -47 148t-159 41q-74 0 -148 -16v-513h-292z" />
    <glyph glyph-name="uni04BC" unicode="&#x4bc;" horiz-adv-x="1680" 
d="M1030 -23q-340 0 -527 186q-187 187 -199 500q-155 24 -238.5 133.5t-83.5 285.5h196q0 -177 132 -219q33 273 209 443q177 170 421 169q292 0 448 -182q156 -181 156 -500v-150h-940l-2 -6q9 -189 113 -305q103 -114 315 -114q198 0 378 66l49 -225q-52 -28 -164 -55
q-111 -27 -263 -27zM940 1233q-141 0 -228 -102q-86 -100 -106 -263l2 -5h645v31q0 153 -75 246t-238 93z" />
    <glyph glyph-name="uni04BD" unicode="&#x4bd;" horiz-adv-x="1225" 
d="M692 -21q-235 0 -371 141q-135 140 -143 366q-119 37 -182.5 135t-63.5 244h183q0 -125 75 -178q35 190 160 302q128 113 323 113q218 0 334 -134q117 -133 117 -359v-151h-645l-3 -6q8 -112 67 -180q61 -69 180 -69q97 0 166 20q64 18 142 61l79 -180q-65 -53 -176 -89
t-242 -36zM673 877q-85 0 -134 -59t-59 -162l2 -5h356v22q0 204 -165 204z" />
    <glyph glyph-name="uni04BE" unicode="&#x4be;" horiz-adv-x="1680" 
d="M1030 -23q-340 0 -527 186q-187 187 -199 500q-155 24 -238.5 133.5t-83.5 285.5h196q0 -177 132 -219q33 273 209 443q177 170 421 169q292 0 448 -182q156 -181 156 -500v-150h-940l-2 -6q9 -189 113 -305q103 -114 315 -114q198 0 378 66l49 -225q-52 -28 -164 -55
q-111 -27 -263 -27zM940 1233q-141 0 -228 -102q-86 -100 -106 -263l2 -5h645v31q0 153 -75 246t-238 93zM813 60l132 -60q-53 -51 -79 -90q-25 -37 -25 -86q0 -70 86 -70q38 0 94 20l35 -154q-84 -44 -186 -44q-108 0 -178 57q-69 55 -69 157q0 166 190 270z" />
    <glyph glyph-name="uni04BF" unicode="&#x4bf;" horiz-adv-x="1225" 
d="M692 -21q-235 0 -371 141q-135 140 -143 366q-119 37 -182.5 135t-63.5 244h183q0 -125 75 -178q35 190 160 302q128 113 323 113q218 0 334 -134q117 -133 117 -359v-151h-645l-3 -6q8 -112 67 -180q61 -69 180 -69q97 0 166 20q64 18 142 61l79 -180q-65 -53 -176 -89
t-242 -36zM673 877q-85 0 -134 -59t-59 -162l2 -5h356v22q0 204 -165 204zM586 60l132 -60q-53 -51 -79 -90q-25 -37 -25 -86q0 -70 86 -70q38 0 94 20l35 -154q-84 -44 -186 -44q-107 0 -178 57q-69 55 -69 157q0 166 190 270z" />
    <glyph glyph-name="uni04C0" unicode="&#x4c0;" horiz-adv-x="601" 
d="M446 1456v-1456h-292v1456h292z" />
    <glyph glyph-name="uni04C1" unicode="&#x4c1;" horiz-adv-x="1870" 
d="M1500 0l-322 608h-92v-608h-291v608h-97l-328 -608h-364l459 785l-435 671h361l330 -595h74v595h291v-595h70l323 595h360l-429 -670l453 -786h-363zM1059 1896h214l2 -6q5 -128 -89 -208t-251 -80q-158 0 -253 80q-94 81 -88 208l2 6h213q0 -56 31.5 -88.5t94.5 -32.5
q61 0 92.5 33t31.5 88z" />
    <glyph glyph-name="uni04C2" unicode="&#x4c2;" horiz-adv-x="1661" 
d="M1269 0l-214 408h-81v-408h-290v408h-79l-214 -408h-374l354 586l-336 496h368l223 -408h58v408h290v-408h61l222 408h369l-337 -497l353 -585h-373zM955 1553h214l2 -6q5 -128 -89 -208t-251 -80q-158 0 -253 80q-94 81 -88 208l2 6h213q0 -56 31.5 -88.5t94.5 -32.5
q61 0 92.5 33t31.5 88z" />
    <glyph glyph-name="uni04C3" unicode="&#x4c3;" horiz-adv-x="1297" 
d="M1258 1456l-452 -641q205 -36 321 -163q117 -128 117 -340q2 -141 -102 -282q-103 -140 -300 -202l-123 188q232 92 233 296q0 144 -80 216t-229 72h-219v-600h-292v1456h292v-599h102l371 599h361z" />
    <glyph glyph-name="uni04C4" unicode="&#x4c4;" horiz-adv-x="1170" 
d="M1125 1082l-344 -482q161 -48 248 -160.5t87 -281.5q2 -133 -94 -264q-95 -132 -277 -191l-123 189q102 45 152 109.5t50 156.5q0 124 -75.5 185.5t-218.5 61.5h-109v-405h-292v1082h292v-412h87l248 412h369z" />
    <glyph glyph-name="uni04C5" unicode="&#x4c5;" horiz-adv-x="1444" 
d="M313 1456h998v-1456h-292v1231h-414v-438q0 -421 -128 -608q-128 -185 -392 -185h-43v224h40q137 0 184 122q47 123 47 447v663zM1577 210v-237l-159 -315h-195l70 324v228h284z" />
    <glyph glyph-name="uni04C6" unicode="&#x4c6;" horiz-adv-x="1149" 
d="M206 1082h843v-1082h-291v856h-260v-235q0 -319 -98 -471q-98 -150 -335 -150h-47l-3 230l31 1q100 0 130 82t30 308v461zM1315 210v-237l-159 -315h-195l70 324v228h284z" />
    <glyph glyph-name="uni04C7" unicode="&#x4c7;" horiz-adv-x="1444" 
d="M133 1456h293v-626h593v626h291v-1496q0 -189 -101 -293t-280 -104q-77 0 -145 17l14 221q50 -13 100 -13q57 0 89 45t32 127v645h-593v-605h-293v1456z" />
    <glyph glyph-name="uni04C8" unicode="&#x4c8;" 
d="M107 1082h292v-438h356v438h292v-1122q0 -189 -101 -293t-281 -104q-76 0 -144 17l14 221q50 -13 99 -13q57 0 89 45t32 127v460h-356v-420h-292v1082z" />
    <glyph glyph-name="uni04C9" unicode="&#x4c9;" horiz-adv-x="1445" 
d="M1311 1456v-1456h-292v605h-593v-605h-292v1456h292v-626h593v626h292zM1577 210v-237l-159 -315h-195l70 324v228h284z" />
    <glyph glyph-name="uni04CA" unicode="&#x4ca;" 
d="M1047 1082v-1082h-292v420h-356v-420h-292v1082h292v-438h356v438h292zM1313 210v-237l-159 -315h-195l70 324v228h284z" />
    <glyph glyph-name="uni04CB" unicode="&#x4cb;" horiz-adv-x="1420" 
d="M995 1456h293v-1456h-293v561q-63 -16 -148 -25q-88 -8 -147 -8q-267 0 -415 116q-146 116 -146 359v453h292v-453q0 -142 63 -196q65 -54 206 -54q57 0 145 8q88 9 150 25v670zM1096 234v-591h-292v591h292z" />
    <glyph glyph-name="uni04CC" unicode="&#x4cc;" horiz-adv-x="1147" 
d="M1041 1082v-1082h-292v343q-67 -15 -148 -15q-243 0 -370.5 103.5t-127.5 310.5v340h292v-340q0 -107 47 -148t159 -41q74 0 148 16v513h292zM849 234v-591h-292v591h292z" />
    <glyph glyph-name="uni04CD" unicode="&#x4cd;" horiz-adv-x="1782" 
d="M508 1456l373 -801h15l381 801h371v-1456h-292v994l-6 1l-360 -702h-198l-360 704l-6 -1v-996h-292v1456h374zM1914 210v-237l-159 -315h-195l70 324v228h284z" />
    <glyph glyph-name="uni04CE" unicode="&#x4ce;" horiz-adv-x="1557" 
d="M491 1082l275 -477h6l279 477h365v-1082h-291v706l-6 1l-251 -415h-196l-245 421l-6 -1v-712h-292v1082h362zM1682 210v-237l-159 -315h-195l70 324v228h284z" />
    <glyph glyph-name="uni04CF" unicode="&#x4cf;" horiz-adv-x="601" 
d="M446 1456v-1456h-292v1456h292z" />
    <glyph glyph-name="uni04D0" unicode="&#x4d0;" horiz-adv-x="1303" 
d="M992 0l-99 314h-472l-98 -314h-305l491 1456h299l489 -1456h-305zM655 1056l-162 -513h329l-161 513h-6zM778 1896h214l2 -6q5 -128 -89 -208t-251 -80q-158 0 -253 80q-94 81 -88 208l2 6h213q0 -56 31.5 -88.5t94.5 -32.5q61 0 92.5 33t31.5 88z" />
    <glyph glyph-name="uni04D1" unicode="&#x4d1;" horiz-adv-x="1100" 
d="M993 723l1 -723h-254q-17 72 -24 111q-41 -61 -122.5 -96.5t-181.5 -35.5q-162 0 -258.5 84t-96.5 241q0 163 124 253t357 82q48 -2 89 -8t58 -11l17 -5v110q0 147 -161 147q-177 0 -368 -72l-46 224q205 78 431 78q102 0 179 -19.5t136 -62t89.5 -117.5t30.5 -180z
M702 241v200q-70 25 -164 25q-96 0 -142 -30.5t-46 -101.5q0 -140 133 -140q135 0 219 47zM671 1574h214l2 -6q5 -128 -89 -208t-251 -80q-158 0 -253 80q-94 81 -88 208l2 6h213q0 -56 31.5 -88.5t94.5 -32.5q61 0 92.5 33t31.5 88z" />
    <glyph glyph-name="uni04D2" unicode="&#x4d2;" horiz-adv-x="1303" 
d="M992 0l-99 314h-472l-98 -314h-305l491 1456h299l489 -1456h-305zM655 1056l-162 -513h329l-161 513h-6zM1036 1805v-204h-266v204h266zM536 1805v-204h-266v204h266z" />
    <glyph glyph-name="uni04D3" unicode="&#x4d3;" horiz-adv-x="1100" 
d="M993 723l1 -723h-254q-17 72 -24 111q-41 -61 -122.5 -96.5t-181.5 -35.5q-162 0 -258.5 84t-96.5 241q0 163 124 253t357 82q48 -2 89 -8t58 -11l17 -5v110q0 147 -161 147q-177 0 -368 -72l-46 224q205 78 431 78q102 0 179 -19.5t136 -62t89.5 -117.5t30.5 -180z
M702 241v200q-70 25 -164 25q-96 0 -142 -30.5t-46 -101.5q0 -140 133 -140q135 0 219 47zM929 1483v-204h-266v204h266zM429 1483v-204h-266v204h266z" />
    <glyph glyph-name="uni04D4" unicode="&#x4d4;" horiz-adv-x="1945" 
d="M1874 227v-227h-898l-14 335h-440l-168 -335h-342l784 1456h1016v-228h-596l16 -366h499v-227h-490l17 -408h616zM923 1135l-281 -560h310l-23 559z" />
    <glyph glyph-name="uni04D5" unicode="&#x4d5;" horiz-adv-x="1771" 
d="M1713 454h-651l-2 -6q4 -114 67.5 -179.5t184.5 -65.5q79 0 146 24.5t148 80.5l98 -208q-156 -121 -423 -121q-259 0 -396 158q-63 -73 -166 -115.5t-236 -42.5q-180 0 -290.5 85t-110.5 252q0 160 127 246t369 86h181v59q0 153 -155 153q-88 0 -162.5 -17.5
t-170.5 -68.5l-109 217q184 111 445 111q205 0 329 -107q127 107 322 107q221 0 338 -121.5t117 -368.5v-158zM1258 866q-182 0 -196 -217l2 -5h362v28q0 94 -42.5 144t-125.5 50zM759 288v175h-179q-81 3 -144 -37.5t-63 -112.5q0 -60 42.5 -94t122.5 -34q55 0 120.5 30.5
t100.5 72.5z" />
    <glyph glyph-name="uni04D6" unicode="&#x4d6;" horiz-adv-x="1139" 
d="M966 865v-225h-540v-416h642l1 -224h-935v1456h932v-225h-640v-366h540zM726 1896h214l2 -6q5 -128 -89 -208t-251 -80q-158 0 -253 80q-94 81 -88 208l2 6h213q0 -56 31.5 -88.5t94.5 -32.5q61 0 92.5 33t31.5 88z" />
    <glyph glyph-name="uni04D7" unicode="&#x4d7;" horiz-adv-x="1071" 
d="M581 -21q-242 0 -378 148t-136 383v40q0 243 132 398q133 155 363 154q218 0 334 -134q117 -133 117 -359v-151h-648v-6q8 -112 67 -180q62 -69 180 -69q189 0 343 83l67 -221q-73 -29 -201 -59q-121 -27 -240 -27zM562 877q-85 0 -134 -59t-59 -162v-15h358v32
q0 204 -165 204zM664 1575h214l2 -6q5 -128 -89 -208t-251 -80q-158 0 -253 80q-94 81 -88 208l2 6h213q0 -56 31.5 -88.5t94.5 -32.5q61 0 92.5 33t31.5 88z" />
    <glyph glyph-name="uni04D8" unicode="&#x4d8;" horiz-adv-x="1506" 
d="M640 1477q350 0 538 -200q189 -199 189 -530v-42q0 -317 -183 -523q-183 -204 -454 -203q-312 0 -478 181t-166 500v150h980l2 6q-9 188 -114 303q-104 116 -314 116q-193 0 -378 -66l-49 225q50 27 163 55q109 28 264 28zM730 220q140 0 227 101q88 101 107 264l-2 5
h-685v-31q0 -154 84 -247q84 -92 269 -92z" />
    <glyph glyph-name="uni04D9" unicode="&#x4d9;" horiz-adv-x="1081" 
d="M542 1103q241 0 378 -149q136 -148 136 -382v-40q0 -244 -132 -398q-133 -155 -363 -154q-218 0 -335 133q-116 134 -116 360v151h648v6q-8 112 -68 180q-60 69 -179 69q-189 0 -343 -83l-67 221q77 30 201 58q119 28 240 28zM561 205q85 0 134 59t59 162v15h-358v-32
q0 -204 165 -204z" />
    <glyph glyph-name="uni04DA" unicode="&#x4da;" horiz-adv-x="1506" 
d="M640 1477q350 0 538 -200q189 -199 189 -530v-42q0 -317 -183 -523q-183 -204 -454 -203q-312 0 -478 181t-166 500v150h980l2 6q-9 188 -114 303q-104 116 -314 116q-193 0 -378 -66l-49 225q50 27 163 55q109 28 264 28zM730 220q140 0 227 101q88 101 107 264l-2 5
h-685v-31q0 -154 84 -247q84 -92 269 -92zM1063 1750v-204h-266v204h266zM563 1750v-204h-266v204h266z" />
    <glyph glyph-name="uni04DB" unicode="&#x4db;" horiz-adv-x="1081" 
d="M542 1103q241 0 378 -149q136 -148 136 -382v-40q0 -244 -132 -398q-133 -155 -363 -154q-218 0 -335 133q-116 134 -116 360v151h648v6q-8 112 -68 180q-60 69 -179 69q-189 0 -343 -83l-67 221q77 30 201 58q119 28 240 28zM561 205q85 0 134 59t59 162v15h-358v-32
q0 -204 165 -204zM947 1483v-204h-266v204h266zM447 1483v-204h-266v204h266z" />
    <glyph glyph-name="uni04DC" unicode="&#x4dc;" horiz-adv-x="1870" 
d="M1500 0l-322 608h-92v-608h-291v608h-97l-328 -608h-364l459 785l-435 671h361l330 -595h74v595h291v-595h70l323 595h360l-429 -670l453 -786h-363zM1317 1805v-204h-266v204h266zM817 1805v-204h-266v204h266z" />
    <glyph glyph-name="uni04DD" unicode="&#x4dd;" horiz-adv-x="1661" 
d="M1269 0l-214 408h-81v-408h-290v408h-79l-214 -408h-374l354 586l-336 496h368l223 -408h58v408h290v-408h61l222 408h369l-337 -497l353 -585h-373zM1213 1462v-204h-266v204h266zM713 1462v-204h-266v204h266z" />
    <glyph glyph-name="uni04DE" unicode="&#x4de;" horiz-adv-x="1345" 
d="M931 749q114 -42 175.5 -130t61.5 -212q0 -104 -47.5 -187.5t-126.5 -135t-176.5 -78.5t-202.5 -27q-111 0 -241.5 29t-199.5 79l87 226q40 -39 132 -74.5t222 -35.5q100 0 181 58.5t81 149.5q0 111 -68 168t-183 57h-154v220h154q105 0 166.5 54.5t61.5 151.5
q0 84 -72.5 137t-166.5 53q-40 0 -76 -3.5t-62 -8t-53.5 -13.5t-43 -15t-36.5 -18.5t-28 -17t-24.5 -17.5t-19.5 -14l-100 221q61 52 191 81.5t252 29.5q244 0 387.5 -108.5t143.5 -304.5q0 -99 -58 -183t-157 -132zM1051 1826v-204h-266v204h266zM551 1826v-204h-266v204
h266z" />
    <glyph glyph-name="uni04DF" unicode="&#x4df;" horiz-adv-x="1140" 
d="M780 556q85 -32 131.5 -98t46.5 -159q0 -103 -62 -177.5t-153.5 -108.5t-198.5 -34q-84 0 -181.5 21.5t-149.5 59.5l85 220q88 -88 246 -88q72 0 113.5 32t41.5 92q0 137 -147 137h-115v183h115q58 0 94 33.5t36 102.5q0 63 -34.5 90t-103.5 27q-143 0 -257 -80l-75 209
q46 39 143.5 61t188.5 22q183 0 290 -81.5t107 -228.5q0 -73 -43.5 -136.5t-117.5 -98.5zM950 1482v-204h-266v204h266zM450 1482v-204h-266v204h266z" />
    <glyph glyph-name="uni04E0" unicode="&#x4e0;" horiz-adv-x="1186" 
d="M414 866l337 359l-3 6h-604v225h946l1 -183l-365 -408q190 -31 292.5 -148.5t102.5 -308.5q0 -201 -148 -315q-147 -114 -384 -114q-208 0 -357 107q-148 106 -143 312l2 6h283q0 -85 59 -144q59 -57 156 -57q111 0 175 58q65 59 65 150q0 142 -69 207.5t-211 65.5h-135
v182z" />
    <glyph glyph-name="uni04E1" unicode="&#x4e1;" horiz-adv-x="1186" 
d="M414 491l331 360l-2 5h-606v226h953l1 -184l-361 -408q189 -32 290 -150t101 -307q0 -199 -148 -313q-146 -115 -384 -115q-209 0 -357 108q-148 106 -143 310l2 6h283q0 -84 59 -141q58 -58 156 -58q110 0 175 59t65 147q0 142 -69 208t-211 66h-135v181z" />
    <glyph glyph-name="uni04E2" unicode="&#x4e2;" horiz-adv-x="1431" 
d="M421 483l588 973h292v-1456h-292v973l-6 1l-588 -974h-291v1456h291v-972zM1080 1778v-165h-731v165h731z" />
    <glyph glyph-name="uni04E3" unicode="&#x4e3;" 
d="M405 423l353 659h291v-1082h-291v660l-6 1l-353 -661h-292v1082h292v-658zM945 1436v-165h-731v165h731z" />
    <glyph glyph-name="uni04E4" unicode="&#x4e4;" horiz-adv-x="1431" 
d="M421 483l588 973h292v-1456h-292v973l-6 1l-588 -974h-291v1456h291v-972zM1096 1805v-204h-266v204h266zM596 1805v-204h-266v204h266z" />
    <glyph glyph-name="uni04E5" unicode="&#x4e5;" 
d="M405 423l353 659h291v-1082h-291v660l-6 1l-353 -661h-292v1082h292v-658zM961 1462v-204h-266v204h266zM461 1462v-204h-266v204h266z" />
    <glyph glyph-name="uni04E6" unicode="&#x4e6;" horiz-adv-x="1409" 
d="M1312 859v-262q0 -323 -146 -471q-146 -147 -463 -147q-321 0 -464 147q-142 146 -142 471v262q0 327 141 472q143 146 463 146q323 0 467 -150q144 -149 144 -468zM1021 597v264q0 198 -73 292q-72 96 -247 96q-165 0 -239 -94t-74 -294v-264q0 -209 76 -300t239 -91
q170 0 244 89t74 302zM1088 1826v-204h-266v204h266zM588 1826v-204h-266v204h266z" />
    <glyph glyph-name="uni04E7" unicode="&#x4e7;" 
d="M67 530v21q0 293 135 422t374 129t376 -132q136 -132 136 -419v-21q0 -290 -136 -420q-136 -131 -374 -131q-239 0 -376 131q-135 130 -135 420zM358 551v-21q0 -179 52 -253q53 -74 168 -74q112 0 165 74q53 76 53 253v21q0 184 -53 255t-167 71q-113 0 -166 -71
q-52 -70 -52 -255zM960 1483v-204h-266v204h266zM460 1483v-204h-266v204h266z" />
    <glyph glyph-name="uni04E8" unicode="&#x4e8;" horiz-adv-x="1410" 
d="M1312 859v-262q0 -269 -169 -444q-169 -174 -440 -174q-270 0 -438 175q-168 176 -168 443v262q0 266 167 442q168 176 437 176q271 0 441 -176t170 -442zM889 754q34 0 71 19.5t61 51.5v36q0 170 -85 279t-235 109q-149 0 -231 -109t-82 -279v-75q64 83 172 83
q67 0 167 -58q101 -57 162 -57zM1021 597v21q-65 -65 -163 -65q-84 0 -175 58t-153 58q-43 0 -86 -32q-41 -31 -55 -76q8 -160 90 -257q83 -98 224 -98q150 0 234 109t84 282z" />
    <glyph glyph-name="uni04E9" unicode="&#x4e9;" 
d="M67 530v21q0 241 135 396t374 155q240 0 376 -154t136 -397v-21q0 -244 -136 -398q-135 -153 -374 -153q-240 0 -376 153q-135 154 -135 398zM712 567q25 0 46.5 17t32.5 46q-13 116 -67 181.5t-148 65.5q-106 0 -159 -80q-51 -80 -50 -201l4 -4q13 24 42 40t62 16
q47 0 120 -41q73 -40 117 -40zM451 493q-30 0 -53.5 -24t-29.5 -59q37 -207 210 -207q94 0 147 66t58 178l-3 5q-28 -41 -91 -41q-59 0 -127 41t-111 41z" />
    <glyph glyph-name="uni04EA" unicode="&#x4ea;" horiz-adv-x="1410" 
d="M1312 859v-262q0 -269 -169 -444q-169 -174 -440 -174q-270 0 -438 175q-168 176 -168 443v262q0 266 167 442q168 176 437 176q271 0 441 -176t170 -442zM889 754q34 0 71 19.5t61 51.5v36q0 170 -85 279t-235 109q-149 0 -231 -109t-82 -279v-75q64 83 172 83
q67 0 167 -58q101 -57 162 -57zM1021 597v21q-65 -65 -163 -65q-84 0 -175 58t-153 58q-43 0 -86 -32q-41 -31 -55 -76q8 -160 90 -257q83 -98 224 -98q150 0 234 109t84 282zM1111 1800v-204h-266v204h266zM611 1800v-204h-266v204h266z" />
    <glyph glyph-name="uni04EB" unicode="&#x4eb;" 
d="M67 530v21q0 241 135 396t374 155q240 0 376 -154t136 -397v-21q0 -244 -136 -398q-135 -153 -374 -153q-240 0 -376 153q-135 154 -135 398zM712 567q25 0 46.5 17t32.5 46q-13 116 -67 181.5t-148 65.5q-106 0 -159 -80q-51 -80 -50 -201l4 -4q13 24 42 40t62 16
q47 0 120 -41q73 -40 117 -40zM451 493q-30 0 -53.5 -24t-29.5 -59q37 -207 210 -207q94 0 147 66t58 178l-3 5q-28 -41 -91 -41q-59 0 -127 41t-111 41zM942 1511v-204h-266v204h266zM442 1511v-204h-266v204h266z" />
    <glyph glyph-name="uni04EC" unicode="&#x4ec;" horiz-adv-x="1288" 
d="M378 974h-284l-2 6q-4 232 137 365q142 133 400 133q253 0 407 -169q155 -170 155 -436v-289q0 -267 -155 -436q-154 -168 -407 -168q-258 0 -401 128q-142 128 -137 367l2 6h283q0 -142 61 -209.5t192 -67.5q128 0 199 104q70 104 70 274v43h-447v225h447v23
q0 168 -70 274t-199 106q-130 0 -190.5 -68t-60.5 -211zM1026 1827v-204h-266v204h266zM526 1827v-204h-266v204h266z" />
    <glyph glyph-name="uni04ED" unicode="&#x4ed;" horiz-adv-x="1064" 
d="M505 877q-77 0 -123 -45.5t-46 -120.5h-266l-2 6q-5 164 122 274q128 111 315 111q237 0 369 -155q132 -154 132 -392v-30q0 -237 -132 -392q-132 -154 -368 -154q-199 0 -321 113q-121 114 -117 301l2 6h266q0 -85 45 -141q45 -55 125 -55q96 0 144 69q50 71 57 181
l-3 5h-281v175h280l2 5q-7 106 -57 172q-48 67 -143 67zM918 1483v-204h-266v204h266zM418 1483v-204h-266v204h266z" />
    <glyph glyph-name="uni04EE" unicode="&#x4ee;" horiz-adv-x="1310" 
d="M339 1456l298 -647l26 -88l6 -1l306 736h309l-531 -1180q-63 -140 -152 -219q-89 -78 -249 -78q-58 0 -107 11q-47 10 -108 30l34 209q92 -26 149 -26q79 0 124 34.5t71 106.5l22 55l-513 1057h315zM1021 1778v-165h-731v165h731z" />
    <glyph glyph-name="uni04EF" unicode="&#x4ef;" horiz-adv-x="1046" 
d="M319 1082l183 -628l12 -60h6l207 688h314l-439 -1244q-47 -117 -125 -195q-80 -80 -237 -80q-33 0 -150 9l8 229q64 -8 86 -8q122 0 171 124l34 84l-384 1081h314zM890 1436v-165h-731v165h731z" />
    <glyph glyph-name="uni04F0" unicode="&#x4f0;" horiz-adv-x="1310" 
d="M339 1456l298 -647l26 -88l6 -1l306 736h309l-531 -1180q-63 -140 -152 -219q-89 -78 -249 -78q-58 0 -107 11q-47 10 -108 30l34 209q92 -26 149 -26q79 0 124 34.5t71 106.5l22 55l-513 1057h315zM1037 1805v-204h-266v204h266zM537 1805v-204h-266v204h266z" />
    <glyph glyph-name="uni04F1" unicode="&#x4f1;" horiz-adv-x="1046" 
d="M319 1082l183 -628l12 -60h6l207 688h314l-439 -1244q-47 -117 -125 -195q-80 -80 -237 -80q-33 0 -150 9l8 229q64 -8 86 -8q122 0 171 124l34 84l-384 1081h314zM907 1462v-204h-266v204h266zM407 1462v-204h-266v204h266z" />
    <glyph glyph-name="uni04F2" unicode="&#x4f2;" horiz-adv-x="1310" 
d="M339 1456l298 -647l26 -88l6 -1l306 736h309l-531 -1180q-63 -140 -152 -219q-89 -78 -249 -78q-58 0 -107 11q-47 10 -108 30l34 209q92 -26 149 -26q79 0 124 34.5t71 106.5l22 55l-513 1057h315zM691 1606l240 261h279l2 -6l-285 -260h-234zM345 1601l198 266h275
l2 -5l-240 -261h-235z" />
    <glyph glyph-name="uni04F3" unicode="&#x4f3;" horiz-adv-x="1046" 
d="M319 1082l183 -628l12 -60h6l207 688h314l-439 -1244q-47 -117 -125 -195q-80 -80 -237 -80q-33 0 -150 9l8 229q64 -8 86 -8q122 0 171 124l34 84l-384 1081h314zM560 1263l240 261h279l2 -6l-285 -260h-234zM214 1258l198 266h275l2 -5l-240 -261h-235z" />
    <glyph glyph-name="uni04F4" unicode="&#x4f4;" horiz-adv-x="1420" 
d="M995 1456h293v-1456h-293v561q-63 -16 -148 -25q-88 -8 -147 -8q-267 0 -415 116q-146 116 -146 359v453h292v-453q0 -142 63 -196q65 -54 206 -54q57 0 145 8q88 9 150 25v670zM1140 1805v-204h-266v204h266zM640 1805v-204h-266v204h266z" />
    <glyph glyph-name="uni04F5" unicode="&#x4f5;" horiz-adv-x="1147" 
d="M1041 1082v-1082h-292v343q-67 -15 -148 -15q-243 0 -370.5 103.5t-127.5 310.5v340h292v-340q0 -107 47 -148t159 -41q74 0 148 16v513h292zM953 1462v-204h-266v204h266zM453 1462v-204h-266v204h266z" />
    <glyph glyph-name="uni04F6" unicode="&#x4f6;" horiz-adv-x="1137" 
d="M1081 1456v-225h-657v-1231h-292v1456h949zM607 234v-591h-292v591h292z" />
    <glyph glyph-name="uni04F7" unicode="&#x4f7;" horiz-adv-x="855" 
d="M846 1082v-226h-447v-856h-292v1082h739zM539 234v-591h-292v591h292z" />
    <glyph glyph-name="uni04F8" unicode="&#x4f8;" horiz-adv-x="1777" 
d="M424 1456v-512h250q250 0 399 -131q148 -130 148 -339q0 -210 -149 -342q-148 -132 -398 -132h-542v1456h292zM674 719h-250v-495h250q123 0 189 73q67 73 67 179q0 102 -67 172q-66 71 -189 71zM1644 1456v-1456h-292v1456h292zM1271 1805v-204h-266v204h266zM771 1805
v-204h-266v204h266z" />
    <glyph glyph-name="uni04F9" unicode="&#x4f9;" horiz-adv-x="1703" 
d="M442 1082v-350h203q218 0 343 -101t125 -263q0 -165 -125 -267q-125 -101 -343 -101h-496v1082h293zM645 508h-203v-285h203q87 0 132 39t45 104q0 63 -45.5 102.5t-131.5 39.5zM1507 1082v-1082h-292v1082h292zM1231 1462v-204h-266v204h266zM731 1462v-204h-266v204
h266z" />
    <glyph glyph-name="uni04FA" unicode="&#x4fa;" horiz-adv-x="1231" 
d="M1174 1456v-225h-657v-1231h-292v1456h949zM745 892v-181h-671v181h671zM396 247h293v-287q0 -189 -101 -293t-281 -104q-74 0 -143 17l14 224q50 -12 98 -12q58 0 89 43t31 125v287z" />
    <glyph glyph-name="uni04FB" unicode="&#x4fb;" horiz-adv-x="864" 
d="M944 1082v-226h-447v-856h-292v1082h739zM746 717v-181h-671v181h671zM380 247h293v-287q0 -189 -101 -293t-281 -104q-74 0 -143 17l14 224q50 -12 98 -12q58 0 89 43t31 125v287z" />
    <glyph glyph-name="uni04FC" unicode="&#x4fc;" horiz-adv-x="1303" 
d="M380 1456l269 -516l273 516h340l-432 -722l457 -734h-353l-281 525l-281 -525h-341l443 734l-432 722h338zM1131 247h293v-287q0 -189 -101 -293t-281 -104q-74 0 -143 17l14 224q50 -12 98 -12q58 0 89 43t31 125v287z" />
    <glyph glyph-name="uni04FD" unicode="&#x4fd;" horiz-adv-x="1046" 
d="M357 1082l162 -344h6l166 344h330l-326 -535l337 -547h-329l-177 359l-177 -359h-330l337 547l-327 535h328zM890 247h293v-287q0 -189 -101 -293t-281 -104q-74 0 -143 17l14 224q50 -12 98 -12q58 0 89 43t31 125v287z" />
    <glyph glyph-name="uni04FE" unicode="&#x4fe;" horiz-adv-x="1303" 
d="M994 837v-181h-116l409 -656h-353l-281 525l-281 -525h-341l396 656h-104v181h89l-370 619h338l269 -516l273 516h340l-371 -619h103z" />
    <glyph glyph-name="uni04FF" unicode="&#x4ff;" horiz-adv-x="1046" 
d="M865 646v-181h-120l287 -465h-329l-177 359l-177 -359h-330l286 465h-111v181h101l-266 436h328l162 -344h6l166 344h330l-266 -436h110z" />
    <glyph glyph-name="uni0500" unicode="&#x500;" horiz-adv-x="1283" 
d="M622 944h251v512h292v-1456h-543q-250 0 -399 132q-147 132 -147 342q0 208 147 339q149 131 399 131zM622 224h251v495h-251q-123 0 -189 -71q-65 -71 -65 -172q0 -105 65 -179q66 -73 189 -73z" />
    <glyph glyph-name="uni0501" unicode="&#x501;" 
d="M67 511v21q0 255 110 413q111 157 312 157q155 0 260 -131v589h293v-1560h-247l-19 116q-141 -137 -289 -137q-199 0 -310 146q-110 146 -110 386zM358 532v-21q0 -305 204 -305q64 0 110 25q40 22 77 46v515q-29 24 -77 54q-47 29 -108 29q-107 0 -157 -95
q-49 -94 -49 -248z" />
    <glyph glyph-name="uni0502" unicode="&#x502;" horiz-adv-x="1848" 
d="M1272 0h-611q-251 0 -399 132t-148 342q0 209 148 339q149 131 399 131h251v512h291v-1231h69q90 1 140 53t54 147q2 160 -60 320h285q37 -111 53 -182.5t14 -137.5q-4 -205 -144 -315t-342 -110zM661 224h251v495h-251q-124 0 -190 -71q-65 -71 -65 -172q0 -106 66 -179
t189 -73z" />
    <glyph glyph-name="uni0503" unicode="&#x503;" horiz-adv-x="1748" 
d="M90 511v21q0 256 111 413t312 157q147 0 244 -115v573h292v-1188q-1 -75 31.5 -120.5t87.5 -45.5q97 1 151 86t58 237q2 194 -60 403h285q35 -128 51 -220q18 -89 16 -183q-5 -265 -147 -408q-142 -142 -354 -142q-269 -5 -361 180q-106 -180 -296 -180q-200 0 -311 146
q-110 146 -110 386zM757 372v418q-62 85 -170 85q-106 0 -156 -95q-49 -94 -49 -248v-21q0 -305 203 -305q118 0 180 89q-8 38 -8 77z" />
    <glyph glyph-name="uni0504" unicode="&#x504;" horiz-adv-x="1615" 
d="M651 316v66q0 98 -56 159q-55 61 -149 61h-237v227h180q140 0 203 51.5t63 161.5q0 186 -246 186h-344v228h344q261 0 399.5 -106.5t138.5 -309.5q0 -231 -273 -331q269 -66 269 -325v-68q-1 -49 21.5 -79.5t61.5 -30.5q92 1 143.5 86t55.5 237q2 194 -60 403h285
q34 -132 51 -224q17 -93 16 -179q-5 -266 -149 -408q-143 -142 -357 -142q-344 -6 -360 337z" />
    <glyph glyph-name="uni0505" unicode="&#x505;" horiz-adv-x="1316" 
d="M791 303v-50q-2 -93 68 -93q68 1 106 68.5t42 190.5q2 155 -61 319h285q33 -98 52 -175q18 -72 16 -144q-5 -216 -126 -331t-299 -115q-185 -3 -275 54.5t-100 186.5v75q0 51 -28.5 78.5t-81.5 27.5h-257l-2 213h183q155 0 155 116q0 62 -39 97t-116 35h-262l-6 226h268
q213 0 330 -85t117 -238q0 -155 -162 -228q193 -47 193 -228z" />
    <glyph glyph-name="uni0506" unicode="&#x506;" horiz-adv-x="1203" 
d="M1079 248v-237l-159 -315h-195l65 304h-103q-40 31 -52 106q-11 77 -11 143v104q0 108 -60 169t-168 61h-266l-2 225h243q243 0 243 205q0 102 -61.5 160t-176.5 58h-304l-6 225h310q248 0 389 -114q141 -112 141 -316q0 -223 -232 -325q241 -72 241 -346v-107h164z" />
    <glyph glyph-name="uni0507" unicode="&#x507;" horiz-adv-x="1149" 
d="M1063 228v-237l-159 -315h-195l70 324h-145q-18 17 -23 65q-4 43 -4 94v75q0 76 -47 116.5t-136 40.5h-260l-2 196h254q83 0 129.5 34.5t46.5 94.5q0 62 -47.5 102.5t-128.5 40.5h-298l-8 223h306q214 0 342 -93q127 -93 127 -252q0 -158 -163 -242q176 -64 176 -260v-7
h165z" />
    <glyph glyph-name="uni0508" unicode="&#x508;" horiz-adv-x="1978" 
d="M1013 372v856h-381v-460q0 -398 -119 -583t-395 -185h-53v227h41q124 0 179 126t55 415v688h964v-1084q-1 -75 31.5 -120.5t88.5 -45.5q96 1 150.5 86t58.5 237q1 189 -61 403h285q37 -136 53 -226.5t14 -176.5q-4 -265 -147 -408q-142 -142 -353 -142q-392 -6 -411 393z
" />
    <glyph glyph-name="uni0509" unicode="&#x509;" horiz-adv-x="1737" 
d="M767 372v481h-204v-231q0 -319 -100 -470q-99 -152 -331 -152h-72l4 242l41 1q91 0 128 88q39 89 39 291v460h787v-710q-1 -75 35.5 -120.5t99.5 -45.5q74 1 116 75t46 207q1 184 -60 381h285q32 -114 52 -209q18 -83 16 -172q-5 -247 -134 -378q-131 -131 -321 -131
q-408 -6 -427 393z" />
    <glyph glyph-name="uni050A" unicode="&#x50a;" horiz-adv-x="2038" 
d="M1015 1456h292v-1084q-1 -75 31.5 -120.5t87.5 -45.5q97 1 151.5 86t58.5 237q1 189 -61 403h285q35 -128 51 -220q18 -89 16 -183q-5 -265 -147 -408q-142 -142 -354 -142q-392 -6 -411 393v233h-589v-605h-293v1456h293v-626h589v626z" />
    <glyph glyph-name="uni050B" unicode="&#x50b;" horiz-adv-x="1690" 
d="M751 372v57h-367v-429h-292v1082h292v-426h367v426h292v-710q-2 -74 34.5 -120t99.5 -46q75 1 117.5 75t46.5 207q2 183 -60 381h284q35 -127 51 -211q17 -90 16 -170q-5 -247 -134 -378q-131 -131 -321 -131q-407 -6 -426 393z" />
    <glyph glyph-name="uni050C" unicode="&#x50c;" horiz-adv-x="1296" 
d="M701 -21q-278 0 -452 174q-174 175 -174 444v262q0 267 174 443q174 175 452 175q222 0 359 -89l-63 -207q-138 68 -296 68q-153 0 -244 -112q-90 -113 -90 -276v-264q0 -167 90 -279q91 -112 244 -112q111 1 173 62t66 170q1 147 -50 348h284q38 -170 48 -220
q11 -53 9 -128q-4 -223 -155 -341t-375 -118z" />
    <glyph glyph-name="uni050D" unicode="&#x50d;" horiz-adv-x="1085" 
d="M612 206q67 1 95.5 29.5t31.5 91.5q0 107 -19 210h284q27 -138 27 -210q-5 -172 -119 -260q-115 -88 -300 -88q-252 0 -397 156q-145 157 -145 385v42q0 225 140 383q139 157 381 157q182 0 283 -66l-46 -220q-102 58 -237 58q-113 0 -171 -94q-58 -92 -58 -218v-42
q0 -127 62 -221q63 -93 188 -93z" />
    <glyph glyph-name="uni050E" unicode="&#x50e;" horiz-adv-x="1446" 
d="M465 372v856h-433v228h1152v-228h-427v-856q-1 -75 31.5 -120.5t87.5 -45.5q97 1 151.5 86t58.5 237q1 189 -61 403h285q37 -136 53 -226.5t14 -176.5q-5 -265 -147 -408q-142 -142 -354 -142q-392 -6 -411 393z" />
    <glyph glyph-name="uni050F" unicode="&#x50f;" horiz-adv-x="1305" 
d="M360 372v484h-294v226h907v-226h-321v-484q-1 -75 35.5 -120.5t98.5 -45.5q75 1 117.5 58.5t46.5 160.5q2 144 -60 292h285q38 -105 54 -169t14 -123q-5 -215 -136 -331q-130 -115 -321 -115q-407 -6 -426 393z" />
    <glyph glyph-name="uni0510" unicode="&#x510;" horiz-adv-x="1345" 
d="M409 749q-99 48 -157 132t-58 183q0 196 143.5 304.5t387.5 108.5q122 0 252 -29.5t191 -81.5l-100 -221q-2 1 -19.5 14t-24.5 17.5t-28 17t-36.5 18.5t-43 15t-53.5 13.5t-62 8t-76 3.5q-94 0 -166.5 -53t-72.5 -137q0 -97 61.5 -151.5t166.5 -54.5h154v-220h-154
q-115 0 -183 -57t-68 -168q0 -91 81 -149.5t181 -58.5q130 0 222 35.5t132 74.5l87 -226q-69 -50 -199.5 -79t-241.5 -29q-105 0 -202.5 27t-176.5 78.5t-126.5 135t-47.5 187.5q0 124 61.5 212t175.5 130z" />
    <glyph glyph-name="uni0511" unicode="&#x511;" horiz-adv-x="1140" 
d="M369 556q-83 35 -131 98.5t-48 136.5q0 147 119.5 228.5t322.5 81.5q102 0 211 -22t160 -61l-84 -209q-126 80 -287 80q-77 0 -115 -27t-38 -90q0 -70 40 -103t105 -33h128v-183h-128q-164 0 -164 -137q0 -60 46.5 -92t125.5 -32q174 0 275 88l94 -220
q-58 -38 -166.5 -59.5t-202.5 -21.5q-119 0 -221 34t-171 108.5t-69 177.5q0 93 51.5 159t146.5 98z" />
    </font>
</defs>
</svg>
