<?xml version="1.0" standalone="no"?>
<!DOCTYPE svg PUBLIC "-//W3C//DTD SVG 1.1//EN" "http://www.w3.org/Graphics/SVG/1.1/DTD/svg11.dtd" >
<svg xmlns="http://www.w3.org/2000/svg">
<metadata>
Created by FontPrep 20130207 at Wed May 11 11:29:06 2016
 By MADDILLA
(C)2007 House Industries/Brand Design Co., Inc. All Rights Reserved.
</metadata>
<defs>
<font id="e5bebe314e929cdf22abdf4bbfb62856" horiz-adv-x='1024' >
  <font-face 
    font-family="Neutraface2Text-Bold"
    font-weight="700"
    font-stretch="normal"
    units-per-em="2048"
    panose-1="2 11 8 3 2 2 2 2 1 2"
    ascent="1597"
    descent="-451"
    x-height="872"
    cap-height="1393"
    bbox="-150 -580 2750 2009"
    underline-thickness="40"
    underline-position="-231"
    unicode-range="U+0020-FB04"
  />
<missing-glyph 
 />
    <glyph glyph-name="ff" unicode="ff" horiz-adv-x="1372" 
d="M209 0v643h-146v229h146v252q0 340 311 340q133 0 228 -82l-115 -198q-29 33 -76 33q-72 0 -72 -89v-256h314v293q0 340 321 340q174 0 269 -110l-150 -185q-39 47 -88 47q-76 0 -76 -88v-297h236v-229h-236v-643h-276v643h-314v-643h-276z" />
    <glyph glyph-name="fi" unicode="fi" horiz-adv-x="1193" 
d="M209 0v643h-146v229h146v293q0 340 321 340q137 0 230 -80l-129 -194q-31 27 -74 26q-72 0 -72 -88v-297h590v-872h-276v643h-314v-643h-276zM938 1018q-72 0 -124 49t-52 124t52 124t124 49t123 -49t51 -124t-51 -124t-123 -49z" />
    <glyph glyph-name="fl" unicode="fl" horiz-adv-x="1193" 
d="M799 0v1479h276v-1479h-276zM209 0v643h-146v229h146v293q0 340 309 340q131 0 213 -75l-115 -199q-31 27 -67 26q-63 0 -64 -88v-297h207v-229h-207v-643h-276z" />
    <glyph glyph-name="ffi" unicode="ffi" horiz-adv-x="1783" 
d="M209 0v643h-146v229h146v252q0 340 311 340q133 0 228 -82l-115 -198q-29 33 -76 33q-72 0 -72 -89v-256h314v293q0 340 321 340q137 0 230 -80l-129 -194q-31 27 -74 26q-72 0 -72 -88v-297h590v-872h-276v643h-314v-643h-276v643h-314v-643h-276zM1528 1018
q-72 0 -124 49t-52 124t52 124t124 49t123 -49t51 -124t-51 -124t-123 -49z" />
    <glyph glyph-name="ffl" unicode="ffl" horiz-adv-x="1783" 
d="M1389 0v1479h276v-1479h-276zM209 0v643h-146v229h146v252q0 340 311 340q133 0 228 -82l-115 -198q-29 33 -76 33q-72 0 -72 -89v-256h314v293q0 340 309 340q131 0 213 -75l-115 -199q-31 27 -67 26q-63 0 -64 -88v-297h207v-229h-207v-643h-276v643h-314v-643h-276z
" />
    <glyph glyph-name="f_b" unicode="fb" horiz-adv-x="1818" 
d="M1263 223q89 1 140 57t51 155t-51 155t-140 57q-89 0 -143 -56q-54 -55 -53 -155q-1 -100 53 -156t143 -57zM1343 -18q-197 0 -274 145l6 -127h-276v1479h276v-729q95 141 267 141t284 -127t113 -325q0 -197 -116 -327t-280 -130zM209 0v643h-146v229h146v293
q0 340 309 340q131 0 213 -75l-115 -199q-31 27 -67 26q-63 0 -64 -88v-297h207v-229h-207v-643h-276z" />
    <glyph glyph-name="f_f_b" unicode="ffb" horiz-adv-x="2408" 
d="M1657 436q0 -100 53 -156t142 -57q88 1 140 57t52 155t-51 155t-141 57q-90 0 -142 -56q-53 -55 -53 -155zM1933 -18q-197 0 -274 145l6 -127h-276v1479h276v-729q94 141 266 141t285 -127t113 -325q0 -197 -116 -327t-280 -130zM209 0v643h-146v229h146v252
q0 340 311 340q133 0 228 -82l-115 -198q-29 33 -76 33q-72 0 -72 -89v-256h314v293q0 340 309 340q131 0 213 -75l-115 -199q-31 27 -67 26q-63 0 -64 -88v-297h207v-229h-207v-643h-276v643h-314v-643h-276z" />
    <glyph glyph-name="f_f_f" unicode="fff" horiz-adv-x="1961" 
d="M1389 643h-314v-643h-276v643h-314v-643h-276v643h-146v229h146v252q0 340 311 340q133 0 228 -82l-115 -198q-29 33 -76 33q-72 0 -72 -89v-256h314v273q0 340 311 340q133 0 227 -82l-114 -199q-29 33 -76 33q-72 0 -72 -88v-277h314v293q0 340 321 340q174 0 268 -110
l-149 -185q-39 47 -88 47q-76 0 -76 -88v-297h236v-229h-236v-643h-276v643z" />
    <glyph glyph-name="f_f_f_i" unicode="fffi" horiz-adv-x="2373" 
d="M799 643h-314v-643h-276v643h-146v229h146v252q0 340 311 340q133 0 228 -82l-115 -198q-29 33 -76 33q-72 0 -72 -89v-256h314v273q0 340 311 340q133 0 227 -82l-114 -199q-29 33 -76 33q-72 0 -72 -88v-277h314v293q0 340 321 340q137 0 229 -80l-129 -194
q-31 27 -73 26q-72 0 -72 -88v-297h590v-872h-277v643h-313v-643h-276v643h-314v-643h-276v643zM2118 1018q-72 0 -124 49t-52 124t52 124t124 49t123 -49t51 -124t-51 -124t-123 -49z" />
    <glyph glyph-name="f_f_f_l" unicode="fffl" horiz-adv-x="2373" 
d="M1978 0v1479h277v-1479h-277zM799 643h-314v-643h-276v643h-146v229h146v252q0 340 311 340q133 0 228 -82l-115 -198q-29 33 -76 33q-72 0 -72 -89v-256h314v273q0 340 311 340q133 0 227 -82l-114 -199q-29 33 -76 33q-72 0 -72 -88v-277h314v293q0 340 309 340
q131 0 213 -75l-115 -199q-31 27 -67 26q-63 0 -64 -88v-297h207v-229h-207v-643h-276v643h-314v-643h-276v643z" />
    <glyph glyph-name="f_f_h" unicode="ffh" horiz-adv-x="2365" 
d="M1389 0v1479h276v-744q82 156 270 156q145 -1 237 -103t91 -284v-504h-276v485q0 154 -146 154q-84 0 -130 -45t-46 -127v-467h-276zM209 0v643h-146v229h146v252q0 340 311 340q133 0 228 -82l-115 -198q-29 33 -76 33q-72 0 -72 -89v-256h314v293q0 340 309 340
q131 0 213 -75l-115 -199q-31 27 -67 26q-63 0 -64 -88v-297h207v-229h-207v-643h-276v643h-314v-643h-276z" />
    <glyph glyph-name="f_f_iacute" unicode="ff&#xed;" horiz-adv-x="1783" 
d="M209 0v643h-146v229h146v252q0 340 311 340q133 0 228 -82l-115 -198q-29 33 -76 33q-72 0 -72 -89v-256h314v293q0 340 321 340q137 0 230 -80l-129 -194q-31 27 -74 26q-72 0 -72 -88v-297h590v-872h-276v643h-314v-643h-276v643h-314v-643h-276zM1413 1024l107 385
h315l-213 -385h-209z" />
    <glyph glyph-name="f_f_icircumflex" unicode="ff&#xee;" horiz-adv-x="1783" 
d="M209 0v643h-146v229h146v252q0 340 311 340q133 0 228 -82l-115 -198q-29 33 -76 33q-72 0 -72 -89v-256h314v293q0 340 321 340q137 0 230 -80l-129 -194q-31 27 -74 26q-72 0 -72 -88v-297h590v-872h-276v643h-314v-643h-276v643h-314v-643h-276zM1188 1024l325 442h23
l326 -442h-222l-114 133l-117 -133h-221z" />
    <glyph glyph-name="f_f_idieresis" unicode="ff&#xef;" horiz-adv-x="1783" 
d="M209 0v643h-146v229h146v252q0 340 311 340q133 0 228 -82l-115 -198q-29 33 -76 33q-72 0 -72 -89v-256h314v293q0 340 321 340q129 0 213 -65l-137 -197q-16 14 -49 14q-72 0 -72 -88v-297h590v-872h-276v643h-314v-643h-276v643h-314v-643h-276zM1368 985
q-59 0 -104 44q-45 43 -45 103t45 104t104 44q60 0 106 -43t46 -104t-46 -105q-47 -43 -106 -43zM1890 1133q0 -61 -44 -105t-104 -43q-60 0 -107 43q-46 42 -46 104t46 105q47 43 107 43t104 -43t44 -104z" />
    <glyph glyph-name="f_f_j" unicode="ffj" horiz-adv-x="1783" 
d="M1352 -455q-72 0 -134 31t-98 74l137 164q37 -33 68 -33q63 0 64 69v793h-314v-643h-276v643h-314v-643h-276v643h-146v229h146v252q0 340 311 340q133 0 228 -82l-115 -198q-29 33 -76 33q-72 0 -72 -89v-256h314v293q0 340 321 340q137 0 230 -80l-129 -194
q-31 27 -74 26q-72 0 -72 -88v-297h590v-1011q1 -152 -79 -234t-234 -82zM1528 1018q-72 0 -124 49t-52 124t52 124t124 49t123 -49t51 -124t-51 -124t-123 -49z" />
    <glyph glyph-name="f_f_k" unicode="ffk" horiz-adv-x="2291" 
d="M1665 0h-276v1479h276v-754q0 -92 -14 -188l286 335h308l-310 -356l342 -516h-321l-217 330l-74 -78v-252zM209 0v643h-146v229h146v252q0 340 311 340q133 0 228 -82l-115 -198q-29 33 -76 33q-72 0 -72 -89v-256h314v293q0 340 309 340q131 0 213 -75l-115 -199
q-31 27 -67 26q-63 0 -64 -88v-297h207v-229h-207v-643h-276v643h-314v-643h-276z" />
    <glyph glyph-name="f_f_t" unicode="fft" horiz-adv-x="1978" 
d="M1692 -23q-303 0 -303 351v315h-314v-643h-276v643h-314v-643h-276v643h-146v229h146v252q0 340 311 340q133 0 228 -82l-115 -198q-29 33 -76 33q-72 0 -72 -89v-256h314v293q0 340 321 340q137 0 230 -80l-129 -194q-31 27 -74 26q-72 0 -72 -88v-297h314v312h274v-312
h223v-229h-223v-324q0 -61 18 -83q19 -22 57 -23q38 0 93 37l104 -193q-98 -80 -243 -80z" />
    <glyph glyph-name="f_h" unicode="fh" horiz-adv-x="1775" 
d="M799 0v1479h276v-744q82 156 271 156q145 -1 236 -103t91 -284v-504h-276v485q0 154 -146 154q-84 0 -130 -45t-46 -127v-467h-276zM209 0v643h-146v229h146v293q0 340 309 340q131 0 213 -75l-115 -199q-31 27 -67 26q-63 0 -64 -88v-297h207v-229h-207v-643h-276z" />
    <glyph glyph-name="f_iacute" unicode="f&#xed;" horiz-adv-x="1193" 
d="M209 0v643h-146v229h146v293q0 340 321 340q137 0 230 -80l-129 -194q-31 27 -74 26q-72 0 -72 -88v-297h590v-872h-276v643h-314v-643h-276zM823 1024l107 385h315l-213 -385h-209z" />
    <glyph glyph-name="f_icircumflex" unicode="f&#xee;" horiz-adv-x="1193" 
d="M209 0v643h-146v229h146v293q0 340 321 340q137 0 230 -80l-129 -194q-31 27 -74 26q-72 0 -72 -88v-297h590v-872h-276v643h-314v-643h-276zM598 1024l326 442h22l326 -442h-221l-115 133l-117 -133h-221z" />
    <glyph glyph-name="f_idieresis" unicode="f&#xef;" horiz-adv-x="1193" 
d="M209 0v643h-146v229h146v293q0 340 321 340q129 0 213 -65l-137 -197q-16 14 -49 14q-72 0 -72 -88v-297h590v-872h-276v643h-314v-643h-276zM778 985q-59 0 -104 44q-45 43 -45 103t45 104t104 44q60 0 106 -43t46 -104t-46 -105q-47 -43 -106 -43zM1300 1133
q0 -61 -44 -105t-104 -43q-60 0 -106 43q-46 42 -46 104t46 105t106 43t104 -43t44 -104z" />
    <glyph glyph-name="f_j" unicode="fj" horiz-adv-x="1193" 
d="M762 -455q-72 0 -134 31t-98 74l138 164q37 -33 67 -33q63 0 64 69v793h-314v-643h-276v643h-146v229h146v293q0 340 321 340q137 0 230 -80l-129 -194q-31 27 -74 26q-72 0 -72 -88v-297h590v-1011q1 -152 -79 -234t-234 -82zM938 1018q-72 0 -124 49t-52 124t52 124
t124 49t123 -49t51 -124t-51 -124t-123 -49z" />
    <glyph glyph-name="f_k" unicode="fk" horiz-adv-x="1701" 
d="M1075 0h-276v1479h276v-754q0 -92 -14 -188l287 335h307l-309 -356l342 -516h-322l-217 330l-74 -78v-252zM209 0v643h-146v229h146v293q0 340 309 340q131 0 213 -75l-115 -199q-31 27 -67 26q-63 0 -64 -88v-297h207v-229h-207v-643h-276z" />
    <glyph glyph-name="f_t" unicode="ft" horiz-adv-x="1388" 
d="M1073 319q0 -106 72 -106q41 0 96 37l105 -193q-99 -80 -244 -80q-303 0 -303 351v315h-314v-643h-276v643h-146v229h146v293q0 340 321 340q137 0 230 -80l-129 -194q-31 27 -74 26q-72 0 -72 -88v-297h314v312h274v-312h223v-229h-223v-324z" />
    <glyph glyph-name=".notdef" 
 />
    <glyph glyph-name=".null" horiz-adv-x="0" 
 />
    <glyph glyph-name="nonmarkingreturn" horiz-adv-x="681" 
 />
    <glyph glyph-name="space" unicode=" " horiz-adv-x="452" 
 />
    <glyph glyph-name="exclam" unicode="!" horiz-adv-x="579" 
d="M291 -12q-72 0 -123 49t-51 124t51 124t122 49t122 -49t51 -124t-50 -124t-122 -49zM180 473l-45 920h309l-45 -920h-219z" />
    <glyph glyph-name="quotedbl" unicode="&#x22;" horiz-adv-x="835" 
d="M104 887l-30 506h295l-31 -506h-234zM498 887l-33 506h297l-31 -506h-233z" />
    <glyph glyph-name="numbersign" unicode="#" horiz-adv-x="1077" 
d="M444 707h154l39 153h-154zM66 498v209h161l39 153h-110v209h161l52 199h215l-52 -199h154l51 199h215l-49 -199h109v-209h-160l-39 -153h109v-209h-162l-51 -207h-215l51 207h-154l-51 -207h-215l51 207h-110z" />
    <glyph glyph-name="dollar" unicode="$" horiz-adv-x="1028" 
d="M340 793q0 -37 20 -60t86 -39v185q-106 -10 -106 -86zM709 291q0 80 -125 115v-209q125 14 125 94zM90 770q0 125 90 215t266 100v207h138v-211q199 -31 313 -180l-178 -135q-45 72 -135 100v-204q381 -88 381 -345q0 -313 -381 -333v-222h-138v224q-301 27 -417 250
l202 114q74 -127 215 -149v235q-356 84 -356 334z" />
    <glyph glyph-name="percent" unicode="%" horiz-adv-x="1751" 
d="M1366 188q43 0 75 32t32 83t-32 83t-75 32t-75 -32q-31 -32 -31 -83t32 -83t74 -32zM387 651q43 0 75 32t32 83t-32 83t-75 32t-75 -32t-32 -83t32 -83t75 -32zM1700 302q0 -138 -98 -229t-237 -91q-140 0 -238 91q-97 91 -97 229t98 230t238 92t236 -92q98 -92 98 -230z
M401 0l676 1069h273l-676 -1069h-273zM387 1087q139 0 237 -92t97 -230q1 -137 -97 -229t-238 -92t-238 92t-97 229q1 138 99 230t237 92z" />
    <glyph glyph-name="ampersand" unicode="&#x26;" horiz-adv-x="1423" 
d="M373 414q0 -184 241 -185q111 1 203 50l-293 362q-86 -47 -118 -100t-33 -127zM778 1087q0 47 -28 74q-29 27 -77 27t-80 -30t-32 -86t39 -105q39 -48 39 -49q139 78 139 169zM1042 739h258q0 -272 -137 -471l217 -268h-338l-69 86q-162 -104 -359 -104q-254 0 -397 114
t-143 295q0 145 74 236q75 90 247 176q-96 131 -96 273t100 238q99 96 267 95q168 0 265 -88t97 -236q0 -200 -254 -333l219 -273q49 115 49 260z" />
    <glyph glyph-name="quotesingle" unicode="'" horiz-adv-x="442" 
d="M104 887l-30 506h295l-31 -506h-234z" />
    <glyph glyph-name="parenleft" unicode="(" horiz-adv-x="704" 
d="M100 596q0 502 387 877l166 -134q-131 -157 -197 -333t-65 -410q0 -426 262 -743l-166 -134q-387 375 -387 877z" />
    <glyph glyph-name="parenright" unicode=")" horiz-adv-x="704" 
d="M604 596q0 -502 -387 -877l-166 134q131 157 197 333t65 410q0 426 -262 743l166 134q387 -375 387 -877z" />
    <glyph glyph-name="asterisk" unicode="*" horiz-adv-x="870" 
d="M313 737l60 228l-168 -168l-119 204l231 64l-231 63l119 205l168 -168l-60 228h242l-59 -228l168 168l120 -205l-237 -63l237 -64l-120 -204l-168 168l59 -228h-242z" />
    <glyph glyph-name="plus" unicode="+" horiz-adv-x="841" 
d="M297 199v225h-217v242h217v225h248v-225h217v-242h-217v-225h-248z" />
    <glyph glyph-name="comma" unicode="," horiz-adv-x="509" 
d="M82 166q0 72 51 120t122 48t122 -49t51 -117t-61 -180l-121 -224h-140l78 246q-102 47 -102 156z" />
    <glyph glyph-name="hyphen" unicode="-" horiz-adv-x="618" 
d="M74 373v245h471v-245h-471z" />
    <glyph glyph-name="period" unicode="." horiz-adv-x="509" 
d="M256 -12q-72 0 -123 49t-51 124t51 124t122 49t122 -49t51 -124t-50 -124t-122 -49z" />
    <glyph glyph-name="slash" unicode="/" horiz-adv-x="827" 
d="M-33 -262l572 1741h270l-571 -1741h-271z" />
    <glyph glyph-name="zero" unicode="0" horiz-adv-x="1280" 
d="M639 227q119 0 198 85q79 84 79 224t-78 223t-198 83t-198 -83t-78 -222t78 -225q78 -85 197 -85zM72 537q0 239 169 395t398 156t399 -158q170 -156 170 -394t-170 -396t-398 -158t-398 158t-170 397z" />
    <glyph glyph-name="one" unicode="1" horiz-adv-x="677" 
d="M258 0v840h-205v229h486v-1069h-281z" />
    <glyph glyph-name="two" unicode="2" horiz-adv-x="985" 
d="M43 0v25l408 432q77 79 101 107q72 80 71 145q0 65 -36 97t-93 32q-123 0 -179 -164l-258 69q37 162 155 253t300 91t290 -101t108 -253t-216 -381l-30 -33q-59 -61 -123 -94l28 2q29 2 63 5t50 4h238v-236h-877z" />
    <glyph glyph-name="three" unicode="3" horiz-adv-x="1073" 
d="M512 -211q-338 0 -479 287l239 125q63 -166 240 -166q86 0 143 56q57 57 57 153t-68 145q-69 49 -174 49t-179 -41l-21 25l248 348q27 39 64 70l10 10q-66 -10 -125 -10h-326v229h844v-22l-264 -363l-55 -61q143 -29 241 -127q99 -98 99 -269t-129 -305t-365 -133z" />
    <glyph glyph-name="four" unicode="4" horiz-adv-x="1134" 
d="M643 213v180l10 127q-33 -45 -69 -84l-148 -155l-84 -74q49 6 107 6h184zM922 213h141v-213h-141v-193h-279v193h-592v188l842 893h29v-868z" />
    <glyph glyph-name="five" unicode="5" horiz-adv-x="1038" 
d="M492 -211q-176 0 -294 78t-165 192l241 121q55 -145 213 -145q88 0 139 51q50 51 50 134t-55 131t-160 48q-154 0 -279 -100l-24 10v760h743v-229h-514v-238q49 31 156 31q190 0 309 -119t119 -301t-123 -303t-356 -121z" />
    <glyph glyph-name="six" unicode="6" horiz-adv-x="1089" 
d="M545 225q86 -1 138 55t52 134t-52 133t-138 55t-138 -55q-53 -55 -53 -133t52 -134t139 -55zM627 811q167 0 279 -109t112 -297q0 -187 -135 -305t-335 -118t-338 120t-138 306q0 108 42 206t130 220l299 413h311l-252 -346q-53 -72 -125 -123q70 33 150 33z" />
    <glyph glyph-name="seven" unicode="7" horiz-adv-x="995" 
d="M59 840v229h883v-22l-539 -1240h-284l452 1033h-512z" />
    <glyph glyph-name="eight" unicode="8" horiz-adv-x="1105" 
d="M553 782q57 0 93 35t36 95t-36 94t-94 34t-96 -34t-38 -94t39 -95t96 -35zM553 227q88 0 141 45q54 45 54 124t-54 127t-141 48q-86 0 -140 -48q-55 -48 -55 -127t54 -124t141 -45zM1028 373q0 -173 -134 -283t-340 -110t-341 110t-135 283q0 104 57 184t160 123
q-152 78 -152 234t109 253q108 99 304 99t302 -98t106 -256t-149 -234q213 -92 213 -305z" />
    <glyph glyph-name="nine" unicode="9" horiz-adv-x="1089" 
d="M545 467q86 0 138 55t52 133t-52 133q-52 56 -138 56t-138 -56q-53 -56 -53 -133q0 -78 52 -133t139 -55zM475 256q-174 0 -289 110q-114 110 -114 298t135 306t336 118t338 -116t137 -310q0 -109 -41 -203t-131 -223l-301 -429h-312l254 361q41 59 123 121
q-70 -33 -135 -33z" />
    <glyph glyph-name="colon" unicode=":" horiz-adv-x="530" 
d="M266 -12q-72 0 -123 49t-51 124t51 124t122 49t122 -49t51 -124t-50 -124t-122 -49zM266 459q-72 0 -123 49t-51 124t51 124t122 49t122 -49t51 -124t-50 -124t-122 -49z" />
    <glyph glyph-name="semicolon" unicode=";" horiz-adv-x="530" 
d="M265 334q71 0 122 -49t51 -117t-61 -180l-121 -224h-139l78 246q-102 47 -103 156q0 72 51 120t122 48zM266 459q-72 0 -123 49t-51 124t51 124t122 49t122 -49t51 -124t-50 -124t-122 -49z" />
    <glyph glyph-name="less" unicode="&#x3c;" horiz-adv-x="733" 
d="M657 147l-610 342v21l610 338v-240l-219 -110l219 -111v-240z" />
    <glyph glyph-name="equal" unicode="=" horiz-adv-x="829" 
d="M74 236v235h682v-235h-682zM74 571v236h682v-236h-682z" />
    <glyph glyph-name="greater" unicode="&#x3e;" horiz-adv-x="733" 
d="M76 147v240l219 111l-219 110v240l610 -342v-21z" />
    <glyph glyph-name="question" unicode="?" horiz-adv-x="1050" 
d="M483 -12q-72 0 -123 49t-51 124t51 124t122 49t122 -49t51 -124t-50 -124t-122 -49zM356 473v326h95q119 0 174 55t55 131t-48 128t-126 52q-78 -1 -126 -33t-89 -100l-221 129q115 250 438 250q209 0 332 -123t123 -292q-1 -169 -91 -273t-258 -129v-121h-258z" />
    <glyph glyph-name="at" unicode="@" horiz-adv-x="1894" 
d="M797 389q-1 -84 41 -134t108 -50t106 53t40 131t-40 131t-106 53t-108 -50t-41 -134zM977 -424q-393 0 -645 223t-252 604q0 246 124 441t326 298t435 103q381 0 615 -209t235 -553q-1 -241 -99 -367t-280 -126q-219 0 -285 157q-84 -166 -279 -165q-154 0 -256 114
t-102 293q0 178 102 295t254 117t220 -123l-5 102h267v-461q0 -69 22 -99t72 -30q135 0 135 286t-162 423q-161 137 -449 137t-463 -173t-175 -459t167 -453q167 -166 474 -166q164 0 325 57l86 -192q-186 -74 -407 -74z" />
    <glyph glyph-name="A" unicode="A" horiz-adv-x="1359" 
d="M494 428h342l-88 211q-41 96 -84 248q-29 -110 -82 -248zM43 0l612 1405h25l637 -1405h-301l-78 188h-541l-78 -188h-276z" />
    <glyph glyph-name="B" unicode="B" horiz-adv-x="1239" 
d="M432 842h209q86 0 132 39t46 110q0 150 -164 150h-223v-299zM432 252h264q78 0 127 48t49 126t-52 125t-140 47h-248v-346zM145 0v1393h531q206 1 316 -103t110 -270q0 -102 -58 -181t-155 -104q272 -68 272 -336q0 -175 -121 -287t-331 -112h-564z" />
    <glyph glyph-name="C" unicode="C" horiz-adv-x="1464" 
d="M815 -18q-301 0 -509 204t-208 510q0 307 207 510t510 203q375 0 557 -285l-219 -155q-113 182 -338 182q-186 0 -304 -129t-118 -326q0 -198 118 -328t304 -130q127 0 210 53t149 151l223 -153q-197 -307 -582 -307z" />
    <glyph glyph-name="D" unicode="D" horiz-adv-x="1402" 
d="M432 252h127q223 0 337 121t114 323t-114 324q-114 121 -337 121h-127v-889zM145 0v1393h428q322 0 528 -195t206 -502q0 -308 -205 -502t-529 -194h-428z" />
    <glyph glyph-name="E" unicode="E" horiz-adv-x="1216" 
d="M145 0v1393h922v-252h-635v-320h559v-246h-559v-323h664v-252h-951z" />
    <glyph glyph-name="F" unicode="F" horiz-adv-x="1138" 
d="M145 0v1393h897v-252h-610v-363h555v-256h-555v-522h-287z" />
    <glyph glyph-name="G" unicode="G" horiz-adv-x="1513" 
d="M854 -18q-338 0 -547 202t-209 512q0 311 199 512t525 201t493 -192l-195 -193q-59 61 -129 94t-182 33q-186 0 -301 -128t-115 -328q0 -201 123 -329t338 -128q168 0 272 51v225h-335v252h598v-623q-75 -61 -219 -111t-316 -50z" />
    <glyph glyph-name="H" unicode="H" horiz-adv-x="1460" 
d="M145 0v1393h287v-590h596v590h287v-1393h-287v547h-596v-547h-287z" />
    <glyph glyph-name="I" unicode="I" horiz-adv-x="587" 
d="M152 0v1393h286v-1393h-286z" />
    <glyph glyph-name="J" unicode="J" horiz-adv-x="1015" 
d="M457 -18q-307 0 -430 262l233 141q29 -51 47 -77t54 -48q35 -22 97 -22t101 38t39 142v975h287v-979q-1 -216 -115 -324t-313 -108z" />
    <glyph glyph-name="K" unicode="K" horiz-adv-x="1320" 
d="M145 0v1393h287v-461q0 -76 -18 -234q61 137 123 217l372 478h326l-475 -611l524 -782h-346l-371 567l-135 -161v-406h-287z" />
    <glyph glyph-name="L" unicode="L" horiz-adv-x="1148" 
d="M145 0v1393h287v-1141h631v-252h-918z" />
    <glyph glyph-name="M" unicode="M" horiz-adv-x="1699" 
d="M145 0v1407h23l686 -754l676 754h24v-1407h-276v522l10 244q-84 -123 -149 -197l-277 -309h-26l-277 309q-61 70 -127 164l-22 33q10 -150 10 -244v-522h-275z" />
    <glyph glyph-name="N" unicode="N" horiz-adv-x="1435" 
d="M414 0h-269v1405h29l703 -660q52 -49 139 -155l24 -35q-18 158 -18 254v584h268v-1405h-28l-703 659q-63 59 -141 158l-25 33q20 -154 21 -254v-584z" />
    <glyph glyph-name="O" unicode="O" horiz-adv-x="1638" 
d="M819 238q188 0 307 131t119 327t-119 328q-119 131 -307 131t-307 -131t-119 -328q0 -198 119 -328t307 -130zM819 -18q-303 0 -512 204t-209 510q0 307 209 511t512 204t512 -204t209 -511q0 -306 -209 -510t-512 -204z" />
    <glyph glyph-name="P" unicode="P" horiz-adv-x="1230" 
d="M432 709h195q231 0 231 216t-231 216h-195v-432zM145 0v1393h490q227 0 373 -118t145 -349q0 -230 -145 -350t-373 -119h-203v-457h-287z" />
    <glyph glyph-name="Q" unicode="Q" horiz-adv-x="1638" 
d="M1245 706q0 186 -119 318q-119 131 -307 131t-307 -131t-119 -328q0 -198 119 -328t307 -130q81 0 142 20l-166 191l192 157l176 -203q82 117 82 303zM98 696q0 307 209 511t512 204t512 -204q209 -203 209 -505t-197 -505l195 -224l-190 -157l-207 237
q-154 -72 -322 -71q-303 0 -512 204t-209 510z" />
    <glyph glyph-name="R" unicode="R" horiz-adv-x="1288" 
d="M432 725h221q231 0 232 209q0 207 -232 207h-221v-416zM145 0v1393h517q229 0 373 -114t145 -345q0 -301 -273 -408l318 -526h-328l-283 483h-182v-483h-287z" />
    <glyph glyph-name="S" unicode="S" horiz-adv-x="1099" 
d="M1022 372q0 -178 -132 -284t-332 -106t-334 79q-132 80 -199 213l233 136q106 -174 283 -174q88 0 141 40t53 94q0 94 -93 143q-36 19 -116 54l-71 31q-170 74 -257 171t-87 261t115 272q116 108 304 107q138 0 238 -54t170 -175l-223 -144q-68 123 -185 123
q-61 0 -99 -35t-38 -92t39 -92t137 -78l72 -31q199 -86 290 -183t91 -276z" />
    <glyph glyph-name="T" unicode="T" horiz-adv-x="1212" 
d="M463 0v1141h-397v252h1081v-252h-397v-1141h-287z" />
    <glyph glyph-name="U" unicode="U" horiz-adv-x="1404" 
d="M1266 504q0 -254 -156 -388t-406 -134q-251 0 -408 134t-157 388v889h287v-873q0 -150 67 -216t211 -64q144 0 210 66t65 214v873h287v-889z" />
    <glyph glyph-name="V" unicode="V" horiz-adv-x="1359" 
d="M678 -12l-635 1405h307l240 -537q42 -102 62 -168q21 -67 34 -106l12 -41q6 32 45 147q38 115 62 168l233 537h279l-610 -1405h-29z" />
    <glyph glyph-name="W" unicode="W" horiz-adv-x="1961" 
d="M559 -12l-514 1405h303l203 -559q8 -25 74 -252q39 156 86 252l268 571h29l272 -571q35 -74 86 -252q41 162 74 252l200 559h279l-506 -1405h-29l-313 671q-33 70 -78 205q-37 -113 -80 -205l-325 -671h-29z" />
    <glyph glyph-name="X" unicode="X" horiz-adv-x="1351" 
d="M55 0l455 766l-379 627h326l141 -240q58 -112 76 -154l16 -36q43 127 80 190l135 240h305l-372 -629l462 -764h-327l-219 371q-53 90 -97 194q-35 -106 -86 -194l-215 -371h-301z" />
    <glyph glyph-name="Y" unicode="Y" horiz-adv-x="1304" 
d="M524 0v510l-483 883h321l197 -379q51 -96 96 -219l17 -43q57 160 108 262l189 379h295l-451 -863v-530h-289z" />
    <glyph glyph-name="Z" unicode="Z" horiz-adv-x="1208" 
d="M55 0v25l639 1116h-526v252h969v-25l-637 -1116h602v-252h-1047z" />
    <glyph glyph-name="bracketleft" unicode="[" horiz-adv-x="690" 
d="M123 -262v1741h506v-234h-230v-1274h230v-233h-506z" />
    <glyph glyph-name="backslash" unicode="\" horiz-adv-x="827" 
d="M590 -262l-572 1741h271l571 -1741h-270z" />
    <glyph glyph-name="bracketright" unicode="]" horiz-adv-x="690" 
d="M61 -262v233h230v1274h-230v234h506v-1741h-506z" />
    <glyph glyph-name="asciicircum" unicode="^" horiz-adv-x="899" 
d="M111 915l327 492h23l327 -492h-221l-118 146l-117 -146h-221z" />
    <glyph glyph-name="underscore" unicode="_" horiz-adv-x="579" 
d="M-4 -262v246h588v-246h-588z" />
    <glyph glyph-name="grave" unicode="`" 
d="M406 1024l-213 385h315l106 -385h-208z" />
    <glyph glyph-name="a" unicode="a" horiz-adv-x="999" 
d="M623 354h-189q-100 0 -100 -79t119 -78q82 1 126 33t44 89v35zM522 891q158 0 266 -99t109 -296v-496h-274l6 121q-90 -139 -258 -139q-133 0 -220 66t-88 208q0 262 357 262h203q-6 145 -146 146q-109 0 -198 -80l-154 164q72 70 155 106q84 36 242 37z" />
    <glyph glyph-name="b" unicode="b" horiz-adv-x="1128" 
d="M377 436q0 -100 53 -156t142 -57q88 1 140 57t52 155t-51 155t-141 57q-90 0 -142 -56q-53 -55 -53 -155zM653 -18q-197 0 -274 145l6 -127h-276v1479h276v-729q94 141 266 141t285 -127t113 -325q0 -197 -116 -327t-280 -130z" />
    <glyph glyph-name="c" unicode="c" horiz-adv-x="976" 
d="M563 -18q-213 0 -349 128t-136 326t136 327q136 128 352 128t356 -174l-197 -160q-25 41 -72 67t-98 25q-92 0 -143 -58q-52 -59 -52 -155t52 -155t144 -59q93 0 175 81l187 -164q-142 -157 -355 -157z" />
    <glyph glyph-name="d" unicode="d" horiz-adv-x="1128" 
d="M365 436q0 -100 51 -156t140 -57q89 1 142 57q54 56 54 155t-54 155t-142 57q-89 0 -140 -56q-51 -55 -51 -155zM475 -18q-163 0 -279 130t-116 326t115 325q115 128 287 128t261 -141v729h277v-1479h-277l7 127q-78 -145 -275 -145z" />
    <glyph glyph-name="e" unicode="e" horiz-adv-x="1101" 
d="M556 666q-167 0 -200 -154h387q-20 154 -187 154zM586 211q121 0 219 70l158 -170q-147 -129 -375 -129t-370 127q-140 127 -140 327t138 327q138 128 355 128t342 -152t109 -387h-662q41 -141 226 -141z" />
    <glyph glyph-name="f" unicode="f" horiz-adv-x="782" 
d="M209 0v643h-146v229h146v293q0 340 321 340q174 0 269 -110l-150 -185q-39 47 -88 47q-76 0 -76 -88v-297h236v-229h-236v-643h-276z" />
    <glyph glyph-name="g" unicode="g" horiz-adv-x="1130" 
d="M365 436q0 -100 51 -156t140 -57q89 1 142 57q54 56 54 155t-54 155t-142 57q-89 0 -140 -56q-51 -55 -51 -155zM551 -455q-305 0 -465 215l195 152q111 -135 258 -135q98 0 152 59t54 176v105q-80 -135 -257 -135q-176 0 -292 130t-116 326t115 325q115 128 276 128
q195 0 281 -154l-7 135h277v-870q0 -233 -132 -345t-339 -112z" />
    <glyph glyph-name="h" unicode="h" horiz-adv-x="1085" 
d="M109 0v1479h276v-744q82 156 270 156q145 -1 237 -103t91 -284v-504h-276v485q0 154 -146 154q-84 0 -130 -45t-46 -127v-467h-276z" />
    <glyph glyph-name="i" unicode="i" horiz-adv-x="514" 
d="M119 0v872h276v-872h-276zM258 1018q-72 0 -124 49t-52 124t52 124t124 49t123 -49t51 -124t-51 -124t-123 -49z" />
    <glyph glyph-name="j" unicode="j" horiz-adv-x="512" 
d="M82 -455q-72 0 -134 31t-98 74l138 164q37 -33 67 -33q63 0 64 69v1022h276v-1011q1 -152 -79 -234t-234 -82zM258 1018q-72 0 -124 49t-52 124t52 124t124 49t123 -49t51 -124t-51 -124t-123 -49z" />
    <glyph glyph-name="k" unicode="k" horiz-adv-x="1011" 
d="M385 0h-276v1479h276v-754q0 -92 -14 -188l286 335h308l-310 -356l342 -516h-321l-217 330l-74 -78v-252z" />
    <glyph glyph-name="l" unicode="l" horiz-adv-x="503" 
d="M115 0v1479h274v-1479h-274z" />
    <glyph glyph-name="m" unicode="m" horiz-adv-x="1617" 
d="M109 0v872h276l-6 -135q88 154 252 154t241 -150q119 150 290 150q171 -1 262 -103t92 -282v-506h-275v481q0 80 -31 119q-30 39 -108 39t-115 -41t-37 -131v-467h-274v481q0 80 -30 119t-105 39q-156 0 -156 -172v-467h-276z" />
    <glyph glyph-name="n" unicode="n" horiz-adv-x="1085" 
d="M109 0v872h276l-6 -143q82 162 276 162q145 -1 237 -103t91 -284v-504h-276v485q0 154 -146 154q-84 0 -130 -45t-46 -127v-467h-276z" />
    <glyph glyph-name="o" unicode="o" horiz-adv-x="1116" 
d="M559 215q90 0 143 60q54 59 54 159t-52 160t-145 59q-92 0 -145 -60q-54 -61 -54 -159t54 -158t145 -61zM559 -18q-205 0 -343 128t-138 326t138 326q138 129 343 129t342 -129t137 -327q0 -197 -137 -325t-342 -128z" />
    <glyph glyph-name="p" unicode="p" horiz-adv-x="1128" 
d="M377 436q0 -100 53 -156t142 -57q88 1 140 57t52 155t-51 155t-141 57q-90 0 -142 -56q-53 -55 -53 -155zM109 -434v1306h276l-6 -135q86 154 280 154q162 0 276 -128t114 -325q0 -196 -116 -326q-117 -130 -295 -130t-253 135v-551h-276z" />
    <glyph glyph-name="q" unicode="q" horiz-adv-x="1130" 
d="M365 436q0 -100 51 -156t140 -57q89 1 142 57q54 56 54 155t-54 155t-142 57q-89 0 -140 -56q-51 -55 -51 -155zM745 -434v551q-80 -135 -257 -135q-176 0 -292 130t-116 326t115 325q115 128 276 128q195 0 281 -154l-7 135h277v-1306h-277z" />
    <glyph glyph-name="r" unicode="r" horiz-adv-x="802" 
d="M109 0v872h276l-4 -157q78 176 256 176q70 0 135 -35l-88 -252q-57 27 -106 27q-98 0 -146 -54t-47 -190v-387h-276z" />
    <glyph glyph-name="s" unicode="s" horiz-adv-x="862" 
d="M442 -18q-258 0 -397 165l162 144q96 -92 216 -92t120 53q0 35 -61 50l-36 9q-16 3 -46 11l-54 14q-252 66 -252 278q0 139 94 208t244 69q201 0 318 -121l-148 -158q-78 66 -170 66t-92 -51q0 -31 28 -43q56 -24 146 -39q287 -66 287 -273q-1 -290 -359 -290z" />
    <glyph glyph-name="t" unicode="t" horiz-adv-x="782" 
d="M496 -23q-303 0 -303 351v315h-130v229h130v312h274v-312h223v-229h-223v-324q0 -61 18 -83q19 -22 57 -23q38 0 93 37l104 -193q-98 -80 -243 -80z" />
    <glyph glyph-name="u" unicode="u" horiz-adv-x="1081" 
d="M428 -18q-145 0 -235 102t-91 285v503h277v-485q0 -156 145 -156q82 0 127 45t45 130v466h277v-872h-277l6 143q-81 -161 -274 -161z" />
    <glyph glyph-name="v" unicode="v" horiz-adv-x="1003" 
d="M492 -18l-474 890h306l122 -260q41 -90 72 -229q20 121 68 229l119 260h280l-467 -890h-26z" />
    <glyph glyph-name="w" unicode="w" horiz-adv-x="1411" 
d="M422 -23l-404 895h306l100 -247l63 -195q33 123 72 195l143 270h21l151 -270q29 -51 76 -195q6 24 14 48t21 68q14 45 29 79l102 247h277l-408 -895h-24l-189 351q-25 43 -61 172q-1 -11 -27 -82q-26 -70 -39 -90l-201 -351h-22z" />
    <glyph glyph-name="x" unicode="x" horiz-adv-x="1046" 
d="M33 0l336 457l-293 415h325l72 -108q9 -16 21 -40l21 -42t16 -34t8 -19q8 20 21 55t42 80l70 108h295l-289 -393l336 -479h-328l-100 150q-12 16 -80 153q-68 -133 -80 -153l-98 -150h-295z" />
    <glyph glyph-name="y" unicode="y" horiz-adv-x="1003" 
d="M137 -434l228 516l-347 790h306l125 -335q24 -64 53 -189l8 -37q27 145 59 226l136 335h280l-571 -1306h-277z" />
    <glyph glyph-name="z" unicode="z" horiz-adv-x="905" 
d="M47 0v23l379 626h-332v223h754v-22l-387 -627h354v-223h-768z" />
    <glyph glyph-name="braceleft" unicode="{" horiz-adv-x="847" 
d="M612 -262q-324 0 -323 295v319q0 72 -28 104t-89 31h-119v234h119q61 0 89 32t28 103v328q0 295 323 295h174v-234h-149q-41 0 -55 -16t-15 -53v-355q0 -186 -190 -217q190 -31 190 -217v-346q1 -37 15 -53t55 -17h149v-233h-174z" />
    <glyph glyph-name="bar" unicode="|" horiz-adv-x="569" 
d="M152 -262v1741h266v-1741h-266z" />
    <glyph glyph-name="braceright" unicode="}" horiz-adv-x="847" 
d="M61 -262v233h150q41 1 55 17t15 53v346q0 186 190 217q-190 31 -190 217v355q-1 37 -15 53t-55 16h-150v234h175q324 0 323 -295v-328q0 -72 28 -104t89 -31h119v-234h-119q-61 1 -89 -31t-28 -104v-319q0 -295 -323 -295h-175z" />
    <glyph glyph-name="asciitilde" unicode="~" horiz-adv-x="835" 
d="M295 725q63 0 129 -41q12 -8 30 -19t32 -21q15 -11 36 -11q51 0 60 92l186 -18q-8 -139 -70 -213t-157 -74q-63 0 -129 41q-12 8 -30 19q-18 12 -31 22q-14 10 -38 10q-51 0 -59 -92l-186 18q8 139 70 213t157 74z" />
    <glyph glyph-name="uni00A0" unicode="&#xa0;" horiz-adv-x="372" 
 />
    <glyph glyph-name="exclamdown" unicode="&#xa1;" horiz-adv-x="579" 
d="M399 920l45 -920h-309l45 920h219zM289 1405q72 0 123 -49t51 -124t-51 -124t-122 -49t-122 49t-51 124t50 124t122 49z" />
    <glyph glyph-name="cent" unicode="&#xa2;" horiz-adv-x="989" 
d="M354 438q0 -80 35 -136t96 -79v422q-131 -43 -131 -207zM78 438q0 180 113 303q114 123 294 146v221h138v-221q182 -16 307 -170l-193 -156q-39 63 -114 84v-424q59 16 120 78l183 -160q-121 -137 -303 -153v-224h-138v224q-179 24 -293 148t-114 304z" />
    <glyph glyph-name="sterling" unicode="&#xa3;" horiz-adv-x="1185" 
d="M308 252q-72 0 -75 -53q1 -23 19 -38t49 -16q74 1 105 60q-60 47 -98 47zM158 502v209h104q-39 98 -39 176q0 163 118 271t327 108q295 0 413 -248l-227 -135q-35 73 -78 105q-44 32 -114 32t-115 -38t-45 -108t35 -163h317v-209h-240q39 -117 39 -215v-19
q98 -47 180 -47t156 80l162 -166q-113 -154 -315 -153q-143 0 -283 100q-107 -100 -237 -100t-204 62t-73 160q0 98 67 155q113 93 293 36q-12 41 -43 107h-198z" />
    <glyph glyph-name="yen" unicode="&#xa5;" horiz-adv-x="1171" 
d="M444 0v217h-346v176h344l-65 115h-279v176h178l-227 385h307l160 -299q41 -73 70 -180l10 -31q33 119 82 211l162 299h282l-229 -385h178v-176h-278l-66 -115h344v-176h-346v-217h-281z" />
    <glyph glyph-name="section" unicode="&#xa7;" horiz-adv-x="1075" 
d="M764 440q0 78 -107 119l-211 80q-49 16 -81 37q-53 -25 -54 -86q0 -82 101 -121l198 -74q50 -18 95 -41q59 29 59 86zM526 1266q144 0 229 -52t142 -157l-219 -107q-53 94 -131 94q-53 0 -79 -22t-26 -53q0 -66 76 -92l211 -78q289 -106 289 -310q0 -164 -174 -241
q51 -70 51 -170q0 -135 -99 -212t-261 -77t-273 65t-147 154l215 113q55 -109 172 -109t116 62q0 49 -77 78l-193 73q-152 57 -222 133t-69 189q1 157 185 229q-60 78 -60 198t100 206t244 86z" />
    <glyph glyph-name="dieresis" unicode="&#xa8;" 
d="M299 1036q-61 0 -109 46q-47 46 -47 110t47 110q46 46 108 46t110 -46t47 -110q0 -64 -47 -110q-48 -46 -109 -46zM725 1036q-61 0 -109 46q-47 46 -47 110t47 110q46 46 108 46t110 -46t47 -110q0 -64 -47 -110q-48 -46 -109 -46z" />
    <glyph glyph-name="copyright" unicode="&#xa9;" horiz-adv-x="1216" 
d="M632 238q-148 0 -237 85q-88 85 -88 217t87 218q88 86 230 86t244 -111l-145 -135q-35 45 -90 45q-92 0 -92 -104q-1 -45 25 -75t77 -30t82 43l147 -129q-92 -110 -240 -110zM186 539q0 -190 123 -309t301 -119q178 1 299 119t121 308t-121 310q-121 119 -299 119
t-301 -119t-123 -309zM1157 539q0 -233 -161 -391t-385 -158t-388 158t-164 390q0 234 164 392t388 158t385 -158t161 -391z" />
    <glyph glyph-name="ordfeminine" unicode="&#xaa;" horiz-adv-x="876" 
d="M385 623q-74 -1 -74 -59t99 -58q55 0 89 28t33 68v21h-147zM416 883q-94 0 -166 -68l-150 141q131 131 346 131q145 0 241 -83q95 -84 95 -248v-424h-250l7 92q-76 -111 -201 -111q-125 -1 -200 59t-75 172t82 169t217 57h170q-6 113 -116 113z" />
    <glyph glyph-name="guillemotleft" unicode="&#xab;" horiz-adv-x="1032" 
d="M260 66l-194 344v16l194 338h266l-200 -346l200 -352h-266zM700 66l-194 344v16l194 338h267l-201 -346l201 -352h-267z" />
    <glyph glyph-name="registered" unicode="&#xae;" horiz-adv-x="1030" 
d="M475 977h64q47 0 47 47t-47 47h-64v-94zM168 964q0 -160 96 -254t249 -94t251 94t98 254q0 161 -98 255t-251 94t-249 -94t-96 -255zM514 518q-192 0 -324 127q-131 127 -131 321t131 320t323 125q192 0 325 -126q133 -125 133 -319t-133 -321q-132 -127 -324 -127z
M340 743v445h195q86 0 135 -43t49 -111q0 -96 -78 -135l84 -156h-141l-68 136h-41v-136h-135z" />
    <glyph glyph-name="macron" unicode="&#xaf;" 
d="M242 1057v203h540v-203h-540z" />
    <glyph glyph-name="degree" unicode="&#xb0;" horiz-adv-x="679" 
d="M340 713q45 -1 74 29t28 77q0 47 -28 76q-29 29 -74 29t-74 -29q-28 -29 -28 -76t28 -77q29 -29 74 -29zM627 820q0 -114 -84 -192t-202 -79q-118 0 -203 79q-85 78 -85 192t84 191t203 77t203 -78q84 -76 84 -190z" />
    <glyph glyph-name="acute" unicode="&#xb4;" 
d="M410 1024l106 385h315l-213 -385h-208z" />
    <glyph glyph-name="paragraph" unicode="&#xb6;" horiz-adv-x="1368" 
d="M543 0v498h-6q-231 0 -352 124q-119 124 -119 314t130 324t361 133h666v-1393h-273v1153h-135v-1153h-272z" />
    <glyph glyph-name="periodcentered" unicode="&#xb7;" horiz-adv-x="509" 
d="M256 354q-72 0 -123 49t-51 124t51 124t122 49t122 -49t51 -124t-50 -124t-122 -49z" />
    <glyph glyph-name="cedilla" unicode="&#xb8;" 
d="M530 -492q-170 0 -241 123l131 80q31 -57 88 -57q30 0 52 18t22 52q0 70 -84 69h-70v207h141v-80q78 -14 130 -68q53 -54 53 -144t-67 -144q-67 -56 -155 -56z" />
    <glyph glyph-name="ordmasculine" unicode="&#xba;" horiz-adv-x="980" 
d="M491 522q71 0 113 48t41 128q0 80 -42 128q-43 48 -113 48t-110 -47t-40 -128t40 -129t111 -48zM901 698q-1 -166 -119 -276t-291 -111q-173 0 -292 111q-119 112 -119 278t120 277t292 111t290 -112t119 -278z" />
    <glyph glyph-name="guillemotright" unicode="&#xbb;" horiz-adv-x="1032" 
d="M66 66l200 346l-200 352h266l194 -344v-17l-194 -337h-266zM506 66l201 346l-201 352h266l195 -344v-17l-195 -337h-266z" />
    <glyph glyph-name="questiondown" unicode="&#xbf;" horiz-adv-x="1050" 
d="M694 920v-326h-94q-119 0 -174 -55t-55 -131t48 -128t126 -52t126 32q48 33 89 100l221 -129q-115 -250 -438 -249q-209 0 -332 122t-123 292t90 274t258 129v121h258zM567 1405q72 0 123 -49t51 -124t-51 -124t-122 -49t-122 49t-51 124t50 124t122 49z" />
    <glyph glyph-name="Agrave" unicode="&#xc0;" horiz-adv-x="1359" 
d="M494 428h342l-88 211q-41 96 -84 248q-29 -110 -82 -248zM567 1511l-213 385h316l106 -385h-209zM43 0l612 1405h25l637 -1405h-301l-78 188h-541l-78 -188h-276z" />
    <glyph glyph-name="Aacute" unicode="&#xc1;" horiz-adv-x="1359" 
d="M494 428h342l-88 211q-41 96 -84 248q-29 -110 -82 -248zM563 1511l107 385h315l-213 -385h-209zM43 0l612 1405h25l637 -1405h-301l-78 188h-541l-78 -188h-276z" />
    <glyph glyph-name="Acircumflex" unicode="&#xc2;" horiz-adv-x="1359" 
d="M494 428h342l-88 211q-41 96 -84 248q-29 -110 -82 -248zM328 1511l325 443h23l325 -443h-221l-114 134l-117 -134h-221zM43 0l612 1405h25l637 -1405h-301l-78 188h-541l-78 -188h-276z" />
    <glyph glyph-name="Atilde" unicode="&#xc3;" horiz-adv-x="1359" 
d="M494 428h342l-88 211q-41 96 -84 248q-29 -110 -82 -248zM515 1825q93 0 159 -39q16 -8 51 -30t66 -23q53 0 65 92l197 -19q-8 -139 -78 -213q-70 -73 -165 -73t-161 39q-16 9 -53 31q-37 23 -59 22q-54 0 -66 -92l-197 18q8 139 78 213t163 74zM43 0l612 1405h25
l637 -1405h-301l-78 188h-541l-78 -188h-276z" />
    <glyph glyph-name="Adieresis" unicode="&#xc4;" horiz-adv-x="1359" 
d="M494 428h342l-88 211q-41 96 -84 248q-29 -110 -82 -248zM881 1513q-61 1 -109 47t-47 109q0 63 47 109q46 46 108 47q62 0 109 -46q47 -45 47 -109t-47 -110t-108 -47zM455 1513q-61 1 -109 47t-47 109q0 63 47 109q46 46 108 47q62 0 109 -46q47 -45 47 -109t-47 -110
t-108 -47zM43 0l612 1405h25l637 -1405h-301l-78 188h-541l-78 -188h-276z" />
    <glyph glyph-name="Aring" unicode="&#xc5;" horiz-adv-x="1359" 
d="M668 1651q40 1 64 25t24 67t-25 67t-63 25q-38 0 -64 -25q-24 -26 -24 -68t24 -67q25 -24 64 -24zM494 428h342l-88 211q-41 96 -84 248q-29 -110 -82 -248zM668 1499q-111 0 -188 72t-77 172t77 172t188 72q112 0 188 -72t76 -172t-76 -172t-188 -72zM43 0l612 1405h25
l637 -1405h-301l-78 188h-541l-78 -188h-276z" />
    <glyph glyph-name="AE" unicode="&#xc6;" horiz-adv-x="2027" 
d="M956 434v369q0 27 19 192q-51 -121 -86 -172l-262 -389h329zM1878 1393v-252h-635v-320h559v-246h-559v-323h664v-252h-951v193h-495l-127 -193h-303l956 1393h891z" />
    <glyph glyph-name="Ccedilla" unicode="&#xc7;" horiz-adv-x="1486" 
d="M772 -492q-170 0 -242 123l132 80q31 -57 88 -57q30 0 52 18t21 52q0 70 -84 69h-69v203q-250 49 -411 242t-161 458q0 307 207 510t510 203q375 0 557 -285l-219 -155q-113 182 -338 182q-186 0 -304 -129t-118 -326q0 -198 118 -328t304 -130q127 0 210 53t149 151
l223 -153q-197 -307 -582 -307h-4v-62q78 -14 130 -68t52 -144q-1 -90 -67 -144q-66 -56 -154 -56z" />
    <glyph glyph-name="Egrave" unicode="&#xc8;" horiz-adv-x="1216" 
d="M518 1511l-213 385h316l106 -385h-209zM145 0v1393h922v-252h-635v-320h559v-246h-559v-323h664v-252h-951z" />
    <glyph glyph-name="Eacute" unicode="&#xc9;" horiz-adv-x="1216" 
d="M514 1511l107 385h315l-213 -385h-209zM145 0v1393h922v-252h-635v-320h559v-246h-559v-323h664v-252h-951z" />
    <glyph glyph-name="Ecircumflex" unicode="&#xca;" horiz-adv-x="1216" 
d="M279 1511l325 443h23l325 -443h-221l-115 134l-116 -134h-221zM145 0v1393h922v-252h-635v-320h559v-246h-559v-323h664v-252h-951z" />
    <glyph glyph-name="Edieresis" unicode="&#xcb;" horiz-adv-x="1216" 
d="M406 1513q-60 1 -108 47t-48 109t47 109t109 47q62 0 108 -46q47 -45 47 -109t-47 -110t-108 -47zM831 1513q-61 1 -108 47t-47 109t47 109t108 47q61 0 109 -46q48 -45 47 -109q1 -64 -47 -110t-109 -47zM145 0v1393h922v-252h-635v-320h559v-246h-559v-323h664v-252
h-951z" />
    <glyph glyph-name="Igrave" unicode="&#xcc;" horiz-adv-x="587" 
d="M195 1511l-213 385h315l106 -385h-208zM152 0v1393h286v-1393h-286z" />
    <glyph glyph-name="Iacute" unicode="&#xcd;" horiz-adv-x="587" 
d="M190 1511l107 385h315l-213 -385h-209zM152 0v1393h286v-1393h-286z" />
    <glyph glyph-name="Icircumflex" unicode="&#xce;" horiz-adv-x="587" 
d="M-45 1511l326 443h22l326 -443h-221l-115 134l-117 -134h-221zM152 0v1393h286v-1393h-286z" />
    <glyph glyph-name="Idieresis" unicode="&#xcf;" horiz-adv-x="587" 
d="M82 1513q-60 1 -108 47t-48 109t47 109t109 47q62 0 108 -46q48 -45 48 -109t-48 -110t-108 -47zM508 1513q-60 1 -108 47t-48 109t47 109t109 47q62 0 108 -46q48 -45 48 -109t-48 -110t-108 -47zM152 0v1393h286v-1393h-286z" />
    <glyph glyph-name="Eth" unicode="&#xd0;" horiz-adv-x="1402" 
d="M432 252h127q223 0 337 121t114 323t-114 324q-114 121 -337 121h-127v-324h309v-248h-309v-317zM145 0v569h-120v248h120v576h428q322 0 528 -195t206 -502q0 -308 -205 -502t-529 -194h-428z" />
    <glyph glyph-name="Ntilde" unicode="&#xd1;" horiz-adv-x="1435" 
d="M414 0h-269v1405h29l703 -660q52 -49 139 -155l24 -35q-18 158 -18 254v584h268v-1405h-28l-703 659q-63 59 -141 158l-25 33q20 -154 21 -254v-584zM577 1825q93 0 158 -39q16 -8 51 -30t66 -23q53 0 66 92l196 -19q-8 -139 -78 -213q-70 -73 -165 -73t-160 39
q-16 9 -53 31t-60 22q-54 0 -66 -92l-196 18q8 139 78 213t163 74z" />
    <glyph glyph-name="Ograve" unicode="&#xd2;" horiz-adv-x="1638" 
d="M719 1511l-213 385h315l107 -385h-209zM819 238q188 0 307 131t119 327t-119 328q-119 131 -307 131t-307 -131t-119 -328q0 -198 119 -328t307 -130zM819 -18q-303 0 -512 204t-209 510q0 307 209 511t512 204t512 -204t209 -511q0 -306 -209 -510t-512 -204z" />
    <glyph glyph-name="Oacute" unicode="&#xd3;" horiz-adv-x="1638" 
d="M715 1511l106 385h316l-213 -385h-209zM819 238q188 0 307 131t119 327t-119 328q-119 131 -307 131t-307 -131t-119 -328q0 -198 119 -328t307 -130zM819 -18q-303 0 -512 204t-209 510q0 307 209 511t512 204t512 -204t209 -511q0 -306 -209 -510t-512 -204z" />
    <glyph glyph-name="Ocircumflex" unicode="&#xd4;" horiz-adv-x="1638" 
d="M479 1511l326 443h22l326 -443h-221l-115 134l-117 -134h-221zM819 238q188 0 307 131t119 327t-119 328q-119 131 -307 131t-307 -131t-119 -328q0 -198 119 -328t307 -130zM819 -18q-303 0 -512 204t-209 510q0 307 209 511t512 204t512 -204t209 -511
q0 -306 -209 -510t-512 -204z" />
    <glyph glyph-name="Otilde" unicode="&#xd5;" horiz-adv-x="1638" 
d="M819 238q188 0 307 131t119 327t-119 328q-119 131 -307 131t-307 -131t-119 -328q0 -198 119 -328t307 -130zM819 -18q-303 0 -512 204t-209 510q0 307 209 511t512 204t512 -204t209 -511q0 -306 -209 -510t-512 -204zM671 1825q93 0 158 -39q16 -8 51 -30t66 -23
q53 0 66 92l196 -19q-8 -139 -78 -213q-70 -73 -165 -73t-160 39q-16 9 -53 31q-37 23 -60 22q-53 0 -65 -92l-197 18q8 139 78 213t163 74z" />
    <glyph glyph-name="Odieresis" unicode="&#xd6;" horiz-adv-x="1638" 
d="M606 1513q-61 1 -108 47t-47 109t47 109t108 47q60 0 108 -46q48 -45 48 -109t-48 -110t-108 -47zM1032 1513q-61 1 -108 47t-47 109t47 109t108 47q60 0 108 -46q48 -45 48 -109t-48 -110t-108 -47zM819 238q188 0 307 131t119 327t-119 328q-119 131 -307 131
t-307 -131t-119 -328q0 -198 119 -328t307 -130zM819 -18q-303 0 -512 204t-209 510q0 307 209 511t512 204t512 -204t209 -511q0 -306 -209 -510t-512 -204z" />
    <glyph glyph-name="multiply" unicode="&#xd7;" horiz-adv-x="835" 
d="M418 377l-182 -182l-168 167l182 183l-182 182l168 168l182 -182l182 182l168 -168l-182 -182l182 -183l-168 -167z" />
    <glyph glyph-name="Oslash" unicode="&#xd8;" horiz-adv-x="1638" 
d="M819 236q188 0 308 132t120 328q0 119 -41 213l-631 -602q103 -71 244 -71zM819 1157q-188 0 -308 -132t-120 -329q0 -119 43 -215l629 602q-102 74 -244 74zM98 696q0 307 209 511t512 204q248 0 438 -141l148 141l160 -158l-152 -143q127 -182 127 -414
q0 -307 -209 -511t-512 -203q-246 0 -436 139l-150 -141l-159 157l151 144q-127 186 -127 415z" />
    <glyph glyph-name="Ugrave" unicode="&#xd9;" horiz-adv-x="1404" 
d="M602 1511l-213 385h316l106 -385h-209zM1266 504q0 -254 -156 -388t-406 -134q-251 0 -408 134t-157 388v889h287v-873q0 -150 67 -216t211 -64q144 0 210 66t65 214v873h287v-889z" />
    <glyph glyph-name="Uacute" unicode="&#xda;" horiz-adv-x="1404" 
d="M598 1511l107 385h315l-213 -385h-209zM1266 504q0 -254 -156 -388t-406 -134q-251 0 -408 134t-157 388v889h287v-873q0 -150 67 -216t211 -64q144 0 210 66t65 214v873h287v-889z" />
    <glyph glyph-name="Ucircumflex" unicode="&#xdb;" horiz-adv-x="1404" 
d="M362 1511l326 443h23l325 -443h-221l-115 134l-116 -134h-222zM1266 504q0 -254 -156 -388t-406 -134q-251 0 -408 134t-157 388v889h287v-873q0 -150 67 -216t211 -64q144 0 210 66t65 214v873h287v-889z" />
    <glyph glyph-name="Udieresis" unicode="&#xdc;" horiz-adv-x="1404" 
d="M489 1513q-61 1 -108 47t-47 109t47 109t108 47q61 0 109 -46q48 -45 47 -109q1 -64 -47 -110t-109 -47zM915 1513q-61 1 -108 47t-47 109t47 109t108 47q61 0 109 -46q48 -45 47 -109q1 -64 -47 -110t-109 -47zM1266 504q0 -254 -156 -388t-406 -134q-251 0 -408 134
t-157 388v889h287v-873q0 -150 67 -216t211 -64q144 0 210 66t65 214v873h287v-889z" />
    <glyph glyph-name="Yacute" unicode="&#xdd;" horiz-adv-x="1304" 
d="M567 1511l107 385h315l-213 -385h-209zM524 0v510l-483 883h321l197 -379q57 -115 113 -262q43 129 108 262l189 379h295l-451 -863v-530h-289z" />
    <glyph glyph-name="Thorn" unicode="&#xde;" horiz-adv-x="1230" 
d="M432 487h195q231 1 231 217t-231 216h-195v-433zM145 0v1393h287v-222h203q227 0 373 -117q145 -118 145 -349t-145 -351t-373 -118h-203v-236h-287z" />
    <glyph glyph-name="germandbls" unicode="&#xdf;" horiz-adv-x="1191" 
d="M670 -12q-111 0 -178 22l30 228q49 -16 99 -17q211 0 210 217q0 250 -296 240v217q176 23 176 203t-158 180q-78 0 -123 -54t-45 -157v-1067h-276v1059q0 213 122 330q123 117 323 117t310 -108t111 -296q0 -188 -160 -277q141 -41 220 -140t79 -255q0 -202 -116 -322
t-328 -120z" />
    <glyph glyph-name="agrave" unicode="&#xe0;" horiz-adv-x="999" 
d="M406 1024l-213 385h315l106 -385h-208zM623 354h-189q-100 0 -100 -79t119 -78q82 1 126 33t44 89v35zM522 891q158 0 266 -99t109 -296v-496h-274l6 121q-90 -139 -258 -139q-133 0 -220 66t-88 208q0 262 357 262h203q-6 145 -146 146q-109 0 -198 -80l-154 164
q72 70 155 106q84 36 242 37z" />
    <glyph glyph-name="aacute" unicode="&#xe1;" horiz-adv-x="999" 
d="M401 1024l107 385h315l-213 -385h-209zM623 354h-189q-100 0 -100 -79t119 -78q82 1 126 33t44 89v35zM522 891q158 0 266 -99t109 -296v-496h-274l6 121q-90 -139 -258 -139q-133 0 -220 66t-88 208q0 262 357 262h203q-6 145 -146 146q-109 0 -198 -80l-154 164
q72 70 155 106q84 36 242 37z" />
    <glyph glyph-name="acircumflex" unicode="&#xe2;" horiz-adv-x="999" 
d="M166 1024l326 442h22l326 -442h-222l-114 133l-117 -133h-221zM623 354h-189q-100 0 -100 -79t119 -78q82 1 126 33t44 89v35zM522 891q158 0 266 -99t109 -296v-496h-274l6 121q-90 -139 -258 -139q-133 0 -220 66t-88 208q0 262 357 262h203q-6 145 -146 146
q-109 0 -198 -80l-154 164q72 70 155 106q84 36 242 37z" />
    <glyph glyph-name="atilde" unicode="&#xe3;" horiz-adv-x="999" 
d="M629 1036q-63 0 -129 41l-30 20q-17 11 -31 21t-38 10q-49 0 -59 -92l-186 19q8 139 70 213t157 73q63 0 129 -41q12 -8 30 -19t33 -21q16 -10 35 -11q49 0 60 92l186 -18q-8 -139 -70 -213t-157 -74zM623 354h-189q-100 0 -100 -79t119 -78q82 1 126 33t44 89v35z
M522 891q158 0 266 -99t109 -296v-496h-274l6 121q-90 -139 -258 -139q-133 0 -220 66t-88 208q0 262 357 262h203q-6 145 -146 146q-109 0 -198 -80l-154 164q72 70 155 106q84 36 242 37z" />
    <glyph glyph-name="adieresis" unicode="&#xe4;" horiz-adv-x="999" 
d="M293 1036q-61 0 -109 46q-47 46 -47 110t47 110q46 46 108 46t109 -46t47 -110t-46 -110q-48 -46 -109 -46zM719 1036q-61 0 -109 46q-47 46 -47 110t47 110q46 46 108 46t109 -46t47 -110t-47 -110t-108 -46zM623 354h-189q-100 0 -100 -79t119 -78q82 1 126 33t44 89
v35zM522 891q158 0 266 -99t109 -296v-496h-274l6 121q-90 -139 -258 -139q-133 0 -220 66t-88 208q0 262 357 262h203q-6 145 -146 146q-109 0 -198 -80l-154 164q72 70 155 106q84 36 242 37z" />
    <glyph glyph-name="aring" unicode="&#xe5;" horiz-adv-x="999" 
d="M506 1122q40 0 64 25t24 67t-25 68q-25 25 -63 25t-64 -25q-24 -25 -24 -68q0 -44 24 -68t64 -24zM506 971q-111 -1 -188 71t-76 172q0 100 76 172q77 72 188 72q112 0 188 -72t76 -172t-76 -172t-188 -71zM623 354h-189q-100 0 -100 -79t119 -78q82 1 126 33t44 89v35z
M522 891q158 0 266 -99t109 -296v-496h-274l6 121q-90 -139 -258 -139q-133 0 -220 66t-88 208q0 262 357 262h203q-6 145 -146 146q-109 0 -198 -80l-154 164q72 70 155 106q84 36 242 37z" />
    <glyph glyph-name="ae" unicode="&#xe6;" horiz-adv-x="1646" 
d="M623 352h-189q-100 0 -100 -78t119 -77q82 1 126 33t44 89v33zM1106 666q-172 0 -205 -152h387q-8 70 -54 111t-128 41zM477 664q-109 0 -198 -80l-154 164q72 70 155 106t224 37q190 0 280 -127q121 127 335 127t339 -153t109 -386h-662q41 -141 225 -141q121 0 220 70
l157 -170q-147 -129 -381 -129t-358 145q-111 -145 -344 -145q-360 0 -361 274q0 258 357 258h203q-6 150 -146 150z" />
    <glyph glyph-name="ccedilla" unicode="&#xe7;" horiz-adv-x="980" 
d="M502 -492q-170 0 -242 123l131 80q31 -57 88 -57q31 0 53 18t21 52q0 70 -84 69h-70v209q-145 43 -233 160t-88 276q0 197 136 325t352 128t356 -174l-197 -160q-25 41 -72 67t-98 25q-92 0 -143 -58q-52 -59 -52 -155t52 -155t144 -59q93 0 175 81l187 -164
q-141 -158 -363 -157h-14v-62q78 -14 130 -68t52 -144q-1 -90 -67 -144q-66 -56 -154 -56z" />
    <glyph glyph-name="egrave" unicode="&#xe8;" horiz-adv-x="1101" 
d="M451 1024l-213 385h315l106 -385h-208zM556 666q-167 0 -200 -154h387q-20 154 -187 154zM586 211q121 0 219 70l158 -170q-147 -129 -375 -129t-370 127q-140 127 -140 327t138 327q138 128 355 128t342 -152t109 -387h-662q41 -141 226 -141z" />
    <glyph glyph-name="eacute" unicode="&#xe9;" horiz-adv-x="1101" 
d="M446 1024l107 385h315l-213 -385h-209zM556 666q-167 0 -200 -154h387q-20 154 -187 154zM586 211q121 0 219 70l158 -170q-147 -129 -375 -129t-370 127q-140 127 -140 327t138 327q138 128 355 128t342 -152t109 -387h-662q41 -141 226 -141z" />
    <glyph glyph-name="ecircumflex" unicode="&#xea;" horiz-adv-x="1101" 
d="M211 1024l326 442h22l326 -442h-221l-115 133l-117 -133h-221zM556 666q-167 0 -200 -154h387q-20 154 -187 154zM586 211q121 0 219 70l158 -170q-147 -129 -375 -129t-370 127q-140 127 -140 327t138 327q138 128 355 128t342 -152t109 -387h-662q41 -141 226 -141z
" />
    <glyph glyph-name="edieresis" unicode="&#xeb;" horiz-adv-x="1101" 
d="M338 1036q-61 0 -109 46q-47 46 -47 110t47 110t109 46t108 -46q48 -46 48 -110t-48 -110t-108 -46zM764 1036q-61 0 -109 46q-47 46 -47 110t47 110t109 46t108 -46q48 -46 48 -110t-48 -110t-108 -46zM556 666q-167 0 -200 -154h387q-20 154 -187 154zM586 211
q121 0 219 70l158 -170q-147 -129 -375 -129t-370 127q-140 127 -140 327t138 327q138 128 355 128t342 -152t109 -387h-662q41 -141 226 -141z" />
    <glyph glyph-name="igrave" unicode="&#xec;" horiz-adv-x="514" 
d="M156 1024l-213 385h315l107 -385h-209zM119 0v872h276v-872h-276z" />
    <glyph glyph-name="iacute" unicode="&#xed;" horiz-adv-x="514" 
d="M152 1024l106 385h315l-213 -385h-208zM119 0v872h276v-872h-276z" />
    <glyph glyph-name="icircumflex" unicode="&#xee;" horiz-adv-x="514" 
d="M-84 1024l326 442h22l326 -442h-221l-115 133l-117 -133h-221zM119 0v872h276v-872h-276z" />
    <glyph glyph-name="idieresis" unicode="&#xef;" horiz-adv-x="514" 
d="M57 1036q-61 0 -108 46t-47 110t47 110t108 46t109 -46t47 -110q0 -64 -47 -110q-48 -46 -109 -46zM455 1036q-61 0 -109 46q-47 46 -47 110t47 110q46 46 108 46t109 -46t47 -110t-47 -110t-108 -46zM119 0v872h276v-872h-276z" />
    <glyph glyph-name="eth" unicode="&#xf0;" horiz-adv-x="1116" 
d="M559 215q90 0 143 60q54 59 54 159t-52 160t-145 59q-92 0 -145 -60q-54 -61 -54 -159t54 -158t145 -61zM1038 500q0 -252 -133 -385t-342 -133t-347 128t-138 324t131 326q131 131 301 131q115 0 180 -49q-41 110 -145 239l-117 -112l-127 125l125 120q-63 63 -137 125
l143 174q117 -90 166 -135l115 111l127 -125l-115 -109q313 -340 313 -755z" />
    <glyph glyph-name="ntilde" unicode="&#xf1;" horiz-adv-x="1085" 
d="M639 1249q49 0 59 92l187 -18q-7 -139 -69 -213t-146 -74q-86 0 -196 78q-20 14 -44 14q-49 0 -59 -92l-187 19q8 139 70 213t158 73q63 0 134 -46t93 -46zM109 0v872h276l-6 -143q82 162 276 162q145 -1 237 -103t91 -284v-504h-276v485q0 154 -146 154q-84 0 -130 -45
t-46 -127v-467h-276z" />
    <glyph glyph-name="ograve" unicode="&#xf2;" horiz-adv-x="1116" 
d="M457 1024l-213 385h315l107 -385h-209zM559 215q90 0 143 60q54 59 54 159t-52 160t-145 59q-92 0 -145 -60q-54 -61 -54 -159t54 -158t145 -61zM559 -18q-205 0 -343 128t-138 326t138 326q138 129 343 129t342 -129t137 -327q0 -197 -137 -325t-342 -128z" />
    <glyph glyph-name="oacute" unicode="&#xf3;" horiz-adv-x="1116" 
d="M453 1024l106 385h315l-212 -385h-209zM559 215q90 0 143 60q54 59 54 159t-52 160t-145 59q-92 0 -145 -60q-54 -61 -54 -159t54 -158t145 -61zM559 -18q-205 0 -343 128t-138 326t138 326q138 129 343 129t342 -129t137 -327q0 -197 -137 -325t-342 -128z" />
    <glyph glyph-name="ocircumflex" unicode="&#xf4;" horiz-adv-x="1116" 
d="M217 1024l326 442h22l326 -442h-221l-115 133l-117 -133h-221zM559 215q90 0 143 60q54 59 54 159t-52 160t-145 59q-92 0 -145 -60q-54 -61 -54 -159t54 -158t145 -61zM559 -18q-205 0 -343 128t-138 326t138 326q138 129 343 129t342 -129t137 -327q0 -197 -137 -325
t-342 -128z" />
    <glyph glyph-name="otilde" unicode="&#xf5;" horiz-adv-x="1116" 
d="M662 1249q51 0 59 92l186 -18q-8 -139 -69 -213t-158 -74q-63 0 -129 41l-30 20q-17 11 -30 21t-38 10q-52 0 -60 -92l-186 19q9 139 71 213t156 73q63 0 134 -46t94 -46zM559 215q90 0 143 60q54 59 54 159t-52 160t-145 59q-92 0 -145 -60q-54 -61 -54 -159t54 -158
t145 -61zM559 -18q-205 0 -343 128t-138 326t138 326q138 129 343 129t342 -129t137 -327q0 -197 -137 -325t-342 -128z" />
    <glyph glyph-name="odieresis" unicode="&#xf6;" horiz-adv-x="1116" 
d="M344 1036q-61 0 -108 46q-48 46 -48 110t48 110t108 46t108 -46t48 -110t-47 -110q-48 -46 -109 -46zM770 1036q-61 0 -108 46q-48 46 -48 110t48 110t108 46t108 -46t48 -110t-47 -110q-48 -46 -109 -46zM559 215q90 0 143 60q54 59 54 159t-52 160t-145 59
q-92 0 -145 -60q-54 -61 -54 -159t54 -158t145 -61zM559 -18q-205 0 -343 128t-138 326t138 326q138 129 343 129t342 -129t137 -327q0 -197 -137 -325t-342 -128z" />
    <glyph glyph-name="divide" unicode="&#xf7;" horiz-adv-x="841" 
d="M586 188q0 -72 -48 -118t-117 -47q-69 0 -117 47q-48 46 -48 118t48 118t117 46t117 -46t48 -118zM421 737q-69 0 -117 47t-48 119t48 118t117 46t117 -46t48 -118t-48 -119t-117 -47zM762 424h-682v242h682v-242z" />
    <glyph glyph-name="oslash" unicode="&#xf8;" horiz-adv-x="1116" 
d="M770 434q0 35 -6 66l-318 -267q47 -29 128 -29t139 64q57 63 57 166zM559 664q-97 0 -155 -64t-58 -166q0 -32 6 -63l316 266q-49 27 -109 27zM576 -18q-188 0 -316 96l-125 -107l-106 127l118 99q-70 109 -69 237q0 199 138 328t324 129t316 -96l125 106l106 -129
l-118 -100q70 -104 69 -238q0 -196 -137 -324t-325 -128z" />
    <glyph glyph-name="ugrave" unicode="&#xf9;" horiz-adv-x="1081" 
d="M442 1024l-213 385h316l106 -385h-209zM428 -18q-145 0 -235 102t-91 285v503h277v-485q0 -156 145 -156q82 0 127 45t45 130v466h277v-872h-277l6 143q-81 -161 -274 -161z" />
    <glyph glyph-name="uacute" unicode="&#xfa;" horiz-adv-x="1081" 
d="M438 1024l107 385h315l-213 -385h-209zM428 -18q-145 0 -235 102t-91 285v503h277v-485q0 -156 145 -156q82 0 127 45t45 130v466h277v-872h-277l6 143q-81 -161 -274 -161z" />
    <glyph glyph-name="ucircumflex" unicode="&#xfb;" horiz-adv-x="1081" 
d="M203 1024l325 442h23l326 -442h-222l-114 133l-117 -133h-221zM428 -18q-145 0 -235 102t-91 285v503h277v-485q0 -156 145 -156q82 0 127 45t45 130v466h277v-872h-277l6 143q-81 -161 -274 -161z" />
    <glyph glyph-name="udieresis" unicode="&#xfc;" horiz-adv-x="1081" 
d="M330 1036q-61 0 -109 46q-47 46 -47 110t47 110t109 46t108 -46q47 -46 47 -110t-47 -110t-108 -46zM756 1036q-61 0 -109 46q-47 46 -47 110t47 110t109 46t108 -46q47 -46 47 -110t-47 -110t-108 -46zM428 -18q-145 0 -235 102t-91 285v503h277v-485q0 -156 145 -156
q82 0 127 45t45 130v466h277v-872h-277l6 143q-81 -161 -274 -161z" />
    <glyph glyph-name="yacute" unicode="&#xfd;" horiz-adv-x="1003" 
d="M414 1024l106 385h316l-213 -385h-209zM137 -434l228 516l-347 790h306l125 -335q29 -76 61 -224q23 131 59 224l136 335h280l-571 -1306h-277z" />
    <glyph glyph-name="thorn" unicode="&#xfe;" horiz-adv-x="1136" 
d="M581 223q89 1 140 57t51 155t-51 155t-140 57q-89 0 -143 -56q-54 -55 -53 -155q-1 -100 53 -156t143 -57zM117 -434v1913h276v-729q95 141 267 141t284 -127t113 -325q0 -197 -116 -327t-279 -130q-193 0 -269 135v-551h-276z" />
    <glyph glyph-name="ydieresis" unicode="&#xff;" horiz-adv-x="1003" 
d="M305 1036q-61 0 -108 46t-47 110t47 110t108 46t109 -46t47 -110q0 -64 -47 -110q-48 -46 -109 -46zM731 1036q-61 0 -108 46t-47 110t46 110q48 46 109 46t109 -46t47 -110q0 -64 -47 -110q-48 -46 -109 -46zM137 -434l228 516l-347 790h306l125 -335q24 -64 53 -189
l8 -37q27 145 59 226l136 335h280l-571 -1306h-277z" />
    <glyph glyph-name="Amacron" unicode="&#x100;" horiz-adv-x="1359" 
d="M494 428h342l-88 211q-41 96 -84 248q-29 -110 -82 -248zM397 1534v203h541v-203h-541zM43 0l612 1405h25l637 -1405h-301l-78 188h-541l-78 -188h-276z" />
    <glyph glyph-name="amacron" unicode="&#x101;" horiz-adv-x="999" 
d="M236 1057v203h540v-203h-540zM623 354h-189q-100 0 -100 -79t119 -78q82 1 126 33t44 89v35zM522 891q158 0 266 -99t109 -296v-496h-274l6 121q-90 -139 -258 -139q-133 0 -220 66t-88 208q0 262 357 262h203q-6 145 -146 146q-109 0 -198 -80l-154 164q72 70 155 106
q84 36 242 37z" />
    <glyph glyph-name="Abreve" unicode="&#x102;" horiz-adv-x="1359" 
d="M494 428h342l-88 211q-41 96 -84 248q-29 -110 -82 -248zM668 1509q-143 0 -232 80q-88 80 -100 207l211 31q17 -117 121 -117t120 117l211 -31q-12 -127 -100 -207t-231 -80zM43 0l612 1405h25l637 -1405h-301l-78 188h-541l-78 -188h-276z" />
    <glyph glyph-name="abreve" unicode="&#x103;" horiz-adv-x="999" 
d="M506 1024q-143 0 -232 80q-88 80 -100 207l211 30q17 -117 121 -117t121 117l211 -30q-12 -127 -100 -207t-232 -80zM623 354h-189q-100 0 -100 -79t119 -78q82 1 126 33t44 89v35zM522 891q158 0 266 -99t109 -296v-496h-274l6 121q-90 -139 -258 -139q-133 0 -220 66
t-88 208q0 262 357 262h203q-6 145 -146 146q-109 0 -198 -80l-154 164q72 70 155 106q84 36 242 37z" />
    <glyph glyph-name="Aogonek" unicode="&#x104;" horiz-adv-x="1359" 
d="M494 428h342l-88 211q-41 96 -84 248q-29 -110 -82 -248zM1188 -492q-94 0 -156 54t-63 148q0 95 82 198l71 92h-106l-78 188h-541l-78 -188h-276l612 1405h25l623 -1374l-103 -172q-53 -88 -53 -140q0 -59 57 -59q49 0 84 53l135 -78q-73 -127 -235 -127z" />
    <glyph glyph-name="aogonek" unicode="&#x105;" horiz-adv-x="999" 
d="M623 354h-189q-100 0 -100 -79t119 -78q82 1 126 33t44 89v35zM721 -281q0 -59 57 -59q49 0 84 53l135 -78q-74 -127 -235 -127q-94 0 -156 54t-63 148q0 95 82 198l71 92h-73l6 121q-90 -139 -258 -139q-133 0 -220 66t-88 208q0 262 357 262h203q-6 145 -146 146
q-109 0 -198 -80l-154 164q72 70 155 106q84 36 242 37q158 0 266 -99t109 -296v-430l-123 -207q-53 -88 -53 -140z" />
    <glyph glyph-name="Cacute" unicode="&#x106;" horiz-adv-x="1464" 
d="M676 1511l106 385h316l-213 -385h-209zM815 -18q-301 0 -509 204t-208 510q0 307 207 510t510 203q375 0 557 -285l-219 -155q-113 182 -338 182q-186 0 -304 -129t-118 -326q0 -198 118 -328t304 -130q127 0 210 53t149 151l223 -153q-197 -307 -582 -307z" />
    <glyph glyph-name="cacute" unicode="&#x107;" horiz-adv-x="976" 
d="M420 1024l106 385h316l-213 -385h-209zM563 -18q-213 0 -349 128t-136 326t136 327q136 128 352 128t356 -174l-197 -160q-25 41 -72 67t-98 25q-92 0 -143 -58q-52 -59 -52 -155t52 -155t144 -59q93 0 175 81l187 -164q-142 -157 -355 -157z" />
    <glyph glyph-name="Ccircumflex" unicode="&#x108;" horiz-adv-x="1464" 
d="M440 1511l326 443h22l326 -443h-221l-115 134l-116 -134h-222zM815 -18q-301 0 -509 204t-208 510q0 307 207 510t510 203q375 0 557 -285l-219 -155q-113 182 -338 182q-186 0 -304 -129t-118 -326q0 -198 118 -328t304 -130q127 0 210 53t149 151l223 -153
q-197 -307 -582 -307z" />
    <glyph glyph-name="ccircumflex" unicode="&#x109;" horiz-adv-x="976" 
d="M184 1024l326 442h22l326 -442h-221l-115 133l-116 -133h-222zM563 -18q-213 0 -349 128t-136 326t136 327q136 128 352 128t356 -174l-197 -160q-25 41 -72 67t-98 25q-92 0 -143 -58q-52 -59 -52 -155t52 -155t144 -59q93 0 175 81l187 -164q-142 -157 -355 -157z" />
    <glyph glyph-name="Cdotaccent" unicode="&#x10a;" horiz-adv-x="1464" 
d="M782 1495q-72 0 -124 49t-52 124t52 124t124 49t123 -49t51 -124t-51 -124t-123 -49zM815 -18q-301 0 -509 204t-208 510q0 307 207 510t510 203q375 0 557 -285l-219 -155q-113 182 -338 182q-186 0 -304 -129t-118 -326q0 -198 118 -328t304 -130q127 0 210 53t149 151
l223 -153q-197 -307 -582 -307z" />
    <glyph glyph-name="cdotaccent" unicode="&#x10b;" horiz-adv-x="976" 
d="M526 1018q-72 0 -124 49t-52 124t52 124t124 49t123 -49t51 -124t-51 -124t-123 -49zM563 -18q-213 0 -349 128t-136 326t136 327q136 128 352 128t356 -174l-197 -160q-25 41 -72 67t-98 25q-92 0 -143 -58q-52 -59 -52 -155t52 -155t144 -59q93 0 175 81l187 -164
q-142 -157 -355 -157z" />
    <glyph glyph-name="Ccaron" unicode="&#x10c;" horiz-adv-x="1464" 
d="M766 1493l-326 442h222l114 -133l117 133h221l-326 -442h-22zM815 -18q-301 0 -509 204t-208 510q0 307 207 510t510 203q375 0 557 -285l-219 -155q-113 182 -338 182q-186 0 -304 -129t-118 -326q0 -198 118 -328t304 -130q127 0 210 53t149 151l223 -153
q-197 -307 -582 -307z" />
    <glyph glyph-name="ccaron" unicode="&#x10d;" horiz-adv-x="976" 
d="M510 985l-326 442h222l114 -133l117 133h221l-326 -442h-22zM563 -18q-213 0 -349 128t-136 326t136 327q136 128 352 128t356 -174l-197 -160q-25 41 -72 67t-98 25q-92 0 -143 -58q-52 -59 -52 -155t52 -155t144 -59q93 0 175 81l187 -164q-142 -157 -355 -157z" />
    <glyph glyph-name="Dcaron" unicode="&#x10e;" horiz-adv-x="1402" 
d="M586 1493l-326 442h221l115 -133l117 133h221l-326 -442h-22zM432 252h127q223 0 337 121t114 323t-114 324q-114 121 -337 121h-127v-889zM145 0v1393h428q322 0 528 -195t206 -502q0 -308 -205 -502t-529 -194h-428z" />
    <glyph glyph-name="dcaron" unicode="&#x10f;" horiz-adv-x="1419" 
d="M365 436q0 -100 51 -156t140 -57q89 1 142 57q54 56 54 155t-54 155t-142 57q-89 0 -140 -56q-51 -55 -51 -155zM475 -18q-163 0 -279 130t-116 326t115 325q115 128 287 128t261 -141v729h277v-1479h-277l7 127q-78 -145 -275 -145zM1114 1243q0 70 49 117t116 47
t117 -47t50 -116t-62 -175l-122 -209h-134l78 234q-92 43 -92 149z" />
    <glyph glyph-name="Dcroat" unicode="&#x110;" horiz-adv-x="1402" 
d="M432 252h127q223 0 337 121t114 323t-114 324q-114 121 -337 121h-127v-324h309v-248h-309v-317zM145 0v569h-120v248h120v576h428q322 0 528 -195t206 -502q0 -308 -205 -502t-529 -194h-428z" />
    <glyph glyph-name="dcroat" unicode="&#x111;" horiz-adv-x="1128" 
d="M365 436q0 -100 51 -156t140 -57q89 1 142 57q54 56 54 155t-54 155t-142 57q-89 0 -140 -56q-51 -55 -51 -155zM743 999h-251v230h251v250h277v-250h131v-230h-131v-999h-277l7 127q-78 -145 -275 -145q-163 0 -279 130t-116 326t115 325q115 128 287 128t261 -141v249z
" />
    <glyph glyph-name="Emacron" unicode="&#x112;" horiz-adv-x="1216" 
d="M348 1534v203h541v-203h-541zM145 0v1393h922v-252h-635v-320h559v-246h-559v-323h664v-252h-951z" />
    <glyph glyph-name="emacron" unicode="&#x113;" horiz-adv-x="1101" 
d="M281 1057v203h540v-203h-540zM556 666q-167 0 -200 -154h387q-20 154 -187 154zM586 211q121 0 219 70l158 -170q-147 -129 -375 -129t-370 127q-140 127 -140 327t138 327q138 128 355 128t342 -152t109 -387h-662q41 -141 226 -141z" />
    <glyph glyph-name="Edotaccent" unicode="&#x116;" horiz-adv-x="1216" 
d="M621 1495q-72 0 -124 49q-53 49 -53 124t52 124t125 49t123 -49t50 -124t-50 -124q-51 -49 -123 -49zM145 0v1393h922v-252h-635v-320h559v-246h-559v-323h664v-252h-951z" />
    <glyph glyph-name="edotaccent" unicode="&#x117;" horiz-adv-x="1101" 
d="M553 1018q-72 0 -124 49t-52 124t52 124t124 49t123 -49t51 -124t-51 -124t-123 -49zM556 666q-167 0 -200 -154h387q-20 154 -187 154zM586 211q121 0 219 70l158 -170q-147 -129 -375 -129t-370 127q-140 127 -140 327t138 327q138 128 355 128t342 -152t109 -387h-662
q41 -141 226 -141z" />
    <glyph glyph-name="Eogonek" unicode="&#x118;" horiz-adv-x="1216" 
d="M854 -492q-94 0 -156 54t-63 148q0 95 82 198l71 92h-643v1393h922v-252h-635v-320h559v-246h-559v-323h664v-252h-146l-84 -141q-53 -90 -53 -140q0 -59 57 -59q49 0 84 53l136 -78q-74 -127 -236 -127z" />
    <glyph glyph-name="eogonek" unicode="&#x119;" horiz-adv-x="1101" 
d="M556 666q-167 0 -200 -154h387q-20 154 -187 154zM727 -492q-95 0 -157 54t-62 148q0 95 82 198l61 80q-33 -6 -61 -6q-229 0 -371 127q-141 127 -141 327t138 327q138 128 355 128t342 -152t109 -387h-662q41 -141 226 -141q121 0 219 70l158 -170q-143 -119 -224 -252
q-53 -87 -53 -143t57 -56q49 0 84 53l136 -78q-74 -127 -236 -127z" />
    <glyph glyph-name="Ecaron" unicode="&#x11a;" horiz-adv-x="1216" 
d="M604 1493l-325 442h221l114 -133l117 133h221l-325 -442h-23zM145 0v1393h922v-252h-635v-320h559v-246h-559v-323h664v-252h-951z" />
    <glyph glyph-name="ecaron" unicode="&#x11b;" horiz-adv-x="1101" 
d="M537 985l-326 442h221l115 -133l117 133h221l-326 -442h-22zM556 666q-167 0 -200 -154h387q-20 154 -187 154zM586 211q121 0 219 70l158 -170q-147 -129 -375 -129t-370 127q-140 127 -140 327t138 327q138 128 355 128t342 -152t109 -387h-662q41 -141 226 -141z" />
    <glyph glyph-name="Gcircumflex" unicode="&#x11c;" horiz-adv-x="1513" 
d="M436 1511l326 443h22l326 -443h-221l-115 134l-117 -134h-221zM854 -18q-338 0 -547 202t-209 512q0 311 199 512t525 201t493 -192l-195 -193q-59 61 -129 94t-182 33q-186 0 -301 -128t-115 -328q0 -201 123 -329t338 -128q168 0 272 51v225h-335v252h598v-623
q-75 -61 -219 -111t-316 -50z" />
    <glyph glyph-name="gcircumflex" unicode="&#x11d;" horiz-adv-x="1130" 
d="M227 1024l326 442h22l326 -442h-221l-115 133l-116 -133h-222zM365 436q0 -100 51 -156t140 -57q89 1 142 57q54 56 54 155t-54 155t-142 57q-89 0 -140 -56q-51 -55 -51 -155zM551 -455q-305 0 -465 215l195 152q111 -135 258 -135q98 0 152 59t54 176v105
q-80 -135 -257 -135q-176 0 -292 130t-116 326t115 325q115 128 276 128q195 0 281 -154l-7 135h277v-870q0 -233 -132 -345t-339 -112z" />
    <glyph glyph-name="Gbreve" unicode="&#x11e;" horiz-adv-x="1513" 
d="M776 1509q-143 0 -231 80t-101 207l211 31q17 -117 121 -117t121 117l211 -31q-12 -127 -100 -207t-232 -80zM854 -18q-338 0 -547 202t-209 512q0 311 199 512t525 201t493 -192l-195 -193q-59 61 -129 94t-182 33q-186 0 -301 -128t-115 -328q0 -201 123 -329t338 -128
q168 0 272 51v225h-335v252h598v-623q-75 -61 -219 -111t-316 -50z" />
    <glyph glyph-name="gbreve" unicode="&#x11f;" horiz-adv-x="1130" 
d="M567 1024q-143 0 -231 80t-100 207l210 30q16 -117 120 -117t122 117l211 -30q-13 -127 -101 -207t-231 -80zM365 436q0 -100 51 -156t140 -57q89 1 142 57q54 56 54 155t-54 155t-142 57q-89 0 -140 -56q-51 -55 -51 -155zM551 -455q-305 0 -465 215l195 152
q111 -135 258 -135q98 0 152 59t54 176v105q-80 -135 -257 -135q-176 0 -292 130t-116 326t115 325q115 128 276 128q195 0 281 -154l-7 135h277v-870q0 -233 -132 -345t-339 -112z" />
    <glyph glyph-name="Gdotaccent" unicode="&#x120;" horiz-adv-x="1513" 
d="M778 1495q-72 0 -124 49t-52 124t52 124t124 49t123 -49t51 -124t-51 -124t-123 -49zM854 -18q-338 0 -547 202t-209 512q0 311 199 512t525 201t493 -192l-195 -193q-59 61 -129 94t-182 33q-186 0 -301 -128t-115 -328q0 -201 123 -329t338 -128q168 0 272 51v225h-335
v252h598v-623q-75 -61 -219 -111t-316 -50z" />
    <glyph glyph-name="gdotaccent" unicode="&#x121;" horiz-adv-x="1130" 
d="M569 1018q-72 0 -124 49t-52 124t52 124t124 49t123 -49t51 -124t-51 -124t-123 -49zM365 436q0 -100 51 -156t140 -57q89 1 142 57q54 56 54 155t-54 155t-142 57q-89 0 -140 -56q-51 -55 -51 -155zM551 -455q-305 0 -465 215l195 152q111 -135 258 -135q98 0 152 59
t54 176v105q-80 -135 -257 -135q-176 0 -292 130t-116 326t115 325q115 128 276 128q195 0 281 -154l-7 135h277v-870q0 -233 -132 -345t-339 -112z" />
    <glyph glyph-name="Gcommaaccent" unicode="&#x122;" horiz-adv-x="1513" 
d="M618 -240q0 66 46 111t110 45t112 -44t48 -118t-53 -160l-107 -174h-135l63 199q-84 41 -84 141zM854 -18q-338 0 -547 202t-209 512q0 311 199 512t525 201t493 -192l-195 -193q-59 61 -129 94t-182 33q-186 0 -301 -128t-115 -328q0 -201 123 -329t338 -128
q168 0 272 51v225h-335v252h598v-623q-75 -61 -219 -111t-316 -50z" />
    <glyph glyph-name="gcommaaccent" unicode="&#x123;" horiz-adv-x="1130" 
d="M725 1171q0 -67 -46 -111q-45 -44 -109 -44t-112 44t-48 118t53 159l106 174h136l-64 -198q84 -43 84 -142zM365 436q0 -100 51 -156t140 -57q89 1 142 57q54 56 54 155t-54 155t-142 57q-89 0 -140 -56q-51 -55 -51 -155zM551 -455q-305 0 -465 215l195 152
q111 -135 258 -135q98 0 152 59t54 176v105q-80 -135 -257 -135q-176 0 -292 130t-116 326t115 325q115 128 276 128q195 0 281 -154l-7 135h277v-870q0 -233 -132 -345t-339 -112z" />
    <glyph glyph-name="Hcircumflex" unicode="&#x124;" horiz-adv-x="1460" 
d="M389 1511l326 443h22l326 -443h-221l-115 134l-117 -134h-221zM145 0v1393h287v-590h596v590h287v-1393h-287v547h-596v-547h-287z" />
    <glyph glyph-name="hcircumflex" unicode="&#x125;" horiz-adv-x="1085" 
d="M201 1567l325 442h23l325 -442h-221l-114 133l-117 -133h-221zM109 0v1479h276v-744q82 156 270 156q145 -1 237 -103t91 -284v-504h-276v485q0 154 -146 154q-84 0 -130 -45t-46 -127v-467h-276z" />
    <glyph glyph-name="Hbar" unicode="&#x126;" horiz-adv-x="1460" 
d="M432 803h596v145h-596v-145zM2 948v195h143v250h287v-250h596v250h287v-250h143v-195h-143v-948h-287v547h-596v-547h-287v948h-143z" />
    <glyph glyph-name="hbar" unicode="&#x127;" horiz-adv-x="1085" 
d="M-23 999v230h132v250h276v-250h252v-230h-252v-264q82 156 270 156q145 -1 237 -103t91 -284v-504h-276v485q0 154 -146 154q-84 0 -130 -45t-46 -127v-467h-276v999h-132z" />
    <glyph glyph-name="Imacron" unicode="&#x12a;" horiz-adv-x="587" 
d="M25 1534v203h540v-203h-540zM152 0v1393h286v-1393h-286z" />
    <glyph glyph-name="imacron" unicode="&#x12b;" horiz-adv-x="514" 
d="M27 1057v203h458v-203h-458zM119 0v872h276v-872h-276z" />
    <glyph glyph-name="Iogonek" unicode="&#x12e;" horiz-adv-x="587" 
d="M152 0v1393h286v-1327l-123 -207q-35 -59 -44 -83t-9 -57q0 -59 57 -59q49 0 84 53l136 -78q-74 -127 -236 -127q-95 0 -157 54t-62 148q0 95 82 198l72 92h-86z" />
    <glyph glyph-name="iogonek" unicode="&#x12f;" horiz-adv-x="514" 
d="M119 0v872h276v-821l-114 -192q-53 -91 -53 -145t57 -54q49 0 84 53l135 -78q-74 -127 -236 -127q-94 0 -156 54t-62 148q0 95 81 198l72 92h-84zM258 1018q-72 0 -124 49t-52 124t52 124t124 49t123 -49t51 -124t-51 -124t-123 -49z" />
    <glyph glyph-name="Idotaccent" unicode="&#x130;" horiz-adv-x="587" 
d="M297 1495q-72 0 -124 49t-52 124t52 124t124 49t123 -49t51 -124t-51 -124t-123 -49zM152 0v1393h286v-1393h-286z" />
    <glyph glyph-name="dotlessi" unicode="&#x131;" horiz-adv-x="514" 
d="M119 0v872h276v-872h-276z" />
    <glyph glyph-name="Jcircumflex" unicode="&#x134;" horiz-adv-x="1015" 
d="M397 1511l326 443h22l326 -443h-221l-115 134l-117 -134h-221zM457 -18q-307 0 -430 262l233 141q29 -51 47 -77t54 -48q35 -22 97 -22t101 38t39 142v975h287v-979q-1 -216 -115 -324t-313 -108z" />
    <glyph glyph-name="jcircumflex" unicode="&#x135;" horiz-adv-x="512" 
d="M-88 1024l326 442h22l326 -442h-221l-115 133l-117 -133h-221zM82 -455q-72 0 -134 31t-98 74l138 164q37 -33 67 -33q63 0 64 69v1022h276v-1011q1 -152 -79 -234t-234 -82z" />
    <glyph glyph-name="Kcommaaccent" unicode="&#x136;" horiz-adv-x="1320" 
d="M518 -240q0 66 46 111t110 45t111 -44q49 -44 49 -118t-54 -160l-106 -174h-135l63 199q-84 41 -84 141zM145 0v1393h287v-461q0 -76 -18 -234q61 137 123 217l372 478h326l-475 -611l524 -782h-346l-371 567l-135 -161v-406h-287z" />
    <glyph glyph-name="kcommaaccent" unicode="&#x137;" horiz-adv-x="1011" 
d="M334 -240q0 66 46 111t109 45t111 -44t49 -118q0 -74 -53 -160l-107 -174h-135l64 199q-84 41 -84 141zM385 0h-276v1479h276v-754q0 -92 -14 -188l286 335h308l-310 -356l342 -516h-321l-217 330l-74 -78v-252z" />
    <glyph glyph-name="Lacute" unicode="&#x139;" horiz-adv-x="1148" 
d="M178 1511l107 385h315l-213 -385h-209zM145 0v1393h287v-1141h631v-252h-918z" />
    <glyph glyph-name="lacute" unicode="&#x13a;" horiz-adv-x="503" 
d="M147 1567l107 385h315l-213 -385h-209zM115 0v1479h274v-1479h-274z" />
    <glyph glyph-name="Lcommaaccent" unicode="&#x13b;" horiz-adv-x="1148" 
d="M426 -240q0 66 46 111t110 45t111 -44q48 -44 48 -118t-53 -160l-106 -174h-136l64 199q-84 41 -84 141zM145 0v1393h287v-1141h631v-252h-918z" />
    <glyph glyph-name="lcommaaccent" unicode="&#x13c;" horiz-adv-x="503" 
d="M94 -240q0 66 46 111t110 45t111 -44q49 -44 49 -118t-54 -160l-106 -174h-135l63 199q-84 41 -84 141zM115 0v1479h274v-1479h-274z" />
    <glyph glyph-name="Lcaron" unicode="&#x13d;" horiz-adv-x="1148" 
d="M145 0v1393h287v-1141h631v-252h-918zM649 1243q0 70 49 117t116 47t117 -47t50 -116t-61 -175l-123 -209h-133l77 234q-92 43 -92 149z" />
    <glyph glyph-name="lcaron" unicode="&#x13e;" horiz-adv-x="788" 
d="M115 0v1479h274v-1479h-274zM483 1243q0 70 49 117t116 47t117 -47t50 -116t-61 -175l-123 -209h-133l77 234q-92 43 -92 149z" />
    <glyph glyph-name="Lslash" unicode="&#x141;" horiz-adv-x="1169" 
d="M166 0v444l-152 -51v250l152 51v699h287v-598l368 127v-250l-368 -127v-293h630v-252h-917z" />
    <glyph glyph-name="lslash" unicode="&#x142;" horiz-adv-x="585" 
d="M156 0v424l-140 -78v266l140 78v789h274v-635l150 84v-266l-150 -84v-578h-274z" />
    <glyph glyph-name="Nacute" unicode="&#x143;" horiz-adv-x="1435" 
d="M606 1511l107 385h315l-213 -385h-209zM414 0h-269v1405h29l703 -660q52 -49 139 -155l24 -35q-18 158 -18 254v584h268v-1405h-28l-703 659q-63 59 -141 158l-25 33q20 -154 21 -254v-584z" />
    <glyph glyph-name="nacute" unicode="&#x144;" horiz-adv-x="1085" 
d="M430 1024l107 385h315l-213 -385h-209zM109 0v872h276l-6 -143q82 162 276 162q145 -1 237 -103t91 -284v-504h-276v485q0 154 -146 154q-84 0 -130 -45t-46 -127v-467h-276z" />
    <glyph glyph-name="Ncommaaccent" unicode="&#x145;" horiz-adv-x="1435" 
d="M610 -240q0 66 46 111t110 45t112 -44t48 -118t-54 -160l-106 -174h-135l63 199q-84 41 -84 141zM414 0h-269v1405h29l703 -660q52 -49 139 -155l24 -35q-18 158 -18 254v584h268v-1405h-28l-703 659q-63 59 -141 158l-25 33q20 -154 21 -254v-584z" />
    <glyph glyph-name="ncommaaccent" unicode="&#x146;" horiz-adv-x="1085" 
d="M377 -240q0 66 46 111t109 45q64 0 112 -44t48 -118t-53 -160l-107 -174h-135l64 199q-84 41 -84 141zM109 0v872h276l-6 -143q82 162 276 162q145 -1 237 -103t91 -284v-504h-276v485q0 154 -146 154q-84 0 -130 -45t-46 -127v-467h-276z" />
    <glyph glyph-name="Ncaron" unicode="&#x147;" horiz-adv-x="1435" 
d="M694 1493l-325 442h221l115 -133l116 133h221l-325 -442h-23zM414 0h-269v1405h29l703 -660q52 -49 139 -155l24 -35q-18 158 -18 254v584h268v-1405h-28l-703 659q-63 59 -141 158l-25 33q20 -154 21 -254v-584z" />
    <glyph glyph-name="ncaron" unicode="&#x148;" horiz-adv-x="1085" 
d="M520 985l-325 442h221l114 -133l117 133h221l-325 -442h-23zM109 0v872h276l-6 -143q82 162 276 162q145 -1 237 -103t91 -284v-504h-276v485q0 154 -146 154q-84 0 -130 -45t-46 -127v-467h-276z" />
    <glyph glyph-name="Omacron" unicode="&#x14c;" horiz-adv-x="1638" 
d="M549 1534v203h541v-203h-541zM819 238q188 0 307 131t119 327t-119 328q-119 131 -307 131t-307 -131t-119 -328q0 -198 119 -328t307 -130zM819 -18q-303 0 -512 204t-209 510q0 307 209 511t512 204t512 -204t209 -511q0 -306 -209 -510t-512 -204z" />
    <glyph glyph-name="omacron" unicode="&#x14d;" horiz-adv-x="1116" 
d="M287 1057v203h540v-203h-540zM559 215q90 0 143 60q54 59 54 159t-52 160t-145 59q-92 0 -145 -60q-54 -61 -54 -159t54 -158t145 -61zM559 -18q-205 0 -343 128t-138 326t138 326q138 129 343 129t342 -129t137 -327q0 -197 -137 -325t-342 -128z" />
    <glyph glyph-name="Ohungarumlaut" unicode="&#x150;" horiz-adv-x="1638" 
d="M524 1552l105 385h286l-182 -385h-209zM903 1552l105 385h286l-182 -385h-209zM819 238q188 0 307 131t119 327t-119 328q-119 131 -307 131t-307 -131t-119 -328q0 -198 119 -328t307 -130zM819 -18q-303 0 -512 204t-209 510q0 307 209 511t512 204t512 -204t209 -511
q0 -306 -209 -510t-512 -204z" />
    <glyph glyph-name="ohungarumlaut" unicode="&#x151;" horiz-adv-x="1116" 
d="M262 1024l105 385h286l-182 -385h-209zM641 1024l104 385h287l-182 -385h-209zM559 215q90 0 143 60q54 59 54 159t-52 160t-145 59q-92 0 -145 -60q-54 -61 -54 -159t54 -158t145 -61zM559 -18q-205 0 -343 128t-138 326t138 326q138 129 343 129t342 -129t137 -327
q0 -197 -137 -325t-342 -128z" />
    <glyph glyph-name="OE" unicode="&#x152;" horiz-adv-x="2041" 
d="M844 252h127v889h-127q-223 0 -337 -121t-114 -324q0 -204 114 -324t337 -120zM829 0q-321 0 -527 195t-206 501t205 502q205 195 528 195h1063v-252h-635v-320h560v-246h-560v-323h664v-252h-1092z" />
    <glyph glyph-name="oe" unicode="&#x153;" horiz-adv-x="1775" 
d="M559 215q90 0 143 60q54 59 54 159t-52 160t-145 59q-92 0 -145 -60q-54 -61 -54 -159t54 -158t145 -61zM1230 666q-167 0 -200 -154h387q-20 154 -187 154zM1260 211q121 0 219 70l157 -170q-146 -129 -380 -129t-359 151q-113 -151 -328 -151t-353 128t-138 326
t138 326q138 129 351 129t328 -150q115 150 341 150t350 -153t110 -386h-662q41 -141 226 -141z" />
    <glyph glyph-name="Racute" unicode="&#x154;" horiz-adv-x="1288" 
d="M514 1511l107 385h315l-213 -385h-209zM432 725h221q231 0 232 209q0 207 -232 207h-221v-416zM145 0v1393h517q229 0 373 -114t145 -345q0 -301 -273 -408l318 -526h-328l-283 483h-182v-483h-287z" />
    <glyph glyph-name="racute" unicode="&#x155;" horiz-adv-x="802" 
d="M336 1024l106 385h316l-213 -385h-209zM109 0v872h276l-4 -157q78 176 256 176q70 0 135 -35l-88 -252q-57 27 -106 27q-98 0 -146 -54t-47 -190v-387h-276z" />
    <glyph glyph-name="Rcommaaccent" unicode="&#x156;" horiz-adv-x="1288" 
d="M504 -240q0 66 46 111t109 45t111 -44t49 -118q0 -74 -53 -160l-107 -174h-135l64 199q-84 41 -84 141zM432 725h221q231 0 232 209q0 207 -232 207h-221v-416zM145 0v1393h517q229 0 373 -114t145 -345q0 -301 -273 -408l318 -526h-328l-283 483h-182v-483h-287z" />
    <glyph glyph-name="rcommaaccent" unicode="&#x157;" horiz-adv-x="802" 
d="M94 -240q0 66 46 111t110 45t111 -44q49 -44 49 -118t-54 -160l-106 -174h-135l63 199q-84 41 -84 141zM109 0v872h276l-4 -157q78 176 256 176q70 0 135 -35l-88 -252q-57 27 -106 27q-98 0 -146 -54t-47 -190v-387h-276z" />
    <glyph glyph-name="Rcaron" unicode="&#x158;" horiz-adv-x="1288" 
d="M604 1493l-325 442h221l114 -133l117 133h221l-325 -442h-23zM432 725h221q231 0 232 209q0 207 -232 207h-221v-416zM145 0v1393h517q229 0 373 -114t145 -345q0 -301 -273 -408l318 -526h-328l-283 483h-182v-483h-287z" />
    <glyph glyph-name="rcaron" unicode="&#x159;" horiz-adv-x="802" 
d="M426 985l-326 442h222l114 -133l117 133h221l-325 -442h-23zM109 0v872h276l-4 -157q78 176 256 176q70 0 135 -35l-88 -252q-57 27 -106 27q-98 0 -146 -54t-47 -190v-387h-276z" />
    <glyph glyph-name="Sacute" unicode="&#x15a;" horiz-adv-x="1099" 
d="M414 1511l106 385h316l-213 -385h-209zM1022 372q0 -178 -132 -284t-332 -106t-334 79q-132 80 -199 213l233 136q106 -174 283 -174q88 0 141 40t53 94q0 94 -93 143q-36 19 -116 54l-71 31q-170 74 -257 171t-87 261t115 272q116 108 304 107q138 0 238 -54t170 -175
l-223 -144q-68 123 -185 123q-61 0 -99 -35t-38 -92t39 -92t137 -78l72 -31q199 -86 290 -183t91 -276z" />
    <glyph glyph-name="sacute" unicode="&#x15b;" horiz-adv-x="862" 
d="M328 1024l106 385h316l-213 -385h-209zM442 -18q-258 0 -397 165l162 144q96 -92 216 -92t120 53q0 35 -61 50l-36 9q-16 3 -46 11l-54 14q-252 66 -252 278q0 139 94 208t244 69q201 0 318 -121l-148 -158q-78 66 -170 66t-92 -51q0 -31 28 -43q56 -24 146 -39
q287 -66 287 -273q-1 -290 -359 -290z" />
    <glyph glyph-name="Scircumflex" unicode="&#x15c;" horiz-adv-x="1099" 
d="M186 1511l326 443h23l325 -443h-221l-115 134l-116 -134h-222zM1022 372q0 -178 -132 -284t-332 -106t-334 79q-132 80 -199 213l233 136q106 -174 283 -174q88 0 141 40t53 94q0 94 -93 143q-36 19 -116 54l-71 31q-170 74 -257 171t-87 261t115 272q116 108 304 107
q138 0 238 -54t170 -175l-223 -144q-68 123 -185 123q-61 0 -99 -35t-38 -92t39 -92t137 -78l72 -31q199 -86 290 -183t91 -276z" />
    <glyph glyph-name="scircumflex" unicode="&#x15d;" horiz-adv-x="862" 
d="M92 1024l326 442h22l326 -442h-221l-115 133l-117 -133h-221zM442 -18q-258 0 -397 165l162 144q96 -92 216 -92t120 53q0 35 -61 50l-36 9q-16 3 -46 11l-54 14q-252 66 -252 278q0 139 94 208t244 69q201 0 318 -121l-148 -158q-78 66 -170 66t-92 -51q0 -31 28 -43
q56 -24 146 -39q287 -66 287 -273q-1 -290 -359 -290z" />
    <glyph glyph-name="Scedilla" unicode="&#x15e;" horiz-adv-x="1099" 
d="M551 -492q-170 0 -242 123l131 80q31 -57 88 -57q31 0 53 18t21 52q0 70 -84 69h-69v195q-301 39 -424 286l233 136q106 -174 283 -174q88 0 141 40t53 94q0 94 -93 143q-36 19 -116 54l-71 31q-170 74 -257 171t-87 261t115 272q116 108 304 107q138 0 238 -54t170 -175
l-223 -144q-68 123 -185 123q-61 0 -99 -35t-38 -92t39 -92t137 -78l72 -31q199 -86 290 -183t91 -271q0 -175 -119 -279t-313 -114v-64q78 -14 130 -68t52 -144t-66 -144q-66 -56 -155 -56z" />
    <glyph glyph-name="scedilla" unicode="&#x15f;" horiz-adv-x="862" 
d="M440 -492q-170 0 -241 123l131 80q31 -57 88 -57q30 0 52 18t22 52q0 70 -84 69h-70v197q-184 27 -293 157l162 144q96 -92 216 -92t120 53q0 35 -61 50l-36 9q-16 3 -46 11l-54 14q-252 66 -252 278q0 139 94 208t244 69q201 0 318 -121l-148 -158q-78 66 -170 66
t-92 -51q0 -31 28 -43q56 -24 146 -39q287 -66 287 -273q0 -274 -322 -288v-64q78 -14 130 -68q53 -54 53 -144t-67 -144q-67 -56 -155 -56z" />
    <glyph glyph-name="Scaron" unicode="&#x160;" horiz-adv-x="1099" 
d="M512 1493l-326 442h222l114 -133l117 133h221l-325 -442h-23zM1022 372q0 -178 -132 -284t-332 -106t-334 79q-132 80 -199 213l233 136q106 -174 283 -174q88 0 141 40t53 94q0 94 -93 143q-36 19 -116 54l-71 31q-170 74 -257 171t-87 261t115 272q116 108 304 107
q138 0 238 -54t170 -175l-223 -144q-68 123 -185 123q-61 0 -99 -35t-38 -92t39 -92t137 -78l72 -31q199 -86 290 -183t91 -276z" />
    <glyph glyph-name="scaron" unicode="&#x161;" horiz-adv-x="862" 
d="M418 985l-326 442h221l115 -133l117 133h221l-326 -442h-22zM442 -18q-258 0 -397 165l162 144q96 -92 216 -92t120 53q0 35 -61 50l-36 9q-16 3 -46 11l-54 14q-252 66 -252 278q0 139 94 208t244 69q201 0 318 -121l-148 -158q-78 66 -170 66t-92 -51q0 -31 28 -43
q56 -24 146 -39q287 -66 287 -273q-1 -290 -359 -290z" />
    <glyph glyph-name="Tcommaaccent" unicode="&#x162;" horiz-adv-x="1212" 
d="M604 -84q64 0 112 -44t48 -118t-53 -160l-107 -174h-135l63 199q-84 41 -83 141q0 66 46 111t109 45zM463 0v1141h-397v252h1081v-252h-397v-1141h-287z" />
    <glyph glyph-name="tcommaaccent" unicode="&#x163;" horiz-adv-x="782" 
d="M270 -240q0 66 46 111t110 45t112 -44t48 -118t-54 -160l-106 -174h-135l63 199q-84 41 -84 141zM496 -23q-303 0 -303 351v315h-130v229h130v312h274v-312h223v-229h-223v-324q0 -61 18 -83q19 -22 57 -23q38 0 93 37l104 -193q-98 -80 -243 -80z" />
    <glyph glyph-name="Tcaron" unicode="&#x164;" horiz-adv-x="1212" 
d="M592 1493l-326 442h221l115 -133l117 133h221l-326 -442h-22zM463 0v1141h-397v252h1081v-252h-397v-1141h-287z" />
    <glyph glyph-name="tcaron" unicode="&#x165;" horiz-adv-x="1034" 
d="M496 -23q-303 0 -303 351v315h-130v229h130v312h274v-312h223v-229h-223v-324q0 -61 18 -83q19 -22 57 -23q38 0 93 37l104 -193q-98 -80 -243 -80zM729 1243q0 70 49 117t116 47t117 -47t50 -116t-62 -175l-122 -209h-134l78 234q-92 43 -92 149z" />
    <glyph glyph-name="Umacron" unicode="&#x16a;" horiz-adv-x="1404" 
d="M432 1534v203h541v-203h-541zM1266 504q0 -254 -156 -388t-406 -134q-251 0 -408 134t-157 388v889h287v-873q0 -150 67 -216t211 -64q144 0 210 66t65 214v873h287v-889z" />
    <glyph glyph-name="umacron" unicode="&#x16b;" horiz-adv-x="1081" 
d="M272 1057v203h541v-203h-541zM428 -18q-145 0 -235 102t-91 285v503h277v-485q0 -156 145 -156q82 0 127 45t45 130v466h277v-872h-277l6 143q-81 -161 -274 -161z" />
    <glyph glyph-name="Ubreve" unicode="&#x16c;" horiz-adv-x="1404" 
d="M702 1509q-143 0 -231 80t-100 207l211 31q16 -117 120 -117t121 117l211 -31q-12 -127 -100 -207t-232 -80zM1266 504q0 -254 -156 -388t-406 -134q-251 0 -408 134t-157 388v889h287v-873q0 -150 67 -216t211 -64q144 0 210 66t65 214v873h287v-889z" />
    <glyph glyph-name="ubreve" unicode="&#x16d;" horiz-adv-x="1081" 
d="M543 1024q-143 0 -232 80q-88 80 -100 207l211 30q16 -117 120 -117t122 117l210 -30q-12 -127 -100 -207t-231 -80zM428 -18q-145 0 -235 102t-91 285v503h277v-485q0 -156 145 -156q82 0 127 45t45 130v466h277v-872h-277l6 143q-81 -161 -274 -161z" />
    <glyph glyph-name="Uring" unicode="&#x16e;" horiz-adv-x="1404" 
d="M702 1589q39 0 64 25q25 26 25 68t-25 67t-64 25q-40 0 -64 -25t-24 -68t24 -67t64 -25zM702 1438q-112 0 -188 72t-76 171q0 100 77 172t187 72t188 -72q77 -72 77 -172q0 -99 -77 -171t-188 -72zM1266 504q0 -254 -156 -388t-406 -134q-251 0 -408 134t-157 388v889
h287v-873q0 -150 67 -216t211 -64q144 0 210 66t65 214v873h287v-889z" />
    <glyph glyph-name="uring" unicode="&#x16f;" horiz-adv-x="1081" 
d="M543 1122q39 0 63 25t25 67q0 42 -25 68q-26 25 -64 25t-63 -25t-25 -68q0 -44 26 -68q24 -24 63 -24zM543 971q-111 -1 -188 71t-76 172q0 100 76 172q77 72 188 72t187 -72t77 -172q-1 -100 -77 -172t-187 -71zM428 -18q-145 0 -235 102t-91 285v503h277v-485
q0 -156 145 -156q82 0 127 45t45 130v466h277v-872h-277l6 143q-81 -161 -274 -161z" />
    <glyph glyph-name="Uhungarumlaut" unicode="&#x170;" horiz-adv-x="1404" 
d="M408 1552l104 385h287l-183 -385h-208zM786 1552l105 385h287l-183 -385h-209zM1266 504q0 -254 -156 -388t-406 -134q-251 0 -408 134t-157 388v889h287v-873q0 -150 67 -216t211 -64q144 0 210 66t65 214v873h287v-889z" />
    <glyph glyph-name="uhungarumlaut" unicode="&#x171;" horiz-adv-x="1081" 
d="M248 1024l104 385h287l-182 -385h-209zM627 1024l104 385h287l-182 -385h-209zM428 -18q-145 0 -235 102t-91 285v503h277v-485q0 -156 145 -156q82 0 127 45t45 130v466h277v-872h-277l6 143q-81 -161 -274 -161z" />
    <glyph glyph-name="Uogonek" unicode="&#x172;" horiz-adv-x="1404" 
d="M139 1393h287v-873q0 -150 67 -216t211 -64q144 0 210 66t65 214v873h287v-889q0 -224 -123 -356t-328 -158l-78 -131q-53 -90 -53 -140q0 -59 57 -59q49 0 84 53l136 -78q-74 -127 -236 -127q-95 0 -157 54t-62 148q0 95 82 198l59 76q-229 14 -368 147t-140 373v889z
" />
    <glyph glyph-name="uogonek" unicode="&#x173;" horiz-adv-x="1081" 
d="M102 872h277v-485q0 -156 145 -156q82 0 127 45t45 130v466h277v-806l-123 -207q-53 -90 -53 -140q0 -59 57 -59q49 0 84 53l135 -78q-74 -127 -235 -127q-94 0 -156 54t-64 148q0 95 82 198l72 92h-76l6 143q-82 -162 -274 -161q-145 0 -235 102t-91 285v503z" />
    <glyph glyph-name="Ydieresis" unicode="&#x178;" horiz-adv-x="1304" 
d="M885 1513q-61 1 -109 47t-47 109q0 63 47 109q46 46 108 47q62 0 109 -46q47 -45 47 -109t-47 -110t-108 -47zM459 1513q-61 1 -109 47t-47 109q0 63 47 109q46 46 108 47q62 0 109 -46q47 -45 47 -109t-47 -110t-108 -47zM524 0v510l-483 883h321l197 -379
q57 -115 113 -262q43 129 108 262l189 379h295l-451 -863v-530h-289z" />
    <glyph glyph-name="Zacute" unicode="&#x179;" horiz-adv-x="1208" 
d="M524 1511l107 385h315l-213 -385h-209zM55 0v25l639 1116h-526v252h969v-25l-637 -1116h602v-252h-1047z" />
    <glyph glyph-name="zacute" unicode="&#x17a;" horiz-adv-x="905" 
d="M356 1024l107 385h315l-213 -385h-209zM47 0v23l379 626h-332v223h754v-22l-387 -627h354v-223h-768z" />
    <glyph glyph-name="Zdotaccent" unicode="&#x17b;" horiz-adv-x="1208" 
d="M631 1495q-72 0 -124 49t-52 124t52 124t124 49t123 -49t51 -124t-51 -124t-123 -49zM55 0v25l639 1116h-526v252h969v-25l-637 -1116h602v-252h-1047z" />
    <glyph glyph-name="zdotaccent" unicode="&#x17c;" horiz-adv-x="905" 
d="M463 1018q-72 0 -124 49t-52 124t52 124t124 49t123 -49t51 -124t-51 -124t-123 -49zM47 0v23l379 626h-332v223h754v-22l-387 -627h354v-223h-768z" />
    <glyph glyph-name="Zcaron" unicode="&#x17d;" horiz-adv-x="1208" 
d="M614 1493l-325 442h221l115 -133l116 133h222l-326 -442h-23zM55 0v25l639 1116h-526v252h969v-25l-637 -1116h602v-252h-1047z" />
    <glyph glyph-name="zcaron" unicode="&#x17e;" horiz-adv-x="905" 
d="M446 985l-325 442h221l115 -133l116 133h222l-326 -442h-23zM47 0v23l379 626h-332v223h754v-22l-387 -627h354v-223h-768z" />
    <glyph glyph-name="florin" unicode="&#x192;" horiz-adv-x="835" 
d="M68 371v221h147l39 330q39 344 342 344q168 0 260 -125l-164 -158q-31 49 -80 49q-74 0 -86 -88l-41 -352h217v-221h-241l-92 -805h-271l92 805h-122z" />
    <glyph glyph-name="Scommaaccent" unicode="&#x218;" horiz-adv-x="1099" 
d="M369 -240q0 66 46 111t109 45q64 0 112 -44t48 -118t-53 -160l-107 -174h-135l64 199q-84 41 -84 141zM1022 372q0 -178 -132 -284t-332 -106t-334 79q-132 80 -199 213l233 136q106 -174 283 -174q88 0 141 40t53 94q0 94 -93 143q-36 19 -116 54l-71 31
q-170 74 -257 171t-87 261t115 272q116 108 304 107q138 0 238 -54t170 -175l-223 -144q-68 123 -185 123q-61 0 -99 -35t-38 -92t39 -92t137 -78l72 -31q199 -86 290 -183t91 -276z" />
    <glyph glyph-name="scommaaccent" unicode="&#x219;" horiz-adv-x="862" 
d="M274 -240q0 66 46 111t110 45t112 -44t48 -118t-53 -160l-107 -174h-135l63 199q-84 41 -84 141zM442 -18q-258 0 -397 165l162 144q96 -92 216 -92t120 53q0 35 -61 50l-36 9q-16 3 -46 11l-54 14q-252 66 -252 278q0 139 94 208t244 69q201 0 318 -121l-148 -158
q-78 66 -170 66t-92 -51q0 -31 28 -43q56 -24 146 -39q287 -66 287 -273q-1 -290 -359 -290z" />
    <glyph glyph-name="uni021A" unicode="&#x21a;" horiz-adv-x="1212" 
d="M463 0v1141h-397v252h1081v-252h-397v-1141h-80v-80q78 -14 130 -68t52 -144t-67 -144q-67 -55 -154 -56q-170 0 -242 123l131 80q31 -57 88 -57q30 0 52 18t22 52q0 70 -84 69h-70v207h-65z" />
    <glyph glyph-name="uni021B" unicode="&#x21b;" horiz-adv-x="782" 
d="M496 -23h-4v-57q78 -14 130 -68t52 -144t-67 -144q-67 -55 -154 -56q-170 0 -242 123l131 80q31 -57 88 -57q30 0 52 18t22 52q0 70 -84 69h-70v211q-158 70 -157 324v315h-130v229h130v312h274v-312h223v-229h-223v-324q0 -61 18 -83q19 -22 57 -23q38 0 93 37l104 -193
q-98 -80 -243 -80z" />
    <glyph glyph-name="uni0237" unicode="&#x237;" horiz-adv-x="512" 
d="M82 -455q-72 0 -134 31t-98 74l138 164q37 -33 67 -33q63 0 64 69v1022h276v-1011q1 -152 -79 -234t-234 -82z" />
    <glyph glyph-name="circumflex" unicode="&#x2c6;" 
d="M174 1024l326 442h22l326 -442h-221l-115 133l-117 -133h-221z" />
    <glyph glyph-name="caron" unicode="&#x2c7;" 
d="M502 985l-326 442h221l115 -133l117 133h221l-326 -442h-22z" />
    <glyph glyph-name="breve" unicode="&#x2d8;" 
d="M512 1024q-143 0 -231 80t-101 207l211 30q17 -117 121 -117t121 117l211 -30q-12 -127 -100 -207t-232 -80z" />
    <glyph glyph-name="dotaccent" unicode="&#x2d9;" 
d="M512 1018q-72 0 -124 49t-52 124t52 124t124 49t123 -49t51 -124t-51 -124t-123 -49z" />
    <glyph glyph-name="ring" unicode="&#x2da;" 
d="M512 1122q40 0 64 25t24 67t-25 68q-25 25 -63 25t-64 -25q-24 -25 -24 -68q0 -44 24 -68t64 -24zM512 971q-112 -1 -188 71t-76 172t77 172t187 72t188 -72q76 -72 76 -172t-76 -172t-188 -71z" />
    <glyph glyph-name="ogonek" unicode="&#x2db;" 
d="M498 -492q-94 0 -156 54t-63 148q0 95 81 198l72 92h162l-84 -141q-53 -90 -53 -140q0 -59 57 -59q49 0 84 53l135 -78q-73 -127 -235 -127z" />
    <glyph glyph-name="tilde" unicode="&#x2dc;" 
d="M635 1036q-63 0 -129 41l-30 20q-17 11 -30 21t-38 10q-52 0 -60 -92l-186 19q8 139 70 213t157 73q63 0 129 -41q12 -8 30 -19t33 -21q16 -10 35 -11q51 0 60 92l186 -18q-8 -139 -69 -213t-158 -74z" />
    <glyph glyph-name="hungarumlaut" unicode="&#x2dd;" 
d="M219 1024l105 385h286l-182 -385h-209zM598 1024l104 385h287l-182 -385h-209z" />
    <glyph glyph-name="endash" unicode="&#x2013;" horiz-adv-x="831" 
d="M61 342v246h709v-246h-709z" />
    <glyph glyph-name="emdash" unicode="&#x2014;" horiz-adv-x="1345" 
d="M61 342v246h1223v-246h-1223z" />
    <glyph glyph-name="quoteleft" unicode="&#x2018;" horiz-adv-x="495" 
d="M249 846q-67 0 -117 47t-50 116t61 175l123 209h133l-77 -234q92 -43 92 -149q0 -70 -49 -117t-116 -47z" />
    <glyph glyph-name="quoteright" unicode="&#x2019;" horiz-adv-x="495" 
d="M82 1243q0 70 49 117t116 47t117 -47t50 -116t-62 -175l-123 -209h-133l78 234q-92 43 -92 149z" />
    <glyph glyph-name="quotesinglbase" unicode="&#x201a;" horiz-adv-x="495" 
d="M82 174q0 70 49 117t116 47t117 -47t50 -116t-62 -175l-123 -209h-133l78 234q-92 43 -92 149z" />
    <glyph glyph-name="quotedblleft" unicode="&#x201c;" horiz-adv-x="940" 
d="M249 846q-67 0 -117 47t-50 116t61 175l123 209h133l-77 -234q92 -43 92 -149q0 -70 -49 -117t-116 -47zM693 846q-67 0 -117 47q-102 97 12 291l123 209h133l-78 -234q92 -43 92 -149q0 -70 -49 -117t-116 -47z" />
    <glyph glyph-name="quotedblright" unicode="&#x201d;" horiz-adv-x="940" 
d="M82 1243q0 70 49 117t116 47t117 -47t50 -116t-62 -175l-123 -209h-133l78 234q-92 43 -92 149zM526 1243q0 70 49 117t116 47t117 -47t50 -116t-61 -175l-123 -209h-133l77 234q-92 43 -92 149z" />
    <glyph glyph-name="quotedblbase" unicode="&#x201e;" horiz-adv-x="940" 
d="M82 174q0 70 49 117t116 47t117 -47t50 -116t-62 -175l-123 -209h-133l78 234q-92 43 -92 149zM526 174q0 70 49 117t116 47t117 -47t50 -116t-61 -175l-123 -209h-133l77 234q-92 43 -92 149z" />
    <glyph glyph-name="dagger" unicode="&#x2020;" horiz-adv-x="741" 
d="M246 494v473h-183v227h183v199h250v-199h182v-227h-182v-473h-250z" />
    <glyph glyph-name="daggerdbl" unicode="&#x2021;" horiz-adv-x="741" 
d="M246 494v198h-183v203h183v96h-183v203h183v199h250v-199h182v-203h-182v-96h182v-203h-182v-198h-250z" />
    <glyph glyph-name="bullet" unicode="&#x2022;" horiz-adv-x="567" 
d="M283 348q-88 0 -154 65t-66 157t65 156t155 64q89 0 155 -62q66 -64 66 -158t-66 -158t-155 -64z" />
    <glyph glyph-name="ellipsis" unicode="&#x2026;" horiz-adv-x="1513" 
d="M256 -12q-72 0 -123 49t-51 124t51 124t122 49t122 -49t51 -124t-50 -124t-122 -49zM758 -12q-72 0 -123 49t-51 124t51 124t122 49t122 -49t51 -124t-50 -124t-122 -49zM1260 -12q-72 0 -123 49t-51 124t50 124q52 49 123 49t121 -49t52 -124q0 -75 -50 -124t-122 -49z
" />
    <glyph glyph-name="perthousand" unicode="&#x2030;" horiz-adv-x="2506" 
d="M1366 188q43 0 75 32t32 83t-32 83t-75 32t-75 -32q-31 -32 -31 -83t32 -83t74 -32zM2122 188q42 0 74 32t32 83t-32 83t-74 32t-75 -32q-32 -32 -32 -83t32 -83t75 -32zM387 651q43 0 75 32t32 83t-32 83t-75 32t-75 -32t-32 -83t32 -83t75 -32zM1700 302
q0 -138 -98 -229t-237 -91q-140 0 -238 91q-97 91 -97 229t98 230t238 92t236 -92q98 -92 98 -230zM2121 -18q-140 0 -238 91q-97 91 -97 229t98 230t238 92t236 -92q98 -92 98 -230t-98 -229t-237 -91zM401 0l676 1069h273l-676 -1069h-273zM387 1087q139 0 237 -92
t97 -230q1 -137 -97 -229t-238 -92t-238 92t-97 229q1 138 99 230t237 92z" />
    <glyph glyph-name="guilsinglleft" unicode="&#x2039;" horiz-adv-x="591" 
d="M260 66l-194 344v16l194 338h266l-200 -346l200 -352h-266z" />
    <glyph glyph-name="guilsinglright" unicode="&#x203a;" horiz-adv-x="591" 
d="M66 66l200 346l-200 352h266l194 -344v-17l-194 -337h-266z" />
    <glyph glyph-name="fraction" unicode="&#x2044;" horiz-adv-x="925" 
d="M-86 0l823 1393h275l-824 -1393h-274z" />
    <glyph glyph-name="Euro" unicode="&#x20ac;" horiz-adv-x="1224" 
d="M53 580v176h160q63 152 201 242t294 89q158 0 256 -43t179 -141l-191 -160q-86 109 -225 109t-217 -96h256v-176h-322q-2 -14 -2 -43t2 -43h322v-177h-256q80 -98 226 -98t227 125l202 -151q-80 -113 -182 -162t-266 -49t-302 92t-202 243h-160v177h119q-2 14 -2 43t2 43
h-119z" />
    <glyph glyph-name="trademark" unicode="&#x2122;" horiz-adv-x="1456" 
d="M238 774v467h-166v152h520v-152h-166v-467h-188zM698 774v627h21l301 -301l301 301h20v-627h-184v252l-127 -145h-18l-129 145v-252h-185z" />
    <glyph glyph-name="summation" unicode="&#x2211;" horiz-adv-x="1280" 
d="M1178 252v-252h-1092v25l506 673l-514 670v25h1071v-252h-399l-177 6q66 -66 115 -131l225 -305v-25l-233 -313q-33 -43 -119 -129l12 2l166 6h439z" />
    <glyph glyph-name="minus" unicode="&#x2212;" horiz-adv-x="841" 
d="M762 424h-682v242h682v-242z" />
    <glyph glyph-name="space_uni0326" 
d="M354 -240q0 66 46 111t110 45t112 -44t48 -118t-54 -160l-106 -174h-135l63 199q-84 41 -84 141z" />
    <glyph glyph-name="idotaccent" horiz-adv-x="514" 
d="M119 0v872h276v-872h-276zM258 1018q-72 0 -124 49t-52 124t52 124t124 49t123 -49t51 -124t-51 -124t-123 -49z" />
    <glyph glyph-name="space.lining" horiz-adv-x="452" 
 />
    <glyph glyph-name="dollar.lining" horiz-adv-x="1126" 
d="M766 374q0 103 -129 158v-294q129 33 129 136zM385 1032q0 -51 26 -86t89 -61v276q-55 -10 -85 -44t-30 -85zM500 1583h137v-180q238 -29 354 -225l-221 -142q-47 88 -133 117v-317q207 -76 311 -178t104 -278q0 -178 -113 -278q-114 -100 -302 -116v-224h-137v222
q-160 12 -280 88t-185 198l231 133q50 -83 102 -123t132 -51v353q-197 70 -297 174q-101 104 -101 266t109 266t289 119v176z" />
    <glyph glyph-name="cent.lining" horiz-adv-x="989" 
d="M354 438q0 -80 35 -136t96 -79v422q-131 -43 -131 -207zM78 438q0 180 113 303q114 123 294 146v221h138v-221q182 -16 307 -170l-193 -156q-39 63 -114 84v-424q59 16 120 78l183 -160q-121 -137 -303 -153v-224h-138v224q-179 24 -293 148t-114 304z" />
    <glyph glyph-name="Euro.lining" horiz-adv-x="1359" 
d="M780 -18q-202 0 -360 122t-219 345h-148v196h119q-2 14 -2 49t2 49h-119v197h148q57 219 214 344t361 125q348 0 502 -299l-248 -135q-45 94 -103 138t-153 44q-195 0 -276 -217h401v-197h-438q-2 -14 -2 -48t2 -50h438v-196h-399q86 -217 280 -218q98 -1 163 51t114 156
l248 -127q-152 -329 -525 -329z" />
    <glyph glyph-name="sterling.lining" horiz-adv-x="1318" 
d="M313 283q-84 0 -84 -66q0 -29 23 -47t59 -18q86 0 119 86q-61 45 -117 45zM180 559v197h117q-57 125 -57 233q0 186 131 303t346 117q313 0 450 -266l-231 -123q-74 145 -219 145q-186 0 -187 -176q0 -92 64 -233h412v-197h-332q31 -93 31 -163t-13 -120q106 -55 206 -55
t187 103l175 -164q-84 -100 -163 -140t-208 -38q-164 0 -297 110q-115 -111 -293 -110q-113 0 -187 64t-73 167q0 102 74 169t170 67t163 -29q-12 69 -49 139h-217z" />
    <glyph glyph-name="yen.lining" horiz-adv-x="1349" 
d="M547 0v252h-414v197h414v61l-33 57h-381v197h275l-345 629h322l201 -383q51 -96 96 -219l16 -43q57 160 109 262l184 383h295l-321 -629h284v-197h-385l-28 -55v-63h413v-197h-413v-252h-289z" />
    <glyph glyph-name="florin.lining" horiz-adv-x="839" 
d="M68 442v222h159l47 401q39 344 342 344q170 0 263 -125l-166 -158q-31 49 -80 50q-74 0 -86 -89l-49 -423h215v-222h-240l-100 -876h-271l101 876h-135z" />
    <glyph glyph-name="zero.lining" horiz-adv-x="1388" 
d="M694 236q141 0 228 115q86 116 86 345t-86 345t-228 116t-227 -116q-86 -116 -86 -345q0 -228 86 -344t227 -116zM694 -18q-118 0 -226 43t-196 127t-139 225t-51 319t51 320t139 225q178 170 423 170t421 -170q88 -84 139 -225q51 -142 51 -320t-50 -319
q-93 -255 -335 -352q-108 -43 -227 -43z" />
    <glyph glyph-name="one.lining" horiz-adv-x="749" 
d="M313 0v1137h-250v256h539v-1393h-289z" />
    <glyph glyph-name="two.lining" horiz-adv-x="1157" 
d="M16 0v25l574 598q193 201 192 340q0 78 -48 130t-138 52q-180 0 -248 -230l-291 58q45 197 185 317t357 119q216 0 346 -124t130 -320q0 -115 -55 -224t-178 -237l-172 -180q-53 -53 -99 -80q63 8 115 8h381v-252h-1051z" />
    <glyph glyph-name="three.lining" horiz-adv-x="1161" 
d="M582 -18q-210 0 -360 91q-151 91 -214 236l246 127q100 -195 297 -194q113 0 181 64t67 168q0 102 -76 164t-199 62t-213 -34l-14 22l283 379l69 80q-61 -6 -110 -6h-402v252h946v-25l-272 -369q-41 -59 -90 -100q162 -37 266 -149t105 -291q0 -227 -150 -352t-360 -125z
" />
    <glyph glyph-name="four.lining" horiz-adv-x="1327" 
d="M535 438h243v260l15 138q-43 -63 -97 -119l-188 -197q-35 -37 -115 -100q92 18 142 18zM778 0v203h-700v217l964 1001h25v-983h182v-235h-182v-203h-289z" />
    <glyph glyph-name="five.lining" horiz-adv-x="1189" 
d="M575 -18q-195 0 -337 86t-211 225l245 127q96 -178 303 -178q113 0 179 60t66 162t-77 158q-76 54 -208 54q-186 0 -349 -129l-24 12v834h854v-252h-604v-262q78 37 194 36q227 0 370 -123q142 -124 142 -338t-148 -343t-395 -129z" />
    <glyph glyph-name="six.lining" horiz-adv-x="1224" 
d="M612 725q-114 0 -180 -72t-66 -172q0 -101 67 -171q66 -70 178 -70q111 0 177 70t66 170q0 101 -64 173q-65 72 -178 72zM1151 477q-1 -207 -151 -351t-386 -144t-388 140t-152 330t137 398l367 543h323l-205 -303q-46 -71 -127 -146l-26 -22q63 25 141 24
q197 0 332 -131t135 -338z" />
    <glyph glyph-name="seven.lining" horiz-adv-x="1171" 
d="M51 1137v256h1090v-25l-656 -1368h-305l541 1137h-670z" />
    <glyph glyph-name="eight.lining" horiz-adv-x="1189" 
d="M600 868q63 0 108 42q44 42 44 104t-43 103q-43 40 -109 40t-108 -40t-43 -102q0 -63 44 -105t107 -42zM823 442q0 92 -62 148q-61 56 -165 57q-104 0 -166 -56q-62 -57 -61 -149q-1 -92 61 -149t165 -57t166 57q62 57 62 149zM1114 428q0 -198 -141 -322t-378 -124
t-378 124t-141 322q0 119 62 207t177 135q-145 94 -145 261t127 273t303 105q176 0 303 -105q127 -106 127 -274t-149 -262q233 -102 233 -340z" />
    <glyph glyph-name="nine.lining" horiz-adv-x="1224" 
d="M611 1153q-111 0 -177 -70t-66 -171q0 -100 65 -172q64 -72 177 -72t180 72q66 72 66 171q0 100 -66 171q-67 71 -179 71zM537 444q-199 0 -331 131t-132 339t150 353q151 144 386 144t388 -140q153 -141 153 -331t-137 -397l-367 -543h-317l211 313q36 57 106 138l21 18
q-53 -25 -131 -25z" />
    <glyph glyph-name="percent.lining" horiz-adv-x="1939" 
d="M1495 199q61 0 102 45q41 46 41 114t-41 112t-102 44t-101 -44t-40 -113t40 -113t101 -45zM442 877q61 0 103 45q41 46 41 114t-41 112t-103 44t-101 -44q-40 -44 -40 -113t40 -113t101 -45zM1495 -18q-157 0 -271 108t-114 268q0 158 114 266t272 108t272 -108t114 -267
t-116 -267t-271 -108zM397 0l871 1393h274l-870 -1393h-275zM442 659q-156 0 -270 109q-114 110 -115 268q0 158 114 266q113 108 271 108t273 -108t115 -267t-116 -267t-272 -109z" />
    <glyph glyph-name="perthousand.lining" horiz-adv-x="2807" 
d="M1495 199q61 0 102 45q41 46 41 114t-41 112t-102 44t-101 -44t-40 -113t40 -113t101 -45zM2363 199q61 0 103 45q41 46 41 114t-41 112q-40 44 -102 44t-102 -44t-40 -113t40 -113t101 -45zM442 877q61 0 103 45q41 46 41 114t-41 112t-103 44t-101 -44
q-40 -44 -40 -113t40 -113t101 -45zM1495 -18q-157 0 -271 108t-114 268q0 158 114 266t272 108t272 -108t114 -267t-116 -267t-271 -108zM2363 -18q-157 0 -271 108t-114 268q0 158 114 266t272 108t272 -108t114 -267t-116 -267t-271 -108zM397 0l871 1393h274l-870 -1393
h-275zM442 659q-156 0 -270 109q-114 110 -115 268q0 158 114 266q113 108 271 108t273 -108t115 -267t-116 -267t-272 -109z" />
    <glyph glyph-name="plus.lining" horiz-adv-x="923" 
d="M338 260v266h-258v242h258v266h248v-266h258v-242h-258v-266h-248z" />
    <glyph glyph-name="minus.lining" horiz-adv-x="923" 
d="M844 526h-764v242h764v-242z" />
    <glyph glyph-name="multiply.lining" horiz-adv-x="903" 
d="M451 465l-226 -225l-159 159l225 226l-228 227l160 160l228 -228l229 230l160 -160l-230 -229l228 -228l-160 -159z" />
    <glyph glyph-name="divide.lining" horiz-adv-x="923" 
d="M463 86q-72 0 -122 49t-50 124t50 124t121 49t122 -49t51 -124t-50 -124t-122 -49zM463 862q-72 0 -122 49t-50 124t50 124t121 49t122 -49t51 -124t-50 -124t-122 -49zM844 526h-764v242h764v-242z" />
    <glyph glyph-name="equal.lining" horiz-adv-x="911" 
d="M74 313v236h764v-236h-764zM74 672v235h764v-235h-764z" />
    <glyph glyph-name="less.lining" horiz-adv-x="815" 
d="M739 250l-692 383v20l692 379v-239l-301 -152l301 -152v-239z" />
    <glyph glyph-name="greater.lining" horiz-adv-x="815" 
d="M76 250v239l301 152l-301 152v239l692 -383v-20z" />
    <glyph glyph-name="degree.lining" horiz-adv-x="765" 
d="M383 983q53 0 87 35t34 90t-34 89t-87 34t-87 -34t-34 -89t34 -90t87 -35zM383 805q-133 0 -227 89t-94 215t94 213t227 87t227 -87t94 -213t-94 -215t-227 -89z" />
    <glyph glyph-name="period.lining" horiz-adv-x="509" 
d="M256 -12q-72 0 -123 49t-51 124t51 124t122 49t122 -49t51 -124t-50 -124t-122 -49z" />
    <glyph glyph-name="comma.lining" horiz-adv-x="509" 
d="M82 166q0 72 51 120t122 48t122 -49t51 -117t-61 -180l-121 -224h-140l78 246q-102 47 -102 156z" />
    <glyph glyph-name="colon.lining" horiz-adv-x="530" 
d="M266 -12q-72 0 -123 49t-51 124t51 124t122 49t122 -49t51 -124t-50 -124t-122 -49zM266 459q-72 0 -123 49t-51 124t51 124t122 49t122 -49t51 -124t-50 -124t-122 -49z" />
    <glyph glyph-name="semicolon.lining" horiz-adv-x="530" 
d="M265 334q71 0 122 -49t51 -117t-61 -180l-121 -224h-139l78 246q-102 47 -103 156q0 72 51 120t122 48zM266 459q-72 0 -123 49t-51 124t51 124t122 49t122 -49t51 -124t-50 -124t-122 -49z" />
    <glyph glyph-name="parenleft.lining" horiz-adv-x="704" 
d="M100 596q0 502 387 877l166 -134q-131 -157 -197 -333t-65 -410q0 -426 262 -743l-166 -134q-387 375 -387 877z" />
    <glyph glyph-name="parenright.lining" horiz-adv-x="704" 
d="M604 596q0 -502 -387 -877l-166 134q131 157 197 333t65 410q0 426 -262 743l166 134q387 -375 387 -877z" />
    <glyph glyph-name="bracketleft.lining" horiz-adv-x="690" 
d="M123 -262v1741h506v-234h-230v-1274h230v-233h-506z" />
    <glyph glyph-name="bracketright.lining" horiz-adv-x="690" 
d="M61 -262v233h230v1274h-230v234h506v-1741h-506z" />
    <glyph glyph-name="braceleft.lining" horiz-adv-x="847" 
d="M612 -262q-324 0 -323 295v319q0 72 -28 104t-89 31h-119v234h119q61 0 89 32t28 103v328q0 295 323 295h174v-234h-149q-41 0 -55 -16t-15 -53v-355q0 -186 -190 -217q190 -31 190 -217v-346q1 -37 15 -53t55 -17h149v-233h-174z" />
    <glyph glyph-name="braceright.lining" horiz-adv-x="847" 
d="M61 -262v233h150q41 1 55 17t15 53v346q0 186 190 217q-190 31 -190 217v355q-1 37 -15 53t-55 16h-150v234h175q324 0 323 -295v-328q0 -72 28 -104t89 -31h119v-234h-119q-61 1 -89 -31t-28 -104v-319q0 -295 -323 -295h-175z" />
    <glyph glyph-name="section.lining" horiz-adv-x="1177" 
d="M834 404q0 60 -30 86q-30 28 -106 63l-227 104l-49 25q-78 -31 -78 -100q0 -43 25 -69t82 -52l227 -107q55 -25 84 -45q72 35 72 95zM997 -52q1 -140 -115 -228q-116 -89 -300 -89t-304 65q-122 65 -192 165l217 155q92 -135 244 -135q82 0 118 25q35 26 35 60t-28 59
q-29 25 -111 63l-227 107q-137 63 -202 142t-64 189q0 199 202 271q-86 101 -86 249t112 256t304 107q252 0 393 -207l-225 -151q-72 111 -168 110q-59 0 -89 -33q-30 -34 -30 -76t23 -73t86 -59l227 -105q153 -72 223 -156t70 -204q0 -184 -195 -271q82 -96 82 -236z" />
    <glyph glyph-name="numbersign.lining" horiz-adv-x="1077" 
d="M444 831h154l39 154h-154zM66 623v208h161l39 154h-110v209h161l52 199h215l-52 -199h154l51 199h215l-49 -199h109v-209h-160l-39 -154h109v-208h-162l-51 -207h-215l51 207h-154l-51 -207h-215l51 207h-110z" />
    <glyph glyph-name="space.tab" horiz-adv-x="409" 
 />
    <glyph glyph-name="dollar.tab" horiz-adv-x="1064" 
d="M369 801q0 -37 20 -59t76 -42v179q-96 -14 -96 -78zM711 289q0 39 -22 63t-87 47v-200q109 12 109 90zM119 782q0 124 89 208q89 83 257 95v207h137v-211q178 -27 297 -180l-178 -135q-51 80 -119 102v-206q365 -111 365 -359q0 -301 -365 -319v-222h-137v224
q-279 23 -402 250l203 114q39 -68 83 -104t116 -47v241q-188 54 -267 136t-79 206z" />
    <glyph glyph-name="cent.tab" horiz-adv-x="1064" 
d="M391 435q0 -167 131 -210v420q-131 -43 -131 -210zM522 1108h137v-221q182 -16 308 -170l-193 -156q-35 61 -115 84v-424q57 14 121 78l183 -160q-123 -137 -304 -155v-222h-137v224q-178 24 -293 148t-115 303t115 303t293 147v221z" />
    <glyph glyph-name="Euro.tab" horiz-adv-x="1064" 
d="M43 580v176h131q55 152 179 242t284 89q258 0 395 -196l-192 -152q-80 115 -201 115t-178 -98h227v-176h-272q-2 -14 -2 -43t2 -43h272v-177h-231q53 -100 179 -100t204 127l209 -131q-135 -231 -408 -231q-160 0 -286 92t-181 243h-131v177h94q-2 14 -2 43t2 43h-94z
" />
    <glyph glyph-name="sterling.tab" horiz-adv-x="1064" 
d="M260 256q-61 0 -61 -56t65 -58q65 -1 94 67q-53 47 -98 47zM113 502v209h102q-39 102 -39 180q0 164 109 269t305 106q272 0 387 -234l-227 -129q-33 63 -67 90t-94 27t-97 -38t-37 -106t32 -165h261v-209h-187q37 -111 37 -213q0 -16 -2 -25q82 -43 141 -43q59 1 89 15
t65 53l162 -166q-104 -141 -295 -141q-131 0 -254 92q-92 -92 -222 -92t-202 62t-72 160t65 155t143 57t130 -19q-14 48 -41 105h-192z" />
    <glyph glyph-name="yen.tab" horiz-adv-x="1064" 
d="M72 197v176h319v14l-51 100h-268v177h176l-211 405h307l137 -295q33 -66 62 -194q18 104 63 194l139 295h283l-211 -405h174v-177h-266l-53 -102v-12h319v-176h-319v-197h-281v197h-319z" />
    <glyph glyph-name="florin.tab" horiz-adv-x="1064" 
d="M129 371v221h203l35 311q20 176 113 269t247 94q211 0 311 -166l-184 -142q-43 74 -113 74q-90 0 -104 -123l-35 -317h254v-221h-281l-22 -201q-23 -201 -45 -403l-23 -201h-270q6 51 15 134t30 259q20 176 33 295l12 117h-176z" />
    <glyph glyph-name="zero.tab" horiz-adv-x="1064" 
d="M350 537q0 -147 48 -229t135 -81q87 0 135 80q47 81 47 229t-47 227q-46 79 -134 79t-136 -79t-48 -226zM532 -18q-207 0 -341 154t-134 402q0 250 134 400t341 150t341 -152q135 -150 135 -398t-134 -402t-342 -154z" />
    <glyph glyph-name="one.tab" horiz-adv-x="1064" 
d="M412 229v611h-222v229h502v-840h219v-229h-737v229h238z" />
    <glyph glyph-name="two.tab" horiz-adv-x="1064" 
d="M72 0v25l407 432q76 79 101 107q73 80 71 157q0 53 -36 85t-93 32q-123 0 -178 -164l-258 69q37 162 155 253t300 91q181 0 289 -101t108 -253t-215 -381l-31 -33q-59 -61 -123 -94l29 2q28 2 62 5t51 4h237v-236h-876z" />
    <glyph glyph-name="three.tab" horiz-adv-x="1064" 
d="M500 -211q-180 0 -296 81t-169 206l241 121q63 -162 224 -162q86 0 136 56q50 55 50 153t-70 146t-169 48t-168 -37l-21 25l246 344q30 43 67 80q-63 -10 -125 -10h-299v229h824v-22l-258 -351q-12 -20 -62 -67q135 -25 231 -127t97 -272q0 -170 -124 -306t-355 -135z
" />
    <glyph glyph-name="four.tab" horiz-adv-x="1064" 
d="M616 199v200q0 104 11 125l-34 -51q-15 -23 -32 -39l-147 -164q-34 -39 -88 -77q51 6 106 6h184zM883 207h135v-207h-135v-193h-275v193h-563v182l809 899h29v-874z" />
    <glyph glyph-name="five.tab" horiz-adv-x="1064" 
d="M512 -211q-176 0 -294 78t-165 192l242 121q55 -145 213 -145q88 0 138 51t50 134t-55 131t-160 48q-147 0 -272 -100l-25 10v760h717v-229h-487v-238q49 31 149 31q190 0 309 -119t119 -301t-123 -303t-356 -121z" />
    <glyph glyph-name="six.tab" horiz-adv-x="1064" 
d="M536 221q78 0 124 50t47 124q-1 74 -47 125t-124 51t-125 -51q-46 -51 -46 -124t46 -124t125 -51zM537 -18q-188 0 -318 111q-129 112 -129 298t158 408l317 448h312l-271 -383q-37 -51 -133 -119q66 35 127 35q162 0 272 -105t109 -285q0 -180 -128 -294t-316 -114z" />
    <glyph glyph-name="seven.tab" horiz-adv-x="1064" 
d="M90 840v229h891v-22l-539 -1240h-292l452 1033h-512z" />
    <glyph glyph-name="eight.tab" horiz-adv-x="1064" 
d="M535 782q57 0 92 35t35 95t-35 94t-93 34t-96 -33q-37 -35 -37 -95q1 -60 39 -95t95 -35zM535 225q84 0 131 45t47 126t-48 128t-131 47q-84 0 -132 -47t-48 -128t48 -126t133 -45zM993 373q-1 -177 -127 -285t-330 -108t-333 108t-129 285q0 213 209 305
q-150 78 -150 236q1 158 105 254t300 98q196 0 298 -98t102 -254q0 -158 -150 -236q205 -90 205 -305z" />
    <glyph glyph-name="nine.tab" horiz-adv-x="1064" 
d="M529 498q79 0 125 51t46 124t-46 124t-125 51t-125 -50t-46 -124t46 -125t125 -51zM465 289q-161 0 -271 105q-110 106 -110 286t128 294t316 114t318 -112q129 -112 129 -298t-158 -408l-328 -463h-311l281 398q47 66 133 117q-66 -33 -127 -33z" />
    <glyph glyph-name="percent.tab" horiz-adv-x="1536" 
d="M1210 180q82 0 82 123t-82 123t-82 -123t82 -123zM328 643q82 0 82 123t-82 123t-82 -123t82 -123zM1209 -18q-128 0 -213 90t-85 230t85 232t213 91q128 0 213 -91q85 -90 85 -230t-85 -231t-213 -91zM293 0l676 1069h272l-676 -1069h-272zM625 766q0 -138 -85 -230
t-213 -92t-213 90t-85 231q0 140 85 231t213 91t213 -91t85 -230z" />
    <glyph glyph-name="perthousand.tab" horiz-adv-x="2252" 
d="M1241 180q82 0 82 123t-82 123t-82 -123t82 -123zM1913 180q82 0 82 123t-82 123t-82 -123t82 -123zM342 643q82 0 82 123t-82 123t-82 -123t82 -123zM1240 -18q-128 0 -213 90t-85 230t85 232t213 91q128 0 213 -91q85 -90 85 -230t-85 -231t-213 -91zM1912 -18
q-128 0 -213 90t-85 230t85 232t213 91q128 0 213 -91q85 -90 85 -230t-85 -231t-213 -91zM315 0l676 1069h273l-676 -1069h-273zM639 766q0 -138 -85 -230t-213 -92t-213 90t-85 231q0 140 85 231t213 91t213 -91t85 -230z" />
    <glyph glyph-name="plus.tab" horiz-adv-x="1064" 
d="M655 424v-266h-247v266h-258v242h258v266h247v-266h258v-242h-258z" />
    <glyph glyph-name="minus.tab" horiz-adv-x="1064" 
d="M150 424v242h765v-242h-765z" />
    <glyph glyph-name="multiply.tab" horiz-adv-x="1064" 
d="M532 377l-215 -215l-167 168l215 215l-215 215l167 168l215 -215l216 215l167 -168l-215 -215l215 -215l-167 -168z" />
    <glyph glyph-name="divide.tab" horiz-adv-x="1064" 
d="M696 188q0 -72 -48 -118t-117 -47q-69 0 -117 47q-48 46 -47 118q0 72 48 118q49 46 117 46t116 -46t48 -118zM150 424v242h763v-242h-763zM531 737q-69 0 -117 47t-47 119q0 72 48 118q49 46 117 46t116 -46t48 -118t-48 -119t-117 -47z" />
    <glyph glyph-name="equal.tab" horiz-adv-x="1064" 
d="M143 236v235h779v-235h-779zM143 571v236h779v-236h-779z" />
    <glyph glyph-name="less.tab" horiz-adv-x="1064" 
d="M854 106l-713 383v21l713 379v-240l-301 -151l301 -152v-240z" />
    <glyph glyph-name="greater.tab" horiz-adv-x="1064" 
d="M211 106v240l301 152l-301 151v240l713 -383v-21z" />
    <glyph glyph-name="degree.tab" horiz-adv-x="716" 
d="M358 713q45 -1 74 29t29 77t-29 76t-74 29q-46 0 -74 -29t-28 -76t28 -77t74 -29zM645 820q0 -114 -84 -192t-202 -79q-119 0 -203 79q-84 78 -84 192t84 191t202 77t203 -78q84 -76 84 -190z" />
    <glyph glyph-name="period.tab" horiz-adv-x="409" 
d="M204 -12q-69 0 -117 47t-48 119t48 118t117 45q69 0 117 -46q48 -45 48 -117t-48 -119t-117 -47z" />
    <glyph glyph-name="comma.tab" horiz-adv-x="409" 
d="M39 158q0 68 49 114t117 45q68 0 116 -46t48 -109t-60 -174l-119 -224h-131l78 246q-98 45 -98 148z" />
    <glyph glyph-name="colon.tab" horiz-adv-x="409" 
d="M204 -12q-69 0 -117 47t-48 119t48 118t117 45q69 0 117 -46q48 -45 48 -117t-48 -119t-117 -47zM204 467q-69 0 -117 47t-48 118t49 118t117 47t116 -47t48 -118t-48 -118t-117 -47z" />
    <glyph glyph-name="semicolon.tab" horiz-adv-x="409" 
d="M39 158q0 68 49 114t117 45q68 0 116 -46t48 -109t-60 -174l-119 -224h-131l78 246q-98 45 -98 148zM204 467q-69 0 -117 47t-48 118t49 118t117 47t116 -47t48 -118t-48 -118t-117 -47z" />
    <glyph glyph-name="parenleft.tab" horiz-adv-x="614" 
d="M70 596q0 201 54 375t122 280t166 215l170 -120q-115 -160 -168 -335q-54 -175 -54 -414t54 -415t168 -336l-170 -120q-156 172 -249 376t-93 494z" />
    <glyph glyph-name="parenright.tab" horiz-adv-x="614" 
d="M254 597q0 239 -53 414t-168 335l170 120q98 -109 166 -215q67 -106 121 -280t55 -375q0 -290 -93 -494t-249 -376l-170 120q115 160 168 336t53 415z" />
    <glyph glyph-name="bracketleft.tab" horiz-adv-x="614" 
d="M84 -262v1741h485v-234h-209v-1274h209v-233h-485z" />
    <glyph glyph-name="bracketright.tab" horiz-adv-x="614" 
d="M43 -262v233h209v1274h-209v234h485v-1741h-485z" />
    <glyph glyph-name="braceleft.tab" horiz-adv-x="614" 
d="M475 -262q-324 0 -323 295v319q0 72 -28 104t-89 31h-37v234h37q61 0 89 32t28 103v328q0 295 323 295h96v-234h-71q-42 0 -56 -16t-14 -53v-355q0 -186 -190 -217q190 -31 190 -217v-346q0 -37 14 -53t56 -17h71v-233h-96z" />
    <glyph glyph-name="braceright.tab" horiz-adv-x="614" 
d="M43 -262v233h72q41 1 55 17t14 53v346q0 186 191 217q-190 31 -191 217v355q0 37 -14 53t-55 16h-72v234h96q324 0 324 -295v-328q-1 -72 27 -104t90 -31h36v-234h-36q-61 0 -90 -31q-28 -32 -27 -104v-319q0 -295 -324 -295h-96z" />
    <glyph glyph-name="section.tab" horiz-adv-x="1064" 
d="M764 440q0 78 -107 119l-211 80q-49 16 -81 37q-53 -25 -54 -86q0 -84 101 -121l198 -74q50 -18 95 -41q59 29 59 86zM895 78q1 -135 -99 -212t-262 -77t-272 65q-111 65 -147 154l215 113q55 -109 172 -109t116 62q0 49 -77 78l-193 73q-154 59 -222 134t-69 188
q0 162 187 229q-62 78 -62 198t100 206t244 86t229 -52t142 -157l-219 -107q-53 94 -131 94q-53 0 -79 -22t-26 -53q0 -66 76 -92l211 -78q289 -106 289 -310q0 -162 -174 -241q51 -70 51 -170z" />
    <glyph glyph-name="numbersign.tab" horiz-adv-x="1064" 
d="M623 852h-142l-35 -137h142zM150 852v217h163l49 199h224l-49 -199h139l49 199h221l-49 -199h109v-217h-162l-35 -137h106v-217h-161l-52 -207h-221l51 207h-141l-51 -207h-221l51 207h-111v217h166l35 137h-110z" />
    <glyph glyph-name="space.tablining" horiz-adv-x="409" 
 />
    <glyph glyph-name="dollar.tablining" horiz-adv-x="1187" 
d="M526 1161q-57 -12 -86 -48q-28 -36 -28 -82t22 -80t92 -64v274zM793 379q0 94 -129 151v-294q129 29 129 143zM129 1019q1 159 107 267t290 121v176h138v-180q238 -29 354 -225l-221 -142q-47 88 -133 117v-317q200 -70 308 -174t108 -278t-107 -278q-106 -106 -309 -120
v-224h-138v222q-317 23 -465 286l232 133q35 -55 57 -84t69 -57q46 -28 107 -33v355q-197 70 -297 173t-100 262z" />
    <glyph glyph-name="cent.tablining" horiz-adv-x="1187" 
d="M442 435q0 -167 131 -210v420q-131 -43 -131 -210zM166 437q0 179 115 303t292 147v221h138v-221q182 -16 307 -170l-193 -156q-35 61 -114 84v-424q57 14 120 78l183 -160q-123 -137 -303 -155v-222h-138v224q-179 24 -293 148t-114 303z" />
    <glyph glyph-name="Euro.tablining" horiz-adv-x="1187" 
d="M669 -18q-179 0 -320 117q-140 118 -193 350h-127v196h104q-2 14 -2 48t2 50h-104v197h127q51 227 190 348t326 121q336 0 465 -319l-248 -117q-39 98 -90 142t-131 44q-162 0 -219 -219h290v-197h-317q-2 -16 -2 -49t2 -49h317v-196h-288q31 -105 89 -161t135 -56
t132 48q55 50 96 156l254 -108q-72 -184 -190 -266q-119 -80 -298 -80z" />
    <glyph glyph-name="sterling.tablining" horiz-adv-x="1187" 
d="M292 283q-42 -1 -62 -19t-21 -46t21 -47t53 -19q77 0 104 88q-53 43 -95 43zM141 559v197h119q-53 125 -53 233q0 186 122 303t328 117q287 0 402 -242l-230 -120q-31 67 -69 93t-106 26t-112 -45q-44 -44 -44 -132t53 -233h360v-197h-293q27 -93 27 -159t-10 -121
q90 -57 178 -57t178 97l176 -165q-141 -172 -348 -172q-145 0 -276 112q-100 -113 -264 -112q-106 0 -184 65q-77 66 -77 167t72 168t180 67q66 0 127 -23q-10 59 -45 133h-211z" />
    <glyph glyph-name="yen.tablining" horiz-adv-x="1187" 
d="M92 252v197h365v67l-25 51h-340v197h252l-297 629h307l174 -404q39 -90 74 -250q27 135 76 250l174 404h287l-295 -629h252v-197h-338l-25 -51v-67h363v-197h-363v-252h-276v252h-365z" />
    <glyph glyph-name="florin.tablining" horiz-adv-x="1187" 
d="M201 442v222h200l45 383q20 176 114 269t247 93q211 0 311 -166l-184 -141q-43 74 -113 74q-90 0 -104 -123l-45 -389h256v-222h-281l-100 -876h-271l101 876h-176z" />
    <glyph glyph-name="zero.tablining" horiz-adv-x="1187" 
d="M594 236q117 0 174 122t57 338q0 215 -57 338t-174 123t-174 -123q-58 -123 -58 -338q0 -216 58 -338t174 -122zM594 -18q-236 0 -383 184t-148 530t147 530t384 185q236 0 383 -184q147 -185 147 -531t-147 -530t-383 -184z" />
    <glyph glyph-name="one.tablining" horiz-adv-x="1187" 
d="M532 0v1137h-331v256h620v-1393h-289z" />
    <glyph glyph-name="two.tablining" horiz-adv-x="1187" 
d="M27 0v25l559 596q186 201 186 342q0 80 -45 131t-135 51q-166 0 -232 -225l-286 57q45 201 175 317t346 115q216 0 343 -124q127 -125 127 -331t-227 -452l-166 -178q-16 -18 -53 -46t-48 -34q63 8 115 8h371v-252h-1030z" />
    <glyph glyph-name="three.tablining" horiz-adv-x="1187" 
d="M592 -18q-212 0 -350 86t-207 235l246 127q47 -90 110 -139t174 -49t175 62t65 168q0 106 -76 166q-76 62 -199 62t-213 -34l-14 22l277 379l69 80q-61 -6 -110 -6h-373v252h915v-25l-266 -369q-43 -62 -86 -98q172 -41 270 -153t99 -291q0 -227 -147 -351t-359 -124z
" />
    <glyph glyph-name="four.tablining" horiz-adv-x="1187" 
d="M690 438v234l15 139q-41 -68 -84 -115l-152 -168q-66 -66 -111 -102q78 12 152 12h180zM975 438h170v-235h-170v-203h-285v203h-631v209l891 1009h25v-983z" />
    <glyph glyph-name="five.tablining" horiz-adv-x="1187" 
d="M561 -18q-180 0 -314 84t-198 219l246 127q82 -174 266 -174q106 0 168 59q61 59 61 165t-71 160q-73 54 -181 54t-178 -33t-143 -92l-24 10v832h780v-252h-531v-258q70 33 170 32q217 1 347 -123q131 -124 131 -337t-146 -343t-383 -130z" />
    <glyph glyph-name="six.tablining" horiz-adv-x="1187" 
d="M594 236q102 0 162 66q59 67 59 164t-59 165q-60 67 -162 67t-162 -66q-59 -67 -59 -165t59 -165q60 -66 162 -66zM1106 463q0 -203 -142 -342t-368 -139q-227 0 -371 136q-143 136 -143 330t123 379l377 566h323l-233 -357q-53 -80 -129 -141q51 25 108 25
q197 0 326 -127t129 -330z" />
    <glyph glyph-name="seven.tablining" horiz-adv-x="1187" 
d="M96 1137v256h1022v-25l-594 -1368h-305l496 1137h-619z" />
    <glyph glyph-name="eight.tablining" horiz-adv-x="1187" 
d="M598 872q66 0 109 41t43 103t-43 102q-43 39 -109 39t-109 -39t-43 -101q0 -61 43 -103t109 -42zM594 236q106 0 166 55q59 55 59 149t-59 148q-60 54 -166 55q-106 0 -166 -54q-60 -55 -59 -149q-1 -94 59 -149t166 -55zM1110 428q0 -198 -140 -322t-377 -124t-377 124
t-140 322q0 240 237 342q-145 92 -145 260t127 274t303 105q176 0 303 -105q127 -106 127 -274t-149 -262q111 -49 171 -137t60 -203z" />
    <glyph glyph-name="nine.tablining" horiz-adv-x="1187" 
d="M594 692q102 0 161 67q58 67 58 165t-58 165q-59 67 -161 67t-161 -67q-58 -67 -58 -164q1 -97 59 -165t160 -68zM535 471q-197 0 -325 127t-128 330t141 342t369 139t370 -136q144 -136 144 -332t-129 -382l-387 -559h-318l248 354q61 88 125 140q-55 -23 -110 -23z" />
    <glyph glyph-name="percent.tablining" horiz-adv-x="1638" 
d="M1268 190q51 0 77 46t25 120q0 166 -102 166t-103 -166q0 -74 26 -120t77 -46zM371 868q51 0 77 46t25 120q0 166 -102 166t-103 -166q0 -74 26 -120t77 -46zM1268 -18q-141 0 -238 105q-96 105 -96 270t96 269t238 105q142 0 237 -104q97 -103 97 -269t-96 -271
t-238 -105zM246 0l876 1393h269l-877 -1393h-268zM371 659q-141 -1 -237 105t-97 271q0 165 96 269q95 104 237 105q142 0 238 -104q96 -103 96 -269t-96 -272t-237 -105z" />
    <glyph glyph-name="perthousand.tablining" horiz-adv-x="2375" 
d="M1268 190q51 0 77 46t25 120q0 166 -102 166t-103 -166q0 -74 26 -120t77 -46zM2005 190q51 0 77 46t25 120q0 166 -102 166t-102 -166q-1 -74 25 -120t77 -46zM371 868q51 0 77 46t25 120q0 166 -102 166t-103 -166q0 -74 26 -120t77 -46zM1268 -18q-141 0 -238 105
q-96 105 -96 270t96 269t238 105q142 0 237 -104q97 -103 97 -269t-96 -271t-238 -105zM2005 -18q-141 0 -238 105q-96 105 -96 270t96 269q95 104 237 105q142 0 238 -104q96 -103 97 -269q-1 -166 -97 -271t-237 -105zM246 0l876 1393h269l-877 -1393h-268zM371 659
q-141 -1 -237 105t-97 271q0 165 96 269q95 104 237 105q142 0 238 -104q96 -103 96 -269t-96 -272t-237 -105z" />
    <glyph glyph-name="plus.tablining" horiz-adv-x="1187" 
d="M717 526v-307h-248v307h-299v242h299v307h248v-307h299v-242h-299z" />
    <glyph glyph-name="minus.tablining" horiz-adv-x="1187" 
d="M170 526v242h846v-242h-846z" />
    <glyph glyph-name="multiply.tablining" horiz-adv-x="1187" 
d="M594 465l-225 -225l-160 159l225 226l-227 227l160 160l227 -228l229 230l160 -160l-229 -229l227 -228l-160 -159z" />
    <glyph glyph-name="divide.tablining" horiz-adv-x="1187" 
d="M594 86q-72 0 -122 49t-50 124t50 124t121 49t122 -49t51 -124t-50 -124t-122 -49zM170 526v242h846v-242h-846zM594 862q-72 0 -122 49t-50 124t50 124t121 49t122 -49t51 -124t-50 -124t-122 -49z" />
    <glyph glyph-name="equal.tablining" horiz-adv-x="1187" 
d="M170 313v236h846v-236h-846zM170 672v235h846v-235h-846z" />
    <glyph glyph-name="less.tablining" horiz-adv-x="1187" 
d="M965 219l-795 414v20l795 410v-240l-371 -182l371 -182v-240z" />
    <glyph glyph-name="greater.tablining" horiz-adv-x="1187" 
d="M223 219v240l371 182l-371 182v240l795 -410v-20z" />
    <glyph glyph-name="degree.tablining" horiz-adv-x="819" 
d="M410 983q53 0 87 35t33 90q0 55 -33 89q-34 34 -87 34t-87 -34t-34 -89t34 -90t87 -35zM410 805q-133 0 -228 89q-94 89 -94 215t94 213t228 87t227 -87q94 -87 94 -213t-94 -215t-227 -89z" />
    <glyph glyph-name="period.tablining" horiz-adv-x="409" 
d="M204 -12q-69 0 -117 47t-48 119t48 118t117 45q69 0 117 -46q48 -45 48 -117t-48 -119t-117 -47z" />
    <glyph glyph-name="comma.tablining" horiz-adv-x="409" 
d="M39 158q0 68 49 114t117 45q68 0 116 -46t48 -109t-60 -174l-119 -224h-131l78 246q-98 45 -98 148z" />
    <glyph glyph-name="colon.tablining" horiz-adv-x="409" 
d="M204 -12q-69 0 -117 47t-48 119t48 118t117 45q69 0 117 -46q48 -45 48 -117t-48 -119t-117 -47zM204 467q-69 0 -117 47t-48 118t49 118t117 47t116 -47t48 -118t-48 -118t-117 -47z" />
    <glyph glyph-name="semicolon.tablining" horiz-adv-x="409" 
d="M39 158q0 68 49 114t117 45q68 0 116 -46t48 -109t-60 -174l-119 -224h-131l78 246q-98 45 -98 148zM204 467q-69 0 -117 47t-48 118t49 118t117 47t116 -47t48 -118t-48 -118t-117 -47z" />
    <glyph glyph-name="parenleft.tablining" horiz-adv-x="614" 
d="M70 596q0 201 54 375t122 280t166 215l170 -120q-115 -160 -168 -335q-54 -175 -54 -414t54 -415t168 -336l-170 -120q-156 172 -249 376t-93 494z" />
    <glyph glyph-name="parenright.tablining" horiz-adv-x="614" 
d="M254 597q0 239 -53 414t-168 335l170 120q98 -109 166 -215q67 -106 121 -280t55 -375q0 -290 -93 -494t-249 -376l-170 120q115 160 168 336t53 415z" />
    <glyph glyph-name="bracketleft.tablining" horiz-adv-x="614" 
d="M84 -262v1741h485v-234h-209v-1274h209v-233h-485z" />
    <glyph glyph-name="bracketright.tablining" horiz-adv-x="614" 
d="M43 -262v233h209v1274h-209v234h485v-1741h-485z" />
    <glyph glyph-name="braceleft.tablining" horiz-adv-x="614" 
d="M475 -262q-324 0 -323 295v319q0 72 -28 104t-89 31h-37v234h37q61 0 89 32t28 103v328q0 295 323 295h96v-234h-71q-42 0 -56 -16t-14 -53v-355q0 -186 -190 -217q190 -31 190 -217v-346q0 -37 14 -53t56 -17h71v-233h-96z" />
    <glyph glyph-name="braceright.tablining" horiz-adv-x="614" 
d="M43 -262v233h72q41 1 55 17t14 53v346q0 186 191 217q-190 31 -191 217v355q0 37 -14 53t-55 16h-72v234h96q324 0 324 -295v-328q-1 -72 27 -104t90 -31h36v-234h-36q-61 0 -90 -31q-28 -32 -27 -104v-319q0 -295 -324 -295h-96z" />
    <glyph glyph-name="section.tablining" horiz-adv-x="1187" 
d="M834 404q0 60 -30 86q-30 28 -106 63l-227 104l-49 25q-78 -31 -78 -100q0 -43 25 -69t82 -52l227 -107q55 -25 84 -45q72 35 72 95zM184 1046q0 148 112 256t304 107q252 0 393 -207l-225 -151q-72 111 -168 110q-59 0 -89 -33q-30 -34 -30 -76t23 -73t86 -59l227 -105
q153 -72 223 -156t70 -204q0 -184 -195 -271q82 -96 82 -236q1 -140 -115 -228q-116 -89 -300 -89t-304 65q-122 65 -192 165l217 155q92 -135 244 -135q82 0 118 25q35 26 35 60t-28 59q-29 25 -111 63l-227 107q-137 63 -202 142t-64 189q-1 199 202 271q-86 101 -86 249z
" />
    <glyph glyph-name="numbersign.tablining" horiz-adv-x="1187" 
d="M688 977h-149l-35 -137h149zM184 977v217h187l49 199h223l-49 -199h147l50 199h221l-49 -199h131v-217h-185l-35 -137h130v-217h-185l-51 -207h-221l51 207h-149l-52 -207h-221l51 207h-133v217h189l34 137h-133z" />
    <glyph glyph-name="zero.numerator" horiz-adv-x="1064" 
d="M532 627q92 0 147 71q54 72 54 205t-54 205q-55 72 -147 72t-146 -72t-54 -205t54 -205t146 -71zM532 397q-200 -1 -334 139t-135 367t135 367t334 139q198 0 334 -139q135 -138 135 -366t-135 -368t-334 -139z" />
    <glyph glyph-name="one.numerator" horiz-adv-x="641" 
d="M254 416v745h-203v232h463v-977h-260z" />
    <glyph glyph-name="two.numerator" horiz-adv-x="911" 
d="M27 416v24l426 434q109 111 108 201q0 45 -33 73t-84 28q-111 0 -168 -134l-233 82q106 285 403 285q174 0 276 -90q102 -91 101 -237q0 -146 -159 -312l-50 -51q-51 -55 -122 -90l24 2q54 8 123 8h178v-223h-790z" />
    <glyph glyph-name="three.numerator" horiz-adv-x="886" 
d="M424 399q-303 0 -401 240l227 104q45 -113 172 -112q61 0 100 35t39 94q0 131 -147 131q-82 0 -138 -19l-14 27l133 191l82 92q-90 -10 -125 -11h-225v222h700v-23l-170 -242q-49 -66 -77 -75q108 -19 178 -101t69 -207q-1 -166 -117 -256t-286 -90z" />
    <glyph glyph-name="four.numerator" horiz-adv-x="976" 
d="M463 731h84v90l8 133q-51 -70 -96 -110l-37 -35l-105 -86q84 8 146 8zM547 416v119h-479v200l710 674h21v-678h127v-196h-127v-119h-252z" />
    <glyph glyph-name="five.numerator" horiz-adv-x="917" 
d="M442 399q-303 0 -417 232l217 112q49 -109 182 -108q68 0 111 30q43 29 43 83t-48 86t-129 30q-129 0 -245 -69l-25 14v584h619v-224h-398v-125q59 18 123 19q170 0 270 -84q101 -84 101 -239t-109 -248t-295 -93z" />
    <glyph glyph-name="six.numerator" horiz-adv-x="929" 
d="M469 612q70 0 110 42q39 42 39 102t-39 101q-40 42 -110 42t-110 -42t-40 -101q0 -60 40 -102t110 -42zM470 399q-181 1 -295 101t-114 239t113 295l256 359h285l-133 -189q-57 -80 -140 -127q35 10 70 10q160 0 262 -91q102 -90 102 -240t-112 -254q-113 -104 -294 -103
z" />
    <glyph glyph-name="seven.numerator" horiz-adv-x="890" 
d="M63 1161v232h799v-23l-454 -954h-267l359 745h-437z" />
    <glyph glyph-name="eight.numerator" horiz-adv-x="915" 
d="M356 1128q0 -42 31 -68t75 -26t72 26t28 68t-31 68q-31 25 -75 25t-72 -25t-28 -68zM458 612q64 0 104 33t40 90t-40 91t-106 34t-104 -34q-39 -34 -39 -91t40 -90q41 -33 105 -33zM856 709q0 -139 -112 -225t-284 -85q-173 0 -287 86t-114 224q0 166 181 239
q-121 68 -121 189t90 197t251 75q161 0 249 -76q88 -77 88 -199t-117 -186q176 -76 176 -239z" />
    <glyph glyph-name="nine.numerator" horiz-adv-x="929" 
d="M461 909q69 0 109 42q40 41 40 101t-40 102t-110 42t-109 -42q-40 -42 -40 -101t40 -101t110 -43zM418 721q-160 0 -262 91t-102 241t112 253q113 103 294 103t295 -100q113 -101 113 -245t-114 -294l-265 -354h-282l147 190q55 72 131 123q-27 -8 -67 -8z" />
    <glyph glyph-name="zero.denominator" horiz-adv-x="1064" 
d="M532 215q92 0 147 72q54 72 54 205q0 132 -54 204q-55 72 -147 72t-146 -72t-54 -204t54 -205q54 -72 146 -72zM532 -14q-200 0 -334 139t-134 367t134 366q136 139 334 139t334 -139q135 -139 135 -366q0 -226 -135 -366t-334 -140z" />
    <glyph glyph-name="one.denominator" horiz-adv-x="641" 
d="M254 0v745h-203v232h463v-977h-260z" />
    <glyph glyph-name="two.denominator" horiz-adv-x="911" 
d="M27 0v25l426 434q109 111 108 200q0 45 -33 73t-84 28q-111 0 -168 -133l-233 82q106 285 403 284q174 0 276 -90t101 -236q0 -146 -159 -313l-50 -51q-51 -55 -122 -90l24 2q27 2 63 5t60 3h178v-223h-790z" />
    <glyph glyph-name="three.denominator" horiz-adv-x="886" 
d="M424 -16q-303 0 -401 239l227 105q45 -113 172 -113q61 0 100 35t39 94q0 131 -147 131q-82 0 -138 -18l-14 26l133 191l82 92q-90 -10 -125 -10h-225v221h700v-23l-170 -241q-49 -66 -77 -76q108 -20 178 -101t69 -206q-1 -166 -117 -256t-286 -90z" />
    <glyph glyph-name="four.denominator" horiz-adv-x="976" 
d="M463 315h84v91l8 133q-51 -70 -96 -111l-37 -35l-105 -86q84 8 146 8zM547 0v119h-479v200l710 674h21v-678h127v-196h-127v-119h-252z" />
    <glyph glyph-name="five.denominator" horiz-adv-x="917" 
d="M442 -16q-303 0 -417 231l217 113q49 -109 182 -109q68 0 111 30t43 84t-48 85t-129 31q-129 0 -245 -70l-25 14v584h619v-223h-398v-125q59 18 123 18q170 0 270 -84q101 -85 101 -239t-109 -247t-295 -93z" />
    <glyph glyph-name="six.denominator" horiz-adv-x="929" 
d="M469 197q70 0 110 42t39 101q0 59 -39 101q-40 42 -110 42t-110 -42t-40 -101t40 -101t110 -42zM470 -16q-181 0 -295 100t-114 240t113 294l256 359h285l-133 -189q-57 -80 -140 -126q35 10 70 10q160 0 262 -91t102 -241t-112 -253q-113 -103 -294 -103z" />
    <glyph glyph-name="seven.denominator" horiz-adv-x="890" 
d="M63 745v232h799v-23l-454 -954h-267l359 745h-437z" />
    <glyph glyph-name="eight.denominator" horiz-adv-x="915" 
d="M462 618q44 0 72 26t27 69q0 43 -30 67q-31 24 -75 25q-44 0 -72 -25q-28 -26 -28 -68t31 -68t75 -26zM458 197q64 1 104 33t40 89t-40 91t-106 34t-104 -34q-39 -34 -39 -90q0 -58 40 -90q41 -32 105 -33zM856 293q0 -139 -112 -224t-284 -85q-173 0 -287 86t-114 223
q0 166 181 239q-121 68 -121 189t90 197t251 76t249 -76t88 -198t-117 -188q176 -76 176 -239z" />
    <glyph glyph-name="nine.denominator" horiz-adv-x="929" 
d="M461 494q69 0 109 42t40 101t-40 101t-110 42t-109 -42q-40 -42 -40 -101t40 -101t110 -42zM418 305q-160 0 -262 91t-102 241t112 253q113 103 294 103t295 -100q113 -101 113 -245t-114 -294l-265 -354h-282l147 190q55 72 131 123q-27 -8 -67 -8z" />
    <glyph glyph-name="zero.subscript" horiz-adv-x="913" 
d="M457 -332q78 0 124 60t46 176q0 115 -46 175t-124 60t-124 -60t-46 -175q0 -116 46 -176t124 -60zM457 -526q-168 0 -284 118t-116 312t115 312t285 118q171 0 285 -119t114 -311t-116 -312q-116 -118 -283 -118z" />
    <glyph glyph-name="one.subscript" horiz-adv-x="542" 
d="M215 -512v633h-172v196h393v-829h-221z" />
    <glyph glyph-name="two.subscript" horiz-adv-x="774" 
d="M23 -512v20l362 369q92 92 92 172q0 39 -27 62q-28 23 -73 22q-92 0 -141 -113l-199 70q90 242 342 242q147 0 234 -77t87 -201t-137 -265l-41 -43q-39 -39 -86 -65l-18 -13q76 10 125 10h151v-190h-671z" />
    <glyph glyph-name="three.subscript" horiz-adv-x="751" 
d="M360 -526q-256 0 -342 204l195 89q39 -96 145 -97q53 0 86 30t33 81q0 111 -125 110q-70 0 -116 -14l-13 23l113 161l70 78q-78 -8 -107 -8h-190v186h593v-18l-143 -205q-32 -49 -65 -65q92 -18 150 -87t58 -173q0 -141 -99 -219q-100 -76 -243 -76z" />
    <glyph glyph-name="four.subscript" horiz-adv-x="829" 
d="M393 -244h72v76l6 115q-43 -59 -82 -94l-31 -31l-88 -72q70 6 123 6zM465 -512v100h-408v172l605 572h18v-576h106v-168h-106v-100h-215z" />
    <glyph glyph-name="five.subscript" horiz-adv-x="778" 
d="M492 -230q0 99 -170 99q-88 0 -189 -59l-22 12v495h526v-188h-338v-106q57 16 104 16q145 0 231 -72t85 -204q0 -133 -91 -211t-251 -78q-260 0 -357 196l185 97q43 -92 155 -93q57 0 95 25q37 25 37 71z" />
    <glyph glyph-name="six.subscript" horiz-adv-x="788" 
d="M397 -344q59 0 93 35t34 86t-34 87t-93 36t-93 -36t-34 -87t34 -86t93 -35zM398 -526q-155 0 -251 86t-96 205t94 249l220 303h241l-114 -159q-43 -63 -117 -107q25 8 59 8q135 -1 222 -77t87 -204t-95 -216t-250 -88z" />
    <glyph glyph-name="seven.subscript" horiz-adv-x="755" 
d="M53 121v196h680v-18l-387 -811h-225l303 633h-371z" />
    <glyph glyph-name="eight.subscript" horiz-adv-x="780" 
d="M393 12q37 0 61 23t24 59t-25 58q-25 20 -64 20t-63 -20t-23 -58t27 -60t63 -22zM266 -242q0 -48 34 -76t89 -28t89 29t34 77t-33 76q-33 29 -89 29t-90 -29t-34 -78zM391 -526q-147 0 -244 72q-96 73 -96 190q0 143 152 207q-101 57 -101 158t77 166t213 65t211 -64
t75 -166q0 -104 -98 -161q150 -63 149 -205q0 -117 -95 -190q-96 -72 -243 -72z" />
    <glyph glyph-name="nine.subscript" horiz-adv-x="788" 
d="M391 -92q59 0 93 35t34 86t-34 87t-93 36t-93 -36t-34 -87t34 -86t93 -35zM354 -252q-135 0 -222 77t-87 205t95 215t250 87t251 -85t96 -209t-96 -249l-225 -301h-240l125 162q31 41 113 106q-25 -8 -60 -8z" />
    <glyph glyph-name="zero.superscript" horiz-adv-x="913" 
d="M457 743q78 1 124 61t46 175t-46 175t-124 60t-124 -60t-46 -175t46 -175t124 -61zM457 549q-168 0 -284 119q-116 120 -116 312t115 310t285 119q171 0 285 -119q114 -120 114 -312t-116 -310t-283 -119z" />
    <glyph glyph-name="one.superscript" horiz-adv-x="542" 
d="M215 563v633h-172v197h393v-830h-221z" />
    <glyph glyph-name="two.superscript" horiz-adv-x="774" 
d="M23 563v21l362 368q92 92 92 170q0 39 -27 63q-28 24 -73 23q-92 0 -141 -112l-199 69q90 242 342 242q147 0 234 -77t87 -201t-137 -265l-41 -45q-39 -39 -86 -65l-18 -11q76 8 125 9h151v-189h-671z" />
    <glyph glyph-name="three.superscript" horiz-adv-x="751" 
d="M360 549q-256 0 -342 203l195 90q39 -96 145 -97q53 0 86 30t33 79q0 113 -125 113q-63 0 -116 -17l-13 23l113 162l70 77q-78 -8 -107 -8h-190v189h593v-19l-143 -207q-39 -55 -65 -63q92 -18 150 -88t58 -174q0 -139 -98 -216t-244 -77z" />
    <glyph glyph-name="four.superscript" horiz-adv-x="829" 
d="M393 829h72v78l6 113q-43 -59 -82 -94l-31 -29l-88 -74q70 6 123 6zM465 563v101h-408v170l605 573h18v-578h106v-165h-106v-101h-215z" />
    <glyph glyph-name="five.superscript" horiz-adv-x="778" 
d="M377 549q-260 0 -357 196l185 97q43 -92 155 -92q57 0 95 24q37 25 37 71t-41 73t-109 26q-109 0 -209 -59l-22 12v496h526v-191h-338v-104q51 14 104 14q145 0 231 -71t85 -203q0 -132 -91 -210q-91 -79 -251 -79z" />
    <glyph glyph-name="six.superscript" horiz-adv-x="788" 
d="M397 729q59 0 93 36t34 87t-34 86t-93 35t-93 -35t-34 -86t34 -87t93 -36zM398 549q-155 0 -251 85t-96 204t94 249l220 306h241l-114 -160q-47 -66 -117 -109q25 8 59 9q135 0 222 -77t87 -204t-95 -215t-250 -88z" />
    <glyph glyph-name="seven.superscript" horiz-adv-x="755" 
d="M53 1196v197h680v-19l-387 -811h-225l303 633h-371z" />
    <glyph glyph-name="eight.superscript" horiz-adv-x="780" 
d="M393 1087q37 0 61 23q24 24 24 60t-25 57q-25 20 -64 20t-63 -20q-24 -19 -23 -57t27 -60t63 -23zM266 833q0 -49 34 -77t89 -27q55 0 89 29q34 28 34 76t-33 77t-89 29t-90 -29t-34 -78zM391 549q-147 0 -244 73q-96 73 -96 189q0 141 152 205q-101 58 -101 160t77 166
t213 65t211 -63t75 -167t-98 -161q150 -63 149 -205q1 -117 -95 -189t-243 -73z" />
    <glyph glyph-name="nine.superscript" horiz-adv-x="788" 
d="M391 981q59 0 93 36t34 87t-34 86t-93 35t-93 -35t-34 -86t34 -87t93 -36zM354 821q-135 0 -222 77t-87 205t95 216t250 88t251 -86t96 -209t-96 -248l-225 -301h-240l125 162q49 63 113 102q-27 -6 -60 -6z" />
    <glyph glyph-name="G.alt" horiz-adv-x="1601" 
d="M838 -18q-330 0 -535 202t-205 510q0 307 209 511t512 204q379 0 565 -289l-225 -159q-119 190 -340 190q-188 0 -307 -129t-119 -327q0 -199 119 -329t309 -130q154 0 256 74t129 186h-348v249h651q16 -352 -162 -558q-179 -205 -509 -205z" />
    <glyph glyph-name="M.alt" horiz-adv-x="1726" 
d="M139 0l113 1407h29l487 -657l100 -152q55 92 99 152l479 657h29l112 -1407h-284l-37 494l-13 247q-72 -135 -129 -211l-252 -337h-24l-254 335q-64 84 -115 177l-22 34q-4 -156 -11 -247l-36 -492h-271z" />
    <glyph glyph-name="Q.alt1" horiz-adv-x="1638" 
d="M688 483h262v-241q135 42 215 162t80 304t-119 314q-119 129 -307 129t-307 -129q-119 -130 -119 -314t80 -304t215 -162v241zM950 -315h-262v309q-258 44 -424 238t-166 464q0 305 209 509t512 204t512 -204t209 -509q0 -270 -166 -464t-424 -238v-309z" />
    <glyph glyph-name="Q.alt2" horiz-adv-x="1638" 
d="M819 250q188 0 307 126t119 322t-119 327q-119 130 -307 130t-307 -130t-119 -327q0 -196 119 -322t307 -126zM1167 -63q100 0 168 88l187 -162q-127 -176 -348 -176q-34 0 -86 9t-82 24q-30 16 -48 22q-16 6 -47 29t-42 29t-44 34q-33 29 -38 34q-13 13 -111 103
t-180 90q-119 0 -215 -139l-191 160q70 109 180 156q-172 193 -172 460q0 305 209 509t512 204t512 -204t209 -509q0 -262 -158 -444t-409 -227q94 -90 194 -90z" />
    <glyph glyph-name="a.alt" horiz-adv-x="1114" 
d="M367 438q0 -100 48 -158t135 -57q87 -1 136 57t49 157t-49 155t-136 55q-87 0 -135 -55q-48 -54 -48 -154zM465 -18q-161 0 -273 129t-112 327t111 325q112 128 289 128t255 -150l-4 131h275v-872h-275l4 133q-77 -151 -270 -151z" />
    <glyph glyph-name="g.alt" horiz-adv-x="1007" 
d="M297 -133q0 -115 200 -115t199 96q0 37 -30 53q-31 15 -115 19l-229 14q-25 -29 -25 -67zM498 449q61 1 95 33t34 87t-34 87t-95 32q-62 0 -96 -32t-34 -87t34 -88q35 -32 96 -32zM967 874v-196h-129q31 -47 30 -107q0 -141 -100 -232t-266 -91q-109 0 -178 35
q-23 -18 -23 -54q0 -68 90 -69l215 -10q178 -10 276 -82t97 -209q0 -137 -117 -225t-354 -89q-237 0 -358 79t-121 210t159 191q-104 57 -104 176t121 172q-78 83 -78 211t104 218t271 89q68 -1 129 -17h336z" />
    <glyph glyph-name="u.alt" horiz-adv-x="1058" 
d="M956 393q0 -193 -116 -305t-320 -111q-205 0 -311 110t-107 306v479h277v-473q0 -182 149 -182q80 0 116 45t36 137v473h276v-479z" />
    <glyph glyph-name="Gbreve.alt" horiz-adv-x="1601" 
d="M807 1509q-143 0 -232 80q-88 80 -100 207l211 31q16 -117 120 -117t122 117l211 -31q-13 -127 -101 -207t-231 -80zM838 -18q-330 0 -535 202t-205 510q0 307 209 511t512 204q379 0 565 -289l-225 -159q-119 190 -340 190q-188 0 -307 -129t-119 -327q0 -199 119 -329
t309 -130q154 0 256 74t129 186h-348v249h651q16 -352 -162 -558q-179 -205 -509 -205z" />
    <glyph glyph-name="Gcircumflex.alt" horiz-adv-x="1601" 
d="M467 1511l326 443h22l326 -443h-221l-115 134l-117 -134h-221zM838 -18q-330 0 -535 202t-205 510q0 307 209 511t512 204q379 0 565 -289l-225 -159q-119 190 -340 190q-188 0 -307 -129t-119 -327q0 -199 119 -329t309 -130q154 0 256 74t129 186h-348v249h651
q16 -352 -162 -558q-179 -205 -509 -205z" />
    <glyph glyph-name="Gcommaaccent.alt" horiz-adv-x="1601" 
d="M649 -240q0 66 46 111q45 45 109 45t112 -44t48 -118t-53 -160l-106 -174h-135l63 199q-84 41 -84 141zM838 -18q-330 0 -535 202t-205 510q0 307 209 511t512 204q379 0 565 -289l-225 -159q-119 190 -340 190q-188 0 -307 -129t-119 -327q0 -199 119 -329t309 -130
q154 0 256 74t129 186h-348v249h651q16 -352 -162 -558q-179 -205 -509 -205z" />
    <glyph glyph-name="Gdotaccent.alt" horiz-adv-x="1601" 
d="M809 1495q-72 0 -124 49t-52 124t52 124t124 49t123 -49t51 -124t-51 -124t-123 -49zM838 -18q-330 0 -535 202t-205 510q0 307 209 511t512 204q379 0 565 -289l-225 -159q-119 190 -340 190q-188 0 -307 -129t-119 -327q0 -199 119 -329t309 -130q154 0 256 74t129 186
h-348v249h651q16 -352 -162 -558q-179 -205 -509 -205z" />
    <glyph glyph-name="aacute.alt" horiz-adv-x="1114" 
d="M479 1024l107 385h315l-213 -385h-209zM367 438q0 -100 48 -158t135 -57q87 -1 136 57t49 157t-49 155t-136 55q-87 0 -135 -55q-48 -54 -48 -154zM465 -18q-161 0 -273 129t-112 327t111 325q112 128 289 128t255 -150l-4 131h275v-872h-275l4 133q-77 -151 -270 -151z
" />
    <glyph glyph-name="abreve.alt" horiz-adv-x="1114" 
d="M584 1024q-143 0 -232 80q-88 80 -100 207l211 30q17 -117 121 -117t121 117l210 -30q-12 -127 -100 -207t-231 -80zM367 438q0 -100 48 -158t135 -57q87 -1 136 57t49 157t-49 155t-136 55q-87 0 -135 -55q-48 -54 -48 -154zM465 -18q-161 0 -273 129t-112 327t111 325
q112 128 289 128t255 -150l-4 131h275v-872h-275l4 133q-77 -151 -270 -151z" />
    <glyph glyph-name="acircumflex.alt" horiz-adv-x="1114" 
d="M244 1024l325 442h23l326 -442h-222l-114 133l-117 -133h-221zM367 438q0 -100 48 -158t135 -57q87 -1 136 57t49 157t-49 155t-136 55q-87 0 -135 -55q-48 -54 -48 -154zM465 -18q-161 0 -273 129t-112 327t111 325q112 128 289 128t255 -150l-4 131h275v-872h-275
l4 133q-77 -151 -270 -151z" />
    <glyph glyph-name="adieresis.alt" horiz-adv-x="1114" 
d="M371 1036q-61 0 -109 46q-47 46 -47 110t47 110q46 46 108 46t109 -46t47 -110t-47 -110t-108 -46zM797 1036q-61 0 -109 46q-47 46 -47 110t47 110q46 46 108 46t109 -46t47 -110t-47 -110t-108 -46zM367 438q0 -100 48 -158t135 -57q87 -1 136 57t49 157t-49 155
t-136 55q-87 0 -135 -55q-48 -54 -48 -154zM465 -18q-161 0 -273 129t-112 327t111 325q112 128 289 128t255 -150l-4 131h275v-872h-275l4 133q-77 -151 -270 -151z" />
    <glyph glyph-name="agrave.alt" horiz-adv-x="1114" 
d="M483 1024l-213 385h316l106 -385h-209zM367 438q0 -100 48 -158t135 -57q87 -1 136 57t49 157t-49 155t-136 55q-87 0 -135 -55q-48 -54 -48 -154zM465 -18q-161 0 -273 129t-112 327t111 325q112 128 289 128t255 -150l-4 131h275v-872h-275l4 133q-77 -151 -270 -151z
" />
    <glyph glyph-name="amacron.alt" horiz-adv-x="1114" 
d="M313 1057v203h541v-203h-541zM367 438q0 -100 48 -158t135 -57q87 -1 136 57t49 157t-49 155t-136 55q-87 0 -135 -55q-48 -54 -48 -154zM465 -18q-161 0 -273 129t-112 327t111 325q112 128 289 128t255 -150l-4 131h275v-872h-275l4 133q-77 -151 -270 -151z" />
    <glyph glyph-name="aogonek.alt" horiz-adv-x="1114" 
d="M367 438q0 -100 48 -158t135 -57q87 -1 136 57t49 157t-49 155t-136 55q-87 0 -135 -55q-48 -54 -48 -154zM887 -340q49 0 84 53l135 -78q-74 -127 -236 -127q-94 0 -156 54t-62 148q0 95 81 198l72 92h-74l4 133q-78 -152 -270 -151q-161 0 -273 129t-112 327t111 325
q112 128 289 128t255 -150l-4 131h275v-806l-123 -207q-53 -87 -53 -143t57 -56z" />
    <glyph glyph-name="aring.alt" horiz-adv-x="1114" 
d="M584 1122q40 0 64 25t24 67t-25 68q-25 25 -63 25t-64 -25q-24 -25 -24 -68q0 -44 24 -68t64 -24zM584 971q-111 -1 -188 71t-77 172t77 172t188 72q112 0 188 -72t76 -172t-76 -172t-188 -71zM367 438q0 -100 48 -158t135 -57q87 -1 136 57t49 157t-49 155t-136 55
q-87 0 -135 -55q-48 -54 -48 -154zM465 -18q-161 0 -273 129t-112 327t111 325q112 128 289 128t255 -150l-4 131h275v-872h-275l4 133q-77 -151 -270 -151z" />
    <glyph glyph-name="atilde.alt" horiz-adv-x="1114" 
d="M707 1036q-63 0 -129 41l-30 20q-17 11 -31 21t-38 10q-49 0 -59 -92l-187 19q9 139 71 213t157 73q63 0 129 -41q12 -8 30 -19t33 -21q16 -10 35 -11q49 0 60 92l186 -18q-8 -139 -70 -213t-157 -74zM367 438q0 -100 48 -158t135 -57q87 -1 136 57t49 157t-49 155
t-136 55q-87 0 -135 -55q-48 -54 -48 -154zM465 -18q-161 0 -273 129t-112 327t111 325q112 128 289 128t255 -150l-4 131h275v-872h-275l4 133q-77 -151 -270 -151z" />
    <glyph glyph-name="gbreve.alt" horiz-adv-x="1007" 
d="M524 1024q-143 0 -231 80t-100 207l210 30q17 -117 121 -117t121 117l211 -30q-12 -127 -100 -207t-232 -80zM297 -133q0 -115 200 -115t199 96q0 37 -30 53q-31 15 -115 19l-229 14q-25 -29 -25 -67zM498 449q61 1 95 33t34 87t-34 87t-95 32q-62 0 -96 -32t-34 -87
t34 -88q35 -32 96 -32zM967 874v-196h-129q31 -47 30 -107q0 -141 -100 -232t-266 -91q-109 0 -178 35q-23 -18 -23 -54q0 -68 90 -69l215 -10q178 -10 276 -82t97 -209q0 -137 -117 -225t-354 -89q-237 0 -358 79t-121 210t159 191q-104 57 -104 176t121 172
q-78 83 -78 211t104 218t271 89q68 -1 129 -17h336z" />
    <glyph glyph-name="gcircumflex.alt" horiz-adv-x="1007" 
d="M184 1024l326 442h22l326 -442h-221l-115 133l-116 -133h-222zM297 -133q0 -115 200 -115t199 96q0 37 -30 53q-31 15 -115 19l-229 14q-25 -29 -25 -67zM498 449q61 1 95 33t34 87t-34 87t-95 32q-62 0 -96 -32t-34 -87t34 -88q35 -32 96 -32zM967 874v-196h-129
q31 -47 30 -107q0 -141 -100 -232t-266 -91q-109 0 -178 35q-23 -18 -23 -54q0 -68 90 -69l215 -10q178 -10 276 -82t97 -209q0 -137 -117 -225t-354 -89q-237 0 -358 79t-121 210t159 191q-104 57 -104 176t121 172q-78 83 -78 211t104 218t271 89q68 -1 129 -17h336z" />
    <glyph glyph-name="gcommaaccent.alt" horiz-adv-x="1007" 
d="M682 1171q0 -67 -46 -111t-110 -44t-111 44q-48 44 -48 118t53 159l106 174h136l-64 -198q84 -43 84 -142zM297 -133q0 -115 200 -115t199 96q0 37 -30 53q-31 15 -115 19l-229 14q-25 -29 -25 -67zM498 449q61 1 95 33t34 87t-34 87t-95 32q-62 0 -96 -32t-34 -87
t34 -88q35 -32 96 -32zM967 874v-196h-129q31 -47 30 -107q0 -141 -100 -232t-266 -91q-109 0 -178 35q-23 -18 -23 -54q0 -68 90 -69l215 -10q178 -10 276 -82t97 -209q0 -137 -117 -225t-354 -89q-237 0 -358 79t-121 210t159 191q-104 57 -104 176t121 172
q-78 83 -78 211t104 218t271 89q68 -1 129 -17h336z" />
    <glyph glyph-name="gdotaccent.alt" horiz-adv-x="1007" 
d="M526 1018q-72 0 -124 49t-52 124t52 124t124 49t123 -49t51 -124t-51 -124t-123 -49zM297 -133q0 -115 200 -115t199 96q0 37 -30 53q-31 15 -115 19l-229 14q-25 -29 -25 -67zM498 449q61 1 95 33t34 87t-34 87t-95 32q-62 0 -96 -32t-34 -87t34 -88q35 -32 96 -32z
M967 874v-196h-129q31 -47 30 -107q0 -141 -100 -232t-266 -91q-109 0 -178 35q-23 -18 -23 -54q0 -68 90 -69l215 -10q178 -10 276 -82t97 -209q0 -137 -117 -225t-354 -89q-237 0 -358 79t-121 210t159 191q-104 57 -104 176t121 172q-78 83 -78 211t104 218t271 89
q68 -1 129 -17h336z" />
    <glyph glyph-name="uacute.alt" horiz-adv-x="1058" 
d="M424 1024l106 385h316l-213 -385h-209zM956 393q0 -193 -116 -305t-320 -111q-205 0 -311 110t-107 306v479h277v-473q0 -182 149 -182q80 0 116 45t36 137v473h276v-479z" />
    <glyph glyph-name="ubreve.alt" horiz-adv-x="1058" 
d="M528 1024q-143 0 -231 80t-100 207l211 30q16 -117 120 -117t121 117l211 -30q-12 -127 -100 -207t-232 -80zM956 393q0 -193 -116 -305t-320 -111q-205 0 -311 110t-107 306v479h277v-473q0 -182 149 -182q80 0 116 45t36 137v473h276v-479z" />
    <glyph glyph-name="ucircumflex.alt" horiz-adv-x="1058" 
d="M188 1024l326 442h23l325 -442h-221l-115 133l-116 -133h-222zM956 393q0 -193 -116 -305t-320 -111q-205 0 -311 110t-107 306v479h277v-473q0 -182 149 -182q80 0 116 45t36 137v473h276v-479z" />
    <glyph glyph-name="udieresis.alt" horiz-adv-x="1058" 
d="M315 1036q-61 0 -108 46t-47 110t47 110t108 46t109 -46t47 -110q0 -64 -47 -110q-48 -46 -109 -46zM741 1036q-61 0 -108 46t-47 110t47 110t108 46t109 -46t47 -110q0 -64 -47 -110q-48 -46 -109 -46zM956 393q0 -193 -116 -305t-320 -111q-205 0 -311 110t-107 306
v479h277v-473q0 -182 149 -182q80 0 116 45t36 137v473h276v-479z" />
    <glyph glyph-name="ugrave.alt" horiz-adv-x="1058" 
d="M428 1024l-213 385h315l107 -385h-209zM956 393q0 -193 -116 -305t-320 -111q-205 0 -311 110t-107 306v479h277v-473q0 -182 149 -182q80 0 116 45t36 137v473h276v-479z" />
    <glyph glyph-name="uhungarumlaut.alt" horiz-adv-x="1058" 
d="M233 1024l105 385h287l-183 -385h-209zM612 1024l105 385h287l-183 -385h-209zM956 393q0 -193 -116 -305t-320 -111q-205 0 -311 110t-107 306v479h277v-473q0 -182 149 -182q80 0 116 45t36 137v473h276v-479z" />
    <glyph glyph-name="umacron.alt" horiz-adv-x="1058" 
d="M258 1057v203h541v-203h-541zM956 393q0 -193 -116 -305t-320 -111q-205 0 -311 110t-107 306v479h277v-473q0 -182 149 -182q80 0 116 45t36 137v473h276v-479z" />
    <glyph glyph-name="uogonek.alt" horiz-adv-x="1058" 
d="M102 872h277v-473q0 -182 149 -182q80 0 116 45t36 137v473h276v-479q0 -158 -78 -263t-225 -138l-80 -133q-53 -90 -53 -140q0 -59 58 -59q49 0 84 53l135 -78q-74 -127 -236 -127q-95 0 -157 54t-62 148q0 95 82 198l55 72q-184 10 -280 118t-97 295v479z" />
    <glyph glyph-name="uring.alt" horiz-adv-x="1058" 
d="M528 1122q39 0 64 25q24 25 24 67t-24 68q-25 25 -64 25q-40 0 -64 -25t-24 -68q0 -44 24 -68t64 -24zM528 971q-112 -1 -188 71t-76 172t77 172t187 72t188 -72q77 -72 77 -172t-77 -172t-188 -71zM956 393q0 -193 -116 -305t-320 -111q-205 0 -311 110t-107 306v479
h277v-473q0 -182 149 -182q80 0 116 45t36 137v473h276v-479z" />
    <glyph glyph-name="f_b.alt" horiz-adv-x="1818" 
d="M1263 223q89 1 140 57t51 155t-51 155t-140 57q-89 0 -143 -56q-54 -55 -53 -155q-1 -100 53 -156t143 -57zM1343 -18q-197 0 -274 145l6 -127h-276v1077q0 180 -157 180t-157 -180v-205h203v-229h-203v-643h-276v643h-146v229h146v197q0 205 123 321t310 116t310 -108
t123 -306v-342q95 141 267 141t284 -127t113 -325q0 -197 -116 -327t-280 -130z" />
    <glyph glyph-name="f_f_b.alt" horiz-adv-x="2408" 
d="M1657 436q0 -100 53 -156t142 -57q88 1 140 57t52 155t-51 155t-141 57q-90 0 -142 -56q-53 -55 -53 -155zM1075 872h203v-229h-203v-643h-276v643h-314v-643h-276v643h-146v229h146v252q0 340 311 340q133 0 228 -82l-115 -198q-29 33 -76 33q-72 0 -72 -89v-256h314
v197q0 205 123 321t310 116t310 -108t123 -306v-342q94 141 266 141t285 -127t113 -325q0 -197 -116 -327t-280 -130q-197 0 -274 145l6 -127h-276v1077q0 180 -157 180t-157 -180v-205z" />
    <glyph glyph-name="f_f_f_l.alt" horiz-adv-x="2373" 
d="M799 643h-314v-643h-276v643h-146v229h146v252q0 340 311 340q133 0 228 -82l-115 -198q-29 33 -76 33q-72 0 -72 -89v-256h314v273q0 340 311 340q133 0 227 -82l-114 -199q-29 33 -76 33q-72 0 -72 -88v-277h314v197q0 205 122 321q123 116 311 116t310 -108
q123 -108 123 -306v-1092h-277v1077q0 180 -156 180t-157 -180v-205h203v-229h-203v-643h-276v643h-314v-643h-276v643z" />
    <glyph glyph-name="f_f_h.alt" horiz-adv-x="2365" 
d="M799 872v197q0 205 123 321t310 116t310 -108t123 -306v-357q82 156 270 156q145 -1 237 -103t91 -284v-504h-276v485q0 154 -146 154q-84 0 -130 -45t-46 -127v-467h-276v1077q0 180 -157 180t-157 -180v-205h203v-229h-203v-643h-276v643h-314v-643h-276v643h-146v229
h146v252q0 340 311 340q133 0 228 -82l-115 -198q-29 33 -76 33q-72 0 -72 -89v-256h314z" />
    <glyph glyph-name="f_f_k.alt" horiz-adv-x="2291" 
d="M799 872v197q0 205 123 321t310 116t310 -108t123 -306v-367q0 -92 -14 -188l286 335h308l-310 -356l342 -516h-321l-217 330l-74 -78v-252h-276v1077q0 180 -157 180t-157 -180v-205h203v-229h-203v-643h-276v643h-314v-643h-276v643h-146v229h146v252q0 340 311 340
q133 0 228 -82l-115 -198q-29 33 -76 33q-72 0 -72 -89v-256h314z" />
    <glyph glyph-name="ffl.alt" horiz-adv-x="1783" 
d="M209 0v643h-146v229h146v252q0 340 311 340q133 0 228 -82l-115 -198q-29 33 -76 33q-72 0 -72 -89v-256h314v197q0 205 123 321t310 116t310 -108t123 -306v-1092h-276v1077q0 180 -157 180t-157 -180v-205h203v-229h-203v-643h-276v643h-314v-643h-276z" />
    <glyph glyph-name="f_h.alt" horiz-adv-x="1775" 
d="M209 0v643h-146v229h146v197q0 205 123 321t310 116t310 -108t123 -306v-357q82 156 271 156q145 -1 236 -103t91 -284v-504h-276v485q0 154 -146 154q-84 0 -130 -45t-46 -127v-467h-276v1077q0 180 -157 180t-157 -180v-205h203v-229h-203v-643h-276z" />
    <glyph glyph-name="f_k.alt" horiz-adv-x="1701" 
d="M1075 0h-276v1077q0 180 -157 180t-157 -180v-205h203v-229h-203v-643h-276v643h-146v229h146v197q0 205 123 321t310 116t310 -108t123 -306v-367q0 -92 -14 -188l287 335h307l-309 -356l342 -516h-322l-217 330l-74 -78v-252z" />
    <glyph glyph-name="fl.alt" horiz-adv-x="1193" 
d="M209 0v643h-146v229h146v197q0 205 123 321t310 116t310 -108t123 -306v-1092h-276v1077q0 180 -157 180t-157 -180v-205h203v-229h-203v-643h-276z" />
    <glyph glyph-name="space.up" horiz-adv-x="452" 
 />
    <glyph glyph-name="hyphen.up" horiz-adv-x="659" 
d="M74 434v246h512v-246h-512z" />
    <glyph glyph-name="endash.up" horiz-adv-x="974" 
d="M82 434v246h811v-246h-811z" />
    <glyph glyph-name="emdash.up" horiz-adv-x="1550" 
d="M82 434v246h1386v-246h-1386z" />
    <glyph glyph-name="guilsinglleft.up" horiz-adv-x="591" 
d="M260 188l-194 344v17l194 338h266l-200 -346l200 -353h-266z" />
    <glyph glyph-name="guilsinglright.up" horiz-adv-x="591" 
d="M66 188l200 347l-200 352h266l194 -344v-17l-194 -338h-266z" />
    <glyph glyph-name="guillemotleft.up" horiz-adv-x="1032" 
d="M260 188l-194 344v17l194 338h266l-200 -346l200 -353h-266zM700 188l-194 344v17l194 338h267l-201 -346l201 -353h-267z" />
    <glyph glyph-name="guillemotright.up" horiz-adv-x="1032" 
d="M66 188l200 347l-200 352h266l194 -344v-17l-194 -338h-266zM506 188l201 347l-201 352h266l195 -344v-17l-195 -338h-266z" />
    <glyph glyph-name="at.up" horiz-adv-x="1894" 
d="M797 553q-1 -84 41 -134t108 -50t106 53t40 131t-40 131t-106 53t-108 -50t-41 -134zM977 -260q-393 0 -645 223t-252 604q0 246 124 441t326 298t435 103q381 0 615 -209t235 -553q-1 -241 -99 -367t-280 -126q-219 0 -285 157q-84 -166 -279 -166q-154 0 -256 115
t-102 293t102 295t254 117t220 -123l-5 102h267v-461q0 -69 22 -99t72 -30q135 0 135 286t-162 423q-161 137 -449 137t-463 -173t-175 -460t167 -453t474 -165q164 0 325 57l86 -192q-186 -74 -407 -74z" />
    <glyph glyph-name="A.sc" horiz-adv-x="1105" 
d="M436 309h223l-30 70q-66 143 -82 223q-55 -168 -80 -223zM39 0l502 1081h22l504 -1081h-289l-51 121h-367l-51 -121h-270z" />
    <glyph glyph-name="B.sc" horiz-adv-x="1034" 
d="M383 655h158q43 0 69 26t25 70q0 45 -26 69t-68 24h-158v-189zM383 227h186q49 0 81 32t32 80t-32 80t-81 32h-186v-224zM115 0v1069h448q156 0 247 -80t91 -196q0 -164 -151 -222q205 -61 204 -272q0 -141 -100 -220t-268 -79h-471z" />
    <glyph glyph-name="C.sc" horiz-adv-x="1204" 
d="M651 -18q-255 0 -409 156t-154 397t155 397t400 155q307 0 457 -233l-221 -147q-84 135 -236 135q-125 0 -198 -86t-73 -221t75 -222q75 -86 202 -86q184 0 258 152l226 -129q-61 -124 -187 -196t-295 -72z" />
    <glyph glyph-name="D.sc" horiz-adv-x="1144" 
d="M393 242h92q287 0 287 293q0 139 -71 216t-216 76h-92v-585zM115 0v1069h385q242 0 400 -146t157 -387q0 -240 -158 -388t-399 -148h-385z" />
    <glyph glyph-name="E.sc" horiz-adv-x="983" 
d="M115 0v1069h759v-240h-481v-178h402v-227h-402v-184h502v-240h-780z" />
    <glyph glyph-name="F.sc" horiz-adv-x="940" 
d="M115 0v1069h743v-244h-465v-239h416v-244h-416v-342h-278z" />
    <glyph glyph-name="G.sc" horiz-adv-x="1198" 
d="M678 -18q-270 0 -430 154t-160 399t162 399t410 154t401 -160l-178 -185q-85 99 -223 99t-213 -88t-75 -224t73 -225q73 -88 233 -88q94 0 166 29v123h-217v223h471v-504q-59 -42 -172 -74t-248 -32z" />
    <glyph glyph-name="H.sc" horiz-adv-x="1181" 
d="M115 0v1069h278v-416h395v416h279v-1069h-279v406h-395v-406h-278z" />
    <glyph glyph-name="I.sc" horiz-adv-x="516" 
d="M119 0v1069h278v-1069h-278z" />
    <glyph glyph-name="J.sc" horiz-adv-x="868" 
d="M391 -18q-262 0 -364 227l225 127q23 -42 37 -62q35 -49 96 -51q96 0 96 119v727h279v-735q0 -180 -100 -266t-269 -86z" />
    <glyph glyph-name="K.sc" horiz-adv-x="1118" 
d="M115 0v1069h278v-260q0 -104 -22 -268q90 172 147 245l221 283h305l-366 -459l416 -610h-330l-277 416l-94 -109v-307h-278z" />
    <glyph glyph-name="L.sc" horiz-adv-x="946" 
d="M115 0v1069h278v-827h471v-242h-749z" />
    <glyph glyph-name="M.sc" horiz-adv-x="1341" 
d="M383 326v-326h-268v1083h20l541 -573l530 573h21v-1083h-269v326q0 62 6 132t9 74l-21 -28q-49 -76 -118 -152l-152 -166h-20l-156 166q-44 44 -123 160l-14 20v-14q14 -98 14 -192z" />
    <glyph glyph-name="N.sc" horiz-adv-x="1138" 
d="M371 0h-256v1083h22l494 -426q94 -82 153 -161q-3 4 -9 96q-7 92 -7 131v346h256v-1085h-23l-497 430q-86 76 -133 135l-21 24q20 -137 21 -225v-348z" />
    <glyph glyph-name="O.sc" horiz-adv-x="1327" 
d="M664 227q130 0 210 85q80 86 80 222t-81 222t-209 86t-210 -86q-81 -86 -81 -222t81 -222t210 -85zM664 -18q-240 0 -408 156t-168 398q0 240 168 396t408 156t408 -156t167 -396q1 -240 -167 -398q-168 -156 -408 -156z" />
    <glyph glyph-name="P.sc" horiz-adv-x="1034" 
d="M393 549h121q162 0 162 141t-162 141h-121v-282zM115 0v1069h405q205 0 324 -93q119 -94 119 -284t-119 -284t-324 -95h-127v-313h-278z" />
    <glyph glyph-name="Q.sc" horiz-adv-x="1327" 
d="M664 219q16 0 53 4l-115 133l180 146l129 -152q43 74 43 197t-81 209t-209 86t-210 -86q-81 -86 -81 -223t81 -225t210 -89zM664 -18q-240 0 -408 156t-168 398q0 240 168 396t408 156t408 -156t167 -392q0 -236 -158 -390l140 -162l-181 -146l-153 181
q-106 -41 -223 -41z" />
    <glyph glyph-name="R.sc" horiz-adv-x="1067" 
d="M393 555h131q162 0 162 138t-162 138h-131v-276zM115 0v1069h415q205 0 324 -93t119 -284q0 -227 -201 -313l236 -379h-314l-200 336h-101v-336h-278z" />
    <glyph glyph-name="S.sc" horiz-adv-x="940" 
d="M486 -18q-172 0 -288 68t-171 179l217 127q80 -139 223 -139q57 1 94 21t37 57t-31 59t-114 58l-45 18q-147 59 -222 137q-74 78 -74 214t98 221q96 85 234 85q138 1 221 -41t146 -143l-211 -121q-47 76 -129 76q-41 0 -67 -20t-26 -52q1 -56 53 -81q19 -10 58 -27
l46 -19q172 -71 256 -147q83 -76 83 -220t-108 -228q-108 -82 -280 -82z" />
    <glyph glyph-name="T.sc" horiz-adv-x="1034" 
d="M377 0v827h-303v242h887v-242h-304v-827h-280z" />
    <glyph glyph-name="U.sc" horiz-adv-x="1138" 
d="M1030 422q0 -212 -126 -326t-335 -114t-335 114t-125 326v647h278v-643q0 -197 182 -197t183 197v643h278v-647z" />
    <glyph glyph-name="V.sc" horiz-adv-x="1110" 
d="M545 -14l-510 1083h307l137 -311q37 -86 88 -266q39 160 88 266l138 311h282l-506 -1083h-24z" />
    <glyph glyph-name="W.sc" horiz-adv-x="1536" 
d="M451 -14l-416 1083h299l121 -330q31 -88 67 -233q16 102 80 235l162 340h22l168 -340q55 -112 76 -204l8 -33q29 125 68 235l119 330h276l-409 -1083h-25l-207 407q-56 109 -84 221q-55 -164 -84 -221l-217 -407h-24z" />
    <glyph glyph-name="X.sc" horiz-adv-x="1161" 
d="M41 0l365 592l-302 477h312l88 -149q53 -90 78 -191q39 119 80 191l83 149h297l-297 -479l375 -590h-315l-133 213q-45 70 -103 213q-35 -104 -98 -213l-129 -213h-301z" />
    <glyph glyph-name="Y.sc" horiz-adv-x="1067" 
d="M401 0v391l-370 678h317l103 -205q49 -96 98 -268q41 160 96 268l96 205h295l-356 -674v-395h-279z" />
    <glyph glyph-name="Z.sc" horiz-adv-x="1015" 
d="M66 0v23l456 806h-377v240h801v-22l-457 -807h424v-240h-847z" />
    <glyph glyph-name="Oslash.sc" horiz-adv-x="1327" 
d="M664 219q133 0 216 86t83 230q0 68 -23 129l-436 -404q70 -41 160 -41zM664 850q-132 0 -216 -88t-83 -227q-1 -71 22 -132l436 404q-68 43 -159 43zM1239 535q0 -240 -168 -397t-407 -156q-195 0 -347 106l-118 -108l-127 133l114 106q-98 137 -98 316q0 241 168 397
t408 155q197 0 348 -106l116 106l127 -133l-112 -104q96 -139 96 -315z" />
    <glyph glyph-name="AE.sc" horiz-adv-x="1628" 
d="M768 336v166q0 47 16 194q-45 -104 -92 -172l-133 -188h209zM1520 1069v-240h-482v-178h402v-227h-402v-184h502v-240h-772v127h-354l-90 -127h-295l766 1069h725z" />
    <glyph glyph-name="OE.sc" horiz-adv-x="1619" 
d="M659 827q-287 -1 -287 -293t287 -292h93v585h-93zM645 0q-241 0 -399 146t-158 388t158 388q158 147 399 147h866v-240h-481v-178h402v-227h-402v-184h502v-240h-887z" />
    <glyph glyph-name="Eth.sc" horiz-adv-x="1144" 
d="M393 242h92q287 0 287 293q0 139 -71 216t-216 76h-92v-180h211v-231h-211v-174zM115 0v416h-78v231h78v422h385q242 0 400 -146t157 -387q0 -240 -158 -388t-399 -148h-385z" />
    <glyph glyph-name="Dcroat.sc" horiz-adv-x="1144" 
d="M393 242h92q287 0 287 293q0 139 -71 216t-216 76h-92v-180h211v-231h-211v-174zM115 0v416h-78v231h78v422h385q242 0 400 -146t157 -387q0 -240 -158 -388t-399 -148h-385z" />
    <glyph glyph-name="dotlessi.sc" horiz-adv-x="516" 
d="M119 0v1069h278v-1069h-278z" />
    <glyph glyph-name="Aacute.sc" horiz-adv-x="1105" 
d="M436 309h223l-30 70q-66 143 -82 223q-55 -168 -80 -223zM449 1198l106 385h315l-213 -385h-208zM39 0l502 1081h22l504 -1081h-289l-51 121h-367l-51 -121h-270z" />
    <glyph glyph-name="Abreve.sc" horiz-adv-x="1105" 
d="M436 309h223l-30 70q-66 143 -82 223q-55 -168 -80 -223zM553 1188q-143 0 -231 80t-101 207l211 30q16 -117 120 -117t122 117l211 -30q-13 -127 -101 -207t-231 -80zM39 0l502 1081h22l504 -1081h-289l-51 121h-367l-51 -121h-270z" />
    <glyph glyph-name="Acircumflex.sc" horiz-adv-x="1105" 
d="M436 309h223l-30 70q-66 143 -82 223q-55 -168 -80 -223zM213 1178l326 442h22l326 -442h-221l-115 133l-117 -133h-221zM39 0l502 1081h22l504 -1081h-289l-51 121h-367l-51 -121h-270z" />
    <glyph glyph-name="Adieresis.sc" horiz-adv-x="1105" 
d="M436 309h223l-30 70q-66 143 -82 223q-55 -168 -80 -223zM766 1190q-61 0 -109 46q-47 46 -47 110t47 109q47 46 109 46t108 -46q48 -46 48 -109q0 -64 -48 -110t-108 -46zM340 1190q-61 0 -109 46q-47 46 -47 110t47 109q47 46 109 46t108 -46q48 -46 48 -109t-47 -110
q-48 -46 -109 -46zM39 0l502 1081h22l504 -1081h-289l-51 121h-367l-51 -121h-270z" />
    <glyph glyph-name="Agrave.sc" horiz-adv-x="1105" 
d="M436 309h223l-30 70q-66 143 -82 223q-55 -168 -80 -223zM453 1198l-213 385h315l107 -385h-209zM39 0l502 1081h22l504 -1081h-289l-51 121h-367l-51 -121h-270z" />
    <glyph glyph-name="Amacron.sc" horiz-adv-x="1105" 
d="M436 309h223l-30 70q-66 143 -82 223q-55 -168 -80 -223zM283 1231v203h540v-203h-540zM39 0l502 1081h22l504 -1081h-289l-51 121h-367l-51 -121h-270z" />
    <glyph glyph-name="Aogonek.sc" horiz-adv-x="1105" 
d="M436 309h223l-30 70q-66 143 -82 223q-55 -168 -80 -223zM920 -492q-94 0 -156 54t-64 148q0 95 82 198l72 92h-76l-51 121h-367l-51 -121h-270l502 1081h22l481 -1032l-112 -190q-53 -90 -53 -140q0 -59 57 -59q49 0 84 53l135 -78q-73 -127 -235 -127z" />
    <glyph glyph-name="Aring.sc" horiz-adv-x="1105" 
d="M553 1296q39 0 63 25t25 68q0 43 -25 67q-26 24 -64 25q-38 0 -63 -25q-25 -26 -25 -68t26 -67q24 -25 63 -25zM436 309h223l-30 70q-66 143 -82 223q-55 -168 -80 -223zM553 1145q-111 0 -187 72t-77 172q0 100 77 172q78 71 188 71t186 -72t77 -171q-1 -100 -77 -172
t-187 -72zM39 0l502 1081h22l504 -1081h-289l-51 121h-367l-51 -121h-270z" />
    <glyph glyph-name="Atilde.sc" horiz-adv-x="1105" 
d="M436 309h223l-30 70q-66 143 -82 223q-55 -168 -80 -223zM430 1516q63 0 129 -41l30 -20q17 -11 33 -21t35 -11q51 0 60 93l186 -19q-8 -139 -69 -213t-158 -74q-63 0 -129 41l-30 20q-17 11 -29 20t-39 12q-52 -1 -60 -93l-186 19q8 139 70 213t157 74zM39 0l502 1081
h22l504 -1081h-289l-51 121h-367l-51 -121h-270z" />
    <glyph glyph-name="Cacute.sc" horiz-adv-x="1204" 
d="M520 1198l107 385h315l-213 -385h-209zM651 -18q-255 0 -409 156t-154 397t155 397t400 155q307 0 457 -233l-221 -147q-84 135 -236 135q-125 0 -198 -86t-73 -221t75 -222q75 -86 202 -86q184 0 258 152l226 -129q-61 -124 -187 -196t-295 -72z" />
    <glyph glyph-name="Ccaron.sc" horiz-adv-x="1204" 
d="M610 1159l-325 443h221l115 -134l116 134h221l-325 -443h-23zM651 -18q-255 0 -409 156t-154 397t155 397t400 155q307 0 457 -233l-221 -147q-84 135 -236 135q-125 0 -198 -86t-73 -221t75 -222q75 -86 202 -86q184 0 258 152l226 -129q-61 -124 -187 -196t-295 -72z
" />
    <glyph glyph-name="Ccedilla.sc" horiz-adv-x="1204" 
d="M602 -492q-170 0 -242 123l132 80q31 -57 88 -57q30 0 52 18t21 52q0 70 -84 69h-69v205q-192 45 -302 190t-110 347q0 241 155 397t400 155q307 0 457 -233l-221 -147q-84 135 -236 135q-125 0 -198 -86t-73 -221t75 -222q75 -86 202 -86q184 0 258 152l226 -129
q-61 -125 -187 -197t-295 -71h-10v-62q78 -14 130 -68t52 -144q-1 -90 -67 -144q-66 -56 -154 -56z" />
    <glyph glyph-name="Ccircumflex.sc" horiz-adv-x="1204" 
d="M285 1178l325 442h23l325 -442h-221l-114 133l-117 -133h-221zM651 -18q-255 0 -409 156t-154 397t155 397t400 155q307 0 457 -233l-221 -147q-84 135 -236 135q-125 0 -198 -86t-73 -221t75 -222q75 -86 202 -86q184 0 258 152l226 -129q-61 -124 -187 -196t-295 -72z
" />
    <glyph glyph-name="Cdotaccent.sc" horiz-adv-x="1204" 
d="M627 1171q-72 -1 -124 49t-52 125t52 123t124 50q72 0 123 -50t51 -124t-51 -124t-123 -49zM651 -18q-255 0 -409 156t-154 397t155 397t400 155q307 0 457 -233l-221 -147q-84 135 -236 135q-125 0 -198 -86t-73 -221t75 -222q75 -86 202 -86q184 0 258 152l226 -129
q-61 -124 -187 -196t-295 -72z" />
    <glyph glyph-name="Dcaron.sc" horiz-adv-x="1144" 
d="M500 1159l-326 443h221l115 -134l117 134h221l-326 -443h-22zM393 242h92q287 0 287 293q0 139 -71 216t-216 76h-92v-585zM115 0v1069h385q242 0 400 -146t157 -387q0 -240 -158 -388t-399 -148h-385z" />
    <glyph glyph-name="Eacute.sc" horiz-adv-x="983" 
d="M399 1198l107 385h315l-213 -385h-209zM115 0v1069h759v-240h-481v-178h402v-227h-402v-184h502v-240h-780z" />
    <glyph glyph-name="Ecaron.sc" horiz-adv-x="983" 
d="M489 1159l-325 443h221l115 -134l116 134h222l-326 -443h-23zM115 0v1069h759v-240h-481v-178h402v-227h-402v-184h502v-240h-780z" />
    <glyph glyph-name="Ecircumflex.sc" horiz-adv-x="983" 
d="M164 1178l325 442h23l326 -442h-222l-114 133l-117 -133h-221zM115 0v1069h759v-240h-481v-178h402v-227h-402v-184h502v-240h-780z" />
    <glyph glyph-name="Edieresis.sc" horiz-adv-x="983" 
d="M291 1190q-61 0 -109 46q-47 46 -47 110t47 109q46 46 108 46t109 -46t47 -109q0 -64 -47 -110t-108 -46zM717 1190q-61 0 -109 46q-47 46 -47 110t47 109q46 46 108 46t109 -46t47 -109q0 -64 -47 -110t-108 -46zM115 0v1069h759v-240h-481v-178h402v-227h-402v-184h502
v-240h-780z" />
    <glyph glyph-name="Edotaccent.sc" horiz-adv-x="983" 
d="M506 1171q-72 -1 -124 49t-52 125t52 123t124 50q72 0 123 -50t51 -124t-51 -124t-123 -49zM115 0v1069h759v-240h-481v-178h402v-227h-402v-184h502v-240h-780z" />
    <glyph glyph-name="Egrave.sc" horiz-adv-x="983" 
d="M403 1198l-213 385h316l106 -385h-209zM115 0v1069h759v-240h-481v-178h402v-227h-402v-184h502v-240h-780z" />
    <glyph glyph-name="Emacron.sc" horiz-adv-x="983" 
d="M233 1231v203h541v-203h-541zM115 0v1069h759v-240h-481v-178h402v-227h-402v-184h502v-240h-780z" />
    <glyph glyph-name="Eogonek.sc" horiz-adv-x="983" 
d="M692 -492q-94 0 -156 54t-62 148q0 95 81 198l72 92h-512v1069h759v-240h-481v-178h402v-227h-402v-184h502v-240h-107l-83 -141q-53 -91 -53 -145t57 -54q49 0 84 53l135 -78q-74 -127 -236 -127z" />
    <glyph glyph-name="Gbreve.sc" horiz-adv-x="1198" 
d="M616 1188q-143 0 -231 80t-100 207l211 30q16 -117 120 -117t121 117l211 -30q-12 -127 -100 -207t-232 -80zM678 -18q-270 0 -430 154t-160 399t162 399t410 154t401 -160l-178 -185q-85 99 -223 99t-213 -88t-75 -224t73 -225q73 -88 233 -88q94 0 166 29v123h-217v223
h471v-504q-59 -42 -172 -74t-248 -32z" />
    <glyph glyph-name="Gcircumflex.sc" horiz-adv-x="1198" 
d="M276 1178l326 442h23l325 -442h-221l-115 133l-116 -133h-222zM678 -18q-270 0 -430 154t-160 399t162 399t410 154t401 -160l-178 -185q-85 99 -223 99t-213 -88t-75 -224t73 -225q73 -88 233 -88q94 0 166 29v123h-217v223h471v-504q-59 -42 -172 -74t-248 -32z" />
    <glyph glyph-name="Gcommaaccent.sc" horiz-adv-x="1198" 
d="M459 -240q0 66 46 111t109 45q64 0 112 -44t48 -118t-53 -160l-107 -174h-135l64 199q-84 41 -84 141zM678 -18q-270 0 -430 154t-160 399t162 399t410 154t401 -160l-178 -185q-85 99 -223 99t-213 -88t-75 -224t73 -225q73 -88 233 -88q94 0 166 29v123h-217v223h471
v-504q-59 -42 -172 -74t-248 -32z" />
    <glyph glyph-name="Gdotaccent.sc" horiz-adv-x="1198" 
d="M618 1192q-72 0 -124 49t-52 124t52 124t124 49t123 -49t51 -124t-50 -124q-52 -49 -124 -49zM678 -18q-270 0 -430 154t-160 399t162 399t410 154t401 -160l-178 -185q-85 99 -223 99t-213 -88t-75 -224t73 -225q73 -88 233 -88q94 0 166 29v123h-217v223h471v-504
q-59 -42 -172 -74t-248 -32z" />
    <glyph glyph-name="Hbar.sc" horiz-adv-x="1181" 
d="M393 639h395v96h-395v-96zM2 735v178h113v156h278v-156h395v156h279v-156h113v-178h-113v-735h-279v406h-395v-406h-278v735h-113z" />
    <glyph glyph-name="Hcircumflex.sc" horiz-adv-x="1181" 
d="M250 1178l325 442h23l326 -442h-222l-114 133l-117 -133h-221zM115 0v1069h278v-416h395v416h279v-1069h-279v406h-395v-406h-278z" />
    <glyph glyph-name="Iacute.sc" horiz-adv-x="516" 
d="M154 1198l106 385h315l-213 -385h-208zM119 0v1069h278v-1069h-278z" />
    <glyph glyph-name="Icircumflex.sc" horiz-adv-x="516" 
d="M-82 1178l326 442h22l326 -442h-221l-115 133l-117 -133h-221zM119 0v1069h278v-1069h-278z" />
    <glyph glyph-name="Idieresis.sc" horiz-adv-x="516" 
d="M53 1190q-61 0 -108 46t-47 110t47 109q47 46 108 46t109 -46t47 -109q0 -63 -47 -110q-48 -46 -109 -46zM463 1190q-61 0 -109 46q-47 46 -47 110t47 109q46 46 108 46t109 -46t47 -109q0 -64 -47 -110t-108 -46zM119 0v1069h278v-1069h-278z" />
    <glyph glyph-name="Idotaccent.sc" horiz-adv-x="516" 
d="M258 1171q-72 -1 -124 49t-52 125t52 123t124 50q72 0 123 -50t51 -124t-51 -124t-123 -49zM119 0v1069h278v-1069h-278z" />
    <glyph glyph-name="Igrave.sc" horiz-adv-x="516" 
d="M158 1198l-213 385h315l107 -385h-209zM119 0v1069h278v-1069h-278z" />
    <glyph glyph-name="Imacron.sc" horiz-adv-x="516" 
d="M8 1231v203h500v-203h-500zM119 0v1069h278v-1069h-278z" />
    <glyph glyph-name="Iogonek.sc" horiz-adv-x="516" 
d="M119 0v1069h278v-993l-129 -217q-53 -90 -53 -140q0 -59 57 -59q49 0 84 53l136 -78q-74 -127 -236 -127q-94 0 -156 54t-63 148q0 95 82 198l71 92h-71z" />
    <glyph glyph-name="Jcircumflex.sc" horiz-adv-x="868" 
d="M279 1178l325 442h23l325 -442h-221l-115 133l-116 -133h-221zM391 -18q-262 0 -364 227l225 127q23 -42 37 -62q35 -49 96 -51q96 0 96 119v727h279v-735q0 -180 -100 -266t-269 -86z" />
    <glyph glyph-name="Kcommaaccent.sc" horiz-adv-x="1118" 
d="M401 -240q0 66 46 111q45 45 109 45t112 -44t49 -118q0 -74 -53 -160l-107 -174h-135l63 199q-84 41 -84 141zM115 0v1069h278v-260q0 -104 -22 -268q90 172 147 245l221 283h305l-366 -459l416 -610h-330l-277 416l-94 -109v-307h-278z" />
    <glyph glyph-name="Lacute.sc" horiz-adv-x="946" 
d="M158 1198l106 385h316l-213 -385h-209zM115 0v1069h278v-827h471v-242h-749z" />
    <glyph glyph-name="Lcaron.sc" horiz-adv-x="946" 
d="M115 0v1069h278v-827h471v-242h-749zM738 1087q66 0 117 -47q50 -48 50 -116t-61 -174l-123 -209h-133l78 233q-92 43 -93 150q-1 70 49 116t116 47z" />
    <glyph glyph-name="Lcommaaccent.sc" horiz-adv-x="946" 
d="M315 -240q0 66 46 111q45 45 109 45t112 -44t49 -118q0 -74 -53 -160l-107 -174h-135l63 199q-84 41 -84 141zM115 0v1069h278v-827h471v-242h-749z" />
    <glyph glyph-name="Lslash.sc" horiz-adv-x="972" 
d="M135 0v319l-115 -49v232l115 49v518h279v-399l262 112v-231l-262 -113v-196h471v-242h-750z" />
    <glyph glyph-name="Nacute.sc" horiz-adv-x="1138" 
d="M461 1198l106 385h316l-213 -385h-209zM371 0h-256v1083h22l494 -426q94 -82 153 -161q-3 4 -9 96q-7 92 -7 131v346h256v-1085h-23l-497 430q-86 76 -133 135l-21 24q20 -137 21 -225v-348z" />
    <glyph glyph-name="Ncaron.sc" horiz-adv-x="1138" 
d="M551 1159l-326 443h221l115 -134l117 134h221l-326 -443h-22zM371 0h-256v1083h22l494 -426q94 -82 153 -161q-3 4 -9 96q-7 92 -7 131v346h256v-1085h-23l-497 430q-86 76 -133 135l-21 24q20 -137 21 -225v-348z" />
    <glyph glyph-name="Ncommaaccent.sc" horiz-adv-x="1138" 
d="M442 -240q0 66 46 111t110 45t112 -44t48 -118t-53 -160l-107 -174h-135l63 199q-84 41 -84 141zM371 0h-256v1083h22l494 -426q94 -82 153 -161q-3 4 -9 96q-7 92 -7 131v346h256v-1085h-23l-497 430q-86 76 -133 135l-21 24q20 -137 21 -225v-348z" />
    <glyph glyph-name="Ntilde.sc" horiz-adv-x="1138" 
d="M442 1516q63 0 129 -41l30 -20q49 -32 69 -32q51 0 59 93l186 -19q-8 -139 -69 -213t-158 -74q-63 0 -129 41l-30 20q-17 11 -29 20t-39 12q-52 -1 -60 -93l-186 19q9 139 71 213t156 74zM371 0h-256v1083h22l494 -426q94 -82 153 -161q-3 4 -9 96q-7 92 -7 131v346h256
v-1085h-23l-497 430q-86 76 -133 135l-21 24q20 -137 21 -225v-348z" />
    <glyph glyph-name="Oacute.sc" horiz-adv-x="1327" 
d="M559 1198l107 385h315l-213 -385h-209zM664 227q130 0 210 85q80 86 80 222t-81 222t-209 86t-210 -86q-81 -86 -81 -222t81 -222t210 -85zM664 -18q-240 0 -408 156t-168 398q0 240 168 396t408 156t408 -156t167 -396q1 -240 -167 -398q-168 -156 -408 -156z" />
    <glyph glyph-name="Ocircumflex.sc" horiz-adv-x="1327" 
d="M324 1178l325 442h23l325 -442h-221l-114 133l-117 -133h-221zM664 227q130 0 210 85q80 86 80 222t-81 222t-209 86t-210 -86q-81 -86 -81 -222t81 -222t210 -85zM664 -18q-240 0 -408 156t-168 398q0 240 168 396t408 156t408 -156t167 -396q1 -240 -167 -398
q-168 -156 -408 -156z" />
    <glyph glyph-name="Odieresis.sc" horiz-adv-x="1327" 
d="M451 1190q-61 0 -109 46q-47 46 -47 110t47 109q46 46 108 46t109 -46t47 -109q0 -64 -47 -110t-108 -46zM877 1190q-61 0 -109 46q-47 46 -47 110t47 109q46 46 108 46t109 -46t47 -109q0 -64 -47 -110t-108 -46zM664 227q130 0 210 85q80 86 80 222t-81 222t-209 86
t-210 -86q-81 -86 -81 -222t81 -222t210 -85zM664 -18q-240 0 -408 156t-168 398q0 240 168 396t408 156t408 -156t167 -396q1 -240 -167 -398q-168 -156 -408 -156z" />
    <glyph glyph-name="Ograve.sc" horiz-adv-x="1327" 
d="M563 1198l-213 385h316l106 -385h-209zM664 227q130 0 210 85q80 86 80 222t-81 222t-209 86t-210 -86q-81 -86 -81 -222t81 -222t210 -85zM664 -18q-240 0 -408 156t-168 398q0 240 168 396t408 156t408 -156t167 -396q1 -240 -167 -398q-168 -156 -408 -156z" />
    <glyph glyph-name="Ohungarumlaut.sc" horiz-adv-x="1327" 
d="M369 1198l104 385h287l-182 -385h-209zM748 1198l104 385h287l-183 -385h-208zM664 227q130 0 210 85q80 86 80 222t-81 222t-209 86t-210 -86q-81 -86 -81 -222t81 -222t210 -85zM664 -18q-240 0 -408 156t-168 398q0 240 168 396t408 156t408 -156t167 -396
q1 -240 -167 -398q-168 -156 -408 -156z" />
    <glyph glyph-name="Omacron.sc" horiz-adv-x="1327" 
d="M393 1231v203h541v-203h-541zM664 227q130 0 210 85q80 86 80 222t-81 222t-209 86t-210 -86q-81 -86 -81 -222t81 -222t210 -85zM664 -18q-240 0 -408 156t-168 398q0 240 168 396t408 156t408 -156t167 -396q1 -240 -167 -398q-168 -156 -408 -156z" />
    <glyph glyph-name="Otilde.sc" horiz-adv-x="1327" 
d="M768 1423q51 0 59 93l187 -19q-8 -139 -70 -213t-145 -74q-87 0 -197 78q-18 13 -43 15q-51 -1 -59 -93l-187 19q9 139 71 213t145 74t170 -61q49 -32 69 -32zM664 227q130 0 210 85q80 86 80 222t-81 222t-209 86t-210 -86q-81 -86 -81 -222t81 -222t210 -85zM664 -18
q-240 0 -408 156t-168 398q0 240 168 396t408 156t408 -156t167 -396q1 -240 -167 -398q-168 -156 -408 -156z" />
    <glyph glyph-name="Racute.sc" horiz-adv-x="1067" 
d="M391 1198l107 385h315l-213 -385h-209zM393 555h131q162 0 162 138t-162 138h-131v-276zM115 0v1069h415q205 0 324 -93t119 -284q0 -227 -201 -313l236 -379h-314l-200 336h-101v-336h-278z" />
    <glyph glyph-name="Rcaron.sc" horiz-adv-x="1067" 
d="M481 1159l-325 443h221l115 -134l116 134h221l-325 -443h-23zM393 555h131q162 0 162 138t-162 138h-131v-276zM115 0v1069h415q205 0 324 -93t119 -284q0 -227 -201 -313l236 -379h-314l-200 336h-101v-336h-278z" />
    <glyph glyph-name="Rcommaaccent.sc" horiz-adv-x="1067" 
d="M377 -240q0 66 46 111t109 45q64 0 112 -44t48 -118t-53 -160l-107 -174h-135l64 199q-84 41 -84 141zM393 555h131q162 0 162 138t-162 138h-131v-276zM115 0v1069h415q205 0 324 -93t119 -284q0 -227 -201 -313l236 -379h-314l-200 336h-101v-336h-278z" />
    <glyph glyph-name="Sacute.sc" horiz-adv-x="940" 
d="M360 1198l107 385h315l-213 -385h-209zM486 -18q-172 0 -288 68t-171 179l217 127q80 -139 223 -139q57 1 94 21t37 57t-31 59t-114 58l-45 18q-147 59 -222 137q-74 78 -74 214t98 221q96 85 234 85q138 1 221 -41t146 -143l-211 -121q-47 76 -129 76q-41 0 -67 -20
t-26 -52q1 -56 53 -81q19 -10 58 -27l46 -19q172 -71 256 -147q83 -76 83 -220t-108 -228q-108 -82 -280 -82z" />
    <glyph glyph-name="Scaron.sc" horiz-adv-x="940" 
d="M451 1159l-326 443h221l115 -134l117 134h221l-326 -443h-22zM486 -18q-172 0 -288 68t-171 179l217 127q80 -139 223 -139q57 1 94 21t37 57t-31 59t-114 58l-45 18q-147 59 -222 137q-74 78 -74 214t98 221q96 85 234 85q138 1 221 -41t146 -143l-211 -121
q-47 76 -129 76q-41 0 -67 -20t-26 -52q1 -56 53 -81q19 -10 58 -27l46 -19q172 -71 256 -147q83 -76 83 -220t-108 -228q-108 -82 -280 -82z" />
    <glyph glyph-name="Scedilla.sc" horiz-adv-x="940" 
d="M489 -492q-170 0 -241 123l131 80q31 -57 88 -57q31 0 53 18t21 52q0 70 -84 69h-70v195q-127 16 -221 81t-139 160l217 127q80 -139 223 -139q57 1 94 21t37 57t-31 59t-114 58l-45 18q-147 59 -222 137q-74 78 -74 214t98 221q96 85 234 85q138 1 221 -41t146 -143
l-211 -121q-47 76 -129 76q-41 0 -67 -20t-26 -52q1 -56 53 -81q19 -10 58 -27l46 -19q172 -71 256 -147q83 -76 83 -214t-91 -220t-255 -94v-64q78 -14 130 -68t52 -144t-66 -144q-67 -56 -155 -56z" />
    <glyph glyph-name="Scircumflex.sc" horiz-adv-x="940" 
d="M125 1178l326 442h22l326 -442h-221l-115 133l-117 -133h-221zM486 -18q-172 0 -288 68t-171 179l217 127q80 -139 223 -139q57 1 94 21t37 57t-31 59t-114 58l-45 18q-147 59 -222 137q-74 78 -74 214t98 221q96 85 234 85q138 1 221 -41t146 -143l-211 -121
q-47 76 -129 76q-41 0 -67 -20t-26 -52q1 -56 53 -81q19 -10 58 -27l46 -19q172 -71 256 -147q83 -76 83 -220t-108 -228q-108 -82 -280 -82z" />
    <glyph glyph-name="Scommaaccent.sc" horiz-adv-x="940" 
d="M307 -240q0 66 46 111q45 45 109 45t112 -44t48 -118t-53 -160l-106 -174h-135l63 199q-84 41 -84 141zM486 -18q-172 0 -288 68t-171 179l217 127q80 -139 223 -139q57 1 94 21t37 57t-31 59t-114 58l-45 18q-147 59 -222 137q-74 78 -74 214t98 221q96 85 234 85
q138 1 221 -41t146 -143l-211 -121q-47 76 -129 76q-41 0 -67 -20t-26 -52q1 -56 53 -81q19 -10 58 -27l46 -19q172 -71 256 -147q83 -76 83 -220t-108 -228q-108 -82 -280 -82z" />
    <glyph glyph-name="Tcaron.sc" horiz-adv-x="1034" 
d="M502 1159l-326 443h221l115 -134l117 134h221l-326 -443h-22zM377 0v827h-303v242h887v-242h-304v-827h-280z" />
    <glyph glyph-name="uni021A.sc" horiz-adv-x="1034" 
d="M377 0v827h-303v242h887v-242h-304v-827h-77v-80q78 -14 130 -68t52 -144t-67 -144q-67 -55 -154 -56q-170 0 -242 123l131 80q31 -57 88 -57q30 0 52 18t22 52q0 70 -84 69h-70v207h-61z" />
    <glyph glyph-name="Tcommaaccent.sc" horiz-adv-x="1034" 
d="M358 -240q0 66 46 111t110 45t112 -44t48 -118t-53 -160l-107 -174h-135l63 199q-84 41 -84 141zM377 0v827h-303v242h887v-242h-304v-827h-280z" />
    <glyph glyph-name="Thorn.sc" horiz-adv-x="1034" 
d="M393 414h121q162 0 162 135t-162 135h-121v-270zM115 0v1069h278v-147h127q205 0 324 -92t119 -278t-119 -280t-324 -94h-127v-178h-278z" />
    <glyph glyph-name="Uacute.sc" horiz-adv-x="1138" 
d="M465 1198l106 385h316l-213 -385h-209zM1030 422q0 -212 -126 -326t-335 -114t-335 114t-125 326v647h278v-643q0 -197 182 -197t183 197v643h278v-647z" />
    <glyph glyph-name="Ubreve.sc" horiz-adv-x="1138" 
d="M569 1188q-143 0 -231 80t-100 207l211 30q16 -117 120 -117t121 117l211 -30q-13 -127 -101 -207t-231 -80zM1030 422q0 -212 -126 -326t-335 -114t-335 114t-125 326v647h278v-643q0 -197 182 -197t183 197v643h278v-647z" />
    <glyph glyph-name="Ucircumflex.sc" horiz-adv-x="1138" 
d="M229 1178l326 442h23l325 -442h-221l-115 133l-116 -133h-222zM1030 422q0 -212 -126 -326t-335 -114t-335 114t-125 326v647h278v-643q0 -197 182 -197t183 197v643h278v-647z" />
    <glyph glyph-name="Udieresis.sc" horiz-adv-x="1138" 
d="M356 1190q-61 0 -108 46t-47 110t47 109q47 46 108 46q60 0 108 -46t48 -109t-47 -110q-48 -46 -109 -46zM782 1190q-61 0 -108 46t-47 110t47 109q47 46 108 46q60 0 108 -46t48 -109t-47 -110q-48 -46 -109 -46zM1030 422q0 -212 -126 -326t-335 -114t-335 114
t-125 326v647h278v-643q0 -197 182 -197t183 197v643h278v-647z" />
    <glyph glyph-name="Ugrave.sc" horiz-adv-x="1138" 
d="M469 1198l-213 385h315l107 -385h-209zM1030 422q0 -212 -126 -326t-335 -114t-335 114t-125 326v647h278v-643q0 -197 182 -197t183 197v643h278v-647z" />
    <glyph glyph-name="Uhungarumlaut.sc" horiz-adv-x="1138" 
d="M274 1198l105 385h287l-183 -385h-209zM653 1198l105 385h286l-182 -385h-209zM1030 422q0 -212 -126 -326t-335 -114t-335 114t-125 326v647h278v-643q0 -197 182 -197t183 197v643h278v-647z" />
    <glyph glyph-name="Umacron.sc" horiz-adv-x="1138" 
d="M299 1231v203h541v-203h-541zM1030 422q0 -212 -126 -326t-335 -114t-335 114t-125 326v647h278v-643q0 -197 182 -197t183 197v643h278v-647z" />
    <glyph glyph-name="Uogonek.sc" horiz-adv-x="1138" 
d="M109 1069h278v-643q0 -197 182 -197t183 197v643h278v-647q0 -182 -95 -293t-259 -139l-78 -131q-53 -90 -53 -140q0 -59 57 -59q49 0 84 53l135 -78q-74 -127 -235 -127q-94 0 -156 54t-63 148q0 95 82 198l59 76q-184 16 -292 130t-107 308v647z" />
    <glyph glyph-name="Uring.sc" horiz-adv-x="1138" 
d="M569 1276q39 0 64 24t24 68q0 43 -24 68q-25 24 -64 24t-63 -24t-25 -68q1 -44 25 -68t63 -24zM569 1124q-111 0 -187 72t-77 172q0 100 77 172q78 72 188 72t187 -72t77 -172t-77 -172t-188 -72zM1030 422q0 -212 -126 -326t-335 -114t-335 114t-125 326v647h278v-643
q0 -197 182 -197t183 197v643h278v-647z" />
    <glyph glyph-name="Yacute.sc" horiz-adv-x="1067" 
d="M446 1198l107 385h315l-213 -385h-209zM401 0v391l-370 678h317l103 -205q51 -100 86 -225l12 -43q43 164 96 268l96 205h295l-356 -674v-395h-279z" />
    <glyph glyph-name="Ydieresis.sc" horiz-adv-x="1067" 
d="M764 1190q-61 0 -109 46q-47 46 -47 110t47 109q47 46 109 46t108 -46q48 -46 48 -109q0 -64 -48 -110t-108 -46zM338 1190q-61 0 -109 46q-47 46 -47 110t47 109q47 46 109 46t108 -46q48 -46 48 -109q0 -64 -48 -110t-108 -46zM401 0v391l-370 678h317l103 -205
q49 -96 98 -268q41 160 96 268l96 205h295l-356 -674v-395h-279z" />
    <glyph glyph-name="Zacute.sc" horiz-adv-x="1015" 
d="M426 1198l106 385h316l-213 -385h-209zM66 0v23l456 806h-377v240h801v-22l-457 -807h424v-240h-847z" />
    <glyph glyph-name="Zcaron.sc" horiz-adv-x="1015" 
d="M516 1159l-326 443h222l114 -134l117 134h221l-325 -443h-23zM66 0v23l456 806h-377v240h801v-22l-457 -807h424v-240h-847z" />
    <glyph glyph-name="Zdotaccent.sc" horiz-adv-x="1015" 
d="M532 1171q-72 -1 -124 49t-52 125t52 123t124 50q72 0 123 -50t51 -124t-50 -124q-52 -50 -124 -49zM66 0v23l456 806h-377v240h801v-22l-457 -807h424v-240h-847z" />
    <glyph glyph-name="space.sc" horiz-adv-x="452" 
 />
    <glyph glyph-name="dollar.sc" horiz-adv-x="1028" 
d="M340 793q0 -37 20 -60t86 -39v185q-106 -10 -106 -86zM709 291q0 80 -125 115v-209q125 14 125 94zM90 770q0 125 90 215t266 100v207h138v-211q199 -31 313 -180l-178 -135q-45 72 -135 100v-204q381 -88 381 -345q0 -313 -381 -333v-222h-138v224q-301 27 -417 250
l202 114q74 -127 215 -149v235q-356 84 -356 334z" />
    <glyph glyph-name="cent.sc" horiz-adv-x="909" 
d="M347 391q0 -133 106 -172v346q-106 -41 -106 -174zM453 -238v224q-166 23 -273 134q-106 112 -106 272t106 274q106 113 273 133v205h137v-205q178 -23 274 -150l-178 -153q-39 57 -96 73v-356q59 14 108 68l172 -158q-111 -121 -280 -137v-224h-137z" />
    <glyph glyph-name="Euro.sc" horiz-adv-x="1089" 
d="M649 -18q-170 0 -293 93t-174 253h-131v166h101q-2 23 -2 71h-99v166h125q51 164 176 260t295 96q260 0 393 -200l-200 -152q-76 115 -198 115t-177 -119h250v-166h-285q0 -51 2 -71h283v-166h-246q51 -109 179 -109t206 135l213 -129q-131 -243 -418 -243z" />
    <glyph glyph-name="sterling.sc" horiz-adv-x="1103" 
d="M377 193q-47 31 -96 31t-50 -46q1 -44 59 -44t87 59zM152 436v180h104q-31 78 -31 150q-1 143 99 232t278 89q254 0 383 -202l-221 -133q-53 98 -146 98q-48 0 -78 -28t-30 -74t35 -132h305v-180h-232q25 -83 15 -180q75 -27 151 -27t140 78l166 -178q-64 -82 -134 -115
q-70 -32 -184 -32t-235 88q-98 -88 -252 -88q-102 0 -166 55q-63 55 -64 141t59 141t156 56q51 0 111 -17q-6 21 -33 78h-196z" />
    <glyph glyph-name="yen.sc" horiz-adv-x="1140" 
d="M434 0v150h-311v178h311v22l-26 49h-285v179h186l-67 122q-66 123 -133 246l-68 123h313l125 -254q49 -97 86 -237l13 -48q53 180 106 285l127 254h289l-266 -491h190v-179h-287l-24 -47v-24h311v-178h-311v-150h-279z" />
    <glyph glyph-name="florin.sc" horiz-adv-x="856" 
d="M68 381v211h147l16 151q39 344 342 344q168 0 261 -124l-164 -158q-31 49 -80 49q-74 0 -86 -88l-21 -174h197v-211h-221l-64 -574h-270l65 574h-122z" />
    <glyph glyph-name="zero.sc" horiz-adv-x="1171" 
d="M586 227q104 0 163 80q58 79 58 227t-58 228q-59 80 -163 80t-162 -80t-59 -227q0 -147 58 -228q59 -80 163 -80zM586 -18q-215 0 -363 154q-147 155 -147 399q0 245 146 399t364 154t363 -156q147 -154 147 -398t-148 -398t-362 -154z" />
    <glyph glyph-name="one.sc" horiz-adv-x="694" 
d="M289 0v827h-215v242h493v-1069h-278z" />
    <glyph glyph-name="two.sc" horiz-adv-x="964" 
d="M25 0v23l434 450q145 152 145 250q0 51 -32 82t-91 31q-113 0 -174 -154l-252 70q41 158 156 246t288 89q173 0 281 -98t109 -256q0 -158 -191 -358l-65 -70q-25 -29 -80 -63l-16 -13q66 8 116 9h236v-238h-864z" />
    <glyph glyph-name="three.sc" horiz-adv-x="999" 
d="M926 354q0 -178 -128 -275t-301 -97q-175 0 -291 72t-169 198l237 110q59 -133 205 -133q72 0 116 40t44 105q0 66 -48 108t-134 42t-158 -28l-12 18l149 221q28 41 80 88l19 19q-106 -14 -160 -15h-246v242h786v-22l-172 -252q-31 -47 -94 -93q121 -28 199 -118t78 -230
z" />
    <glyph glyph-name="four.sc" horiz-adv-x="1087" 
d="M453 342h135v104q0 129 10 150l-16 -23q-53 -66 -82 -92l-74 -67l-107 -82q72 10 134 10zM578 0v133h-508v215l766 731h22v-727h152v-219h-152v-133h-280z" />
    <glyph glyph-name="five.sc" horiz-adv-x="976" 
d="M492 -18q-178 0 -290 72t-165 171l231 127q68 -123 195 -123q67 0 111 37q44 36 44 100t-51 101t-147 37q-145 0 -268 -82l-17 8v639h686v-240h-450v-137q43 18 116 19q195 1 306 -95t111 -263t-118 -269q-116 -102 -294 -102z" />
    <glyph glyph-name="six.sc" horiz-adv-x="1026" 
d="M356 381q0 -63 43 -109t118 -47q75 0 114 45t39 111q0 67 -38 109t-115 42t-119 -44t-42 -107zM518 -18q-192 0 -315 114t-123 281q0 133 113 303l264 389h313l-152 -219q-27 -39 -55 -66q-28 -26 -43 -41l-16 -14q35 10 71 10q160 0 270 -101q109 -101 109 -265
q0 -163 -122 -277t-314 -114z" />
    <glyph glyph-name="seven.sc" horiz-adv-x="997" 
d="M78 827v242h874v-22l-501 -1047h-299l399 827h-473z" />
    <glyph glyph-name="eight.sc" horiz-adv-x="1007" 
d="M391 778q0 -46 34 -74t83 -28t80 28t30 74q0 47 -32 74q-33 27 -83 27t-81 -27t-31 -74zM504 219q72 0 114 35t44 97q0 63 -44 101t-114 38t-114 -38t-44 -100t43 -98q43 -35 115 -35zM506 -18q-188 0 -313 94t-125 243q0 180 190 263q-131 72 -131 205t100 217
q101 84 281 84t277 -84t97 -218t-128 -204q186 -82 186 -263q0 -153 -123 -245t-311 -92z" />
    <glyph glyph-name="nine.sc" horiz-adv-x="1030" 
d="M356 689q0 -65 40 -109t117 -43q77 0 119 44t42 107q0 64 -43 110t-118 46t-116 -45t-41 -110zM455 330q-162 0 -273 101q-110 101 -110 264t125 278t316 115t314 -116q123 -114 123 -274t-123 -321l-284 -377h-310l170 219q29 39 66 75t51 44q-25 -8 -65 -8z" />
    <glyph glyph-name="percent.sc" horiz-adv-x="1751" 
d="M1366 188q43 0 75 32t32 83t-32 83t-75 32t-75 -32q-31 -32 -31 -83t32 -83t74 -32zM387 651q43 0 75 32t32 83t-32 83t-75 32t-75 -32t-32 -83t32 -83t75 -32zM1700 302q0 -138 -98 -229t-237 -91q-140 0 -238 91q-97 91 -97 229t98 230t238 92t236 -92q98 -92 98 -230z
M401 0l676 1069h273l-676 -1069h-273zM387 1087q139 0 237 -92t97 -230q1 -137 -97 -229t-238 -92t-238 92t-97 229q1 138 99 230t237 92z" />
    <glyph glyph-name="perthousand.sc" horiz-adv-x="2506" 
d="M1366 188q43 0 75 32t32 83t-32 83t-75 32t-75 -32q-31 -32 -31 -83t32 -83t74 -32zM2122 188q42 0 74 32t32 83t-32 83t-74 32t-75 -32q-32 -32 -32 -83t32 -83t75 -32zM387 651q43 0 75 32t32 83t-32 83t-75 32t-75 -32t-32 -83t32 -83t75 -32zM1700 302
q0 -138 -98 -229t-237 -91q-140 0 -238 91q-97 91 -97 229t98 230t238 92t236 -92q98 -92 98 -230zM2121 -18q-140 0 -238 91q-97 91 -97 229t98 230t238 92t236 -92q98 -92 98 -230t-98 -229t-237 -91zM401 0l676 1069h273l-676 -1069h-273zM387 1087q139 0 237 -92
t97 -230q1 -137 -97 -229t-238 -92t-238 92t-97 229q1 138 99 230t237 92z" />
    <glyph glyph-name="plus.sc" horiz-adv-x="841" 
d="M297 199v225h-217v242h217v225h248v-225h217v-242h-217v-225h-248z" />
    <glyph glyph-name="minus.sc" horiz-adv-x="841" 
d="M762 424h-682v242h682v-242z" />
    <glyph glyph-name="multiply.sc" horiz-adv-x="835" 
d="M418 377l-182 -182l-168 167l182 183l-182 182l168 168l182 -182l182 182l168 -168l-182 -182l182 -183l-168 -167z" />
    <glyph glyph-name="divide.sc" horiz-adv-x="841" 
d="M586 188q0 -72 -48 -118t-117 -47q-69 0 -117 47q-48 46 -48 118t48 118t117 46t117 -46t48 -118zM421 737q-69 0 -117 47t-48 119t48 118t117 46t117 -46t48 -118t-48 -119t-117 -47zM762 424h-682v242h682v-242z" />
    <glyph glyph-name="equal.sc" horiz-adv-x="829" 
d="M74 236v235h682v-235h-682zM74 571v236h682v-236h-682z" />
    <glyph glyph-name="less.sc" horiz-adv-x="733" 
d="M657 147l-610 342v21l610 338v-240l-219 -110l219 -111v-240z" />
    <glyph glyph-name="greater.sc" horiz-adv-x="733" 
d="M76 147v240l219 111l-219 110v240l610 -342v-21z" />
    <glyph glyph-name="degree.sc" horiz-adv-x="679" 
d="M340 713q45 -1 74 29t28 77q0 47 -28 76q-29 29 -74 29t-74 -29q-28 -29 -28 -76t28 -77q29 -29 74 -29zM627 820q0 -114 -84 -192t-202 -79q-118 0 -203 79q-85 78 -85 192t84 191t203 77t203 -78q84 -76 84 -190z" />
    <glyph glyph-name="period.sc" horiz-adv-x="509" 
d="M256 -12q-72 0 -123 49t-51 124t51 124t122 49t122 -49t51 -124t-50 -124t-122 -49z" />
    <glyph glyph-name="comma.sc" horiz-adv-x="509" 
d="M82 166q0 72 51 120t122 48t122 -49t51 -117t-61 -180l-121 -224h-140l78 246q-102 47 -102 156z" />
    <glyph glyph-name="colon.sc" horiz-adv-x="530" 
d="M266 -12q-72 0 -123 49t-51 124t51 124t122 49t122 -49t51 -124t-50 -124t-122 -49zM266 459q-72 0 -123 49t-51 124t51 124t122 49t122 -49t51 -124t-50 -124t-122 -49z" />
    <glyph glyph-name="semicolon.sc" horiz-adv-x="530" 
d="M265 334q71 0 122 -49t51 -117t-61 -180l-121 -224h-139l78 246q-102 47 -103 156q0 72 51 120t122 48zM266 459q-72 0 -123 49t-51 124t51 124t122 49t122 -49t51 -124t-50 -124t-122 -49z" />
    <glyph glyph-name="parenleft.sc" horiz-adv-x="704" 
d="M100 688q0 144 33 272q73 282 354 553l166 -133q-131 -160 -197 -320t-65 -372q0 -211 66 -372t196 -320l-166 -133q-284 276 -354 552q-33 128 -33 273z" />
    <glyph glyph-name="parenright.sc" horiz-adv-x="704" 
d="M604 688q0 -291 -128 -504q-62 -102 -120 -172t-139 -149l-166 133q131 160 197 320t65 372q0 211 -65 372q-66 161 -197 320l166 133q150 -146 268 -340q119 -194 119 -485z" />
    <glyph glyph-name="bracketleft.sc" horiz-adv-x="690" 
d="M123 -127v1626h506v-233h-230v-1160h230v-233h-506z" />
    <glyph glyph-name="bracketright.sc" horiz-adv-x="690" 
d="M61 -127v233h230v1160h-230v233h506v-1626h-506z" />
    <glyph glyph-name="braceleft.sc" horiz-adv-x="847" 
d="M612 -127q-324 0 -323 295v256q0 72 -28 104t-89 31h-119v234h119q61 -1 89 31t28 104v276q0 295 323 295h174v-233h-149q-41 0 -55 -16t-15 -54v-303q0 -103 -49 -153t-141 -64q92 -14 141 -64t49 -153v-283q1 -37 15 -53t55 -17h149v-233h-174z" />
    <glyph glyph-name="braceright.sc" horiz-adv-x="847" 
d="M61 -127v233h150q41 0 55 16t15 54v283q0 104 49 153t141 64q-92 14 -141 63t-49 154v303q-1 37 -15 53t-55 17h-150v233h175q324 0 323 -295v-276q0 -72 28 -104t89 -31h119v-234h-119q-61 0 -89 -32t-28 -103v-256q0 -295 -323 -295h-175z" />
    <glyph glyph-name="slash.sc" horiz-adv-x="827" 
d="M-33 -262l572 1741h270l-571 -1741h-271z" />
    <glyph glyph-name="section.sc" horiz-adv-x="995" 
d="M616 272q62 18 62 70t-72 80l-239 92q-55 -18 -55 -71t73 -81zM135 800q1 126 101 207t260 80q231 0 344 -159l-203 -133q-47 69 -135 69t-88 -61q0 -43 57 -66l248 -94q213 -82 213 -272q0 -121 -148 -193q86 -80 86 -182q0 -141 -104 -219t-268 -78t-272 52t-163 134
l209 146q82 -107 196 -107t114 60q0 39 -56 61l-256 98q-205 80 -205 235t156 216q-86 80 -86 206z" />
    <glyph glyph-name="numbersign.sc" horiz-adv-x="1077" 
d="M444 707h154l39 153h-154zM66 498v209h161l39 153h-110v209h161l52 199h215l-52 -199h154l51 199h215l-49 -199h109v-209h-160l-39 -153h109v-209h-162l-51 -207h-215l51 207h-154l-51 -207h-215l51 207h-110z" />
    <glyph glyph-name="summation.sc" horiz-adv-x="1044" 
d="M59 0v23l402 514l-408 510v22h875v-240h-262l-138 9q55 -57 93 -107l137 -184v-19l-144 -194q-16 -22 -40 -48t-37 -40l-15 -15q76 8 137 9h293v-240h-893z" />
    <glyph glyph-name="G.scalt" horiz-adv-x="1271" 
d="M674 -18q-254 0 -420 156t-166 395t166 397t405 157q303 0 453 -223l-219 -149q-78 127 -238 127q-123 0 -203 -87t-79 -221q0 -134 79 -222t205 -89q211 0 258 156h-231v221h510q25 -276 -120 -447t-400 -171z" />
    <glyph glyph-name="M.scalt" horiz-adv-x="1337" 
d="M96 0l94 1079h23l369 -444q47 -52 73 -107l13 -20q49 78 90 127l366 444h23l94 -1079h-270l-23 303q-8 104 -8 207q-47 -96 -113 -174l-149 -180h-21l-151 178q-82 94 -123 176q0 -184 -2 -211l-23 -299h-262z" />
    <glyph glyph-name="Q.scalt1" horiz-adv-x="1327" 
d="M541 414h245v-174q168 70 168 295q0 135 -81 221t-209 86t-210 -86q-81 -86 -81 -221q0 -225 168 -295v174zM786 -231h-245v229q-197 37 -325 183t-128 371q0 224 168 380t408 156t408 -156t167 -397q0 -207 -128 -353t-325 -184v-229z" />
    <glyph glyph-name="Q.scalt2" horiz-adv-x="1327" 
d="M664 227q130 0 210 85q80 86 80 222t-81 222t-209 86t-210 -86q-81 -86 -81 -222t81 -222t210 -85zM952 -55q72 0 131 67l168 -164q-106 -145 -303 -145q-115 0 -210 59t-175 141t-119 104t-90 22q-82 0 -157 -99l-172 168q66 88 161 121q-98 137 -98 316q0 241 168 397
t408 156t408 -156t167 -397q0 -199 -120 -345t-306 -190q67 -55 139 -55z" />
    <glyph glyph-name="Gbreve.scalt" horiz-adv-x="1271" 
d="M637 1188q-143 0 -231 80t-101 207l211 30q16 -117 120 -117t122 117l211 -30q-13 -127 -101 -207t-231 -80zM674 -18q-254 0 -420 156t-166 395t166 397t405 157q303 0 453 -223l-219 -149q-78 127 -238 127q-123 0 -203 -87t-79 -221q0 -134 79 -222t205 -89
q211 0 258 156h-231v221h510q25 -276 -120 -447t-400 -171z" />
    <glyph glyph-name="Gcircumflex.scalt" horiz-adv-x="1271" 
d="M297 1178l326 442h22l326 -442h-221l-115 133l-117 -133h-221zM674 -18q-254 0 -420 156t-166 395t166 397t405 157q303 0 453 -223l-219 -149q-78 127 -238 127q-123 0 -203 -87t-79 -221q0 -134 79 -222t205 -89q211 0 258 156h-231v221h510q25 -276 -120 -447
t-400 -171z" />
    <glyph glyph-name="Gcommaaccent.scalt" horiz-adv-x="1271" 
d="M479 -240q0 66 46 111q45 45 109 45t112 -44t48 -118t-53 -160l-106 -174h-135l63 199q-84 41 -84 141zM674 -18q-254 0 -420 156t-166 395t166 397t405 157q303 0 453 -223l-219 -149q-78 127 -238 127q-123 0 -203 -87t-79 -221q0 -134 79 -222t205 -89q211 0 258 156
h-231v221h510q25 -276 -120 -447t-400 -171z" />
    <glyph glyph-name="Gdotaccent.scalt" horiz-adv-x="1271" 
d="M639 1192q-72 0 -124 49t-52 124t52 124t124 49t123 -49t51 -124t-51 -124t-123 -49zM674 -18q-254 0 -420 156t-166 395t166 397t405 157q303 0 453 -223l-219 -149q-78 127 -238 127q-123 0 -203 -87t-79 -221q0 -134 79 -222t205 -89q211 0 258 156h-231v221h510
q25 -276 -120 -447t-400 -171z" />
    <glyph glyph-name="space.sctab" horiz-adv-x="409" 
 />
    <glyph glyph-name="dollar.sctab" 
d="M358 801q0 -37 20 -60t68 -41v179q-88 -14 -88 -78zM680 289q0 74 -96 108v-198q96 16 96 90zM446 1292h138v-211q180 -27 295 -180l-179 -135q-53 78 -116 100v-204q352 -109 352 -359q0 -297 -352 -319v-222h-138v224q-270 23 -393 250l203 114q39 -68 80 -104t110 -47
v239q-184 56 -261 138t-77 206t87 208q86 83 251 95v207z" />
    <glyph glyph-name="cent.sctab" 
d="M404 391q0 -133 106 -172v346q-106 -41 -106 -174zM647 -238h-137v224q-166 22 -272 134t-106 272t106 274q106 113 272 133v205h137v-205q178 -23 275 -150l-179 -153q-39 57 -96 73v-356q59 14 109 68l172 -158q-111 -121 -281 -137v-224z" />
    <glyph glyph-name="Euro.sctab" 
d="M616 -18q-164 0 -284 93t-168 253h-123v166h92v71h-92v166h117q49 166 168 261t284 95q248 0 377 -190l-190 -145q-37 54 -78 78t-105 24q-125 0 -174 -123h238v-166h-266v-71h266v-166h-236q47 -111 167 -111t192 125l209 -127q-130 -233 -394 -233z" />
    <glyph glyph-name="sterling.sctab" 
d="M207 184q0 -20 15 -36t40 -17q57 0 82 66q-41 29 -89 29t-48 -42zM121 436v180h98q-31 78 -31 150q0 143 100 232t281 89q274 0 375 -198l-221 -133q-47 94 -139 94q-102 0 -103 -109q0 -41 31 -125h274v-180h-206q16 -61 16 -103t-4 -79q68 -25 132 -25t118 60l166 -178
q-58 -70 -120 -100q-62 -29 -166 -29t-224 90q-94 -90 -214 -90t-185 55t-64 141q0 86 56 141t149 56q45 0 102 -15q-13 37 -31 76h-190z" />
    <glyph glyph-name="yen.sctab" 
d="M78 150v178h297v43l-15 28h-282v179h192l-247 491h313l123 -274q45 -102 61 -222q27 135 66 222l125 274h288l-243 -491h194v-179h-282l-15 -28v-43h297v-178h-297v-150h-278v150h-297z" />
    <glyph glyph-name="florin.sctab" 
d="M123 381v211h180l16 133q19 176 113 269t248 93q211 0 311 -165l-184 -142q-43 74 -113 74q-90 0 -104 -123l-17 -139h236v-211h-260l-64 -574h-270l66 574h-158z" />
    <glyph glyph-name="zero.sctab" 
d="M512 227q166 -1 166 307t-166 308t-166 -308t166 -307zM512 -18q-205 0 -332 152t-127 404q0 250 127 400t333 150t332 -150t126 -400t-127 -404q-127 -152 -332 -152z" />
    <glyph glyph-name="one.sctab" 
d="M391 229v611h-221v229h502v-840h219v-229h-737v229h237z" />
    <glyph glyph-name="two.sctab" 
d="M45 0v23l430 450q139 145 139 250q0 51 -29 82q-30 31 -87 31q-109 0 -170 -154l-252 70q42 158 154 246t284 89q172 0 278 -97t107 -259q0 -162 -184 -356l-66 -70q-25 -29 -80 -63l-16 -13q66 8 117 9h229v-238h-854z" />
    <glyph glyph-name="three.sctab" 
d="M500 -18q-330 0 -445 270l238 110q29 -63 73 -98t120 -35t119 40q42 40 42 105q0 66 -46 108t-131 42t-151 -26l-12 18l148 219q32 45 82 90l16 17q-102 -14 -156 -15h-241v242h778v-22l-172 -252q-36 -54 -80 -82l-14 -11q122 -32 194 -120t72 -228q0 -180 -124 -276
t-310 -96z" />
    <glyph glyph-name="four.sctab" 
d="M567 340v121l11 129q-51 -66 -86 -98l-95 -89q-40 -35 -100 -73q68 10 123 10h147zM821 352h131v-219h-131v-133h-266v133h-500v215l744 731h22v-727z" />
    <glyph glyph-name="five.sctab" 
d="M930 353q0 -167 -116 -269t-294 -102q-176 0 -290 72t-167 171l232 127q68 -123 194 -123q68 0 112 37q44 36 44 100t-51 101t-148 37q-147 0 -268 -80l-16 8v637h684v-240h-449v-137q43 18 117 19q196 1 306 -95t110 -263z" />
    <glyph glyph-name="six.sctab" 
d="M350 381q0 -63 43 -109t118 -47q75 0 114 45t39 111q0 67 -38 109t-115 42t-119 -44t-42 -107zM512 -18q-192 0 -315 114t-123 281q0 133 112 303l265 389h313l-152 -219q-14 -23 -114 -121q35 10 71 10q160 0 270 -101q109 -101 109 -265q0 -163 -122 -277t-314 -114z
" />
    <glyph glyph-name="seven.sctab" 
d="M84 827v242h874v-22l-493 -1047h-303l393 827h-471z" />
    <glyph glyph-name="eight.sctab" 
d="M515 676q46 0 74 26t27 74q0 47 -30 75q-31 28 -77 28t-75 -27q-28 -27 -28 -75t31 -75q32 -26 78 -26zM655 351q0 63 -40 101q-39 38 -105 38t-106 -38t-40 -100t40 -98q40 -35 106 -35t105 35q40 35 40 97zM512 -18q-182 0 -304 94t-122 243q0 178 186 263
q-131 72 -131 204q-1 132 99 216t273 85t270 -83t97 -219t-128 -203q182 -82 182 -263q0 -149 -120 -243t-302 -94z" />
    <glyph glyph-name="nine.sctab" 
d="M356 689q0 -65 40 -109t117 -43q77 0 119 44t42 107q0 64 -43 110t-118 46t-116 -45t-41 -110zM455 330q-162 0 -273 101q-110 101 -110 264t125 278t316 115t314 -116q123 -114 123 -274t-123 -321l-284 -377h-310l170 219q29 39 66 75t51 44q-25 -8 -65 -8z" />
    <glyph glyph-name="percent.sctab" horiz-adv-x="1536" 
d="M1210 180q82 0 82 123t-82 123t-82 -123t82 -123zM328 643q82 0 82 123t-82 123t-82 -123t82 -123zM1209 -18q-128 0 -213 90t-85 230t85 232t213 91q128 0 213 -91q85 -90 85 -230t-85 -231t-213 -91zM293 0l676 1069h272l-676 -1069h-272zM625 766q0 -138 -85 -230
t-213 -92t-213 90t-85 231q0 140 85 231t213 91t213 -91t85 -230z" />
    <glyph glyph-name="perthousand.sctab" horiz-adv-x="2252" 
d="M1241 180q82 0 82 123t-82 123t-82 -123t82 -123zM1913 180q82 0 82 123t-82 123t-82 -123t82 -123zM342 643q82 0 82 123t-82 123t-82 -123t82 -123zM1240 -18q-128 0 -213 90t-85 230t85 232t213 91q128 0 213 -91q85 -90 85 -230t-85 -231t-213 -91zM1912 -18
q-128 0 -213 90t-85 230t85 232t213 91q128 0 213 -91q85 -90 85 -230t-85 -231t-213 -91zM315 0l676 1069h273l-676 -1069h-273zM639 766q0 -138 -85 -230t-213 -92t-213 90t-85 231q0 140 85 231t213 91t213 -91t85 -230z" />
    <glyph glyph-name="plus.sctab" 
d="M635 424v-266h-248v266h-258v242h258v266h248v-266h258v-242h-258z" />
    <glyph glyph-name="minus.sctab" 
d="M129 424v242h766v-242h-766z" />
    <glyph glyph-name="multiply.sctab" 
d="M512 377l-215 -215l-168 168l215 215l-215 215l168 168l215 -215l215 215l168 -168l-215 -215l215 -215l-168 -168z" />
    <glyph glyph-name="divide.sctab" 
d="M676 188q0 -72 -48 -118t-117 -47q-69 0 -117 47q-48 46 -48 118t48 118t117 46t117 -46t48 -118zM129 424v242h764v-242h-764zM511 737q-69 0 -117 47t-48 119t48 118t117 46t117 -46t48 -118t-48 -119t-117 -47z" />
    <glyph glyph-name="equal.sctab" 
d="M123 236v235h778v-235h-778zM123 571v236h778v-236h-778z" />
    <glyph glyph-name="less.sctab" 
d="M834 106l-713 383v21l713 379v-240l-302 -151l302 -152v-240z" />
    <glyph glyph-name="greater.sctab" 
d="M190 106v240l302 152l-302 151v240l713 -383v-21z" />
    <glyph glyph-name="degree.sctab" horiz-adv-x="679" 
d="M340 713q45 -1 74 29t28 77q0 47 -28 76q-29 29 -74 29t-74 -29q-28 -29 -28 -76t28 -77q29 -29 74 -29zM627 820q0 -114 -84 -192t-202 -79q-118 0 -203 79q-85 78 -85 192t84 191t203 77t203 -78q84 -76 84 -190z" />
    <glyph glyph-name="period.sctab" horiz-adv-x="409" 
d="M204 -12q-69 0 -117 47t-48 119t48 118t117 45q69 0 117 -46q48 -45 48 -117t-48 -119t-117 -47z" />
    <glyph glyph-name="comma.sctab" horiz-adv-x="409" 
d="M39 158q0 68 49 114t117 45q68 0 116 -46t48 -109t-60 -174l-119 -224h-131l78 246q-98 45 -98 148z" />
    <glyph glyph-name="colon.sctab" horiz-adv-x="409" 
d="M204 -12q-69 0 -117 47t-48 119t48 118t117 45q69 0 117 -46q48 -45 48 -117t-48 -119t-117 -47zM204 467q-69 0 -117 47t-48 118t49 118t117 47t116 -47t48 -118t-48 -118t-117 -47z" />
    <glyph glyph-name="semicolon.sctab" horiz-adv-x="409" 
d="M39 158q0 68 49 114t117 45q68 0 116 -46t48 -109t-60 -174l-119 -224h-131l78 246q-98 45 -98 148zM204 467q-69 0 -117 47t-48 118t49 118t117 47t116 -47t48 -118t-48 -118t-117 -47z" />
    <glyph glyph-name="parenleft.sctab" horiz-adv-x="614" 
d="M55 688q0 276 93 468t253 355l170 -129q-119 -156 -172 -316t-53 -377q0 -218 53 -379t172 -316l-170 -129q-160 166 -253 356q-93 191 -93 467z" />
    <glyph glyph-name="parenright.sctab" horiz-adv-x="614" 
d="M268 689q0 218 -53 378t-172 315l170 129q160 -164 253 -355q93 -192 93 -468t-93 -466t-253 -357l-170 129q119 156 172 316t53 379z" />
    <glyph glyph-name="bracketleft.sctab" horiz-adv-x="614" 
d="M84 -127v1626h485v-233h-209v-1160h209v-233h-485z" />
    <glyph glyph-name="bracketright.sctab" horiz-adv-x="614" 
d="M43 -127v233h209v1160h-209v233h485v-1626h-485z" />
    <glyph glyph-name="braceleft.sctab" horiz-adv-x="614" 
d="M475 -127q-324 0 -323 295v256q0 72 -28 104t-89 31h-37v234h37q61 -1 89 31t28 104v276q0 295 323 295h96v-233h-71q-42 0 -56 -16t-14 -54v-303q0 -103 -49 -153t-141 -64q92 -14 141 -64t49 -153v-283q0 -37 14 -53t56 -17h71v-233h-96z" />
    <glyph glyph-name="braceright.sctab" horiz-adv-x="614" 
d="M43 -127v233h72q41 0 55 16t14 54v283q0 104 49 153t142 64q-92 14 -142 63q-49 49 -49 154v303q0 37 -14 53t-55 17h-72v233h96q324 0 324 -295v-276q-1 -72 27 -104t90 -31h36v-234h-36q-62 0 -90 -32t-27 -103v-256q0 -295 -324 -295h-96z" />
    <glyph glyph-name="section.sctab" 
d="M616 276l5 -2q57 23 57 64t-35 60q-12 7 -37 18l-196 88h-2q-2 2 -17 0t-31 -18t-16 -42q0 -45 53 -69zM538 858q-62 0 -61 -51q0 -39 60 -66l182 -82q215 -96 215 -253t-174 -232q76 -86 76 -206t-94 -194q-94 -75 -242 -75t-252 54t-156 141l211 137q55 -101 149 -101
t95 50q0 33 -53 57l-211 94q-193 86 -193 243t184 216q-76 78 -76 206t90 210q89 82 242 81q205 0 314 -155l-205 -133q-39 59 -101 59z" />
    <glyph glyph-name="numbersign.sctab" 
d="M604 860h-143l-39 -153h143zM139 860v209h166l49 199h209l-49 -199h143l50 199h208l-49 -199h109v-209h-160l-39 -153h109v-209h-162l-51 -207h-209l51 207h-145l-52 -207h-208l51 207h-111v209h164l39 153h-113z" />
    <glyph glyph-name="uni00A0.up" horiz-adv-x="372" 
 />
    </font>
</defs>
</svg>
